<?xml version="1.0" encoding="utf-8"?>
<svg xmlns="http://www.w3.org/2000/svg" xmlns:xlink="http://www.w3.org/1999/xlink" width="600" height="400" viewBox="0 0 2400 1600">
<defs>
  <clipPath id="clip500">
    <rect x="0" y="0" width="2400" height="1600"/>
  </clipPath>
</defs>
<path clip-path="url(#clip500)" d="M0 1600 L2400 1600 L2400 0 L0 0  Z" fill="#ffffff" fill-rule="evenodd" fill-opacity="1"/>
<defs>
  <clipPath id="clip501">
    <rect x="480" y="0" width="1681" height="1600"/>
  </clipPath>
</defs>
<path clip-path="url(#clip500)" d="M276.227 1486.45 L2352.76 1486.45 L2352.76 47.2441 L276.227 47.2441  Z" fill="#ffffff" fill-rule="evenodd" fill-opacity="1"/>
<defs>
  <clipPath id="clip502">
    <rect x="276" y="47" width="2078" height="1440"/>
  </clipPath>
</defs>
<polyline clip-path="url(#clip502)" style="stroke:#000000; stroke-linecap:round; stroke-linejoin:round; stroke-width:2; stroke-opacity:0.1; fill:none" points="630.009,1486.45 630.009,47.2441 "/>
<polyline clip-path="url(#clip502)" style="stroke:#000000; stroke-linecap:round; stroke-linejoin:round; stroke-width:2; stroke-opacity:0.1; fill:none" points="1314.49,1486.45 1314.49,47.2441 "/>
<polyline clip-path="url(#clip502)" style="stroke:#000000; stroke-linecap:round; stroke-linejoin:round; stroke-width:2; stroke-opacity:0.1; fill:none" points="1998.97,1486.45 1998.97,47.2441 "/>
<polyline clip-path="url(#clip500)" style="stroke:#000000; stroke-linecap:round; stroke-linejoin:round; stroke-width:4; stroke-opacity:1; fill:none" points="276.227,1486.45 2352.76,1486.45 "/>
<polyline clip-path="url(#clip500)" style="stroke:#000000; stroke-linecap:round; stroke-linejoin:round; stroke-width:4; stroke-opacity:1; fill:none" points="630.009,1486.45 630.009,1467.55 "/>
<polyline clip-path="url(#clip500)" style="stroke:#000000; stroke-linecap:round; stroke-linejoin:round; stroke-width:4; stroke-opacity:1; fill:none" points="1314.49,1486.45 1314.49,1467.55 "/>
<polyline clip-path="url(#clip500)" style="stroke:#000000; stroke-linecap:round; stroke-linejoin:round; stroke-width:4; stroke-opacity:1; fill:none" points="1998.97,1486.45 1998.97,1467.55 "/>
<path clip-path="url(#clip500)" d="M562.162 1515.42 L562.162 1519.98 Q559.5 1518.71 557.139 1518.08 Q554.778 1517.46 552.579 1517.46 Q548.759 1517.46 546.676 1518.94 Q544.616 1520.42 544.616 1523.15 Q544.616 1525.45 545.982 1526.63 Q547.37 1527.78 551.213 1528.5 L554.037 1529.08 Q559.269 1530.07 561.745 1532.6 Q564.245 1535.1 564.245 1539.31 Q564.245 1544.33 560.866 1546.93 Q557.509 1549.52 551.005 1549.52 Q548.551 1549.52 545.773 1548.96 Q543.019 1548.41 540.056 1547.32 L540.056 1542.51 Q542.903 1544.1 545.634 1544.91 Q548.366 1545.72 551.005 1545.72 Q555.009 1545.72 557.185 1544.15 Q559.361 1542.57 559.361 1539.66 Q559.361 1537.11 557.787 1535.68 Q556.236 1534.24 552.671 1533.52 L549.824 1532.97 Q544.593 1531.93 542.255 1529.7 Q539.917 1527.48 539.917 1523.52 Q539.917 1518.94 543.134 1516.3 Q546.375 1513.66 552.046 1513.66 Q554.477 1513.66 557 1514.1 Q559.523 1514.54 562.162 1515.42 Z" fill="#000000" fill-rule="nonzero" fill-opacity="1" /><path clip-path="url(#clip500)" d="M568.875 1522.92 L573.134 1522.92 L578.458 1543.15 L583.759 1522.92 L588.782 1522.92 L594.106 1543.15 L599.407 1522.92 L603.666 1522.92 L596.884 1548.85 L591.861 1548.85 L586.282 1527.6 L580.68 1548.85 L575.657 1548.85 L568.875 1522.92 Z" fill="#000000" fill-rule="nonzero" fill-opacity="1" /><path clip-path="url(#clip500)" d="M632.301 1534.82 L632.301 1536.9 L612.717 1536.9 Q612.995 1541.3 615.356 1543.62 Q617.74 1545.91 621.977 1545.91 Q624.43 1545.91 626.722 1545.31 Q629.037 1544.7 631.305 1543.5 L631.305 1547.53 Q629.014 1548.5 626.606 1549.01 Q624.199 1549.52 621.722 1549.52 Q615.518 1549.52 611.884 1545.91 Q608.273 1542.3 608.273 1536.14 Q608.273 1529.77 611.699 1526.05 Q615.148 1522.3 620.981 1522.3 Q626.213 1522.3 629.245 1525.68 Q632.301 1529.03 632.301 1534.82 M628.041 1533.57 Q627.995 1530.07 626.074 1527.99 Q624.176 1525.91 621.027 1525.91 Q617.463 1525.91 615.31 1527.92 Q613.18 1529.94 612.856 1533.59 L628.041 1533.57 Z" fill="#000000" fill-rule="nonzero" fill-opacity="1" /><path clip-path="url(#clip500)" d="M656.351 1526.86 L656.351 1512.83 L660.611 1512.83 L660.611 1548.85 L656.351 1548.85 L656.351 1544.96 Q655.009 1547.27 652.949 1548.41 Q650.912 1549.52 648.041 1549.52 Q643.342 1549.52 640.379 1545.77 Q637.439 1542.02 637.439 1535.91 Q637.439 1529.8 640.379 1526.05 Q643.342 1522.3 648.041 1522.3 Q650.912 1522.3 652.949 1523.43 Q655.009 1524.54 656.351 1526.86 M641.838 1535.91 Q641.838 1540.61 643.759 1543.29 Q645.703 1545.95 649.083 1545.95 Q652.463 1545.95 654.407 1543.29 Q656.351 1540.61 656.351 1535.91 Q656.351 1531.21 654.407 1528.55 Q652.463 1525.86 649.083 1525.86 Q645.703 1525.86 643.759 1528.55 Q641.838 1531.21 641.838 1535.91 Z" fill="#000000" fill-rule="nonzero" fill-opacity="1" /><path clip-path="url(#clip500)" d="M691.56 1534.82 L691.56 1536.9 L671.976 1536.9 Q672.254 1541.3 674.615 1543.62 Q676.999 1545.91 681.235 1545.91 Q683.689 1545.91 685.981 1545.31 Q688.296 1544.7 690.564 1543.5 L690.564 1547.53 Q688.272 1548.5 685.865 1549.01 Q683.458 1549.52 680.981 1549.52 Q674.777 1549.52 671.143 1545.91 Q667.532 1542.3 667.532 1536.14 Q667.532 1529.77 670.958 1526.05 Q674.407 1522.3 680.24 1522.3 Q685.472 1522.3 688.504 1525.68 Q691.56 1529.03 691.56 1534.82 M687.3 1533.57 Q687.254 1530.07 685.333 1527.99 Q683.435 1525.91 680.286 1525.91 Q676.722 1525.91 674.569 1527.92 Q672.439 1529.94 672.115 1533.59 L687.3 1533.57 Z" fill="#000000" fill-rule="nonzero" fill-opacity="1" /><path clip-path="url(#clip500)" d="M720.101 1533.2 L720.101 1548.85 L715.842 1548.85 L715.842 1533.34 Q715.842 1529.66 714.407 1527.83 Q712.971 1526 710.101 1526 Q706.652 1526 704.661 1528.2 Q702.671 1530.4 702.671 1534.2 L702.671 1548.85 L698.388 1548.85 L698.388 1522.92 L702.671 1522.92 L702.671 1526.95 Q704.198 1524.61 706.259 1523.45 Q708.342 1522.3 711.05 1522.3 Q715.518 1522.3 717.809 1525.07 Q720.101 1527.83 720.101 1533.2 Z" fill="#000000" fill-rule="nonzero" fill-opacity="1" /><path clip-path="url(#clip500)" d="M1233.14 1543.92 L1233.14 1534.63 L1225.5 1534.63 L1225.5 1530.79 L1237.77 1530.79 L1237.77 1545.63 Q1235.06 1547.55 1231.8 1548.55 Q1228.53 1549.52 1224.83 1549.52 Q1216.73 1549.52 1212.14 1544.8 Q1207.58 1540.05 1207.58 1531.6 Q1207.58 1523.13 1212.14 1518.41 Q1216.73 1513.66 1224.83 1513.66 Q1228.21 1513.66 1231.24 1514.5 Q1234.3 1515.33 1236.86 1516.95 L1236.86 1521.93 Q1234.27 1519.73 1231.36 1518.62 Q1228.44 1517.51 1225.22 1517.51 Q1218.88 1517.51 1215.68 1521.05 Q1212.51 1524.59 1212.51 1531.6 Q1212.51 1538.59 1215.68 1542.13 Q1218.88 1545.68 1225.22 1545.68 Q1227.7 1545.68 1229.64 1545.26 Q1231.59 1544.82 1233.14 1543.92 Z" fill="#000000" fill-rule="nonzero" fill-opacity="1" /><path clip-path="url(#clip500)" d="M1268.3 1534.82 L1268.3 1536.9 L1248.72 1536.9 Q1248.99 1541.3 1251.36 1543.62 Q1253.74 1545.91 1257.98 1545.91 Q1260.43 1545.91 1262.72 1545.31 Q1265.04 1544.7 1267.3 1543.5 L1267.3 1547.53 Q1265.01 1548.5 1262.61 1549.01 Q1260.2 1549.52 1257.72 1549.52 Q1251.52 1549.52 1247.88 1545.91 Q1244.27 1542.3 1244.27 1536.14 Q1244.27 1529.77 1247.7 1526.05 Q1251.15 1522.3 1256.98 1522.3 Q1262.21 1522.3 1265.24 1525.68 Q1268.3 1529.03 1268.3 1534.82 M1264.04 1533.57 Q1263.99 1530.07 1262.07 1527.99 Q1260.17 1525.91 1257.03 1525.91 Q1253.46 1525.91 1251.31 1527.92 Q1249.18 1529.94 1248.86 1533.59 L1264.04 1533.57 Z" fill="#000000" fill-rule="nonzero" fill-opacity="1" /><path clip-path="url(#clip500)" d="M1290.31 1526.9 Q1289.6 1526.49 1288.74 1526.3 Q1287.91 1526.09 1286.89 1526.09 Q1283.28 1526.09 1281.33 1528.45 Q1279.41 1530.79 1279.41 1535.19 L1279.41 1548.85 L1275.13 1548.85 L1275.13 1522.92 L1279.41 1522.92 L1279.41 1526.95 Q1280.75 1524.59 1282.91 1523.45 Q1285.06 1522.3 1288.14 1522.3 Q1288.58 1522.3 1289.11 1522.37 Q1289.64 1522.41 1290.29 1522.53 L1290.31 1526.9 Z" fill="#000000" fill-rule="nonzero" fill-opacity="1" /><path clip-path="url(#clip500)" d="M1314.13 1527.9 Q1315.73 1525.03 1317.95 1523.66 Q1320.17 1522.3 1323.18 1522.3 Q1327.23 1522.3 1329.43 1525.14 Q1331.63 1527.97 1331.63 1533.2 L1331.63 1548.85 L1327.35 1548.85 L1327.35 1533.34 Q1327.35 1529.61 1326.03 1527.81 Q1324.71 1526 1322 1526 Q1318.69 1526 1316.77 1528.2 Q1314.85 1530.4 1314.85 1534.2 L1314.85 1548.85 L1310.57 1548.85 L1310.57 1533.34 Q1310.57 1529.59 1309.25 1527.81 Q1307.93 1526 1305.17 1526 Q1301.91 1526 1299.99 1528.22 Q1298.07 1530.42 1298.07 1534.2 L1298.07 1548.85 L1293.79 1548.85 L1293.79 1522.92 L1298.07 1522.92 L1298.07 1526.95 Q1299.53 1524.57 1301.56 1523.43 Q1303.6 1522.3 1306.4 1522.3 Q1309.23 1522.3 1311.19 1523.73 Q1313.18 1525.17 1314.13 1527.9 Z" fill="#000000" fill-rule="nonzero" fill-opacity="1" /><path clip-path="url(#clip500)" d="M1351.91 1535.82 Q1346.75 1535.82 1344.76 1537 Q1342.77 1538.18 1342.77 1541.02 Q1342.77 1543.29 1344.25 1544.63 Q1345.75 1545.95 1348.32 1545.95 Q1351.86 1545.95 1353.99 1543.45 Q1356.15 1540.93 1356.15 1536.76 L1356.15 1535.82 L1351.91 1535.82 M1360.41 1534.06 L1360.41 1548.85 L1356.15 1548.85 L1356.15 1544.91 Q1354.69 1547.27 1352.51 1548.41 Q1350.34 1549.52 1347.19 1549.52 Q1343.21 1549.52 1340.85 1547.3 Q1338.51 1545.05 1338.51 1541.3 Q1338.51 1536.93 1341.42 1534.7 Q1344.36 1532.48 1350.17 1532.48 L1356.15 1532.48 L1356.15 1532.07 Q1356.15 1529.13 1354.2 1527.53 Q1352.28 1525.91 1348.79 1525.91 Q1346.56 1525.91 1344.46 1526.44 Q1342.35 1526.97 1340.41 1528.04 L1340.41 1524.1 Q1342.74 1523.2 1344.94 1522.76 Q1347.14 1522.3 1349.23 1522.3 Q1354.85 1522.3 1357.63 1525.21 Q1360.41 1528.13 1360.41 1534.06 Z" fill="#000000" fill-rule="nonzero" fill-opacity="1" /><path clip-path="url(#clip500)" d="M1390.73 1533.2 L1390.73 1548.85 L1386.47 1548.85 L1386.47 1533.34 Q1386.47 1529.66 1385.04 1527.83 Q1383.6 1526 1380.73 1526 Q1377.28 1526 1375.29 1528.2 Q1373.3 1530.4 1373.3 1534.2 L1373.3 1548.85 L1369.02 1548.85 L1369.02 1522.92 L1373.3 1522.92 L1373.3 1526.95 Q1374.83 1524.61 1376.89 1523.45 Q1378.97 1522.3 1381.68 1522.3 Q1386.15 1522.3 1388.44 1525.07 Q1390.73 1527.83 1390.73 1533.2 Z" fill="#000000" fill-rule="nonzero" fill-opacity="1" /><path clip-path="url(#clip500)" d="M1410.01 1551.26 Q1408.21 1555.88 1406.49 1557.3 Q1404.78 1558.71 1401.91 1558.71 L1398.51 1558.71 L1398.51 1555.14 L1401.01 1555.14 Q1402.77 1555.14 1403.74 1554.31 Q1404.71 1553.48 1405.89 1550.38 L1406.66 1548.43 L1396.17 1522.92 L1400.68 1522.92 L1408.79 1543.2 L1416.89 1522.92 L1421.4 1522.92 L1410.01 1551.26 Z" fill="#000000" fill-rule="nonzero" fill-opacity="1" /><path clip-path="url(#clip500)" d="M1897.1 1518.13 L1897.1 1545.01 L1902.75 1545.01 Q1909.9 1545.01 1913.21 1541.76 Q1916.54 1538.52 1916.54 1531.53 Q1916.54 1524.59 1913.21 1521.37 Q1909.9 1518.13 1902.75 1518.13 L1897.1 1518.13 M1892.42 1514.29 L1902.03 1514.29 Q1912.08 1514.29 1916.78 1518.48 Q1921.47 1522.64 1921.47 1531.53 Q1921.47 1540.47 1916.75 1544.66 Q1912.03 1548.85 1902.03 1548.85 L1892.42 1548.85 L1892.42 1514.29 Z" fill="#000000" fill-rule="nonzero" fill-opacity="1" /><path clip-path="url(#clip500)" d="M1950.92 1534.82 L1950.92 1536.9 L1931.34 1536.9 Q1931.61 1541.3 1933.97 1543.62 Q1936.36 1545.91 1940.59 1545.91 Q1943.05 1545.91 1945.34 1545.31 Q1947.66 1544.7 1949.92 1543.5 L1949.92 1547.53 Q1947.63 1548.5 1945.22 1549.01 Q1942.82 1549.52 1940.34 1549.52 Q1934.14 1549.52 1930.5 1545.91 Q1926.89 1542.3 1926.89 1536.14 Q1926.89 1529.77 1930.32 1526.05 Q1933.77 1522.3 1939.6 1522.3 Q1944.83 1522.3 1947.86 1525.68 Q1950.92 1529.03 1950.92 1534.82 M1946.66 1533.57 Q1946.61 1530.07 1944.69 1527.99 Q1942.79 1525.91 1939.65 1525.91 Q1936.08 1525.91 1933.93 1527.92 Q1931.8 1529.94 1931.47 1533.59 L1946.66 1533.57 Z" fill="#000000" fill-rule="nonzero" fill-opacity="1" /><path clip-path="url(#clip500)" d="M1979.46 1533.2 L1979.46 1548.85 L1975.2 1548.85 L1975.2 1533.34 Q1975.2 1529.66 1973.77 1527.83 Q1972.33 1526 1969.46 1526 Q1966.01 1526 1964.02 1528.2 Q1962.03 1530.4 1962.03 1534.2 L1962.03 1548.85 L1957.75 1548.85 L1957.75 1522.92 L1962.03 1522.92 L1962.03 1526.95 Q1963.56 1524.61 1965.62 1523.45 Q1967.7 1522.3 1970.41 1522.3 Q1974.88 1522.3 1977.17 1525.07 Q1979.46 1527.83 1979.46 1533.2 Z" fill="#000000" fill-rule="nonzero" fill-opacity="1" /><path clip-path="url(#clip500)" d="M2008.14 1527.9 Q2009.74 1525.03 2011.96 1523.66 Q2014.18 1522.3 2017.19 1522.3 Q2021.24 1522.3 2023.44 1525.14 Q2025.64 1527.97 2025.64 1533.2 L2025.64 1548.85 L2021.36 1548.85 L2021.36 1533.34 Q2021.36 1529.61 2020.04 1527.81 Q2018.72 1526 2016.01 1526 Q2012.7 1526 2010.78 1528.2 Q2008.86 1530.4 2008.86 1534.2 L2008.86 1548.85 L2004.58 1548.85 L2004.58 1533.34 Q2004.58 1529.59 2003.26 1527.81 Q2001.94 1526 1999.18 1526 Q1995.92 1526 1994 1528.22 Q1992.08 1530.42 1992.08 1534.2 L1992.08 1548.85 L1987.79 1548.85 L1987.79 1522.92 L1992.08 1522.92 L1992.08 1526.95 Q1993.53 1524.57 1995.57 1523.43 Q1997.61 1522.3 2000.41 1522.3 Q2003.23 1522.3 2005.2 1523.73 Q2007.19 1525.17 2008.14 1527.9 Z" fill="#000000" fill-rule="nonzero" fill-opacity="1" /><path clip-path="url(#clip500)" d="M2045.92 1535.82 Q2040.76 1535.82 2038.77 1537 Q2036.77 1538.18 2036.77 1541.02 Q2036.77 1543.29 2038.26 1544.63 Q2039.76 1545.95 2042.33 1545.95 Q2045.87 1545.95 2048 1543.45 Q2050.15 1540.93 2050.15 1536.76 L2050.15 1535.82 L2045.92 1535.82 M2054.41 1534.06 L2054.41 1548.85 L2050.15 1548.85 L2050.15 1544.91 Q2048.7 1547.27 2046.52 1548.41 Q2044.34 1549.52 2041.2 1549.52 Q2037.21 1549.52 2034.85 1547.3 Q2032.52 1545.05 2032.52 1541.3 Q2032.52 1536.93 2035.43 1534.7 Q2038.37 1532.48 2044.18 1532.48 L2050.15 1532.48 L2050.15 1532.07 Q2050.15 1529.13 2048.21 1527.53 Q2046.29 1525.91 2042.79 1525.91 Q2040.57 1525.91 2038.46 1526.44 Q2036.36 1526.97 2034.41 1528.04 L2034.41 1524.1 Q2036.75 1523.2 2038.95 1522.76 Q2041.15 1522.3 2043.23 1522.3 Q2048.86 1522.3 2051.64 1525.21 Q2054.41 1528.13 2054.41 1534.06 Z" fill="#000000" fill-rule="nonzero" fill-opacity="1" /><path clip-path="url(#clip500)" d="M2078.21 1526.9 Q2077.49 1526.49 2076.64 1526.3 Q2075.8 1526.09 2074.78 1526.09 Q2071.17 1526.09 2069.23 1528.45 Q2067.31 1530.79 2067.31 1535.19 L2067.31 1548.85 L2063.02 1548.85 L2063.02 1522.92 L2067.31 1522.92 L2067.31 1526.95 Q2068.65 1524.59 2070.8 1523.45 Q2072.96 1522.3 2076.03 1522.3 Q2076.47 1522.3 2077.01 1522.37 Q2077.54 1522.41 2078.19 1522.53 L2078.21 1526.9 Z" fill="#000000" fill-rule="nonzero" fill-opacity="1" /><path clip-path="url(#clip500)" d="M2082.52 1512.83 L2086.8 1512.83 L2086.8 1534.1 L2099.51 1522.92 L2104.95 1522.92 L2091.2 1535.05 L2105.52 1548.85 L2099.97 1548.85 L2086.8 1536.19 L2086.8 1548.85 L2082.52 1548.85 L2082.52 1512.83 Z" fill="#000000" fill-rule="nonzero" fill-opacity="1" /><polyline clip-path="url(#clip502)" style="stroke:#000000; stroke-linecap:round; stroke-linejoin:round; stroke-width:2; stroke-opacity:0.1; fill:none" points="276.227,1445.72 2352.76,1445.72 "/>
<polyline clip-path="url(#clip502)" style="stroke:#000000; stroke-linecap:round; stroke-linejoin:round; stroke-width:2; stroke-opacity:0.1; fill:none" points="276.227,1088.6 2352.76,1088.6 "/>
<polyline clip-path="url(#clip502)" style="stroke:#000000; stroke-linecap:round; stroke-linejoin:round; stroke-width:2; stroke-opacity:0.1; fill:none" points="276.227,731.491 2352.76,731.491 "/>
<polyline clip-path="url(#clip502)" style="stroke:#000000; stroke-linecap:round; stroke-linejoin:round; stroke-width:2; stroke-opacity:0.1; fill:none" points="276.227,374.379 2352.76,374.379 "/>
<polyline clip-path="url(#clip500)" style="stroke:#000000; stroke-linecap:round; stroke-linejoin:round; stroke-width:4; stroke-opacity:1; fill:none" points="276.227,1486.45 276.227,47.2441 "/>
<polyline clip-path="url(#clip500)" style="stroke:#000000; stroke-linecap:round; stroke-linejoin:round; stroke-width:4; stroke-opacity:1; fill:none" points="276.227,1445.72 295.125,1445.72 "/>
<polyline clip-path="url(#clip500)" style="stroke:#000000; stroke-linecap:round; stroke-linejoin:round; stroke-width:4; stroke-opacity:1; fill:none" points="276.227,1088.6 295.125,1088.6 "/>
<polyline clip-path="url(#clip500)" style="stroke:#000000; stroke-linecap:round; stroke-linejoin:round; stroke-width:4; stroke-opacity:1; fill:none" points="276.227,731.491 295.125,731.491 "/>
<polyline clip-path="url(#clip500)" style="stroke:#000000; stroke-linecap:round; stroke-linejoin:round; stroke-width:4; stroke-opacity:1; fill:none" points="276.227,374.379 295.125,374.379 "/>
<path clip-path="url(#clip500)" d="M228.283 1431.51 Q224.672 1431.51 222.843 1435.08 Q221.038 1438.62 221.038 1445.75 Q221.038 1452.86 222.843 1456.42 Q224.672 1459.96 228.283 1459.96 Q231.917 1459.96 233.723 1456.42 Q235.551 1452.86 235.551 1445.75 Q235.551 1438.62 233.723 1435.08 Q231.917 1431.51 228.283 1431.51 M228.283 1427.81 Q234.093 1427.81 237.149 1432.42 Q240.227 1437 240.227 1445.75 Q240.227 1454.48 237.149 1459.08 Q234.093 1463.67 228.283 1463.67 Q222.473 1463.67 219.394 1459.08 Q216.338 1454.48 216.338 1445.75 Q216.338 1437 219.394 1432.42 Q222.473 1427.81 228.283 1427.81 Z" fill="#000000" fill-rule="nonzero" fill-opacity="1" /><path clip-path="url(#clip500)" d="M57.7745 1108.4 L74.0939 1108.4 L74.0939 1112.33 L52.1495 1112.33 L52.1495 1108.4 Q54.8115 1105.64 59.3949 1101.01 Q64.0013 1096.36 65.1819 1095.02 Q67.4272 1092.49 68.3068 1090.76 Q69.2096 1089 69.2096 1087.31 Q69.2096 1084.55 67.2652 1082.82 Q65.3439 1081.08 62.2421 1081.08 Q60.043 1081.08 57.5893 1081.85 Q55.1588 1082.61 52.381 1084.16 L52.381 1079.44 Q55.2051 1078.3 57.6588 1077.72 Q60.1124 1077.15 62.1495 1077.15 Q67.5198 1077.15 70.7142 1079.83 Q73.9087 1082.52 73.9087 1087.01 Q73.9087 1089.14 73.0985 1091.06 Q72.3115 1092.96 70.205 1095.55 Q69.6263 1096.22 66.5245 1099.44 Q63.4226 1102.63 57.7745 1108.4 Z" fill="#000000" fill-rule="nonzero" fill-opacity="1" /><path clip-path="url(#clip500)" d="M83.9086 1106.45 L88.7928 1106.45 L88.7928 1112.33 L83.9086 1112.33 L83.9086 1106.45 Z" fill="#000000" fill-rule="nonzero" fill-opacity="1" /><path clip-path="url(#clip500)" d="M108.978 1080.85 Q105.367 1080.85 103.538 1084.41 Q101.733 1087.96 101.733 1095.09 Q101.733 1102.19 103.538 1105.76 Q105.367 1109.3 108.978 1109.3 Q112.612 1109.3 114.418 1105.76 Q116.246 1102.19 116.246 1095.09 Q116.246 1087.96 114.418 1084.41 Q112.612 1080.85 108.978 1080.85 M108.978 1077.15 Q114.788 1077.15 117.844 1081.75 Q120.922 1086.34 120.922 1095.09 Q120.922 1103.81 117.844 1108.42 Q114.788 1113 108.978 1113 Q103.168 1113 100.089 1108.42 Q97.0335 1103.81 97.0335 1095.09 Q97.0335 1086.34 100.089 1081.75 Q103.168 1077.15 108.978 1077.15 Z" fill="#000000" fill-rule="nonzero" fill-opacity="1" /><path clip-path="url(#clip500)" d="M157.311 1086.87 L146.732 1097.49 L157.311 1108.07 L154.556 1110.87 L143.931 1100.25 L133.306 1110.87 L130.575 1108.07 L141.131 1097.49 L130.575 1086.87 L133.306 1084.07 L143.931 1094.69 L154.556 1084.07 L157.311 1086.87 Z" fill="#000000" fill-rule="nonzero" fill-opacity="1" /><path clip-path="url(#clip500)" d="M169.672 1108.4 L177.311 1108.4 L177.311 1082.03 L169.001 1083.7 L169.001 1079.44 L177.265 1077.77 L181.94 1077.77 L181.94 1108.4 L189.579 1108.4 L189.579 1112.33 L169.672 1112.33 L169.672 1108.4 Z" fill="#000000" fill-rule="nonzero" fill-opacity="1" /><path clip-path="url(#clip500)" d="M209.024 1080.85 Q205.413 1080.85 203.584 1084.41 Q201.778 1087.96 201.778 1095.09 Q201.778 1102.19 203.584 1105.76 Q205.413 1109.3 209.024 1109.3 Q212.658 1109.3 214.463 1105.76 Q216.292 1102.19 216.292 1095.09 Q216.292 1087.96 214.463 1084.41 Q212.658 1080.85 209.024 1080.85 M209.024 1077.15 Q214.834 1077.15 217.889 1081.75 Q220.968 1086.34 220.968 1095.09 Q220.968 1103.81 217.889 1108.42 Q214.834 1113 209.024 1113 Q203.214 1113 200.135 1108.42 Q197.079 1103.81 197.079 1095.09 Q197.079 1086.34 200.135 1081.75 Q203.214 1077.15 209.024 1077.15 Z" fill="#000000" fill-rule="nonzero" fill-opacity="1" /><path clip-path="url(#clip500)" d="M230.598 1071.59 Q227.889 1071.59 226.328 1073.03 Q224.786 1074.48 224.786 1077.02 Q224.786 1079.56 226.328 1081.01 Q227.889 1082.46 230.598 1082.46 Q233.306 1082.46 234.867 1081.01 Q236.428 1079.54 236.428 1077.02 Q236.428 1074.48 234.867 1073.03 Q233.325 1071.59 230.598 1071.59 M226.798 1069.97 Q224.353 1069.37 222.98 1067.69 Q221.626 1066.02 221.626 1063.61 Q221.626 1060.24 224.015 1058.29 Q226.422 1056.33 230.598 1056.33 Q234.792 1056.33 237.18 1058.29 Q239.569 1060.24 239.569 1063.61 Q239.569 1066.02 238.196 1067.69 Q236.842 1069.37 234.416 1069.97 Q237.162 1070.61 238.685 1072.47 Q240.227 1074.33 240.227 1077.02 Q240.227 1081.1 237.726 1083.28 Q235.243 1085.47 230.598 1085.47 Q225.952 1085.47 223.451 1083.28 Q220.968 1081.1 220.968 1077.02 Q220.968 1074.33 222.51 1072.47 Q224.053 1070.61 226.798 1069.97 M225.407 1063.97 Q225.407 1066.15 226.761 1067.37 Q228.134 1068.6 230.598 1068.6 Q233.043 1068.6 234.416 1067.37 Q235.807 1066.15 235.807 1063.97 Q235.807 1061.79 234.416 1060.56 Q233.043 1059.34 230.598 1059.34 Q228.134 1059.34 226.761 1060.56 Q225.407 1061.79 225.407 1063.97 Z" fill="#000000" fill-rule="nonzero" fill-opacity="1" /><path clip-path="url(#clip500)" d="M66.5939 724.733 L54.7884 743.182 L66.5939 743.182 L66.5939 724.733 M65.367 720.659 L71.2466 720.659 L71.2466 743.182 L76.1772 743.182 L76.1772 747.071 L71.2466 747.071 L71.2466 755.219 L66.5939 755.219 L66.5939 747.071 L50.9921 747.071 L50.9921 742.557 L65.367 720.659 Z" fill="#000000" fill-rule="nonzero" fill-opacity="1" /><path clip-path="url(#clip500)" d="M83.9086 749.339 L88.7928 749.339 L88.7928 755.219 L83.9086 755.219 L83.9086 749.339 Z" fill="#000000" fill-rule="nonzero" fill-opacity="1" /><path clip-path="url(#clip500)" d="M108.978 723.737 Q105.367 723.737 103.538 727.302 Q101.733 730.844 101.733 737.973 Q101.733 745.08 103.538 748.645 Q105.367 752.186 108.978 752.186 Q112.612 752.186 114.418 748.645 Q116.246 745.08 116.246 737.973 Q116.246 730.844 114.418 727.302 Q112.612 723.737 108.978 723.737 M108.978 720.034 Q114.788 720.034 117.844 724.64 Q120.922 729.223 120.922 737.973 Q120.922 746.7 117.844 751.307 Q114.788 755.89 108.978 755.89 Q103.168 755.89 100.089 751.307 Q97.0335 746.7 97.0335 737.973 Q97.0335 729.223 100.089 724.64 Q103.168 720.034 108.978 720.034 Z" fill="#000000" fill-rule="nonzero" fill-opacity="1" /><path clip-path="url(#clip500)" d="M157.311 729.756 L146.732 740.381 L157.311 750.959 L154.556 753.76 L143.931 743.135 L133.306 753.76 L130.575 750.959 L141.131 740.381 L130.575 729.756 L133.306 726.955 L143.931 737.58 L154.556 726.955 L157.311 729.756 Z" fill="#000000" fill-rule="nonzero" fill-opacity="1" /><path clip-path="url(#clip500)" d="M169.672 751.283 L177.311 751.283 L177.311 724.918 L169.001 726.585 L169.001 722.325 L177.265 720.659 L181.94 720.659 L181.94 751.283 L189.579 751.283 L189.579 755.219 L169.672 755.219 L169.672 751.283 Z" fill="#000000" fill-rule="nonzero" fill-opacity="1" /><path clip-path="url(#clip500)" d="M209.024 723.737 Q205.413 723.737 203.584 727.302 Q201.778 730.844 201.778 737.973 Q201.778 745.08 203.584 748.645 Q205.413 752.186 209.024 752.186 Q212.658 752.186 214.463 748.645 Q216.292 745.08 216.292 737.973 Q216.292 730.844 214.463 727.302 Q212.658 723.737 209.024 723.737 M209.024 720.034 Q214.834 720.034 217.889 724.64 Q220.968 729.223 220.968 737.973 Q220.968 746.7 217.889 751.307 Q214.834 755.89 209.024 755.89 Q203.214 755.89 200.135 751.307 Q197.079 746.7 197.079 737.973 Q197.079 729.223 200.135 724.64 Q203.214 720.034 209.024 720.034 Z" fill="#000000" fill-rule="nonzero" fill-opacity="1" /><path clip-path="url(#clip500)" d="M230.598 714.474 Q227.889 714.474 226.328 715.922 Q224.786 717.37 224.786 719.909 Q224.786 722.448 226.328 723.896 Q227.889 725.344 230.598 725.344 Q233.306 725.344 234.867 723.896 Q236.428 722.429 236.428 719.909 Q236.428 717.37 234.867 715.922 Q233.325 714.474 230.598 714.474 M226.798 712.856 Q224.353 712.254 222.98 710.58 Q221.626 708.906 221.626 706.499 Q221.626 703.132 224.015 701.176 Q226.422 699.22 230.598 699.22 Q234.792 699.22 237.18 701.176 Q239.569 703.132 239.569 706.499 Q239.569 708.906 238.196 710.58 Q236.842 712.254 234.416 712.856 Q237.162 713.496 238.685 715.358 Q240.227 717.219 240.227 719.909 Q240.227 723.99 237.726 726.172 Q235.243 728.354 230.598 728.354 Q225.952 728.354 223.451 726.172 Q220.968 723.99 220.968 719.909 Q220.968 717.219 222.51 715.358 Q224.053 713.496 226.798 712.856 M225.407 706.856 Q225.407 709.038 226.761 710.261 Q228.134 711.483 230.598 711.483 Q233.043 711.483 234.416 710.261 Q235.807 709.038 235.807 706.856 Q235.807 704.675 234.416 703.452 Q233.043 702.23 230.598 702.23 Q228.134 702.23 226.761 703.452 Q225.407 704.675 225.407 706.856 Z" fill="#000000" fill-rule="nonzero" fill-opacity="1" /><path clip-path="url(#clip500)" d="M64.3254 378.963 Q61.1773 378.963 59.3254 381.116 Q57.4967 383.268 57.4967 387.018 Q57.4967 390.745 59.3254 392.921 Q61.1773 395.074 64.3254 395.074 Q67.4735 395.074 69.3022 392.921 Q71.1541 390.745 71.1541 387.018 Q71.1541 383.268 69.3022 381.116 Q67.4735 378.963 64.3254 378.963 M73.6077 364.31 L73.6077 368.569 Q71.8485 367.736 70.0429 367.296 Q68.2606 366.857 66.5013 366.857 Q61.8717 366.857 59.418 369.981 Q56.9875 373.106 56.6402 379.426 Q58.006 377.412 60.0662 376.347 Q62.1263 375.259 64.6032 375.259 Q69.8115 375.259 72.8207 378.431 Q75.8531 381.579 75.8531 387.018 Q75.8531 392.342 72.705 395.56 Q69.5568 398.778 64.3254 398.778 Q58.33 398.778 55.1588 394.194 Q51.9875 389.588 51.9875 380.861 Q51.9875 372.667 55.8764 367.806 Q59.7652 362.921 66.3161 362.921 Q68.0754 362.921 69.8578 363.269 Q71.6633 363.616 73.6077 364.31 Z" fill="#000000" fill-rule="nonzero" fill-opacity="1" /><path clip-path="url(#clip500)" d="M83.9086 392.227 L88.7928 392.227 L88.7928 398.106 L83.9086 398.106 L83.9086 392.227 Z" fill="#000000" fill-rule="nonzero" fill-opacity="1" /><path clip-path="url(#clip500)" d="M108.978 366.625 Q105.367 366.625 103.538 370.19 Q101.733 373.731 101.733 380.861 Q101.733 387.967 103.538 391.532 Q105.367 395.074 108.978 395.074 Q112.612 395.074 114.418 391.532 Q116.246 387.967 116.246 380.861 Q116.246 373.731 114.418 370.19 Q112.612 366.625 108.978 366.625 M108.978 362.921 Q114.788 362.921 117.844 367.528 Q120.922 372.111 120.922 380.861 Q120.922 389.588 117.844 394.194 Q114.788 398.778 108.978 398.778 Q103.168 398.778 100.089 394.194 Q97.0335 389.588 97.0335 380.861 Q97.0335 372.111 100.089 367.528 Q103.168 362.921 108.978 362.921 Z" fill="#000000" fill-rule="nonzero" fill-opacity="1" /><path clip-path="url(#clip500)" d="M157.311 372.644 L146.732 383.268 L157.311 393.847 L154.556 396.648 L143.931 386.023 L133.306 396.648 L130.575 393.847 L141.131 383.268 L130.575 372.644 L133.306 369.843 L143.931 380.468 L154.556 369.843 L157.311 372.644 Z" fill="#000000" fill-rule="nonzero" fill-opacity="1" /><path clip-path="url(#clip500)" d="M169.672 394.171 L177.311 394.171 L177.311 367.806 L169.001 369.472 L169.001 365.213 L177.265 363.546 L181.94 363.546 L181.94 394.171 L189.579 394.171 L189.579 398.106 L169.672 398.106 L169.672 394.171 Z" fill="#000000" fill-rule="nonzero" fill-opacity="1" /><path clip-path="url(#clip500)" d="M209.024 366.625 Q205.413 366.625 203.584 370.19 Q201.778 373.731 201.778 380.861 Q201.778 387.967 203.584 391.532 Q205.413 395.074 209.024 395.074 Q212.658 395.074 214.463 391.532 Q216.292 387.967 216.292 380.861 Q216.292 373.731 214.463 370.19 Q212.658 366.625 209.024 366.625 M209.024 362.921 Q214.834 362.921 217.889 367.528 Q220.968 372.111 220.968 380.861 Q220.968 389.588 217.889 394.194 Q214.834 398.778 209.024 398.778 Q203.214 398.778 200.135 394.194 Q197.079 389.588 197.079 380.861 Q197.079 372.111 200.135 367.528 Q203.214 362.921 209.024 362.921 Z" fill="#000000" fill-rule="nonzero" fill-opacity="1" /><path clip-path="url(#clip500)" d="M230.598 357.361 Q227.889 357.361 226.328 358.809 Q224.786 360.258 224.786 362.797 Q224.786 365.336 226.328 366.784 Q227.889 368.232 230.598 368.232 Q233.306 368.232 234.867 366.784 Q236.428 365.317 236.428 362.797 Q236.428 360.258 234.867 358.809 Q233.325 357.361 230.598 357.361 M226.798 355.744 Q224.353 355.142 222.98 353.468 Q221.626 351.794 221.626 349.387 Q221.626 346.02 224.015 344.064 Q226.422 342.108 230.598 342.108 Q234.792 342.108 237.18 344.064 Q239.569 346.02 239.569 349.387 Q239.569 351.794 238.196 353.468 Q236.842 355.142 234.416 355.744 Q237.162 356.383 238.685 358.245 Q240.227 360.107 240.227 362.797 Q240.227 366.878 237.726 369.06 Q235.243 371.241 230.598 371.241 Q225.952 371.241 223.451 369.06 Q220.968 366.878 220.968 362.797 Q220.968 360.107 222.51 358.245 Q224.053 356.383 226.798 355.744 M225.407 349.744 Q225.407 351.926 226.761 353.148 Q228.134 354.371 230.598 354.371 Q233.043 354.371 234.416 353.148 Q235.807 351.926 235.807 349.744 Q235.807 347.562 234.416 346.34 Q233.043 345.117 230.598 345.117 Q228.134 345.117 226.761 346.34 Q225.407 347.562 225.407 349.744 Z" fill="#000000" fill-rule="nonzero" fill-opacity="1" /><path clip-path="url(#clip502)" d="M390.44 87.9763 L390.44 598.05 L869.578 598.05 L869.578 87.9763 L390.44 87.9763 L390.44 87.9763  Z" fill="#009af9" fill-rule="evenodd" fill-opacity="1"/>
<polyline clip-path="url(#clip502)" style="stroke:#000000; stroke-linecap:round; stroke-linejoin:round; stroke-width:4; stroke-opacity:1; fill:none" points="390.44,87.9763 390.44,598.05 869.578,598.05 869.578,87.9763 390.44,87.9763 "/>
<path clip-path="url(#clip502)" d="M1074.92 1121.44 L1074.92 1318.68 L1554.06 1318.68 L1554.06 1121.44 L1074.92 1121.44 L1074.92 1121.44  Z" fill="#009af9" fill-rule="evenodd" fill-opacity="1"/>
<polyline clip-path="url(#clip502)" style="stroke:#000000; stroke-linecap:round; stroke-linejoin:round; stroke-width:4; stroke-opacity:1; fill:none" points="1074.92,1121.44 1074.92,1318.68 1554.06,1318.68 1554.06,1121.44 1074.92,1121.44 "/>
<path clip-path="url(#clip502)" d="M1759.41 1361.96 L1759.41 1421.55 L2238.54 1421.55 L2238.54 1361.96 L1759.41 1361.96 L1759.41 1361.96  Z" fill="#009af9" fill-rule="evenodd" fill-opacity="1"/>
<polyline clip-path="url(#clip502)" style="stroke:#000000; stroke-linecap:round; stroke-linejoin:round; stroke-width:4; stroke-opacity:1; fill:none" points="1759.41,1361.96 1759.41,1421.55 2238.54,1421.55 2238.54,1361.96 1759.41,1361.96 "/>
<circle clip-path="url(#clip502)" style="fill:#009af9; stroke:none; fill-opacity:0" cx="630.009" cy="87.9763" r="2"/>
<circle clip-path="url(#clip502)" style="fill:#009af9; stroke:none; fill-opacity:0" cx="1314.49" cy="1121.44" r="2"/>
<circle clip-path="url(#clip502)" style="fill:#009af9; stroke:none; fill-opacity:0" cx="1998.97" cy="1361.96" r="2"/>
<path clip-path="url(#clip502)" d="M390.44 598.05 L390.44 1206.86 L869.578 1206.86 L869.578 598.05 L390.44 598.05 L390.44 598.05  Z" fill="#e26f46" fill-rule="evenodd" fill-opacity="1"/>
<polyline clip-path="url(#clip502)" style="stroke:#000000; stroke-linecap:round; stroke-linejoin:round; stroke-width:4; stroke-opacity:1; fill:none" points="390.44,598.05 390.44,1206.86 869.578,1206.86 869.578,598.05 390.44,598.05 "/>
<path clip-path="url(#clip502)" d="M1074.92 1318.68 L1074.92 1318.68 L1554.06 1318.68 L1554.06 1318.68 L1074.92 1318.68 L1074.92 1318.68  Z" fill="#e26f46" fill-rule="evenodd" fill-opacity="1"/>
<polyline clip-path="url(#clip502)" style="stroke:#000000; stroke-linecap:round; stroke-linejoin:round; stroke-width:4; stroke-opacity:1; fill:none" points="1074.92,1318.68 1074.92,1318.68 1554.06,1318.68 1074.92,1318.68 "/>
<path clip-path="url(#clip502)" d="M1759.41 1421.55 L1759.41 1438.7 L2238.54 1438.7 L2238.54 1421.55 L1759.41 1421.55 L1759.41 1421.55  Z" fill="#e26f46" fill-rule="evenodd" fill-opacity="1"/>
<polyline clip-path="url(#clip502)" style="stroke:#000000; stroke-linecap:round; stroke-linejoin:round; stroke-width:4; stroke-opacity:1; fill:none" points="1759.41,1421.55 1759.41,1438.7 2238.54,1438.7 2238.54,1421.55 1759.41,1421.55 "/>
<circle clip-path="url(#clip502)" style="fill:#e26f46; stroke:none; fill-opacity:0" cx="630.009" cy="598.05" r="2"/>
<circle clip-path="url(#clip502)" style="fill:#e26f46; stroke:none; fill-opacity:0" cx="1314.49" cy="1318.68" r="2"/>
<circle clip-path="url(#clip502)" style="fill:#e26f46; stroke:none; fill-opacity:0" cx="1998.97" cy="1421.55" r="2"/>
<path clip-path="url(#clip502)" d="M390.44 1206.86 L390.44 1248.47 L869.578 1248.47 L869.578 1206.86 L390.44 1206.86 L390.44 1206.86  Z" fill="#3da44d" fill-rule="evenodd" fill-opacity="1"/>
<polyline clip-path="url(#clip502)" style="stroke:#000000; stroke-linecap:round; stroke-linejoin:round; stroke-width:4; stroke-opacity:1; fill:none" points="390.44,1206.86 390.44,1248.47 869.578,1248.47 869.578,1206.86 390.44,1206.86 "/>
<path clip-path="url(#clip502)" d="M1074.92 1318.68 L1074.92 1322.78 L1554.06 1322.78 L1554.06 1318.68 L1074.92 1318.68 L1074.92 1318.68  Z" fill="#3da44d" fill-rule="evenodd" fill-opacity="1"/>
<polyline clip-path="url(#clip502)" style="stroke:#000000; stroke-linecap:round; stroke-linejoin:round; stroke-width:4; stroke-opacity:1; fill:none" points="1074.92,1318.68 1074.92,1322.78 1554.06,1322.78 1554.06,1318.68 1074.92,1318.68 "/>
<path clip-path="url(#clip502)" d="M1759.41 1438.7 L1759.41 1440.41 L2238.54 1440.41 L2238.54 1438.7 L1759.41 1438.7 L1759.41 1438.7  Z" fill="#3da44d" fill-rule="evenodd" fill-opacity="1"/>
<polyline clip-path="url(#clip502)" style="stroke:#000000; stroke-linecap:round; stroke-linejoin:round; stroke-width:4; stroke-opacity:1; fill:none" points="1759.41,1438.7 1759.41,1440.41 2238.54,1440.41 2238.54,1438.7 1759.41,1438.7 "/>
<circle clip-path="url(#clip502)" style="fill:#3da44d; stroke:none; fill-opacity:0" cx="630.009" cy="1206.86" r="2"/>
<circle clip-path="url(#clip502)" style="fill:#3da44d; stroke:none; fill-opacity:0" cx="1314.49" cy="1318.68" r="2"/>
<circle clip-path="url(#clip502)" style="fill:#3da44d; stroke:none; fill-opacity:0" cx="1998.97" cy="1438.7" r="2"/>
<path clip-path="url(#clip502)" d="M390.44 1248.47 L390.44 1248.47 L869.578 1248.47 L869.578 1248.47 L390.44 1248.47 L390.44 1248.47  Z" fill="#c271d2" fill-rule="evenodd" fill-opacity="1"/>
<polyline clip-path="url(#clip502)" style="stroke:#000000; stroke-linecap:round; stroke-linejoin:round; stroke-width:4; stroke-opacity:1; fill:none" points="390.44,1248.47 390.44,1248.47 869.578,1248.47 390.44,1248.47 "/>
<path clip-path="url(#clip502)" d="M1074.92 1322.78 L1074.92 1438.84 L1554.06 1438.84 L1554.06 1322.78 L1074.92 1322.78 L1074.92 1322.78  Z" fill="#c271d2" fill-rule="evenodd" fill-opacity="1"/>
<polyline clip-path="url(#clip502)" style="stroke:#000000; stroke-linecap:round; stroke-linejoin:round; stroke-width:4; stroke-opacity:1; fill:none" points="1074.92,1322.78 1074.92,1438.84 1554.06,1438.84 1554.06,1322.78 1074.92,1322.78 "/>
<path clip-path="url(#clip502)" d="M1759.41 1440.41 L1759.41 1440.41 L2238.54 1440.41 L2238.54 1440.41 L1759.41 1440.41 L1759.41 1440.41  Z" fill="#c271d2" fill-rule="evenodd" fill-opacity="1"/>
<polyline clip-path="url(#clip502)" style="stroke:#000000; stroke-linecap:round; stroke-linejoin:round; stroke-width:4; stroke-opacity:1; fill:none" points="1759.41,1440.41 1759.41,1440.41 2238.54,1440.41 1759.41,1440.41 "/>
<circle clip-path="url(#clip502)" style="fill:#c271d2; stroke:none; fill-opacity:0" cx="630.009" cy="1248.47" r="2"/>
<circle clip-path="url(#clip502)" style="fill:#c271d2; stroke:none; fill-opacity:0" cx="1314.49" cy="1322.78" r="2"/>
<circle clip-path="url(#clip502)" style="fill:#c271d2; stroke:none; fill-opacity:0" cx="1998.97" cy="1440.41" r="2"/>
<path clip-path="url(#clip502)" d="M390.44 1248.47 L390.44 1445.72 L869.578 1445.72 L869.578 1248.47 L390.44 1248.47 L390.44 1248.47  Z" fill="#ac8d18" fill-rule="evenodd" fill-opacity="1"/>
<polyline clip-path="url(#clip502)" style="stroke:#000000; stroke-linecap:round; stroke-linejoin:round; stroke-width:4; stroke-opacity:1; fill:none" points="390.44,1248.47 390.44,1445.72 869.578,1445.72 869.578,1248.47 390.44,1248.47 "/>
<path clip-path="url(#clip502)" d="M1074.92 1438.84 L1074.92 1445.72 L1554.06 1445.72 L1554.06 1438.84 L1074.92 1438.84 L1074.92 1438.84  Z" fill="#ac8d18" fill-rule="evenodd" fill-opacity="1"/>
<polyline clip-path="url(#clip502)" style="stroke:#000000; stroke-linecap:round; stroke-linejoin:round; stroke-width:4; stroke-opacity:1; fill:none" points="1074.92,1438.84 1074.92,1445.72 1554.06,1445.72 1554.06,1438.84 1074.92,1438.84 "/>
<path clip-path="url(#clip502)" d="M1759.41 1440.41 L1759.41 1445.72 L2238.54 1445.72 L2238.54 1440.41 L1759.41 1440.41 L1759.41 1440.41  Z" fill="#ac8d18" fill-rule="evenodd" fill-opacity="1"/>
<polyline clip-path="url(#clip502)" style="stroke:#000000; stroke-linecap:round; stroke-linejoin:round; stroke-width:4; stroke-opacity:1; fill:none" points="1759.41,1440.41 1759.41,1445.72 2238.54,1445.72 2238.54,1440.41 1759.41,1440.41 "/>
<circle clip-path="url(#clip502)" style="fill:#ac8d18; stroke:none; fill-opacity:0" cx="630.009" cy="1248.47" r="2"/>
<circle clip-path="url(#clip502)" style="fill:#ac8d18; stroke:none; fill-opacity:0" cx="1314.49" cy="1438.84" r="2"/>
<circle clip-path="url(#clip502)" style="fill:#ac8d18; stroke:none; fill-opacity:0" cx="1998.97" cy="1440.41" r="2"/>
<path clip-path="url(#clip500)" d="M1908.57 406.258 L2283.54 406.258 L2283.54 95.2176 L1908.57 95.2176  Z" fill="#ffffff" fill-rule="evenodd" fill-opacity="1"/>
<polyline clip-path="url(#clip500)" style="stroke:#000000; stroke-linecap:round; stroke-linejoin:round; stroke-width:4; stroke-opacity:1; fill:none" points="1908.57,406.258 2283.54,406.258 2283.54,95.2176 1908.57,95.2176 1908.57,406.258 "/>
<path clip-path="url(#clip500)" d="M1931.64 167.794 L2070.08 167.794 L2070.08 126.322 L1931.64 126.322 L1931.64 167.794  Z" fill="#009af9" fill-rule="evenodd" fill-opacity="1"/>
<polyline clip-path="url(#clip500)" style="stroke:#000000; stroke-linecap:round; stroke-linejoin:round; stroke-width:4; stroke-opacity:1; fill:none" points="1931.64,167.794 2070.08,167.794 2070.08,126.322 1931.64,126.322 1931.64,167.794 "/>
<path clip-path="url(#clip500)" d="M2093.15 129.778 L2097.87 129.778 L2105.14 158.99 L2112.39 129.778 L2117.64 129.778 L2124.91 158.99 L2132.16 129.778 L2136.9 129.778 L2128.22 164.338 L2122.34 164.338 L2115.05 134.338 L2107.69 164.338 L2101.81 164.338 L2093.15 129.778 Z" fill="#000000" fill-rule="nonzero" fill-opacity="1" /><path clip-path="url(#clip500)" d="M2141.88 138.412 L2146.14 138.412 L2146.14 164.338 L2141.88 164.338 L2141.88 138.412 M2141.88 128.319 L2146.14 128.319 L2146.14 133.713 L2141.88 133.713 L2141.88 128.319 Z" fill="#000000" fill-rule="nonzero" fill-opacity="1" /><path clip-path="url(#clip500)" d="M2176.6 148.689 L2176.6 164.338 L2172.34 164.338 L2172.34 148.828 Q2172.34 145.148 2170.91 143.319 Q2169.47 141.49 2166.6 141.49 Q2163.15 141.49 2161.16 143.69 Q2159.17 145.889 2159.17 149.685 L2159.17 164.338 L2154.89 164.338 L2154.89 138.412 L2159.17 138.412 L2159.17 142.44 Q2160.7 140.102 2162.76 138.944 Q2164.84 137.787 2167.55 137.787 Q2172.02 137.787 2174.31 140.565 Q2176.6 143.319 2176.6 148.689 Z" fill="#000000" fill-rule="nonzero" fill-opacity="1" /><path clip-path="url(#clip500)" d="M2202.16 142.347 L2202.16 128.319 L2206.42 128.319 L2206.42 164.338 L2202.16 164.338 L2202.16 160.449 Q2200.81 162.763 2198.75 163.898 Q2196.72 165.009 2193.85 165.009 Q2189.15 165.009 2186.18 161.259 Q2183.24 157.509 2183.24 151.398 Q2183.24 145.287 2186.18 141.537 Q2189.15 137.787 2193.85 137.787 Q2196.72 137.787 2198.75 138.921 Q2200.81 140.032 2202.16 142.347 M2187.64 151.398 Q2187.64 156.097 2189.56 158.782 Q2191.51 161.444 2194.89 161.444 Q2198.27 161.444 2200.21 158.782 Q2202.16 156.097 2202.16 151.398 Q2202.16 146.699 2200.21 144.037 Q2198.27 141.352 2194.89 141.352 Q2191.51 141.352 2189.56 144.037 Q2187.64 146.699 2187.64 151.398 Z" fill="#000000" fill-rule="nonzero" fill-opacity="1" /><path clip-path="url(#clip500)" d="M1931.64 219.634 L2070.08 219.634 L2070.08 178.162 L1931.64 178.162 L1931.64 219.634  Z" fill="#e26f46" fill-rule="evenodd" fill-opacity="1"/>
<polyline clip-path="url(#clip500)" style="stroke:#000000; stroke-linecap:round; stroke-linejoin:round; stroke-width:4; stroke-opacity:1; fill:none" points="1931.64,219.634 2070.08,219.634 2070.08,178.162 1931.64,178.162 1931.64,219.634 "/>
<path clip-path="url(#clip500)" d="M2097.83 185.46 L2097.83 198.446 L2103.71 198.446 Q2106.97 198.446 2108.75 196.756 Q2110.54 195.067 2110.54 191.942 Q2110.54 188.84 2108.75 187.15 Q2106.97 185.46 2103.71 185.46 L2097.83 185.46 M2093.15 181.618 L2103.71 181.618 Q2109.52 181.618 2112.48 184.256 Q2115.47 186.872 2115.47 191.942 Q2115.47 197.057 2112.48 199.673 Q2109.52 202.289 2103.71 202.289 L2097.83 202.289 L2097.83 216.178 L2093.15 216.178 L2093.15 181.618 Z" fill="#000000" fill-rule="nonzero" fill-opacity="1" /><path clip-path="url(#clip500)" d="M2130.65 216.178 L2117.46 181.618 L2122.34 181.618 L2133.29 210.715 L2144.26 181.618 L2149.12 181.618 L2135.95 216.178 L2130.65 216.178 Z" fill="#000000" fill-rule="nonzero" fill-opacity="1" /><path clip-path="url(#clip500)" d="M1931.64 271.474 L2070.08 271.474 L2070.08 230.002 L1931.64 230.002 L1931.64 271.474  Z" fill="#3da44d" fill-rule="evenodd" fill-opacity="1"/>
<polyline clip-path="url(#clip500)" style="stroke:#000000; stroke-linecap:round; stroke-linejoin:round; stroke-width:4; stroke-opacity:1; fill:none" points="1931.64,271.474 2070.08,271.474 2070.08,230.002 1931.64,230.002 1931.64,271.474 "/>
<path clip-path="url(#clip500)" d="M2118.71 263.087 L2118.71 253.805 L2111.07 253.805 L2111.07 249.962 L2123.34 249.962 L2123.34 264.8 Q2120.63 266.721 2117.36 267.717 Q2114.1 268.689 2110.4 268.689 Q2102.3 268.689 2097.71 263.967 Q2093.15 259.221 2093.15 250.772 Q2093.15 242.3 2097.71 237.578 Q2102.3 232.833 2110.4 232.833 Q2113.78 232.833 2116.81 233.666 Q2119.86 234.499 2122.43 236.12 L2122.43 241.096 Q2119.84 238.897 2116.92 237.786 Q2114.01 236.675 2110.79 236.675 Q2104.45 236.675 2101.25 240.217 Q2098.08 243.758 2098.08 250.772 Q2098.08 257.763 2101.25 261.305 Q2104.45 264.846 2110.79 264.846 Q2113.27 264.846 2115.21 264.43 Q2117.16 263.99 2118.71 263.087 Z" fill="#000000" fill-rule="nonzero" fill-opacity="1" /><path clip-path="url(#clip500)" d="M2143.48 254.985 Q2138.31 254.985 2136.32 256.166 Q2134.33 257.346 2134.33 260.194 Q2134.33 262.462 2135.81 263.805 Q2137.32 265.124 2139.89 265.124 Q2143.43 265.124 2145.56 262.624 Q2147.71 260.101 2147.71 255.934 L2147.71 254.985 L2143.48 254.985 M2151.97 253.226 L2151.97 268.018 L2147.71 268.018 L2147.71 264.082 Q2146.25 266.443 2144.08 267.578 Q2141.9 268.689 2138.75 268.689 Q2134.77 268.689 2132.41 266.467 Q2130.07 264.221 2130.07 260.471 Q2130.07 256.096 2132.99 253.874 Q2135.93 251.652 2141.74 251.652 L2147.71 251.652 L2147.71 251.235 Q2147.71 248.295 2145.77 246.698 Q2143.85 245.078 2140.35 245.078 Q2138.13 245.078 2136.02 245.61 Q2133.92 246.143 2131.97 247.207 L2131.97 243.272 Q2134.31 242.37 2136.51 241.93 Q2138.71 241.467 2140.79 241.467 Q2146.42 241.467 2149.19 244.383 Q2151.97 247.3 2151.97 253.226 Z" fill="#000000" fill-rule="nonzero" fill-opacity="1" /><path clip-path="url(#clip500)" d="M2177.27 242.856 L2177.27 246.883 Q2175.47 245.957 2173.52 245.495 Q2171.58 245.032 2169.49 245.032 Q2166.32 245.032 2164.73 246.004 Q2163.15 246.976 2163.15 248.92 Q2163.15 250.402 2164.29 251.258 Q2165.42 252.092 2168.85 252.856 L2170.3 253.18 Q2174.84 254.152 2176.74 255.934 Q2178.66 257.694 2178.66 260.865 Q2178.66 264.476 2175.79 266.582 Q2172.94 268.689 2167.94 268.689 Q2165.86 268.689 2163.59 268.272 Q2161.35 267.879 2158.85 267.068 L2158.85 262.67 Q2161.21 263.897 2163.5 264.522 Q2165.79 265.124 2168.04 265.124 Q2171.04 265.124 2172.67 264.106 Q2174.29 263.064 2174.29 261.189 Q2174.29 259.453 2173.11 258.527 Q2171.95 257.601 2167.99 256.744 L2166.51 256.397 Q2162.55 255.564 2160.79 253.851 Q2159.03 252.115 2159.03 249.106 Q2159.03 245.448 2161.62 243.458 Q2164.22 241.467 2168.98 241.467 Q2171.35 241.467 2173.43 241.814 Q2175.51 242.161 2177.27 242.856 Z" fill="#000000" fill-rule="nonzero" fill-opacity="1" /><path clip-path="url(#clip500)" d="M1931.64 323.314 L2070.08 323.314 L2070.08 281.842 L1931.64 281.842 L1931.64 323.314  Z" fill="#c271d2" fill-rule="evenodd" fill-opacity="1"/>
<polyline clip-path="url(#clip500)" style="stroke:#000000; stroke-linecap:round; stroke-linejoin:round; stroke-width:4; stroke-opacity:1; fill:none" points="1931.64,323.314 2070.08,323.314 2070.08,281.842 1931.64,281.842 1931.64,323.314 "/>
<path clip-path="url(#clip500)" d="M2093.15 285.298 L2097.83 285.298 L2097.83 299.464 L2114.82 299.464 L2114.82 285.298 L2119.49 285.298 L2119.49 319.858 L2114.82 319.858 L2114.82 303.399 L2097.83 303.399 L2097.83 319.858 L2093.15 319.858 L2093.15 285.298 Z" fill="#000000" fill-rule="nonzero" fill-opacity="1" /><path clip-path="url(#clip500)" d="M2139.4 322.265 Q2137.6 326.895 2135.88 328.307 Q2134.17 329.719 2131.3 329.719 L2127.9 329.719 L2127.9 326.154 L2130.4 326.154 Q2132.16 326.154 2133.13 325.32 Q2134.1 324.487 2135.28 321.385 L2136.05 319.441 L2125.56 293.932 L2130.07 293.932 L2138.17 314.209 L2146.28 293.932 L2150.79 293.932 L2139.4 322.265 Z" fill="#000000" fill-rule="nonzero" fill-opacity="1" /><path clip-path="url(#clip500)" d="M2173.73 297.867 L2173.73 283.839 L2177.99 283.839 L2177.99 319.858 L2173.73 319.858 L2173.73 315.969 Q2172.39 318.283 2170.33 319.418 Q2168.29 320.529 2165.42 320.529 Q2160.72 320.529 2157.76 316.779 Q2154.82 313.029 2154.82 306.918 Q2154.82 300.807 2157.76 297.057 Q2160.72 293.307 2165.42 293.307 Q2168.29 293.307 2170.33 294.441 Q2172.39 295.552 2173.73 297.867 M2159.22 306.918 Q2159.22 311.617 2161.14 314.302 Q2163.08 316.964 2166.46 316.964 Q2169.84 316.964 2171.79 314.302 Q2173.73 311.617 2173.73 306.918 Q2173.73 302.219 2171.79 299.557 Q2169.84 296.872 2166.46 296.872 Q2163.08 296.872 2161.14 299.557 Q2159.22 302.219 2159.22 306.918 Z" fill="#000000" fill-rule="nonzero" fill-opacity="1" /><path clip-path="url(#clip500)" d="M2201.79 297.913 Q2201.07 297.497 2200.21 297.311 Q2199.38 297.103 2198.36 297.103 Q2194.75 297.103 2192.8 299.464 Q2190.88 301.802 2190.88 306.2 L2190.88 319.858 L2186.6 319.858 L2186.6 293.932 L2190.88 293.932 L2190.88 297.96 Q2192.23 295.598 2194.38 294.464 Q2196.53 293.307 2199.61 293.307 Q2200.05 293.307 2200.58 293.376 Q2201.11 293.423 2201.76 293.538 L2201.79 297.913 Z" fill="#000000" fill-rule="nonzero" fill-opacity="1" /><path clip-path="url(#clip500)" d="M2215.26 296.918 Q2211.83 296.918 2209.84 299.603 Q2207.85 302.265 2207.85 306.918 Q2207.85 311.571 2209.82 314.256 Q2211.81 316.918 2215.26 316.918 Q2218.66 316.918 2220.65 314.233 Q2222.64 311.547 2222.64 306.918 Q2222.64 302.311 2220.65 299.626 Q2218.66 296.918 2215.26 296.918 M2215.26 293.307 Q2220.81 293.307 2223.98 296.918 Q2227.16 300.529 2227.16 306.918 Q2227.16 313.284 2223.98 316.918 Q2220.81 320.529 2215.26 320.529 Q2209.68 320.529 2206.51 316.918 Q2203.36 313.284 2203.36 306.918 Q2203.36 300.529 2206.51 296.918 Q2209.68 293.307 2215.26 293.307 Z" fill="#000000" fill-rule="nonzero" fill-opacity="1" /><path clip-path="url(#clip500)" d="M1931.64 375.154 L2070.08 375.154 L2070.08 333.682 L1931.64 333.682 L1931.64 375.154  Z" fill="#ac8d18" fill-rule="evenodd" fill-opacity="1"/>
<polyline clip-path="url(#clip500)" style="stroke:#000000; stroke-linecap:round; stroke-linejoin:round; stroke-width:4; stroke-opacity:1; fill:none" points="1931.64,375.154 2070.08,375.154 2070.08,333.682 1931.64,333.682 1931.64,375.154 "/>
<path clip-path="url(#clip500)" d="M2111.92 358.758 Q2111.92 354.059 2109.98 351.397 Q2108.06 348.712 2104.68 348.712 Q2101.3 348.712 2099.36 351.397 Q2097.43 354.059 2097.43 358.758 Q2097.43 363.457 2099.36 366.142 Q2101.3 368.804 2104.68 368.804 Q2108.06 368.804 2109.98 366.142 Q2111.92 363.457 2111.92 358.758 M2097.43 349.707 Q2098.78 347.392 2100.81 346.281 Q2102.87 345.147 2105.72 345.147 Q2110.44 345.147 2113.38 348.897 Q2116.35 352.647 2116.35 358.758 Q2116.35 364.869 2113.38 368.619 Q2110.44 372.369 2105.72 372.369 Q2102.87 372.369 2100.81 371.258 Q2098.78 370.123 2097.43 367.809 L2097.43 371.698 L2093.15 371.698 L2093.15 335.679 L2097.43 335.679 L2097.43 349.707 Z" fill="#000000" fill-rule="nonzero" fill-opacity="1" /><path clip-path="url(#clip500)" d="M2135.19 358.665 Q2130.03 358.665 2128.04 359.846 Q2126.05 361.026 2126.05 363.874 Q2126.05 366.142 2127.53 367.485 Q2129.03 368.804 2131.6 368.804 Q2135.14 368.804 2137.27 366.304 Q2139.42 363.781 2139.42 359.614 L2139.42 358.665 L2135.19 358.665 M2143.68 356.906 L2143.68 371.698 L2139.42 371.698 L2139.42 367.762 Q2137.97 370.123 2135.79 371.258 Q2133.61 372.369 2130.47 372.369 Q2126.48 372.369 2124.12 370.147 Q2121.79 367.901 2121.79 364.151 Q2121.79 359.776 2124.7 357.554 Q2127.64 355.332 2133.45 355.332 L2139.42 355.332 L2139.42 354.915 Q2139.42 351.975 2137.48 350.378 Q2135.56 348.758 2132.06 348.758 Q2129.84 348.758 2127.73 349.29 Q2125.63 349.823 2123.68 350.887 L2123.68 346.952 Q2126.02 346.05 2128.22 345.61 Q2130.42 345.147 2132.5 345.147 Q2138.13 345.147 2140.91 348.063 Q2143.68 350.98 2143.68 356.906 Z" fill="#000000" fill-rule="nonzero" fill-opacity="1" /><path clip-path="url(#clip500)" d="M2156.67 338.411 L2156.67 345.772 L2165.44 345.772 L2165.44 349.082 L2156.67 349.082 L2156.67 363.156 Q2156.67 366.327 2157.53 367.23 Q2158.41 368.133 2161.07 368.133 L2165.44 368.133 L2165.44 371.698 L2161.07 371.698 Q2156.14 371.698 2154.26 369.869 Q2152.39 368.017 2152.39 363.156 L2152.39 349.082 L2149.26 349.082 L2149.26 345.772 L2152.39 345.772 L2152.39 338.411 L2156.67 338.411 Z" fill="#000000" fill-rule="nonzero" fill-opacity="1" /><path clip-path="url(#clip500)" d="M2175.26 338.411 L2175.26 345.772 L2184.03 345.772 L2184.03 349.082 L2175.26 349.082 L2175.26 363.156 Q2175.26 366.327 2176.11 367.23 Q2176.99 368.133 2179.66 368.133 L2184.03 368.133 L2184.03 371.698 L2179.66 371.698 Q2174.73 371.698 2172.85 369.869 Q2170.98 368.017 2170.98 363.156 L2170.98 349.082 L2167.85 349.082 L2167.85 345.772 L2170.98 345.772 L2170.98 338.411 L2175.26 338.411 Z" fill="#000000" fill-rule="nonzero" fill-opacity="1" /><path clip-path="url(#clip500)" d="M2211.81 357.67 L2211.81 359.753 L2192.23 359.753 Q2192.5 364.151 2194.86 366.466 Q2197.25 368.758 2201.48 368.758 Q2203.94 368.758 2206.23 368.156 Q2208.54 367.554 2210.81 366.35 L2210.81 370.378 Q2208.52 371.35 2206.11 371.86 Q2203.71 372.369 2201.23 372.369 Q2195.03 372.369 2191.39 368.758 Q2187.78 365.147 2187.78 358.989 Q2187.78 352.624 2191.21 348.897 Q2194.66 345.147 2200.49 345.147 Q2205.72 345.147 2208.75 348.526 Q2211.81 351.883 2211.81 357.67 M2207.55 356.42 Q2207.5 352.925 2205.58 350.841 Q2203.68 348.758 2200.54 348.758 Q2196.97 348.758 2194.82 350.772 Q2192.69 352.786 2192.36 356.443 L2207.55 356.42 Z" fill="#000000" fill-rule="nonzero" fill-opacity="1" /><path clip-path="url(#clip500)" d="M2233.82 349.753 Q2233.1 349.337 2232.25 349.151 Q2231.41 348.943 2230.4 348.943 Q2226.79 348.943 2224.84 351.304 Q2222.92 353.642 2222.92 358.04 L2222.92 371.698 L2218.64 371.698 L2218.64 345.772 L2222.92 345.772 L2222.92 349.8 Q2224.26 347.438 2226.41 346.304 Q2228.57 345.147 2231.65 345.147 Q2232.09 345.147 2232.62 345.216 Q2233.15 345.263 2233.8 345.378 L2233.82 349.753 Z" fill="#000000" fill-rule="nonzero" fill-opacity="1" /><path clip-path="url(#clip500)" d="M2249.08 374.105 Q2247.27 378.735 2245.56 380.147 Q2243.85 381.559 2240.98 381.559 L2237.57 381.559 L2237.57 377.994 L2240.07 377.994 Q2241.83 377.994 2242.8 377.16 Q2243.78 376.327 2244.96 373.225 L2245.72 371.281 L2235.23 345.772 L2239.75 345.772 L2247.85 366.049 L2255.95 345.772 L2260.47 345.772 L2249.08 374.105 Z" fill="#000000" fill-rule="nonzero" fill-opacity="1" /></svg>
