<?xml version="1.0" encoding="utf-8"?>
<svg xmlns="http://www.w3.org/2000/svg" xmlns:xlink="http://www.w3.org/1999/xlink" width="600" height="400" viewBox="0 0 2400 1600">
<defs>
  <clipPath id="clip570">
    <rect x="0" y="0" width="2400" height="1600"/>
  </clipPath>
</defs>
<path clip-path="url(#clip570)" d="M0 1600 L2400 1600 L2400 0 L0 0  Z" fill="#ffffff" fill-rule="evenodd" fill-opacity="1"/>
<defs>
  <clipPath id="clip571">
    <rect x="480" y="0" width="1681" height="1600"/>
  </clipPath>
</defs>
<path clip-path="url(#clip570)" d="M276.227 1486.45 L2352.76 1486.45 L2352.76 47.2441 L276.227 47.2441  Z" fill="#ffffff" fill-rule="evenodd" fill-opacity="1"/>
<defs>
  <clipPath id="clip572">
    <rect x="276" y="47" width="2078" height="1440"/>
  </clipPath>
</defs>
<polyline clip-path="url(#clip572)" style="stroke:#000000; stroke-linecap:round; stroke-linejoin:round; stroke-width:2; stroke-opacity:0.1; fill:none" points="630.009,1486.45 630.009,47.2441 "/>
<polyline clip-path="url(#clip572)" style="stroke:#000000; stroke-linecap:round; stroke-linejoin:round; stroke-width:2; stroke-opacity:0.1; fill:none" points="1314.49,1486.45 1314.49,47.2441 "/>
<polyline clip-path="url(#clip572)" style="stroke:#000000; stroke-linecap:round; stroke-linejoin:round; stroke-width:2; stroke-opacity:0.1; fill:none" points="1998.97,1486.45 1998.97,47.2441 "/>
<polyline clip-path="url(#clip570)" style="stroke:#000000; stroke-linecap:round; stroke-linejoin:round; stroke-width:4; stroke-opacity:1; fill:none" points="276.227,1486.45 2352.76,1486.45 "/>
<polyline clip-path="url(#clip570)" style="stroke:#000000; stroke-linecap:round; stroke-linejoin:round; stroke-width:4; stroke-opacity:1; fill:none" points="630.009,1486.45 630.009,1467.55 "/>
<polyline clip-path="url(#clip570)" style="stroke:#000000; stroke-linecap:round; stroke-linejoin:round; stroke-width:4; stroke-opacity:1; fill:none" points="1314.49,1486.45 1314.49,1467.55 "/>
<polyline clip-path="url(#clip570)" style="stroke:#000000; stroke-linecap:round; stroke-linejoin:round; stroke-width:4; stroke-opacity:1; fill:none" points="1998.97,1486.45 1998.97,1467.55 "/>
<path clip-path="url(#clip570)" d="M548.655 1543.92 L548.655 1534.63 L541.016 1534.63 L541.016 1530.79 L553.285 1530.79 L553.285 1545.63 Q550.576 1547.55 547.313 1548.55 Q544.049 1549.52 540.345 1549.52 Q532.243 1549.52 527.66 1544.8 Q523.1 1540.05 523.1 1531.6 Q523.1 1523.13 527.66 1518.41 Q532.243 1513.66 540.345 1513.66 Q543.725 1513.66 546.757 1514.5 Q549.813 1515.33 552.382 1516.95 L552.382 1521.93 Q549.789 1519.73 546.873 1518.62 Q543.956 1517.51 540.739 1517.51 Q534.396 1517.51 531.202 1521.05 Q528.03 1524.59 528.03 1531.6 Q528.03 1538.59 531.202 1542.13 Q534.396 1545.68 540.739 1545.68 Q543.215 1545.68 545.16 1545.26 Q547.104 1544.82 548.655 1543.92 Z" fill="#000000" fill-rule="nonzero" fill-opacity="1" /><path clip-path="url(#clip570)" d="M583.817 1534.82 L583.817 1536.9 L564.234 1536.9 Q564.512 1541.3 566.873 1543.62 Q569.257 1545.91 573.493 1545.91 Q575.947 1545.91 578.238 1545.31 Q580.553 1544.7 582.822 1543.5 L582.822 1547.53 Q580.53 1548.5 578.123 1549.01 Q575.715 1549.52 573.238 1549.52 Q567.035 1549.52 563.4 1545.91 Q559.789 1542.3 559.789 1536.14 Q559.789 1529.77 563.215 1526.05 Q566.664 1522.3 572.498 1522.3 Q577.729 1522.3 580.762 1525.68 Q583.817 1529.03 583.817 1534.82 M579.558 1533.57 Q579.512 1530.07 577.59 1527.99 Q575.692 1525.91 572.544 1525.91 Q568.979 1525.91 566.826 1527.92 Q564.697 1529.94 564.373 1533.59 L579.558 1533.57 Z" fill="#000000" fill-rule="nonzero" fill-opacity="1" /><path clip-path="url(#clip570)" d="M605.831 1526.9 Q605.113 1526.49 604.257 1526.3 Q603.423 1526.09 602.405 1526.09 Q598.794 1526.09 596.849 1528.45 Q594.928 1530.79 594.928 1535.19 L594.928 1548.85 L590.646 1548.85 L590.646 1522.92 L594.928 1522.92 L594.928 1526.95 Q596.271 1524.59 598.423 1523.45 Q600.576 1522.3 603.655 1522.3 Q604.095 1522.3 604.627 1522.37 Q605.16 1522.41 605.808 1522.53 L605.831 1526.9 Z" fill="#000000" fill-rule="nonzero" fill-opacity="1" /><path clip-path="url(#clip570)" d="M629.65 1527.9 Q631.247 1525.03 633.47 1523.66 Q635.692 1522.3 638.701 1522.3 Q642.752 1522.3 644.951 1525.14 Q647.15 1527.97 647.15 1533.2 L647.15 1548.85 L642.868 1548.85 L642.868 1533.34 Q642.868 1529.61 641.548 1527.81 Q640.229 1526 637.52 1526 Q634.21 1526 632.289 1528.2 Q630.368 1530.4 630.368 1534.2 L630.368 1548.85 L626.085 1548.85 L626.085 1533.34 Q626.085 1529.59 624.766 1527.81 Q623.446 1526 620.692 1526 Q617.428 1526 615.507 1528.22 Q613.585 1530.42 613.585 1534.2 L613.585 1548.85 L609.303 1548.85 L609.303 1522.92 L613.585 1522.92 L613.585 1526.95 Q615.044 1524.57 617.081 1523.43 Q619.118 1522.3 621.919 1522.3 Q624.743 1522.3 626.71 1523.73 Q628.701 1525.17 629.65 1527.9 Z" fill="#000000" fill-rule="nonzero" fill-opacity="1" /><path clip-path="url(#clip570)" d="M667.428 1535.82 Q662.266 1535.82 660.275 1537 Q658.284 1538.18 658.284 1541.02 Q658.284 1543.29 659.766 1544.63 Q661.27 1545.95 663.84 1545.95 Q667.381 1545.95 669.511 1543.45 Q671.664 1540.93 671.664 1536.76 L671.664 1535.82 L667.428 1535.82 M675.923 1534.06 L675.923 1548.85 L671.664 1548.85 L671.664 1544.91 Q670.205 1547.27 668.03 1548.41 Q665.854 1549.52 662.706 1549.52 Q658.724 1549.52 656.363 1547.3 Q654.025 1545.05 654.025 1541.3 Q654.025 1536.93 656.942 1534.7 Q659.881 1532.48 665.692 1532.48 L671.664 1532.48 L671.664 1532.07 Q671.664 1529.13 669.719 1527.53 Q667.798 1525.91 664.303 1525.91 Q662.081 1525.91 659.974 1526.44 Q657.868 1526.97 655.923 1528.04 L655.923 1524.1 Q658.261 1523.2 660.46 1522.76 Q662.659 1522.3 664.743 1522.3 Q670.368 1522.3 673.145 1525.21 Q675.923 1528.13 675.923 1534.06 Z" fill="#000000" fill-rule="nonzero" fill-opacity="1" /><path clip-path="url(#clip570)" d="M706.247 1533.2 L706.247 1548.85 L701.988 1548.85 L701.988 1533.34 Q701.988 1529.66 700.553 1527.83 Q699.117 1526 696.247 1526 Q692.798 1526 690.807 1528.2 Q688.816 1530.4 688.816 1534.2 L688.816 1548.85 L684.534 1548.85 L684.534 1522.92 L688.816 1522.92 L688.816 1526.95 Q690.344 1524.61 692.404 1523.45 Q694.488 1522.3 697.196 1522.3 Q701.664 1522.3 703.955 1525.07 Q706.247 1527.83 706.247 1533.2 Z" fill="#000000" fill-rule="nonzero" fill-opacity="1" /><path clip-path="url(#clip570)" d="M725.529 1551.26 Q723.724 1555.88 722.011 1557.3 Q720.298 1558.71 717.427 1558.71 L714.025 1558.71 L714.025 1555.14 L716.525 1555.14 Q718.284 1555.14 719.256 1554.31 Q720.228 1553.48 721.409 1550.38 L722.173 1548.43 L711.687 1522.92 L716.201 1522.92 L724.302 1543.2 L732.404 1522.92 L736.918 1522.92 L725.529 1551.26 Z" fill="#000000" fill-rule="nonzero" fill-opacity="1" /><path clip-path="url(#clip570)" d="M1246.64 1515.42 L1246.64 1519.98 Q1243.98 1518.71 1241.62 1518.08 Q1239.26 1517.46 1237.06 1517.46 Q1233.24 1517.46 1231.16 1518.94 Q1229.1 1520.42 1229.1 1523.15 Q1229.1 1525.45 1230.46 1526.63 Q1231.85 1527.78 1235.7 1528.5 L1238.52 1529.08 Q1243.75 1530.07 1246.23 1532.6 Q1248.73 1535.1 1248.73 1539.31 Q1248.73 1544.33 1245.35 1546.93 Q1241.99 1549.52 1235.49 1549.52 Q1233.03 1549.52 1230.26 1548.96 Q1227.5 1548.41 1224.54 1547.32 L1224.54 1542.51 Q1227.39 1544.1 1230.12 1544.91 Q1232.85 1545.72 1235.49 1545.72 Q1239.49 1545.72 1241.67 1544.15 Q1243.84 1542.57 1243.84 1539.66 Q1243.84 1537.11 1242.27 1535.68 Q1240.72 1534.24 1237.15 1533.52 L1234.31 1532.97 Q1229.08 1531.93 1226.74 1529.7 Q1224.4 1527.48 1224.4 1523.52 Q1224.4 1518.94 1227.62 1516.3 Q1230.86 1513.66 1236.53 1513.66 Q1238.96 1513.66 1241.48 1514.1 Q1244.01 1514.54 1246.64 1515.42 Z" fill="#000000" fill-rule="nonzero" fill-opacity="1" /><path clip-path="url(#clip570)" d="M1253.36 1522.92 L1257.62 1522.92 L1262.94 1543.15 L1268.24 1522.92 L1273.26 1522.92 L1278.59 1543.15 L1283.89 1522.92 L1288.15 1522.92 L1281.37 1548.85 L1276.34 1548.85 L1270.76 1527.6 L1265.16 1548.85 L1260.14 1548.85 L1253.36 1522.92 Z" fill="#000000" fill-rule="nonzero" fill-opacity="1" /><path clip-path="url(#clip570)" d="M1316.78 1534.82 L1316.78 1536.9 L1297.2 1536.9 Q1297.48 1541.3 1299.84 1543.62 Q1302.22 1545.91 1306.46 1545.91 Q1308.91 1545.91 1311.2 1545.31 Q1313.52 1544.7 1315.79 1543.5 L1315.79 1547.53 Q1313.5 1548.5 1311.09 1549.01 Q1308.68 1549.52 1306.2 1549.52 Q1300 1549.52 1296.37 1545.91 Q1292.76 1542.3 1292.76 1536.14 Q1292.76 1529.77 1296.18 1526.05 Q1299.63 1522.3 1305.46 1522.3 Q1310.7 1522.3 1313.73 1525.68 Q1316.78 1529.03 1316.78 1534.82 M1312.52 1533.57 Q1312.48 1530.07 1310.56 1527.99 Q1308.66 1525.91 1305.51 1525.91 Q1301.95 1525.91 1299.79 1527.92 Q1297.66 1529.94 1297.34 1533.59 L1312.52 1533.57 Z" fill="#000000" fill-rule="nonzero" fill-opacity="1" /><path clip-path="url(#clip570)" d="M1340.83 1526.86 L1340.83 1512.83 L1345.09 1512.83 L1345.09 1548.85 L1340.83 1548.85 L1340.83 1544.96 Q1339.49 1547.27 1337.43 1548.41 Q1335.39 1549.52 1332.52 1549.52 Q1327.82 1549.52 1324.86 1545.77 Q1321.92 1542.02 1321.92 1535.91 Q1321.92 1529.8 1324.86 1526.05 Q1327.82 1522.3 1332.52 1522.3 Q1335.39 1522.3 1337.43 1523.43 Q1339.49 1524.54 1340.83 1526.86 M1326.32 1535.91 Q1326.32 1540.61 1328.24 1543.29 Q1330.19 1545.95 1333.57 1545.95 Q1336.95 1545.95 1338.89 1543.29 Q1340.83 1540.61 1340.83 1535.91 Q1340.83 1531.21 1338.89 1528.55 Q1336.95 1525.86 1333.57 1525.86 Q1330.19 1525.86 1328.24 1528.55 Q1326.32 1531.21 1326.32 1535.91 Z" fill="#000000" fill-rule="nonzero" fill-opacity="1" /><path clip-path="url(#clip570)" d="M1376.04 1534.82 L1376.04 1536.9 L1356.46 1536.9 Q1356.74 1541.3 1359.1 1543.62 Q1361.48 1545.91 1365.72 1545.91 Q1368.17 1545.91 1370.46 1545.31 Q1372.78 1544.7 1375.05 1543.5 L1375.05 1547.53 Q1372.76 1548.5 1370.35 1549.01 Q1367.94 1549.52 1365.46 1549.52 Q1359.26 1549.52 1355.63 1545.91 Q1352.01 1542.3 1352.01 1536.14 Q1352.01 1529.77 1355.44 1526.05 Q1358.89 1522.3 1364.72 1522.3 Q1369.95 1522.3 1372.99 1525.68 Q1376.04 1529.03 1376.04 1534.82 M1371.78 1533.57 Q1371.74 1530.07 1369.82 1527.99 Q1367.92 1525.91 1364.77 1525.91 Q1361.2 1525.91 1359.05 1527.92 Q1356.92 1529.94 1356.6 1533.59 L1371.78 1533.57 Z" fill="#000000" fill-rule="nonzero" fill-opacity="1" /><path clip-path="url(#clip570)" d="M1404.58 1533.2 L1404.58 1548.85 L1400.32 1548.85 L1400.32 1533.34 Q1400.32 1529.66 1398.89 1527.83 Q1397.45 1526 1394.58 1526 Q1391.13 1526 1389.14 1528.2 Q1387.15 1530.4 1387.15 1534.2 L1387.15 1548.85 L1382.87 1548.85 L1382.87 1522.92 L1387.15 1522.92 L1387.15 1526.95 Q1388.68 1524.61 1390.74 1523.45 Q1392.82 1522.3 1395.53 1522.3 Q1400 1522.3 1402.29 1525.07 Q1404.58 1527.83 1404.58 1533.2 Z" fill="#000000" fill-rule="nonzero" fill-opacity="1" /><path clip-path="url(#clip570)" d="M1897.1 1518.13 L1897.1 1545.01 L1902.75 1545.01 Q1909.9 1545.01 1913.21 1541.76 Q1916.54 1538.52 1916.54 1531.53 Q1916.54 1524.59 1913.21 1521.37 Q1909.9 1518.13 1902.75 1518.13 L1897.1 1518.13 M1892.42 1514.29 L1902.03 1514.29 Q1912.08 1514.29 1916.78 1518.48 Q1921.47 1522.64 1921.47 1531.53 Q1921.47 1540.47 1916.75 1544.66 Q1912.03 1548.85 1902.03 1548.85 L1892.42 1548.85 L1892.42 1514.29 Z" fill="#000000" fill-rule="nonzero" fill-opacity="1" /><path clip-path="url(#clip570)" d="M1950.92 1534.82 L1950.92 1536.9 L1931.34 1536.9 Q1931.61 1541.3 1933.97 1543.62 Q1936.36 1545.91 1940.59 1545.91 Q1943.05 1545.91 1945.34 1545.31 Q1947.66 1544.7 1949.92 1543.5 L1949.92 1547.53 Q1947.63 1548.5 1945.22 1549.01 Q1942.82 1549.52 1940.34 1549.52 Q1934.14 1549.52 1930.5 1545.91 Q1926.89 1542.3 1926.89 1536.14 Q1926.89 1529.77 1930.32 1526.05 Q1933.77 1522.3 1939.6 1522.3 Q1944.83 1522.3 1947.86 1525.68 Q1950.92 1529.03 1950.92 1534.82 M1946.66 1533.57 Q1946.61 1530.07 1944.69 1527.99 Q1942.79 1525.91 1939.65 1525.91 Q1936.08 1525.91 1933.93 1527.92 Q1931.8 1529.94 1931.47 1533.59 L1946.66 1533.57 Z" fill="#000000" fill-rule="nonzero" fill-opacity="1" /><path clip-path="url(#clip570)" d="M1979.46 1533.2 L1979.46 1548.85 L1975.2 1548.85 L1975.2 1533.34 Q1975.2 1529.66 1973.77 1527.83 Q1972.33 1526 1969.46 1526 Q1966.01 1526 1964.02 1528.2 Q1962.03 1530.4 1962.03 1534.2 L1962.03 1548.85 L1957.75 1548.85 L1957.75 1522.92 L1962.03 1522.92 L1962.03 1526.95 Q1963.56 1524.61 1965.62 1523.45 Q1967.7 1522.3 1970.41 1522.3 Q1974.88 1522.3 1977.17 1525.07 Q1979.46 1527.83 1979.46 1533.2 Z" fill="#000000" fill-rule="nonzero" fill-opacity="1" /><path clip-path="url(#clip570)" d="M2008.14 1527.9 Q2009.74 1525.03 2011.96 1523.66 Q2014.18 1522.3 2017.19 1522.3 Q2021.24 1522.3 2023.44 1525.14 Q2025.64 1527.97 2025.64 1533.2 L2025.64 1548.85 L2021.36 1548.85 L2021.36 1533.34 Q2021.36 1529.61 2020.04 1527.81 Q2018.72 1526 2016.01 1526 Q2012.7 1526 2010.78 1528.2 Q2008.86 1530.4 2008.86 1534.2 L2008.86 1548.85 L2004.58 1548.85 L2004.58 1533.34 Q2004.58 1529.59 2003.26 1527.81 Q2001.94 1526 1999.18 1526 Q1995.92 1526 1994 1528.22 Q1992.08 1530.42 1992.08 1534.2 L1992.08 1548.85 L1987.79 1548.85 L1987.79 1522.92 L1992.08 1522.92 L1992.08 1526.95 Q1993.53 1524.57 1995.57 1523.43 Q1997.61 1522.3 2000.41 1522.3 Q2003.23 1522.3 2005.2 1523.73 Q2007.19 1525.17 2008.14 1527.9 Z" fill="#000000" fill-rule="nonzero" fill-opacity="1" /><path clip-path="url(#clip570)" d="M2045.92 1535.82 Q2040.76 1535.82 2038.77 1537 Q2036.77 1538.18 2036.77 1541.02 Q2036.77 1543.29 2038.26 1544.63 Q2039.76 1545.95 2042.33 1545.95 Q2045.87 1545.95 2048 1543.45 Q2050.15 1540.93 2050.15 1536.76 L2050.15 1535.82 L2045.92 1535.82 M2054.41 1534.06 L2054.41 1548.85 L2050.15 1548.85 L2050.15 1544.91 Q2048.7 1547.27 2046.52 1548.41 Q2044.34 1549.52 2041.2 1549.52 Q2037.21 1549.52 2034.85 1547.3 Q2032.52 1545.05 2032.52 1541.3 Q2032.52 1536.93 2035.43 1534.7 Q2038.37 1532.48 2044.18 1532.48 L2050.15 1532.48 L2050.15 1532.07 Q2050.15 1529.13 2048.21 1527.53 Q2046.29 1525.91 2042.79 1525.91 Q2040.57 1525.91 2038.46 1526.44 Q2036.36 1526.97 2034.41 1528.04 L2034.41 1524.1 Q2036.75 1523.2 2038.95 1522.76 Q2041.15 1522.3 2043.23 1522.3 Q2048.86 1522.3 2051.64 1525.21 Q2054.41 1528.13 2054.41 1534.06 Z" fill="#000000" fill-rule="nonzero" fill-opacity="1" /><path clip-path="url(#clip570)" d="M2078.21 1526.9 Q2077.49 1526.49 2076.64 1526.3 Q2075.8 1526.09 2074.78 1526.09 Q2071.17 1526.09 2069.23 1528.45 Q2067.31 1530.79 2067.31 1535.19 L2067.31 1548.85 L2063.02 1548.85 L2063.02 1522.92 L2067.31 1522.92 L2067.31 1526.95 Q2068.65 1524.59 2070.8 1523.45 Q2072.96 1522.3 2076.03 1522.3 Q2076.47 1522.3 2077.01 1522.37 Q2077.54 1522.41 2078.19 1522.53 L2078.21 1526.9 Z" fill="#000000" fill-rule="nonzero" fill-opacity="1" /><path clip-path="url(#clip570)" d="M2082.52 1512.83 L2086.8 1512.83 L2086.8 1534.1 L2099.51 1522.92 L2104.95 1522.92 L2091.2 1535.05 L2105.52 1548.85 L2099.97 1548.85 L2086.8 1536.19 L2086.8 1548.85 L2082.52 1548.85 L2082.52 1512.83 Z" fill="#000000" fill-rule="nonzero" fill-opacity="1" /><polyline clip-path="url(#clip572)" style="stroke:#000000; stroke-linecap:round; stroke-linejoin:round; stroke-width:2; stroke-opacity:0.1; fill:none" points="276.227,1445.72 2352.76,1445.72 "/>
<polyline clip-path="url(#clip572)" style="stroke:#000000; stroke-linecap:round; stroke-linejoin:round; stroke-width:2; stroke-opacity:0.1; fill:none" points="276.227,1195.44 2352.76,1195.44 "/>
<polyline clip-path="url(#clip572)" style="stroke:#000000; stroke-linecap:round; stroke-linejoin:round; stroke-width:2; stroke-opacity:0.1; fill:none" points="276.227,945.156 2352.76,945.156 "/>
<polyline clip-path="url(#clip572)" style="stroke:#000000; stroke-linecap:round; stroke-linejoin:round; stroke-width:2; stroke-opacity:0.1; fill:none" points="276.227,694.876 2352.76,694.876 "/>
<polyline clip-path="url(#clip572)" style="stroke:#000000; stroke-linecap:round; stroke-linejoin:round; stroke-width:2; stroke-opacity:0.1; fill:none" points="276.227,444.596 2352.76,444.596 "/>
<polyline clip-path="url(#clip572)" style="stroke:#000000; stroke-linecap:round; stroke-linejoin:round; stroke-width:2; stroke-opacity:0.1; fill:none" points="276.227,194.316 2352.76,194.316 "/>
<polyline clip-path="url(#clip570)" style="stroke:#000000; stroke-linecap:round; stroke-linejoin:round; stroke-width:4; stroke-opacity:1; fill:none" points="276.227,1486.45 276.227,47.2441 "/>
<polyline clip-path="url(#clip570)" style="stroke:#000000; stroke-linecap:round; stroke-linejoin:round; stroke-width:4; stroke-opacity:1; fill:none" points="276.227,1445.72 295.125,1445.72 "/>
<polyline clip-path="url(#clip570)" style="stroke:#000000; stroke-linecap:round; stroke-linejoin:round; stroke-width:4; stroke-opacity:1; fill:none" points="276.227,1195.44 295.125,1195.44 "/>
<polyline clip-path="url(#clip570)" style="stroke:#000000; stroke-linecap:round; stroke-linejoin:round; stroke-width:4; stroke-opacity:1; fill:none" points="276.227,945.156 295.125,945.156 "/>
<polyline clip-path="url(#clip570)" style="stroke:#000000; stroke-linecap:round; stroke-linejoin:round; stroke-width:4; stroke-opacity:1; fill:none" points="276.227,694.876 295.125,694.876 "/>
<polyline clip-path="url(#clip570)" style="stroke:#000000; stroke-linecap:round; stroke-linejoin:round; stroke-width:4; stroke-opacity:1; fill:none" points="276.227,444.596 295.125,444.596 "/>
<polyline clip-path="url(#clip570)" style="stroke:#000000; stroke-linecap:round; stroke-linejoin:round; stroke-width:4; stroke-opacity:1; fill:none" points="276.227,194.316 295.125,194.316 "/>
<path clip-path="url(#clip570)" d="M228.283 1431.51 Q224.672 1431.51 222.843 1435.08 Q221.038 1438.62 221.038 1445.75 Q221.038 1452.86 222.843 1456.42 Q224.672 1459.96 228.283 1459.96 Q231.917 1459.96 233.723 1456.42 Q235.551 1452.86 235.551 1445.75 Q235.551 1438.62 233.723 1435.08 Q231.917 1431.51 228.283 1431.51 M228.283 1427.81 Q234.093 1427.81 237.149 1432.42 Q240.227 1437 240.227 1445.75 Q240.227 1454.48 237.149 1459.08 Q234.093 1463.67 228.283 1463.67 Q222.473 1463.67 219.394 1459.08 Q216.338 1454.48 216.338 1445.75 Q216.338 1437 219.394 1432.42 Q222.473 1427.81 228.283 1427.81 Z" fill="#000000" fill-rule="nonzero" fill-opacity="1" /><path clip-path="url(#clip570)" d="M54.5569 1215.23 L62.1958 1215.23 L62.1958 1188.86 L53.8856 1190.53 L53.8856 1186.27 L62.1495 1184.6 L66.8254 1184.6 L66.8254 1215.23 L74.4642 1215.23 L74.4642 1219.16 L54.5569 1219.16 L54.5569 1215.23 Z" fill="#000000" fill-rule="nonzero" fill-opacity="1" /><path clip-path="url(#clip570)" d="M83.9086 1213.28 L88.7928 1213.28 L88.7928 1219.16 L83.9086 1219.16 L83.9086 1213.28 Z" fill="#000000" fill-rule="nonzero" fill-opacity="1" /><path clip-path="url(#clip570)" d="M108.978 1187.68 Q105.367 1187.68 103.538 1191.25 Q101.733 1194.79 101.733 1201.92 Q101.733 1209.02 103.538 1212.59 Q105.367 1216.13 108.978 1216.13 Q112.612 1216.13 114.418 1212.59 Q116.246 1209.02 116.246 1201.92 Q116.246 1194.79 114.418 1191.25 Q112.612 1187.68 108.978 1187.68 M108.978 1183.98 Q114.788 1183.98 117.844 1188.58 Q120.922 1193.17 120.922 1201.92 Q120.922 1210.64 117.844 1215.25 Q114.788 1219.83 108.978 1219.83 Q103.168 1219.83 100.089 1215.25 Q97.0335 1210.64 97.0335 1201.92 Q97.0335 1193.17 100.089 1188.58 Q103.168 1183.98 108.978 1183.98 Z" fill="#000000" fill-rule="nonzero" fill-opacity="1" /><path clip-path="url(#clip570)" d="M157.311 1193.7 L146.732 1204.33 L157.311 1214.9 L154.556 1217.71 L143.931 1207.08 L133.306 1217.71 L130.575 1214.9 L141.131 1204.33 L130.575 1193.7 L133.306 1190.9 L143.931 1201.52 L154.556 1190.9 L157.311 1193.7 Z" fill="#000000" fill-rule="nonzero" fill-opacity="1" /><path clip-path="url(#clip570)" d="M169.672 1215.23 L177.311 1215.23 L177.311 1188.86 L169.001 1190.53 L169.001 1186.27 L177.265 1184.6 L181.94 1184.6 L181.94 1215.23 L189.579 1215.23 L189.579 1219.16 L169.672 1219.16 L169.672 1215.23 Z" fill="#000000" fill-rule="nonzero" fill-opacity="1" /><path clip-path="url(#clip570)" d="M209.024 1187.68 Q205.413 1187.68 203.584 1191.25 Q201.778 1194.79 201.778 1201.92 Q201.778 1209.02 203.584 1212.59 Q205.413 1216.13 209.024 1216.13 Q212.658 1216.13 214.463 1212.59 Q216.292 1209.02 216.292 1201.92 Q216.292 1194.79 214.463 1191.25 Q212.658 1187.68 209.024 1187.68 M209.024 1183.98 Q214.834 1183.98 217.889 1188.58 Q220.968 1193.17 220.968 1201.92 Q220.968 1210.64 217.889 1215.25 Q214.834 1219.83 209.024 1219.83 Q203.214 1219.83 200.135 1215.25 Q197.079 1210.64 197.079 1201.92 Q197.079 1193.17 200.135 1188.58 Q203.214 1183.98 209.024 1183.98 Z" fill="#000000" fill-rule="nonzero" fill-opacity="1" /><path clip-path="url(#clip570)" d="M230.598 1178.42 Q227.889 1178.42 226.328 1179.87 Q224.786 1181.31 224.786 1183.85 Q224.786 1186.39 226.328 1187.84 Q227.889 1189.29 230.598 1189.29 Q233.306 1189.29 234.867 1187.84 Q236.428 1186.37 236.428 1183.85 Q236.428 1181.31 234.867 1179.87 Q233.325 1178.42 230.598 1178.42 M226.798 1176.8 Q224.353 1176.2 222.98 1174.53 Q221.626 1172.85 221.626 1170.44 Q221.626 1167.08 224.015 1165.12 Q226.422 1163.17 230.598 1163.17 Q234.792 1163.17 237.18 1165.12 Q239.569 1167.08 239.569 1170.44 Q239.569 1172.85 238.196 1174.53 Q236.842 1176.2 234.416 1176.8 Q237.162 1177.44 238.685 1179.3 Q240.227 1181.16 240.227 1183.85 Q240.227 1187.94 237.726 1190.12 Q235.243 1192.3 230.598 1192.3 Q225.952 1192.3 223.451 1190.12 Q220.968 1187.94 220.968 1183.85 Q220.968 1181.16 222.51 1179.3 Q224.053 1177.44 226.798 1176.8 M225.407 1170.8 Q225.407 1172.98 226.761 1174.21 Q228.134 1175.43 230.598 1175.43 Q233.043 1175.43 234.416 1174.21 Q235.807 1172.98 235.807 1170.8 Q235.807 1168.62 234.416 1167.4 Q233.043 1166.17 230.598 1166.17 Q228.134 1166.17 226.761 1167.4 Q225.407 1168.62 225.407 1170.8 Z" fill="#000000" fill-rule="nonzero" fill-opacity="1" /><path clip-path="url(#clip570)" d="M57.7745 964.948 L74.0939 964.948 L74.0939 968.884 L52.1495 968.884 L52.1495 964.948 Q54.8115 962.194 59.3949 957.564 Q64.0013 952.911 65.1819 951.569 Q67.4272 949.046 68.3068 947.31 Q69.2096 945.55 69.2096 943.861 Q69.2096 941.106 67.2652 939.37 Q65.3439 937.634 62.2421 937.634 Q60.043 937.634 57.5893 938.398 Q55.1588 939.162 52.381 940.712 L52.381 935.99 Q55.2051 934.856 57.6588 934.277 Q60.1124 933.699 62.1495 933.699 Q67.5198 933.699 70.7142 936.384 Q73.9087 939.069 73.9087 943.56 Q73.9087 945.689 73.0985 947.611 Q72.3115 949.509 70.205 952.101 Q69.6263 952.773 66.5245 955.99 Q63.4226 959.185 57.7745 964.948 Z" fill="#000000" fill-rule="nonzero" fill-opacity="1" /><path clip-path="url(#clip570)" d="M83.9086 963.004 L88.7928 963.004 L88.7928 968.884 L83.9086 968.884 L83.9086 963.004 Z" fill="#000000" fill-rule="nonzero" fill-opacity="1" /><path clip-path="url(#clip570)" d="M108.978 937.402 Q105.367 937.402 103.538 940.967 Q101.733 944.509 101.733 951.638 Q101.733 958.745 103.538 962.31 Q105.367 965.851 108.978 965.851 Q112.612 965.851 114.418 962.31 Q116.246 958.745 116.246 951.638 Q116.246 944.509 114.418 940.967 Q112.612 937.402 108.978 937.402 M108.978 933.699 Q114.788 933.699 117.844 938.305 Q120.922 942.888 120.922 951.638 Q120.922 960.365 117.844 964.972 Q114.788 969.555 108.978 969.555 Q103.168 969.555 100.089 964.972 Q97.0335 960.365 97.0335 951.638 Q97.0335 942.888 100.089 938.305 Q103.168 933.699 108.978 933.699 Z" fill="#000000" fill-rule="nonzero" fill-opacity="1" /><path clip-path="url(#clip570)" d="M157.311 943.421 L146.732 954.046 L157.311 964.624 L154.556 967.425 L143.931 956.8 L133.306 967.425 L130.575 964.624 L141.131 954.046 L130.575 943.421 L133.306 940.62 L143.931 951.245 L154.556 940.62 L157.311 943.421 Z" fill="#000000" fill-rule="nonzero" fill-opacity="1" /><path clip-path="url(#clip570)" d="M169.672 964.948 L177.311 964.948 L177.311 938.583 L169.001 940.249 L169.001 935.99 L177.265 934.324 L181.94 934.324 L181.94 964.948 L189.579 964.948 L189.579 968.884 L169.672 968.884 L169.672 964.948 Z" fill="#000000" fill-rule="nonzero" fill-opacity="1" /><path clip-path="url(#clip570)" d="M209.024 937.402 Q205.413 937.402 203.584 940.967 Q201.778 944.509 201.778 951.638 Q201.778 958.745 203.584 962.31 Q205.413 965.851 209.024 965.851 Q212.658 965.851 214.463 962.31 Q216.292 958.745 216.292 951.638 Q216.292 944.509 214.463 940.967 Q212.658 937.402 209.024 937.402 M209.024 933.699 Q214.834 933.699 217.889 938.305 Q220.968 942.888 220.968 951.638 Q220.968 960.365 217.889 964.972 Q214.834 969.555 209.024 969.555 Q203.214 969.555 200.135 964.972 Q197.079 960.365 197.079 951.638 Q197.079 942.888 200.135 938.305 Q203.214 933.699 209.024 933.699 Z" fill="#000000" fill-rule="nonzero" fill-opacity="1" /><path clip-path="url(#clip570)" d="M230.598 928.138 Q227.889 928.138 226.328 929.587 Q224.786 931.035 224.786 933.574 Q224.786 936.113 226.328 937.561 Q227.889 939.009 230.598 939.009 Q233.306 939.009 234.867 937.561 Q236.428 936.094 236.428 933.574 Q236.428 931.035 234.867 929.587 Q233.325 928.138 230.598 928.138 M226.798 926.521 Q224.353 925.919 222.98 924.245 Q221.626 922.571 221.626 920.164 Q221.626 916.797 224.015 914.841 Q226.422 912.885 230.598 912.885 Q234.792 912.885 237.18 914.841 Q239.569 916.797 239.569 920.164 Q239.569 922.571 238.196 924.245 Q236.842 925.919 234.416 926.521 Q237.162 927.16 238.685 929.022 Q240.227 930.884 240.227 933.574 Q240.227 937.655 237.726 939.837 Q235.243 942.019 230.598 942.019 Q225.952 942.019 223.451 939.837 Q220.968 937.655 220.968 933.574 Q220.968 930.884 222.51 929.022 Q224.053 927.16 226.798 926.521 M225.407 920.521 Q225.407 922.703 226.761 923.926 Q228.134 925.148 230.598 925.148 Q233.043 925.148 234.416 923.926 Q235.807 922.703 235.807 920.521 Q235.807 918.34 234.416 917.117 Q233.043 915.895 230.598 915.895 Q228.134 915.895 226.761 917.117 Q225.407 918.34 225.407 920.521 Z" fill="#000000" fill-rule="nonzero" fill-opacity="1" /><path clip-path="url(#clip570)" d="M67.9133 699.97 Q71.2698 700.687 73.1448 702.956 Q75.0429 705.224 75.0429 708.558 Q75.0429 713.673 71.5244 716.474 Q68.0059 719.275 61.5245 719.275 Q59.3486 719.275 57.0338 718.835 Q54.7421 718.419 52.2884 717.562 L52.2884 713.048 Q54.2328 714.182 56.5477 714.761 Q58.8625 715.34 61.3856 715.34 Q65.7837 715.34 68.0754 713.604 Q70.3902 711.868 70.3902 708.558 Q70.3902 705.502 68.2374 703.789 Q66.1078 702.053 62.2884 702.053 L58.2606 702.053 L58.2606 698.21 L62.4735 698.21 Q65.9226 698.21 67.7513 696.845 Q69.58 695.456 69.58 692.863 Q69.58 690.201 67.6819 688.789 Q65.8069 687.354 62.2884 687.354 Q60.3671 687.354 58.168 687.771 Q55.969 688.187 53.3301 689.067 L53.3301 684.9 Q55.9921 684.159 58.3069 683.789 Q60.6449 683.419 62.705 683.419 Q68.0291 683.419 71.1309 685.849 Q74.2327 688.257 74.2327 692.377 Q74.2327 695.247 72.5892 697.238 Q70.9457 699.206 67.9133 699.97 Z" fill="#000000" fill-rule="nonzero" fill-opacity="1" /><path clip-path="url(#clip570)" d="M83.9086 712.724 L88.7928 712.724 L88.7928 718.604 L83.9086 718.604 L83.9086 712.724 Z" fill="#000000" fill-rule="nonzero" fill-opacity="1" /><path clip-path="url(#clip570)" d="M108.978 687.122 Q105.367 687.122 103.538 690.687 Q101.733 694.229 101.733 701.358 Q101.733 708.465 103.538 712.03 Q105.367 715.571 108.978 715.571 Q112.612 715.571 114.418 712.03 Q116.246 708.465 116.246 701.358 Q116.246 694.229 114.418 690.687 Q112.612 687.122 108.978 687.122 M108.978 683.419 Q114.788 683.419 117.844 688.025 Q120.922 692.609 120.922 701.358 Q120.922 710.085 117.844 714.692 Q114.788 719.275 108.978 719.275 Q103.168 719.275 100.089 714.692 Q97.0335 710.085 97.0335 701.358 Q97.0335 692.609 100.089 688.025 Q103.168 683.419 108.978 683.419 Z" fill="#000000" fill-rule="nonzero" fill-opacity="1" /><path clip-path="url(#clip570)" d="M157.311 693.141 L146.732 703.766 L157.311 714.345 L154.556 717.145 L143.931 706.52 L133.306 717.145 L130.575 714.345 L141.131 703.766 L130.575 693.141 L133.306 690.34 L143.931 700.965 L154.556 690.34 L157.311 693.141 Z" fill="#000000" fill-rule="nonzero" fill-opacity="1" /><path clip-path="url(#clip570)" d="M169.672 714.669 L177.311 714.669 L177.311 688.303 L169.001 689.97 L169.001 685.71 L177.265 684.044 L181.94 684.044 L181.94 714.669 L189.579 714.669 L189.579 718.604 L169.672 718.604 L169.672 714.669 Z" fill="#000000" fill-rule="nonzero" fill-opacity="1" /><path clip-path="url(#clip570)" d="M209.024 687.122 Q205.413 687.122 203.584 690.687 Q201.778 694.229 201.778 701.358 Q201.778 708.465 203.584 712.03 Q205.413 715.571 209.024 715.571 Q212.658 715.571 214.463 712.03 Q216.292 708.465 216.292 701.358 Q216.292 694.229 214.463 690.687 Q212.658 687.122 209.024 687.122 M209.024 683.419 Q214.834 683.419 217.889 688.025 Q220.968 692.609 220.968 701.358 Q220.968 710.085 217.889 714.692 Q214.834 719.275 209.024 719.275 Q203.214 719.275 200.135 714.692 Q197.079 710.085 197.079 701.358 Q197.079 692.609 200.135 688.025 Q203.214 683.419 209.024 683.419 Z" fill="#000000" fill-rule="nonzero" fill-opacity="1" /><path clip-path="url(#clip570)" d="M230.598 677.859 Q227.889 677.859 226.328 679.307 Q224.786 680.755 224.786 683.294 Q224.786 685.833 226.328 687.281 Q227.889 688.73 230.598 688.73 Q233.306 688.73 234.867 687.281 Q236.428 685.814 236.428 683.294 Q236.428 680.755 234.867 679.307 Q233.325 677.859 230.598 677.859 M226.798 676.241 Q224.353 675.639 222.98 673.965 Q221.626 672.292 221.626 669.884 Q221.626 666.518 224.015 664.562 Q226.422 662.606 230.598 662.606 Q234.792 662.606 237.18 664.562 Q239.569 666.518 239.569 669.884 Q239.569 672.292 238.196 673.965 Q236.842 675.639 234.416 676.241 Q237.162 676.881 238.685 678.743 Q240.227 680.605 240.227 683.294 Q240.227 687.375 237.726 689.557 Q235.243 691.739 230.598 691.739 Q225.952 691.739 223.451 689.557 Q220.968 687.375 220.968 683.294 Q220.968 680.605 222.51 678.743 Q224.053 676.881 226.798 676.241 M225.407 670.242 Q225.407 672.423 226.761 673.646 Q228.134 674.868 230.598 674.868 Q233.043 674.868 234.416 673.646 Q235.807 672.423 235.807 670.242 Q235.807 668.06 234.416 666.837 Q233.043 665.615 230.598 665.615 Q228.134 665.615 226.761 666.837 Q225.407 668.06 225.407 670.242 Z" fill="#000000" fill-rule="nonzero" fill-opacity="1" /><path clip-path="url(#clip570)" d="M66.5939 437.838 L54.7884 456.287 L66.5939 456.287 L66.5939 437.838 M65.367 433.764 L71.2466 433.764 L71.2466 456.287 L76.1772 456.287 L76.1772 460.176 L71.2466 460.176 L71.2466 468.324 L66.5939 468.324 L66.5939 460.176 L50.9921 460.176 L50.9921 455.662 L65.367 433.764 Z" fill="#000000" fill-rule="nonzero" fill-opacity="1" /><path clip-path="url(#clip570)" d="M83.9086 462.444 L88.7928 462.444 L88.7928 468.324 L83.9086 468.324 L83.9086 462.444 Z" fill="#000000" fill-rule="nonzero" fill-opacity="1" /><path clip-path="url(#clip570)" d="M108.978 436.843 Q105.367 436.843 103.538 440.407 Q101.733 443.949 101.733 451.079 Q101.733 458.185 103.538 461.75 Q105.367 465.292 108.978 465.292 Q112.612 465.292 114.418 461.75 Q116.246 458.185 116.246 451.079 Q116.246 443.949 114.418 440.407 Q112.612 436.843 108.978 436.843 M108.978 433.139 Q114.788 433.139 117.844 437.745 Q120.922 442.329 120.922 451.079 Q120.922 459.805 117.844 464.412 Q114.788 468.995 108.978 468.995 Q103.168 468.995 100.089 464.412 Q97.0335 459.805 97.0335 451.079 Q97.0335 442.329 100.089 437.745 Q103.168 433.139 108.978 433.139 Z" fill="#000000" fill-rule="nonzero" fill-opacity="1" /><path clip-path="url(#clip570)" d="M157.311 442.861 L146.732 453.486 L157.311 464.065 L154.556 466.866 L143.931 456.241 L133.306 466.866 L130.575 464.065 L141.131 453.486 L130.575 442.861 L133.306 440.06 L143.931 450.685 L154.556 440.06 L157.311 442.861 Z" fill="#000000" fill-rule="nonzero" fill-opacity="1" /><path clip-path="url(#clip570)" d="M169.672 464.389 L177.311 464.389 L177.311 438.023 L169.001 439.69 L169.001 435.431 L177.265 433.764 L181.94 433.764 L181.94 464.389 L189.579 464.389 L189.579 468.324 L169.672 468.324 L169.672 464.389 Z" fill="#000000" fill-rule="nonzero" fill-opacity="1" /><path clip-path="url(#clip570)" d="M209.024 436.843 Q205.413 436.843 203.584 440.407 Q201.778 443.949 201.778 451.079 Q201.778 458.185 203.584 461.75 Q205.413 465.292 209.024 465.292 Q212.658 465.292 214.463 461.75 Q216.292 458.185 216.292 451.079 Q216.292 443.949 214.463 440.407 Q212.658 436.843 209.024 436.843 M209.024 433.139 Q214.834 433.139 217.889 437.745 Q220.968 442.329 220.968 451.079 Q220.968 459.805 217.889 464.412 Q214.834 468.995 209.024 468.995 Q203.214 468.995 200.135 464.412 Q197.079 459.805 197.079 451.079 Q197.079 442.329 200.135 437.745 Q203.214 433.139 209.024 433.139 Z" fill="#000000" fill-rule="nonzero" fill-opacity="1" /><path clip-path="url(#clip570)" d="M230.598 427.579 Q227.889 427.579 226.328 429.027 Q224.786 430.475 224.786 433.014 Q224.786 435.553 226.328 437.001 Q227.889 438.45 230.598 438.45 Q233.306 438.45 234.867 437.001 Q236.428 435.534 236.428 433.014 Q236.428 430.475 234.867 429.027 Q233.325 427.579 230.598 427.579 M226.798 425.961 Q224.353 425.359 222.98 423.686 Q221.626 422.012 221.626 419.604 Q221.626 416.238 224.015 414.282 Q226.422 412.326 230.598 412.326 Q234.792 412.326 237.18 414.282 Q239.569 416.238 239.569 419.604 Q239.569 422.012 238.196 423.686 Q236.842 425.359 234.416 425.961 Q237.162 426.601 238.685 428.463 Q240.227 430.325 240.227 433.014 Q240.227 437.096 237.726 439.277 Q235.243 441.459 230.598 441.459 Q225.952 441.459 223.451 439.277 Q220.968 437.096 220.968 433.014 Q220.968 430.325 222.51 428.463 Q224.053 426.601 226.798 425.961 M225.407 419.962 Q225.407 422.143 226.761 423.366 Q228.134 424.588 230.598 424.588 Q233.043 424.588 234.416 423.366 Q235.807 422.143 235.807 419.962 Q235.807 417.78 234.416 416.557 Q233.043 415.335 230.598 415.335 Q228.134 415.335 226.761 416.557 Q225.407 417.78 225.407 419.962 Z" fill="#000000" fill-rule="nonzero" fill-opacity="1" /><path clip-path="url(#clip570)" d="M53.793 183.484 L72.1494 183.484 L72.1494 187.419 L58.0754 187.419 L58.0754 195.891 Q59.0939 195.544 60.1124 195.382 Q61.131 195.197 62.1495 195.197 Q67.9365 195.197 71.3161 198.368 Q74.6957 201.54 74.6957 206.956 Q74.6957 212.535 71.2235 215.637 Q67.7513 218.715 61.4319 218.715 Q59.256 218.715 56.9875 218.345 Q54.7421 217.975 52.3347 217.234 L52.3347 212.535 Q54.418 213.669 56.6402 214.225 Q58.8625 214.78 61.3393 214.78 Q65.3439 214.78 67.6819 212.674 Q70.0198 210.567 70.0198 206.956 Q70.0198 203.345 67.6819 201.239 Q65.3439 199.132 61.3393 199.132 Q59.4643 199.132 57.5893 199.549 Q55.7375 199.965 53.793 200.845 L53.793 183.484 Z" fill="#000000" fill-rule="nonzero" fill-opacity="1" /><path clip-path="url(#clip570)" d="M83.9086 212.164 L88.7928 212.164 L88.7928 218.044 L83.9086 218.044 L83.9086 212.164 Z" fill="#000000" fill-rule="nonzero" fill-opacity="1" /><path clip-path="url(#clip570)" d="M108.978 186.563 Q105.367 186.563 103.538 190.128 Q101.733 193.669 101.733 200.799 Q101.733 207.905 103.538 211.47 Q105.367 215.012 108.978 215.012 Q112.612 215.012 114.418 211.47 Q116.246 207.905 116.246 200.799 Q116.246 193.669 114.418 190.128 Q112.612 186.563 108.978 186.563 M108.978 182.859 Q114.788 182.859 117.844 187.466 Q120.922 192.049 120.922 200.799 Q120.922 209.526 117.844 214.132 Q114.788 218.715 108.978 218.715 Q103.168 218.715 100.089 214.132 Q97.0335 209.526 97.0335 200.799 Q97.0335 192.049 100.089 187.466 Q103.168 182.859 108.978 182.859 Z" fill="#000000" fill-rule="nonzero" fill-opacity="1" /><path clip-path="url(#clip570)" d="M157.311 192.581 L146.732 203.206 L157.311 213.785 L154.556 216.586 L143.931 205.961 L133.306 216.586 L130.575 213.785 L141.131 203.206 L130.575 192.581 L133.306 189.78 L143.931 200.405 L154.556 189.78 L157.311 192.581 Z" fill="#000000" fill-rule="nonzero" fill-opacity="1" /><path clip-path="url(#clip570)" d="M169.672 214.109 L177.311 214.109 L177.311 187.743 L169.001 189.41 L169.001 185.151 L177.265 183.484 L181.94 183.484 L181.94 214.109 L189.579 214.109 L189.579 218.044 L169.672 218.044 L169.672 214.109 Z" fill="#000000" fill-rule="nonzero" fill-opacity="1" /><path clip-path="url(#clip570)" d="M209.024 186.563 Q205.413 186.563 203.584 190.128 Q201.778 193.669 201.778 200.799 Q201.778 207.905 203.584 211.47 Q205.413 215.012 209.024 215.012 Q212.658 215.012 214.463 211.47 Q216.292 207.905 216.292 200.799 Q216.292 193.669 214.463 190.128 Q212.658 186.563 209.024 186.563 M209.024 182.859 Q214.834 182.859 217.889 187.466 Q220.968 192.049 220.968 200.799 Q220.968 209.526 217.889 214.132 Q214.834 218.715 209.024 218.715 Q203.214 218.715 200.135 214.132 Q197.079 209.526 197.079 200.799 Q197.079 192.049 200.135 187.466 Q203.214 182.859 209.024 182.859 Z" fill="#000000" fill-rule="nonzero" fill-opacity="1" /><path clip-path="url(#clip570)" d="M230.598 177.299 Q227.889 177.299 226.328 178.747 Q224.786 180.195 224.786 182.734 Q224.786 185.273 226.328 186.722 Q227.889 188.17 230.598 188.17 Q233.306 188.17 234.867 186.722 Q236.428 185.255 236.428 182.734 Q236.428 180.195 234.867 178.747 Q233.325 177.299 230.598 177.299 M226.798 175.681 Q224.353 175.08 222.98 173.406 Q221.626 171.732 221.626 169.324 Q221.626 165.958 224.015 164.002 Q226.422 162.046 230.598 162.046 Q234.792 162.046 237.18 164.002 Q239.569 165.958 239.569 169.324 Q239.569 171.732 238.196 173.406 Q236.842 175.08 234.416 175.681 Q237.162 176.321 238.685 178.183 Q240.227 180.045 240.227 182.734 Q240.227 186.816 237.726 188.997 Q235.243 191.179 230.598 191.179 Q225.952 191.179 223.451 188.997 Q220.968 186.816 220.968 182.734 Q220.968 180.045 222.51 178.183 Q224.053 176.321 226.798 175.681 M225.407 169.682 Q225.407 171.864 226.761 173.086 Q228.134 174.309 230.598 174.309 Q233.043 174.309 234.416 173.086 Q235.807 171.864 235.807 169.682 Q235.807 167.5 234.416 166.278 Q233.043 165.055 230.598 165.055 Q228.134 165.055 226.761 166.278 Q225.407 167.5 225.407 169.682 Z" fill="#000000" fill-rule="nonzero" fill-opacity="1" /><path clip-path="url(#clip572)" d="M390.44 87.9763 L390.44 983.018 L869.578 983.018 L869.578 87.9763 L390.44 87.9763 L390.44 87.9763  Z" fill="#009af9" fill-rule="evenodd" fill-opacity="1"/>
<polyline clip-path="url(#clip572)" style="stroke:#000000; stroke-linecap:round; stroke-linejoin:round; stroke-width:4; stroke-opacity:1; fill:none" points="390.44,87.9763 390.44,983.018 869.578,983.018 869.578,87.9763 390.44,87.9763 "/>
<path clip-path="url(#clip572)" d="M1074.92 662.013 L1074.92 1274.65 L1554.06 1274.65 L1554.06 662.013 L1074.92 662.013 L1074.92 662.013  Z" fill="#009af9" fill-rule="evenodd" fill-opacity="1"/>
<polyline clip-path="url(#clip572)" style="stroke:#000000; stroke-linecap:round; stroke-linejoin:round; stroke-width:4; stroke-opacity:1; fill:none" points="1074.92,662.013 1074.92,1274.65 1554.06,1274.65 1554.06,662.013 1074.92,662.013 "/>
<path clip-path="url(#clip572)" d="M1759.41 1340.27 L1759.41 1432.44 L2238.54 1432.44 L2238.54 1340.27 L1759.41 1340.27 L1759.41 1340.27  Z" fill="#009af9" fill-rule="evenodd" fill-opacity="1"/>
<polyline clip-path="url(#clip572)" style="stroke:#000000; stroke-linecap:round; stroke-linejoin:round; stroke-width:4; stroke-opacity:1; fill:none" points="1759.41,1340.27 1759.41,1432.44 2238.54,1432.44 2238.54,1340.27 1759.41,1340.27 "/>
<circle clip-path="url(#clip572)" style="fill:#009af9; stroke:none; fill-opacity:0" cx="630.009" cy="87.9763" r="2"/>
<circle clip-path="url(#clip572)" style="fill:#009af9; stroke:none; fill-opacity:0" cx="1314.49" cy="662.013" r="2"/>
<circle clip-path="url(#clip572)" style="fill:#009af9; stroke:none; fill-opacity:0" cx="1998.97" cy="1340.27" r="2"/>
<path clip-path="url(#clip572)" d="M390.44 983.018 L390.44 1311.48 L869.578 1311.48 L869.578 983.018 L390.44 983.018 L390.44 983.018  Z" fill="#e26f46" fill-rule="evenodd" fill-opacity="1"/>
<polyline clip-path="url(#clip572)" style="stroke:#000000; stroke-linecap:round; stroke-linejoin:round; stroke-width:4; stroke-opacity:1; fill:none" points="390.44,983.018 390.44,1311.48 869.578,1311.48 869.578,983.018 390.44,983.018 "/>
<path clip-path="url(#clip572)" d="M1074.92 1274.65 L1074.92 1274.65 L1554.06 1274.65 L1554.06 1274.65 L1074.92 1274.65 L1074.92 1274.65  Z" fill="#e26f46" fill-rule="evenodd" fill-opacity="1"/>
<polyline clip-path="url(#clip572)" style="stroke:#000000; stroke-linecap:round; stroke-linejoin:round; stroke-width:4; stroke-opacity:1; fill:none" points="1074.92,1274.65 1074.92,1274.65 1554.06,1274.65 1074.92,1274.65 "/>
<path clip-path="url(#clip572)" d="M1759.41 1432.44 L1759.41 1439.84 L2238.54 1439.84 L2238.54 1432.44 L1759.41 1432.44 L1759.41 1432.44  Z" fill="#e26f46" fill-rule="evenodd" fill-opacity="1"/>
<polyline clip-path="url(#clip572)" style="stroke:#000000; stroke-linecap:round; stroke-linejoin:round; stroke-width:4; stroke-opacity:1; fill:none" points="1759.41,1432.44 1759.41,1439.84 2238.54,1439.84 2238.54,1432.44 1759.41,1432.44 "/>
<circle clip-path="url(#clip572)" style="fill:#e26f46; stroke:none; fill-opacity:0" cx="630.009" cy="983.018" r="2"/>
<circle clip-path="url(#clip572)" style="fill:#e26f46; stroke:none; fill-opacity:0" cx="1314.49" cy="1274.65" r="2"/>
<circle clip-path="url(#clip572)" style="fill:#e26f46; stroke:none; fill-opacity:0" cx="1998.97" cy="1432.44" r="2"/>
<path clip-path="url(#clip572)" d="M390.44 1311.48 L390.44 1374.04 L869.578 1374.04 L869.578 1311.48 L390.44 1311.48 L390.44 1311.48  Z" fill="#3da44d" fill-rule="evenodd" fill-opacity="1"/>
<polyline clip-path="url(#clip572)" style="stroke:#000000; stroke-linecap:round; stroke-linejoin:round; stroke-width:4; stroke-opacity:1; fill:none" points="390.44,1311.48 390.44,1374.04 869.578,1374.04 869.578,1311.48 390.44,1311.48 "/>
<path clip-path="url(#clip572)" d="M1074.92 1274.65 L1074.92 1275.62 L1554.06 1275.62 L1554.06 1274.65 L1074.92 1274.65 L1074.92 1274.65  Z" fill="#3da44d" fill-rule="evenodd" fill-opacity="1"/>
<polyline clip-path="url(#clip572)" style="stroke:#000000; stroke-linecap:round; stroke-linejoin:round; stroke-width:4; stroke-opacity:1; fill:none" points="1074.92,1274.65 1074.92,1275.62 1554.06,1275.62 1554.06,1274.65 1074.92,1274.65 "/>
<path clip-path="url(#clip572)" d="M1759.41 1439.84 L1759.41 1442.76 L2238.54 1442.76 L2238.54 1439.84 L1759.41 1439.84 L1759.41 1439.84  Z" fill="#3da44d" fill-rule="evenodd" fill-opacity="1"/>
<polyline clip-path="url(#clip572)" style="stroke:#000000; stroke-linecap:round; stroke-linejoin:round; stroke-width:4; stroke-opacity:1; fill:none" points="1759.41,1439.84 1759.41,1442.76 2238.54,1442.76 2238.54,1439.84 1759.41,1439.84 "/>
<circle clip-path="url(#clip572)" style="fill:#3da44d; stroke:none; fill-opacity:0" cx="630.009" cy="1311.48" r="2"/>
<circle clip-path="url(#clip572)" style="fill:#3da44d; stroke:none; fill-opacity:0" cx="1314.49" cy="1274.65" r="2"/>
<circle clip-path="url(#clip572)" style="fill:#3da44d; stroke:none; fill-opacity:0" cx="1998.97" cy="1439.84" r="2"/>
<path clip-path="url(#clip572)" d="M390.44 1374.04 L390.44 1374.04 L869.578 1374.04 L869.578 1374.04 L390.44 1374.04 L390.44 1374.04  Z" fill="#c271d2" fill-rule="evenodd" fill-opacity="1"/>
<polyline clip-path="url(#clip572)" style="stroke:#000000; stroke-linecap:round; stroke-linejoin:round; stroke-width:4; stroke-opacity:1; fill:none" points="390.44,1374.04 390.44,1374.04 869.578,1374.04 390.44,1374.04 "/>
<path clip-path="url(#clip572)" d="M1074.92 1275.62 L1074.92 1438.3 L1554.06 1438.3 L1554.06 1275.62 L1074.92 1275.62 L1074.92 1275.62  Z" fill="#c271d2" fill-rule="evenodd" fill-opacity="1"/>
<polyline clip-path="url(#clip572)" style="stroke:#000000; stroke-linecap:round; stroke-linejoin:round; stroke-width:4; stroke-opacity:1; fill:none" points="1074.92,1275.62 1074.92,1438.3 1554.06,1438.3 1554.06,1275.62 1074.92,1275.62 "/>
<path clip-path="url(#clip572)" d="M1759.41 1442.76 L1759.41 1442.76 L2238.54 1442.76 L2238.54 1442.76 L1759.41 1442.76 L1759.41 1442.76  Z" fill="#c271d2" fill-rule="evenodd" fill-opacity="1"/>
<polyline clip-path="url(#clip572)" style="stroke:#000000; stroke-linecap:round; stroke-linejoin:round; stroke-width:4; stroke-opacity:1; fill:none" points="1759.41,1442.76 1759.41,1442.76 2238.54,1442.76 1759.41,1442.76 "/>
<circle clip-path="url(#clip572)" style="fill:#c271d2; stroke:none; fill-opacity:0" cx="630.009" cy="1374.04" r="2"/>
<circle clip-path="url(#clip572)" style="fill:#c271d2; stroke:none; fill-opacity:0" cx="1314.49" cy="1275.62" r="2"/>
<circle clip-path="url(#clip572)" style="fill:#c271d2; stroke:none; fill-opacity:0" cx="1998.97" cy="1442.76" r="2"/>
<path clip-path="url(#clip572)" d="M390.44 1374.04 L390.44 1445.72 L869.578 1445.72 L869.578 1374.04 L390.44 1374.04 L390.44 1374.04  Z" fill="#ac8d18" fill-rule="evenodd" fill-opacity="1"/>
<polyline clip-path="url(#clip572)" style="stroke:#000000; stroke-linecap:round; stroke-linejoin:round; stroke-width:4; stroke-opacity:1; fill:none" points="390.44,1374.04 390.44,1445.72 869.578,1445.72 869.578,1374.04 390.44,1374.04 "/>
<path clip-path="url(#clip572)" d="M1074.92 1438.3 L1074.92 1445.72 L1554.06 1445.72 L1554.06 1438.3 L1074.92 1438.3 L1074.92 1438.3  Z" fill="#ac8d18" fill-rule="evenodd" fill-opacity="1"/>
<polyline clip-path="url(#clip572)" style="stroke:#000000; stroke-linecap:round; stroke-linejoin:round; stroke-width:4; stroke-opacity:1; fill:none" points="1074.92,1438.3 1074.92,1445.72 1554.06,1445.72 1554.06,1438.3 1074.92,1438.3 "/>
<path clip-path="url(#clip572)" d="M1759.41 1442.76 L1759.41 1445.72 L2238.54 1445.72 L2238.54 1442.76 L1759.41 1442.76 L1759.41 1442.76  Z" fill="#ac8d18" fill-rule="evenodd" fill-opacity="1"/>
<polyline clip-path="url(#clip572)" style="stroke:#000000; stroke-linecap:round; stroke-linejoin:round; stroke-width:4; stroke-opacity:1; fill:none" points="1759.41,1442.76 1759.41,1445.72 2238.54,1445.72 2238.54,1442.76 1759.41,1442.76 "/>
<circle clip-path="url(#clip572)" style="fill:#ac8d18; stroke:none; fill-opacity:0" cx="630.009" cy="1374.04" r="2"/>
<circle clip-path="url(#clip572)" style="fill:#ac8d18; stroke:none; fill-opacity:0" cx="1314.49" cy="1438.3" r="2"/>
<circle clip-path="url(#clip572)" style="fill:#ac8d18; stroke:none; fill-opacity:0" cx="1998.97" cy="1442.76" r="2"/>
<path clip-path="url(#clip570)" d="M1906.49 406.258 L2283.54 406.258 L2283.54 95.2176 L1906.49 95.2176  Z" fill="#ffffff" fill-rule="evenodd" fill-opacity="1"/>
<polyline clip-path="url(#clip570)" style="stroke:#000000; stroke-linecap:round; stroke-linejoin:round; stroke-width:4; stroke-opacity:1; fill:none" points="1906.49,406.258 2283.54,406.258 2283.54,95.2176 1906.49,95.2176 1906.49,406.258 "/>
<path clip-path="url(#clip570)" d="M1929.56 167.794 L2068 167.794 L2068 126.322 L1929.56 126.322 L1929.56 167.794  Z" fill="#009af9" fill-rule="evenodd" fill-opacity="1"/>
<polyline clip-path="url(#clip570)" style="stroke:#000000; stroke-linecap:round; stroke-linejoin:round; stroke-width:4; stroke-opacity:1; fill:none" points="1929.56,167.794 2068,167.794 2068,126.322 1929.56,126.322 1929.56,167.794 "/>
<path clip-path="url(#clip570)" d="M2091.07 129.778 L2095.79 129.778 L2103.06 158.99 L2110.3 129.778 L2115.56 129.778 L2122.83 158.99 L2130.07 129.778 L2134.82 129.778 L2126.14 164.338 L2120.26 164.338 L2112.97 134.338 L2105.61 164.338 L2099.73 164.338 L2091.07 129.778 Z" fill="#000000" fill-rule="nonzero" fill-opacity="1" /><path clip-path="url(#clip570)" d="M2139.8 138.412 L2144.05 138.412 L2144.05 164.338 L2139.8 164.338 L2139.8 138.412 M2139.8 128.319 L2144.05 128.319 L2144.05 133.713 L2139.8 133.713 L2139.8 128.319 Z" fill="#000000" fill-rule="nonzero" fill-opacity="1" /><path clip-path="url(#clip570)" d="M2174.52 148.689 L2174.52 164.338 L2170.26 164.338 L2170.26 148.828 Q2170.26 145.148 2168.82 143.319 Q2167.39 141.49 2164.52 141.49 Q2161.07 141.49 2159.08 143.69 Q2157.09 145.889 2157.09 149.685 L2157.09 164.338 L2152.8 164.338 L2152.8 138.412 L2157.09 138.412 L2157.09 142.44 Q2158.61 140.102 2160.67 138.944 Q2162.76 137.787 2165.47 137.787 Q2169.93 137.787 2172.23 140.565 Q2174.52 143.319 2174.52 148.689 Z" fill="#000000" fill-rule="nonzero" fill-opacity="1" /><path clip-path="url(#clip570)" d="M2200.07 142.347 L2200.07 128.319 L2204.33 128.319 L2204.33 164.338 L2200.07 164.338 L2200.07 160.449 Q2198.73 162.763 2196.67 163.898 Q2194.63 165.009 2191.76 165.009 Q2187.06 165.009 2184.1 161.259 Q2181.16 157.509 2181.16 151.398 Q2181.16 145.287 2184.1 141.537 Q2187.06 137.787 2191.76 137.787 Q2194.63 137.787 2196.67 138.921 Q2198.73 140.032 2200.07 142.347 M2185.56 151.398 Q2185.56 156.097 2187.48 158.782 Q2189.42 161.444 2192.8 161.444 Q2196.18 161.444 2198.13 158.782 Q2200.07 156.097 2200.07 151.398 Q2200.07 146.699 2198.13 144.037 Q2196.18 141.352 2192.8 141.352 Q2189.42 141.352 2187.48 144.037 Q2185.56 146.699 2185.56 151.398 Z" fill="#000000" fill-rule="nonzero" fill-opacity="1" /><path clip-path="url(#clip570)" d="M1929.56 219.634 L2068 219.634 L2068 178.162 L1929.56 178.162 L1929.56 219.634  Z" fill="#e26f46" fill-rule="evenodd" fill-opacity="1"/>
<polyline clip-path="url(#clip570)" style="stroke:#000000; stroke-linecap:round; stroke-linejoin:round; stroke-width:4; stroke-opacity:1; fill:none" points="1929.56,219.634 2068,219.634 2068,178.162 1929.56,178.162 1929.56,219.634 "/>
<path clip-path="url(#clip570)" d="M2095.74 185.46 L2095.74 198.446 L2101.62 198.446 Q2104.89 198.446 2106.67 196.756 Q2108.45 195.067 2108.45 191.942 Q2108.45 188.84 2106.67 187.15 Q2104.89 185.46 2101.62 185.46 L2095.74 185.46 M2091.07 181.618 L2101.62 181.618 Q2107.43 181.618 2110.4 184.256 Q2113.38 186.872 2113.38 191.942 Q2113.38 197.057 2110.4 199.673 Q2107.43 202.289 2101.62 202.289 L2095.74 202.289 L2095.74 216.178 L2091.07 216.178 L2091.07 181.618 Z" fill="#000000" fill-rule="nonzero" fill-opacity="1" /><path clip-path="url(#clip570)" d="M2128.57 216.178 L2115.37 181.618 L2120.26 181.618 L2131.21 210.715 L2142.18 181.618 L2147.04 181.618 L2133.87 216.178 L2128.57 216.178 Z" fill="#000000" fill-rule="nonzero" fill-opacity="1" /><path clip-path="url(#clip570)" d="M1929.56 271.474 L2068 271.474 L2068 230.002 L1929.56 230.002 L1929.56 271.474  Z" fill="#3da44d" fill-rule="evenodd" fill-opacity="1"/>
<polyline clip-path="url(#clip570)" style="stroke:#000000; stroke-linecap:round; stroke-linejoin:round; stroke-width:4; stroke-opacity:1; fill:none" points="1929.56,271.474 2068,271.474 2068,230.002 1929.56,230.002 1929.56,271.474 "/>
<path clip-path="url(#clip570)" d="M2116.62 263.087 L2116.62 253.805 L2108.99 253.805 L2108.99 249.962 L2121.25 249.962 L2121.25 264.8 Q2118.55 266.721 2115.28 267.717 Q2112.02 268.689 2108.31 268.689 Q2100.21 268.689 2095.63 263.967 Q2091.07 259.221 2091.07 250.772 Q2091.07 242.3 2095.63 237.578 Q2100.21 232.833 2108.31 232.833 Q2111.69 232.833 2114.73 233.666 Q2117.78 234.499 2120.35 236.12 L2120.35 241.096 Q2117.76 238.897 2114.84 237.786 Q2111.92 236.675 2108.71 236.675 Q2102.36 236.675 2099.17 240.217 Q2096 243.758 2096 250.772 Q2096 257.763 2099.17 261.305 Q2102.36 264.846 2108.71 264.846 Q2111.18 264.846 2113.13 264.43 Q2115.07 263.99 2116.62 263.087 Z" fill="#000000" fill-rule="nonzero" fill-opacity="1" /><path clip-path="url(#clip570)" d="M2141.39 254.985 Q2136.23 254.985 2134.24 256.166 Q2132.25 257.346 2132.25 260.194 Q2132.25 262.462 2133.73 263.805 Q2135.23 265.124 2137.8 265.124 Q2141.35 265.124 2143.48 262.624 Q2145.63 260.101 2145.63 255.934 L2145.63 254.985 L2141.39 254.985 M2149.89 253.226 L2149.89 268.018 L2145.63 268.018 L2145.63 264.082 Q2144.17 266.443 2141.99 267.578 Q2139.82 268.689 2136.67 268.689 Q2132.69 268.689 2130.33 266.467 Q2127.99 264.221 2127.99 260.471 Q2127.99 256.096 2130.91 253.874 Q2133.85 251.652 2139.66 251.652 L2145.63 251.652 L2145.63 251.235 Q2145.63 248.295 2143.68 246.698 Q2141.76 245.078 2138.27 245.078 Q2136.05 245.078 2133.94 245.61 Q2131.83 246.143 2129.89 247.207 L2129.89 243.272 Q2132.23 242.37 2134.42 241.93 Q2136.62 241.467 2138.71 241.467 Q2144.33 241.467 2147.11 244.383 Q2149.89 247.3 2149.89 253.226 Z" fill="#000000" fill-rule="nonzero" fill-opacity="1" /><path clip-path="url(#clip570)" d="M2175.19 242.856 L2175.19 246.883 Q2173.38 245.957 2171.44 245.495 Q2169.49 245.032 2167.41 245.032 Q2164.24 245.032 2162.64 246.004 Q2161.07 246.976 2161.07 248.92 Q2161.07 250.402 2162.2 251.258 Q2163.34 252.092 2166.76 252.856 L2168.22 253.18 Q2172.76 254.152 2174.66 255.934 Q2176.58 257.694 2176.58 260.865 Q2176.58 264.476 2173.71 266.582 Q2170.86 268.689 2165.86 268.689 Q2163.78 268.689 2161.51 268.272 Q2159.26 267.879 2156.76 267.068 L2156.76 262.67 Q2159.12 263.897 2161.42 264.522 Q2163.71 265.124 2165.95 265.124 Q2168.96 265.124 2170.58 264.106 Q2172.2 263.064 2172.2 261.189 Q2172.2 259.453 2171.02 258.527 Q2169.86 257.601 2165.91 256.744 L2164.42 256.397 Q2160.47 255.564 2158.71 253.851 Q2156.95 252.115 2156.95 249.106 Q2156.95 245.448 2159.54 243.458 Q2162.13 241.467 2166.9 241.467 Q2169.26 241.467 2171.35 241.814 Q2173.43 242.161 2175.19 242.856 Z" fill="#000000" fill-rule="nonzero" fill-opacity="1" /><path clip-path="url(#clip570)" d="M1929.56 323.314 L2068 323.314 L2068 281.842 L1929.56 281.842 L1929.56 323.314  Z" fill="#c271d2" fill-rule="evenodd" fill-opacity="1"/>
<polyline clip-path="url(#clip570)" style="stroke:#000000; stroke-linecap:round; stroke-linejoin:round; stroke-width:4; stroke-opacity:1; fill:none" points="1929.56,323.314 2068,323.314 2068,281.842 1929.56,281.842 1929.56,323.314 "/>
<path clip-path="url(#clip570)" d="M2091.07 285.298 L2095.74 285.298 L2095.74 299.464 L2112.74 299.464 L2112.74 285.298 L2117.41 285.298 L2117.41 319.858 L2112.74 319.858 L2112.74 303.399 L2095.74 303.399 L2095.74 319.858 L2091.07 319.858 L2091.07 285.298 Z" fill="#000000" fill-rule="nonzero" fill-opacity="1" /><path clip-path="url(#clip570)" d="M2137.32 322.265 Q2135.51 326.895 2133.8 328.307 Q2132.09 329.719 2129.22 329.719 L2125.81 329.719 L2125.81 326.154 L2128.31 326.154 Q2130.07 326.154 2131.05 325.32 Q2132.02 324.487 2133.2 321.385 L2133.96 319.441 L2123.48 293.932 L2127.99 293.932 L2136.09 314.209 L2144.19 293.932 L2148.71 293.932 L2137.32 322.265 Z" fill="#000000" fill-rule="nonzero" fill-opacity="1" /><path clip-path="url(#clip570)" d="M2171.65 297.867 L2171.65 283.839 L2175.91 283.839 L2175.91 319.858 L2171.65 319.858 L2171.65 315.969 Q2170.3 318.283 2168.24 319.418 Q2166.21 320.529 2163.34 320.529 Q2158.64 320.529 2155.67 316.779 Q2152.73 313.029 2152.73 306.918 Q2152.73 300.807 2155.67 297.057 Q2158.64 293.307 2163.34 293.307 Q2166.21 293.307 2168.24 294.441 Q2170.3 295.552 2171.65 297.867 M2157.13 306.918 Q2157.13 311.617 2159.05 314.302 Q2161 316.964 2164.38 316.964 Q2167.76 316.964 2169.7 314.302 Q2171.65 311.617 2171.65 306.918 Q2171.65 302.219 2169.7 299.557 Q2167.76 296.872 2164.38 296.872 Q2161 296.872 2159.05 299.557 Q2157.13 302.219 2157.13 306.918 Z" fill="#000000" fill-rule="nonzero" fill-opacity="1" /><path clip-path="url(#clip570)" d="M2199.7 297.913 Q2198.98 297.497 2198.13 297.311 Q2197.29 297.103 2196.28 297.103 Q2192.67 297.103 2190.72 299.464 Q2188.8 301.802 2188.8 306.2 L2188.8 319.858 L2184.52 319.858 L2184.52 293.932 L2188.8 293.932 L2188.8 297.96 Q2190.14 295.598 2192.29 294.464 Q2194.45 293.307 2197.53 293.307 Q2197.97 293.307 2198.5 293.376 Q2199.03 293.423 2199.68 293.538 L2199.7 297.913 Z" fill="#000000" fill-rule="nonzero" fill-opacity="1" /><path clip-path="url(#clip570)" d="M2213.17 296.918 Q2209.75 296.918 2207.76 299.603 Q2205.77 302.265 2205.77 306.918 Q2205.77 311.571 2207.73 314.256 Q2209.73 316.918 2213.17 316.918 Q2216.58 316.918 2218.57 314.233 Q2220.56 311.547 2220.56 306.918 Q2220.56 302.311 2218.57 299.626 Q2216.58 296.918 2213.17 296.918 M2213.17 293.307 Q2218.73 293.307 2221.9 296.918 Q2225.07 300.529 2225.07 306.918 Q2225.07 313.284 2221.9 316.918 Q2218.73 320.529 2213.17 320.529 Q2207.6 320.529 2204.42 316.918 Q2201.28 313.284 2201.28 306.918 Q2201.28 300.529 2204.42 296.918 Q2207.6 293.307 2213.17 293.307 Z" fill="#000000" fill-rule="nonzero" fill-opacity="1" /><path clip-path="url(#clip570)" d="M1929.56 375.154 L2068 375.154 L2068 333.682 L1929.56 333.682 L1929.56 375.154  Z" fill="#ac8d18" fill-rule="evenodd" fill-opacity="1"/>
<polyline clip-path="url(#clip570)" style="stroke:#000000; stroke-linecap:round; stroke-linejoin:round; stroke-width:4; stroke-opacity:1; fill:none" points="1929.56,375.154 2068,375.154 2068,333.682 1929.56,333.682 1929.56,375.154 "/>
<path clip-path="url(#clip570)" d="M2095.74 355.193 L2095.74 367.855 L2103.24 367.855 Q2107.02 367.855 2108.82 366.304 Q2110.65 364.73 2110.65 361.512 Q2110.65 358.272 2108.82 356.744 Q2107.02 355.193 2103.24 355.193 L2095.74 355.193 M2095.74 340.98 L2095.74 351.397 L2102.67 351.397 Q2106.09 351.397 2107.76 350.124 Q2109.45 348.827 2109.45 346.188 Q2109.45 343.573 2107.76 342.276 Q2106.09 340.98 2102.67 340.98 L2095.74 340.98 M2091.07 337.138 L2103.01 337.138 Q2108.36 337.138 2111.25 339.36 Q2114.15 341.582 2114.15 345.679 Q2114.15 348.85 2112.67 350.725 Q2111.18 352.6 2108.31 353.063 Q2111.76 353.804 2113.66 356.165 Q2115.58 358.503 2115.58 362.022 Q2115.58 366.651 2112.43 369.174 Q2109.29 371.698 2103.48 371.698 L2091.07 371.698 L2091.07 337.138 Z" fill="#000000" fill-rule="nonzero" fill-opacity="1" /><path clip-path="url(#clip570)" d="M2135.19 358.665 Q2130.03 358.665 2128.04 359.846 Q2126.05 361.026 2126.05 363.874 Q2126.05 366.142 2127.53 367.485 Q2129.03 368.804 2131.6 368.804 Q2135.14 368.804 2137.27 366.304 Q2139.42 363.781 2139.42 359.614 L2139.42 358.665 L2135.19 358.665 M2143.68 356.906 L2143.68 371.698 L2139.42 371.698 L2139.42 367.762 Q2137.97 370.123 2135.79 371.258 Q2133.61 372.369 2130.47 372.369 Q2126.48 372.369 2124.12 370.147 Q2121.79 367.901 2121.79 364.151 Q2121.79 359.776 2124.7 357.554 Q2127.64 355.332 2133.45 355.332 L2139.42 355.332 L2139.42 354.915 Q2139.42 351.975 2137.48 350.378 Q2135.56 348.758 2132.06 348.758 Q2129.84 348.758 2127.73 349.29 Q2125.63 349.823 2123.68 350.887 L2123.68 346.952 Q2126.02 346.05 2128.22 345.61 Q2130.42 345.147 2132.5 345.147 Q2138.13 345.147 2140.91 348.063 Q2143.68 350.98 2143.68 356.906 Z" fill="#000000" fill-rule="nonzero" fill-opacity="1" /><path clip-path="url(#clip570)" d="M2156.67 338.411 L2156.67 345.772 L2165.44 345.772 L2165.44 349.082 L2156.67 349.082 L2156.67 363.156 Q2156.67 366.327 2157.53 367.23 Q2158.41 368.133 2161.07 368.133 L2165.44 368.133 L2165.44 371.698 L2161.07 371.698 Q2156.14 371.698 2154.26 369.869 Q2152.39 368.017 2152.39 363.156 L2152.39 349.082 L2149.26 349.082 L2149.26 345.772 L2152.39 345.772 L2152.39 338.411 L2156.67 338.411 Z" fill="#000000" fill-rule="nonzero" fill-opacity="1" /><path clip-path="url(#clip570)" d="M2175.26 338.411 L2175.26 345.772 L2184.03 345.772 L2184.03 349.082 L2175.26 349.082 L2175.26 363.156 Q2175.26 366.327 2176.11 367.23 Q2176.99 368.133 2179.66 368.133 L2184.03 368.133 L2184.03 371.698 L2179.66 371.698 Q2174.73 371.698 2172.85 369.869 Q2170.98 368.017 2170.98 363.156 L2170.98 349.082 L2167.85 349.082 L2167.85 345.772 L2170.98 345.772 L2170.98 338.411 L2175.26 338.411 Z" fill="#000000" fill-rule="nonzero" fill-opacity="1" /><path clip-path="url(#clip570)" d="M2211.81 357.67 L2211.81 359.753 L2192.23 359.753 Q2192.5 364.151 2194.86 366.466 Q2197.25 368.758 2201.48 368.758 Q2203.94 368.758 2206.23 368.156 Q2208.54 367.554 2210.81 366.35 L2210.81 370.378 Q2208.52 371.35 2206.11 371.86 Q2203.71 372.369 2201.23 372.369 Q2195.03 372.369 2191.39 368.758 Q2187.78 365.147 2187.78 358.989 Q2187.78 352.624 2191.21 348.897 Q2194.66 345.147 2200.49 345.147 Q2205.72 345.147 2208.75 348.526 Q2211.81 351.883 2211.81 357.67 M2207.55 356.42 Q2207.5 352.925 2205.58 350.841 Q2203.68 348.758 2200.54 348.758 Q2196.97 348.758 2194.82 350.772 Q2192.69 352.786 2192.36 356.443 L2207.55 356.42 Z" fill="#000000" fill-rule="nonzero" fill-opacity="1" /><path clip-path="url(#clip570)" d="M2233.82 349.753 Q2233.1 349.337 2232.25 349.151 Q2231.41 348.943 2230.4 348.943 Q2226.79 348.943 2224.84 351.304 Q2222.92 353.642 2222.92 358.04 L2222.92 371.698 L2218.64 371.698 L2218.64 345.772 L2222.92 345.772 L2222.92 349.8 Q2224.26 347.438 2226.41 346.304 Q2228.57 345.147 2231.65 345.147 Q2232.09 345.147 2232.62 345.216 Q2233.15 345.263 2233.8 345.378 L2233.82 349.753 Z" fill="#000000" fill-rule="nonzero" fill-opacity="1" /><path clip-path="url(#clip570)" d="M2249.08 374.105 Q2247.27 378.735 2245.56 380.147 Q2243.85 381.559 2240.98 381.559 L2237.57 381.559 L2237.57 377.994 L2240.07 377.994 Q2241.83 377.994 2242.8 377.16 Q2243.78 376.327 2244.96 373.225 L2245.72 371.281 L2235.23 345.772 L2239.75 345.772 L2247.85 366.049 L2255.95 345.772 L2260.47 345.772 L2249.08 374.105 Z" fill="#000000" fill-rule="nonzero" fill-opacity="1" /></svg>
