<?xml version="1.0" encoding="utf-8"?>
<svg xmlns="http://www.w3.org/2000/svg" xmlns:xlink="http://www.w3.org/1999/xlink" width="600" height="400" viewBox="0 0 2400 1600">
<defs>
  <clipPath id="clip410">
    <rect x="0" y="0" width="2400" height="1600"/>
  </clipPath>
</defs>
<path clip-path="url(#clip410)" d="M0 1600 L2400 1600 L2400 0 L0 0  Z" fill="#ffffff" fill-rule="evenodd" fill-opacity="1"/>
<defs>
  <clipPath id="clip411">
    <rect x="480" y="0" width="1681" height="1600"/>
  </clipPath>
</defs>
<path clip-path="url(#clip410)" d="M276.227 1486.45 L2352.76 1486.45 L2352.76 47.2441 L276.227 47.2441  Z" fill="#ffffff" fill-rule="evenodd" fill-opacity="1"/>
<defs>
  <clipPath id="clip412">
    <rect x="276" y="47" width="2078" height="1440"/>
  </clipPath>
</defs>
<polyline clip-path="url(#clip412)" style="stroke:#000000; stroke-linecap:round; stroke-linejoin:round; stroke-width:2; stroke-opacity:0.1; fill:none" points="630.009,1486.45 630.009,47.2441 "/>
<polyline clip-path="url(#clip412)" style="stroke:#000000; stroke-linecap:round; stroke-linejoin:round; stroke-width:2; stroke-opacity:0.1; fill:none" points="1314.49,1486.45 1314.49,47.2441 "/>
<polyline clip-path="url(#clip412)" style="stroke:#000000; stroke-linecap:round; stroke-linejoin:round; stroke-width:2; stroke-opacity:0.1; fill:none" points="1998.97,1486.45 1998.97,47.2441 "/>
<polyline clip-path="url(#clip410)" style="stroke:#000000; stroke-linecap:round; stroke-linejoin:round; stroke-width:4; stroke-opacity:1; fill:none" points="276.227,1486.45 2352.76,1486.45 "/>
<polyline clip-path="url(#clip410)" style="stroke:#000000; stroke-linecap:round; stroke-linejoin:round; stroke-width:4; stroke-opacity:1; fill:none" points="630.009,1486.45 630.009,1467.55 "/>
<polyline clip-path="url(#clip410)" style="stroke:#000000; stroke-linecap:round; stroke-linejoin:round; stroke-width:4; stroke-opacity:1; fill:none" points="1314.49,1486.45 1314.49,1467.55 "/>
<polyline clip-path="url(#clip410)" style="stroke:#000000; stroke-linecap:round; stroke-linejoin:round; stroke-width:4; stroke-opacity:1; fill:none" points="1998.97,1486.45 1998.97,1467.55 "/>
<path clip-path="url(#clip410)" d="M562.162 1515.42 L562.162 1519.98 Q559.5 1518.71 557.139 1518.08 Q554.778 1517.46 552.579 1517.46 Q548.759 1517.46 546.676 1518.94 Q544.616 1520.42 544.616 1523.15 Q544.616 1525.45 545.982 1526.63 Q547.37 1527.78 551.213 1528.5 L554.037 1529.08 Q559.269 1530.07 561.745 1532.6 Q564.245 1535.1 564.245 1539.31 Q564.245 1544.33 560.866 1546.93 Q557.509 1549.52 551.005 1549.52 Q548.551 1549.52 545.773 1548.96 Q543.019 1548.41 540.056 1547.32 L540.056 1542.51 Q542.903 1544.1 545.634 1544.91 Q548.366 1545.72 551.005 1545.72 Q555.009 1545.72 557.185 1544.15 Q559.361 1542.57 559.361 1539.66 Q559.361 1537.11 557.787 1535.68 Q556.236 1534.24 552.671 1533.52 L549.824 1532.97 Q544.593 1531.93 542.255 1529.7 Q539.917 1527.48 539.917 1523.52 Q539.917 1518.94 543.134 1516.3 Q546.375 1513.66 552.046 1513.66 Q554.477 1513.66 557 1514.1 Q559.523 1514.54 562.162 1515.42 Z" fill="#000000" fill-rule="nonzero" fill-opacity="1" /><path clip-path="url(#clip410)" d="M568.875 1522.92 L573.134 1522.92 L578.458 1543.15 L583.759 1522.92 L588.782 1522.92 L594.106 1543.15 L599.407 1522.92 L603.666 1522.92 L596.884 1548.85 L591.861 1548.85 L586.282 1527.6 L580.68 1548.85 L575.657 1548.85 L568.875 1522.92 Z" fill="#000000" fill-rule="nonzero" fill-opacity="1" /><path clip-path="url(#clip410)" d="M632.301 1534.82 L632.301 1536.9 L612.717 1536.9 Q612.995 1541.3 615.356 1543.62 Q617.74 1545.91 621.977 1545.91 Q624.43 1545.91 626.722 1545.31 Q629.037 1544.7 631.305 1543.5 L631.305 1547.53 Q629.014 1548.5 626.606 1549.01 Q624.199 1549.52 621.722 1549.52 Q615.518 1549.52 611.884 1545.91 Q608.273 1542.3 608.273 1536.14 Q608.273 1529.77 611.699 1526.05 Q615.148 1522.3 620.981 1522.3 Q626.213 1522.3 629.245 1525.68 Q632.301 1529.03 632.301 1534.82 M628.041 1533.57 Q627.995 1530.07 626.074 1527.99 Q624.176 1525.91 621.027 1525.91 Q617.463 1525.91 615.31 1527.92 Q613.18 1529.94 612.856 1533.59 L628.041 1533.57 Z" fill="#000000" fill-rule="nonzero" fill-opacity="1" /><path clip-path="url(#clip410)" d="M656.351 1526.86 L656.351 1512.83 L660.611 1512.83 L660.611 1548.85 L656.351 1548.85 L656.351 1544.96 Q655.009 1547.27 652.949 1548.41 Q650.912 1549.52 648.041 1549.52 Q643.342 1549.52 640.379 1545.77 Q637.439 1542.02 637.439 1535.91 Q637.439 1529.8 640.379 1526.05 Q643.342 1522.3 648.041 1522.3 Q650.912 1522.3 652.949 1523.43 Q655.009 1524.54 656.351 1526.86 M641.838 1535.91 Q641.838 1540.61 643.759 1543.29 Q645.703 1545.95 649.083 1545.95 Q652.463 1545.95 654.407 1543.29 Q656.351 1540.61 656.351 1535.91 Q656.351 1531.21 654.407 1528.55 Q652.463 1525.86 649.083 1525.86 Q645.703 1525.86 643.759 1528.55 Q641.838 1531.21 641.838 1535.91 Z" fill="#000000" fill-rule="nonzero" fill-opacity="1" /><path clip-path="url(#clip410)" d="M691.56 1534.82 L691.56 1536.9 L671.976 1536.9 Q672.254 1541.3 674.615 1543.62 Q676.999 1545.91 681.235 1545.91 Q683.689 1545.91 685.981 1545.31 Q688.296 1544.7 690.564 1543.5 L690.564 1547.53 Q688.272 1548.5 685.865 1549.01 Q683.458 1549.52 680.981 1549.52 Q674.777 1549.52 671.143 1545.91 Q667.532 1542.3 667.532 1536.14 Q667.532 1529.77 670.958 1526.05 Q674.407 1522.3 680.24 1522.3 Q685.472 1522.3 688.504 1525.68 Q691.56 1529.03 691.56 1534.82 M687.3 1533.57 Q687.254 1530.07 685.333 1527.99 Q683.435 1525.91 680.286 1525.91 Q676.722 1525.91 674.569 1527.92 Q672.439 1529.94 672.115 1533.59 L687.3 1533.57 Z" fill="#000000" fill-rule="nonzero" fill-opacity="1" /><path clip-path="url(#clip410)" d="M720.101 1533.2 L720.101 1548.85 L715.842 1548.85 L715.842 1533.34 Q715.842 1529.66 714.407 1527.83 Q712.971 1526 710.101 1526 Q706.652 1526 704.661 1528.2 Q702.671 1530.4 702.671 1534.2 L702.671 1548.85 L698.388 1548.85 L698.388 1522.92 L702.671 1522.92 L702.671 1526.95 Q704.198 1524.61 706.259 1523.45 Q708.342 1522.3 711.05 1522.3 Q715.518 1522.3 717.809 1525.07 Q720.101 1527.83 720.101 1533.2 Z" fill="#000000" fill-rule="nonzero" fill-opacity="1" /><path clip-path="url(#clip410)" d="M1233.14 1543.92 L1233.14 1534.63 L1225.5 1534.63 L1225.5 1530.79 L1237.77 1530.79 L1237.77 1545.63 Q1235.06 1547.55 1231.8 1548.55 Q1228.53 1549.52 1224.83 1549.52 Q1216.73 1549.52 1212.14 1544.8 Q1207.58 1540.05 1207.58 1531.6 Q1207.58 1523.13 1212.14 1518.41 Q1216.73 1513.66 1224.83 1513.66 Q1228.21 1513.66 1231.24 1514.5 Q1234.3 1515.33 1236.86 1516.95 L1236.86 1521.93 Q1234.27 1519.73 1231.36 1518.62 Q1228.44 1517.51 1225.22 1517.51 Q1218.88 1517.51 1215.68 1521.05 Q1212.51 1524.59 1212.51 1531.6 Q1212.51 1538.59 1215.68 1542.13 Q1218.88 1545.68 1225.22 1545.68 Q1227.7 1545.68 1229.64 1545.26 Q1231.59 1544.82 1233.14 1543.92 Z" fill="#000000" fill-rule="nonzero" fill-opacity="1" /><path clip-path="url(#clip410)" d="M1268.3 1534.82 L1268.3 1536.9 L1248.72 1536.9 Q1248.99 1541.3 1251.36 1543.62 Q1253.74 1545.91 1257.98 1545.91 Q1260.43 1545.91 1262.72 1545.31 Q1265.04 1544.7 1267.3 1543.5 L1267.3 1547.53 Q1265.01 1548.5 1262.61 1549.01 Q1260.2 1549.52 1257.72 1549.52 Q1251.52 1549.52 1247.88 1545.91 Q1244.27 1542.3 1244.27 1536.14 Q1244.27 1529.77 1247.7 1526.05 Q1251.15 1522.3 1256.98 1522.3 Q1262.21 1522.3 1265.24 1525.68 Q1268.3 1529.03 1268.3 1534.82 M1264.04 1533.57 Q1263.99 1530.07 1262.07 1527.99 Q1260.17 1525.91 1257.03 1525.91 Q1253.46 1525.91 1251.31 1527.92 Q1249.18 1529.94 1248.86 1533.59 L1264.04 1533.57 Z" fill="#000000" fill-rule="nonzero" fill-opacity="1" /><path clip-path="url(#clip410)" d="M1290.31 1526.9 Q1289.6 1526.49 1288.74 1526.3 Q1287.91 1526.09 1286.89 1526.09 Q1283.28 1526.09 1281.33 1528.45 Q1279.41 1530.79 1279.41 1535.19 L1279.41 1548.85 L1275.13 1548.85 L1275.13 1522.92 L1279.41 1522.92 L1279.41 1526.95 Q1280.75 1524.59 1282.91 1523.45 Q1285.06 1522.3 1288.14 1522.3 Q1288.58 1522.3 1289.11 1522.37 Q1289.64 1522.41 1290.29 1522.53 L1290.31 1526.9 Z" fill="#000000" fill-rule="nonzero" fill-opacity="1" /><path clip-path="url(#clip410)" d="M1314.13 1527.9 Q1315.73 1525.03 1317.95 1523.66 Q1320.17 1522.3 1323.18 1522.3 Q1327.23 1522.3 1329.43 1525.14 Q1331.63 1527.97 1331.63 1533.2 L1331.63 1548.85 L1327.35 1548.85 L1327.35 1533.34 Q1327.35 1529.61 1326.03 1527.81 Q1324.71 1526 1322 1526 Q1318.69 1526 1316.77 1528.2 Q1314.85 1530.4 1314.85 1534.2 L1314.85 1548.85 L1310.57 1548.85 L1310.57 1533.34 Q1310.57 1529.59 1309.25 1527.81 Q1307.93 1526 1305.17 1526 Q1301.91 1526 1299.99 1528.22 Q1298.07 1530.42 1298.07 1534.2 L1298.07 1548.85 L1293.79 1548.85 L1293.79 1522.92 L1298.07 1522.92 L1298.07 1526.95 Q1299.53 1524.57 1301.56 1523.43 Q1303.6 1522.3 1306.4 1522.3 Q1309.23 1522.3 1311.19 1523.73 Q1313.18 1525.17 1314.13 1527.9 Z" fill="#000000" fill-rule="nonzero" fill-opacity="1" /><path clip-path="url(#clip410)" d="M1351.91 1535.82 Q1346.75 1535.82 1344.76 1537 Q1342.77 1538.18 1342.77 1541.02 Q1342.77 1543.29 1344.25 1544.63 Q1345.75 1545.95 1348.32 1545.95 Q1351.86 1545.95 1353.99 1543.45 Q1356.15 1540.93 1356.15 1536.76 L1356.15 1535.82 L1351.91 1535.82 M1360.41 1534.06 L1360.41 1548.85 L1356.15 1548.85 L1356.15 1544.91 Q1354.69 1547.27 1352.51 1548.41 Q1350.34 1549.52 1347.19 1549.52 Q1343.21 1549.52 1340.85 1547.3 Q1338.51 1545.05 1338.51 1541.3 Q1338.51 1536.93 1341.42 1534.7 Q1344.36 1532.48 1350.17 1532.48 L1356.15 1532.48 L1356.15 1532.07 Q1356.15 1529.13 1354.2 1527.53 Q1352.28 1525.91 1348.79 1525.91 Q1346.56 1525.91 1344.46 1526.44 Q1342.35 1526.97 1340.41 1528.04 L1340.41 1524.1 Q1342.74 1523.2 1344.94 1522.76 Q1347.14 1522.3 1349.23 1522.3 Q1354.85 1522.3 1357.63 1525.21 Q1360.41 1528.13 1360.41 1534.06 Z" fill="#000000" fill-rule="nonzero" fill-opacity="1" /><path clip-path="url(#clip410)" d="M1390.73 1533.2 L1390.73 1548.85 L1386.47 1548.85 L1386.47 1533.34 Q1386.47 1529.66 1385.04 1527.83 Q1383.6 1526 1380.73 1526 Q1377.28 1526 1375.29 1528.2 Q1373.3 1530.4 1373.3 1534.2 L1373.3 1548.85 L1369.02 1548.85 L1369.02 1522.92 L1373.3 1522.92 L1373.3 1526.95 Q1374.83 1524.61 1376.89 1523.45 Q1378.97 1522.3 1381.68 1522.3 Q1386.15 1522.3 1388.44 1525.07 Q1390.73 1527.83 1390.73 1533.2 Z" fill="#000000" fill-rule="nonzero" fill-opacity="1" /><path clip-path="url(#clip410)" d="M1410.01 1551.26 Q1408.21 1555.88 1406.49 1557.3 Q1404.78 1558.71 1401.91 1558.71 L1398.51 1558.71 L1398.51 1555.14 L1401.01 1555.14 Q1402.77 1555.14 1403.74 1554.31 Q1404.71 1553.48 1405.89 1550.38 L1406.66 1548.43 L1396.17 1522.92 L1400.68 1522.92 L1408.79 1543.2 L1416.89 1522.92 L1421.4 1522.92 L1410.01 1551.26 Z" fill="#000000" fill-rule="nonzero" fill-opacity="1" /><path clip-path="url(#clip410)" d="M1897.1 1518.13 L1897.1 1545.01 L1902.75 1545.01 Q1909.9 1545.01 1913.21 1541.76 Q1916.54 1538.52 1916.54 1531.53 Q1916.54 1524.59 1913.21 1521.37 Q1909.9 1518.13 1902.75 1518.13 L1897.1 1518.13 M1892.42 1514.29 L1902.03 1514.29 Q1912.08 1514.29 1916.78 1518.48 Q1921.47 1522.64 1921.47 1531.53 Q1921.47 1540.47 1916.75 1544.66 Q1912.03 1548.85 1902.03 1548.85 L1892.42 1548.85 L1892.42 1514.29 Z" fill="#000000" fill-rule="nonzero" fill-opacity="1" /><path clip-path="url(#clip410)" d="M1950.92 1534.82 L1950.92 1536.9 L1931.34 1536.9 Q1931.61 1541.3 1933.97 1543.62 Q1936.36 1545.91 1940.59 1545.91 Q1943.05 1545.91 1945.34 1545.31 Q1947.66 1544.7 1949.92 1543.5 L1949.92 1547.53 Q1947.63 1548.5 1945.22 1549.01 Q1942.82 1549.52 1940.34 1549.52 Q1934.14 1549.52 1930.5 1545.91 Q1926.89 1542.3 1926.89 1536.14 Q1926.89 1529.77 1930.32 1526.05 Q1933.77 1522.3 1939.6 1522.3 Q1944.83 1522.3 1947.86 1525.68 Q1950.92 1529.03 1950.92 1534.82 M1946.66 1533.57 Q1946.61 1530.07 1944.69 1527.99 Q1942.79 1525.91 1939.65 1525.91 Q1936.08 1525.91 1933.93 1527.92 Q1931.8 1529.94 1931.47 1533.59 L1946.66 1533.57 Z" fill="#000000" fill-rule="nonzero" fill-opacity="1" /><path clip-path="url(#clip410)" d="M1979.46 1533.2 L1979.46 1548.85 L1975.2 1548.85 L1975.2 1533.34 Q1975.2 1529.66 1973.77 1527.83 Q1972.33 1526 1969.46 1526 Q1966.01 1526 1964.02 1528.2 Q1962.03 1530.4 1962.03 1534.2 L1962.03 1548.85 L1957.75 1548.85 L1957.75 1522.92 L1962.03 1522.92 L1962.03 1526.95 Q1963.56 1524.61 1965.62 1523.45 Q1967.7 1522.3 1970.41 1522.3 Q1974.88 1522.3 1977.17 1525.07 Q1979.46 1527.83 1979.46 1533.2 Z" fill="#000000" fill-rule="nonzero" fill-opacity="1" /><path clip-path="url(#clip410)" d="M2008.14 1527.9 Q2009.74 1525.03 2011.96 1523.66 Q2014.18 1522.3 2017.19 1522.3 Q2021.24 1522.3 2023.44 1525.14 Q2025.64 1527.97 2025.64 1533.2 L2025.64 1548.85 L2021.36 1548.85 L2021.36 1533.34 Q2021.36 1529.61 2020.04 1527.81 Q2018.72 1526 2016.01 1526 Q2012.7 1526 2010.78 1528.2 Q2008.86 1530.4 2008.86 1534.2 L2008.86 1548.85 L2004.58 1548.85 L2004.58 1533.34 Q2004.58 1529.59 2003.26 1527.81 Q2001.94 1526 1999.18 1526 Q1995.92 1526 1994 1528.22 Q1992.08 1530.42 1992.08 1534.2 L1992.08 1548.85 L1987.79 1548.85 L1987.79 1522.92 L1992.08 1522.92 L1992.08 1526.95 Q1993.53 1524.57 1995.57 1523.43 Q1997.61 1522.3 2000.41 1522.3 Q2003.23 1522.3 2005.2 1523.73 Q2007.19 1525.17 2008.14 1527.9 Z" fill="#000000" fill-rule="nonzero" fill-opacity="1" /><path clip-path="url(#clip410)" d="M2045.92 1535.82 Q2040.76 1535.82 2038.77 1537 Q2036.77 1538.18 2036.77 1541.02 Q2036.77 1543.29 2038.26 1544.63 Q2039.76 1545.95 2042.33 1545.95 Q2045.87 1545.95 2048 1543.45 Q2050.15 1540.93 2050.15 1536.76 L2050.15 1535.82 L2045.92 1535.82 M2054.41 1534.06 L2054.41 1548.85 L2050.15 1548.85 L2050.15 1544.91 Q2048.7 1547.27 2046.52 1548.41 Q2044.34 1549.52 2041.2 1549.52 Q2037.21 1549.52 2034.85 1547.3 Q2032.52 1545.05 2032.52 1541.3 Q2032.52 1536.93 2035.43 1534.7 Q2038.37 1532.48 2044.18 1532.48 L2050.15 1532.48 L2050.15 1532.07 Q2050.15 1529.13 2048.21 1527.53 Q2046.29 1525.91 2042.79 1525.91 Q2040.57 1525.91 2038.46 1526.44 Q2036.36 1526.97 2034.41 1528.04 L2034.41 1524.1 Q2036.75 1523.2 2038.95 1522.76 Q2041.15 1522.3 2043.23 1522.3 Q2048.86 1522.3 2051.64 1525.21 Q2054.41 1528.13 2054.41 1534.06 Z" fill="#000000" fill-rule="nonzero" fill-opacity="1" /><path clip-path="url(#clip410)" d="M2078.21 1526.9 Q2077.49 1526.49 2076.64 1526.3 Q2075.8 1526.09 2074.78 1526.09 Q2071.17 1526.09 2069.23 1528.45 Q2067.31 1530.79 2067.31 1535.19 L2067.31 1548.85 L2063.02 1548.85 L2063.02 1522.92 L2067.31 1522.92 L2067.31 1526.95 Q2068.65 1524.59 2070.8 1523.45 Q2072.96 1522.3 2076.03 1522.3 Q2076.47 1522.3 2077.01 1522.37 Q2077.54 1522.41 2078.19 1522.53 L2078.21 1526.9 Z" fill="#000000" fill-rule="nonzero" fill-opacity="1" /><path clip-path="url(#clip410)" d="M2082.52 1512.83 L2086.8 1512.83 L2086.8 1534.1 L2099.51 1522.92 L2104.95 1522.92 L2091.2 1535.05 L2105.52 1548.85 L2099.97 1548.85 L2086.8 1536.19 L2086.8 1548.85 L2082.52 1548.85 L2082.52 1512.83 Z" fill="#000000" fill-rule="nonzero" fill-opacity="1" /><polyline clip-path="url(#clip412)" style="stroke:#000000; stroke-linecap:round; stroke-linejoin:round; stroke-width:2; stroke-opacity:0.1; fill:none" points="276.227,1445.72 2352.76,1445.72 "/>
<polyline clip-path="url(#clip412)" style="stroke:#000000; stroke-linecap:round; stroke-linejoin:round; stroke-width:2; stroke-opacity:0.1; fill:none" points="276.227,1206.11 2352.76,1206.11 "/>
<polyline clip-path="url(#clip412)" style="stroke:#000000; stroke-linecap:round; stroke-linejoin:round; stroke-width:2; stroke-opacity:0.1; fill:none" points="276.227,966.501 2352.76,966.501 "/>
<polyline clip-path="url(#clip412)" style="stroke:#000000; stroke-linecap:round; stroke-linejoin:round; stroke-width:2; stroke-opacity:0.1; fill:none" points="276.227,726.893 2352.76,726.893 "/>
<polyline clip-path="url(#clip412)" style="stroke:#000000; stroke-linecap:round; stroke-linejoin:round; stroke-width:2; stroke-opacity:0.1; fill:none" points="276.227,487.286 2352.76,487.286 "/>
<polyline clip-path="url(#clip412)" style="stroke:#000000; stroke-linecap:round; stroke-linejoin:round; stroke-width:2; stroke-opacity:0.1; fill:none" points="276.227,247.678 2352.76,247.678 "/>
<polyline clip-path="url(#clip410)" style="stroke:#000000; stroke-linecap:round; stroke-linejoin:round; stroke-width:4; stroke-opacity:1; fill:none" points="276.227,1486.45 276.227,47.2441 "/>
<polyline clip-path="url(#clip410)" style="stroke:#000000; stroke-linecap:round; stroke-linejoin:round; stroke-width:4; stroke-opacity:1; fill:none" points="276.227,1445.72 295.125,1445.72 "/>
<polyline clip-path="url(#clip410)" style="stroke:#000000; stroke-linecap:round; stroke-linejoin:round; stroke-width:4; stroke-opacity:1; fill:none" points="276.227,1206.11 295.125,1206.11 "/>
<polyline clip-path="url(#clip410)" style="stroke:#000000; stroke-linecap:round; stroke-linejoin:round; stroke-width:4; stroke-opacity:1; fill:none" points="276.227,966.501 295.125,966.501 "/>
<polyline clip-path="url(#clip410)" style="stroke:#000000; stroke-linecap:round; stroke-linejoin:round; stroke-width:4; stroke-opacity:1; fill:none" points="276.227,726.893 295.125,726.893 "/>
<polyline clip-path="url(#clip410)" style="stroke:#000000; stroke-linecap:round; stroke-linejoin:round; stroke-width:4; stroke-opacity:1; fill:none" points="276.227,487.286 295.125,487.286 "/>
<polyline clip-path="url(#clip410)" style="stroke:#000000; stroke-linecap:round; stroke-linejoin:round; stroke-width:4; stroke-opacity:1; fill:none" points="276.227,247.678 295.125,247.678 "/>
<path clip-path="url(#clip410)" d="M228.283 1431.51 Q224.672 1431.51 222.843 1435.08 Q221.038 1438.62 221.038 1445.75 Q221.038 1452.86 222.843 1456.42 Q224.672 1459.96 228.283 1459.96 Q231.917 1459.96 233.723 1456.42 Q235.551 1452.86 235.551 1445.75 Q235.551 1438.62 233.723 1435.08 Q231.917 1431.51 228.283 1431.51 M228.283 1427.81 Q234.093 1427.81 237.149 1432.42 Q240.227 1437 240.227 1445.75 Q240.227 1454.48 237.149 1459.08 Q234.093 1463.67 228.283 1463.67 Q222.473 1463.67 219.394 1459.08 Q216.338 1454.48 216.338 1445.75 Q216.338 1437 219.394 1432.42 Q222.473 1427.81 228.283 1427.81 Z" fill="#000000" fill-rule="nonzero" fill-opacity="1" /><path clip-path="url(#clip410)" d="M54.5569 1225.9 L62.1958 1225.9 L62.1958 1199.54 L53.8856 1201.2 L53.8856 1196.94 L62.1495 1195.28 L66.8254 1195.28 L66.8254 1225.9 L74.4642 1225.9 L74.4642 1229.84 L54.5569 1229.84 L54.5569 1225.9 Z" fill="#000000" fill-rule="nonzero" fill-opacity="1" /><path clip-path="url(#clip410)" d="M83.9086 1223.96 L88.7928 1223.96 L88.7928 1229.84 L83.9086 1229.84 L83.9086 1223.96 Z" fill="#000000" fill-rule="nonzero" fill-opacity="1" /><path clip-path="url(#clip410)" d="M108.978 1198.35 Q105.367 1198.35 103.538 1201.92 Q101.733 1205.46 101.733 1212.59 Q101.733 1219.7 103.538 1223.26 Q105.367 1226.8 108.978 1226.8 Q112.612 1226.8 114.418 1223.26 Q116.246 1219.7 116.246 1212.59 Q116.246 1205.46 114.418 1201.92 Q112.612 1198.35 108.978 1198.35 M108.978 1194.65 Q114.788 1194.65 117.844 1199.26 Q120.922 1203.84 120.922 1212.59 Q120.922 1221.32 117.844 1225.92 Q114.788 1230.51 108.978 1230.51 Q103.168 1230.51 100.089 1225.92 Q97.0335 1221.32 97.0335 1212.59 Q97.0335 1203.84 100.089 1199.26 Q103.168 1194.65 108.978 1194.65 Z" fill="#000000" fill-rule="nonzero" fill-opacity="1" /><path clip-path="url(#clip410)" d="M157.311 1204.37 L146.732 1215 L157.311 1225.58 L154.556 1228.38 L143.931 1217.75 L133.306 1228.38 L130.575 1225.58 L141.131 1215 L130.575 1204.37 L133.306 1201.57 L143.931 1212.2 L154.556 1201.57 L157.311 1204.37 Z" fill="#000000" fill-rule="nonzero" fill-opacity="1" /><path clip-path="url(#clip410)" d="M169.672 1225.9 L177.311 1225.9 L177.311 1199.54 L169.001 1201.2 L169.001 1196.94 L177.265 1195.28 L181.94 1195.28 L181.94 1225.9 L189.579 1225.9 L189.579 1229.84 L169.672 1229.84 L169.672 1225.9 Z" fill="#000000" fill-rule="nonzero" fill-opacity="1" /><path clip-path="url(#clip410)" d="M209.024 1198.35 Q205.413 1198.35 203.584 1201.92 Q201.778 1205.46 201.778 1212.59 Q201.778 1219.7 203.584 1223.26 Q205.413 1226.8 209.024 1226.8 Q212.658 1226.8 214.463 1223.26 Q216.292 1219.7 216.292 1212.59 Q216.292 1205.46 214.463 1201.92 Q212.658 1198.35 209.024 1198.35 M209.024 1194.65 Q214.834 1194.65 217.889 1199.26 Q220.968 1203.84 220.968 1212.59 Q220.968 1221.32 217.889 1225.92 Q214.834 1230.51 209.024 1230.51 Q203.214 1230.51 200.135 1225.92 Q197.079 1221.32 197.079 1212.59 Q197.079 1203.84 200.135 1199.26 Q203.214 1194.65 209.024 1194.65 Z" fill="#000000" fill-rule="nonzero" fill-opacity="1" /><path clip-path="url(#clip410)" d="M230.598 1189.09 Q227.889 1189.09 226.328 1190.54 Q224.786 1191.99 224.786 1194.53 Q224.786 1197.07 226.328 1198.51 Q227.889 1199.96 230.598 1199.96 Q233.306 1199.96 234.867 1198.51 Q236.428 1197.05 236.428 1194.53 Q236.428 1191.99 234.867 1190.54 Q233.325 1189.09 230.598 1189.09 M226.798 1187.47 Q224.353 1186.87 222.98 1185.2 Q221.626 1183.52 221.626 1181.12 Q221.626 1177.75 224.015 1175.79 Q226.422 1173.84 230.598 1173.84 Q234.792 1173.84 237.18 1175.79 Q239.569 1177.75 239.569 1181.12 Q239.569 1183.52 238.196 1185.2 Q236.842 1186.87 234.416 1187.47 Q237.162 1188.11 238.685 1189.97 Q240.227 1191.84 240.227 1194.53 Q240.227 1198.61 237.726 1200.79 Q235.243 1202.97 230.598 1202.97 Q225.952 1202.97 223.451 1200.79 Q220.968 1198.61 220.968 1194.53 Q220.968 1191.84 222.51 1189.97 Q224.053 1188.11 226.798 1187.47 M225.407 1181.47 Q225.407 1183.66 226.761 1184.88 Q228.134 1186.1 230.598 1186.1 Q233.043 1186.1 234.416 1184.88 Q235.807 1183.66 235.807 1181.47 Q235.807 1179.29 234.416 1178.07 Q233.043 1176.85 230.598 1176.85 Q228.134 1176.85 226.761 1178.07 Q225.407 1179.29 225.407 1181.47 Z" fill="#000000" fill-rule="nonzero" fill-opacity="1" /><path clip-path="url(#clip410)" d="M57.7745 986.293 L74.0939 986.293 L74.0939 990.228 L52.1495 990.228 L52.1495 986.293 Q54.8115 983.538 59.3949 978.909 Q64.0013 974.256 65.1819 972.914 Q67.4272 970.39 68.3068 968.654 Q69.2096 966.895 69.2096 965.205 Q69.2096 962.451 67.2652 960.715 Q65.3439 958.978 62.2421 958.978 Q60.043 958.978 57.5893 959.742 Q55.1588 960.506 52.381 962.057 L52.381 957.335 Q55.2051 956.201 57.6588 955.622 Q60.1124 955.043 62.1495 955.043 Q67.5198 955.043 70.7142 957.728 Q73.9087 960.414 73.9087 964.904 Q73.9087 967.034 73.0985 968.955 Q72.3115 970.853 70.205 973.446 Q69.6263 974.117 66.5245 977.335 Q63.4226 980.529 57.7745 986.293 Z" fill="#000000" fill-rule="nonzero" fill-opacity="1" /><path clip-path="url(#clip410)" d="M83.9086 984.349 L88.7928 984.349 L88.7928 990.228 L83.9086 990.228 L83.9086 984.349 Z" fill="#000000" fill-rule="nonzero" fill-opacity="1" /><path clip-path="url(#clip410)" d="M108.978 958.747 Q105.367 958.747 103.538 962.312 Q101.733 965.853 101.733 972.983 Q101.733 980.089 103.538 983.654 Q105.367 987.196 108.978 987.196 Q112.612 987.196 114.418 983.654 Q116.246 980.089 116.246 972.983 Q116.246 965.853 114.418 962.312 Q112.612 958.747 108.978 958.747 M108.978 955.043 Q114.788 955.043 117.844 959.65 Q120.922 964.233 120.922 972.983 Q120.922 981.71 117.844 986.316 Q114.788 990.9 108.978 990.9 Q103.168 990.9 100.089 986.316 Q97.0335 981.71 97.0335 972.983 Q97.0335 964.233 100.089 959.65 Q103.168 955.043 108.978 955.043 Z" fill="#000000" fill-rule="nonzero" fill-opacity="1" /><path clip-path="url(#clip410)" d="M157.311 964.765 L146.732 975.39 L157.311 985.969 L154.556 988.77 L143.931 978.145 L133.306 988.77 L130.575 985.969 L141.131 975.39 L130.575 964.765 L133.306 961.965 L143.931 972.589 L154.556 961.965 L157.311 964.765 Z" fill="#000000" fill-rule="nonzero" fill-opacity="1" /><path clip-path="url(#clip410)" d="M169.672 986.293 L177.311 986.293 L177.311 959.928 L169.001 961.594 L169.001 957.335 L177.265 955.668 L181.94 955.668 L181.94 986.293 L189.579 986.293 L189.579 990.228 L169.672 990.228 L169.672 986.293 Z" fill="#000000" fill-rule="nonzero" fill-opacity="1" /><path clip-path="url(#clip410)" d="M209.024 958.747 Q205.413 958.747 203.584 962.312 Q201.778 965.853 201.778 972.983 Q201.778 980.089 203.584 983.654 Q205.413 987.196 209.024 987.196 Q212.658 987.196 214.463 983.654 Q216.292 980.089 216.292 972.983 Q216.292 965.853 214.463 962.312 Q212.658 958.747 209.024 958.747 M209.024 955.043 Q214.834 955.043 217.889 959.65 Q220.968 964.233 220.968 972.983 Q220.968 981.71 217.889 986.316 Q214.834 990.9 209.024 990.9 Q203.214 990.9 200.135 986.316 Q197.079 981.71 197.079 972.983 Q197.079 964.233 200.135 959.65 Q203.214 955.043 209.024 955.043 Z" fill="#000000" fill-rule="nonzero" fill-opacity="1" /><path clip-path="url(#clip410)" d="M230.598 949.483 Q227.889 949.483 226.328 950.931 Q224.786 952.38 224.786 954.919 Q224.786 957.458 226.328 958.906 Q227.889 960.354 230.598 960.354 Q233.306 960.354 234.867 958.906 Q236.428 957.439 236.428 954.919 Q236.428 952.38 234.867 950.931 Q233.325 949.483 230.598 949.483 M226.798 947.866 Q224.353 947.264 222.98 945.59 Q221.626 943.916 221.626 941.509 Q221.626 938.142 224.015 936.186 Q226.422 934.23 230.598 934.23 Q234.792 934.23 237.18 936.186 Q239.569 938.142 239.569 941.509 Q239.569 943.916 238.196 945.59 Q236.842 947.264 234.416 947.866 Q237.162 948.505 238.685 950.367 Q240.227 952.229 240.227 954.919 Q240.227 959 237.726 961.182 Q235.243 963.363 230.598 963.363 Q225.952 963.363 223.451 961.182 Q220.968 959 220.968 954.919 Q220.968 952.229 222.51 950.367 Q224.053 948.505 226.798 947.866 M225.407 941.866 Q225.407 944.048 226.761 945.27 Q228.134 946.493 230.598 946.493 Q233.043 946.493 234.416 945.27 Q235.807 944.048 235.807 941.866 Q235.807 939.684 234.416 938.462 Q233.043 937.239 230.598 937.239 Q228.134 937.239 226.761 938.462 Q225.407 939.684 225.407 941.866 Z" fill="#000000" fill-rule="nonzero" fill-opacity="1" /><path clip-path="url(#clip410)" d="M67.9133 731.987 Q71.2698 732.704 73.1448 734.973 Q75.0429 737.241 75.0429 740.575 Q75.0429 745.69 71.5244 748.491 Q68.0059 751.292 61.5245 751.292 Q59.3486 751.292 57.0338 750.852 Q54.7421 750.436 52.2884 749.579 L52.2884 745.065 Q54.2328 746.199 56.5477 746.778 Q58.8625 747.357 61.3856 747.357 Q65.7837 747.357 68.0754 745.621 Q70.3902 743.885 70.3902 740.575 Q70.3902 737.519 68.2374 735.806 Q66.1078 734.07 62.2884 734.07 L58.2606 734.07 L58.2606 730.227 L62.4735 730.227 Q65.9226 730.227 67.7513 728.862 Q69.58 727.473 69.58 724.88 Q69.58 722.218 67.6819 720.806 Q65.8069 719.371 62.2884 719.371 Q60.3671 719.371 58.168 719.788 Q55.969 720.204 53.3301 721.084 L53.3301 716.917 Q55.9921 716.176 58.3069 715.806 Q60.6449 715.436 62.705 715.436 Q68.0291 715.436 71.1309 717.866 Q74.2327 720.274 74.2327 724.394 Q74.2327 727.264 72.5892 729.255 Q70.9457 731.223 67.9133 731.987 Z" fill="#000000" fill-rule="nonzero" fill-opacity="1" /><path clip-path="url(#clip410)" d="M83.9086 744.741 L88.7928 744.741 L88.7928 750.621 L83.9086 750.621 L83.9086 744.741 Z" fill="#000000" fill-rule="nonzero" fill-opacity="1" /><path clip-path="url(#clip410)" d="M108.978 719.139 Q105.367 719.139 103.538 722.704 Q101.733 726.246 101.733 733.375 Q101.733 740.482 103.538 744.047 Q105.367 747.588 108.978 747.588 Q112.612 747.588 114.418 744.047 Q116.246 740.482 116.246 733.375 Q116.246 726.246 114.418 722.704 Q112.612 719.139 108.978 719.139 M108.978 715.436 Q114.788 715.436 117.844 720.042 Q120.922 724.626 120.922 733.375 Q120.922 742.102 117.844 746.709 Q114.788 751.292 108.978 751.292 Q103.168 751.292 100.089 746.709 Q97.0335 742.102 97.0335 733.375 Q97.0335 724.626 100.089 720.042 Q103.168 715.436 108.978 715.436 Z" fill="#000000" fill-rule="nonzero" fill-opacity="1" /><path clip-path="url(#clip410)" d="M157.311 725.158 L146.732 735.783 L157.311 746.362 L154.556 749.162 L143.931 738.537 L133.306 749.162 L130.575 746.362 L141.131 735.783 L130.575 725.158 L133.306 722.357 L143.931 732.982 L154.556 722.357 L157.311 725.158 Z" fill="#000000" fill-rule="nonzero" fill-opacity="1" /><path clip-path="url(#clip410)" d="M169.672 746.686 L177.311 746.686 L177.311 720.32 L169.001 721.987 L169.001 717.727 L177.265 716.061 L181.94 716.061 L181.94 746.686 L189.579 746.686 L189.579 750.621 L169.672 750.621 L169.672 746.686 Z" fill="#000000" fill-rule="nonzero" fill-opacity="1" /><path clip-path="url(#clip410)" d="M209.024 719.139 Q205.413 719.139 203.584 722.704 Q201.778 726.246 201.778 733.375 Q201.778 740.482 203.584 744.047 Q205.413 747.588 209.024 747.588 Q212.658 747.588 214.463 744.047 Q216.292 740.482 216.292 733.375 Q216.292 726.246 214.463 722.704 Q212.658 719.139 209.024 719.139 M209.024 715.436 Q214.834 715.436 217.889 720.042 Q220.968 724.626 220.968 733.375 Q220.968 742.102 217.889 746.709 Q214.834 751.292 209.024 751.292 Q203.214 751.292 200.135 746.709 Q197.079 742.102 197.079 733.375 Q197.079 724.626 200.135 720.042 Q203.214 715.436 209.024 715.436 Z" fill="#000000" fill-rule="nonzero" fill-opacity="1" /><path clip-path="url(#clip410)" d="M230.598 709.876 Q227.889 709.876 226.328 711.324 Q224.786 712.772 224.786 715.311 Q224.786 717.85 226.328 719.298 Q227.889 720.747 230.598 720.747 Q233.306 720.747 234.867 719.298 Q236.428 717.831 236.428 715.311 Q236.428 712.772 234.867 711.324 Q233.325 709.876 230.598 709.876 M226.798 708.258 Q224.353 707.656 222.98 705.982 Q221.626 704.309 221.626 701.901 Q221.626 698.535 224.015 696.579 Q226.422 694.623 230.598 694.623 Q234.792 694.623 237.18 696.579 Q239.569 698.535 239.569 701.901 Q239.569 704.309 238.196 705.982 Q236.842 707.656 234.416 708.258 Q237.162 708.898 238.685 710.76 Q240.227 712.622 240.227 715.311 Q240.227 719.392 237.726 721.574 Q235.243 723.756 230.598 723.756 Q225.952 723.756 223.451 721.574 Q220.968 719.392 220.968 715.311 Q220.968 712.622 222.51 710.76 Q224.053 708.898 226.798 708.258 M225.407 702.259 Q225.407 704.44 226.761 705.663 Q228.134 706.885 230.598 706.885 Q233.043 706.885 234.416 705.663 Q235.807 704.44 235.807 702.259 Q235.807 700.077 234.416 698.854 Q233.043 697.632 230.598 697.632 Q228.134 697.632 226.761 698.854 Q225.407 700.077 225.407 702.259 Z" fill="#000000" fill-rule="nonzero" fill-opacity="1" /><path clip-path="url(#clip410)" d="M66.5939 480.527 L54.7884 498.976 L66.5939 498.976 L66.5939 480.527 M65.367 476.453 L71.2466 476.453 L71.2466 498.976 L76.1772 498.976 L76.1772 502.865 L71.2466 502.865 L71.2466 511.013 L66.5939 511.013 L66.5939 502.865 L50.9921 502.865 L50.9921 498.351 L65.367 476.453 Z" fill="#000000" fill-rule="nonzero" fill-opacity="1" /><path clip-path="url(#clip410)" d="M83.9086 505.134 L88.7928 505.134 L88.7928 511.013 L83.9086 511.013 L83.9086 505.134 Z" fill="#000000" fill-rule="nonzero" fill-opacity="1" /><path clip-path="url(#clip410)" d="M108.978 479.532 Q105.367 479.532 103.538 483.097 Q101.733 486.638 101.733 493.768 Q101.733 500.874 103.538 504.439 Q105.367 507.981 108.978 507.981 Q112.612 507.981 114.418 504.439 Q116.246 500.874 116.246 493.768 Q116.246 486.638 114.418 483.097 Q112.612 479.532 108.978 479.532 M108.978 475.828 Q114.788 475.828 117.844 480.435 Q120.922 485.018 120.922 493.768 Q120.922 502.495 117.844 507.101 Q114.788 511.685 108.978 511.685 Q103.168 511.685 100.089 507.101 Q97.0335 502.495 97.0335 493.768 Q97.0335 485.018 100.089 480.435 Q103.168 475.828 108.978 475.828 Z" fill="#000000" fill-rule="nonzero" fill-opacity="1" /><path clip-path="url(#clip410)" d="M157.311 485.55 L146.732 496.175 L157.311 506.754 L154.556 509.555 L143.931 498.93 L133.306 509.555 L130.575 506.754 L141.131 496.175 L130.575 485.55 L133.306 482.75 L143.931 493.374 L154.556 482.75 L157.311 485.55 Z" fill="#000000" fill-rule="nonzero" fill-opacity="1" /><path clip-path="url(#clip410)" d="M169.672 507.078 L177.311 507.078 L177.311 480.712 L169.001 482.379 L169.001 478.12 L177.265 476.453 L181.94 476.453 L181.94 507.078 L189.579 507.078 L189.579 511.013 L169.672 511.013 L169.672 507.078 Z" fill="#000000" fill-rule="nonzero" fill-opacity="1" /><path clip-path="url(#clip410)" d="M209.024 479.532 Q205.413 479.532 203.584 483.097 Q201.778 486.638 201.778 493.768 Q201.778 500.874 203.584 504.439 Q205.413 507.981 209.024 507.981 Q212.658 507.981 214.463 504.439 Q216.292 500.874 216.292 493.768 Q216.292 486.638 214.463 483.097 Q212.658 479.532 209.024 479.532 M209.024 475.828 Q214.834 475.828 217.889 480.435 Q220.968 485.018 220.968 493.768 Q220.968 502.495 217.889 507.101 Q214.834 511.685 209.024 511.685 Q203.214 511.685 200.135 507.101 Q197.079 502.495 197.079 493.768 Q197.079 485.018 200.135 480.435 Q203.214 475.828 209.024 475.828 Z" fill="#000000" fill-rule="nonzero" fill-opacity="1" /><path clip-path="url(#clip410)" d="M230.598 470.268 Q227.889 470.268 226.328 471.716 Q224.786 473.165 224.786 475.704 Q224.786 478.243 226.328 479.691 Q227.889 481.139 230.598 481.139 Q233.306 481.139 234.867 479.691 Q236.428 478.224 236.428 475.704 Q236.428 473.165 234.867 471.716 Q233.325 470.268 230.598 470.268 M226.798 468.651 Q224.353 468.049 222.98 466.375 Q221.626 464.701 221.626 462.294 Q221.626 458.927 224.015 456.971 Q226.422 455.015 230.598 455.015 Q234.792 455.015 237.18 456.971 Q239.569 458.927 239.569 462.294 Q239.569 464.701 238.196 466.375 Q236.842 468.049 234.416 468.651 Q237.162 469.29 238.685 471.152 Q240.227 473.014 240.227 475.704 Q240.227 479.785 237.726 481.967 Q235.243 484.148 230.598 484.148 Q225.952 484.148 223.451 481.967 Q220.968 479.785 220.968 475.704 Q220.968 473.014 222.51 471.152 Q224.053 469.29 226.798 468.651 M225.407 462.651 Q225.407 464.833 226.761 466.055 Q228.134 467.278 230.598 467.278 Q233.043 467.278 234.416 466.055 Q235.807 464.833 235.807 462.651 Q235.807 460.469 234.416 459.247 Q233.043 458.024 230.598 458.024 Q228.134 458.024 226.761 459.247 Q225.407 460.469 225.407 462.651 Z" fill="#000000" fill-rule="nonzero" fill-opacity="1" /><path clip-path="url(#clip410)" d="M53.793 236.846 L72.1494 236.846 L72.1494 240.781 L58.0754 240.781 L58.0754 249.253 Q59.0939 248.906 60.1124 248.744 Q61.131 248.559 62.1495 248.559 Q67.9365 248.559 71.3161 251.73 Q74.6957 254.901 74.6957 260.318 Q74.6957 265.897 71.2235 268.998 Q67.7513 272.077 61.4319 272.077 Q59.256 272.077 56.9875 271.707 Q54.7421 271.336 52.3347 270.596 L52.3347 265.897 Q54.418 267.031 56.6402 267.586 Q58.8625 268.142 61.3393 268.142 Q65.3439 268.142 67.6819 266.035 Q70.0198 263.929 70.0198 260.318 Q70.0198 256.707 67.6819 254.6 Q65.3439 252.494 61.3393 252.494 Q59.4643 252.494 57.5893 252.91 Q55.7375 253.327 53.793 254.207 L53.793 236.846 Z" fill="#000000" fill-rule="nonzero" fill-opacity="1" /><path clip-path="url(#clip410)" d="M83.9086 265.526 L88.7928 265.526 L88.7928 271.406 L83.9086 271.406 L83.9086 265.526 Z" fill="#000000" fill-rule="nonzero" fill-opacity="1" /><path clip-path="url(#clip410)" d="M108.978 239.924 Q105.367 239.924 103.538 243.489 Q101.733 247.031 101.733 254.16 Q101.733 261.267 103.538 264.832 Q105.367 268.373 108.978 268.373 Q112.612 268.373 114.418 264.832 Q116.246 261.267 116.246 254.16 Q116.246 247.031 114.418 243.489 Q112.612 239.924 108.978 239.924 M108.978 236.221 Q114.788 236.221 117.844 240.827 Q120.922 245.411 120.922 254.16 Q120.922 262.887 117.844 267.494 Q114.788 272.077 108.978 272.077 Q103.168 272.077 100.089 267.494 Q97.0335 262.887 97.0335 254.16 Q97.0335 245.411 100.089 240.827 Q103.168 236.221 108.978 236.221 Z" fill="#000000" fill-rule="nonzero" fill-opacity="1" /><path clip-path="url(#clip410)" d="M157.311 245.943 L146.732 256.568 L157.311 267.146 L154.556 269.947 L143.931 259.322 L133.306 269.947 L130.575 267.146 L141.131 256.568 L130.575 245.943 L133.306 243.142 L143.931 253.767 L154.556 243.142 L157.311 245.943 Z" fill="#000000" fill-rule="nonzero" fill-opacity="1" /><path clip-path="url(#clip410)" d="M169.672 267.471 L177.311 267.471 L177.311 241.105 L169.001 242.772 L169.001 238.512 L177.265 236.846 L181.94 236.846 L181.94 267.471 L189.579 267.471 L189.579 271.406 L169.672 271.406 L169.672 267.471 Z" fill="#000000" fill-rule="nonzero" fill-opacity="1" /><path clip-path="url(#clip410)" d="M209.024 239.924 Q205.413 239.924 203.584 243.489 Q201.778 247.031 201.778 254.16 Q201.778 261.267 203.584 264.832 Q205.413 268.373 209.024 268.373 Q212.658 268.373 214.463 264.832 Q216.292 261.267 216.292 254.16 Q216.292 247.031 214.463 243.489 Q212.658 239.924 209.024 239.924 M209.024 236.221 Q214.834 236.221 217.889 240.827 Q220.968 245.411 220.968 254.16 Q220.968 262.887 217.889 267.494 Q214.834 272.077 209.024 272.077 Q203.214 272.077 200.135 267.494 Q197.079 262.887 197.079 254.16 Q197.079 245.411 200.135 240.827 Q203.214 236.221 209.024 236.221 Z" fill="#000000" fill-rule="nonzero" fill-opacity="1" /><path clip-path="url(#clip410)" d="M230.598 230.661 Q227.889 230.661 226.328 232.109 Q224.786 233.557 224.786 236.096 Q224.786 238.635 226.328 240.083 Q227.889 241.532 230.598 241.532 Q233.306 241.532 234.867 240.083 Q236.428 238.616 236.428 236.096 Q236.428 233.557 234.867 232.109 Q233.325 230.661 230.598 230.661 M226.798 229.043 Q224.353 228.441 222.98 226.767 Q221.626 225.094 221.626 222.686 Q221.626 219.32 224.015 217.364 Q226.422 215.408 230.598 215.408 Q234.792 215.408 237.18 217.364 Q239.569 219.32 239.569 222.686 Q239.569 225.094 238.196 226.767 Q236.842 228.441 234.416 229.043 Q237.162 229.683 238.685 231.545 Q240.227 233.407 240.227 236.096 Q240.227 240.177 237.726 242.359 Q235.243 244.541 230.598 244.541 Q225.952 244.541 223.451 242.359 Q220.968 240.177 220.968 236.096 Q220.968 233.407 222.51 231.545 Q224.053 229.683 226.798 229.043 M225.407 223.043 Q225.407 225.225 226.761 226.448 Q228.134 227.67 230.598 227.67 Q233.043 227.67 234.416 226.448 Q235.807 225.225 235.807 223.043 Q235.807 220.862 234.416 219.639 Q233.043 218.417 230.598 218.417 Q228.134 218.417 226.761 219.639 Q225.407 220.862 225.407 223.043 Z" fill="#000000" fill-rule="nonzero" fill-opacity="1" /><path clip-path="url(#clip412)" d="M390.44 87.9763 L390.44 711.588 L869.578 711.588 L869.578 87.9763 L390.44 87.9763 L390.44 87.9763  Z" fill="#009af9" fill-rule="evenodd" fill-opacity="1"/>
<polyline clip-path="url(#clip412)" style="stroke:#000000; stroke-linecap:round; stroke-linejoin:round; stroke-width:4; stroke-opacity:1; fill:none" points="390.44,87.9763 390.44,711.588 869.578,711.588 869.578,87.9763 390.44,87.9763 "/>
<path clip-path="url(#clip412)" d="M1074.92 790.974 L1074.92 1286.12 L1554.06 1286.12 L1554.06 790.974 L1074.92 790.974 L1074.92 790.974  Z" fill="#009af9" fill-rule="evenodd" fill-opacity="1"/>
<polyline clip-path="url(#clip412)" style="stroke:#000000; stroke-linecap:round; stroke-linejoin:round; stroke-width:4; stroke-opacity:1; fill:none" points="1074.92,790.974 1074.92,1286.12 1554.06,1286.12 1554.06,790.974 1074.92,790.974 "/>
<path clip-path="url(#clip412)" d="M1759.41 1347.83 L1759.41 1430.56 L2238.54 1430.56 L2238.54 1347.83 L1759.41 1347.83 L1759.41 1347.83  Z" fill="#009af9" fill-rule="evenodd" fill-opacity="1"/>
<polyline clip-path="url(#clip412)" style="stroke:#000000; stroke-linecap:round; stroke-linejoin:round; stroke-width:4; stroke-opacity:1; fill:none" points="1759.41,1347.83 1759.41,1430.56 2238.54,1430.56 2238.54,1347.83 1759.41,1347.83 "/>
<circle clip-path="url(#clip412)" style="fill:#009af9; stroke:none; fill-opacity:0" cx="630.009" cy="87.9763" r="2"/>
<circle clip-path="url(#clip412)" style="fill:#009af9; stroke:none; fill-opacity:0" cx="1314.49" cy="790.974" r="2"/>
<circle clip-path="url(#clip412)" style="fill:#009af9; stroke:none; fill-opacity:0" cx="1998.97" cy="1347.83" r="2"/>
<path clip-path="url(#clip412)" d="M390.44 711.588 L390.44 972.674 L869.578 972.674 L869.578 711.588 L390.44 711.588 L390.44 711.588  Z" fill="#e26f46" fill-rule="evenodd" fill-opacity="1"/>
<polyline clip-path="url(#clip412)" style="stroke:#000000; stroke-linecap:round; stroke-linejoin:round; stroke-width:4; stroke-opacity:1; fill:none" points="390.44,711.588 390.44,972.674 869.578,972.674 869.578,711.588 390.44,711.588 "/>
<path clip-path="url(#clip412)" d="M1074.92 1286.12 L1074.92 1286.12 L1554.06 1286.12 L1554.06 1286.12 L1074.92 1286.12 L1074.92 1286.12  Z" fill="#e26f46" fill-rule="evenodd" fill-opacity="1"/>
<polyline clip-path="url(#clip412)" style="stroke:#000000; stroke-linecap:round; stroke-linejoin:round; stroke-width:4; stroke-opacity:1; fill:none" points="1074.92,1286.12 1074.92,1286.12 1554.06,1286.12 1074.92,1286.12 "/>
<path clip-path="url(#clip412)" d="M1759.41 1430.56 L1759.41 1438.69 L2238.54 1438.69 L2238.54 1430.56 L1759.41 1430.56 L1759.41 1430.56  Z" fill="#e26f46" fill-rule="evenodd" fill-opacity="1"/>
<polyline clip-path="url(#clip412)" style="stroke:#000000; stroke-linecap:round; stroke-linejoin:round; stroke-width:4; stroke-opacity:1; fill:none" points="1759.41,1430.56 1759.41,1438.69 2238.54,1438.69 2238.54,1430.56 1759.41,1430.56 "/>
<circle clip-path="url(#clip412)" style="fill:#e26f46; stroke:none; fill-opacity:0" cx="630.009" cy="711.588" r="2"/>
<circle clip-path="url(#clip412)" style="fill:#e26f46; stroke:none; fill-opacity:0" cx="1314.49" cy="1286.12" r="2"/>
<circle clip-path="url(#clip412)" style="fill:#e26f46; stroke:none; fill-opacity:0" cx="1998.97" cy="1430.56" r="2"/>
<path clip-path="url(#clip412)" d="M390.44 972.674 L390.44 1031.31 L869.578 1031.31 L869.578 972.674 L390.44 972.674 L390.44 972.674  Z" fill="#3da44d" fill-rule="evenodd" fill-opacity="1"/>
<polyline clip-path="url(#clip412)" style="stroke:#000000; stroke-linecap:round; stroke-linejoin:round; stroke-width:4; stroke-opacity:1; fill:none" points="390.44,972.674 390.44,1031.31 869.578,1031.31 869.578,972.674 390.44,972.674 "/>
<path clip-path="url(#clip412)" d="M1074.92 1286.12 L1074.92 1287.29 L1554.06 1287.29 L1554.06 1286.12 L1074.92 1286.12 L1074.92 1286.12  Z" fill="#3da44d" fill-rule="evenodd" fill-opacity="1"/>
<polyline clip-path="url(#clip412)" style="stroke:#000000; stroke-linecap:round; stroke-linejoin:round; stroke-width:4; stroke-opacity:1; fill:none" points="1074.92,1286.12 1074.92,1287.29 1554.06,1287.29 1554.06,1286.12 1074.92,1286.12 "/>
<path clip-path="url(#clip412)" d="M1759.41 1438.69 L1759.41 1442.5 L2238.54 1442.5 L2238.54 1438.69 L1759.41 1438.69 L1759.41 1438.69  Z" fill="#3da44d" fill-rule="evenodd" fill-opacity="1"/>
<polyline clip-path="url(#clip412)" style="stroke:#000000; stroke-linecap:round; stroke-linejoin:round; stroke-width:4; stroke-opacity:1; fill:none" points="1759.41,1438.69 1759.41,1442.5 2238.54,1442.5 2238.54,1438.69 1759.41,1438.69 "/>
<circle clip-path="url(#clip412)" style="fill:#3da44d; stroke:none; fill-opacity:0" cx="630.009" cy="972.674" r="2"/>
<circle clip-path="url(#clip412)" style="fill:#3da44d; stroke:none; fill-opacity:0" cx="1314.49" cy="1286.12" r="2"/>
<circle clip-path="url(#clip412)" style="fill:#3da44d; stroke:none; fill-opacity:0" cx="1998.97" cy="1438.69" r="2"/>
<path clip-path="url(#clip412)" d="M390.44 1031.31 L390.44 1031.31 L869.578 1031.31 L869.578 1031.31 L390.44 1031.31 L390.44 1031.31  Z" fill="#c271d2" fill-rule="evenodd" fill-opacity="1"/>
<polyline clip-path="url(#clip412)" style="stroke:#000000; stroke-linecap:round; stroke-linejoin:round; stroke-width:4; stroke-opacity:1; fill:none" points="390.44,1031.31 390.44,1031.31 869.578,1031.31 390.44,1031.31 "/>
<path clip-path="url(#clip412)" d="M1074.92 1287.29 L1074.92 1443.04 L1554.06 1443.04 L1554.06 1287.29 L1074.92 1287.29 L1074.92 1287.29  Z" fill="#c271d2" fill-rule="evenodd" fill-opacity="1"/>
<polyline clip-path="url(#clip412)" style="stroke:#000000; stroke-linecap:round; stroke-linejoin:round; stroke-width:4; stroke-opacity:1; fill:none" points="1074.92,1287.29 1074.92,1443.04 1554.06,1443.04 1554.06,1287.29 1074.92,1287.29 "/>
<path clip-path="url(#clip412)" d="M1759.41 1442.5 L1759.41 1442.5 L2238.54 1442.5 L2238.54 1442.5 L1759.41 1442.5 L1759.41 1442.5  Z" fill="#c271d2" fill-rule="evenodd" fill-opacity="1"/>
<polyline clip-path="url(#clip412)" style="stroke:#000000; stroke-linecap:round; stroke-linejoin:round; stroke-width:4; stroke-opacity:1; fill:none" points="1759.41,1442.5 1759.41,1442.5 2238.54,1442.5 1759.41,1442.5 "/>
<circle clip-path="url(#clip412)" style="fill:#c271d2; stroke:none; fill-opacity:0" cx="630.009" cy="1031.31" r="2"/>
<circle clip-path="url(#clip412)" style="fill:#c271d2; stroke:none; fill-opacity:0" cx="1314.49" cy="1287.29" r="2"/>
<circle clip-path="url(#clip412)" style="fill:#c271d2; stroke:none; fill-opacity:0" cx="1998.97" cy="1442.5" r="2"/>
<path clip-path="url(#clip412)" d="M390.44 1031.31 L390.44 1069.07 L869.578 1069.07 L869.578 1031.31 L390.44 1031.31 L390.44 1031.31  Z" fill="#ac8d18" fill-rule="evenodd" fill-opacity="1"/>
<polyline clip-path="url(#clip412)" style="stroke:#000000; stroke-linecap:round; stroke-linejoin:round; stroke-width:4; stroke-opacity:1; fill:none" points="390.44,1031.31 390.44,1069.07 869.578,1069.07 869.578,1031.31 390.44,1031.31 "/>
<path clip-path="url(#clip412)" d="M1074.92 1443.04 L1074.92 1445.72 L1554.06 1445.72 L1554.06 1443.04 L1074.92 1443.04 L1074.92 1443.04  Z" fill="#ac8d18" fill-rule="evenodd" fill-opacity="1"/>
<polyline clip-path="url(#clip412)" style="stroke:#000000; stroke-linecap:round; stroke-linejoin:round; stroke-width:4; stroke-opacity:1; fill:none" points="1074.92,1443.04 1074.92,1445.72 1554.06,1445.72 1554.06,1443.04 1074.92,1443.04 "/>
<path clip-path="url(#clip412)" d="M1759.41 1442.5 L1759.41 1445.72 L2238.54 1445.72 L2238.54 1442.5 L1759.41 1442.5 L1759.41 1442.5  Z" fill="#ac8d18" fill-rule="evenodd" fill-opacity="1"/>
<polyline clip-path="url(#clip412)" style="stroke:#000000; stroke-linecap:round; stroke-linejoin:round; stroke-width:4; stroke-opacity:1; fill:none" points="1759.41,1442.5 1759.41,1445.72 2238.54,1445.72 2238.54,1442.5 1759.41,1442.5 "/>
<circle clip-path="url(#clip412)" style="fill:#ac8d18; stroke:none; fill-opacity:0" cx="630.009" cy="1031.31" r="2"/>
<circle clip-path="url(#clip412)" style="fill:#ac8d18; stroke:none; fill-opacity:0" cx="1314.49" cy="1443.04" r="2"/>
<circle clip-path="url(#clip412)" style="fill:#ac8d18; stroke:none; fill-opacity:0" cx="1998.97" cy="1442.5" r="2"/>
<path clip-path="url(#clip412)" d="M390.44 1069.07 L390.44 1445.72 L869.578 1445.72 L869.578 1069.07 L390.44 1069.07 L390.44 1069.07  Z" fill="#00a9ad" fill-rule="evenodd" fill-opacity="1"/>
<polyline clip-path="url(#clip412)" style="stroke:#000000; stroke-linecap:round; stroke-linejoin:round; stroke-width:4; stroke-opacity:1; fill:none" points="390.44,1069.07 390.44,1445.72 869.578,1445.72 869.578,1069.07 390.44,1069.07 "/>
<path clip-path="url(#clip412)" d="M1074.92 1445.72 L1074.92 1445.72 L1554.06 1445.72 L1554.06 1445.72 L1074.92 1445.72 L1074.92 1445.72  Z" fill="#00a9ad" fill-rule="evenodd" fill-opacity="1"/>
<polyline clip-path="url(#clip412)" style="stroke:#000000; stroke-linecap:round; stroke-linejoin:round; stroke-width:4; stroke-opacity:1; fill:none" points="1074.92,1445.72 1074.92,1445.72 1554.06,1445.72 1074.92,1445.72 "/>
<path clip-path="url(#clip412)" d="M1759.41 1445.72 L1759.41 1445.72 L2238.54 1445.72 L2238.54 1445.72 L1759.41 1445.72 L1759.41 1445.72  Z" fill="#00a9ad" fill-rule="evenodd" fill-opacity="1"/>
<polyline clip-path="url(#clip412)" style="stroke:#000000; stroke-linecap:round; stroke-linejoin:round; stroke-width:4; stroke-opacity:1; fill:none" points="1759.41,1445.72 1759.41,1445.72 2238.54,1445.72 1759.41,1445.72 "/>
<circle clip-path="url(#clip412)" style="fill:#00a9ad; stroke:none; fill-opacity:0" cx="630.009" cy="1069.07" r="2"/>
<circle clip-path="url(#clip412)" style="fill:#00a9ad; stroke:none; fill-opacity:0" cx="1314.49" cy="1445.72" r="2"/>
<circle clip-path="url(#clip412)" style="fill:#00a9ad; stroke:none; fill-opacity:0" cx="1998.97" cy="1445.72" r="2"/>
<path clip-path="url(#clip410)" d="M1898.09 458.098 L2283.54 458.098 L2283.54 95.2176 L1898.09 95.2176  Z" fill="#ffffff" fill-rule="evenodd" fill-opacity="1"/>
<polyline clip-path="url(#clip410)" style="stroke:#000000; stroke-linecap:round; stroke-linejoin:round; stroke-width:4; stroke-opacity:1; fill:none" points="1898.09,458.098 2283.54,458.098 2283.54,95.2176 1898.09,95.2176 1898.09,458.098 "/>
<path clip-path="url(#clip410)" d="M1921.16 167.794 L2059.59 167.794 L2059.59 126.322 L1921.16 126.322 L1921.16 167.794  Z" fill="#009af9" fill-rule="evenodd" fill-opacity="1"/>
<polyline clip-path="url(#clip410)" style="stroke:#000000; stroke-linecap:round; stroke-linejoin:round; stroke-width:4; stroke-opacity:1; fill:none" points="1921.16,167.794 2059.59,167.794 2059.59,126.322 1921.16,126.322 1921.16,167.794 "/>
<path clip-path="url(#clip410)" d="M2082.67 129.778 L2087.39 129.778 L2094.66 158.99 L2101.9 129.778 L2107.16 129.778 L2114.42 158.99 L2121.67 129.778 L2126.42 129.778 L2117.74 164.338 L2111.86 164.338 L2104.56 134.338 L2097.2 164.338 L2091.32 164.338 L2082.67 129.778 Z" fill="#000000" fill-rule="nonzero" fill-opacity="1" /><path clip-path="url(#clip410)" d="M2131.39 138.412 L2135.65 138.412 L2135.65 164.338 L2131.39 164.338 L2131.39 138.412 M2131.39 128.319 L2135.65 128.319 L2135.65 133.713 L2131.39 133.713 L2131.39 128.319 Z" fill="#000000" fill-rule="nonzero" fill-opacity="1" /><path clip-path="url(#clip410)" d="M2166.11 148.689 L2166.11 164.338 L2161.86 164.338 L2161.86 148.828 Q2161.86 145.148 2160.42 143.319 Q2158.98 141.49 2156.11 141.49 Q2152.67 141.49 2150.67 143.69 Q2148.68 145.889 2148.68 149.685 L2148.68 164.338 L2144.4 164.338 L2144.4 138.412 L2148.68 138.412 L2148.68 142.44 Q2150.21 140.102 2152.27 138.944 Q2154.36 137.787 2157.06 137.787 Q2161.53 137.787 2163.82 140.565 Q2166.11 143.319 2166.11 148.689 Z" fill="#000000" fill-rule="nonzero" fill-opacity="1" /><path clip-path="url(#clip410)" d="M2191.67 142.347 L2191.67 128.319 L2195.93 128.319 L2195.93 164.338 L2191.67 164.338 L2191.67 160.449 Q2190.33 162.763 2188.27 163.898 Q2186.23 165.009 2183.36 165.009 Q2178.66 165.009 2175.7 161.259 Q2172.76 157.509 2172.76 151.398 Q2172.76 145.287 2175.7 141.537 Q2178.66 137.787 2183.36 137.787 Q2186.23 137.787 2188.27 138.921 Q2190.33 140.032 2191.67 142.347 M2177.16 151.398 Q2177.16 156.097 2179.08 158.782 Q2181.02 161.444 2184.4 161.444 Q2187.78 161.444 2189.73 158.782 Q2191.67 156.097 2191.67 151.398 Q2191.67 146.699 2189.73 144.037 Q2187.78 141.352 2184.4 141.352 Q2181.02 141.352 2179.08 144.037 Q2177.16 146.699 2177.16 151.398 Z" fill="#000000" fill-rule="nonzero" fill-opacity="1" /><path clip-path="url(#clip410)" d="M1921.16 219.634 L2059.59 219.634 L2059.59 178.162 L1921.16 178.162 L1921.16 219.634  Z" fill="#e26f46" fill-rule="evenodd" fill-opacity="1"/>
<polyline clip-path="url(#clip410)" style="stroke:#000000; stroke-linecap:round; stroke-linejoin:round; stroke-width:4; stroke-opacity:1; fill:none" points="1921.16,219.634 2059.59,219.634 2059.59,178.162 1921.16,178.162 1921.16,219.634 "/>
<path clip-path="url(#clip410)" d="M2087.34 185.46 L2087.34 198.446 L2093.22 198.446 Q2096.49 198.446 2098.27 196.756 Q2100.05 195.067 2100.05 191.942 Q2100.05 188.84 2098.27 187.15 Q2096.49 185.46 2093.22 185.46 L2087.34 185.46 M2082.67 181.618 L2093.22 181.618 Q2099.03 181.618 2101.99 184.256 Q2104.98 186.872 2104.98 191.942 Q2104.98 197.057 2101.99 199.673 Q2099.03 202.289 2093.22 202.289 L2087.34 202.289 L2087.34 216.178 L2082.67 216.178 L2082.67 181.618 Z" fill="#000000" fill-rule="nonzero" fill-opacity="1" /><path clip-path="url(#clip410)" d="M2120.17 216.178 L2106.97 181.618 L2111.86 181.618 L2122.8 210.715 L2133.78 181.618 L2138.64 181.618 L2125.47 216.178 L2120.17 216.178 Z" fill="#000000" fill-rule="nonzero" fill-opacity="1" /><path clip-path="url(#clip410)" d="M1921.16 271.474 L2059.59 271.474 L2059.59 230.002 L1921.16 230.002 L1921.16 271.474  Z" fill="#3da44d" fill-rule="evenodd" fill-opacity="1"/>
<polyline clip-path="url(#clip410)" style="stroke:#000000; stroke-linecap:round; stroke-linejoin:round; stroke-width:4; stroke-opacity:1; fill:none" points="1921.16,271.474 2059.59,271.474 2059.59,230.002 1921.16,230.002 1921.16,271.474 "/>
<path clip-path="url(#clip410)" d="M2108.22 263.087 L2108.22 253.805 L2100.58 253.805 L2100.58 249.962 L2112.85 249.962 L2112.85 264.8 Q2110.14 266.721 2106.88 267.717 Q2103.61 268.689 2099.91 268.689 Q2091.81 268.689 2087.23 263.967 Q2082.67 259.221 2082.67 250.772 Q2082.67 242.3 2087.23 237.578 Q2091.81 232.833 2099.91 232.833 Q2103.29 232.833 2106.32 233.666 Q2109.38 234.499 2111.95 236.12 L2111.95 241.096 Q2109.36 238.897 2106.44 237.786 Q2103.52 236.675 2100.3 236.675 Q2093.96 236.675 2090.77 240.217 Q2087.6 243.758 2087.6 250.772 Q2087.6 257.763 2090.77 261.305 Q2093.96 264.846 2100.3 264.846 Q2102.78 264.846 2104.73 264.43 Q2106.67 263.99 2108.22 263.087 Z" fill="#000000" fill-rule="nonzero" fill-opacity="1" /><path clip-path="url(#clip410)" d="M2132.99 254.985 Q2127.83 254.985 2125.84 256.166 Q2123.85 257.346 2123.85 260.194 Q2123.85 262.462 2125.33 263.805 Q2126.83 265.124 2129.4 265.124 Q2132.94 265.124 2135.07 262.624 Q2137.23 260.101 2137.23 255.934 L2137.23 254.985 L2132.99 254.985 M2141.48 253.226 L2141.48 268.018 L2137.23 268.018 L2137.23 264.082 Q2135.77 266.443 2133.59 267.578 Q2131.42 268.689 2128.27 268.689 Q2124.29 268.689 2121.92 266.467 Q2119.59 264.221 2119.59 260.471 Q2119.59 256.096 2122.5 253.874 Q2125.44 251.652 2131.25 251.652 L2137.23 251.652 L2137.23 251.235 Q2137.23 248.295 2135.28 246.698 Q2133.36 245.078 2129.86 245.078 Q2127.64 245.078 2125.54 245.61 Q2123.43 246.143 2121.49 247.207 L2121.49 243.272 Q2123.82 242.37 2126.02 241.93 Q2128.22 241.467 2130.3 241.467 Q2135.93 241.467 2138.71 244.383 Q2141.48 247.3 2141.48 253.226 Z" fill="#000000" fill-rule="nonzero" fill-opacity="1" /><path clip-path="url(#clip410)" d="M2166.79 242.856 L2166.79 246.883 Q2164.98 245.957 2163.04 245.495 Q2161.09 245.032 2159.01 245.032 Q2155.84 245.032 2154.24 246.004 Q2152.67 246.976 2152.67 248.92 Q2152.67 250.402 2153.8 251.258 Q2154.93 252.092 2158.36 252.856 L2159.82 253.18 Q2164.36 254.152 2166.25 255.934 Q2168.17 257.694 2168.17 260.865 Q2168.17 264.476 2165.3 266.582 Q2162.46 268.689 2157.46 268.689 Q2155.37 268.689 2153.11 268.272 Q2150.86 267.879 2148.36 267.068 L2148.36 262.67 Q2150.72 263.897 2153.01 264.522 Q2155.3 265.124 2157.55 265.124 Q2160.56 265.124 2162.18 264.106 Q2163.8 263.064 2163.8 261.189 Q2163.8 259.453 2162.62 258.527 Q2161.46 257.601 2157.5 256.744 L2156.02 256.397 Q2152.06 255.564 2150.3 253.851 Q2148.55 252.115 2148.55 249.106 Q2148.55 245.448 2151.14 243.458 Q2153.73 241.467 2158.5 241.467 Q2160.86 241.467 2162.94 241.814 Q2165.03 242.161 2166.79 242.856 Z" fill="#000000" fill-rule="nonzero" fill-opacity="1" /><path clip-path="url(#clip410)" d="M1921.16 323.314 L2059.59 323.314 L2059.59 281.842 L1921.16 281.842 L1921.16 323.314  Z" fill="#c271d2" fill-rule="evenodd" fill-opacity="1"/>
<polyline clip-path="url(#clip410)" style="stroke:#000000; stroke-linecap:round; stroke-linejoin:round; stroke-width:4; stroke-opacity:1; fill:none" points="1921.16,323.314 2059.59,323.314 2059.59,281.842 1921.16,281.842 1921.16,323.314 "/>
<path clip-path="url(#clip410)" d="M2082.67 285.298 L2087.34 285.298 L2087.34 299.464 L2104.33 299.464 L2104.33 285.298 L2109.01 285.298 L2109.01 319.858 L2104.33 319.858 L2104.33 303.399 L2087.34 303.399 L2087.34 319.858 L2082.67 319.858 L2082.67 285.298 Z" fill="#000000" fill-rule="nonzero" fill-opacity="1" /><path clip-path="url(#clip410)" d="M2128.92 322.265 Q2127.11 326.895 2125.4 328.307 Q2123.68 329.719 2120.81 329.719 L2117.41 329.719 L2117.41 326.154 L2119.91 326.154 Q2121.67 326.154 2122.64 325.32 Q2123.61 324.487 2124.8 321.385 L2125.56 319.441 L2115.07 293.932 L2119.59 293.932 L2127.69 314.209 L2135.79 293.932 L2140.3 293.932 L2128.92 322.265 Z" fill="#000000" fill-rule="nonzero" fill-opacity="1" /><path clip-path="url(#clip410)" d="M2163.24 297.867 L2163.24 283.839 L2167.5 283.839 L2167.5 319.858 L2163.24 319.858 L2163.24 315.969 Q2161.9 318.283 2159.84 319.418 Q2157.8 320.529 2154.93 320.529 Q2150.23 320.529 2147.27 316.779 Q2144.33 313.029 2144.33 306.918 Q2144.33 300.807 2147.27 297.057 Q2150.23 293.307 2154.93 293.307 Q2157.8 293.307 2159.84 294.441 Q2161.9 295.552 2163.24 297.867 M2148.73 306.918 Q2148.73 311.617 2150.65 314.302 Q2152.6 316.964 2155.98 316.964 Q2159.36 316.964 2161.3 314.302 Q2163.24 311.617 2163.24 306.918 Q2163.24 302.219 2161.3 299.557 Q2159.36 296.872 2155.98 296.872 Q2152.6 296.872 2150.65 299.557 Q2148.73 302.219 2148.73 306.918 Z" fill="#000000" fill-rule="nonzero" fill-opacity="1" /><path clip-path="url(#clip410)" d="M2191.3 297.913 Q2190.58 297.497 2189.73 297.311 Q2188.89 297.103 2187.87 297.103 Q2184.26 297.103 2182.32 299.464 Q2180.4 301.802 2180.4 306.2 L2180.4 319.858 L2176.11 319.858 L2176.11 293.932 L2180.4 293.932 L2180.4 297.96 Q2181.74 295.598 2183.89 294.464 Q2186.04 293.307 2189.12 293.307 Q2189.56 293.307 2190.1 293.376 Q2190.63 293.423 2191.28 293.538 L2191.3 297.913 Z" fill="#000000" fill-rule="nonzero" fill-opacity="1" /><path clip-path="url(#clip410)" d="M2204.77 296.918 Q2201.35 296.918 2199.35 299.603 Q2197.36 302.265 2197.36 306.918 Q2197.36 311.571 2199.33 314.256 Q2201.32 316.918 2204.77 316.918 Q2208.17 316.918 2210.17 314.233 Q2212.16 311.547 2212.16 306.918 Q2212.16 302.311 2210.17 299.626 Q2208.17 296.918 2204.77 296.918 M2204.77 293.307 Q2210.33 293.307 2213.5 296.918 Q2216.67 300.529 2216.67 306.918 Q2216.67 313.284 2213.5 316.918 Q2210.33 320.529 2204.77 320.529 Q2199.19 320.529 2196.02 316.918 Q2192.87 313.284 2192.87 306.918 Q2192.87 300.529 2196.02 296.918 Q2199.19 293.307 2204.77 293.307 Z" fill="#000000" fill-rule="nonzero" fill-opacity="1" /><path clip-path="url(#clip410)" d="M1921.16 375.154 L2059.59 375.154 L2059.59 333.682 L1921.16 333.682 L1921.16 375.154  Z" fill="#ac8d18" fill-rule="evenodd" fill-opacity="1"/>
<polyline clip-path="url(#clip410)" style="stroke:#000000; stroke-linecap:round; stroke-linejoin:round; stroke-width:4; stroke-opacity:1; fill:none" points="1921.16,375.154 2059.59,375.154 2059.59,333.682 1921.16,333.682 1921.16,375.154 "/>
<path clip-path="url(#clip410)" d="M2087.34 355.193 L2087.34 367.855 L2094.84 367.855 Q2098.61 367.855 2100.42 366.304 Q2102.25 364.73 2102.25 361.512 Q2102.25 358.272 2100.42 356.744 Q2098.61 355.193 2094.84 355.193 L2087.34 355.193 M2087.34 340.98 L2087.34 351.397 L2094.26 351.397 Q2097.69 351.397 2099.36 350.124 Q2101.05 348.827 2101.05 346.188 Q2101.05 343.573 2099.36 342.276 Q2097.69 340.98 2094.26 340.98 L2087.34 340.98 M2082.67 337.138 L2094.61 337.138 Q2099.96 337.138 2102.85 339.36 Q2105.74 341.582 2105.74 345.679 Q2105.74 348.85 2104.26 350.725 Q2102.78 352.6 2099.91 353.063 Q2103.36 353.804 2105.26 356.165 Q2107.18 358.503 2107.18 362.022 Q2107.18 366.651 2104.03 369.174 Q2100.88 371.698 2095.07 371.698 L2082.67 371.698 L2082.67 337.138 Z" fill="#000000" fill-rule="nonzero" fill-opacity="1" /><path clip-path="url(#clip410)" d="M2126.79 358.665 Q2121.62 358.665 2119.63 359.846 Q2117.64 361.026 2117.64 363.874 Q2117.64 366.142 2119.12 367.485 Q2120.63 368.804 2123.2 368.804 Q2126.74 368.804 2128.87 366.304 Q2131.02 363.781 2131.02 359.614 L2131.02 358.665 L2126.79 358.665 M2135.28 356.906 L2135.28 371.698 L2131.02 371.698 L2131.02 367.762 Q2129.56 370.123 2127.39 371.258 Q2125.21 372.369 2122.06 372.369 Q2118.08 372.369 2115.72 370.147 Q2113.38 367.901 2113.38 364.151 Q2113.38 359.776 2116.3 357.554 Q2119.24 355.332 2125.05 355.332 L2131.02 355.332 L2131.02 354.915 Q2131.02 351.975 2129.08 350.378 Q2127.16 348.758 2123.66 348.758 Q2121.44 348.758 2119.33 349.29 Q2117.23 349.823 2115.28 350.887 L2115.28 346.952 Q2117.62 346.05 2119.82 345.61 Q2122.02 345.147 2124.1 345.147 Q2129.73 345.147 2132.5 348.063 Q2135.28 350.98 2135.28 356.906 Z" fill="#000000" fill-rule="nonzero" fill-opacity="1" /><path clip-path="url(#clip410)" d="M2148.27 338.411 L2148.27 345.772 L2157.04 345.772 L2157.04 349.082 L2148.27 349.082 L2148.27 363.156 Q2148.27 366.327 2149.12 367.23 Q2150 368.133 2152.67 368.133 L2157.04 368.133 L2157.04 371.698 L2152.67 371.698 Q2147.73 371.698 2145.86 369.869 Q2143.98 368.017 2143.98 363.156 L2143.98 349.082 L2140.86 349.082 L2140.86 345.772 L2143.98 345.772 L2143.98 338.411 L2148.27 338.411 Z" fill="#000000" fill-rule="nonzero" fill-opacity="1" /><path clip-path="url(#clip410)" d="M2166.86 338.411 L2166.86 345.772 L2175.63 345.772 L2175.63 349.082 L2166.86 349.082 L2166.86 363.156 Q2166.86 366.327 2167.71 367.23 Q2168.59 368.133 2171.25 368.133 L2175.63 368.133 L2175.63 371.698 L2171.25 371.698 Q2166.32 371.698 2164.45 369.869 Q2162.57 368.017 2162.57 363.156 L2162.57 349.082 L2159.45 349.082 L2159.45 345.772 L2162.57 345.772 L2162.57 338.411 L2166.86 338.411 Z" fill="#000000" fill-rule="nonzero" fill-opacity="1" /><path clip-path="url(#clip410)" d="M2203.41 357.67 L2203.41 359.753 L2183.82 359.753 Q2184.1 364.151 2186.46 366.466 Q2188.85 368.758 2193.08 368.758 Q2195.54 368.758 2197.83 368.156 Q2200.14 367.554 2202.41 366.35 L2202.41 370.378 Q2200.12 371.35 2197.71 371.86 Q2195.3 372.369 2192.83 372.369 Q2186.62 372.369 2182.99 368.758 Q2179.38 365.147 2179.38 358.989 Q2179.38 352.624 2182.8 348.897 Q2186.25 345.147 2192.09 345.147 Q2197.32 345.147 2200.35 348.526 Q2203.41 351.883 2203.41 357.67 M2199.15 356.42 Q2199.1 352.925 2197.18 350.841 Q2195.28 348.758 2192.13 348.758 Q2188.57 348.758 2186.42 350.772 Q2184.29 352.786 2183.96 356.443 L2199.15 356.42 Z" fill="#000000" fill-rule="nonzero" fill-opacity="1" /><path clip-path="url(#clip410)" d="M2225.42 349.753 Q2224.7 349.337 2223.85 349.151 Q2223.01 348.943 2221.99 348.943 Q2218.38 348.943 2216.44 351.304 Q2214.52 353.642 2214.52 358.04 L2214.52 371.698 L2210.23 371.698 L2210.23 345.772 L2214.52 345.772 L2214.52 349.8 Q2215.86 347.438 2218.01 346.304 Q2220.17 345.147 2223.24 345.147 Q2223.68 345.147 2224.22 345.216 Q2224.75 345.263 2225.4 345.378 L2225.42 349.753 Z" fill="#000000" fill-rule="nonzero" fill-opacity="1" /><path clip-path="url(#clip410)" d="M2240.67 374.105 Q2238.87 378.735 2237.16 380.147 Q2235.44 381.559 2232.57 381.559 L2229.17 381.559 L2229.17 377.994 L2231.67 377.994 Q2233.43 377.994 2234.4 377.16 Q2235.37 376.327 2236.55 373.225 L2237.32 371.281 L2226.83 345.772 L2231.35 345.772 L2239.45 366.049 L2247.55 345.772 L2252.06 345.772 L2240.67 374.105 Z" fill="#000000" fill-rule="nonzero" fill-opacity="1" /><path clip-path="url(#clip410)" d="M1921.16 426.994 L2059.59 426.994 L2059.59 385.522 L1921.16 385.522 L1921.16 426.994  Z" fill="#00a9ad" fill-rule="evenodd" fill-opacity="1"/>
<polyline clip-path="url(#clip410)" style="stroke:#000000; stroke-linecap:round; stroke-linejoin:round; stroke-width:4; stroke-opacity:1; fill:none" points="1921.16,426.994 2059.59,426.994 2059.59,385.522 1921.16,385.522 1921.16,426.994 "/>
<path clip-path="url(#clip410)" d="M2082.67 388.978 L2088.96 388.978 L2104.29 417.889 L2104.29 388.978 L2108.82 388.978 L2108.82 423.538 L2102.53 423.538 L2087.2 394.626 L2087.2 423.538 L2082.67 423.538 L2082.67 388.978 Z" fill="#000000" fill-rule="nonzero" fill-opacity="1" /><path clip-path="url(#clip410)" d="M2117.5 413.306 L2117.5 397.612 L2121.76 397.612 L2121.76 413.144 Q2121.76 416.825 2123.2 418.676 Q2124.63 420.505 2127.5 420.505 Q2130.95 420.505 2132.94 418.306 Q2134.96 416.107 2134.96 412.311 L2134.96 397.612 L2139.22 397.612 L2139.22 423.538 L2134.96 423.538 L2134.96 419.556 Q2133.41 421.917 2131.35 423.075 Q2129.31 424.209 2126.6 424.209 Q2122.13 424.209 2119.82 421.431 Q2117.5 418.653 2117.5 413.306 M2128.22 396.987 L2128.22 396.987 Z" fill="#000000" fill-rule="nonzero" fill-opacity="1" /><path clip-path="url(#clip410)" d="M2166.65 398.607 L2166.65 402.589 Q2164.84 401.593 2163.01 401.107 Q2161.21 400.598 2159.36 400.598 Q2155.21 400.598 2152.92 403.237 Q2150.63 405.852 2150.63 410.598 Q2150.63 415.343 2152.92 417.982 Q2155.21 420.598 2159.36 420.598 Q2161.21 420.598 2163.01 420.112 Q2164.84 419.602 2166.65 418.607 L2166.65 422.542 Q2164.86 423.376 2162.94 423.792 Q2161.04 424.209 2158.89 424.209 Q2153.04 424.209 2149.59 420.528 Q2146.14 416.848 2146.14 410.598 Q2146.14 404.255 2149.61 400.621 Q2153.11 396.987 2159.17 396.987 Q2161.14 396.987 2163.01 397.403 Q2164.89 397.797 2166.65 398.607 Z" fill="#000000" fill-rule="nonzero" fill-opacity="1" /><path clip-path="url(#clip410)" d="M2174.05 387.519 L2178.31 387.519 L2178.31 423.538 L2174.05 423.538 L2174.05 387.519 Z" fill="#000000" fill-rule="nonzero" fill-opacity="1" /><path clip-path="url(#clip410)" d="M2209.4 409.51 L2209.4 411.593 L2189.82 411.593 Q2190.1 415.991 2192.46 418.306 Q2194.84 420.598 2199.08 420.598 Q2201.53 420.598 2203.82 419.996 Q2206.14 419.394 2208.41 418.19 L2208.41 422.218 Q2206.11 423.19 2203.71 423.7 Q2201.3 424.209 2198.82 424.209 Q2192.62 424.209 2188.98 420.598 Q2185.37 416.987 2185.37 410.829 Q2185.37 404.464 2188.8 400.737 Q2192.25 396.987 2198.08 396.987 Q2203.31 396.987 2206.35 400.366 Q2209.4 403.723 2209.4 409.51 M2205.14 408.26 Q2205.1 404.765 2203.17 402.681 Q2201.28 400.598 2198.13 400.598 Q2194.56 400.598 2192.41 402.612 Q2190.28 404.626 2189.96 408.283 L2205.14 408.26 Z" fill="#000000" fill-rule="nonzero" fill-opacity="1" /><path clip-path="url(#clip410)" d="M2228.17 410.505 Q2223.01 410.505 2221.02 411.686 Q2219.03 412.866 2219.03 415.714 Q2219.03 417.982 2220.51 419.325 Q2222.02 420.644 2224.59 420.644 Q2228.13 420.644 2230.26 418.144 Q2232.41 415.621 2232.41 411.454 L2232.41 410.505 L2228.17 410.505 M2236.67 408.746 L2236.67 423.538 L2232.41 423.538 L2232.41 419.602 Q2230.95 421.963 2228.78 423.098 Q2226.6 424.209 2223.45 424.209 Q2219.47 424.209 2217.11 421.987 Q2214.77 419.741 2214.77 415.991 Q2214.77 411.616 2217.69 409.394 Q2220.63 407.172 2226.44 407.172 L2232.41 407.172 L2232.41 406.755 Q2232.41 403.815 2230.47 402.218 Q2228.54 400.598 2225.05 400.598 Q2222.83 400.598 2220.72 401.13 Q2218.61 401.663 2216.67 402.727 L2216.67 398.792 Q2219.01 397.89 2221.21 397.45 Q2223.41 396.987 2225.49 396.987 Q2231.11 396.987 2233.89 399.903 Q2236.67 402.82 2236.67 408.746 Z" fill="#000000" fill-rule="nonzero" fill-opacity="1" /><path clip-path="url(#clip410)" d="M2260.47 401.593 Q2259.75 401.177 2258.89 400.991 Q2258.06 400.783 2257.04 400.783 Q2253.43 400.783 2251.48 403.144 Q2249.56 405.482 2249.56 409.88 L2249.56 423.538 L2245.28 423.538 L2245.28 397.612 L2249.56 397.612 L2249.56 401.64 Q2250.91 399.278 2253.06 398.144 Q2255.21 396.987 2258.29 396.987 Q2258.73 396.987 2259.26 397.056 Q2259.79 397.103 2260.44 397.218 L2260.47 401.593 Z" fill="#000000" fill-rule="nonzero" fill-opacity="1" /></svg>
