<?xml version="1.0" encoding="utf-8"?>
<svg xmlns="http://www.w3.org/2000/svg" xmlns:xlink="http://www.w3.org/1999/xlink" width="600" height="400" viewBox="0 0 2400 1600">
<defs>
  <clipPath id="clip630">
    <rect x="0" y="0" width="2400" height="1600"/>
  </clipPath>
</defs>
<path clip-path="url(#clip630)" d="M0 1600 L2400 1600 L2400 0 L0 0  Z" fill="#ffffff" fill-rule="evenodd" fill-opacity="1"/>
<defs>
  <clipPath id="clip631">
    <rect x="480" y="0" width="1681" height="1600"/>
  </clipPath>
</defs>
<path clip-path="url(#clip630)" d="M276.227 1486.45 L2352.76 1486.45 L2352.76 47.2441 L276.227 47.2441  Z" fill="#ffffff" fill-rule="evenodd" fill-opacity="1"/>
<defs>
  <clipPath id="clip632">
    <rect x="276" y="47" width="2078" height="1440"/>
  </clipPath>
</defs>
<polyline clip-path="url(#clip632)" style="stroke:#000000; stroke-linecap:round; stroke-linejoin:round; stroke-width:2; stroke-opacity:0.1; fill:none" points="630.009,1486.45 630.009,47.2441 "/>
<polyline clip-path="url(#clip632)" style="stroke:#000000; stroke-linecap:round; stroke-linejoin:round; stroke-width:2; stroke-opacity:0.1; fill:none" points="1314.49,1486.45 1314.49,47.2441 "/>
<polyline clip-path="url(#clip632)" style="stroke:#000000; stroke-linecap:round; stroke-linejoin:round; stroke-width:2; stroke-opacity:0.1; fill:none" points="1998.97,1486.45 1998.97,47.2441 "/>
<polyline clip-path="url(#clip630)" style="stroke:#000000; stroke-linecap:round; stroke-linejoin:round; stroke-width:4; stroke-opacity:1; fill:none" points="276.227,1486.45 2352.76,1486.45 "/>
<polyline clip-path="url(#clip630)" style="stroke:#000000; stroke-linecap:round; stroke-linejoin:round; stroke-width:4; stroke-opacity:1; fill:none" points="630.009,1486.45 630.009,1467.55 "/>
<polyline clip-path="url(#clip630)" style="stroke:#000000; stroke-linecap:round; stroke-linejoin:round; stroke-width:4; stroke-opacity:1; fill:none" points="1314.49,1486.45 1314.49,1467.55 "/>
<polyline clip-path="url(#clip630)" style="stroke:#000000; stroke-linecap:round; stroke-linejoin:round; stroke-width:4; stroke-opacity:1; fill:none" points="1998.97,1486.45 1998.97,1467.55 "/>
<path clip-path="url(#clip630)" d="M548.655 1543.92 L548.655 1534.63 L541.016 1534.63 L541.016 1530.79 L553.285 1530.79 L553.285 1545.63 Q550.576 1547.55 547.313 1548.55 Q544.049 1549.52 540.345 1549.52 Q532.243 1549.52 527.66 1544.8 Q523.1 1540.05 523.1 1531.6 Q523.1 1523.13 527.66 1518.41 Q532.243 1513.66 540.345 1513.66 Q543.725 1513.66 546.757 1514.5 Q549.813 1515.33 552.382 1516.95 L552.382 1521.93 Q549.789 1519.73 546.873 1518.62 Q543.956 1517.51 540.739 1517.51 Q534.396 1517.51 531.202 1521.05 Q528.03 1524.59 528.03 1531.6 Q528.03 1538.59 531.202 1542.13 Q534.396 1545.68 540.739 1545.68 Q543.215 1545.68 545.16 1545.26 Q547.104 1544.82 548.655 1543.92 Z" fill="#000000" fill-rule="nonzero" fill-opacity="1" /><path clip-path="url(#clip630)" d="M583.817 1534.82 L583.817 1536.9 L564.234 1536.9 Q564.512 1541.3 566.873 1543.62 Q569.257 1545.91 573.493 1545.91 Q575.947 1545.91 578.238 1545.31 Q580.553 1544.7 582.822 1543.5 L582.822 1547.53 Q580.53 1548.5 578.123 1549.01 Q575.715 1549.52 573.238 1549.52 Q567.035 1549.52 563.4 1545.91 Q559.789 1542.3 559.789 1536.14 Q559.789 1529.77 563.215 1526.05 Q566.664 1522.3 572.498 1522.3 Q577.729 1522.3 580.762 1525.68 Q583.817 1529.03 583.817 1534.82 M579.558 1533.57 Q579.512 1530.07 577.59 1527.99 Q575.692 1525.91 572.544 1525.91 Q568.979 1525.91 566.826 1527.92 Q564.697 1529.94 564.373 1533.59 L579.558 1533.57 Z" fill="#000000" fill-rule="nonzero" fill-opacity="1" /><path clip-path="url(#clip630)" d="M605.831 1526.9 Q605.113 1526.49 604.257 1526.3 Q603.423 1526.09 602.405 1526.09 Q598.794 1526.09 596.849 1528.45 Q594.928 1530.79 594.928 1535.19 L594.928 1548.85 L590.646 1548.85 L590.646 1522.92 L594.928 1522.92 L594.928 1526.95 Q596.271 1524.59 598.423 1523.45 Q600.576 1522.3 603.655 1522.3 Q604.095 1522.3 604.627 1522.37 Q605.16 1522.41 605.808 1522.53 L605.831 1526.9 Z" fill="#000000" fill-rule="nonzero" fill-opacity="1" /><path clip-path="url(#clip630)" d="M629.65 1527.9 Q631.247 1525.03 633.47 1523.66 Q635.692 1522.3 638.701 1522.3 Q642.752 1522.3 644.951 1525.14 Q647.15 1527.97 647.15 1533.2 L647.15 1548.85 L642.868 1548.85 L642.868 1533.34 Q642.868 1529.61 641.548 1527.81 Q640.229 1526 637.52 1526 Q634.21 1526 632.289 1528.2 Q630.368 1530.4 630.368 1534.2 L630.368 1548.85 L626.085 1548.85 L626.085 1533.34 Q626.085 1529.59 624.766 1527.81 Q623.446 1526 620.692 1526 Q617.428 1526 615.507 1528.22 Q613.585 1530.42 613.585 1534.2 L613.585 1548.85 L609.303 1548.85 L609.303 1522.92 L613.585 1522.92 L613.585 1526.95 Q615.044 1524.57 617.081 1523.43 Q619.118 1522.3 621.919 1522.3 Q624.743 1522.3 626.71 1523.73 Q628.701 1525.17 629.65 1527.9 Z" fill="#000000" fill-rule="nonzero" fill-opacity="1" /><path clip-path="url(#clip630)" d="M667.428 1535.82 Q662.266 1535.82 660.275 1537 Q658.284 1538.18 658.284 1541.02 Q658.284 1543.29 659.766 1544.63 Q661.27 1545.95 663.84 1545.95 Q667.381 1545.95 669.511 1543.45 Q671.664 1540.93 671.664 1536.76 L671.664 1535.82 L667.428 1535.82 M675.923 1534.06 L675.923 1548.85 L671.664 1548.85 L671.664 1544.91 Q670.205 1547.27 668.03 1548.41 Q665.854 1549.52 662.706 1549.52 Q658.724 1549.52 656.363 1547.3 Q654.025 1545.05 654.025 1541.3 Q654.025 1536.93 656.942 1534.7 Q659.881 1532.48 665.692 1532.48 L671.664 1532.48 L671.664 1532.07 Q671.664 1529.13 669.719 1527.53 Q667.798 1525.91 664.303 1525.91 Q662.081 1525.91 659.974 1526.44 Q657.868 1526.97 655.923 1528.04 L655.923 1524.1 Q658.261 1523.2 660.46 1522.76 Q662.659 1522.3 664.743 1522.3 Q670.368 1522.3 673.145 1525.21 Q675.923 1528.13 675.923 1534.06 Z" fill="#000000" fill-rule="nonzero" fill-opacity="1" /><path clip-path="url(#clip630)" d="M706.247 1533.2 L706.247 1548.85 L701.988 1548.85 L701.988 1533.34 Q701.988 1529.66 700.553 1527.83 Q699.117 1526 696.247 1526 Q692.798 1526 690.807 1528.2 Q688.816 1530.4 688.816 1534.2 L688.816 1548.85 L684.534 1548.85 L684.534 1522.92 L688.816 1522.92 L688.816 1526.95 Q690.344 1524.61 692.404 1523.45 Q694.488 1522.3 697.196 1522.3 Q701.664 1522.3 703.955 1525.07 Q706.247 1527.83 706.247 1533.2 Z" fill="#000000" fill-rule="nonzero" fill-opacity="1" /><path clip-path="url(#clip630)" d="M725.529 1551.26 Q723.724 1555.88 722.011 1557.3 Q720.298 1558.71 717.427 1558.71 L714.025 1558.71 L714.025 1555.14 L716.525 1555.14 Q718.284 1555.14 719.256 1554.31 Q720.228 1553.48 721.409 1550.38 L722.173 1548.43 L711.687 1522.92 L716.201 1522.92 L724.302 1543.2 L732.404 1522.92 L736.918 1522.92 L725.529 1551.26 Z" fill="#000000" fill-rule="nonzero" fill-opacity="1" /><path clip-path="url(#clip630)" d="M1246.64 1515.42 L1246.64 1519.98 Q1243.98 1518.71 1241.62 1518.08 Q1239.26 1517.46 1237.06 1517.46 Q1233.24 1517.46 1231.16 1518.94 Q1229.1 1520.42 1229.1 1523.15 Q1229.1 1525.45 1230.46 1526.63 Q1231.85 1527.78 1235.7 1528.5 L1238.52 1529.08 Q1243.75 1530.07 1246.23 1532.6 Q1248.73 1535.1 1248.73 1539.31 Q1248.73 1544.33 1245.35 1546.93 Q1241.99 1549.52 1235.49 1549.52 Q1233.03 1549.52 1230.26 1548.96 Q1227.5 1548.41 1224.54 1547.32 L1224.54 1542.51 Q1227.39 1544.1 1230.12 1544.91 Q1232.85 1545.72 1235.49 1545.72 Q1239.49 1545.72 1241.67 1544.15 Q1243.84 1542.57 1243.84 1539.66 Q1243.84 1537.11 1242.27 1535.68 Q1240.72 1534.24 1237.15 1533.52 L1234.31 1532.97 Q1229.08 1531.93 1226.74 1529.7 Q1224.4 1527.48 1224.4 1523.52 Q1224.4 1518.94 1227.62 1516.3 Q1230.86 1513.66 1236.53 1513.66 Q1238.96 1513.66 1241.48 1514.1 Q1244.01 1514.54 1246.64 1515.42 Z" fill="#000000" fill-rule="nonzero" fill-opacity="1" /><path clip-path="url(#clip630)" d="M1253.36 1522.92 L1257.62 1522.92 L1262.94 1543.15 L1268.24 1522.92 L1273.26 1522.92 L1278.59 1543.15 L1283.89 1522.92 L1288.15 1522.92 L1281.37 1548.85 L1276.34 1548.85 L1270.76 1527.6 L1265.16 1548.85 L1260.14 1548.85 L1253.36 1522.92 Z" fill="#000000" fill-rule="nonzero" fill-opacity="1" /><path clip-path="url(#clip630)" d="M1316.78 1534.82 L1316.78 1536.9 L1297.2 1536.9 Q1297.48 1541.3 1299.84 1543.62 Q1302.22 1545.91 1306.46 1545.91 Q1308.91 1545.91 1311.2 1545.31 Q1313.52 1544.7 1315.79 1543.5 L1315.79 1547.53 Q1313.5 1548.5 1311.09 1549.01 Q1308.68 1549.52 1306.2 1549.52 Q1300 1549.52 1296.37 1545.91 Q1292.76 1542.3 1292.76 1536.14 Q1292.76 1529.77 1296.18 1526.05 Q1299.63 1522.3 1305.46 1522.3 Q1310.7 1522.3 1313.73 1525.68 Q1316.78 1529.03 1316.78 1534.82 M1312.52 1533.57 Q1312.48 1530.07 1310.56 1527.99 Q1308.66 1525.91 1305.51 1525.91 Q1301.95 1525.91 1299.79 1527.92 Q1297.66 1529.94 1297.34 1533.59 L1312.52 1533.57 Z" fill="#000000" fill-rule="nonzero" fill-opacity="1" /><path clip-path="url(#clip630)" d="M1340.83 1526.86 L1340.83 1512.83 L1345.09 1512.83 L1345.09 1548.85 L1340.83 1548.85 L1340.83 1544.96 Q1339.49 1547.27 1337.43 1548.41 Q1335.39 1549.52 1332.52 1549.52 Q1327.82 1549.52 1324.86 1545.77 Q1321.92 1542.02 1321.92 1535.91 Q1321.92 1529.8 1324.86 1526.05 Q1327.82 1522.3 1332.52 1522.3 Q1335.39 1522.3 1337.43 1523.43 Q1339.49 1524.54 1340.83 1526.86 M1326.32 1535.91 Q1326.32 1540.61 1328.24 1543.29 Q1330.19 1545.95 1333.57 1545.95 Q1336.95 1545.95 1338.89 1543.29 Q1340.83 1540.61 1340.83 1535.91 Q1340.83 1531.21 1338.89 1528.55 Q1336.95 1525.86 1333.57 1525.86 Q1330.19 1525.86 1328.24 1528.55 Q1326.32 1531.21 1326.32 1535.91 Z" fill="#000000" fill-rule="nonzero" fill-opacity="1" /><path clip-path="url(#clip630)" d="M1376.04 1534.82 L1376.04 1536.9 L1356.46 1536.9 Q1356.74 1541.3 1359.1 1543.62 Q1361.48 1545.91 1365.72 1545.91 Q1368.17 1545.91 1370.46 1545.31 Q1372.78 1544.7 1375.05 1543.5 L1375.05 1547.53 Q1372.76 1548.5 1370.35 1549.01 Q1367.94 1549.52 1365.46 1549.52 Q1359.26 1549.52 1355.63 1545.91 Q1352.01 1542.3 1352.01 1536.14 Q1352.01 1529.77 1355.44 1526.05 Q1358.89 1522.3 1364.72 1522.3 Q1369.95 1522.3 1372.99 1525.68 Q1376.04 1529.03 1376.04 1534.82 M1371.78 1533.57 Q1371.74 1530.07 1369.82 1527.99 Q1367.92 1525.91 1364.77 1525.91 Q1361.2 1525.91 1359.05 1527.92 Q1356.92 1529.94 1356.6 1533.59 L1371.78 1533.57 Z" fill="#000000" fill-rule="nonzero" fill-opacity="1" /><path clip-path="url(#clip630)" d="M1404.58 1533.2 L1404.58 1548.85 L1400.32 1548.85 L1400.32 1533.34 Q1400.32 1529.66 1398.89 1527.83 Q1397.45 1526 1394.58 1526 Q1391.13 1526 1389.14 1528.2 Q1387.15 1530.4 1387.15 1534.2 L1387.15 1548.85 L1382.87 1548.85 L1382.87 1522.92 L1387.15 1522.92 L1387.15 1526.95 Q1388.68 1524.61 1390.74 1523.45 Q1392.82 1522.3 1395.53 1522.3 Q1400 1522.3 1402.29 1525.07 Q1404.58 1527.83 1404.58 1533.2 Z" fill="#000000" fill-rule="nonzero" fill-opacity="1" /><path clip-path="url(#clip630)" d="M1897.1 1518.13 L1897.1 1545.01 L1902.75 1545.01 Q1909.9 1545.01 1913.21 1541.76 Q1916.54 1538.52 1916.54 1531.53 Q1916.54 1524.59 1913.21 1521.37 Q1909.9 1518.13 1902.75 1518.13 L1897.1 1518.13 M1892.42 1514.29 L1902.03 1514.29 Q1912.08 1514.29 1916.78 1518.48 Q1921.47 1522.64 1921.47 1531.53 Q1921.47 1540.47 1916.75 1544.66 Q1912.03 1548.85 1902.03 1548.85 L1892.42 1548.85 L1892.42 1514.29 Z" fill="#000000" fill-rule="nonzero" fill-opacity="1" /><path clip-path="url(#clip630)" d="M1950.92 1534.82 L1950.92 1536.9 L1931.34 1536.9 Q1931.61 1541.3 1933.97 1543.62 Q1936.36 1545.91 1940.59 1545.91 Q1943.05 1545.91 1945.34 1545.31 Q1947.66 1544.7 1949.92 1543.5 L1949.92 1547.53 Q1947.63 1548.5 1945.22 1549.01 Q1942.82 1549.52 1940.34 1549.52 Q1934.14 1549.52 1930.5 1545.91 Q1926.89 1542.3 1926.89 1536.14 Q1926.89 1529.77 1930.32 1526.05 Q1933.77 1522.3 1939.6 1522.3 Q1944.83 1522.3 1947.86 1525.68 Q1950.92 1529.03 1950.92 1534.82 M1946.66 1533.57 Q1946.61 1530.07 1944.69 1527.99 Q1942.79 1525.91 1939.65 1525.91 Q1936.08 1525.91 1933.93 1527.92 Q1931.8 1529.94 1931.47 1533.59 L1946.66 1533.57 Z" fill="#000000" fill-rule="nonzero" fill-opacity="1" /><path clip-path="url(#clip630)" d="M1979.46 1533.2 L1979.46 1548.85 L1975.2 1548.85 L1975.2 1533.34 Q1975.2 1529.66 1973.77 1527.83 Q1972.33 1526 1969.46 1526 Q1966.01 1526 1964.02 1528.2 Q1962.03 1530.4 1962.03 1534.2 L1962.03 1548.85 L1957.75 1548.85 L1957.75 1522.92 L1962.03 1522.92 L1962.03 1526.95 Q1963.56 1524.61 1965.62 1523.45 Q1967.7 1522.3 1970.41 1522.3 Q1974.88 1522.3 1977.17 1525.07 Q1979.46 1527.83 1979.46 1533.2 Z" fill="#000000" fill-rule="nonzero" fill-opacity="1" /><path clip-path="url(#clip630)" d="M2008.14 1527.9 Q2009.74 1525.03 2011.96 1523.66 Q2014.18 1522.3 2017.19 1522.3 Q2021.24 1522.3 2023.44 1525.14 Q2025.64 1527.97 2025.64 1533.2 L2025.64 1548.85 L2021.36 1548.85 L2021.36 1533.34 Q2021.36 1529.61 2020.04 1527.81 Q2018.72 1526 2016.01 1526 Q2012.7 1526 2010.78 1528.2 Q2008.86 1530.4 2008.86 1534.2 L2008.86 1548.85 L2004.58 1548.85 L2004.58 1533.34 Q2004.58 1529.59 2003.26 1527.81 Q2001.94 1526 1999.18 1526 Q1995.92 1526 1994 1528.22 Q1992.08 1530.42 1992.08 1534.2 L1992.08 1548.85 L1987.79 1548.85 L1987.79 1522.92 L1992.08 1522.92 L1992.08 1526.95 Q1993.53 1524.57 1995.57 1523.43 Q1997.61 1522.3 2000.41 1522.3 Q2003.23 1522.3 2005.2 1523.73 Q2007.19 1525.17 2008.14 1527.9 Z" fill="#000000" fill-rule="nonzero" fill-opacity="1" /><path clip-path="url(#clip630)" d="M2045.92 1535.82 Q2040.76 1535.82 2038.77 1537 Q2036.77 1538.18 2036.77 1541.02 Q2036.77 1543.29 2038.26 1544.63 Q2039.76 1545.95 2042.33 1545.95 Q2045.87 1545.95 2048 1543.45 Q2050.15 1540.93 2050.15 1536.76 L2050.15 1535.82 L2045.92 1535.82 M2054.41 1534.06 L2054.41 1548.85 L2050.15 1548.85 L2050.15 1544.91 Q2048.7 1547.27 2046.52 1548.41 Q2044.34 1549.52 2041.2 1549.52 Q2037.21 1549.52 2034.85 1547.3 Q2032.52 1545.05 2032.52 1541.3 Q2032.52 1536.93 2035.43 1534.7 Q2038.37 1532.48 2044.18 1532.48 L2050.15 1532.48 L2050.15 1532.07 Q2050.15 1529.13 2048.21 1527.53 Q2046.29 1525.91 2042.79 1525.91 Q2040.57 1525.91 2038.46 1526.44 Q2036.36 1526.97 2034.41 1528.04 L2034.41 1524.1 Q2036.75 1523.2 2038.95 1522.76 Q2041.15 1522.3 2043.23 1522.3 Q2048.86 1522.3 2051.64 1525.21 Q2054.41 1528.13 2054.41 1534.06 Z" fill="#000000" fill-rule="nonzero" fill-opacity="1" /><path clip-path="url(#clip630)" d="M2078.21 1526.9 Q2077.49 1526.49 2076.64 1526.3 Q2075.8 1526.09 2074.78 1526.09 Q2071.17 1526.09 2069.23 1528.45 Q2067.31 1530.79 2067.31 1535.19 L2067.31 1548.85 L2063.02 1548.85 L2063.02 1522.92 L2067.31 1522.92 L2067.31 1526.95 Q2068.65 1524.59 2070.8 1523.45 Q2072.96 1522.3 2076.03 1522.3 Q2076.47 1522.3 2077.01 1522.37 Q2077.54 1522.41 2078.19 1522.53 L2078.21 1526.9 Z" fill="#000000" fill-rule="nonzero" fill-opacity="1" /><path clip-path="url(#clip630)" d="M2082.52 1512.83 L2086.8 1512.83 L2086.8 1534.1 L2099.51 1522.92 L2104.95 1522.92 L2091.2 1535.05 L2105.52 1548.85 L2099.97 1548.85 L2086.8 1536.19 L2086.8 1548.85 L2082.52 1548.85 L2082.52 1512.83 Z" fill="#000000" fill-rule="nonzero" fill-opacity="1" /><polyline clip-path="url(#clip632)" style="stroke:#000000; stroke-linecap:round; stroke-linejoin:round; stroke-width:2; stroke-opacity:0.1; fill:none" points="276.227,1445.72 2352.76,1445.72 "/>
<polyline clip-path="url(#clip632)" style="stroke:#000000; stroke-linecap:round; stroke-linejoin:round; stroke-width:2; stroke-opacity:0.1; fill:none" points="276.227,1195.41 2352.76,1195.41 "/>
<polyline clip-path="url(#clip632)" style="stroke:#000000; stroke-linecap:round; stroke-linejoin:round; stroke-width:2; stroke-opacity:0.1; fill:none" points="276.227,945.097 2352.76,945.097 "/>
<polyline clip-path="url(#clip632)" style="stroke:#000000; stroke-linecap:round; stroke-linejoin:round; stroke-width:2; stroke-opacity:0.1; fill:none" points="276.227,694.788 2352.76,694.788 "/>
<polyline clip-path="url(#clip632)" style="stroke:#000000; stroke-linecap:round; stroke-linejoin:round; stroke-width:2; stroke-opacity:0.1; fill:none" points="276.227,444.478 2352.76,444.478 "/>
<polyline clip-path="url(#clip632)" style="stroke:#000000; stroke-linecap:round; stroke-linejoin:round; stroke-width:2; stroke-opacity:0.1; fill:none" points="276.227,194.169 2352.76,194.169 "/>
<polyline clip-path="url(#clip630)" style="stroke:#000000; stroke-linecap:round; stroke-linejoin:round; stroke-width:4; stroke-opacity:1; fill:none" points="276.227,1486.45 276.227,47.2441 "/>
<polyline clip-path="url(#clip630)" style="stroke:#000000; stroke-linecap:round; stroke-linejoin:round; stroke-width:4; stroke-opacity:1; fill:none" points="276.227,1445.72 295.125,1445.72 "/>
<polyline clip-path="url(#clip630)" style="stroke:#000000; stroke-linecap:round; stroke-linejoin:round; stroke-width:4; stroke-opacity:1; fill:none" points="276.227,1195.41 295.125,1195.41 "/>
<polyline clip-path="url(#clip630)" style="stroke:#000000; stroke-linecap:round; stroke-linejoin:round; stroke-width:4; stroke-opacity:1; fill:none" points="276.227,945.097 295.125,945.097 "/>
<polyline clip-path="url(#clip630)" style="stroke:#000000; stroke-linecap:round; stroke-linejoin:round; stroke-width:4; stroke-opacity:1; fill:none" points="276.227,694.788 295.125,694.788 "/>
<polyline clip-path="url(#clip630)" style="stroke:#000000; stroke-linecap:round; stroke-linejoin:round; stroke-width:4; stroke-opacity:1; fill:none" points="276.227,444.478 295.125,444.478 "/>
<polyline clip-path="url(#clip630)" style="stroke:#000000; stroke-linecap:round; stroke-linejoin:round; stroke-width:4; stroke-opacity:1; fill:none" points="276.227,194.169 295.125,194.169 "/>
<path clip-path="url(#clip630)" d="M228.283 1431.51 Q224.672 1431.51 222.843 1435.08 Q221.038 1438.62 221.038 1445.75 Q221.038 1452.86 222.843 1456.42 Q224.672 1459.96 228.283 1459.96 Q231.917 1459.96 233.723 1456.42 Q235.551 1452.86 235.551 1445.75 Q235.551 1438.62 233.723 1435.08 Q231.917 1431.51 228.283 1431.51 M228.283 1427.81 Q234.093 1427.81 237.149 1432.42 Q240.227 1437 240.227 1445.75 Q240.227 1454.48 237.149 1459.08 Q234.093 1463.67 228.283 1463.67 Q222.473 1463.67 219.394 1459.08 Q216.338 1454.48 216.338 1445.75 Q216.338 1437 219.394 1432.42 Q222.473 1427.81 228.283 1427.81 Z" fill="#000000" fill-rule="nonzero" fill-opacity="1" /><path clip-path="url(#clip630)" d="M54.5569 1215.2 L62.1958 1215.2 L62.1958 1188.83 L53.8856 1190.5 L53.8856 1186.24 L62.1495 1184.57 L66.8254 1184.57 L66.8254 1215.2 L74.4642 1215.2 L74.4642 1219.13 L54.5569 1219.13 L54.5569 1215.2 Z" fill="#000000" fill-rule="nonzero" fill-opacity="1" /><path clip-path="url(#clip630)" d="M83.9086 1213.25 L88.7928 1213.25 L88.7928 1219.13 L83.9086 1219.13 L83.9086 1213.25 Z" fill="#000000" fill-rule="nonzero" fill-opacity="1" /><path clip-path="url(#clip630)" d="M108.978 1187.65 Q105.367 1187.65 103.538 1191.22 Q101.733 1194.76 101.733 1201.89 Q101.733 1209 103.538 1212.56 Q105.367 1216.1 108.978 1216.1 Q112.612 1216.1 114.418 1212.56 Q116.246 1209 116.246 1201.89 Q116.246 1194.76 114.418 1191.22 Q112.612 1187.65 108.978 1187.65 M108.978 1183.95 Q114.788 1183.95 117.844 1188.56 Q120.922 1193.14 120.922 1201.89 Q120.922 1210.62 117.844 1215.22 Q114.788 1219.81 108.978 1219.81 Q103.168 1219.81 100.089 1215.22 Q97.0335 1210.62 97.0335 1201.89 Q97.0335 1193.14 100.089 1188.56 Q103.168 1183.95 108.978 1183.95 Z" fill="#000000" fill-rule="nonzero" fill-opacity="1" /><path clip-path="url(#clip630)" d="M157.311 1193.67 L146.732 1204.3 L157.311 1214.87 L154.556 1217.68 L143.931 1207.05 L133.306 1217.68 L130.575 1214.87 L141.131 1204.3 L130.575 1193.67 L133.306 1190.87 L143.931 1201.5 L154.556 1190.87 L157.311 1193.67 Z" fill="#000000" fill-rule="nonzero" fill-opacity="1" /><path clip-path="url(#clip630)" d="M169.672 1215.2 L177.311 1215.2 L177.311 1188.83 L169.001 1190.5 L169.001 1186.24 L177.265 1184.57 L181.94 1184.57 L181.94 1215.2 L189.579 1215.2 L189.579 1219.13 L169.672 1219.13 L169.672 1215.2 Z" fill="#000000" fill-rule="nonzero" fill-opacity="1" /><path clip-path="url(#clip630)" d="M209.024 1187.65 Q205.413 1187.65 203.584 1191.22 Q201.778 1194.76 201.778 1201.89 Q201.778 1209 203.584 1212.56 Q205.413 1216.1 209.024 1216.1 Q212.658 1216.1 214.463 1212.56 Q216.292 1209 216.292 1201.89 Q216.292 1194.76 214.463 1191.22 Q212.658 1187.65 209.024 1187.65 M209.024 1183.95 Q214.834 1183.95 217.889 1188.56 Q220.968 1193.14 220.968 1201.89 Q220.968 1210.62 217.889 1215.22 Q214.834 1219.81 209.024 1219.81 Q203.214 1219.81 200.135 1215.22 Q197.079 1210.62 197.079 1201.89 Q197.079 1193.14 200.135 1188.56 Q203.214 1183.95 209.024 1183.95 Z" fill="#000000" fill-rule="nonzero" fill-opacity="1" /><path clip-path="url(#clip630)" d="M230.598 1178.39 Q227.889 1178.39 226.328 1179.84 Q224.786 1181.29 224.786 1183.82 Q224.786 1186.36 226.328 1187.81 Q227.889 1189.26 230.598 1189.26 Q233.306 1189.26 234.867 1187.81 Q236.428 1186.34 236.428 1183.82 Q236.428 1181.29 234.867 1179.84 Q233.325 1178.39 230.598 1178.39 M226.798 1176.77 Q224.353 1176.17 222.98 1174.5 Q221.626 1172.82 221.626 1170.41 Q221.626 1167.05 224.015 1165.09 Q226.422 1163.14 230.598 1163.14 Q234.792 1163.14 237.18 1165.09 Q239.569 1167.05 239.569 1170.41 Q239.569 1172.82 238.196 1174.5 Q236.842 1176.17 234.416 1176.77 Q237.162 1177.41 238.685 1179.27 Q240.227 1181.13 240.227 1183.82 Q240.227 1187.91 237.726 1190.09 Q235.243 1192.27 230.598 1192.27 Q225.952 1192.27 223.451 1190.09 Q220.968 1187.91 220.968 1183.82 Q220.968 1181.13 222.51 1179.27 Q224.053 1177.41 226.798 1176.77 M225.407 1170.77 Q225.407 1172.95 226.761 1174.18 Q228.134 1175.4 230.598 1175.4 Q233.043 1175.4 234.416 1174.18 Q235.807 1172.95 235.807 1170.77 Q235.807 1168.59 234.416 1167.37 Q233.043 1166.15 230.598 1166.15 Q228.134 1166.15 226.761 1167.37 Q225.407 1168.59 225.407 1170.77 Z" fill="#000000" fill-rule="nonzero" fill-opacity="1" /><path clip-path="url(#clip630)" d="M57.7745 964.889 L74.0939 964.889 L74.0939 968.825 L52.1495 968.825 L52.1495 964.889 Q54.8115 962.135 59.3949 957.505 Q64.0013 952.853 65.1819 951.51 Q67.4272 948.987 68.3068 947.251 Q69.2096 945.491 69.2096 943.802 Q69.2096 941.047 67.2652 939.311 Q65.3439 937.575 62.2421 937.575 Q60.043 937.575 57.5893 938.339 Q55.1588 939.103 52.381 940.654 L52.381 935.931 Q55.2051 934.797 57.6588 934.218 Q60.1124 933.64 62.1495 933.64 Q67.5198 933.64 70.7142 936.325 Q73.9087 939.01 73.9087 943.501 Q73.9087 945.63 73.0985 947.552 Q72.3115 949.45 70.205 952.042 Q69.6263 952.714 66.5245 955.931 Q63.4226 959.126 57.7745 964.889 Z" fill="#000000" fill-rule="nonzero" fill-opacity="1" /><path clip-path="url(#clip630)" d="M83.9086 962.945 L88.7928 962.945 L88.7928 968.825 L83.9086 968.825 L83.9086 962.945 Z" fill="#000000" fill-rule="nonzero" fill-opacity="1" /><path clip-path="url(#clip630)" d="M108.978 937.343 Q105.367 937.343 103.538 940.908 Q101.733 944.45 101.733 951.579 Q101.733 958.686 103.538 962.251 Q105.367 965.792 108.978 965.792 Q112.612 965.792 114.418 962.251 Q116.246 958.686 116.246 951.579 Q116.246 944.45 114.418 940.908 Q112.612 937.343 108.978 937.343 M108.978 933.64 Q114.788 933.64 117.844 938.246 Q120.922 942.829 120.922 951.579 Q120.922 960.306 117.844 964.913 Q114.788 969.496 108.978 969.496 Q103.168 969.496 100.089 964.913 Q97.0335 960.306 97.0335 951.579 Q97.0335 942.829 100.089 938.246 Q103.168 933.64 108.978 933.64 Z" fill="#000000" fill-rule="nonzero" fill-opacity="1" /><path clip-path="url(#clip630)" d="M157.311 943.362 L146.732 953.987 L157.311 964.565 L154.556 967.366 L143.931 956.741 L133.306 967.366 L130.575 964.565 L141.131 953.987 L130.575 943.362 L133.306 940.561 L143.931 951.186 L154.556 940.561 L157.311 943.362 Z" fill="#000000" fill-rule="nonzero" fill-opacity="1" /><path clip-path="url(#clip630)" d="M169.672 964.889 L177.311 964.889 L177.311 938.524 L169.001 940.191 L169.001 935.931 L177.265 934.265 L181.94 934.265 L181.94 964.889 L189.579 964.889 L189.579 968.825 L169.672 968.825 L169.672 964.889 Z" fill="#000000" fill-rule="nonzero" fill-opacity="1" /><path clip-path="url(#clip630)" d="M209.024 937.343 Q205.413 937.343 203.584 940.908 Q201.778 944.45 201.778 951.579 Q201.778 958.686 203.584 962.251 Q205.413 965.792 209.024 965.792 Q212.658 965.792 214.463 962.251 Q216.292 958.686 216.292 951.579 Q216.292 944.45 214.463 940.908 Q212.658 937.343 209.024 937.343 M209.024 933.64 Q214.834 933.64 217.889 938.246 Q220.968 942.829 220.968 951.579 Q220.968 960.306 217.889 964.913 Q214.834 969.496 209.024 969.496 Q203.214 969.496 200.135 964.913 Q197.079 960.306 197.079 951.579 Q197.079 942.829 200.135 938.246 Q203.214 933.64 209.024 933.64 Z" fill="#000000" fill-rule="nonzero" fill-opacity="1" /><path clip-path="url(#clip630)" d="M230.598 928.08 Q227.889 928.08 226.328 929.528 Q224.786 930.976 224.786 933.515 Q224.786 936.054 226.328 937.502 Q227.889 938.95 230.598 938.95 Q233.306 938.95 234.867 937.502 Q236.428 936.035 236.428 933.515 Q236.428 930.976 234.867 929.528 Q233.325 928.08 230.598 928.08 M226.798 926.462 Q224.353 925.86 222.98 924.186 Q221.626 922.512 221.626 920.105 Q221.626 916.738 224.015 914.782 Q226.422 912.826 230.598 912.826 Q234.792 912.826 237.18 914.782 Q239.569 916.738 239.569 920.105 Q239.569 922.512 238.196 924.186 Q236.842 925.86 234.416 926.462 Q237.162 927.102 238.685 928.964 Q240.227 930.825 240.227 933.515 Q240.227 937.596 237.726 939.778 Q235.243 941.96 230.598 941.96 Q225.952 941.96 223.451 939.778 Q220.968 937.596 220.968 933.515 Q220.968 930.825 222.51 928.964 Q224.053 927.102 226.798 926.462 M225.407 920.462 Q225.407 922.644 226.761 923.867 Q228.134 925.089 230.598 925.089 Q233.043 925.089 234.416 923.867 Q235.807 922.644 235.807 920.462 Q235.807 918.281 234.416 917.058 Q233.043 915.836 230.598 915.836 Q228.134 915.836 226.761 917.058 Q225.407 918.281 225.407 920.462 Z" fill="#000000" fill-rule="nonzero" fill-opacity="1" /><path clip-path="url(#clip630)" d="M67.9133 699.881 Q71.2698 700.599 73.1448 702.867 Q75.0429 705.136 75.0429 708.469 Q75.0429 713.585 71.5244 716.386 Q68.0059 719.187 61.5245 719.187 Q59.3486 719.187 57.0338 718.747 Q54.7421 718.33 52.2884 717.474 L52.2884 712.96 Q54.2328 714.094 56.5477 714.673 Q58.8625 715.251 61.3856 715.251 Q65.7837 715.251 68.0754 713.515 Q70.3902 711.779 70.3902 708.469 Q70.3902 705.414 68.2374 703.701 Q66.1078 701.964 62.2884 701.964 L58.2606 701.964 L58.2606 698.122 L62.4735 698.122 Q65.9226 698.122 67.7513 696.756 Q69.58 695.367 69.58 692.775 Q69.58 690.113 67.6819 688.701 Q65.8069 687.265 62.2884 687.265 Q60.3671 687.265 58.168 687.682 Q55.969 688.099 53.3301 688.978 L53.3301 684.812 Q55.9921 684.071 58.3069 683.701 Q60.6449 683.33 62.705 683.33 Q68.0291 683.33 71.1309 685.761 Q74.2327 688.168 74.2327 692.289 Q74.2327 695.159 72.5892 697.15 Q70.9457 699.117 67.9133 699.881 Z" fill="#000000" fill-rule="nonzero" fill-opacity="1" /><path clip-path="url(#clip630)" d="M83.9086 712.636 L88.7928 712.636 L88.7928 718.515 L83.9086 718.515 L83.9086 712.636 Z" fill="#000000" fill-rule="nonzero" fill-opacity="1" /><path clip-path="url(#clip630)" d="M108.978 687.034 Q105.367 687.034 103.538 690.599 Q101.733 694.14 101.733 701.27 Q101.733 708.376 103.538 711.941 Q105.367 715.483 108.978 715.483 Q112.612 715.483 114.418 711.941 Q116.246 708.376 116.246 701.27 Q116.246 694.14 114.418 690.599 Q112.612 687.034 108.978 687.034 M108.978 683.33 Q114.788 683.33 117.844 687.937 Q120.922 692.52 120.922 701.27 Q120.922 709.997 117.844 714.603 Q114.788 719.187 108.978 719.187 Q103.168 719.187 100.089 714.603 Q97.0335 709.997 97.0335 701.27 Q97.0335 692.52 100.089 687.937 Q103.168 683.33 108.978 683.33 Z" fill="#000000" fill-rule="nonzero" fill-opacity="1" /><path clip-path="url(#clip630)" d="M157.311 693.053 L146.732 703.677 L157.311 714.256 L154.556 717.057 L143.931 706.432 L133.306 717.057 L130.575 714.256 L141.131 703.677 L130.575 693.053 L133.306 690.252 L143.931 700.877 L154.556 690.252 L157.311 693.053 Z" fill="#000000" fill-rule="nonzero" fill-opacity="1" /><path clip-path="url(#clip630)" d="M169.672 714.58 L177.311 714.58 L177.311 688.215 L169.001 689.881 L169.001 685.622 L177.265 683.955 L181.94 683.955 L181.94 714.58 L189.579 714.58 L189.579 718.515 L169.672 718.515 L169.672 714.58 Z" fill="#000000" fill-rule="nonzero" fill-opacity="1" /><path clip-path="url(#clip630)" d="M209.024 687.034 Q205.413 687.034 203.584 690.599 Q201.778 694.14 201.778 701.27 Q201.778 708.376 203.584 711.941 Q205.413 715.483 209.024 715.483 Q212.658 715.483 214.463 711.941 Q216.292 708.376 216.292 701.27 Q216.292 694.14 214.463 690.599 Q212.658 687.034 209.024 687.034 M209.024 683.33 Q214.834 683.33 217.889 687.937 Q220.968 692.52 220.968 701.27 Q220.968 709.997 217.889 714.603 Q214.834 719.187 209.024 719.187 Q203.214 719.187 200.135 714.603 Q197.079 709.997 197.079 701.27 Q197.079 692.52 200.135 687.937 Q203.214 683.33 209.024 683.33 Z" fill="#000000" fill-rule="nonzero" fill-opacity="1" /><path clip-path="url(#clip630)" d="M230.598 677.77 Q227.889 677.77 226.328 679.218 Q224.786 680.667 224.786 683.206 Q224.786 685.745 226.328 687.193 Q227.889 688.641 230.598 688.641 Q233.306 688.641 234.867 687.193 Q236.428 685.726 236.428 683.206 Q236.428 680.667 234.867 679.218 Q233.325 677.77 230.598 677.77 M226.798 676.153 Q224.353 675.551 222.98 673.877 Q221.626 672.203 221.626 669.796 Q221.626 666.429 224.015 664.473 Q226.422 662.517 230.598 662.517 Q234.792 662.517 237.18 664.473 Q239.569 666.429 239.569 669.796 Q239.569 672.203 238.196 673.877 Q236.842 675.551 234.416 676.153 Q237.162 676.792 238.685 678.654 Q240.227 680.516 240.227 683.206 Q240.227 687.287 237.726 689.469 Q235.243 691.65 230.598 691.65 Q225.952 691.65 223.451 689.469 Q220.968 687.287 220.968 683.206 Q220.968 680.516 222.51 678.654 Q224.053 676.792 226.798 676.153 M225.407 670.153 Q225.407 672.335 226.761 673.557 Q228.134 674.78 230.598 674.78 Q233.043 674.78 234.416 673.557 Q235.807 672.335 235.807 670.153 Q235.807 667.971 234.416 666.749 Q233.043 665.526 230.598 665.526 Q228.134 665.526 226.761 666.749 Q225.407 667.971 225.407 670.153 Z" fill="#000000" fill-rule="nonzero" fill-opacity="1" /><path clip-path="url(#clip630)" d="M66.5939 437.72 L54.7884 456.169 L66.5939 456.169 L66.5939 437.72 M65.367 433.646 L71.2466 433.646 L71.2466 456.169 L76.1772 456.169 L76.1772 460.058 L71.2466 460.058 L71.2466 468.206 L66.5939 468.206 L66.5939 460.058 L50.9921 460.058 L50.9921 455.544 L65.367 433.646 Z" fill="#000000" fill-rule="nonzero" fill-opacity="1" /><path clip-path="url(#clip630)" d="M83.9086 462.326 L88.7928 462.326 L88.7928 468.206 L83.9086 468.206 L83.9086 462.326 Z" fill="#000000" fill-rule="nonzero" fill-opacity="1" /><path clip-path="url(#clip630)" d="M108.978 436.725 Q105.367 436.725 103.538 440.289 Q101.733 443.831 101.733 450.961 Q101.733 458.067 103.538 461.632 Q105.367 465.174 108.978 465.174 Q112.612 465.174 114.418 461.632 Q116.246 458.067 116.246 450.961 Q116.246 443.831 114.418 440.289 Q112.612 436.725 108.978 436.725 M108.978 433.021 Q114.788 433.021 117.844 437.627 Q120.922 442.211 120.922 450.961 Q120.922 459.688 117.844 464.294 Q114.788 468.877 108.978 468.877 Q103.168 468.877 100.089 464.294 Q97.0335 459.688 97.0335 450.961 Q97.0335 442.211 100.089 437.627 Q103.168 433.021 108.978 433.021 Z" fill="#000000" fill-rule="nonzero" fill-opacity="1" /><path clip-path="url(#clip630)" d="M157.311 442.743 L146.732 453.368 L157.311 463.947 L154.556 466.748 L143.931 456.123 L133.306 466.748 L130.575 463.947 L141.131 453.368 L130.575 442.743 L133.306 439.942 L143.931 450.567 L154.556 439.942 L157.311 442.743 Z" fill="#000000" fill-rule="nonzero" fill-opacity="1" /><path clip-path="url(#clip630)" d="M169.672 464.271 L177.311 464.271 L177.311 437.905 L169.001 439.572 L169.001 435.313 L177.265 433.646 L181.94 433.646 L181.94 464.271 L189.579 464.271 L189.579 468.206 L169.672 468.206 L169.672 464.271 Z" fill="#000000" fill-rule="nonzero" fill-opacity="1" /><path clip-path="url(#clip630)" d="M209.024 436.725 Q205.413 436.725 203.584 440.289 Q201.778 443.831 201.778 450.961 Q201.778 458.067 203.584 461.632 Q205.413 465.174 209.024 465.174 Q212.658 465.174 214.463 461.632 Q216.292 458.067 216.292 450.961 Q216.292 443.831 214.463 440.289 Q212.658 436.725 209.024 436.725 M209.024 433.021 Q214.834 433.021 217.889 437.627 Q220.968 442.211 220.968 450.961 Q220.968 459.688 217.889 464.294 Q214.834 468.877 209.024 468.877 Q203.214 468.877 200.135 464.294 Q197.079 459.688 197.079 450.961 Q197.079 442.211 200.135 437.627 Q203.214 433.021 209.024 433.021 Z" fill="#000000" fill-rule="nonzero" fill-opacity="1" /><path clip-path="url(#clip630)" d="M230.598 427.461 Q227.889 427.461 226.328 428.909 Q224.786 430.357 224.786 432.896 Q224.786 435.435 226.328 436.884 Q227.889 438.332 230.598 438.332 Q233.306 438.332 234.867 436.884 Q236.428 435.417 236.428 432.896 Q236.428 430.357 234.867 428.909 Q233.325 427.461 230.598 427.461 M226.798 425.843 Q224.353 425.242 222.98 423.568 Q221.626 421.894 221.626 419.486 Q221.626 416.12 224.015 414.164 Q226.422 412.208 230.598 412.208 Q234.792 412.208 237.18 414.164 Q239.569 416.12 239.569 419.486 Q239.569 421.894 238.196 423.568 Q236.842 425.242 234.416 425.843 Q237.162 426.483 238.685 428.345 Q240.227 430.207 240.227 432.896 Q240.227 436.978 237.726 439.159 Q235.243 441.341 230.598 441.341 Q225.952 441.341 223.451 439.159 Q220.968 436.978 220.968 432.896 Q220.968 430.207 222.51 428.345 Q224.053 426.483 226.798 425.843 M225.407 419.844 Q225.407 422.025 226.761 423.248 Q228.134 424.47 230.598 424.47 Q233.043 424.47 234.416 423.248 Q235.807 422.025 235.807 419.844 Q235.807 417.662 234.416 416.44 Q233.043 415.217 230.598 415.217 Q228.134 415.217 226.761 416.44 Q225.407 417.662 225.407 419.844 Z" fill="#000000" fill-rule="nonzero" fill-opacity="1" /><path clip-path="url(#clip630)" d="M53.793 183.337 L72.1494 183.337 L72.1494 187.272 L58.0754 187.272 L58.0754 195.744 Q59.0939 195.397 60.1124 195.235 Q61.131 195.05 62.1495 195.05 Q67.9365 195.05 71.3161 198.221 Q74.6957 201.392 74.6957 206.809 Q74.6957 212.387 71.2235 215.489 Q67.7513 218.568 61.4319 218.568 Q59.256 218.568 56.9875 218.198 Q54.7421 217.827 52.3347 217.087 L52.3347 212.387 Q54.418 213.522 56.6402 214.077 Q58.8625 214.633 61.3393 214.633 Q65.3439 214.633 67.6819 212.526 Q70.0198 210.42 70.0198 206.809 Q70.0198 203.198 67.6819 201.091 Q65.3439 198.985 61.3393 198.985 Q59.4643 198.985 57.5893 199.401 Q55.7375 199.818 53.793 200.698 L53.793 183.337 Z" fill="#000000" fill-rule="nonzero" fill-opacity="1" /><path clip-path="url(#clip630)" d="M83.9086 212.017 L88.7928 212.017 L88.7928 217.897 L83.9086 217.897 L83.9086 212.017 Z" fill="#000000" fill-rule="nonzero" fill-opacity="1" /><path clip-path="url(#clip630)" d="M108.978 186.415 Q105.367 186.415 103.538 189.98 Q101.733 193.522 101.733 200.651 Q101.733 207.758 103.538 211.323 Q105.367 214.864 108.978 214.864 Q112.612 214.864 114.418 211.323 Q116.246 207.758 116.246 200.651 Q116.246 193.522 114.418 189.98 Q112.612 186.415 108.978 186.415 M108.978 182.712 Q114.788 182.712 117.844 187.318 Q120.922 191.901 120.922 200.651 Q120.922 209.378 117.844 213.985 Q114.788 218.568 108.978 218.568 Q103.168 218.568 100.089 213.985 Q97.0335 209.378 97.0335 200.651 Q97.0335 191.901 100.089 187.318 Q103.168 182.712 108.978 182.712 Z" fill="#000000" fill-rule="nonzero" fill-opacity="1" /><path clip-path="url(#clip630)" d="M157.311 192.434 L146.732 203.059 L157.311 213.637 L154.556 216.438 L143.931 205.813 L133.306 216.438 L130.575 213.637 L141.131 203.059 L130.575 192.434 L133.306 189.633 L143.931 200.258 L154.556 189.633 L157.311 192.434 Z" fill="#000000" fill-rule="nonzero" fill-opacity="1" /><path clip-path="url(#clip630)" d="M169.672 213.962 L177.311 213.962 L177.311 187.596 L169.001 189.263 L169.001 185.003 L177.265 183.337 L181.94 183.337 L181.94 213.962 L189.579 213.962 L189.579 217.897 L169.672 217.897 L169.672 213.962 Z" fill="#000000" fill-rule="nonzero" fill-opacity="1" /><path clip-path="url(#clip630)" d="M209.024 186.415 Q205.413 186.415 203.584 189.98 Q201.778 193.522 201.778 200.651 Q201.778 207.758 203.584 211.323 Q205.413 214.864 209.024 214.864 Q212.658 214.864 214.463 211.323 Q216.292 207.758 216.292 200.651 Q216.292 193.522 214.463 189.98 Q212.658 186.415 209.024 186.415 M209.024 182.712 Q214.834 182.712 217.889 187.318 Q220.968 191.901 220.968 200.651 Q220.968 209.378 217.889 213.985 Q214.834 218.568 209.024 218.568 Q203.214 218.568 200.135 213.985 Q197.079 209.378 197.079 200.651 Q197.079 191.901 200.135 187.318 Q203.214 182.712 209.024 182.712 Z" fill="#000000" fill-rule="nonzero" fill-opacity="1" /><path clip-path="url(#clip630)" d="M230.598 177.152 Q227.889 177.152 226.328 178.6 Q224.786 180.048 224.786 182.587 Q224.786 185.126 226.328 186.574 Q227.889 188.022 230.598 188.022 Q233.306 188.022 234.867 186.574 Q236.428 185.107 236.428 182.587 Q236.428 180.048 234.867 178.6 Q233.325 177.152 230.598 177.152 M226.798 175.534 Q224.353 174.932 222.98 173.258 Q221.626 171.584 221.626 169.177 Q221.626 165.81 224.015 163.854 Q226.422 161.898 230.598 161.898 Q234.792 161.898 237.18 163.854 Q239.569 165.81 239.569 169.177 Q239.569 171.584 238.196 173.258 Q236.842 174.932 234.416 175.534 Q237.162 176.174 238.685 178.036 Q240.227 179.898 240.227 182.587 Q240.227 186.668 237.726 188.85 Q235.243 191.032 230.598 191.032 Q225.952 191.032 223.451 188.85 Q220.968 186.668 220.968 182.587 Q220.968 179.898 222.51 178.036 Q224.053 176.174 226.798 175.534 M225.407 169.534 Q225.407 171.716 226.761 172.939 Q228.134 174.161 230.598 174.161 Q233.043 174.161 234.416 172.939 Q235.807 171.716 235.807 169.534 Q235.807 167.353 234.416 166.13 Q233.043 164.908 230.598 164.908 Q228.134 164.908 226.761 166.13 Q225.407 167.353 225.407 169.534 Z" fill="#000000" fill-rule="nonzero" fill-opacity="1" /><path clip-path="url(#clip632)" d="M390.44 87.9763 L390.44 983.278 L869.578 983.278 L869.578 87.9763 L390.44 87.9763 L390.44 87.9763  Z" fill="#009af9" fill-rule="evenodd" fill-opacity="1"/>
<polyline clip-path="url(#clip632)" style="stroke:#000000; stroke-linecap:round; stroke-linejoin:round; stroke-width:4; stroke-opacity:1; fill:none" points="390.44,87.9763 390.44,983.278 869.578,983.278 869.578,87.9763 390.44,87.9763 "/>
<path clip-path="url(#clip632)" d="M1074.92 661.949 L1074.92 1274.62 L1554.06 1274.62 L1554.06 661.949 L1074.92 661.949 L1074.92 661.949  Z" fill="#009af9" fill-rule="evenodd" fill-opacity="1"/>
<polyline clip-path="url(#clip632)" style="stroke:#000000; stroke-linecap:round; stroke-linejoin:round; stroke-width:4; stroke-opacity:1; fill:none" points="1074.92,661.949 1074.92,1274.62 1554.06,1274.62 1554.06,661.949 1074.92,661.949 "/>
<path clip-path="url(#clip632)" d="M1759.41 1340.06 L1759.41 1432.71 L2238.54 1432.71 L2238.54 1340.06 L1759.41 1340.06 L1759.41 1340.06  Z" fill="#009af9" fill-rule="evenodd" fill-opacity="1"/>
<polyline clip-path="url(#clip632)" style="stroke:#000000; stroke-linecap:round; stroke-linejoin:round; stroke-width:4; stroke-opacity:1; fill:none" points="1759.41,1340.06 1759.41,1432.71 2238.54,1432.71 2238.54,1340.06 1759.41,1340.06 "/>
<circle clip-path="url(#clip632)" style="fill:#009af9; stroke:none; fill-opacity:0" cx="630.009" cy="87.9763" r="2"/>
<circle clip-path="url(#clip632)" style="fill:#009af9; stroke:none; fill-opacity:0" cx="1314.49" cy="661.949" r="2"/>
<circle clip-path="url(#clip632)" style="fill:#009af9; stroke:none; fill-opacity:0" cx="1998.97" cy="1340.06" r="2"/>
<path clip-path="url(#clip632)" d="M390.44 983.278 L390.44 1311.47 L869.578 1311.47 L869.578 983.278 L390.44 983.278 L390.44 983.278  Z" fill="#e26f46" fill-rule="evenodd" fill-opacity="1"/>
<polyline clip-path="url(#clip632)" style="stroke:#000000; stroke-linecap:round; stroke-linejoin:round; stroke-width:4; stroke-opacity:1; fill:none" points="390.44,983.278 390.44,1311.47 869.578,1311.47 869.578,983.278 390.44,983.278 "/>
<path clip-path="url(#clip632)" d="M1074.92 1274.62 L1074.92 1274.62 L1554.06 1274.62 L1554.06 1274.62 L1074.92 1274.62 L1074.92 1274.62  Z" fill="#e26f46" fill-rule="evenodd" fill-opacity="1"/>
<polyline clip-path="url(#clip632)" style="stroke:#000000; stroke-linecap:round; stroke-linejoin:round; stroke-width:4; stroke-opacity:1; fill:none" points="1074.92,1274.62 1074.92,1274.62 1554.06,1274.62 1074.92,1274.62 "/>
<path clip-path="url(#clip632)" d="M1759.41 1432.71 L1759.41 1439.84 L2238.54 1439.84 L2238.54 1432.71 L1759.41 1432.71 L1759.41 1432.71  Z" fill="#e26f46" fill-rule="evenodd" fill-opacity="1"/>
<polyline clip-path="url(#clip632)" style="stroke:#000000; stroke-linecap:round; stroke-linejoin:round; stroke-width:4; stroke-opacity:1; fill:none" points="1759.41,1432.71 1759.41,1439.84 2238.54,1439.84 2238.54,1432.71 1759.41,1432.71 "/>
<circle clip-path="url(#clip632)" style="fill:#e26f46; stroke:none; fill-opacity:0" cx="630.009" cy="983.278" r="2"/>
<circle clip-path="url(#clip632)" style="fill:#e26f46; stroke:none; fill-opacity:0" cx="1314.49" cy="1274.62" r="2"/>
<circle clip-path="url(#clip632)" style="fill:#e26f46; stroke:none; fill-opacity:0" cx="1998.97" cy="1432.71" r="2"/>
<path clip-path="url(#clip632)" d="M390.44 1311.47 L390.44 1374.04 L869.578 1374.04 L869.578 1311.47 L390.44 1311.47 L390.44 1311.47  Z" fill="#3da44d" fill-rule="evenodd" fill-opacity="1"/>
<polyline clip-path="url(#clip632)" style="stroke:#000000; stroke-linecap:round; stroke-linejoin:round; stroke-width:4; stroke-opacity:1; fill:none" points="390.44,1311.47 390.44,1374.04 869.578,1374.04 869.578,1311.47 390.44,1311.47 "/>
<path clip-path="url(#clip632)" d="M1074.92 1274.62 L1074.92 1275.6 L1554.06 1275.6 L1554.06 1274.62 L1074.92 1274.62 L1074.92 1274.62  Z" fill="#3da44d" fill-rule="evenodd" fill-opacity="1"/>
<polyline clip-path="url(#clip632)" style="stroke:#000000; stroke-linecap:round; stroke-linejoin:round; stroke-width:4; stroke-opacity:1; fill:none" points="1074.92,1274.62 1074.92,1275.6 1554.06,1275.6 1554.06,1274.62 1074.92,1274.62 "/>
<path clip-path="url(#clip632)" d="M1759.41 1439.84 L1759.41 1442.76 L2238.54 1442.76 L2238.54 1439.84 L1759.41 1439.84 L1759.41 1439.84  Z" fill="#3da44d" fill-rule="evenodd" fill-opacity="1"/>
<polyline clip-path="url(#clip632)" style="stroke:#000000; stroke-linecap:round; stroke-linejoin:round; stroke-width:4; stroke-opacity:1; fill:none" points="1759.41,1439.84 1759.41,1442.76 2238.54,1442.76 2238.54,1439.84 1759.41,1439.84 "/>
<circle clip-path="url(#clip632)" style="fill:#3da44d; stroke:none; fill-opacity:0" cx="630.009" cy="1311.47" r="2"/>
<circle clip-path="url(#clip632)" style="fill:#3da44d; stroke:none; fill-opacity:0" cx="1314.49" cy="1274.62" r="2"/>
<circle clip-path="url(#clip632)" style="fill:#3da44d; stroke:none; fill-opacity:0" cx="1998.97" cy="1439.84" r="2"/>
<path clip-path="url(#clip632)" d="M390.44 1374.04 L390.44 1374.04 L869.578 1374.04 L869.578 1374.04 L390.44 1374.04 L390.44 1374.04  Z" fill="#c271d2" fill-rule="evenodd" fill-opacity="1"/>
<polyline clip-path="url(#clip632)" style="stroke:#000000; stroke-linecap:round; stroke-linejoin:round; stroke-width:4; stroke-opacity:1; fill:none" points="390.44,1374.04 390.44,1374.04 869.578,1374.04 390.44,1374.04 "/>
<path clip-path="url(#clip632)" d="M1074.92 1275.6 L1074.92 1438.3 L1554.06 1438.3 L1554.06 1275.6 L1074.92 1275.6 L1074.92 1275.6  Z" fill="#c271d2" fill-rule="evenodd" fill-opacity="1"/>
<polyline clip-path="url(#clip632)" style="stroke:#000000; stroke-linecap:round; stroke-linejoin:round; stroke-width:4; stroke-opacity:1; fill:none" points="1074.92,1275.6 1074.92,1438.3 1554.06,1438.3 1554.06,1275.6 1074.92,1275.6 "/>
<path clip-path="url(#clip632)" d="M1759.41 1442.76 L1759.41 1442.76 L2238.54 1442.76 L2238.54 1442.76 L1759.41 1442.76 L1759.41 1442.76  Z" fill="#c271d2" fill-rule="evenodd" fill-opacity="1"/>
<polyline clip-path="url(#clip632)" style="stroke:#000000; stroke-linecap:round; stroke-linejoin:round; stroke-width:4; stroke-opacity:1; fill:none" points="1759.41,1442.76 1759.41,1442.76 2238.54,1442.76 1759.41,1442.76 "/>
<circle clip-path="url(#clip632)" style="fill:#c271d2; stroke:none; fill-opacity:0" cx="630.009" cy="1374.04" r="2"/>
<circle clip-path="url(#clip632)" style="fill:#c271d2; stroke:none; fill-opacity:0" cx="1314.49" cy="1275.6" r="2"/>
<circle clip-path="url(#clip632)" style="fill:#c271d2; stroke:none; fill-opacity:0" cx="1998.97" cy="1442.76" r="2"/>
<path clip-path="url(#clip632)" d="M390.44 1374.04 L390.44 1445.72 L869.578 1445.72 L869.578 1374.04 L390.44 1374.04 L390.44 1374.04  Z" fill="#ac8d18" fill-rule="evenodd" fill-opacity="1"/>
<polyline clip-path="url(#clip632)" style="stroke:#000000; stroke-linecap:round; stroke-linejoin:round; stroke-width:4; stroke-opacity:1; fill:none" points="390.44,1374.04 390.44,1445.72 869.578,1445.72 869.578,1374.04 390.44,1374.04 "/>
<path clip-path="url(#clip632)" d="M1074.92 1438.3 L1074.92 1445.72 L1554.06 1445.72 L1554.06 1438.3 L1074.92 1438.3 L1074.92 1438.3  Z" fill="#ac8d18" fill-rule="evenodd" fill-opacity="1"/>
<polyline clip-path="url(#clip632)" style="stroke:#000000; stroke-linecap:round; stroke-linejoin:round; stroke-width:4; stroke-opacity:1; fill:none" points="1074.92,1438.3 1074.92,1445.72 1554.06,1445.72 1554.06,1438.3 1074.92,1438.3 "/>
<path clip-path="url(#clip632)" d="M1759.41 1442.76 L1759.41 1445.72 L2238.54 1445.72 L2238.54 1442.76 L1759.41 1442.76 L1759.41 1442.76  Z" fill="#ac8d18" fill-rule="evenodd" fill-opacity="1"/>
<polyline clip-path="url(#clip632)" style="stroke:#000000; stroke-linecap:round; stroke-linejoin:round; stroke-width:4; stroke-opacity:1; fill:none" points="1759.41,1442.76 1759.41,1445.72 2238.54,1445.72 2238.54,1442.76 1759.41,1442.76 "/>
<circle clip-path="url(#clip632)" style="fill:#ac8d18; stroke:none; fill-opacity:0" cx="630.009" cy="1374.04" r="2"/>
<circle clip-path="url(#clip632)" style="fill:#ac8d18; stroke:none; fill-opacity:0" cx="1314.49" cy="1438.3" r="2"/>
<circle clip-path="url(#clip632)" style="fill:#ac8d18; stroke:none; fill-opacity:0" cx="1998.97" cy="1442.76" r="2"/>
<path clip-path="url(#clip630)" d="M1791.6 406.258 L2283.54 406.258 L2283.54 95.2176 L1791.6 95.2176  Z" fill="#ffffff" fill-rule="evenodd" fill-opacity="1"/>
<polyline clip-path="url(#clip630)" style="stroke:#000000; stroke-linecap:round; stroke-linejoin:round; stroke-width:4; stroke-opacity:1; fill:none" points="1791.6,406.258 2283.54,406.258 2283.54,95.2176 1791.6,95.2176 1791.6,406.258 "/>
<path clip-path="url(#clip630)" d="M1814.68 167.794 L1953.11 167.794 L1953.11 126.322 L1814.68 126.322 L1814.68 167.794  Z" fill="#009af9" fill-rule="evenodd" fill-opacity="1"/>
<polyline clip-path="url(#clip630)" style="stroke:#000000; stroke-linecap:round; stroke-linejoin:round; stroke-width:4; stroke-opacity:1; fill:none" points="1814.68,167.794 1953.11,167.794 1953.11,126.322 1814.68,126.322 1814.68,167.794 "/>
<path clip-path="url(#clip630)" d="M1976.18 129.778 L1980.91 129.778 L1988.18 158.99 L1995.42 129.778 L2000.68 129.778 L2007.94 158.99 L2015.19 129.778 L2019.93 129.778 L2011.25 164.338 L2005.37 164.338 L1998.08 134.338 L1990.72 164.338 L1984.84 164.338 L1976.18 129.778 Z" fill="#000000" fill-rule="nonzero" fill-opacity="1" /><path clip-path="url(#clip630)" d="M2024.91 138.412 L2029.17 138.412 L2029.17 164.338 L2024.91 164.338 L2024.91 138.412 M2024.91 128.319 L2029.17 128.319 L2029.17 133.713 L2024.91 133.713 L2024.91 128.319 Z" fill="#000000" fill-rule="nonzero" fill-opacity="1" /><path clip-path="url(#clip630)" d="M2059.63 148.689 L2059.63 164.338 L2055.37 164.338 L2055.37 148.828 Q2055.37 145.148 2053.94 143.319 Q2052.5 141.49 2049.63 141.49 Q2046.18 141.49 2044.19 143.69 Q2042.2 145.889 2042.2 149.685 L2042.2 164.338 L2037.92 164.338 L2037.92 138.412 L2042.2 138.412 L2042.2 142.44 Q2043.73 140.102 2045.79 138.944 Q2047.87 137.787 2050.58 137.787 Q2055.05 137.787 2057.34 140.565 Q2059.63 143.319 2059.63 148.689 Z" fill="#000000" fill-rule="nonzero" fill-opacity="1" /><path clip-path="url(#clip630)" d="M2085.19 142.347 L2085.19 128.319 L2089.45 128.319 L2089.45 164.338 L2085.19 164.338 L2085.19 160.449 Q2083.85 162.763 2081.79 163.898 Q2079.75 165.009 2076.88 165.009 Q2072.18 165.009 2069.22 161.259 Q2066.28 157.509 2066.28 151.398 Q2066.28 145.287 2069.22 141.537 Q2072.18 137.787 2076.88 137.787 Q2079.75 137.787 2081.79 138.921 Q2083.85 140.032 2085.19 142.347 M2070.68 151.398 Q2070.68 156.097 2072.6 158.782 Q2074.54 161.444 2077.92 161.444 Q2081.3 161.444 2083.24 158.782 Q2085.19 156.097 2085.19 151.398 Q2085.19 146.699 2083.24 144.037 Q2081.3 141.352 2077.92 141.352 Q2074.54 141.352 2072.6 144.037 Q2070.68 146.699 2070.68 151.398 Z" fill="#000000" fill-rule="nonzero" fill-opacity="1" /><path clip-path="url(#clip630)" d="M1814.68 219.634 L1953.11 219.634 L1953.11 178.162 L1814.68 178.162 L1814.68 219.634  Z" fill="#e26f46" fill-rule="evenodd" fill-opacity="1"/>
<polyline clip-path="url(#clip630)" style="stroke:#000000; stroke-linecap:round; stroke-linejoin:round; stroke-width:4; stroke-opacity:1; fill:none" points="1814.68,219.634 1953.11,219.634 1953.11,178.162 1814.68,178.162 1814.68,219.634 "/>
<path clip-path="url(#clip630)" d="M1980.86 185.46 L1980.86 198.446 L1986.74 198.446 Q1990 198.446 1991.79 196.756 Q1993.57 195.067 1993.57 191.942 Q1993.57 188.84 1991.79 187.15 Q1990 185.46 1986.74 185.46 L1980.86 185.46 M1976.18 181.618 L1986.74 181.618 Q1992.55 181.618 1995.51 184.256 Q1998.5 186.872 1998.5 191.942 Q1998.5 197.057 1995.51 199.673 Q1992.55 202.289 1986.74 202.289 L1980.86 202.289 L1980.86 216.178 L1976.18 216.178 L1976.18 181.618 Z" fill="#000000" fill-rule="nonzero" fill-opacity="1" /><path clip-path="url(#clip630)" d="M2013.68 216.178 L2000.49 181.618 L2005.37 181.618 L2016.32 210.715 L2027.3 181.618 L2032.16 181.618 L2018.99 216.178 L2013.68 216.178 Z" fill="#000000" fill-rule="nonzero" fill-opacity="1" /><path clip-path="url(#clip630)" d="M1814.68 271.474 L1953.11 271.474 L1953.11 230.002 L1814.68 230.002 L1814.68 271.474  Z" fill="#3da44d" fill-rule="evenodd" fill-opacity="1"/>
<polyline clip-path="url(#clip630)" style="stroke:#000000; stroke-linecap:round; stroke-linejoin:round; stroke-width:4; stroke-opacity:1; fill:none" points="1814.68,271.474 1953.11,271.474 1953.11,230.002 1814.68,230.002 1814.68,271.474 "/>
<path clip-path="url(#clip630)" d="M2001.74 263.087 L2001.74 253.805 L1994.1 253.805 L1994.1 249.962 L2006.37 249.962 L2006.37 264.8 Q2003.66 266.721 2000.4 267.717 Q1997.13 268.689 1993.43 268.689 Q1985.33 268.689 1980.75 263.967 Q1976.18 259.221 1976.18 250.772 Q1976.18 242.3 1980.75 237.578 Q1985.33 232.833 1993.43 232.833 Q1996.81 232.833 1999.84 233.666 Q2002.9 234.499 2005.47 236.12 L2005.47 241.096 Q2002.87 238.897 1999.96 237.786 Q1997.04 236.675 1993.82 236.675 Q1987.48 236.675 1984.29 240.217 Q1981.12 243.758 1981.12 250.772 Q1981.12 257.763 1984.29 261.305 Q1987.48 264.846 1993.82 264.846 Q1996.3 264.846 1998.24 264.43 Q2000.19 263.99 2001.74 263.087 Z" fill="#000000" fill-rule="nonzero" fill-opacity="1" /><path clip-path="url(#clip630)" d="M2026.51 254.985 Q2021.35 254.985 2019.36 256.166 Q2017.37 257.346 2017.37 260.194 Q2017.37 262.462 2018.85 263.805 Q2020.35 265.124 2022.92 265.124 Q2026.46 265.124 2028.59 262.624 Q2030.74 260.101 2030.74 255.934 L2030.74 254.985 L2026.51 254.985 M2035 253.226 L2035 268.018 L2030.74 268.018 L2030.74 264.082 Q2029.29 266.443 2027.11 267.578 Q2024.93 268.689 2021.79 268.689 Q2017.81 268.689 2015.44 266.467 Q2013.11 264.221 2013.11 260.471 Q2013.11 256.096 2016.02 253.874 Q2018.96 251.652 2024.77 251.652 L2030.74 251.652 L2030.74 251.235 Q2030.74 248.295 2028.8 246.698 Q2026.88 245.078 2023.38 245.078 Q2021.16 245.078 2019.05 245.61 Q2016.95 246.143 2015 247.207 L2015 243.272 Q2017.34 242.37 2019.54 241.93 Q2021.74 241.467 2023.82 241.467 Q2029.45 241.467 2032.23 244.383 Q2035 247.3 2035 253.226 Z" fill="#000000" fill-rule="nonzero" fill-opacity="1" /><path clip-path="url(#clip630)" d="M2060.3 242.856 L2060.3 246.883 Q2058.5 245.957 2056.55 245.495 Q2054.61 245.032 2052.53 245.032 Q2049.36 245.032 2047.76 246.004 Q2046.18 246.976 2046.18 248.92 Q2046.18 250.402 2047.32 251.258 Q2048.45 252.092 2051.88 252.856 L2053.34 253.18 Q2057.87 254.152 2059.77 255.934 Q2061.69 257.694 2061.69 260.865 Q2061.69 264.476 2058.82 266.582 Q2055.98 268.689 2050.98 268.689 Q2048.89 268.689 2046.62 268.272 Q2044.38 267.879 2041.88 267.068 L2041.88 262.67 Q2044.24 263.897 2046.53 264.522 Q2048.82 265.124 2051.07 265.124 Q2054.08 265.124 2055.7 264.106 Q2057.32 263.064 2057.32 261.189 Q2057.32 259.453 2056.14 258.527 Q2054.98 257.601 2051.02 256.744 L2049.54 256.397 Q2045.58 255.564 2043.82 253.851 Q2042.06 252.115 2042.06 249.106 Q2042.06 245.448 2044.66 243.458 Q2047.25 241.467 2052.02 241.467 Q2054.38 241.467 2056.46 241.814 Q2058.55 242.161 2060.3 242.856 Z" fill="#000000" fill-rule="nonzero" fill-opacity="1" /><path clip-path="url(#clip630)" d="M1814.68 323.314 L1953.11 323.314 L1953.11 281.842 L1814.68 281.842 L1814.68 323.314  Z" fill="#c271d2" fill-rule="evenodd" fill-opacity="1"/>
<polyline clip-path="url(#clip630)" style="stroke:#000000; stroke-linecap:round; stroke-linejoin:round; stroke-width:4; stroke-opacity:1; fill:none" points="1814.68,323.314 1953.11,323.314 1953.11,281.842 1814.68,281.842 1814.68,323.314 "/>
<path clip-path="url(#clip630)" d="M1976.18 285.298 L1980.86 285.298 L1980.86 299.464 L1997.85 299.464 L1997.85 285.298 L2002.53 285.298 L2002.53 319.858 L1997.85 319.858 L1997.85 303.399 L1980.86 303.399 L1980.86 319.858 L1976.18 319.858 L1976.18 285.298 Z" fill="#000000" fill-rule="nonzero" fill-opacity="1" /><path clip-path="url(#clip630)" d="M2022.43 322.265 Q2020.63 326.895 2018.92 328.307 Q2017.2 329.719 2014.33 329.719 L2010.93 329.719 L2010.93 326.154 L2013.43 326.154 Q2015.19 326.154 2016.16 325.32 Q2017.13 324.487 2018.31 321.385 L2019.08 319.441 L2008.59 293.932 L2013.11 293.932 L2021.21 314.209 L2029.31 293.932 L2033.82 293.932 L2022.43 322.265 Z" fill="#000000" fill-rule="nonzero" fill-opacity="1" /><path clip-path="url(#clip630)" d="M2056.76 297.867 L2056.76 283.839 L2061.02 283.839 L2061.02 319.858 L2056.76 319.858 L2056.76 315.969 Q2055.42 318.283 2053.36 319.418 Q2051.32 320.529 2048.45 320.529 Q2043.75 320.529 2040.79 316.779 Q2037.85 313.029 2037.85 306.918 Q2037.85 300.807 2040.79 297.057 Q2043.75 293.307 2048.45 293.307 Q2051.32 293.307 2053.36 294.441 Q2055.42 295.552 2056.76 297.867 M2042.25 306.918 Q2042.25 311.617 2044.17 314.302 Q2046.12 316.964 2049.49 316.964 Q2052.87 316.964 2054.82 314.302 Q2056.76 311.617 2056.76 306.918 Q2056.76 302.219 2054.82 299.557 Q2052.87 296.872 2049.49 296.872 Q2046.12 296.872 2044.17 299.557 Q2042.25 302.219 2042.25 306.918 Z" fill="#000000" fill-rule="nonzero" fill-opacity="1" /><path clip-path="url(#clip630)" d="M2084.82 297.913 Q2084.1 297.497 2083.24 297.311 Q2082.41 297.103 2081.39 297.103 Q2077.78 297.103 2075.84 299.464 Q2073.92 301.802 2073.92 306.2 L2073.92 319.858 L2069.63 319.858 L2069.63 293.932 L2073.92 293.932 L2073.92 297.96 Q2075.26 295.598 2077.41 294.464 Q2079.56 293.307 2082.64 293.307 Q2083.08 293.307 2083.61 293.376 Q2084.15 293.423 2084.8 293.538 L2084.82 297.913 Z" fill="#000000" fill-rule="nonzero" fill-opacity="1" /><path clip-path="url(#clip630)" d="M2098.29 296.918 Q2094.86 296.918 2092.87 299.603 Q2090.88 302.265 2090.88 306.918 Q2090.88 311.571 2092.85 314.256 Q2094.84 316.918 2098.29 316.918 Q2101.69 316.918 2103.68 314.233 Q2105.67 311.547 2105.67 306.918 Q2105.67 302.311 2103.68 299.626 Q2101.69 296.918 2098.29 296.918 M2098.29 293.307 Q2103.85 293.307 2107.02 296.918 Q2110.19 300.529 2110.19 306.918 Q2110.19 313.284 2107.02 316.918 Q2103.85 320.529 2098.29 320.529 Q2092.71 320.529 2089.54 316.918 Q2086.39 313.284 2086.39 306.918 Q2086.39 300.529 2089.54 296.918 Q2092.71 293.307 2098.29 293.307 Z" fill="#000000" fill-rule="nonzero" fill-opacity="1" /><path clip-path="url(#clip630)" d="M1814.68 375.154 L1953.11 375.154 L1953.11 333.682 L1814.68 333.682 L1814.68 375.154  Z" fill="#ac8d18" fill-rule="evenodd" fill-opacity="1"/>
<polyline clip-path="url(#clip630)" style="stroke:#000000; stroke-linecap:round; stroke-linejoin:round; stroke-width:4; stroke-opacity:1; fill:none" points="1814.68,375.154 1953.11,375.154 1953.11,333.682 1814.68,333.682 1814.68,375.154 "/>
<path clip-path="url(#clip630)" d="M1980.86 355.193 L1980.86 367.855 L1988.36 367.855 Q1992.13 367.855 1993.94 366.304 Q1995.77 364.73 1995.77 361.512 Q1995.77 358.272 1993.94 356.744 Q1992.13 355.193 1988.36 355.193 L1980.86 355.193 M1980.86 340.98 L1980.86 351.397 L1987.78 351.397 Q1991.21 351.397 1992.87 350.124 Q1994.56 348.827 1994.56 346.188 Q1994.56 343.573 1992.87 342.276 Q1991.21 340.98 1987.78 340.98 L1980.86 340.98 M1976.18 337.138 L1988.13 337.138 Q1993.48 337.138 1996.37 339.36 Q1999.26 341.582 1999.26 345.679 Q1999.26 348.85 1997.78 350.725 Q1996.3 352.6 1993.43 353.063 Q1996.88 353.804 1998.78 356.165 Q2000.7 358.503 2000.7 362.022 Q2000.7 366.651 1997.55 369.174 Q1994.4 371.698 1988.59 371.698 L1976.18 371.698 L1976.18 337.138 Z" fill="#000000" fill-rule="nonzero" fill-opacity="1" /><path clip-path="url(#clip630)" d="M2020.3 358.665 Q2015.14 358.665 2013.15 359.846 Q2011.16 361.026 2011.16 363.874 Q2011.16 366.142 2012.64 367.485 Q2014.15 368.804 2016.72 368.804 Q2020.26 368.804 2022.39 366.304 Q2024.54 363.781 2024.54 359.614 L2024.54 358.665 L2020.3 358.665 M2028.8 356.906 L2028.8 371.698 L2024.54 371.698 L2024.54 367.762 Q2023.08 370.123 2020.91 371.258 Q2018.73 372.369 2015.58 372.369 Q2011.6 372.369 2009.24 370.147 Q2006.9 367.901 2006.9 364.151 Q2006.9 359.776 2009.82 357.554 Q2012.76 355.332 2018.57 355.332 L2024.54 355.332 L2024.54 354.915 Q2024.54 351.975 2022.6 350.378 Q2020.68 348.758 2017.18 348.758 Q2014.96 348.758 2012.85 349.29 Q2010.74 349.823 2008.8 350.887 L2008.8 346.952 Q2011.14 346.05 2013.34 345.61 Q2015.54 345.147 2017.62 345.147 Q2023.24 345.147 2026.02 348.063 Q2028.8 350.98 2028.8 356.906 Z" fill="#000000" fill-rule="nonzero" fill-opacity="1" /><path clip-path="url(#clip630)" d="M2041.79 338.411 L2041.79 345.772 L2050.56 345.772 L2050.56 349.082 L2041.79 349.082 L2041.79 363.156 Q2041.79 366.327 2042.64 367.23 Q2043.52 368.133 2046.18 368.133 L2050.56 368.133 L2050.56 371.698 L2046.18 371.698 Q2041.25 371.698 2039.38 369.869 Q2037.5 368.017 2037.5 363.156 L2037.5 349.082 L2034.38 349.082 L2034.38 345.772 L2037.5 345.772 L2037.5 338.411 L2041.79 338.411 Z" fill="#000000" fill-rule="nonzero" fill-opacity="1" /><path clip-path="url(#clip630)" d="M2060.37 338.411 L2060.37 345.772 L2069.15 345.772 L2069.15 349.082 L2060.37 349.082 L2060.37 363.156 Q2060.37 366.327 2061.23 367.23 Q2062.11 368.133 2064.77 368.133 L2069.15 368.133 L2069.15 371.698 L2064.77 371.698 Q2059.84 371.698 2057.97 369.869 Q2056.09 368.017 2056.09 363.156 L2056.09 349.082 L2052.97 349.082 L2052.97 345.772 L2056.09 345.772 L2056.09 338.411 L2060.37 338.411 Z" fill="#000000" fill-rule="nonzero" fill-opacity="1" /><path clip-path="url(#clip630)" d="M2096.92 357.67 L2096.92 359.753 L2077.34 359.753 Q2077.62 364.151 2079.98 366.466 Q2082.36 368.758 2086.6 368.758 Q2089.05 368.758 2091.35 368.156 Q2093.66 367.554 2095.93 366.35 L2095.93 370.378 Q2093.64 371.35 2091.23 371.86 Q2088.82 372.369 2086.35 372.369 Q2080.14 372.369 2076.51 368.758 Q2072.9 365.147 2072.9 358.989 Q2072.9 352.624 2076.32 348.897 Q2079.77 345.147 2085.61 345.147 Q2090.84 345.147 2093.87 348.526 Q2096.92 351.883 2096.92 357.67 M2092.67 356.42 Q2092.62 352.925 2090.7 350.841 Q2088.8 348.758 2085.65 348.758 Q2082.09 348.758 2079.93 350.772 Q2077.8 352.786 2077.48 356.443 L2092.67 356.42 Z" fill="#000000" fill-rule="nonzero" fill-opacity="1" /><path clip-path="url(#clip630)" d="M2118.94 349.753 Q2118.22 349.337 2117.36 349.151 Q2116.53 348.943 2115.51 348.943 Q2111.9 348.943 2109.96 351.304 Q2108.04 353.642 2108.04 358.04 L2108.04 371.698 L2103.75 371.698 L2103.75 345.772 L2108.04 345.772 L2108.04 349.8 Q2109.38 347.438 2111.53 346.304 Q2113.68 345.147 2116.76 345.147 Q2117.2 345.147 2117.74 345.216 Q2118.27 345.263 2118.92 345.378 L2118.94 349.753 Z" fill="#000000" fill-rule="nonzero" fill-opacity="1" /><path clip-path="url(#clip630)" d="M2135.19 358.665 Q2130.03 358.665 2128.04 359.846 Q2126.05 361.026 2126.05 363.874 Q2126.05 366.142 2127.53 367.485 Q2129.03 368.804 2131.6 368.804 Q2135.14 368.804 2137.27 366.304 Q2139.42 363.781 2139.42 359.614 L2139.42 358.665 L2135.19 358.665 M2143.68 356.906 L2143.68 371.698 L2139.42 371.698 L2139.42 367.762 Q2137.97 370.123 2135.79 371.258 Q2133.61 372.369 2130.47 372.369 Q2126.48 372.369 2124.12 370.147 Q2121.79 367.901 2121.79 364.151 Q2121.79 359.776 2124.7 357.554 Q2127.64 355.332 2133.45 355.332 L2139.42 355.332 L2139.42 354.915 Q2139.42 351.975 2137.48 350.378 Q2135.56 348.758 2132.06 348.758 Q2129.84 348.758 2127.73 349.29 Q2125.63 349.823 2123.68 350.887 L2123.68 346.952 Q2126.02 346.05 2128.22 345.61 Q2130.42 345.147 2132.5 345.147 Q2138.13 345.147 2140.91 348.063 Q2143.68 350.98 2143.68 356.906 Z" fill="#000000" fill-rule="nonzero" fill-opacity="1" /><path clip-path="url(#clip630)" d="M2156.67 338.411 L2156.67 345.772 L2165.44 345.772 L2165.44 349.082 L2156.67 349.082 L2156.67 363.156 Q2156.67 366.327 2157.53 367.23 Q2158.41 368.133 2161.07 368.133 L2165.44 368.133 L2165.44 371.698 L2161.07 371.698 Q2156.14 371.698 2154.26 369.869 Q2152.39 368.017 2152.39 363.156 L2152.39 349.082 L2149.26 349.082 L2149.26 345.772 L2152.39 345.772 L2152.39 338.411 L2156.67 338.411 Z" fill="#000000" fill-rule="nonzero" fill-opacity="1" /><path clip-path="url(#clip630)" d="M2175.26 338.411 L2175.26 345.772 L2184.03 345.772 L2184.03 349.082 L2175.26 349.082 L2175.26 363.156 Q2175.26 366.327 2176.11 367.23 Q2176.99 368.133 2179.66 368.133 L2184.03 368.133 L2184.03 371.698 L2179.66 371.698 Q2174.73 371.698 2172.85 369.869 Q2170.98 368.017 2170.98 363.156 L2170.98 349.082 L2167.85 349.082 L2167.85 345.772 L2170.98 345.772 L2170.98 338.411 L2175.26 338.411 Z" fill="#000000" fill-rule="nonzero" fill-opacity="1" /><path clip-path="url(#clip630)" d="M2211.81 357.67 L2211.81 359.753 L2192.23 359.753 Q2192.5 364.151 2194.86 366.466 Q2197.25 368.758 2201.48 368.758 Q2203.94 368.758 2206.23 368.156 Q2208.54 367.554 2210.81 366.35 L2210.81 370.378 Q2208.52 371.35 2206.11 371.86 Q2203.71 372.369 2201.23 372.369 Q2195.03 372.369 2191.39 368.758 Q2187.78 365.147 2187.78 358.989 Q2187.78 352.624 2191.21 348.897 Q2194.66 345.147 2200.49 345.147 Q2205.72 345.147 2208.75 348.526 Q2211.81 351.883 2211.81 357.67 M2207.55 356.42 Q2207.5 352.925 2205.58 350.841 Q2203.68 348.758 2200.54 348.758 Q2196.97 348.758 2194.82 350.772 Q2192.69 352.786 2192.36 356.443 L2207.55 356.42 Z" fill="#000000" fill-rule="nonzero" fill-opacity="1" /><path clip-path="url(#clip630)" d="M2233.82 349.753 Q2233.1 349.337 2232.25 349.151 Q2231.41 348.943 2230.4 348.943 Q2226.79 348.943 2224.84 351.304 Q2222.92 353.642 2222.92 358.04 L2222.92 371.698 L2218.64 371.698 L2218.64 345.772 L2222.92 345.772 L2222.92 349.8 Q2224.26 347.438 2226.41 346.304 Q2228.57 345.147 2231.65 345.147 Q2232.09 345.147 2232.62 345.216 Q2233.15 345.263 2233.8 345.378 L2233.82 349.753 Z" fill="#000000" fill-rule="nonzero" fill-opacity="1" /><path clip-path="url(#clip630)" d="M2249.08 374.105 Q2247.27 378.735 2245.56 380.147 Q2243.85 381.559 2240.98 381.559 L2237.57 381.559 L2237.57 377.994 L2240.07 377.994 Q2241.83 377.994 2242.8 377.16 Q2243.78 376.327 2244.96 373.225 L2245.72 371.281 L2235.23 345.772 L2239.75 345.772 L2247.85 366.049 L2255.95 345.772 L2260.47 345.772 L2249.08 374.105 Z" fill="#000000" fill-rule="nonzero" fill-opacity="1" /></svg>
