<?xml version="1.0" encoding="utf-8"?>
<svg xmlns="http://www.w3.org/2000/svg" xmlns:xlink="http://www.w3.org/1999/xlink" width="600" height="400" viewBox="0 0 2400 1600">
<defs>
  <clipPath id="clip200">
    <rect x="0" y="0" width="2400" height="1600"/>
  </clipPath>
</defs>
<path clip-path="url(#clip200)" d="M0 1600 L2400 1600 L2400 0 L0 0  Z" fill="#ffffff" fill-rule="evenodd" fill-opacity="1"/>
<defs>
  <clipPath id="clip201">
    <rect x="480" y="0" width="1681" height="1600"/>
  </clipPath>
</defs>
<path clip-path="url(#clip200)" d="M276.227 1486.45 L2352.76 1486.45 L2352.76 47.2441 L276.227 47.2441  Z" fill="#ffffff" fill-rule="evenodd" fill-opacity="1"/>
<defs>
  <clipPath id="clip202">
    <rect x="276" y="47" width="2078" height="1440"/>
  </clipPath>
</defs>
<polyline clip-path="url(#clip202)" style="stroke:#000000; stroke-linecap:round; stroke-linejoin:round; stroke-width:2; stroke-opacity:0.1; fill:none" points="630.009,1486.45 630.009,47.2441 "/>
<polyline clip-path="url(#clip202)" style="stroke:#000000; stroke-linecap:round; stroke-linejoin:round; stroke-width:2; stroke-opacity:0.1; fill:none" points="1314.49,1486.45 1314.49,47.2441 "/>
<polyline clip-path="url(#clip202)" style="stroke:#000000; stroke-linecap:round; stroke-linejoin:round; stroke-width:2; stroke-opacity:0.1; fill:none" points="1998.97,1486.45 1998.97,47.2441 "/>
<polyline clip-path="url(#clip200)" style="stroke:#000000; stroke-linecap:round; stroke-linejoin:round; stroke-width:4; stroke-opacity:1; fill:none" points="276.227,1486.45 2352.76,1486.45 "/>
<polyline clip-path="url(#clip200)" style="stroke:#000000; stroke-linecap:round; stroke-linejoin:round; stroke-width:4; stroke-opacity:1; fill:none" points="630.009,1486.45 630.009,1467.55 "/>
<polyline clip-path="url(#clip200)" style="stroke:#000000; stroke-linecap:round; stroke-linejoin:round; stroke-width:4; stroke-opacity:1; fill:none" points="1314.49,1486.45 1314.49,1467.55 "/>
<polyline clip-path="url(#clip200)" style="stroke:#000000; stroke-linecap:round; stroke-linejoin:round; stroke-width:4; stroke-opacity:1; fill:none" points="1998.97,1486.45 1998.97,1467.55 "/>
<path clip-path="url(#clip200)" d="M548.655 1543.92 L548.655 1534.63 L541.016 1534.63 L541.016 1530.79 L553.285 1530.79 L553.285 1545.63 Q550.576 1547.55 547.313 1548.55 Q544.049 1549.52 540.345 1549.52 Q532.243 1549.52 527.66 1544.8 Q523.1 1540.05 523.1 1531.6 Q523.1 1523.13 527.66 1518.41 Q532.243 1513.66 540.345 1513.66 Q543.725 1513.66 546.757 1514.5 Q549.813 1515.33 552.382 1516.95 L552.382 1521.93 Q549.789 1519.73 546.873 1518.62 Q543.956 1517.51 540.739 1517.51 Q534.396 1517.51 531.202 1521.05 Q528.03 1524.59 528.03 1531.6 Q528.03 1538.59 531.202 1542.13 Q534.396 1545.68 540.739 1545.68 Q543.215 1545.68 545.16 1545.26 Q547.104 1544.82 548.655 1543.92 Z" fill="#000000" fill-rule="nonzero" fill-opacity="1" /><path clip-path="url(#clip200)" d="M583.817 1534.82 L583.817 1536.9 L564.234 1536.9 Q564.512 1541.3 566.873 1543.62 Q569.257 1545.91 573.493 1545.91 Q575.947 1545.91 578.238 1545.31 Q580.553 1544.7 582.822 1543.5 L582.822 1547.53 Q580.53 1548.5 578.123 1549.01 Q575.715 1549.52 573.238 1549.52 Q567.035 1549.52 563.4 1545.91 Q559.789 1542.3 559.789 1536.14 Q559.789 1529.77 563.215 1526.05 Q566.664 1522.3 572.498 1522.3 Q577.729 1522.3 580.762 1525.68 Q583.817 1529.03 583.817 1534.82 M579.558 1533.57 Q579.512 1530.07 577.59 1527.99 Q575.692 1525.91 572.544 1525.91 Q568.979 1525.91 566.826 1527.92 Q564.697 1529.94 564.373 1533.59 L579.558 1533.57 Z" fill="#000000" fill-rule="nonzero" fill-opacity="1" /><path clip-path="url(#clip200)" d="M605.831 1526.9 Q605.113 1526.49 604.257 1526.3 Q603.423 1526.09 602.405 1526.09 Q598.794 1526.09 596.849 1528.45 Q594.928 1530.79 594.928 1535.19 L594.928 1548.85 L590.646 1548.85 L590.646 1522.92 L594.928 1522.92 L594.928 1526.95 Q596.271 1524.59 598.423 1523.45 Q600.576 1522.3 603.655 1522.3 Q604.095 1522.3 604.627 1522.37 Q605.16 1522.41 605.808 1522.53 L605.831 1526.9 Z" fill="#000000" fill-rule="nonzero" fill-opacity="1" /><path clip-path="url(#clip200)" d="M629.65 1527.9 Q631.247 1525.03 633.47 1523.66 Q635.692 1522.3 638.701 1522.3 Q642.752 1522.3 644.951 1525.14 Q647.15 1527.97 647.15 1533.2 L647.15 1548.85 L642.868 1548.85 L642.868 1533.34 Q642.868 1529.61 641.548 1527.81 Q640.229 1526 637.52 1526 Q634.21 1526 632.289 1528.2 Q630.368 1530.4 630.368 1534.2 L630.368 1548.85 L626.085 1548.85 L626.085 1533.34 Q626.085 1529.59 624.766 1527.81 Q623.446 1526 620.692 1526 Q617.428 1526 615.507 1528.22 Q613.585 1530.42 613.585 1534.2 L613.585 1548.85 L609.303 1548.85 L609.303 1522.92 L613.585 1522.92 L613.585 1526.95 Q615.044 1524.57 617.081 1523.43 Q619.118 1522.3 621.919 1522.3 Q624.743 1522.3 626.71 1523.73 Q628.701 1525.17 629.65 1527.9 Z" fill="#000000" fill-rule="nonzero" fill-opacity="1" /><path clip-path="url(#clip200)" d="M667.428 1535.82 Q662.266 1535.82 660.275 1537 Q658.284 1538.18 658.284 1541.02 Q658.284 1543.29 659.766 1544.63 Q661.27 1545.95 663.84 1545.95 Q667.381 1545.95 669.511 1543.45 Q671.664 1540.93 671.664 1536.76 L671.664 1535.82 L667.428 1535.82 M675.923 1534.06 L675.923 1548.85 L671.664 1548.85 L671.664 1544.91 Q670.205 1547.27 668.03 1548.41 Q665.854 1549.52 662.706 1549.52 Q658.724 1549.52 656.363 1547.3 Q654.025 1545.05 654.025 1541.3 Q654.025 1536.93 656.942 1534.7 Q659.881 1532.48 665.692 1532.48 L671.664 1532.48 L671.664 1532.07 Q671.664 1529.13 669.719 1527.53 Q667.798 1525.91 664.303 1525.91 Q662.081 1525.91 659.974 1526.44 Q657.868 1526.97 655.923 1528.04 L655.923 1524.1 Q658.261 1523.2 660.46 1522.76 Q662.659 1522.3 664.743 1522.3 Q670.368 1522.3 673.145 1525.21 Q675.923 1528.13 675.923 1534.06 Z" fill="#000000" fill-rule="nonzero" fill-opacity="1" /><path clip-path="url(#clip200)" d="M706.247 1533.2 L706.247 1548.85 L701.988 1548.85 L701.988 1533.34 Q701.988 1529.66 700.553 1527.83 Q699.117 1526 696.247 1526 Q692.798 1526 690.807 1528.2 Q688.816 1530.4 688.816 1534.2 L688.816 1548.85 L684.534 1548.85 L684.534 1522.92 L688.816 1522.92 L688.816 1526.95 Q690.344 1524.61 692.404 1523.45 Q694.488 1522.3 697.196 1522.3 Q701.664 1522.3 703.955 1525.07 Q706.247 1527.83 706.247 1533.2 Z" fill="#000000" fill-rule="nonzero" fill-opacity="1" /><path clip-path="url(#clip200)" d="M725.529 1551.26 Q723.724 1555.88 722.011 1557.3 Q720.298 1558.71 717.427 1558.71 L714.025 1558.71 L714.025 1555.14 L716.525 1555.14 Q718.284 1555.14 719.256 1554.31 Q720.228 1553.48 721.409 1550.38 L722.173 1548.43 L711.687 1522.92 L716.201 1522.92 L724.302 1543.2 L732.404 1522.92 L736.918 1522.92 L725.529 1551.26 Z" fill="#000000" fill-rule="nonzero" fill-opacity="1" /><path clip-path="url(#clip200)" d="M1246.64 1515.42 L1246.64 1519.98 Q1243.98 1518.71 1241.62 1518.08 Q1239.26 1517.46 1237.06 1517.46 Q1233.24 1517.46 1231.16 1518.94 Q1229.1 1520.42 1229.1 1523.15 Q1229.1 1525.45 1230.46 1526.63 Q1231.85 1527.78 1235.7 1528.5 L1238.52 1529.08 Q1243.75 1530.07 1246.23 1532.6 Q1248.73 1535.1 1248.73 1539.31 Q1248.73 1544.33 1245.35 1546.93 Q1241.99 1549.52 1235.49 1549.52 Q1233.03 1549.52 1230.26 1548.96 Q1227.5 1548.41 1224.54 1547.32 L1224.54 1542.51 Q1227.39 1544.1 1230.12 1544.91 Q1232.85 1545.72 1235.49 1545.72 Q1239.49 1545.72 1241.67 1544.15 Q1243.84 1542.57 1243.84 1539.66 Q1243.84 1537.11 1242.27 1535.68 Q1240.72 1534.24 1237.15 1533.52 L1234.31 1532.97 Q1229.08 1531.93 1226.74 1529.7 Q1224.4 1527.48 1224.4 1523.52 Q1224.4 1518.94 1227.62 1516.3 Q1230.86 1513.66 1236.53 1513.66 Q1238.96 1513.66 1241.48 1514.1 Q1244.01 1514.54 1246.64 1515.42 Z" fill="#000000" fill-rule="nonzero" fill-opacity="1" /><path clip-path="url(#clip200)" d="M1253.36 1522.92 L1257.62 1522.92 L1262.94 1543.15 L1268.24 1522.92 L1273.26 1522.92 L1278.59 1543.15 L1283.89 1522.92 L1288.15 1522.92 L1281.37 1548.85 L1276.34 1548.85 L1270.76 1527.6 L1265.16 1548.85 L1260.14 1548.85 L1253.36 1522.92 Z" fill="#000000" fill-rule="nonzero" fill-opacity="1" /><path clip-path="url(#clip200)" d="M1316.78 1534.82 L1316.78 1536.9 L1297.2 1536.9 Q1297.48 1541.3 1299.84 1543.62 Q1302.22 1545.91 1306.46 1545.91 Q1308.91 1545.91 1311.2 1545.31 Q1313.52 1544.7 1315.79 1543.5 L1315.79 1547.53 Q1313.5 1548.5 1311.09 1549.01 Q1308.68 1549.52 1306.2 1549.52 Q1300 1549.52 1296.37 1545.91 Q1292.76 1542.3 1292.76 1536.14 Q1292.76 1529.77 1296.18 1526.05 Q1299.63 1522.3 1305.46 1522.3 Q1310.7 1522.3 1313.73 1525.68 Q1316.78 1529.03 1316.78 1534.82 M1312.52 1533.57 Q1312.48 1530.07 1310.56 1527.99 Q1308.66 1525.91 1305.51 1525.91 Q1301.95 1525.91 1299.79 1527.92 Q1297.66 1529.94 1297.34 1533.59 L1312.52 1533.57 Z" fill="#000000" fill-rule="nonzero" fill-opacity="1" /><path clip-path="url(#clip200)" d="M1340.83 1526.86 L1340.83 1512.83 L1345.09 1512.83 L1345.09 1548.85 L1340.83 1548.85 L1340.83 1544.96 Q1339.49 1547.27 1337.43 1548.41 Q1335.39 1549.52 1332.52 1549.52 Q1327.82 1549.52 1324.86 1545.77 Q1321.92 1542.02 1321.92 1535.91 Q1321.92 1529.8 1324.86 1526.05 Q1327.82 1522.3 1332.52 1522.3 Q1335.39 1522.3 1337.43 1523.43 Q1339.49 1524.54 1340.83 1526.86 M1326.32 1535.91 Q1326.32 1540.61 1328.24 1543.29 Q1330.19 1545.95 1333.57 1545.95 Q1336.95 1545.95 1338.89 1543.29 Q1340.83 1540.61 1340.83 1535.91 Q1340.83 1531.21 1338.89 1528.55 Q1336.95 1525.86 1333.57 1525.86 Q1330.19 1525.86 1328.24 1528.55 Q1326.32 1531.21 1326.32 1535.91 Z" fill="#000000" fill-rule="nonzero" fill-opacity="1" /><path clip-path="url(#clip200)" d="M1376.04 1534.82 L1376.04 1536.9 L1356.46 1536.9 Q1356.74 1541.3 1359.1 1543.62 Q1361.48 1545.91 1365.72 1545.91 Q1368.17 1545.91 1370.46 1545.31 Q1372.78 1544.7 1375.05 1543.5 L1375.05 1547.53 Q1372.76 1548.5 1370.35 1549.01 Q1367.94 1549.52 1365.46 1549.52 Q1359.26 1549.52 1355.63 1545.91 Q1352.01 1542.3 1352.01 1536.14 Q1352.01 1529.77 1355.44 1526.05 Q1358.89 1522.3 1364.72 1522.3 Q1369.95 1522.3 1372.99 1525.68 Q1376.04 1529.03 1376.04 1534.82 M1371.78 1533.57 Q1371.74 1530.07 1369.82 1527.99 Q1367.92 1525.91 1364.77 1525.91 Q1361.2 1525.91 1359.05 1527.92 Q1356.92 1529.94 1356.6 1533.59 L1371.78 1533.57 Z" fill="#000000" fill-rule="nonzero" fill-opacity="1" /><path clip-path="url(#clip200)" d="M1404.58 1533.2 L1404.58 1548.85 L1400.32 1548.85 L1400.32 1533.34 Q1400.32 1529.66 1398.89 1527.83 Q1397.45 1526 1394.58 1526 Q1391.13 1526 1389.14 1528.2 Q1387.15 1530.4 1387.15 1534.2 L1387.15 1548.85 L1382.87 1548.85 L1382.87 1522.92 L1387.15 1522.92 L1387.15 1526.95 Q1388.68 1524.61 1390.74 1523.45 Q1392.82 1522.3 1395.53 1522.3 Q1400 1522.3 1402.29 1525.07 Q1404.58 1527.83 1404.58 1533.2 Z" fill="#000000" fill-rule="nonzero" fill-opacity="1" /><path clip-path="url(#clip200)" d="M1897.1 1518.13 L1897.1 1545.01 L1902.75 1545.01 Q1909.9 1545.01 1913.21 1541.76 Q1916.54 1538.52 1916.54 1531.53 Q1916.54 1524.59 1913.21 1521.37 Q1909.9 1518.13 1902.75 1518.13 L1897.1 1518.13 M1892.42 1514.29 L1902.03 1514.29 Q1912.08 1514.29 1916.78 1518.48 Q1921.47 1522.64 1921.47 1531.53 Q1921.47 1540.47 1916.75 1544.66 Q1912.03 1548.85 1902.03 1548.85 L1892.42 1548.85 L1892.42 1514.29 Z" fill="#000000" fill-rule="nonzero" fill-opacity="1" /><path clip-path="url(#clip200)" d="M1950.92 1534.82 L1950.92 1536.9 L1931.34 1536.9 Q1931.61 1541.3 1933.97 1543.62 Q1936.36 1545.91 1940.59 1545.91 Q1943.05 1545.91 1945.34 1545.31 Q1947.66 1544.7 1949.92 1543.5 L1949.92 1547.53 Q1947.63 1548.5 1945.22 1549.01 Q1942.82 1549.52 1940.34 1549.52 Q1934.14 1549.52 1930.5 1545.91 Q1926.89 1542.3 1926.89 1536.14 Q1926.89 1529.77 1930.32 1526.05 Q1933.77 1522.3 1939.6 1522.3 Q1944.83 1522.3 1947.86 1525.68 Q1950.92 1529.03 1950.92 1534.82 M1946.66 1533.57 Q1946.61 1530.07 1944.69 1527.99 Q1942.79 1525.91 1939.65 1525.91 Q1936.08 1525.91 1933.93 1527.92 Q1931.8 1529.94 1931.47 1533.59 L1946.66 1533.57 Z" fill="#000000" fill-rule="nonzero" fill-opacity="1" /><path clip-path="url(#clip200)" d="M1979.46 1533.2 L1979.46 1548.85 L1975.2 1548.85 L1975.2 1533.34 Q1975.2 1529.66 1973.77 1527.83 Q1972.33 1526 1969.46 1526 Q1966.01 1526 1964.02 1528.2 Q1962.03 1530.4 1962.03 1534.2 L1962.03 1548.85 L1957.75 1548.85 L1957.75 1522.92 L1962.03 1522.92 L1962.03 1526.95 Q1963.56 1524.61 1965.62 1523.45 Q1967.7 1522.3 1970.41 1522.3 Q1974.88 1522.3 1977.17 1525.07 Q1979.46 1527.83 1979.46 1533.2 Z" fill="#000000" fill-rule="nonzero" fill-opacity="1" /><path clip-path="url(#clip200)" d="M2008.14 1527.9 Q2009.74 1525.03 2011.96 1523.66 Q2014.18 1522.3 2017.19 1522.3 Q2021.24 1522.3 2023.44 1525.14 Q2025.64 1527.97 2025.64 1533.2 L2025.64 1548.85 L2021.36 1548.85 L2021.36 1533.34 Q2021.36 1529.61 2020.04 1527.81 Q2018.72 1526 2016.01 1526 Q2012.7 1526 2010.78 1528.2 Q2008.86 1530.4 2008.86 1534.2 L2008.86 1548.85 L2004.58 1548.85 L2004.58 1533.34 Q2004.58 1529.59 2003.26 1527.81 Q2001.94 1526 1999.18 1526 Q1995.92 1526 1994 1528.22 Q1992.08 1530.42 1992.08 1534.2 L1992.08 1548.85 L1987.79 1548.85 L1987.79 1522.92 L1992.08 1522.92 L1992.08 1526.95 Q1993.53 1524.57 1995.57 1523.43 Q1997.61 1522.3 2000.41 1522.3 Q2003.23 1522.3 2005.2 1523.73 Q2007.19 1525.17 2008.14 1527.9 Z" fill="#000000" fill-rule="nonzero" fill-opacity="1" /><path clip-path="url(#clip200)" d="M2045.92 1535.82 Q2040.76 1535.82 2038.77 1537 Q2036.77 1538.18 2036.77 1541.02 Q2036.77 1543.29 2038.26 1544.63 Q2039.76 1545.95 2042.33 1545.95 Q2045.87 1545.95 2048 1543.45 Q2050.15 1540.93 2050.15 1536.76 L2050.15 1535.82 L2045.92 1535.82 M2054.41 1534.06 L2054.41 1548.85 L2050.15 1548.85 L2050.15 1544.91 Q2048.7 1547.27 2046.52 1548.41 Q2044.34 1549.52 2041.2 1549.52 Q2037.21 1549.52 2034.85 1547.3 Q2032.52 1545.05 2032.52 1541.3 Q2032.52 1536.93 2035.43 1534.7 Q2038.37 1532.48 2044.18 1532.48 L2050.15 1532.48 L2050.15 1532.07 Q2050.15 1529.13 2048.21 1527.53 Q2046.29 1525.91 2042.79 1525.91 Q2040.57 1525.91 2038.46 1526.44 Q2036.36 1526.97 2034.41 1528.04 L2034.41 1524.1 Q2036.75 1523.2 2038.95 1522.76 Q2041.15 1522.3 2043.23 1522.3 Q2048.86 1522.3 2051.64 1525.21 Q2054.41 1528.13 2054.41 1534.06 Z" fill="#000000" fill-rule="nonzero" fill-opacity="1" /><path clip-path="url(#clip200)" d="M2078.21 1526.9 Q2077.49 1526.49 2076.64 1526.3 Q2075.8 1526.09 2074.78 1526.09 Q2071.17 1526.09 2069.23 1528.45 Q2067.31 1530.79 2067.31 1535.19 L2067.31 1548.85 L2063.02 1548.85 L2063.02 1522.92 L2067.31 1522.92 L2067.31 1526.95 Q2068.65 1524.59 2070.8 1523.45 Q2072.96 1522.3 2076.03 1522.3 Q2076.47 1522.3 2077.01 1522.37 Q2077.54 1522.41 2078.19 1522.53 L2078.21 1526.9 Z" fill="#000000" fill-rule="nonzero" fill-opacity="1" /><path clip-path="url(#clip200)" d="M2082.52 1512.83 L2086.8 1512.83 L2086.8 1534.1 L2099.51 1522.92 L2104.95 1522.92 L2091.2 1535.05 L2105.52 1548.85 L2099.97 1548.85 L2086.8 1536.19 L2086.8 1548.85 L2082.52 1548.85 L2082.52 1512.83 Z" fill="#000000" fill-rule="nonzero" fill-opacity="1" /><polyline clip-path="url(#clip202)" style="stroke:#000000; stroke-linecap:round; stroke-linejoin:round; stroke-width:2; stroke-opacity:0.1; fill:none" points="276.227,1445.72 2352.76,1445.72 "/>
<polyline clip-path="url(#clip202)" style="stroke:#000000; stroke-linecap:round; stroke-linejoin:round; stroke-width:2; stroke-opacity:0.1; fill:none" points="276.227,1206.16 2352.76,1206.16 "/>
<polyline clip-path="url(#clip202)" style="stroke:#000000; stroke-linecap:round; stroke-linejoin:round; stroke-width:2; stroke-opacity:0.1; fill:none" points="276.227,966.599 2352.76,966.599 "/>
<polyline clip-path="url(#clip202)" style="stroke:#000000; stroke-linecap:round; stroke-linejoin:round; stroke-width:2; stroke-opacity:0.1; fill:none" points="276.227,727.04 2352.76,727.04 "/>
<polyline clip-path="url(#clip202)" style="stroke:#000000; stroke-linecap:round; stroke-linejoin:round; stroke-width:2; stroke-opacity:0.1; fill:none" points="276.227,487.482 2352.76,487.482 "/>
<polyline clip-path="url(#clip202)" style="stroke:#000000; stroke-linecap:round; stroke-linejoin:round; stroke-width:2; stroke-opacity:0.1; fill:none" points="276.227,247.923 2352.76,247.923 "/>
<polyline clip-path="url(#clip200)" style="stroke:#000000; stroke-linecap:round; stroke-linejoin:round; stroke-width:4; stroke-opacity:1; fill:none" points="276.227,1486.45 276.227,47.2441 "/>
<polyline clip-path="url(#clip200)" style="stroke:#000000; stroke-linecap:round; stroke-linejoin:round; stroke-width:4; stroke-opacity:1; fill:none" points="276.227,1445.72 295.125,1445.72 "/>
<polyline clip-path="url(#clip200)" style="stroke:#000000; stroke-linecap:round; stroke-linejoin:round; stroke-width:4; stroke-opacity:1; fill:none" points="276.227,1206.16 295.125,1206.16 "/>
<polyline clip-path="url(#clip200)" style="stroke:#000000; stroke-linecap:round; stroke-linejoin:round; stroke-width:4; stroke-opacity:1; fill:none" points="276.227,966.599 295.125,966.599 "/>
<polyline clip-path="url(#clip200)" style="stroke:#000000; stroke-linecap:round; stroke-linejoin:round; stroke-width:4; stroke-opacity:1; fill:none" points="276.227,727.04 295.125,727.04 "/>
<polyline clip-path="url(#clip200)" style="stroke:#000000; stroke-linecap:round; stroke-linejoin:round; stroke-width:4; stroke-opacity:1; fill:none" points="276.227,487.482 295.125,487.482 "/>
<polyline clip-path="url(#clip200)" style="stroke:#000000; stroke-linecap:round; stroke-linejoin:round; stroke-width:4; stroke-opacity:1; fill:none" points="276.227,247.923 295.125,247.923 "/>
<path clip-path="url(#clip200)" d="M228.283 1431.51 Q224.672 1431.51 222.843 1435.08 Q221.038 1438.62 221.038 1445.75 Q221.038 1452.86 222.843 1456.42 Q224.672 1459.96 228.283 1459.96 Q231.917 1459.96 233.723 1456.42 Q235.551 1452.86 235.551 1445.75 Q235.551 1438.62 233.723 1435.08 Q231.917 1431.51 228.283 1431.51 M228.283 1427.81 Q234.093 1427.81 237.149 1432.42 Q240.227 1437 240.227 1445.75 Q240.227 1454.48 237.149 1459.08 Q234.093 1463.67 228.283 1463.67 Q222.473 1463.67 219.394 1459.08 Q216.338 1454.48 216.338 1445.75 Q216.338 1437 219.394 1432.42 Q222.473 1427.81 228.283 1427.81 Z" fill="#000000" fill-rule="nonzero" fill-opacity="1" /><path clip-path="url(#clip200)" d="M54.5569 1225.95 L62.1958 1225.95 L62.1958 1199.58 L53.8856 1201.25 L53.8856 1196.99 L62.1495 1195.32 L66.8254 1195.32 L66.8254 1225.95 L74.4642 1225.95 L74.4642 1229.88 L54.5569 1229.88 L54.5569 1225.95 Z" fill="#000000" fill-rule="nonzero" fill-opacity="1" /><path clip-path="url(#clip200)" d="M83.9086 1224.01 L88.7928 1224.01 L88.7928 1229.88 L83.9086 1229.88 L83.9086 1224.01 Z" fill="#000000" fill-rule="nonzero" fill-opacity="1" /><path clip-path="url(#clip200)" d="M108.978 1198.4 Q105.367 1198.4 103.538 1201.97 Q101.733 1205.51 101.733 1212.64 Q101.733 1219.75 103.538 1223.31 Q105.367 1226.85 108.978 1226.85 Q112.612 1226.85 114.418 1223.31 Q116.246 1219.75 116.246 1212.64 Q116.246 1205.51 114.418 1201.97 Q112.612 1198.4 108.978 1198.4 M108.978 1194.7 Q114.788 1194.7 117.844 1199.31 Q120.922 1203.89 120.922 1212.64 Q120.922 1221.37 117.844 1225.97 Q114.788 1230.56 108.978 1230.56 Q103.168 1230.56 100.089 1225.97 Q97.0335 1221.37 97.0335 1212.64 Q97.0335 1203.89 100.089 1199.31 Q103.168 1194.7 108.978 1194.7 Z" fill="#000000" fill-rule="nonzero" fill-opacity="1" /><path clip-path="url(#clip200)" d="M157.311 1204.42 L146.732 1215.05 L157.311 1225.63 L154.556 1228.43 L143.931 1217.8 L133.306 1228.43 L130.575 1225.63 L141.131 1215.05 L130.575 1204.42 L133.306 1201.62 L143.931 1212.25 L154.556 1201.62 L157.311 1204.42 Z" fill="#000000" fill-rule="nonzero" fill-opacity="1" /><path clip-path="url(#clip200)" d="M169.672 1225.95 L177.311 1225.95 L177.311 1199.58 L169.001 1201.25 L169.001 1196.99 L177.265 1195.32 L181.94 1195.32 L181.94 1225.95 L189.579 1225.95 L189.579 1229.88 L169.672 1229.88 L169.672 1225.95 Z" fill="#000000" fill-rule="nonzero" fill-opacity="1" /><path clip-path="url(#clip200)" d="M209.024 1198.4 Q205.413 1198.4 203.584 1201.97 Q201.778 1205.51 201.778 1212.64 Q201.778 1219.75 203.584 1223.31 Q205.413 1226.85 209.024 1226.85 Q212.658 1226.85 214.463 1223.31 Q216.292 1219.75 216.292 1212.64 Q216.292 1205.51 214.463 1201.97 Q212.658 1198.4 209.024 1198.4 M209.024 1194.7 Q214.834 1194.7 217.889 1199.31 Q220.968 1203.89 220.968 1212.64 Q220.968 1221.37 217.889 1225.97 Q214.834 1230.56 209.024 1230.56 Q203.214 1230.56 200.135 1225.97 Q197.079 1221.37 197.079 1212.64 Q197.079 1203.89 200.135 1199.31 Q203.214 1194.7 209.024 1194.7 Z" fill="#000000" fill-rule="nonzero" fill-opacity="1" /><path clip-path="url(#clip200)" d="M230.598 1189.14 Q227.889 1189.14 226.328 1190.59 Q224.786 1192.04 224.786 1194.58 Q224.786 1197.11 226.328 1198.56 Q227.889 1200.01 230.598 1200.01 Q233.306 1200.01 234.867 1198.56 Q236.428 1197.1 236.428 1194.58 Q236.428 1192.04 234.867 1190.59 Q233.325 1189.14 230.598 1189.14 M226.798 1187.52 Q224.353 1186.92 222.98 1185.25 Q221.626 1183.57 221.626 1181.17 Q221.626 1177.8 224.015 1175.84 Q226.422 1173.89 230.598 1173.89 Q234.792 1173.89 237.18 1175.84 Q239.569 1177.8 239.569 1181.17 Q239.569 1183.57 238.196 1185.25 Q236.842 1186.92 234.416 1187.52 Q237.162 1188.16 238.685 1190.02 Q240.227 1191.89 240.227 1194.58 Q240.227 1198.66 237.726 1200.84 Q235.243 1203.02 230.598 1203.02 Q225.952 1203.02 223.451 1200.84 Q220.968 1198.66 220.968 1194.58 Q220.968 1191.89 222.51 1190.02 Q224.053 1188.16 226.798 1187.52 M225.407 1181.52 Q225.407 1183.7 226.761 1184.93 Q228.134 1186.15 230.598 1186.15 Q233.043 1186.15 234.416 1184.93 Q235.807 1183.7 235.807 1181.52 Q235.807 1179.34 234.416 1178.12 Q233.043 1176.9 230.598 1176.9 Q228.134 1176.9 226.761 1178.12 Q225.407 1179.34 225.407 1181.52 Z" fill="#000000" fill-rule="nonzero" fill-opacity="1" /><path clip-path="url(#clip200)" d="M57.7745 986.391 L74.0939 986.391 L74.0939 990.326 L52.1495 990.326 L52.1495 986.391 Q54.8115 983.636 59.3949 979.007 Q64.0013 974.354 65.1819 973.012 Q67.4272 970.488 68.3068 968.752 Q69.2096 966.993 69.2096 965.303 Q69.2096 962.549 67.2652 960.813 Q65.3439 959.076 62.2421 959.076 Q60.043 959.076 57.5893 959.84 Q55.1588 960.604 52.381 962.155 L52.381 957.433 Q55.2051 956.299 57.6588 955.72 Q60.1124 955.141 62.1495 955.141 Q67.5198 955.141 70.7142 957.826 Q73.9087 960.512 73.9087 965.002 Q73.9087 967.132 73.0985 969.053 Q72.3115 970.951 70.205 973.544 Q69.6263 974.215 66.5245 977.433 Q63.4226 980.627 57.7745 986.391 Z" fill="#000000" fill-rule="nonzero" fill-opacity="1" /><path clip-path="url(#clip200)" d="M83.9086 984.447 L88.7928 984.447 L88.7928 990.326 L83.9086 990.326 L83.9086 984.447 Z" fill="#000000" fill-rule="nonzero" fill-opacity="1" /><path clip-path="url(#clip200)" d="M108.978 958.845 Q105.367 958.845 103.538 962.41 Q101.733 965.951 101.733 973.081 Q101.733 980.187 103.538 983.752 Q105.367 987.294 108.978 987.294 Q112.612 987.294 114.418 983.752 Q116.246 980.187 116.246 973.081 Q116.246 965.951 114.418 962.41 Q112.612 958.845 108.978 958.845 M108.978 955.141 Q114.788 955.141 117.844 959.748 Q120.922 964.331 120.922 973.081 Q120.922 981.808 117.844 986.414 Q114.788 990.998 108.978 990.998 Q103.168 990.998 100.089 986.414 Q97.0335 981.808 97.0335 973.081 Q97.0335 964.331 100.089 959.748 Q103.168 955.141 108.978 955.141 Z" fill="#000000" fill-rule="nonzero" fill-opacity="1" /><path clip-path="url(#clip200)" d="M157.311 964.863 L146.732 975.488 L157.311 986.067 L154.556 988.868 L143.931 978.243 L133.306 988.868 L130.575 986.067 L141.131 975.488 L130.575 964.863 L133.306 962.062 L143.931 972.687 L154.556 962.062 L157.311 964.863 Z" fill="#000000" fill-rule="nonzero" fill-opacity="1" /><path clip-path="url(#clip200)" d="M169.672 986.391 L177.311 986.391 L177.311 960.025 L169.001 961.692 L169.001 957.433 L177.265 955.766 L181.94 955.766 L181.94 986.391 L189.579 986.391 L189.579 990.326 L169.672 990.326 L169.672 986.391 Z" fill="#000000" fill-rule="nonzero" fill-opacity="1" /><path clip-path="url(#clip200)" d="M209.024 958.845 Q205.413 958.845 203.584 962.41 Q201.778 965.951 201.778 973.081 Q201.778 980.187 203.584 983.752 Q205.413 987.294 209.024 987.294 Q212.658 987.294 214.463 983.752 Q216.292 980.187 216.292 973.081 Q216.292 965.951 214.463 962.41 Q212.658 958.845 209.024 958.845 M209.024 955.141 Q214.834 955.141 217.889 959.748 Q220.968 964.331 220.968 973.081 Q220.968 981.808 217.889 986.414 Q214.834 990.998 209.024 990.998 Q203.214 990.998 200.135 986.414 Q197.079 981.808 197.079 973.081 Q197.079 964.331 200.135 959.748 Q203.214 955.141 209.024 955.141 Z" fill="#000000" fill-rule="nonzero" fill-opacity="1" /><path clip-path="url(#clip200)" d="M230.598 949.581 Q227.889 949.581 226.328 951.029 Q224.786 952.478 224.786 955.017 Q224.786 957.556 226.328 959.004 Q227.889 960.452 230.598 960.452 Q233.306 960.452 234.867 959.004 Q236.428 957.537 236.428 955.017 Q236.428 952.478 234.867 951.029 Q233.325 949.581 230.598 949.581 M226.798 947.964 Q224.353 947.362 222.98 945.688 Q221.626 944.014 221.626 941.607 Q221.626 938.24 224.015 936.284 Q226.422 934.328 230.598 934.328 Q234.792 934.328 237.18 936.284 Q239.569 938.24 239.569 941.607 Q239.569 944.014 238.196 945.688 Q236.842 947.362 234.416 947.964 Q237.162 948.603 238.685 950.465 Q240.227 952.327 240.227 955.017 Q240.227 959.098 237.726 961.28 Q235.243 963.461 230.598 963.461 Q225.952 963.461 223.451 961.28 Q220.968 959.098 220.968 955.017 Q220.968 952.327 222.51 950.465 Q224.053 948.603 226.798 947.964 M225.407 941.964 Q225.407 944.146 226.761 945.368 Q228.134 946.591 230.598 946.591 Q233.043 946.591 234.416 945.368 Q235.807 944.146 235.807 941.964 Q235.807 939.782 234.416 938.56 Q233.043 937.337 230.598 937.337 Q228.134 937.337 226.761 938.56 Q225.407 939.782 225.407 941.964 Z" fill="#000000" fill-rule="nonzero" fill-opacity="1" /><path clip-path="url(#clip200)" d="M67.9133 732.134 Q71.2698 732.851 73.1448 735.12 Q75.0429 737.388 75.0429 740.721 Q75.0429 745.837 71.5244 748.638 Q68.0059 751.439 61.5245 751.439 Q59.3486 751.439 57.0338 750.999 Q54.7421 750.583 52.2884 749.726 L52.2884 745.212 Q54.2328 746.346 56.5477 746.925 Q58.8625 747.504 61.3856 747.504 Q65.7837 747.504 68.0754 745.768 Q70.3902 744.032 70.3902 740.721 Q70.3902 737.666 68.2374 735.953 Q66.1078 734.217 62.2884 734.217 L58.2606 734.217 L58.2606 730.374 L62.4735 730.374 Q65.9226 730.374 67.7513 729.009 Q69.58 727.62 69.58 725.027 Q69.58 722.365 67.6819 720.953 Q65.8069 719.518 62.2884 719.518 Q60.3671 719.518 58.168 719.935 Q55.969 720.351 53.3301 721.231 L53.3301 717.064 Q55.9921 716.323 58.3069 715.953 Q60.6449 715.583 62.705 715.583 Q68.0291 715.583 71.1309 718.013 Q74.2327 720.421 74.2327 724.541 Q74.2327 727.411 72.5892 729.402 Q70.9457 731.37 67.9133 732.134 Z" fill="#000000" fill-rule="nonzero" fill-opacity="1" /><path clip-path="url(#clip200)" d="M83.9086 744.888 L88.7928 744.888 L88.7928 750.768 L83.9086 750.768 L83.9086 744.888 Z" fill="#000000" fill-rule="nonzero" fill-opacity="1" /><path clip-path="url(#clip200)" d="M108.978 719.286 Q105.367 719.286 103.538 722.851 Q101.733 726.393 101.733 733.522 Q101.733 740.629 103.538 744.194 Q105.367 747.735 108.978 747.735 Q112.612 747.735 114.418 744.194 Q116.246 740.629 116.246 733.522 Q116.246 726.393 114.418 722.851 Q112.612 719.286 108.978 719.286 M108.978 715.583 Q114.788 715.583 117.844 720.189 Q120.922 724.772 120.922 733.522 Q120.922 742.249 117.844 746.856 Q114.788 751.439 108.978 751.439 Q103.168 751.439 100.089 746.856 Q97.0335 742.249 97.0335 733.522 Q97.0335 724.772 100.089 720.189 Q103.168 715.583 108.978 715.583 Z" fill="#000000" fill-rule="nonzero" fill-opacity="1" /><path clip-path="url(#clip200)" d="M157.311 725.305 L146.732 735.93 L157.311 746.508 L154.556 749.309 L143.931 738.684 L133.306 749.309 L130.575 746.508 L141.131 735.93 L130.575 725.305 L133.306 722.504 L143.931 733.129 L154.556 722.504 L157.311 725.305 Z" fill="#000000" fill-rule="nonzero" fill-opacity="1" /><path clip-path="url(#clip200)" d="M169.672 746.833 L177.311 746.833 L177.311 720.467 L169.001 722.134 L169.001 717.874 L177.265 716.208 L181.94 716.208 L181.94 746.833 L189.579 746.833 L189.579 750.768 L169.672 750.768 L169.672 746.833 Z" fill="#000000" fill-rule="nonzero" fill-opacity="1" /><path clip-path="url(#clip200)" d="M209.024 719.286 Q205.413 719.286 203.584 722.851 Q201.778 726.393 201.778 733.522 Q201.778 740.629 203.584 744.194 Q205.413 747.735 209.024 747.735 Q212.658 747.735 214.463 744.194 Q216.292 740.629 216.292 733.522 Q216.292 726.393 214.463 722.851 Q212.658 719.286 209.024 719.286 M209.024 715.583 Q214.834 715.583 217.889 720.189 Q220.968 724.772 220.968 733.522 Q220.968 742.249 217.889 746.856 Q214.834 751.439 209.024 751.439 Q203.214 751.439 200.135 746.856 Q197.079 742.249 197.079 733.522 Q197.079 724.772 200.135 720.189 Q203.214 715.583 209.024 715.583 Z" fill="#000000" fill-rule="nonzero" fill-opacity="1" /><path clip-path="url(#clip200)" d="M230.598 710.023 Q227.889 710.023 226.328 711.471 Q224.786 712.919 224.786 715.458 Q224.786 717.997 226.328 719.445 Q227.889 720.893 230.598 720.893 Q233.306 720.893 234.867 719.445 Q236.428 717.978 236.428 715.458 Q236.428 712.919 234.867 711.471 Q233.325 710.023 230.598 710.023 M226.798 708.405 Q224.353 707.803 222.98 706.129 Q221.626 704.456 221.626 702.048 Q221.626 698.682 224.015 696.726 Q226.422 694.769 230.598 694.769 Q234.792 694.769 237.18 696.726 Q239.569 698.682 239.569 702.048 Q239.569 704.456 238.196 706.129 Q236.842 707.803 234.416 708.405 Q237.162 709.045 238.685 710.907 Q240.227 712.769 240.227 715.458 Q240.227 719.539 237.726 721.721 Q235.243 723.903 230.598 723.903 Q225.952 723.903 223.451 721.721 Q220.968 719.539 220.968 715.458 Q220.968 712.769 222.51 710.907 Q224.053 709.045 226.798 708.405 M225.407 702.405 Q225.407 704.587 226.761 705.81 Q228.134 707.032 230.598 707.032 Q233.043 707.032 234.416 705.81 Q235.807 704.587 235.807 702.405 Q235.807 700.224 234.416 699.001 Q233.043 697.779 230.598 697.779 Q228.134 697.779 226.761 699.001 Q225.407 700.224 225.407 702.405 Z" fill="#000000" fill-rule="nonzero" fill-opacity="1" /><path clip-path="url(#clip200)" d="M66.5939 480.723 L54.7884 499.172 L66.5939 499.172 L66.5939 480.723 M65.367 476.649 L71.2466 476.649 L71.2466 499.172 L76.1772 499.172 L76.1772 503.061 L71.2466 503.061 L71.2466 511.209 L66.5939 511.209 L66.5939 503.061 L50.9921 503.061 L50.9921 498.547 L65.367 476.649 Z" fill="#000000" fill-rule="nonzero" fill-opacity="1" /><path clip-path="url(#clip200)" d="M83.9086 505.33 L88.7928 505.33 L88.7928 511.209 L83.9086 511.209 L83.9086 505.33 Z" fill="#000000" fill-rule="nonzero" fill-opacity="1" /><path clip-path="url(#clip200)" d="M108.978 479.728 Q105.367 479.728 103.538 483.293 Q101.733 486.834 101.733 493.964 Q101.733 501.07 103.538 504.635 Q105.367 508.177 108.978 508.177 Q112.612 508.177 114.418 504.635 Q116.246 501.07 116.246 493.964 Q116.246 486.834 114.418 483.293 Q112.612 479.728 108.978 479.728 M108.978 476.024 Q114.788 476.024 117.844 480.631 Q120.922 485.214 120.922 493.964 Q120.922 502.691 117.844 507.297 Q114.788 511.88 108.978 511.88 Q103.168 511.88 100.089 507.297 Q97.0335 502.691 97.0335 493.964 Q97.0335 485.214 100.089 480.631 Q103.168 476.024 108.978 476.024 Z" fill="#000000" fill-rule="nonzero" fill-opacity="1" /><path clip-path="url(#clip200)" d="M157.311 485.746 L146.732 496.371 L157.311 506.95 L154.556 509.751 L143.931 499.126 L133.306 509.751 L130.575 506.95 L141.131 496.371 L130.575 485.746 L133.306 482.945 L143.931 493.57 L154.556 482.945 L157.311 485.746 Z" fill="#000000" fill-rule="nonzero" fill-opacity="1" /><path clip-path="url(#clip200)" d="M169.672 507.274 L177.311 507.274 L177.311 480.908 L169.001 482.575 L169.001 478.316 L177.265 476.649 L181.94 476.649 L181.94 507.274 L189.579 507.274 L189.579 511.209 L169.672 511.209 L169.672 507.274 Z" fill="#000000" fill-rule="nonzero" fill-opacity="1" /><path clip-path="url(#clip200)" d="M209.024 479.728 Q205.413 479.728 203.584 483.293 Q201.778 486.834 201.778 493.964 Q201.778 501.07 203.584 504.635 Q205.413 508.177 209.024 508.177 Q212.658 508.177 214.463 504.635 Q216.292 501.07 216.292 493.964 Q216.292 486.834 214.463 483.293 Q212.658 479.728 209.024 479.728 M209.024 476.024 Q214.834 476.024 217.889 480.631 Q220.968 485.214 220.968 493.964 Q220.968 502.691 217.889 507.297 Q214.834 511.88 209.024 511.88 Q203.214 511.88 200.135 507.297 Q197.079 502.691 197.079 493.964 Q197.079 485.214 200.135 480.631 Q203.214 476.024 209.024 476.024 Z" fill="#000000" fill-rule="nonzero" fill-opacity="1" /><path clip-path="url(#clip200)" d="M230.598 470.464 Q227.889 470.464 226.328 471.912 Q224.786 473.36 224.786 475.9 Q224.786 478.439 226.328 479.887 Q227.889 481.335 230.598 481.335 Q233.306 481.335 234.867 479.887 Q236.428 478.42 236.428 475.9 Q236.428 473.36 234.867 471.912 Q233.325 470.464 230.598 470.464 M226.798 468.847 Q224.353 468.245 222.98 466.571 Q221.626 464.897 221.626 462.49 Q221.626 459.123 224.015 457.167 Q226.422 455.211 230.598 455.211 Q234.792 455.211 237.18 457.167 Q239.569 459.123 239.569 462.49 Q239.569 464.897 238.196 466.571 Q236.842 468.245 234.416 468.847 Q237.162 469.486 238.685 471.348 Q240.227 473.21 240.227 475.9 Q240.227 479.981 237.726 482.163 Q235.243 484.344 230.598 484.344 Q225.952 484.344 223.451 482.163 Q220.968 479.981 220.968 475.9 Q220.968 473.21 222.51 471.348 Q224.053 469.486 226.798 468.847 M225.407 462.847 Q225.407 465.029 226.761 466.251 Q228.134 467.474 230.598 467.474 Q233.043 467.474 234.416 466.251 Q235.807 465.029 235.807 462.847 Q235.807 460.665 234.416 459.443 Q233.043 458.22 230.598 458.22 Q228.134 458.22 226.761 459.443 Q225.407 460.665 225.407 462.847 Z" fill="#000000" fill-rule="nonzero" fill-opacity="1" /><path clip-path="url(#clip200)" d="M53.793 237.091 L72.1494 237.091 L72.1494 241.026 L58.0754 241.026 L58.0754 249.498 Q59.0939 249.151 60.1124 248.989 Q61.131 248.804 62.1495 248.804 Q67.9365 248.804 71.3161 251.975 Q74.6957 255.146 74.6957 260.563 Q74.6957 266.141 71.2235 269.243 Q67.7513 272.322 61.4319 272.322 Q59.256 272.322 56.9875 271.952 Q54.7421 271.581 52.3347 270.84 L52.3347 266.141 Q54.418 267.276 56.6402 267.831 Q58.8625 268.387 61.3393 268.387 Q65.3439 268.387 67.6819 266.28 Q70.0198 264.174 70.0198 260.563 Q70.0198 256.952 67.6819 254.845 Q65.3439 252.739 61.3393 252.739 Q59.4643 252.739 57.5893 253.155 Q55.7375 253.572 53.793 254.452 L53.793 237.091 Z" fill="#000000" fill-rule="nonzero" fill-opacity="1" /><path clip-path="url(#clip200)" d="M83.9086 265.771 L88.7928 265.771 L88.7928 271.651 L83.9086 271.651 L83.9086 265.771 Z" fill="#000000" fill-rule="nonzero" fill-opacity="1" /><path clip-path="url(#clip200)" d="M108.978 240.169 Q105.367 240.169 103.538 243.734 Q101.733 247.276 101.733 254.405 Q101.733 261.512 103.538 265.077 Q105.367 268.618 108.978 268.618 Q112.612 268.618 114.418 265.077 Q116.246 261.512 116.246 254.405 Q116.246 247.276 114.418 243.734 Q112.612 240.169 108.978 240.169 M108.978 236.466 Q114.788 236.466 117.844 241.072 Q120.922 245.655 120.922 254.405 Q120.922 263.132 117.844 267.739 Q114.788 272.322 108.978 272.322 Q103.168 272.322 100.089 267.739 Q97.0335 263.132 97.0335 254.405 Q97.0335 245.655 100.089 241.072 Q103.168 236.466 108.978 236.466 Z" fill="#000000" fill-rule="nonzero" fill-opacity="1" /><path clip-path="url(#clip200)" d="M157.311 246.188 L146.732 256.813 L157.311 267.391 L154.556 270.192 L143.931 259.567 L133.306 270.192 L130.575 267.391 L141.131 256.813 L130.575 246.188 L133.306 243.387 L143.931 254.012 L154.556 243.387 L157.311 246.188 Z" fill="#000000" fill-rule="nonzero" fill-opacity="1" /><path clip-path="url(#clip200)" d="M169.672 267.715 L177.311 267.715 L177.311 241.35 L169.001 243.017 L169.001 238.757 L177.265 237.091 L181.94 237.091 L181.94 267.715 L189.579 267.715 L189.579 271.651 L169.672 271.651 L169.672 267.715 Z" fill="#000000" fill-rule="nonzero" fill-opacity="1" /><path clip-path="url(#clip200)" d="M209.024 240.169 Q205.413 240.169 203.584 243.734 Q201.778 247.276 201.778 254.405 Q201.778 261.512 203.584 265.077 Q205.413 268.618 209.024 268.618 Q212.658 268.618 214.463 265.077 Q216.292 261.512 216.292 254.405 Q216.292 247.276 214.463 243.734 Q212.658 240.169 209.024 240.169 M209.024 236.466 Q214.834 236.466 217.889 241.072 Q220.968 245.655 220.968 254.405 Q220.968 263.132 217.889 267.739 Q214.834 272.322 209.024 272.322 Q203.214 272.322 200.135 267.739 Q197.079 263.132 197.079 254.405 Q197.079 245.655 200.135 241.072 Q203.214 236.466 209.024 236.466 Z" fill="#000000" fill-rule="nonzero" fill-opacity="1" /><path clip-path="url(#clip200)" d="M230.598 230.906 Q227.889 230.906 226.328 232.354 Q224.786 233.802 224.786 236.341 Q224.786 238.88 226.328 240.328 Q227.889 241.776 230.598 241.776 Q233.306 241.776 234.867 240.328 Q236.428 238.861 236.428 236.341 Q236.428 233.802 234.867 232.354 Q233.325 230.906 230.598 230.906 M226.798 229.288 Q224.353 228.686 222.98 227.012 Q221.626 225.338 221.626 222.931 Q221.626 219.564 224.015 217.608 Q226.422 215.652 230.598 215.652 Q234.792 215.652 237.18 217.608 Q239.569 219.564 239.569 222.931 Q239.569 225.338 238.196 227.012 Q236.842 228.686 234.416 229.288 Q237.162 229.928 238.685 231.79 Q240.227 233.651 240.227 236.341 Q240.227 240.422 237.726 242.604 Q235.243 244.786 230.598 244.786 Q225.952 244.786 223.451 242.604 Q220.968 240.422 220.968 236.341 Q220.968 233.651 222.51 231.79 Q224.053 229.928 226.798 229.288 M225.407 223.288 Q225.407 225.47 226.761 226.693 Q228.134 227.915 230.598 227.915 Q233.043 227.915 234.416 226.693 Q235.807 225.47 235.807 223.288 Q235.807 221.107 234.416 219.884 Q233.043 218.662 230.598 218.662 Q228.134 218.662 226.761 219.884 Q225.407 221.107 225.407 223.288 Z" fill="#000000" fill-rule="nonzero" fill-opacity="1" /><path clip-path="url(#clip202)" d="M390.44 87.9763 L390.44 711.431 L869.578 711.431 L869.578 87.9763 L390.44 87.9763 L390.44 87.9763  Z" fill="#009af9" fill-rule="evenodd" fill-opacity="1"/>
<polyline clip-path="url(#clip202)" style="stroke:#000000; stroke-linecap:round; stroke-linejoin:round; stroke-width:4; stroke-opacity:1; fill:none" points="390.44,87.9763 390.44,711.431 869.578,711.431 869.578,87.9763 390.44,87.9763 "/>
<path clip-path="url(#clip202)" d="M1074.92 791.174 L1074.92 1286.43 L1554.06 1286.43 L1554.06 791.174 L1074.92 791.174 L1074.92 791.174  Z" fill="#009af9" fill-rule="evenodd" fill-opacity="1"/>
<polyline clip-path="url(#clip202)" style="stroke:#000000; stroke-linecap:round; stroke-linejoin:round; stroke-width:4; stroke-opacity:1; fill:none" points="1074.92,791.174 1074.92,1286.43 1554.06,1286.43 1554.06,791.174 1074.92,791.174 "/>
<path clip-path="url(#clip202)" d="M1759.41 1348.06 L1759.41 1430.77 L2238.54 1430.77 L2238.54 1348.06 L1759.41 1348.06 L1759.41 1348.06  Z" fill="#009af9" fill-rule="evenodd" fill-opacity="1"/>
<polyline clip-path="url(#clip202)" style="stroke:#000000; stroke-linecap:round; stroke-linejoin:round; stroke-width:4; stroke-opacity:1; fill:none" points="1759.41,1348.06 1759.41,1430.77 2238.54,1430.77 2238.54,1348.06 1759.41,1348.06 "/>
<circle clip-path="url(#clip202)" style="fill:#009af9; stroke:none; fill-opacity:0" cx="630.009" cy="87.9763" r="2"/>
<circle clip-path="url(#clip202)" style="fill:#009af9; stroke:none; fill-opacity:0" cx="1314.49" cy="791.174" r="2"/>
<circle clip-path="url(#clip202)" style="fill:#009af9; stroke:none; fill-opacity:0" cx="1998.97" cy="1348.06" r="2"/>
<path clip-path="url(#clip202)" d="M390.44 711.431 L390.44 972.507 L869.578 972.507 L869.578 711.431 L390.44 711.431 L390.44 711.431  Z" fill="#e26f46" fill-rule="evenodd" fill-opacity="1"/>
<polyline clip-path="url(#clip202)" style="stroke:#000000; stroke-linecap:round; stroke-linejoin:round; stroke-width:4; stroke-opacity:1; fill:none" points="390.44,711.431 390.44,972.507 869.578,972.507 869.578,711.431 390.44,711.431 "/>
<path clip-path="url(#clip202)" d="M1074.92 1286.43 L1074.92 1286.43 L1554.06 1286.43 L1554.06 1286.43 L1074.92 1286.43 L1074.92 1286.43  Z" fill="#e26f46" fill-rule="evenodd" fill-opacity="1"/>
<polyline clip-path="url(#clip202)" style="stroke:#000000; stroke-linecap:round; stroke-linejoin:round; stroke-width:4; stroke-opacity:1; fill:none" points="1074.92,1286.43 1074.92,1286.43 1554.06,1286.43 1074.92,1286.43 "/>
<path clip-path="url(#clip202)" d="M1759.41 1430.77 L1759.41 1438.67 L2238.54 1438.67 L2238.54 1430.77 L1759.41 1430.77 L1759.41 1430.77  Z" fill="#e26f46" fill-rule="evenodd" fill-opacity="1"/>
<polyline clip-path="url(#clip202)" style="stroke:#000000; stroke-linecap:round; stroke-linejoin:round; stroke-width:4; stroke-opacity:1; fill:none" points="1759.41,1430.77 1759.41,1438.67 2238.54,1438.67 2238.54,1430.77 1759.41,1430.77 "/>
<circle clip-path="url(#clip202)" style="fill:#e26f46; stroke:none; fill-opacity:0" cx="630.009" cy="711.431" r="2"/>
<circle clip-path="url(#clip202)" style="fill:#e26f46; stroke:none; fill-opacity:0" cx="1314.49" cy="1286.43" r="2"/>
<circle clip-path="url(#clip202)" style="fill:#e26f46; stroke:none; fill-opacity:0" cx="1998.97" cy="1430.77" r="2"/>
<path clip-path="url(#clip202)" d="M390.44 972.507 L390.44 1031.39 L869.578 1031.39 L869.578 972.507 L390.44 972.507 L390.44 972.507  Z" fill="#3da44d" fill-rule="evenodd" fill-opacity="1"/>
<polyline clip-path="url(#clip202)" style="stroke:#000000; stroke-linecap:round; stroke-linejoin:round; stroke-width:4; stroke-opacity:1; fill:none" points="390.44,972.507 390.44,1031.39 869.578,1031.39 869.578,972.507 390.44,972.507 "/>
<path clip-path="url(#clip202)" d="M1074.92 1286.43 L1074.92 1287.33 L1554.06 1287.33 L1554.06 1286.43 L1074.92 1286.43 L1074.92 1286.43  Z" fill="#3da44d" fill-rule="evenodd" fill-opacity="1"/>
<polyline clip-path="url(#clip202)" style="stroke:#000000; stroke-linecap:round; stroke-linejoin:round; stroke-width:4; stroke-opacity:1; fill:none" points="1074.92,1286.43 1074.92,1287.33 1554.06,1287.33 1554.06,1286.43 1074.92,1286.43 "/>
<path clip-path="url(#clip202)" d="M1759.41 1438.67 L1759.41 1442.5 L2238.54 1442.5 L2238.54 1438.67 L1759.41 1438.67 L1759.41 1438.67  Z" fill="#3da44d" fill-rule="evenodd" fill-opacity="1"/>
<polyline clip-path="url(#clip202)" style="stroke:#000000; stroke-linecap:round; stroke-linejoin:round; stroke-width:4; stroke-opacity:1; fill:none" points="1759.41,1438.67 1759.41,1442.5 2238.54,1442.5 2238.54,1438.67 1759.41,1438.67 "/>
<circle clip-path="url(#clip202)" style="fill:#3da44d; stroke:none; fill-opacity:0" cx="630.009" cy="972.507" r="2"/>
<circle clip-path="url(#clip202)" style="fill:#3da44d; stroke:none; fill-opacity:0" cx="1314.49" cy="1286.43" r="2"/>
<circle clip-path="url(#clip202)" style="fill:#3da44d; stroke:none; fill-opacity:0" cx="1998.97" cy="1438.67" r="2"/>
<path clip-path="url(#clip202)" d="M390.44 1031.39 L390.44 1031.39 L869.578 1031.39 L869.578 1031.39 L390.44 1031.39 L390.44 1031.39  Z" fill="#c271d2" fill-rule="evenodd" fill-opacity="1"/>
<polyline clip-path="url(#clip202)" style="stroke:#000000; stroke-linecap:round; stroke-linejoin:round; stroke-width:4; stroke-opacity:1; fill:none" points="390.44,1031.39 390.44,1031.39 869.578,1031.39 390.44,1031.39 "/>
<path clip-path="url(#clip202)" d="M1074.92 1287.33 L1074.92 1443.04 L1554.06 1443.04 L1554.06 1287.33 L1074.92 1287.33 L1074.92 1287.33  Z" fill="#c271d2" fill-rule="evenodd" fill-opacity="1"/>
<polyline clip-path="url(#clip202)" style="stroke:#000000; stroke-linecap:round; stroke-linejoin:round; stroke-width:4; stroke-opacity:1; fill:none" points="1074.92,1287.33 1074.92,1443.04 1554.06,1443.04 1554.06,1287.33 1074.92,1287.33 "/>
<path clip-path="url(#clip202)" d="M1759.41 1442.5 L1759.41 1442.5 L2238.54 1442.5 L2238.54 1442.5 L1759.41 1442.5 L1759.41 1442.5  Z" fill="#c271d2" fill-rule="evenodd" fill-opacity="1"/>
<polyline clip-path="url(#clip202)" style="stroke:#000000; stroke-linecap:round; stroke-linejoin:round; stroke-width:4; stroke-opacity:1; fill:none" points="1759.41,1442.5 1759.41,1442.5 2238.54,1442.5 1759.41,1442.5 "/>
<circle clip-path="url(#clip202)" style="fill:#c271d2; stroke:none; fill-opacity:0" cx="630.009" cy="1031.39" r="2"/>
<circle clip-path="url(#clip202)" style="fill:#c271d2; stroke:none; fill-opacity:0" cx="1314.49" cy="1287.33" r="2"/>
<circle clip-path="url(#clip202)" style="fill:#c271d2; stroke:none; fill-opacity:0" cx="1998.97" cy="1442.5" r="2"/>
<path clip-path="url(#clip202)" d="M390.44 1031.39 L390.44 1069.15 L869.578 1069.15 L869.578 1031.39 L390.44 1031.39 L390.44 1031.39  Z" fill="#ac8d18" fill-rule="evenodd" fill-opacity="1"/>
<polyline clip-path="url(#clip202)" style="stroke:#000000; stroke-linecap:round; stroke-linejoin:round; stroke-width:4; stroke-opacity:1; fill:none" points="390.44,1031.39 390.44,1069.15 869.578,1069.15 869.578,1031.39 390.44,1031.39 "/>
<path clip-path="url(#clip202)" d="M1074.92 1443.04 L1074.92 1445.72 L1554.06 1445.72 L1554.06 1443.04 L1074.92 1443.04 L1074.92 1443.04  Z" fill="#ac8d18" fill-rule="evenodd" fill-opacity="1"/>
<polyline clip-path="url(#clip202)" style="stroke:#000000; stroke-linecap:round; stroke-linejoin:round; stroke-width:4; stroke-opacity:1; fill:none" points="1074.92,1443.04 1074.92,1445.72 1554.06,1445.72 1554.06,1443.04 1074.92,1443.04 "/>
<path clip-path="url(#clip202)" d="M1759.41 1442.5 L1759.41 1445.72 L2238.54 1445.72 L2238.54 1442.5 L1759.41 1442.5 L1759.41 1442.5  Z" fill="#ac8d18" fill-rule="evenodd" fill-opacity="1"/>
<polyline clip-path="url(#clip202)" style="stroke:#000000; stroke-linecap:round; stroke-linejoin:round; stroke-width:4; stroke-opacity:1; fill:none" points="1759.41,1442.5 1759.41,1445.72 2238.54,1445.72 2238.54,1442.5 1759.41,1442.5 "/>
<circle clip-path="url(#clip202)" style="fill:#ac8d18; stroke:none; fill-opacity:0" cx="630.009" cy="1031.39" r="2"/>
<circle clip-path="url(#clip202)" style="fill:#ac8d18; stroke:none; fill-opacity:0" cx="1314.49" cy="1443.04" r="2"/>
<circle clip-path="url(#clip202)" style="fill:#ac8d18; stroke:none; fill-opacity:0" cx="1998.97" cy="1442.5" r="2"/>
<path clip-path="url(#clip202)" d="M390.44 1069.15 L390.44 1445.72 L869.578 1445.72 L869.578 1069.15 L390.44 1069.15 L390.44 1069.15  Z" fill="#00a9ad" fill-rule="evenodd" fill-opacity="1"/>
<polyline clip-path="url(#clip202)" style="stroke:#000000; stroke-linecap:round; stroke-linejoin:round; stroke-width:4; stroke-opacity:1; fill:none" points="390.44,1069.15 390.44,1445.72 869.578,1445.72 869.578,1069.15 390.44,1069.15 "/>
<path clip-path="url(#clip202)" d="M1074.92 1445.72 L1074.92 1445.72 L1554.06 1445.72 L1554.06 1445.72 L1074.92 1445.72 L1074.92 1445.72  Z" fill="#00a9ad" fill-rule="evenodd" fill-opacity="1"/>
<polyline clip-path="url(#clip202)" style="stroke:#000000; stroke-linecap:round; stroke-linejoin:round; stroke-width:4; stroke-opacity:1; fill:none" points="1074.92,1445.72 1074.92,1445.72 1554.06,1445.72 1074.92,1445.72 "/>
<path clip-path="url(#clip202)" d="M1759.41 1445.72 L1759.41 1445.72 L2238.54 1445.72 L2238.54 1445.72 L1759.41 1445.72 L1759.41 1445.72  Z" fill="#00a9ad" fill-rule="evenodd" fill-opacity="1"/>
<polyline clip-path="url(#clip202)" style="stroke:#000000; stroke-linecap:round; stroke-linejoin:round; stroke-width:4; stroke-opacity:1; fill:none" points="1759.41,1445.72 1759.41,1445.72 2238.54,1445.72 1759.41,1445.72 "/>
<circle clip-path="url(#clip202)" style="fill:#00a9ad; stroke:none; fill-opacity:0" cx="630.009" cy="1069.15" r="2"/>
<circle clip-path="url(#clip202)" style="fill:#00a9ad; stroke:none; fill-opacity:0" cx="1314.49" cy="1445.72" r="2"/>
<circle clip-path="url(#clip202)" style="fill:#00a9ad; stroke:none; fill-opacity:0" cx="1998.97" cy="1445.72" r="2"/>
<path clip-path="url(#clip200)" d="M1898.09 458.098 L2283.54 458.098 L2283.54 95.2176 L1898.09 95.2176  Z" fill="#ffffff" fill-rule="evenodd" fill-opacity="1"/>
<polyline clip-path="url(#clip200)" style="stroke:#000000; stroke-linecap:round; stroke-linejoin:round; stroke-width:4; stroke-opacity:1; fill:none" points="1898.09,458.098 2283.54,458.098 2283.54,95.2176 1898.09,95.2176 1898.09,458.098 "/>
<path clip-path="url(#clip200)" d="M1921.16 167.794 L2059.59 167.794 L2059.59 126.322 L1921.16 126.322 L1921.16 167.794  Z" fill="#009af9" fill-rule="evenodd" fill-opacity="1"/>
<polyline clip-path="url(#clip200)" style="stroke:#000000; stroke-linecap:round; stroke-linejoin:round; stroke-width:4; stroke-opacity:1; fill:none" points="1921.16,167.794 2059.59,167.794 2059.59,126.322 1921.16,126.322 1921.16,167.794 "/>
<path clip-path="url(#clip200)" d="M2082.67 129.778 L2087.39 129.778 L2094.66 158.99 L2101.9 129.778 L2107.16 129.778 L2114.42 158.99 L2121.67 129.778 L2126.42 129.778 L2117.74 164.338 L2111.86 164.338 L2104.56 134.338 L2097.2 164.338 L2091.32 164.338 L2082.67 129.778 Z" fill="#000000" fill-rule="nonzero" fill-opacity="1" /><path clip-path="url(#clip200)" d="M2131.39 138.412 L2135.65 138.412 L2135.65 164.338 L2131.39 164.338 L2131.39 138.412 M2131.39 128.319 L2135.65 128.319 L2135.65 133.713 L2131.39 133.713 L2131.39 128.319 Z" fill="#000000" fill-rule="nonzero" fill-opacity="1" /><path clip-path="url(#clip200)" d="M2166.11 148.689 L2166.11 164.338 L2161.86 164.338 L2161.86 148.828 Q2161.86 145.148 2160.42 143.319 Q2158.98 141.49 2156.11 141.49 Q2152.67 141.49 2150.67 143.69 Q2148.68 145.889 2148.68 149.685 L2148.68 164.338 L2144.4 164.338 L2144.4 138.412 L2148.68 138.412 L2148.68 142.44 Q2150.21 140.102 2152.27 138.944 Q2154.36 137.787 2157.06 137.787 Q2161.53 137.787 2163.82 140.565 Q2166.11 143.319 2166.11 148.689 Z" fill="#000000" fill-rule="nonzero" fill-opacity="1" /><path clip-path="url(#clip200)" d="M2191.67 142.347 L2191.67 128.319 L2195.93 128.319 L2195.93 164.338 L2191.67 164.338 L2191.67 160.449 Q2190.33 162.763 2188.27 163.898 Q2186.23 165.009 2183.36 165.009 Q2178.66 165.009 2175.7 161.259 Q2172.76 157.509 2172.76 151.398 Q2172.76 145.287 2175.7 141.537 Q2178.66 137.787 2183.36 137.787 Q2186.23 137.787 2188.27 138.921 Q2190.33 140.032 2191.67 142.347 M2177.16 151.398 Q2177.16 156.097 2179.08 158.782 Q2181.02 161.444 2184.4 161.444 Q2187.78 161.444 2189.73 158.782 Q2191.67 156.097 2191.67 151.398 Q2191.67 146.699 2189.73 144.037 Q2187.78 141.352 2184.4 141.352 Q2181.02 141.352 2179.08 144.037 Q2177.16 146.699 2177.16 151.398 Z" fill="#000000" fill-rule="nonzero" fill-opacity="1" /><path clip-path="url(#clip200)" d="M1921.16 219.634 L2059.59 219.634 L2059.59 178.162 L1921.16 178.162 L1921.16 219.634  Z" fill="#e26f46" fill-rule="evenodd" fill-opacity="1"/>
<polyline clip-path="url(#clip200)" style="stroke:#000000; stroke-linecap:round; stroke-linejoin:round; stroke-width:4; stroke-opacity:1; fill:none" points="1921.16,219.634 2059.59,219.634 2059.59,178.162 1921.16,178.162 1921.16,219.634 "/>
<path clip-path="url(#clip200)" d="M2087.34 185.46 L2087.34 198.446 L2093.22 198.446 Q2096.49 198.446 2098.27 196.756 Q2100.05 195.067 2100.05 191.942 Q2100.05 188.84 2098.27 187.15 Q2096.49 185.46 2093.22 185.46 L2087.34 185.46 M2082.67 181.618 L2093.22 181.618 Q2099.03 181.618 2101.99 184.256 Q2104.98 186.872 2104.98 191.942 Q2104.98 197.057 2101.99 199.673 Q2099.03 202.289 2093.22 202.289 L2087.34 202.289 L2087.34 216.178 L2082.67 216.178 L2082.67 181.618 Z" fill="#000000" fill-rule="nonzero" fill-opacity="1" /><path clip-path="url(#clip200)" d="M2120.17 216.178 L2106.97 181.618 L2111.86 181.618 L2122.8 210.715 L2133.78 181.618 L2138.64 181.618 L2125.47 216.178 L2120.17 216.178 Z" fill="#000000" fill-rule="nonzero" fill-opacity="1" /><path clip-path="url(#clip200)" d="M1921.16 271.474 L2059.59 271.474 L2059.59 230.002 L1921.16 230.002 L1921.16 271.474  Z" fill="#3da44d" fill-rule="evenodd" fill-opacity="1"/>
<polyline clip-path="url(#clip200)" style="stroke:#000000; stroke-linecap:round; stroke-linejoin:round; stroke-width:4; stroke-opacity:1; fill:none" points="1921.16,271.474 2059.59,271.474 2059.59,230.002 1921.16,230.002 1921.16,271.474 "/>
<path clip-path="url(#clip200)" d="M2108.22 263.087 L2108.22 253.805 L2100.58 253.805 L2100.58 249.962 L2112.85 249.962 L2112.85 264.8 Q2110.14 266.721 2106.88 267.717 Q2103.61 268.689 2099.91 268.689 Q2091.81 268.689 2087.23 263.967 Q2082.67 259.221 2082.67 250.772 Q2082.67 242.3 2087.23 237.578 Q2091.81 232.833 2099.91 232.833 Q2103.29 232.833 2106.32 233.666 Q2109.38 234.499 2111.95 236.12 L2111.95 241.096 Q2109.36 238.897 2106.44 237.786 Q2103.52 236.675 2100.3 236.675 Q2093.96 236.675 2090.77 240.217 Q2087.6 243.758 2087.6 250.772 Q2087.6 257.763 2090.77 261.305 Q2093.96 264.846 2100.3 264.846 Q2102.78 264.846 2104.73 264.43 Q2106.67 263.99 2108.22 263.087 Z" fill="#000000" fill-rule="nonzero" fill-opacity="1" /><path clip-path="url(#clip200)" d="M2132.99 254.985 Q2127.83 254.985 2125.84 256.166 Q2123.85 257.346 2123.85 260.194 Q2123.85 262.462 2125.33 263.805 Q2126.83 265.124 2129.4 265.124 Q2132.94 265.124 2135.07 262.624 Q2137.23 260.101 2137.23 255.934 L2137.23 254.985 L2132.99 254.985 M2141.48 253.226 L2141.48 268.018 L2137.23 268.018 L2137.23 264.082 Q2135.77 266.443 2133.59 267.578 Q2131.42 268.689 2128.27 268.689 Q2124.29 268.689 2121.92 266.467 Q2119.59 264.221 2119.59 260.471 Q2119.59 256.096 2122.5 253.874 Q2125.44 251.652 2131.25 251.652 L2137.23 251.652 L2137.23 251.235 Q2137.23 248.295 2135.28 246.698 Q2133.36 245.078 2129.86 245.078 Q2127.64 245.078 2125.54 245.61 Q2123.43 246.143 2121.49 247.207 L2121.49 243.272 Q2123.82 242.37 2126.02 241.93 Q2128.22 241.467 2130.3 241.467 Q2135.93 241.467 2138.71 244.383 Q2141.48 247.3 2141.48 253.226 Z" fill="#000000" fill-rule="nonzero" fill-opacity="1" /><path clip-path="url(#clip200)" d="M2166.79 242.856 L2166.79 246.883 Q2164.98 245.957 2163.04 245.495 Q2161.09 245.032 2159.01 245.032 Q2155.84 245.032 2154.24 246.004 Q2152.67 246.976 2152.67 248.92 Q2152.67 250.402 2153.8 251.258 Q2154.93 252.092 2158.36 252.856 L2159.82 253.18 Q2164.36 254.152 2166.25 255.934 Q2168.17 257.694 2168.17 260.865 Q2168.17 264.476 2165.3 266.582 Q2162.46 268.689 2157.46 268.689 Q2155.37 268.689 2153.11 268.272 Q2150.86 267.879 2148.36 267.068 L2148.36 262.67 Q2150.72 263.897 2153.01 264.522 Q2155.3 265.124 2157.55 265.124 Q2160.56 265.124 2162.18 264.106 Q2163.8 263.064 2163.8 261.189 Q2163.8 259.453 2162.62 258.527 Q2161.46 257.601 2157.5 256.744 L2156.02 256.397 Q2152.06 255.564 2150.3 253.851 Q2148.55 252.115 2148.55 249.106 Q2148.55 245.448 2151.14 243.458 Q2153.73 241.467 2158.5 241.467 Q2160.86 241.467 2162.94 241.814 Q2165.03 242.161 2166.79 242.856 Z" fill="#000000" fill-rule="nonzero" fill-opacity="1" /><path clip-path="url(#clip200)" d="M1921.16 323.314 L2059.59 323.314 L2059.59 281.842 L1921.16 281.842 L1921.16 323.314  Z" fill="#c271d2" fill-rule="evenodd" fill-opacity="1"/>
<polyline clip-path="url(#clip200)" style="stroke:#000000; stroke-linecap:round; stroke-linejoin:round; stroke-width:4; stroke-opacity:1; fill:none" points="1921.16,323.314 2059.59,323.314 2059.59,281.842 1921.16,281.842 1921.16,323.314 "/>
<path clip-path="url(#clip200)" d="M2082.67 285.298 L2087.34 285.298 L2087.34 299.464 L2104.33 299.464 L2104.33 285.298 L2109.01 285.298 L2109.01 319.858 L2104.33 319.858 L2104.33 303.399 L2087.34 303.399 L2087.34 319.858 L2082.67 319.858 L2082.67 285.298 Z" fill="#000000" fill-rule="nonzero" fill-opacity="1" /><path clip-path="url(#clip200)" d="M2128.92 322.265 Q2127.11 326.895 2125.4 328.307 Q2123.68 329.719 2120.81 329.719 L2117.41 329.719 L2117.41 326.154 L2119.91 326.154 Q2121.67 326.154 2122.64 325.32 Q2123.61 324.487 2124.8 321.385 L2125.56 319.441 L2115.07 293.932 L2119.59 293.932 L2127.69 314.209 L2135.79 293.932 L2140.3 293.932 L2128.92 322.265 Z" fill="#000000" fill-rule="nonzero" fill-opacity="1" /><path clip-path="url(#clip200)" d="M2163.24 297.867 L2163.24 283.839 L2167.5 283.839 L2167.5 319.858 L2163.24 319.858 L2163.24 315.969 Q2161.9 318.283 2159.84 319.418 Q2157.8 320.529 2154.93 320.529 Q2150.23 320.529 2147.27 316.779 Q2144.33 313.029 2144.33 306.918 Q2144.33 300.807 2147.27 297.057 Q2150.23 293.307 2154.93 293.307 Q2157.8 293.307 2159.84 294.441 Q2161.9 295.552 2163.24 297.867 M2148.73 306.918 Q2148.73 311.617 2150.65 314.302 Q2152.6 316.964 2155.98 316.964 Q2159.36 316.964 2161.3 314.302 Q2163.24 311.617 2163.24 306.918 Q2163.24 302.219 2161.3 299.557 Q2159.36 296.872 2155.98 296.872 Q2152.6 296.872 2150.65 299.557 Q2148.73 302.219 2148.73 306.918 Z" fill="#000000" fill-rule="nonzero" fill-opacity="1" /><path clip-path="url(#clip200)" d="M2191.3 297.913 Q2190.58 297.497 2189.73 297.311 Q2188.89 297.103 2187.87 297.103 Q2184.26 297.103 2182.32 299.464 Q2180.4 301.802 2180.4 306.2 L2180.4 319.858 L2176.11 319.858 L2176.11 293.932 L2180.4 293.932 L2180.4 297.96 Q2181.74 295.598 2183.89 294.464 Q2186.04 293.307 2189.12 293.307 Q2189.56 293.307 2190.1 293.376 Q2190.63 293.423 2191.28 293.538 L2191.3 297.913 Z" fill="#000000" fill-rule="nonzero" fill-opacity="1" /><path clip-path="url(#clip200)" d="M2204.77 296.918 Q2201.35 296.918 2199.35 299.603 Q2197.36 302.265 2197.36 306.918 Q2197.36 311.571 2199.33 314.256 Q2201.32 316.918 2204.77 316.918 Q2208.17 316.918 2210.17 314.233 Q2212.16 311.547 2212.16 306.918 Q2212.16 302.311 2210.17 299.626 Q2208.17 296.918 2204.77 296.918 M2204.77 293.307 Q2210.33 293.307 2213.5 296.918 Q2216.67 300.529 2216.67 306.918 Q2216.67 313.284 2213.5 316.918 Q2210.33 320.529 2204.77 320.529 Q2199.19 320.529 2196.02 316.918 Q2192.87 313.284 2192.87 306.918 Q2192.87 300.529 2196.02 296.918 Q2199.19 293.307 2204.77 293.307 Z" fill="#000000" fill-rule="nonzero" fill-opacity="1" /><path clip-path="url(#clip200)" d="M1921.16 375.154 L2059.59 375.154 L2059.59 333.682 L1921.16 333.682 L1921.16 375.154  Z" fill="#ac8d18" fill-rule="evenodd" fill-opacity="1"/>
<polyline clip-path="url(#clip200)" style="stroke:#000000; stroke-linecap:round; stroke-linejoin:round; stroke-width:4; stroke-opacity:1; fill:none" points="1921.16,375.154 2059.59,375.154 2059.59,333.682 1921.16,333.682 1921.16,375.154 "/>
<path clip-path="url(#clip200)" d="M2087.34 355.193 L2087.34 367.855 L2094.84 367.855 Q2098.61 367.855 2100.42 366.304 Q2102.25 364.73 2102.25 361.512 Q2102.25 358.272 2100.42 356.744 Q2098.61 355.193 2094.84 355.193 L2087.34 355.193 M2087.34 340.98 L2087.34 351.397 L2094.26 351.397 Q2097.69 351.397 2099.36 350.124 Q2101.05 348.827 2101.05 346.188 Q2101.05 343.573 2099.36 342.276 Q2097.69 340.98 2094.26 340.98 L2087.34 340.98 M2082.67 337.138 L2094.61 337.138 Q2099.96 337.138 2102.85 339.36 Q2105.74 341.582 2105.74 345.679 Q2105.74 348.85 2104.26 350.725 Q2102.78 352.6 2099.91 353.063 Q2103.36 353.804 2105.26 356.165 Q2107.18 358.503 2107.18 362.022 Q2107.18 366.651 2104.03 369.174 Q2100.88 371.698 2095.07 371.698 L2082.67 371.698 L2082.67 337.138 Z" fill="#000000" fill-rule="nonzero" fill-opacity="1" /><path clip-path="url(#clip200)" d="M2126.79 358.665 Q2121.62 358.665 2119.63 359.846 Q2117.64 361.026 2117.64 363.874 Q2117.64 366.142 2119.12 367.485 Q2120.63 368.804 2123.2 368.804 Q2126.74 368.804 2128.87 366.304 Q2131.02 363.781 2131.02 359.614 L2131.02 358.665 L2126.79 358.665 M2135.28 356.906 L2135.28 371.698 L2131.02 371.698 L2131.02 367.762 Q2129.56 370.123 2127.39 371.258 Q2125.21 372.369 2122.06 372.369 Q2118.08 372.369 2115.72 370.147 Q2113.38 367.901 2113.38 364.151 Q2113.38 359.776 2116.3 357.554 Q2119.24 355.332 2125.05 355.332 L2131.02 355.332 L2131.02 354.915 Q2131.02 351.975 2129.08 350.378 Q2127.16 348.758 2123.66 348.758 Q2121.44 348.758 2119.33 349.29 Q2117.23 349.823 2115.28 350.887 L2115.28 346.952 Q2117.62 346.05 2119.82 345.61 Q2122.02 345.147 2124.1 345.147 Q2129.73 345.147 2132.5 348.063 Q2135.28 350.98 2135.28 356.906 Z" fill="#000000" fill-rule="nonzero" fill-opacity="1" /><path clip-path="url(#clip200)" d="M2148.27 338.411 L2148.27 345.772 L2157.04 345.772 L2157.04 349.082 L2148.27 349.082 L2148.27 363.156 Q2148.27 366.327 2149.12 367.23 Q2150 368.133 2152.67 368.133 L2157.04 368.133 L2157.04 371.698 L2152.67 371.698 Q2147.73 371.698 2145.86 369.869 Q2143.98 368.017 2143.98 363.156 L2143.98 349.082 L2140.86 349.082 L2140.86 345.772 L2143.98 345.772 L2143.98 338.411 L2148.27 338.411 Z" fill="#000000" fill-rule="nonzero" fill-opacity="1" /><path clip-path="url(#clip200)" d="M2166.86 338.411 L2166.86 345.772 L2175.63 345.772 L2175.63 349.082 L2166.86 349.082 L2166.86 363.156 Q2166.86 366.327 2167.71 367.23 Q2168.59 368.133 2171.25 368.133 L2175.63 368.133 L2175.63 371.698 L2171.25 371.698 Q2166.32 371.698 2164.45 369.869 Q2162.57 368.017 2162.57 363.156 L2162.57 349.082 L2159.45 349.082 L2159.45 345.772 L2162.57 345.772 L2162.57 338.411 L2166.86 338.411 Z" fill="#000000" fill-rule="nonzero" fill-opacity="1" /><path clip-path="url(#clip200)" d="M2203.41 357.67 L2203.41 359.753 L2183.82 359.753 Q2184.1 364.151 2186.46 366.466 Q2188.85 368.758 2193.08 368.758 Q2195.54 368.758 2197.83 368.156 Q2200.14 367.554 2202.41 366.35 L2202.41 370.378 Q2200.12 371.35 2197.71 371.86 Q2195.3 372.369 2192.83 372.369 Q2186.62 372.369 2182.99 368.758 Q2179.38 365.147 2179.38 358.989 Q2179.38 352.624 2182.8 348.897 Q2186.25 345.147 2192.09 345.147 Q2197.32 345.147 2200.35 348.526 Q2203.41 351.883 2203.41 357.67 M2199.15 356.42 Q2199.1 352.925 2197.18 350.841 Q2195.28 348.758 2192.13 348.758 Q2188.57 348.758 2186.42 350.772 Q2184.29 352.786 2183.96 356.443 L2199.15 356.42 Z" fill="#000000" fill-rule="nonzero" fill-opacity="1" /><path clip-path="url(#clip200)" d="M2225.42 349.753 Q2224.7 349.337 2223.85 349.151 Q2223.01 348.943 2221.99 348.943 Q2218.38 348.943 2216.44 351.304 Q2214.52 353.642 2214.52 358.04 L2214.52 371.698 L2210.23 371.698 L2210.23 345.772 L2214.52 345.772 L2214.52 349.8 Q2215.86 347.438 2218.01 346.304 Q2220.17 345.147 2223.24 345.147 Q2223.68 345.147 2224.22 345.216 Q2224.75 345.263 2225.4 345.378 L2225.42 349.753 Z" fill="#000000" fill-rule="nonzero" fill-opacity="1" /><path clip-path="url(#clip200)" d="M2240.67 374.105 Q2238.87 378.735 2237.16 380.147 Q2235.44 381.559 2232.57 381.559 L2229.17 381.559 L2229.17 377.994 L2231.67 377.994 Q2233.43 377.994 2234.4 377.16 Q2235.37 376.327 2236.55 373.225 L2237.32 371.281 L2226.83 345.772 L2231.35 345.772 L2239.45 366.049 L2247.55 345.772 L2252.06 345.772 L2240.67 374.105 Z" fill="#000000" fill-rule="nonzero" fill-opacity="1" /><path clip-path="url(#clip200)" d="M1921.16 426.994 L2059.59 426.994 L2059.59 385.522 L1921.16 385.522 L1921.16 426.994  Z" fill="#00a9ad" fill-rule="evenodd" fill-opacity="1"/>
<polyline clip-path="url(#clip200)" style="stroke:#000000; stroke-linecap:round; stroke-linejoin:round; stroke-width:4; stroke-opacity:1; fill:none" points="1921.16,426.994 2059.59,426.994 2059.59,385.522 1921.16,385.522 1921.16,426.994 "/>
<path clip-path="url(#clip200)" d="M2082.67 388.978 L2088.96 388.978 L2104.29 417.889 L2104.29 388.978 L2108.82 388.978 L2108.82 423.538 L2102.53 423.538 L2087.2 394.626 L2087.2 423.538 L2082.67 423.538 L2082.67 388.978 Z" fill="#000000" fill-rule="nonzero" fill-opacity="1" /><path clip-path="url(#clip200)" d="M2117.5 413.306 L2117.5 397.612 L2121.76 397.612 L2121.76 413.144 Q2121.76 416.825 2123.2 418.676 Q2124.63 420.505 2127.5 420.505 Q2130.95 420.505 2132.94 418.306 Q2134.96 416.107 2134.96 412.311 L2134.96 397.612 L2139.22 397.612 L2139.22 423.538 L2134.96 423.538 L2134.96 419.556 Q2133.41 421.917 2131.35 423.075 Q2129.31 424.209 2126.6 424.209 Q2122.13 424.209 2119.82 421.431 Q2117.5 418.653 2117.5 413.306 M2128.22 396.987 L2128.22 396.987 Z" fill="#000000" fill-rule="nonzero" fill-opacity="1" /><path clip-path="url(#clip200)" d="M2166.65 398.607 L2166.65 402.589 Q2164.84 401.593 2163.01 401.107 Q2161.21 400.598 2159.36 400.598 Q2155.21 400.598 2152.92 403.237 Q2150.63 405.852 2150.63 410.598 Q2150.63 415.343 2152.92 417.982 Q2155.21 420.598 2159.36 420.598 Q2161.21 420.598 2163.01 420.112 Q2164.84 419.602 2166.65 418.607 L2166.65 422.542 Q2164.86 423.376 2162.94 423.792 Q2161.04 424.209 2158.89 424.209 Q2153.04 424.209 2149.59 420.528 Q2146.14 416.848 2146.14 410.598 Q2146.14 404.255 2149.61 400.621 Q2153.11 396.987 2159.17 396.987 Q2161.14 396.987 2163.01 397.403 Q2164.89 397.797 2166.65 398.607 Z" fill="#000000" fill-rule="nonzero" fill-opacity="1" /><path clip-path="url(#clip200)" d="M2174.05 387.519 L2178.31 387.519 L2178.31 423.538 L2174.05 423.538 L2174.05 387.519 Z" fill="#000000" fill-rule="nonzero" fill-opacity="1" /><path clip-path="url(#clip200)" d="M2209.4 409.51 L2209.4 411.593 L2189.82 411.593 Q2190.1 415.991 2192.46 418.306 Q2194.84 420.598 2199.08 420.598 Q2201.53 420.598 2203.82 419.996 Q2206.14 419.394 2208.41 418.19 L2208.41 422.218 Q2206.11 423.19 2203.71 423.7 Q2201.3 424.209 2198.82 424.209 Q2192.62 424.209 2188.98 420.598 Q2185.37 416.987 2185.37 410.829 Q2185.37 404.464 2188.8 400.737 Q2192.25 396.987 2198.08 396.987 Q2203.31 396.987 2206.35 400.366 Q2209.4 403.723 2209.4 409.51 M2205.14 408.26 Q2205.1 404.765 2203.17 402.681 Q2201.28 400.598 2198.13 400.598 Q2194.56 400.598 2192.41 402.612 Q2190.28 404.626 2189.96 408.283 L2205.14 408.26 Z" fill="#000000" fill-rule="nonzero" fill-opacity="1" /><path clip-path="url(#clip200)" d="M2228.17 410.505 Q2223.01 410.505 2221.02 411.686 Q2219.03 412.866 2219.03 415.714 Q2219.03 417.982 2220.51 419.325 Q2222.02 420.644 2224.59 420.644 Q2228.13 420.644 2230.26 418.144 Q2232.41 415.621 2232.41 411.454 L2232.41 410.505 L2228.17 410.505 M2236.67 408.746 L2236.67 423.538 L2232.41 423.538 L2232.41 419.602 Q2230.95 421.963 2228.78 423.098 Q2226.6 424.209 2223.45 424.209 Q2219.47 424.209 2217.11 421.987 Q2214.77 419.741 2214.77 415.991 Q2214.77 411.616 2217.69 409.394 Q2220.63 407.172 2226.44 407.172 L2232.41 407.172 L2232.41 406.755 Q2232.41 403.815 2230.47 402.218 Q2228.54 400.598 2225.05 400.598 Q2222.83 400.598 2220.72 401.13 Q2218.61 401.663 2216.67 402.727 L2216.67 398.792 Q2219.01 397.89 2221.21 397.45 Q2223.41 396.987 2225.49 396.987 Q2231.11 396.987 2233.89 399.903 Q2236.67 402.82 2236.67 408.746 Z" fill="#000000" fill-rule="nonzero" fill-opacity="1" /><path clip-path="url(#clip200)" d="M2260.47 401.593 Q2259.75 401.177 2258.89 400.991 Q2258.06 400.783 2257.04 400.783 Q2253.43 400.783 2251.48 403.144 Q2249.56 405.482 2249.56 409.88 L2249.56 423.538 L2245.28 423.538 L2245.28 397.612 L2249.56 397.612 L2249.56 401.64 Q2250.91 399.278 2253.06 398.144 Q2255.21 396.987 2258.29 396.987 Q2258.73 396.987 2259.26 397.056 Q2259.79 397.103 2260.44 397.218 L2260.47 401.593 Z" fill="#000000" fill-rule="nonzero" fill-opacity="1" /></svg>
