<?xml version="1.0" encoding="utf-8"?>
<svg xmlns="http://www.w3.org/2000/svg" xmlns:xlink="http://www.w3.org/1999/xlink" width="600" height="400" viewBox="0 0 2400 1600">
<defs>
  <clipPath id="clip420">
    <rect x="0" y="0" width="2400" height="1600"/>
  </clipPath>
</defs>
<path clip-path="url(#clip420)" d="M0 1600 L2400 1600 L2400 0 L0 0  Z" fill="#ffffff" fill-rule="evenodd" fill-opacity="1"/>
<defs>
  <clipPath id="clip421">
    <rect x="480" y="0" width="1681" height="1600"/>
  </clipPath>
</defs>
<path clip-path="url(#clip420)" d="M276.227 1486.45 L2352.76 1486.45 L2352.76 47.2441 L276.227 47.2441  Z" fill="#ffffff" fill-rule="evenodd" fill-opacity="1"/>
<defs>
  <clipPath id="clip422">
    <rect x="276" y="47" width="2078" height="1440"/>
  </clipPath>
</defs>
<polyline clip-path="url(#clip422)" style="stroke:#000000; stroke-linecap:round; stroke-linejoin:round; stroke-width:2; stroke-opacity:0.1; fill:none" points="630.009,1486.45 630.009,47.2441 "/>
<polyline clip-path="url(#clip422)" style="stroke:#000000; stroke-linecap:round; stroke-linejoin:round; stroke-width:2; stroke-opacity:0.1; fill:none" points="1314.49,1486.45 1314.49,47.2441 "/>
<polyline clip-path="url(#clip422)" style="stroke:#000000; stroke-linecap:round; stroke-linejoin:round; stroke-width:2; stroke-opacity:0.1; fill:none" points="1998.97,1486.45 1998.97,47.2441 "/>
<polyline clip-path="url(#clip420)" style="stroke:#000000; stroke-linecap:round; stroke-linejoin:round; stroke-width:4; stroke-opacity:1; fill:none" points="276.227,1486.45 2352.76,1486.45 "/>
<polyline clip-path="url(#clip420)" style="stroke:#000000; stroke-linecap:round; stroke-linejoin:round; stroke-width:4; stroke-opacity:1; fill:none" points="630.009,1486.45 630.009,1467.55 "/>
<polyline clip-path="url(#clip420)" style="stroke:#000000; stroke-linecap:round; stroke-linejoin:round; stroke-width:4; stroke-opacity:1; fill:none" points="1314.49,1486.45 1314.49,1467.55 "/>
<polyline clip-path="url(#clip420)" style="stroke:#000000; stroke-linecap:round; stroke-linejoin:round; stroke-width:4; stroke-opacity:1; fill:none" points="1998.97,1486.45 1998.97,1467.55 "/>
<path clip-path="url(#clip420)" d="M562.162 1515.42 L562.162 1519.98 Q559.5 1518.71 557.139 1518.08 Q554.778 1517.46 552.579 1517.46 Q548.759 1517.46 546.676 1518.94 Q544.616 1520.42 544.616 1523.15 Q544.616 1525.45 545.982 1526.63 Q547.37 1527.78 551.213 1528.5 L554.037 1529.08 Q559.269 1530.07 561.745 1532.6 Q564.245 1535.1 564.245 1539.31 Q564.245 1544.33 560.866 1546.93 Q557.509 1549.52 551.005 1549.52 Q548.551 1549.52 545.773 1548.96 Q543.019 1548.41 540.056 1547.32 L540.056 1542.51 Q542.903 1544.1 545.634 1544.91 Q548.366 1545.72 551.005 1545.72 Q555.009 1545.72 557.185 1544.15 Q559.361 1542.57 559.361 1539.66 Q559.361 1537.11 557.787 1535.68 Q556.236 1534.24 552.671 1533.52 L549.824 1532.97 Q544.593 1531.93 542.255 1529.7 Q539.917 1527.48 539.917 1523.52 Q539.917 1518.94 543.134 1516.3 Q546.375 1513.66 552.046 1513.66 Q554.477 1513.66 557 1514.1 Q559.523 1514.54 562.162 1515.42 Z" fill="#000000" fill-rule="nonzero" fill-opacity="1" /><path clip-path="url(#clip420)" d="M568.875 1522.92 L573.134 1522.92 L578.458 1543.15 L583.759 1522.92 L588.782 1522.92 L594.106 1543.15 L599.407 1522.92 L603.666 1522.92 L596.884 1548.85 L591.861 1548.85 L586.282 1527.6 L580.68 1548.85 L575.657 1548.85 L568.875 1522.92 Z" fill="#000000" fill-rule="nonzero" fill-opacity="1" /><path clip-path="url(#clip420)" d="M632.301 1534.82 L632.301 1536.9 L612.717 1536.9 Q612.995 1541.3 615.356 1543.62 Q617.74 1545.91 621.977 1545.91 Q624.43 1545.91 626.722 1545.31 Q629.037 1544.7 631.305 1543.5 L631.305 1547.53 Q629.014 1548.5 626.606 1549.01 Q624.199 1549.52 621.722 1549.52 Q615.518 1549.52 611.884 1545.91 Q608.273 1542.3 608.273 1536.14 Q608.273 1529.77 611.699 1526.05 Q615.148 1522.3 620.981 1522.3 Q626.213 1522.3 629.245 1525.68 Q632.301 1529.03 632.301 1534.82 M628.041 1533.57 Q627.995 1530.07 626.074 1527.99 Q624.176 1525.91 621.027 1525.91 Q617.463 1525.91 615.31 1527.92 Q613.18 1529.94 612.856 1533.59 L628.041 1533.57 Z" fill="#000000" fill-rule="nonzero" fill-opacity="1" /><path clip-path="url(#clip420)" d="M656.351 1526.86 L656.351 1512.83 L660.611 1512.83 L660.611 1548.85 L656.351 1548.85 L656.351 1544.96 Q655.009 1547.27 652.949 1548.41 Q650.912 1549.52 648.041 1549.52 Q643.342 1549.52 640.379 1545.77 Q637.439 1542.02 637.439 1535.91 Q637.439 1529.8 640.379 1526.05 Q643.342 1522.3 648.041 1522.3 Q650.912 1522.3 652.949 1523.43 Q655.009 1524.54 656.351 1526.86 M641.838 1535.91 Q641.838 1540.61 643.759 1543.29 Q645.703 1545.95 649.083 1545.95 Q652.463 1545.95 654.407 1543.29 Q656.351 1540.61 656.351 1535.91 Q656.351 1531.21 654.407 1528.55 Q652.463 1525.86 649.083 1525.86 Q645.703 1525.86 643.759 1528.55 Q641.838 1531.21 641.838 1535.91 Z" fill="#000000" fill-rule="nonzero" fill-opacity="1" /><path clip-path="url(#clip420)" d="M691.56 1534.82 L691.56 1536.9 L671.976 1536.9 Q672.254 1541.3 674.615 1543.62 Q676.999 1545.91 681.235 1545.91 Q683.689 1545.91 685.981 1545.31 Q688.296 1544.7 690.564 1543.5 L690.564 1547.53 Q688.272 1548.5 685.865 1549.01 Q683.458 1549.52 680.981 1549.52 Q674.777 1549.52 671.143 1545.91 Q667.532 1542.3 667.532 1536.14 Q667.532 1529.77 670.958 1526.05 Q674.407 1522.3 680.24 1522.3 Q685.472 1522.3 688.504 1525.68 Q691.56 1529.03 691.56 1534.82 M687.3 1533.57 Q687.254 1530.07 685.333 1527.99 Q683.435 1525.91 680.286 1525.91 Q676.722 1525.91 674.569 1527.92 Q672.439 1529.94 672.115 1533.59 L687.3 1533.57 Z" fill="#000000" fill-rule="nonzero" fill-opacity="1" /><path clip-path="url(#clip420)" d="M720.101 1533.2 L720.101 1548.85 L715.842 1548.85 L715.842 1533.34 Q715.842 1529.66 714.407 1527.83 Q712.971 1526 710.101 1526 Q706.652 1526 704.661 1528.2 Q702.671 1530.4 702.671 1534.2 L702.671 1548.85 L698.388 1548.85 L698.388 1522.92 L702.671 1522.92 L702.671 1526.95 Q704.198 1524.61 706.259 1523.45 Q708.342 1522.3 711.05 1522.3 Q715.518 1522.3 717.809 1525.07 Q720.101 1527.83 720.101 1533.2 Z" fill="#000000" fill-rule="nonzero" fill-opacity="1" /><path clip-path="url(#clip420)" d="M1233.14 1543.92 L1233.14 1534.63 L1225.5 1534.63 L1225.5 1530.79 L1237.77 1530.79 L1237.77 1545.63 Q1235.06 1547.55 1231.8 1548.55 Q1228.53 1549.52 1224.83 1549.52 Q1216.73 1549.52 1212.14 1544.8 Q1207.58 1540.05 1207.58 1531.6 Q1207.58 1523.13 1212.14 1518.41 Q1216.73 1513.66 1224.83 1513.66 Q1228.21 1513.66 1231.24 1514.5 Q1234.3 1515.33 1236.86 1516.95 L1236.86 1521.93 Q1234.27 1519.73 1231.36 1518.62 Q1228.44 1517.51 1225.22 1517.51 Q1218.88 1517.51 1215.68 1521.05 Q1212.51 1524.59 1212.51 1531.6 Q1212.51 1538.59 1215.68 1542.13 Q1218.88 1545.68 1225.22 1545.68 Q1227.7 1545.68 1229.64 1545.26 Q1231.59 1544.82 1233.14 1543.92 Z" fill="#000000" fill-rule="nonzero" fill-opacity="1" /><path clip-path="url(#clip420)" d="M1268.3 1534.82 L1268.3 1536.9 L1248.72 1536.9 Q1248.99 1541.3 1251.36 1543.62 Q1253.74 1545.91 1257.98 1545.91 Q1260.43 1545.91 1262.72 1545.31 Q1265.04 1544.7 1267.3 1543.5 L1267.3 1547.53 Q1265.01 1548.5 1262.61 1549.01 Q1260.2 1549.52 1257.72 1549.52 Q1251.52 1549.52 1247.88 1545.91 Q1244.27 1542.3 1244.27 1536.14 Q1244.27 1529.77 1247.7 1526.05 Q1251.15 1522.3 1256.98 1522.3 Q1262.21 1522.3 1265.24 1525.68 Q1268.3 1529.03 1268.3 1534.82 M1264.04 1533.57 Q1263.99 1530.07 1262.07 1527.99 Q1260.17 1525.91 1257.03 1525.91 Q1253.46 1525.91 1251.31 1527.92 Q1249.18 1529.94 1248.86 1533.59 L1264.04 1533.57 Z" fill="#000000" fill-rule="nonzero" fill-opacity="1" /><path clip-path="url(#clip420)" d="M1290.31 1526.9 Q1289.6 1526.49 1288.74 1526.3 Q1287.91 1526.09 1286.89 1526.09 Q1283.28 1526.09 1281.33 1528.45 Q1279.41 1530.79 1279.41 1535.19 L1279.41 1548.85 L1275.13 1548.85 L1275.13 1522.92 L1279.41 1522.92 L1279.41 1526.95 Q1280.75 1524.59 1282.91 1523.45 Q1285.06 1522.3 1288.14 1522.3 Q1288.58 1522.3 1289.11 1522.37 Q1289.64 1522.41 1290.29 1522.53 L1290.31 1526.9 Z" fill="#000000" fill-rule="nonzero" fill-opacity="1" /><path clip-path="url(#clip420)" d="M1314.13 1527.9 Q1315.73 1525.03 1317.95 1523.66 Q1320.17 1522.3 1323.18 1522.3 Q1327.23 1522.3 1329.43 1525.14 Q1331.63 1527.97 1331.63 1533.2 L1331.63 1548.85 L1327.35 1548.85 L1327.35 1533.34 Q1327.35 1529.61 1326.03 1527.81 Q1324.71 1526 1322 1526 Q1318.69 1526 1316.77 1528.2 Q1314.85 1530.4 1314.85 1534.2 L1314.85 1548.85 L1310.57 1548.85 L1310.57 1533.34 Q1310.57 1529.59 1309.25 1527.81 Q1307.93 1526 1305.17 1526 Q1301.91 1526 1299.99 1528.22 Q1298.07 1530.42 1298.07 1534.2 L1298.07 1548.85 L1293.79 1548.85 L1293.79 1522.92 L1298.07 1522.92 L1298.07 1526.95 Q1299.53 1524.57 1301.56 1523.43 Q1303.6 1522.3 1306.4 1522.3 Q1309.23 1522.3 1311.19 1523.73 Q1313.18 1525.17 1314.13 1527.9 Z" fill="#000000" fill-rule="nonzero" fill-opacity="1" /><path clip-path="url(#clip420)" d="M1351.91 1535.82 Q1346.75 1535.82 1344.76 1537 Q1342.77 1538.18 1342.77 1541.02 Q1342.77 1543.29 1344.25 1544.63 Q1345.75 1545.95 1348.32 1545.95 Q1351.86 1545.95 1353.99 1543.45 Q1356.15 1540.93 1356.15 1536.76 L1356.15 1535.82 L1351.91 1535.82 M1360.41 1534.06 L1360.41 1548.85 L1356.15 1548.85 L1356.15 1544.91 Q1354.69 1547.27 1352.51 1548.41 Q1350.34 1549.52 1347.19 1549.52 Q1343.21 1549.52 1340.85 1547.3 Q1338.51 1545.05 1338.51 1541.3 Q1338.51 1536.93 1341.42 1534.7 Q1344.36 1532.48 1350.17 1532.48 L1356.15 1532.48 L1356.15 1532.07 Q1356.15 1529.13 1354.2 1527.53 Q1352.28 1525.91 1348.79 1525.91 Q1346.56 1525.91 1344.46 1526.44 Q1342.35 1526.97 1340.41 1528.04 L1340.41 1524.1 Q1342.74 1523.2 1344.94 1522.76 Q1347.14 1522.3 1349.23 1522.3 Q1354.85 1522.3 1357.63 1525.21 Q1360.41 1528.13 1360.41 1534.06 Z" fill="#000000" fill-rule="nonzero" fill-opacity="1" /><path clip-path="url(#clip420)" d="M1390.73 1533.2 L1390.73 1548.85 L1386.47 1548.85 L1386.47 1533.34 Q1386.47 1529.66 1385.04 1527.83 Q1383.6 1526 1380.73 1526 Q1377.28 1526 1375.29 1528.2 Q1373.3 1530.4 1373.3 1534.2 L1373.3 1548.85 L1369.02 1548.85 L1369.02 1522.92 L1373.3 1522.92 L1373.3 1526.95 Q1374.83 1524.61 1376.89 1523.45 Q1378.97 1522.3 1381.68 1522.3 Q1386.15 1522.3 1388.44 1525.07 Q1390.73 1527.83 1390.73 1533.2 Z" fill="#000000" fill-rule="nonzero" fill-opacity="1" /><path clip-path="url(#clip420)" d="M1410.01 1551.26 Q1408.21 1555.88 1406.49 1557.3 Q1404.78 1558.71 1401.91 1558.71 L1398.51 1558.71 L1398.51 1555.14 L1401.01 1555.14 Q1402.77 1555.14 1403.74 1554.31 Q1404.71 1553.48 1405.89 1550.38 L1406.66 1548.43 L1396.17 1522.92 L1400.68 1522.92 L1408.79 1543.2 L1416.89 1522.92 L1421.4 1522.92 L1410.01 1551.26 Z" fill="#000000" fill-rule="nonzero" fill-opacity="1" /><path clip-path="url(#clip420)" d="M1897.1 1518.13 L1897.1 1545.01 L1902.75 1545.01 Q1909.9 1545.01 1913.21 1541.76 Q1916.54 1538.52 1916.54 1531.53 Q1916.54 1524.59 1913.21 1521.37 Q1909.9 1518.13 1902.75 1518.13 L1897.1 1518.13 M1892.42 1514.29 L1902.03 1514.29 Q1912.08 1514.29 1916.78 1518.48 Q1921.47 1522.64 1921.47 1531.53 Q1921.47 1540.47 1916.75 1544.66 Q1912.03 1548.85 1902.03 1548.85 L1892.42 1548.85 L1892.42 1514.29 Z" fill="#000000" fill-rule="nonzero" fill-opacity="1" /><path clip-path="url(#clip420)" d="M1950.92 1534.82 L1950.92 1536.9 L1931.34 1536.9 Q1931.61 1541.3 1933.97 1543.62 Q1936.36 1545.91 1940.59 1545.91 Q1943.05 1545.91 1945.34 1545.31 Q1947.66 1544.7 1949.92 1543.5 L1949.92 1547.53 Q1947.63 1548.5 1945.22 1549.01 Q1942.82 1549.52 1940.34 1549.52 Q1934.14 1549.52 1930.5 1545.91 Q1926.89 1542.3 1926.89 1536.14 Q1926.89 1529.77 1930.32 1526.05 Q1933.77 1522.3 1939.6 1522.3 Q1944.83 1522.3 1947.86 1525.68 Q1950.92 1529.03 1950.92 1534.82 M1946.66 1533.57 Q1946.61 1530.07 1944.69 1527.99 Q1942.79 1525.91 1939.65 1525.91 Q1936.08 1525.91 1933.93 1527.92 Q1931.8 1529.94 1931.47 1533.59 L1946.66 1533.57 Z" fill="#000000" fill-rule="nonzero" fill-opacity="1" /><path clip-path="url(#clip420)" d="M1979.46 1533.2 L1979.46 1548.85 L1975.2 1548.85 L1975.2 1533.34 Q1975.2 1529.66 1973.77 1527.83 Q1972.33 1526 1969.46 1526 Q1966.01 1526 1964.02 1528.2 Q1962.03 1530.4 1962.03 1534.2 L1962.03 1548.85 L1957.75 1548.85 L1957.75 1522.92 L1962.03 1522.92 L1962.03 1526.95 Q1963.56 1524.61 1965.62 1523.45 Q1967.7 1522.3 1970.41 1522.3 Q1974.88 1522.3 1977.17 1525.07 Q1979.46 1527.83 1979.46 1533.2 Z" fill="#000000" fill-rule="nonzero" fill-opacity="1" /><path clip-path="url(#clip420)" d="M2008.14 1527.9 Q2009.74 1525.03 2011.96 1523.66 Q2014.18 1522.3 2017.19 1522.3 Q2021.24 1522.3 2023.44 1525.14 Q2025.64 1527.97 2025.64 1533.2 L2025.64 1548.85 L2021.36 1548.85 L2021.36 1533.34 Q2021.36 1529.61 2020.04 1527.81 Q2018.72 1526 2016.01 1526 Q2012.7 1526 2010.78 1528.2 Q2008.86 1530.4 2008.86 1534.2 L2008.86 1548.85 L2004.58 1548.85 L2004.58 1533.34 Q2004.58 1529.59 2003.26 1527.81 Q2001.94 1526 1999.18 1526 Q1995.92 1526 1994 1528.22 Q1992.08 1530.42 1992.08 1534.2 L1992.08 1548.85 L1987.79 1548.85 L1987.79 1522.92 L1992.08 1522.92 L1992.08 1526.95 Q1993.53 1524.57 1995.57 1523.43 Q1997.61 1522.3 2000.41 1522.3 Q2003.23 1522.3 2005.2 1523.73 Q2007.19 1525.17 2008.14 1527.9 Z" fill="#000000" fill-rule="nonzero" fill-opacity="1" /><path clip-path="url(#clip420)" d="M2045.92 1535.82 Q2040.76 1535.82 2038.77 1537 Q2036.77 1538.18 2036.77 1541.02 Q2036.77 1543.29 2038.26 1544.63 Q2039.76 1545.95 2042.33 1545.95 Q2045.87 1545.95 2048 1543.45 Q2050.15 1540.93 2050.15 1536.76 L2050.15 1535.82 L2045.92 1535.82 M2054.41 1534.06 L2054.41 1548.85 L2050.15 1548.85 L2050.15 1544.91 Q2048.7 1547.27 2046.52 1548.41 Q2044.34 1549.52 2041.2 1549.52 Q2037.21 1549.52 2034.85 1547.3 Q2032.52 1545.05 2032.52 1541.3 Q2032.52 1536.93 2035.43 1534.7 Q2038.37 1532.48 2044.18 1532.48 L2050.15 1532.48 L2050.15 1532.07 Q2050.15 1529.13 2048.21 1527.53 Q2046.29 1525.91 2042.79 1525.91 Q2040.57 1525.91 2038.46 1526.44 Q2036.36 1526.97 2034.41 1528.04 L2034.41 1524.1 Q2036.75 1523.2 2038.95 1522.76 Q2041.15 1522.3 2043.23 1522.3 Q2048.86 1522.3 2051.64 1525.21 Q2054.41 1528.13 2054.41 1534.06 Z" fill="#000000" fill-rule="nonzero" fill-opacity="1" /><path clip-path="url(#clip420)" d="M2078.21 1526.9 Q2077.49 1526.49 2076.64 1526.3 Q2075.8 1526.09 2074.78 1526.09 Q2071.17 1526.09 2069.23 1528.45 Q2067.31 1530.79 2067.31 1535.19 L2067.31 1548.85 L2063.02 1548.85 L2063.02 1522.92 L2067.31 1522.92 L2067.31 1526.95 Q2068.65 1524.59 2070.8 1523.45 Q2072.96 1522.3 2076.03 1522.3 Q2076.47 1522.3 2077.01 1522.37 Q2077.54 1522.41 2078.19 1522.53 L2078.21 1526.9 Z" fill="#000000" fill-rule="nonzero" fill-opacity="1" /><path clip-path="url(#clip420)" d="M2082.52 1512.83 L2086.8 1512.83 L2086.8 1534.1 L2099.51 1522.92 L2104.95 1522.92 L2091.2 1535.05 L2105.52 1548.85 L2099.97 1548.85 L2086.8 1536.19 L2086.8 1548.85 L2082.52 1548.85 L2082.52 1512.83 Z" fill="#000000" fill-rule="nonzero" fill-opacity="1" /><polyline clip-path="url(#clip422)" style="stroke:#000000; stroke-linecap:round; stroke-linejoin:round; stroke-width:2; stroke-opacity:0.1; fill:none" points="276.227,1445.72 2352.76,1445.72 "/>
<polyline clip-path="url(#clip422)" style="stroke:#000000; stroke-linecap:round; stroke-linejoin:round; stroke-width:2; stroke-opacity:0.1; fill:none" points="276.227,1236.81 2352.76,1236.81 "/>
<polyline clip-path="url(#clip422)" style="stroke:#000000; stroke-linecap:round; stroke-linejoin:round; stroke-width:2; stroke-opacity:0.1; fill:none" points="276.227,1027.9 2352.76,1027.9 "/>
<polyline clip-path="url(#clip422)" style="stroke:#000000; stroke-linecap:round; stroke-linejoin:round; stroke-width:2; stroke-opacity:0.1; fill:none" points="276.227,818.999 2352.76,818.999 "/>
<polyline clip-path="url(#clip422)" style="stroke:#000000; stroke-linecap:round; stroke-linejoin:round; stroke-width:2; stroke-opacity:0.1; fill:none" points="276.227,610.094 2352.76,610.094 "/>
<polyline clip-path="url(#clip422)" style="stroke:#000000; stroke-linecap:round; stroke-linejoin:round; stroke-width:2; stroke-opacity:0.1; fill:none" points="276.227,401.188 2352.76,401.188 "/>
<polyline clip-path="url(#clip422)" style="stroke:#000000; stroke-linecap:round; stroke-linejoin:round; stroke-width:2; stroke-opacity:0.1; fill:none" points="276.227,192.283 2352.76,192.283 "/>
<polyline clip-path="url(#clip420)" style="stroke:#000000; stroke-linecap:round; stroke-linejoin:round; stroke-width:4; stroke-opacity:1; fill:none" points="276.227,1486.45 276.227,47.2441 "/>
<polyline clip-path="url(#clip420)" style="stroke:#000000; stroke-linecap:round; stroke-linejoin:round; stroke-width:4; stroke-opacity:1; fill:none" points="276.227,1445.72 295.125,1445.72 "/>
<polyline clip-path="url(#clip420)" style="stroke:#000000; stroke-linecap:round; stroke-linejoin:round; stroke-width:4; stroke-opacity:1; fill:none" points="276.227,1236.81 295.125,1236.81 "/>
<polyline clip-path="url(#clip420)" style="stroke:#000000; stroke-linecap:round; stroke-linejoin:round; stroke-width:4; stroke-opacity:1; fill:none" points="276.227,1027.9 295.125,1027.9 "/>
<polyline clip-path="url(#clip420)" style="stroke:#000000; stroke-linecap:round; stroke-linejoin:round; stroke-width:4; stroke-opacity:1; fill:none" points="276.227,818.999 295.125,818.999 "/>
<polyline clip-path="url(#clip420)" style="stroke:#000000; stroke-linecap:round; stroke-linejoin:round; stroke-width:4; stroke-opacity:1; fill:none" points="276.227,610.094 295.125,610.094 "/>
<polyline clip-path="url(#clip420)" style="stroke:#000000; stroke-linecap:round; stroke-linejoin:round; stroke-width:4; stroke-opacity:1; fill:none" points="276.227,401.188 295.125,401.188 "/>
<polyline clip-path="url(#clip420)" style="stroke:#000000; stroke-linecap:round; stroke-linejoin:round; stroke-width:4; stroke-opacity:1; fill:none" points="276.227,192.283 295.125,192.283 "/>
<path clip-path="url(#clip420)" d="M228.283 1431.51 Q224.672 1431.51 222.843 1435.08 Q221.038 1438.62 221.038 1445.75 Q221.038 1452.86 222.843 1456.42 Q224.672 1459.96 228.283 1459.96 Q231.917 1459.96 233.723 1456.42 Q235.551 1452.86 235.551 1445.75 Q235.551 1438.62 233.723 1435.08 Q231.917 1431.51 228.283 1431.51 M228.283 1427.81 Q234.093 1427.81 237.149 1432.42 Q240.227 1437 240.227 1445.75 Q240.227 1454.48 237.149 1459.08 Q234.093 1463.67 228.283 1463.67 Q222.473 1463.67 219.394 1459.08 Q216.338 1454.48 216.338 1445.75 Q216.338 1437 219.394 1432.42 Q222.473 1427.81 228.283 1427.81 Z" fill="#000000" fill-rule="nonzero" fill-opacity="1" /><path clip-path="url(#clip420)" d="M54.5569 1256.6 L62.1958 1256.6 L62.1958 1230.24 L53.8856 1231.9 L53.8856 1227.64 L62.1495 1225.98 L66.8254 1225.98 L66.8254 1256.6 L74.4642 1256.6 L74.4642 1260.54 L54.5569 1260.54 L54.5569 1256.6 Z" fill="#000000" fill-rule="nonzero" fill-opacity="1" /><path clip-path="url(#clip420)" d="M83.9086 1254.66 L88.7928 1254.66 L88.7928 1260.54 L83.9086 1260.54 L83.9086 1254.66 Z" fill="#000000" fill-rule="nonzero" fill-opacity="1" /><path clip-path="url(#clip420)" d="M108.978 1229.06 Q105.367 1229.06 103.538 1232.62 Q101.733 1236.16 101.733 1243.29 Q101.733 1250.4 103.538 1253.96 Q105.367 1257.51 108.978 1257.51 Q112.612 1257.51 114.418 1253.96 Q116.246 1250.4 116.246 1243.29 Q116.246 1236.16 114.418 1232.62 Q112.612 1229.06 108.978 1229.06 M108.978 1225.35 Q114.788 1225.35 117.844 1229.96 Q120.922 1234.54 120.922 1243.29 Q120.922 1252.02 117.844 1256.63 Q114.788 1261.21 108.978 1261.21 Q103.168 1261.21 100.089 1256.63 Q97.0335 1252.02 97.0335 1243.29 Q97.0335 1234.54 100.089 1229.96 Q103.168 1225.35 108.978 1225.35 Z" fill="#000000" fill-rule="nonzero" fill-opacity="1" /><path clip-path="url(#clip420)" d="M157.311 1235.07 L146.732 1245.7 L157.311 1256.28 L154.556 1259.08 L143.931 1248.45 L133.306 1259.08 L130.575 1256.28 L141.131 1245.7 L130.575 1235.07 L133.306 1232.27 L143.931 1242.9 L154.556 1232.27 L157.311 1235.07 Z" fill="#000000" fill-rule="nonzero" fill-opacity="1" /><path clip-path="url(#clip420)" d="M169.672 1256.6 L177.311 1256.6 L177.311 1230.24 L169.001 1231.9 L169.001 1227.64 L177.265 1225.98 L181.94 1225.98 L181.94 1256.6 L189.579 1256.6 L189.579 1260.54 L169.672 1260.54 L169.672 1256.6 Z" fill="#000000" fill-rule="nonzero" fill-opacity="1" /><path clip-path="url(#clip420)" d="M209.024 1229.06 Q205.413 1229.06 203.584 1232.62 Q201.778 1236.16 201.778 1243.29 Q201.778 1250.4 203.584 1253.96 Q205.413 1257.51 209.024 1257.51 Q212.658 1257.51 214.463 1253.96 Q216.292 1250.4 216.292 1243.29 Q216.292 1236.16 214.463 1232.62 Q212.658 1229.06 209.024 1229.06 M209.024 1225.35 Q214.834 1225.35 217.889 1229.96 Q220.968 1234.54 220.968 1243.29 Q220.968 1252.02 217.889 1256.63 Q214.834 1261.21 209.024 1261.21 Q203.214 1261.21 200.135 1256.63 Q197.079 1252.02 197.079 1243.29 Q197.079 1234.54 200.135 1229.96 Q203.214 1225.35 209.024 1225.35 Z" fill="#000000" fill-rule="nonzero" fill-opacity="1" /><path clip-path="url(#clip420)" d="M230.598 1219.79 Q227.889 1219.79 226.328 1221.24 Q224.786 1222.69 224.786 1225.23 Q224.786 1227.77 226.328 1229.22 Q227.889 1230.66 230.598 1230.66 Q233.306 1230.66 234.867 1229.22 Q236.428 1227.75 236.428 1225.23 Q236.428 1222.69 234.867 1221.24 Q233.325 1219.79 230.598 1219.79 M226.798 1218.18 Q224.353 1217.57 222.98 1215.9 Q221.626 1214.23 221.626 1211.82 Q221.626 1208.45 224.015 1206.5 Q226.422 1204.54 230.598 1204.54 Q234.792 1204.54 237.18 1206.5 Q239.569 1208.45 239.569 1211.82 Q239.569 1214.23 238.196 1215.9 Q236.842 1217.57 234.416 1218.18 Q237.162 1218.81 238.685 1220.68 Q240.227 1222.54 240.227 1225.23 Q240.227 1229.31 237.726 1231.49 Q235.243 1233.67 230.598 1233.67 Q225.952 1233.67 223.451 1231.49 Q220.968 1229.31 220.968 1225.23 Q220.968 1222.54 222.51 1220.68 Q224.053 1218.81 226.798 1218.18 M225.407 1212.18 Q225.407 1214.36 226.761 1215.58 Q228.134 1216.8 230.598 1216.8 Q233.043 1216.8 234.416 1215.58 Q235.807 1214.36 235.807 1212.18 Q235.807 1209.99 234.416 1208.77 Q233.043 1207.55 230.598 1207.55 Q228.134 1207.55 226.761 1208.77 Q225.407 1209.99 225.407 1212.18 Z" fill="#000000" fill-rule="nonzero" fill-opacity="1" /><path clip-path="url(#clip420)" d="M57.7745 1047.7 L74.0939 1047.7 L74.0939 1051.63 L52.1495 1051.63 L52.1495 1047.7 Q54.8115 1044.94 59.3949 1040.31 Q64.0013 1035.66 65.1819 1034.32 Q67.4272 1031.79 68.3068 1030.06 Q69.2096 1028.3 69.2096 1026.61 Q69.2096 1023.85 67.2652 1022.12 Q65.3439 1020.38 62.2421 1020.38 Q60.043 1020.38 57.5893 1021.15 Q55.1588 1021.91 52.381 1023.46 L52.381 1018.74 Q55.2051 1017.6 57.6588 1017.03 Q60.1124 1016.45 62.1495 1016.45 Q67.5198 1016.45 70.7142 1019.13 Q73.9087 1021.82 73.9087 1026.31 Q73.9087 1028.44 73.0985 1030.36 Q72.3115 1032.26 70.205 1034.85 Q69.6263 1035.52 66.5245 1038.74 Q63.4226 1041.93 57.7745 1047.7 Z" fill="#000000" fill-rule="nonzero" fill-opacity="1" /><path clip-path="url(#clip420)" d="M83.9086 1045.75 L88.7928 1045.75 L88.7928 1051.63 L83.9086 1051.63 L83.9086 1045.75 Z" fill="#000000" fill-rule="nonzero" fill-opacity="1" /><path clip-path="url(#clip420)" d="M108.978 1020.15 Q105.367 1020.15 103.538 1023.72 Q101.733 1027.26 101.733 1034.39 Q101.733 1041.49 103.538 1045.06 Q105.367 1048.6 108.978 1048.6 Q112.612 1048.6 114.418 1045.06 Q116.246 1041.49 116.246 1034.39 Q116.246 1027.26 114.418 1023.72 Q112.612 1020.15 108.978 1020.15 M108.978 1016.45 Q114.788 1016.45 117.844 1021.05 Q120.922 1025.64 120.922 1034.39 Q120.922 1043.11 117.844 1047.72 Q114.788 1052.3 108.978 1052.3 Q103.168 1052.3 100.089 1047.72 Q97.0335 1043.11 97.0335 1034.39 Q97.0335 1025.64 100.089 1021.05 Q103.168 1016.45 108.978 1016.45 Z" fill="#000000" fill-rule="nonzero" fill-opacity="1" /><path clip-path="url(#clip420)" d="M157.311 1026.17 L146.732 1036.79 L157.311 1047.37 L154.556 1050.17 L143.931 1039.55 L133.306 1050.17 L130.575 1047.37 L141.131 1036.79 L130.575 1026.17 L133.306 1023.37 L143.931 1033.99 L154.556 1023.37 L157.311 1026.17 Z" fill="#000000" fill-rule="nonzero" fill-opacity="1" /><path clip-path="url(#clip420)" d="M169.672 1047.7 L177.311 1047.7 L177.311 1021.33 L169.001 1023 L169.001 1018.74 L177.265 1017.07 L181.94 1017.07 L181.94 1047.7 L189.579 1047.7 L189.579 1051.63 L169.672 1051.63 L169.672 1047.7 Z" fill="#000000" fill-rule="nonzero" fill-opacity="1" /><path clip-path="url(#clip420)" d="M209.024 1020.15 Q205.413 1020.15 203.584 1023.72 Q201.778 1027.26 201.778 1034.39 Q201.778 1041.49 203.584 1045.06 Q205.413 1048.6 209.024 1048.6 Q212.658 1048.6 214.463 1045.06 Q216.292 1041.49 216.292 1034.39 Q216.292 1027.26 214.463 1023.72 Q212.658 1020.15 209.024 1020.15 M209.024 1016.45 Q214.834 1016.45 217.889 1021.05 Q220.968 1025.64 220.968 1034.39 Q220.968 1043.11 217.889 1047.72 Q214.834 1052.3 209.024 1052.3 Q203.214 1052.3 200.135 1047.72 Q197.079 1043.11 197.079 1034.39 Q197.079 1025.64 200.135 1021.05 Q203.214 1016.45 209.024 1016.45 Z" fill="#000000" fill-rule="nonzero" fill-opacity="1" /><path clip-path="url(#clip420)" d="M230.598 1010.89 Q227.889 1010.89 226.328 1012.34 Q224.786 1013.78 224.786 1016.32 Q224.786 1018.86 226.328 1020.31 Q227.889 1021.76 230.598 1021.76 Q233.306 1021.76 234.867 1020.31 Q236.428 1018.84 236.428 1016.32 Q236.428 1013.78 234.867 1012.34 Q233.325 1010.89 230.598 1010.89 M226.798 1009.27 Q224.353 1008.67 222.98 1006.99 Q221.626 1005.32 221.626 1002.91 Q221.626 999.546 224.015 997.59 Q226.422 995.634 230.598 995.634 Q234.792 995.634 237.18 997.59 Q239.569 999.546 239.569 1002.91 Q239.569 1005.32 238.196 1006.99 Q236.842 1008.67 234.416 1009.27 Q237.162 1009.91 238.685 1011.77 Q240.227 1013.63 240.227 1016.32 Q240.227 1020.4 237.726 1022.59 Q235.243 1024.77 230.598 1024.77 Q225.952 1024.77 223.451 1022.59 Q220.968 1020.4 220.968 1016.32 Q220.968 1013.63 222.51 1011.77 Q224.053 1009.91 226.798 1009.27 M225.407 1003.27 Q225.407 1005.45 226.761 1006.67 Q228.134 1007.9 230.598 1007.9 Q233.043 1007.9 234.416 1006.67 Q235.807 1005.45 235.807 1003.27 Q235.807 1001.09 234.416 999.866 Q233.043 998.643 230.598 998.643 Q228.134 998.643 226.761 999.866 Q225.407 1001.09 225.407 1003.27 Z" fill="#000000" fill-rule="nonzero" fill-opacity="1" /><path clip-path="url(#clip420)" d="M67.9133 824.093 Q71.2698 824.81 73.1448 827.079 Q75.0429 829.347 75.0429 832.681 Q75.0429 837.796 71.5244 840.597 Q68.0059 843.398 61.5245 843.398 Q59.3486 843.398 57.0338 842.958 Q54.7421 842.542 52.2884 841.685 L52.2884 837.171 Q54.2328 838.305 56.5477 838.884 Q58.8625 839.463 61.3856 839.463 Q65.7837 839.463 68.0754 837.727 Q70.3902 835.991 70.3902 832.681 Q70.3902 829.625 68.2374 827.912 Q66.1078 826.176 62.2884 826.176 L58.2606 826.176 L58.2606 822.333 L62.4735 822.333 Q65.9226 822.333 67.7513 820.968 Q69.58 819.579 69.58 816.986 Q69.58 814.324 67.6819 812.912 Q65.8069 811.477 62.2884 811.477 Q60.3671 811.477 58.168 811.894 Q55.969 812.31 53.3301 813.19 L53.3301 809.023 Q55.9921 808.282 58.3069 807.912 Q60.6449 807.542 62.705 807.542 Q68.0291 807.542 71.1309 809.972 Q74.2327 812.38 74.2327 816.5 Q74.2327 819.37 72.5892 821.361 Q70.9457 823.329 67.9133 824.093 Z" fill="#000000" fill-rule="nonzero" fill-opacity="1" /><path clip-path="url(#clip420)" d="M83.9086 836.847 L88.7928 836.847 L88.7928 842.727 L83.9086 842.727 L83.9086 836.847 Z" fill="#000000" fill-rule="nonzero" fill-opacity="1" /><path clip-path="url(#clip420)" d="M108.978 811.245 Q105.367 811.245 103.538 814.81 Q101.733 818.352 101.733 825.481 Q101.733 832.588 103.538 836.153 Q105.367 839.694 108.978 839.694 Q112.612 839.694 114.418 836.153 Q116.246 832.588 116.246 825.481 Q116.246 818.352 114.418 814.81 Q112.612 811.245 108.978 811.245 M108.978 807.542 Q114.788 807.542 117.844 812.148 Q120.922 816.732 120.922 825.481 Q120.922 834.208 117.844 838.815 Q114.788 843.398 108.978 843.398 Q103.168 843.398 100.089 838.815 Q97.0335 834.208 97.0335 825.481 Q97.0335 816.732 100.089 812.148 Q103.168 807.542 108.978 807.542 Z" fill="#000000" fill-rule="nonzero" fill-opacity="1" /><path clip-path="url(#clip420)" d="M157.311 817.264 L146.732 827.889 L157.311 838.468 L154.556 841.268 L143.931 830.643 L133.306 841.268 L130.575 838.468 L141.131 827.889 L130.575 817.264 L133.306 814.463 L143.931 825.088 L154.556 814.463 L157.311 817.264 Z" fill="#000000" fill-rule="nonzero" fill-opacity="1" /><path clip-path="url(#clip420)" d="M169.672 838.792 L177.311 838.792 L177.311 812.426 L169.001 814.093 L169.001 809.833 L177.265 808.167 L181.94 808.167 L181.94 838.792 L189.579 838.792 L189.579 842.727 L169.672 842.727 L169.672 838.792 Z" fill="#000000" fill-rule="nonzero" fill-opacity="1" /><path clip-path="url(#clip420)" d="M209.024 811.245 Q205.413 811.245 203.584 814.81 Q201.778 818.352 201.778 825.481 Q201.778 832.588 203.584 836.153 Q205.413 839.694 209.024 839.694 Q212.658 839.694 214.463 836.153 Q216.292 832.588 216.292 825.481 Q216.292 818.352 214.463 814.81 Q212.658 811.245 209.024 811.245 M209.024 807.542 Q214.834 807.542 217.889 812.148 Q220.968 816.732 220.968 825.481 Q220.968 834.208 217.889 838.815 Q214.834 843.398 209.024 843.398 Q203.214 843.398 200.135 838.815 Q197.079 834.208 197.079 825.481 Q197.079 816.732 200.135 812.148 Q203.214 807.542 209.024 807.542 Z" fill="#000000" fill-rule="nonzero" fill-opacity="1" /><path clip-path="url(#clip420)" d="M230.598 801.982 Q227.889 801.982 226.328 803.43 Q224.786 804.878 224.786 807.417 Q224.786 809.956 226.328 811.404 Q227.889 812.853 230.598 812.853 Q233.306 812.853 234.867 811.404 Q236.428 809.937 236.428 807.417 Q236.428 804.878 234.867 803.43 Q233.325 801.982 230.598 801.982 M226.798 800.364 Q224.353 799.762 222.98 798.088 Q221.626 796.415 221.626 794.007 Q221.626 790.641 224.015 788.685 Q226.422 786.729 230.598 786.729 Q234.792 786.729 237.18 788.685 Q239.569 790.641 239.569 794.007 Q239.569 796.415 238.196 798.088 Q236.842 799.762 234.416 800.364 Q237.162 801.004 238.685 802.866 Q240.227 804.728 240.227 807.417 Q240.227 811.498 237.726 813.68 Q235.243 815.862 230.598 815.862 Q225.952 815.862 223.451 813.68 Q220.968 811.498 220.968 807.417 Q220.968 804.728 222.51 802.866 Q224.053 801.004 226.798 800.364 M225.407 794.364 Q225.407 796.546 226.761 797.769 Q228.134 798.991 230.598 798.991 Q233.043 798.991 234.416 797.769 Q235.807 796.546 235.807 794.364 Q235.807 792.183 234.416 790.96 Q233.043 789.738 230.598 789.738 Q228.134 789.738 226.761 790.96 Q225.407 792.183 225.407 794.364 Z" fill="#000000" fill-rule="nonzero" fill-opacity="1" /><path clip-path="url(#clip420)" d="M66.5939 603.335 L54.7884 621.784 L66.5939 621.784 L66.5939 603.335 M65.367 599.261 L71.2466 599.261 L71.2466 621.784 L76.1772 621.784 L76.1772 625.673 L71.2466 625.673 L71.2466 633.821 L66.5939 633.821 L66.5939 625.673 L50.9921 625.673 L50.9921 621.159 L65.367 599.261 Z" fill="#000000" fill-rule="nonzero" fill-opacity="1" /><path clip-path="url(#clip420)" d="M83.9086 627.942 L88.7928 627.942 L88.7928 633.821 L83.9086 633.821 L83.9086 627.942 Z" fill="#000000" fill-rule="nonzero" fill-opacity="1" /><path clip-path="url(#clip420)" d="M108.978 602.34 Q105.367 602.34 103.538 605.905 Q101.733 609.446 101.733 616.576 Q101.733 623.682 103.538 627.247 Q105.367 630.789 108.978 630.789 Q112.612 630.789 114.418 627.247 Q116.246 623.682 116.246 616.576 Q116.246 609.446 114.418 605.905 Q112.612 602.34 108.978 602.34 M108.978 598.636 Q114.788 598.636 117.844 603.243 Q120.922 607.826 120.922 616.576 Q120.922 625.303 117.844 629.909 Q114.788 634.493 108.978 634.493 Q103.168 634.493 100.089 629.909 Q97.0335 625.303 97.0335 616.576 Q97.0335 607.826 100.089 603.243 Q103.168 598.636 108.978 598.636 Z" fill="#000000" fill-rule="nonzero" fill-opacity="1" /><path clip-path="url(#clip420)" d="M157.311 608.358 L146.732 618.983 L157.311 629.562 L154.556 632.363 L143.931 621.738 L133.306 632.363 L130.575 629.562 L141.131 618.983 L130.575 608.358 L133.306 605.558 L143.931 616.182 L154.556 605.558 L157.311 608.358 Z" fill="#000000" fill-rule="nonzero" fill-opacity="1" /><path clip-path="url(#clip420)" d="M169.672 629.886 L177.311 629.886 L177.311 603.52 L169.001 605.187 L169.001 600.928 L177.265 599.261 L181.94 599.261 L181.94 629.886 L189.579 629.886 L189.579 633.821 L169.672 633.821 L169.672 629.886 Z" fill="#000000" fill-rule="nonzero" fill-opacity="1" /><path clip-path="url(#clip420)" d="M209.024 602.34 Q205.413 602.34 203.584 605.905 Q201.778 609.446 201.778 616.576 Q201.778 623.682 203.584 627.247 Q205.413 630.789 209.024 630.789 Q212.658 630.789 214.463 627.247 Q216.292 623.682 216.292 616.576 Q216.292 609.446 214.463 605.905 Q212.658 602.34 209.024 602.34 M209.024 598.636 Q214.834 598.636 217.889 603.243 Q220.968 607.826 220.968 616.576 Q220.968 625.303 217.889 629.909 Q214.834 634.493 209.024 634.493 Q203.214 634.493 200.135 629.909 Q197.079 625.303 197.079 616.576 Q197.079 607.826 200.135 603.243 Q203.214 598.636 209.024 598.636 Z" fill="#000000" fill-rule="nonzero" fill-opacity="1" /><path clip-path="url(#clip420)" d="M230.598 593.076 Q227.889 593.076 226.328 594.524 Q224.786 595.973 224.786 598.512 Q224.786 601.051 226.328 602.499 Q227.889 603.947 230.598 603.947 Q233.306 603.947 234.867 602.499 Q236.428 601.032 236.428 598.512 Q236.428 595.973 234.867 594.524 Q233.325 593.076 230.598 593.076 M226.798 591.459 Q224.353 590.857 222.98 589.183 Q221.626 587.509 221.626 585.102 Q221.626 581.735 224.015 579.779 Q226.422 577.823 230.598 577.823 Q234.792 577.823 237.18 579.779 Q239.569 581.735 239.569 585.102 Q239.569 587.509 238.196 589.183 Q236.842 590.857 234.416 591.459 Q237.162 592.098 238.685 593.96 Q240.227 595.822 240.227 598.512 Q240.227 602.593 237.726 604.775 Q235.243 606.956 230.598 606.956 Q225.952 606.956 223.451 604.775 Q220.968 602.593 220.968 598.512 Q220.968 595.822 222.51 593.96 Q224.053 592.098 226.798 591.459 M225.407 585.459 Q225.407 587.641 226.761 588.863 Q228.134 590.086 230.598 590.086 Q233.043 590.086 234.416 588.863 Q235.807 587.641 235.807 585.459 Q235.807 583.277 234.416 582.055 Q233.043 580.832 230.598 580.832 Q228.134 580.832 226.761 582.055 Q225.407 583.277 225.407 585.459 Z" fill="#000000" fill-rule="nonzero" fill-opacity="1" /><path clip-path="url(#clip420)" d="M53.793 390.356 L72.1494 390.356 L72.1494 394.291 L58.0754 394.291 L58.0754 402.763 Q59.0939 402.416 60.1124 402.254 Q61.131 402.069 62.1495 402.069 Q67.9365 402.069 71.3161 405.24 Q74.6957 408.411 74.6957 413.828 Q74.6957 419.406 71.2235 422.508 Q67.7513 425.587 61.4319 425.587 Q59.256 425.587 56.9875 425.217 Q54.7421 424.846 52.3347 424.106 L52.3347 419.406 Q54.418 420.541 56.6402 421.096 Q58.8625 421.652 61.3393 421.652 Q65.3439 421.652 67.6819 419.545 Q70.0198 417.439 70.0198 413.828 Q70.0198 410.217 67.6819 408.11 Q65.3439 406.004 61.3393 406.004 Q59.4643 406.004 57.5893 406.42 Q55.7375 406.837 53.793 407.717 L53.793 390.356 Z" fill="#000000" fill-rule="nonzero" fill-opacity="1" /><path clip-path="url(#clip420)" d="M83.9086 419.036 L88.7928 419.036 L88.7928 424.916 L83.9086 424.916 L83.9086 419.036 Z" fill="#000000" fill-rule="nonzero" fill-opacity="1" /><path clip-path="url(#clip420)" d="M108.978 393.434 Q105.367 393.434 103.538 396.999 Q101.733 400.541 101.733 407.67 Q101.733 414.777 103.538 418.342 Q105.367 421.883 108.978 421.883 Q112.612 421.883 114.418 418.342 Q116.246 414.777 116.246 407.67 Q116.246 400.541 114.418 396.999 Q112.612 393.434 108.978 393.434 M108.978 389.731 Q114.788 389.731 117.844 394.337 Q120.922 398.92 120.922 407.67 Q120.922 416.397 117.844 421.004 Q114.788 425.587 108.978 425.587 Q103.168 425.587 100.089 421.004 Q97.0335 416.397 97.0335 407.67 Q97.0335 398.92 100.089 394.337 Q103.168 389.731 108.978 389.731 Z" fill="#000000" fill-rule="nonzero" fill-opacity="1" /><path clip-path="url(#clip420)" d="M157.311 399.453 L146.732 410.078 L157.311 420.656 L154.556 423.457 L143.931 412.832 L133.306 423.457 L130.575 420.656 L141.131 410.078 L130.575 399.453 L133.306 396.652 L143.931 407.277 L154.556 396.652 L157.311 399.453 Z" fill="#000000" fill-rule="nonzero" fill-opacity="1" /><path clip-path="url(#clip420)" d="M169.672 420.981 L177.311 420.981 L177.311 394.615 L169.001 396.282 L169.001 392.022 L177.265 390.356 L181.94 390.356 L181.94 420.981 L189.579 420.981 L189.579 424.916 L169.672 424.916 L169.672 420.981 Z" fill="#000000" fill-rule="nonzero" fill-opacity="1" /><path clip-path="url(#clip420)" d="M209.024 393.434 Q205.413 393.434 203.584 396.999 Q201.778 400.541 201.778 407.67 Q201.778 414.777 203.584 418.342 Q205.413 421.883 209.024 421.883 Q212.658 421.883 214.463 418.342 Q216.292 414.777 216.292 407.67 Q216.292 400.541 214.463 396.999 Q212.658 393.434 209.024 393.434 M209.024 389.731 Q214.834 389.731 217.889 394.337 Q220.968 398.92 220.968 407.67 Q220.968 416.397 217.889 421.004 Q214.834 425.587 209.024 425.587 Q203.214 425.587 200.135 421.004 Q197.079 416.397 197.079 407.67 Q197.079 398.92 200.135 394.337 Q203.214 389.731 209.024 389.731 Z" fill="#000000" fill-rule="nonzero" fill-opacity="1" /><path clip-path="url(#clip420)" d="M230.598 384.171 Q227.889 384.171 226.328 385.619 Q224.786 387.067 224.786 389.606 Q224.786 392.145 226.328 393.593 Q227.889 395.042 230.598 395.042 Q233.306 395.042 234.867 393.593 Q236.428 392.126 236.428 389.606 Q236.428 387.067 234.867 385.619 Q233.325 384.171 230.598 384.171 M226.798 382.553 Q224.353 381.951 222.98 380.277 Q221.626 378.604 221.626 376.196 Q221.626 372.83 224.015 370.874 Q226.422 368.918 230.598 368.918 Q234.792 368.918 237.18 370.874 Q239.569 372.83 239.569 376.196 Q239.569 378.604 238.196 380.277 Q236.842 381.951 234.416 382.553 Q237.162 383.193 238.685 385.055 Q240.227 386.917 240.227 389.606 Q240.227 393.687 237.726 395.869 Q235.243 398.051 230.598 398.051 Q225.952 398.051 223.451 395.869 Q220.968 393.687 220.968 389.606 Q220.968 386.917 222.51 385.055 Q224.053 383.193 226.798 382.553 M225.407 376.553 Q225.407 378.735 226.761 379.958 Q228.134 381.18 230.598 381.18 Q233.043 381.18 234.416 379.958 Q235.807 378.735 235.807 376.553 Q235.807 374.372 234.416 373.149 Q233.043 371.927 230.598 371.927 Q228.134 371.927 226.761 373.149 Q225.407 374.372 225.407 376.553 Z" fill="#000000" fill-rule="nonzero" fill-opacity="1" /><path clip-path="url(#clip420)" d="M64.3254 196.867 Q61.1773 196.867 59.3254 199.02 Q57.4967 201.172 57.4967 204.922 Q57.4967 208.649 59.3254 210.825 Q61.1773 212.978 64.3254 212.978 Q67.4735 212.978 69.3022 210.825 Q71.1541 208.649 71.1541 204.922 Q71.1541 201.172 69.3022 199.02 Q67.4735 196.867 64.3254 196.867 M73.6077 182.214 L73.6077 186.473 Q71.8485 185.64 70.0429 185.2 Q68.2606 184.76 66.5013 184.76 Q61.8717 184.76 59.418 187.885 Q56.9875 191.01 56.6402 197.33 Q58.006 195.316 60.0662 194.251 Q62.1263 193.163 64.6032 193.163 Q69.8115 193.163 72.8207 196.334 Q75.8531 199.483 75.8531 204.922 Q75.8531 210.246 72.705 213.464 Q69.5568 216.682 64.3254 216.682 Q58.33 216.682 55.1588 212.098 Q51.9875 207.492 51.9875 198.765 Q51.9875 190.571 55.8764 185.709 Q59.7652 180.825 66.3161 180.825 Q68.0754 180.825 69.8578 181.172 Q71.6633 181.52 73.6077 182.214 Z" fill="#000000" fill-rule="nonzero" fill-opacity="1" /><path clip-path="url(#clip420)" d="M83.9086 210.131 L88.7928 210.131 L88.7928 216.01 L83.9086 216.01 L83.9086 210.131 Z" fill="#000000" fill-rule="nonzero" fill-opacity="1" /><path clip-path="url(#clip420)" d="M108.978 184.529 Q105.367 184.529 103.538 188.094 Q101.733 191.635 101.733 198.765 Q101.733 205.871 103.538 209.436 Q105.367 212.978 108.978 212.978 Q112.612 212.978 114.418 209.436 Q116.246 205.871 116.246 198.765 Q116.246 191.635 114.418 188.094 Q112.612 184.529 108.978 184.529 M108.978 180.825 Q114.788 180.825 117.844 185.432 Q120.922 190.015 120.922 198.765 Q120.922 207.492 117.844 212.098 Q114.788 216.682 108.978 216.682 Q103.168 216.682 100.089 212.098 Q97.0335 207.492 97.0335 198.765 Q97.0335 190.015 100.089 185.432 Q103.168 180.825 108.978 180.825 Z" fill="#000000" fill-rule="nonzero" fill-opacity="1" /><path clip-path="url(#clip420)" d="M157.311 190.547 L146.732 201.172 L157.311 211.751 L154.556 214.552 L143.931 203.927 L133.306 214.552 L130.575 211.751 L141.131 201.172 L130.575 190.547 L133.306 187.746 L143.931 198.371 L154.556 187.746 L157.311 190.547 Z" fill="#000000" fill-rule="nonzero" fill-opacity="1" /><path clip-path="url(#clip420)" d="M169.672 212.075 L177.311 212.075 L177.311 185.709 L169.001 187.376 L169.001 183.117 L177.265 181.45 L181.94 181.45 L181.94 212.075 L189.579 212.075 L189.579 216.01 L169.672 216.01 L169.672 212.075 Z" fill="#000000" fill-rule="nonzero" fill-opacity="1" /><path clip-path="url(#clip420)" d="M209.024 184.529 Q205.413 184.529 203.584 188.094 Q201.778 191.635 201.778 198.765 Q201.778 205.871 203.584 209.436 Q205.413 212.978 209.024 212.978 Q212.658 212.978 214.463 209.436 Q216.292 205.871 216.292 198.765 Q216.292 191.635 214.463 188.094 Q212.658 184.529 209.024 184.529 M209.024 180.825 Q214.834 180.825 217.889 185.432 Q220.968 190.015 220.968 198.765 Q220.968 207.492 217.889 212.098 Q214.834 216.682 209.024 216.682 Q203.214 216.682 200.135 212.098 Q197.079 207.492 197.079 198.765 Q197.079 190.015 200.135 185.432 Q203.214 180.825 209.024 180.825 Z" fill="#000000" fill-rule="nonzero" fill-opacity="1" /><path clip-path="url(#clip420)" d="M230.598 175.265 Q227.889 175.265 226.328 176.713 Q224.786 178.161 224.786 180.701 Q224.786 183.24 226.328 184.688 Q227.889 186.136 230.598 186.136 Q233.306 186.136 234.867 184.688 Q236.428 183.221 236.428 180.701 Q236.428 178.161 234.867 176.713 Q233.325 175.265 230.598 175.265 M226.798 173.648 Q224.353 173.046 222.98 171.372 Q221.626 169.698 221.626 167.291 Q221.626 163.924 224.015 161.968 Q226.422 160.012 230.598 160.012 Q234.792 160.012 237.18 161.968 Q239.569 163.924 239.569 167.291 Q239.569 169.698 238.196 171.372 Q236.842 173.046 234.416 173.648 Q237.162 174.287 238.685 176.149 Q240.227 178.011 240.227 180.701 Q240.227 184.782 237.726 186.964 Q235.243 189.145 230.598 189.145 Q225.952 189.145 223.451 186.964 Q220.968 184.782 220.968 180.701 Q220.968 178.011 222.51 176.149 Q224.053 174.287 226.798 173.648 M225.407 167.648 Q225.407 169.83 226.761 171.052 Q228.134 172.275 230.598 172.275 Q233.043 172.275 234.416 171.052 Q235.807 169.83 235.807 167.648 Q235.807 165.466 234.416 164.244 Q233.043 163.021 230.598 163.021 Q228.134 163.021 226.761 164.244 Q225.407 165.466 225.407 167.648 Z" fill="#000000" fill-rule="nonzero" fill-opacity="1" /><path clip-path="url(#clip422)" d="M390.44 87.9763 L390.44 684.748 L869.578 684.748 L869.578 87.9763 L390.44 87.9763 L390.44 87.9763  Z" fill="#009af9" fill-rule="evenodd" fill-opacity="1"/>
<polyline clip-path="url(#clip422)" style="stroke:#000000; stroke-linecap:round; stroke-linejoin:round; stroke-width:4; stroke-opacity:1; fill:none" points="390.44,87.9763 390.44,684.748 869.578,684.748 869.578,87.9763 390.44,87.9763 "/>
<path clip-path="url(#clip422)" d="M1074.92 1074.36 L1074.92 1305.13 L1554.06 1305.13 L1554.06 1074.36 L1074.92 1074.36 L1074.92 1074.36  Z" fill="#009af9" fill-rule="evenodd" fill-opacity="1"/>
<polyline clip-path="url(#clip422)" style="stroke:#000000; stroke-linecap:round; stroke-linejoin:round; stroke-width:4; stroke-opacity:1; fill:none" points="1074.92,1074.36 1074.92,1305.13 1554.06,1305.13 1554.06,1074.36 1074.92,1074.36 "/>
<path clip-path="url(#clip422)" d="M1759.41 1353.93 L1759.41 1423.65 L2238.54 1423.65 L2238.54 1353.93 L1759.41 1353.93 L1759.41 1353.93  Z" fill="#009af9" fill-rule="evenodd" fill-opacity="1"/>
<polyline clip-path="url(#clip422)" style="stroke:#000000; stroke-linecap:round; stroke-linejoin:round; stroke-width:4; stroke-opacity:1; fill:none" points="1759.41,1353.93 1759.41,1423.65 2238.54,1423.65 2238.54,1353.93 1759.41,1353.93 "/>
<circle clip-path="url(#clip422)" style="fill:#009af9; stroke:none; fill-opacity:0" cx="630.009" cy="87.9763" r="2"/>
<circle clip-path="url(#clip422)" style="fill:#009af9; stroke:none; fill-opacity:0" cx="1314.49" cy="1074.36" r="2"/>
<circle clip-path="url(#clip422)" style="fill:#009af9; stroke:none; fill-opacity:0" cx="1998.97" cy="1353.93" r="2"/>
<path clip-path="url(#clip422)" d="M390.44 684.748 L390.44 1397.04 L869.578 1397.04 L869.578 684.748 L390.44 684.748 L390.44 684.748  Z" fill="#e26f46" fill-rule="evenodd" fill-opacity="1"/>
<polyline clip-path="url(#clip422)" style="stroke:#000000; stroke-linecap:round; stroke-linejoin:round; stroke-width:4; stroke-opacity:1; fill:none" points="390.44,684.748 390.44,1397.04 869.578,1397.04 869.578,684.748 390.44,684.748 "/>
<path clip-path="url(#clip422)" d="M1074.92 1305.13 L1074.92 1305.13 L1554.06 1305.13 L1554.06 1305.13 L1074.92 1305.13 L1074.92 1305.13  Z" fill="#e26f46" fill-rule="evenodd" fill-opacity="1"/>
<polyline clip-path="url(#clip422)" style="stroke:#000000; stroke-linecap:round; stroke-linejoin:round; stroke-width:4; stroke-opacity:1; fill:none" points="1074.92,1305.13 1074.92,1305.13 1554.06,1305.13 1074.92,1305.13 "/>
<path clip-path="url(#clip422)" d="M1759.41 1423.65 L1759.41 1443.71 L2238.54 1443.71 L2238.54 1423.65 L1759.41 1423.65 L1759.41 1423.65  Z" fill="#e26f46" fill-rule="evenodd" fill-opacity="1"/>
<polyline clip-path="url(#clip422)" style="stroke:#000000; stroke-linecap:round; stroke-linejoin:round; stroke-width:4; stroke-opacity:1; fill:none" points="1759.41,1423.65 1759.41,1443.71 2238.54,1443.71 2238.54,1423.65 1759.41,1423.65 "/>
<circle clip-path="url(#clip422)" style="fill:#e26f46; stroke:none; fill-opacity:0" cx="630.009" cy="684.748" r="2"/>
<circle clip-path="url(#clip422)" style="fill:#e26f46; stroke:none; fill-opacity:0" cx="1314.49" cy="1305.13" r="2"/>
<circle clip-path="url(#clip422)" style="fill:#e26f46; stroke:none; fill-opacity:0" cx="1998.97" cy="1423.65" r="2"/>
<path clip-path="url(#clip422)" d="M390.44 1397.04 L390.44 1445.72 L869.578 1445.72 L869.578 1397.04 L390.44 1397.04 L390.44 1397.04  Z" fill="#3da44d" fill-rule="evenodd" fill-opacity="1"/>
<polyline clip-path="url(#clip422)" style="stroke:#000000; stroke-linecap:round; stroke-linejoin:round; stroke-width:4; stroke-opacity:1; fill:none" points="390.44,1397.04 390.44,1445.72 869.578,1445.72 869.578,1397.04 390.44,1397.04 "/>
<path clip-path="url(#clip422)" d="M1074.92 1305.13 L1074.92 1309.93 L1554.06 1309.93 L1554.06 1305.13 L1074.92 1305.13 L1074.92 1305.13  Z" fill="#3da44d" fill-rule="evenodd" fill-opacity="1"/>
<polyline clip-path="url(#clip422)" style="stroke:#000000; stroke-linecap:round; stroke-linejoin:round; stroke-width:4; stroke-opacity:1; fill:none" points="1074.92,1305.13 1074.92,1309.93 1554.06,1309.93 1554.06,1305.13 1074.92,1305.13 "/>
<path clip-path="url(#clip422)" d="M1759.41 1443.71 L1759.41 1445.72 L2238.54 1445.72 L2238.54 1443.71 L1759.41 1443.71 L1759.41 1443.71  Z" fill="#3da44d" fill-rule="evenodd" fill-opacity="1"/>
<polyline clip-path="url(#clip422)" style="stroke:#000000; stroke-linecap:round; stroke-linejoin:round; stroke-width:4; stroke-opacity:1; fill:none" points="1759.41,1443.71 1759.41,1445.72 2238.54,1445.72 2238.54,1443.71 1759.41,1443.71 "/>
<circle clip-path="url(#clip422)" style="fill:#3da44d; stroke:none; fill-opacity:0" cx="630.009" cy="1397.04" r="2"/>
<circle clip-path="url(#clip422)" style="fill:#3da44d; stroke:none; fill-opacity:0" cx="1314.49" cy="1305.13" r="2"/>
<circle clip-path="url(#clip422)" style="fill:#3da44d; stroke:none; fill-opacity:0" cx="1998.97" cy="1443.71" r="2"/>
<path clip-path="url(#clip422)" d="M390.44 1445.72 L390.44 1445.72 L869.578 1445.72 L869.578 1445.72 L390.44 1445.72 L390.44 1445.72  Z" fill="#c271d2" fill-rule="evenodd" fill-opacity="1"/>
<polyline clip-path="url(#clip422)" style="stroke:#000000; stroke-linecap:round; stroke-linejoin:round; stroke-width:4; stroke-opacity:1; fill:none" points="390.44,1445.72 390.44,1445.72 869.578,1445.72 390.44,1445.72 "/>
<path clip-path="url(#clip422)" d="M1074.92 1309.93 L1074.92 1445.72 L1554.06 1445.72 L1554.06 1309.93 L1074.92 1309.93 L1074.92 1309.93  Z" fill="#c271d2" fill-rule="evenodd" fill-opacity="1"/>
<polyline clip-path="url(#clip422)" style="stroke:#000000; stroke-linecap:round; stroke-linejoin:round; stroke-width:4; stroke-opacity:1; fill:none" points="1074.92,1309.93 1074.92,1445.72 1554.06,1445.72 1554.06,1309.93 1074.92,1309.93 "/>
<path clip-path="url(#clip422)" d="M1759.41 1445.72 L1759.41 1445.72 L2238.54 1445.72 L2238.54 1445.72 L1759.41 1445.72 L1759.41 1445.72  Z" fill="#c271d2" fill-rule="evenodd" fill-opacity="1"/>
<polyline clip-path="url(#clip422)" style="stroke:#000000; stroke-linecap:round; stroke-linejoin:round; stroke-width:4; stroke-opacity:1; fill:none" points="1759.41,1445.72 1759.41,1445.72 2238.54,1445.72 1759.41,1445.72 "/>
<circle clip-path="url(#clip422)" style="fill:#c271d2; stroke:none; fill-opacity:0" cx="630.009" cy="1445.72" r="2"/>
<circle clip-path="url(#clip422)" style="fill:#c271d2; stroke:none; fill-opacity:0" cx="1314.49" cy="1309.93" r="2"/>
<circle clip-path="url(#clip422)" style="fill:#c271d2; stroke:none; fill-opacity:0" cx="1998.97" cy="1445.72" r="2"/>
<path clip-path="url(#clip420)" d="M1941.88 354.418 L2283.54 354.418 L2283.54 95.2176 L1941.88 95.2176  Z" fill="#ffffff" fill-rule="evenodd" fill-opacity="1"/>
<polyline clip-path="url(#clip420)" style="stroke:#000000; stroke-linecap:round; stroke-linejoin:round; stroke-width:4; stroke-opacity:1; fill:none" points="1941.88,354.418 2283.54,354.418 2283.54,95.2176 1941.88,95.2176 1941.88,354.418 "/>
<path clip-path="url(#clip420)" d="M1964.95 167.794 L2103.39 167.794 L2103.39 126.322 L1964.95 126.322 L1964.95 167.794  Z" fill="#009af9" fill-rule="evenodd" fill-opacity="1"/>
<polyline clip-path="url(#clip420)" style="stroke:#000000; stroke-linecap:round; stroke-linejoin:round; stroke-width:4; stroke-opacity:1; fill:none" points="1964.95,167.794 2103.39,167.794 2103.39,126.322 1964.95,126.322 1964.95,167.794 "/>
<path clip-path="url(#clip420)" d="M2126.46 129.778 L2131.18 129.778 L2138.45 158.99 L2145.7 129.778 L2150.95 129.778 L2158.22 158.99 L2165.47 129.778 L2170.21 129.778 L2161.53 164.338 L2155.65 164.338 L2148.36 134.338 L2141 164.338 L2135.12 164.338 L2126.46 129.778 Z" fill="#000000" fill-rule="nonzero" fill-opacity="1" /><path clip-path="url(#clip420)" d="M2175.19 138.412 L2179.45 138.412 L2179.45 164.338 L2175.19 164.338 L2175.19 138.412 M2175.19 128.319 L2179.45 128.319 L2179.45 133.713 L2175.19 133.713 L2175.19 128.319 Z" fill="#000000" fill-rule="nonzero" fill-opacity="1" /><path clip-path="url(#clip420)" d="M2209.91 148.689 L2209.91 164.338 L2205.65 164.338 L2205.65 148.828 Q2205.65 145.148 2204.22 143.319 Q2202.78 141.49 2199.91 141.49 Q2196.46 141.49 2194.47 143.69 Q2192.48 145.889 2192.48 149.685 L2192.48 164.338 L2188.2 164.338 L2188.2 138.412 L2192.48 138.412 L2192.48 142.44 Q2194.01 140.102 2196.07 138.944 Q2198.15 137.787 2200.86 137.787 Q2205.33 137.787 2207.62 140.565 Q2209.91 143.319 2209.91 148.689 Z" fill="#000000" fill-rule="nonzero" fill-opacity="1" /><path clip-path="url(#clip420)" d="M2235.47 142.347 L2235.47 128.319 L2239.73 128.319 L2239.73 164.338 L2235.47 164.338 L2235.47 160.449 Q2234.12 162.763 2232.06 163.898 Q2230.03 165.009 2227.16 165.009 Q2222.46 165.009 2219.49 161.259 Q2216.55 157.509 2216.55 151.398 Q2216.55 145.287 2219.49 141.537 Q2222.46 137.787 2227.16 137.787 Q2230.03 137.787 2232.06 138.921 Q2234.12 140.032 2235.47 142.347 M2220.95 151.398 Q2220.95 156.097 2222.87 158.782 Q2224.82 161.444 2228.2 161.444 Q2231.58 161.444 2233.52 158.782 Q2235.47 156.097 2235.47 151.398 Q2235.47 146.699 2233.52 144.037 Q2231.58 141.352 2228.2 141.352 Q2224.82 141.352 2222.87 144.037 Q2220.95 146.699 2220.95 151.398 Z" fill="#000000" fill-rule="nonzero" fill-opacity="1" /><path clip-path="url(#clip420)" d="M1964.95 219.634 L2103.39 219.634 L2103.39 178.162 L1964.95 178.162 L1964.95 219.634  Z" fill="#e26f46" fill-rule="evenodd" fill-opacity="1"/>
<polyline clip-path="url(#clip420)" style="stroke:#000000; stroke-linecap:round; stroke-linejoin:round; stroke-width:4; stroke-opacity:1; fill:none" points="1964.95,219.634 2103.39,219.634 2103.39,178.162 1964.95,178.162 1964.95,219.634 "/>
<path clip-path="url(#clip420)" d="M2131.14 185.46 L2131.14 198.446 L2137.02 198.446 Q2140.28 198.446 2142.06 196.756 Q2143.85 195.067 2143.85 191.942 Q2143.85 188.84 2142.06 187.15 Q2140.28 185.46 2137.02 185.46 L2131.14 185.46 M2126.46 181.618 L2137.02 181.618 Q2142.83 181.618 2145.79 184.256 Q2148.78 186.872 2148.78 191.942 Q2148.78 197.057 2145.79 199.673 Q2142.83 202.289 2137.02 202.289 L2131.14 202.289 L2131.14 216.178 L2126.46 216.178 L2126.46 181.618 Z" fill="#000000" fill-rule="nonzero" fill-opacity="1" /><path clip-path="url(#clip420)" d="M2163.96 216.178 L2150.77 181.618 L2155.65 181.618 L2166.6 210.715 L2177.57 181.618 L2182.43 181.618 L2169.26 216.178 L2163.96 216.178 Z" fill="#000000" fill-rule="nonzero" fill-opacity="1" /><path clip-path="url(#clip420)" d="M1964.95 271.474 L2103.39 271.474 L2103.39 230.002 L1964.95 230.002 L1964.95 271.474  Z" fill="#3da44d" fill-rule="evenodd" fill-opacity="1"/>
<polyline clip-path="url(#clip420)" style="stroke:#000000; stroke-linecap:round; stroke-linejoin:round; stroke-width:4; stroke-opacity:1; fill:none" points="1964.95,271.474 2103.39,271.474 2103.39,230.002 1964.95,230.002 1964.95,271.474 "/>
<path clip-path="url(#clip420)" d="M2152.02 263.087 L2152.02 253.805 L2144.38 253.805 L2144.38 249.962 L2156.65 249.962 L2156.65 264.8 Q2153.94 266.721 2150.67 267.717 Q2147.41 268.689 2143.71 268.689 Q2135.61 268.689 2131.02 263.967 Q2126.46 259.221 2126.46 250.772 Q2126.46 242.3 2131.02 237.578 Q2135.61 232.833 2143.71 232.833 Q2147.09 232.833 2150.12 233.666 Q2153.17 234.499 2155.74 236.12 L2155.74 241.096 Q2153.15 238.897 2150.23 237.786 Q2147.32 236.675 2144.1 236.675 Q2137.76 236.675 2134.56 240.217 Q2131.39 243.758 2131.39 250.772 Q2131.39 257.763 2134.56 261.305 Q2137.76 264.846 2144.1 264.846 Q2146.58 264.846 2148.52 264.43 Q2150.47 263.99 2152.02 263.087 Z" fill="#000000" fill-rule="nonzero" fill-opacity="1" /><path clip-path="url(#clip420)" d="M2176.79 254.985 Q2171.62 254.985 2169.63 256.166 Q2167.64 257.346 2167.64 260.194 Q2167.64 262.462 2169.12 263.805 Q2170.63 265.124 2173.2 265.124 Q2176.74 265.124 2178.87 262.624 Q2181.02 260.101 2181.02 255.934 L2181.02 254.985 L2176.79 254.985 M2185.28 253.226 L2185.28 268.018 L2181.02 268.018 L2181.02 264.082 Q2179.56 266.443 2177.39 267.578 Q2175.21 268.689 2172.06 268.689 Q2168.08 268.689 2165.72 266.467 Q2163.38 264.221 2163.38 260.471 Q2163.38 256.096 2166.3 253.874 Q2169.24 251.652 2175.05 251.652 L2181.02 251.652 L2181.02 251.235 Q2181.02 248.295 2179.08 246.698 Q2177.16 245.078 2173.66 245.078 Q2171.44 245.078 2169.33 245.61 Q2167.23 246.143 2165.28 247.207 L2165.28 243.272 Q2167.62 242.37 2169.82 241.93 Q2172.02 241.467 2174.1 241.467 Q2179.73 241.467 2182.5 244.383 Q2185.28 247.3 2185.28 253.226 Z" fill="#000000" fill-rule="nonzero" fill-opacity="1" /><path clip-path="url(#clip420)" d="M2210.58 242.856 L2210.58 246.883 Q2208.78 245.957 2206.83 245.495 Q2204.89 245.032 2202.8 245.032 Q2199.63 245.032 2198.04 246.004 Q2196.46 246.976 2196.46 248.92 Q2196.46 250.402 2197.6 251.258 Q2198.73 252.092 2202.16 252.856 L2203.61 253.18 Q2208.15 254.152 2210.05 255.934 Q2211.97 257.694 2211.97 260.865 Q2211.97 264.476 2209.1 266.582 Q2206.25 268.689 2201.25 268.689 Q2199.17 268.689 2196.9 268.272 Q2194.66 267.879 2192.16 267.068 L2192.16 262.67 Q2194.52 263.897 2196.81 264.522 Q2199.1 265.124 2201.35 265.124 Q2204.35 265.124 2205.98 264.106 Q2207.6 263.064 2207.6 261.189 Q2207.6 259.453 2206.42 258.527 Q2205.26 257.601 2201.3 256.744 L2199.82 256.397 Q2195.86 255.564 2194.1 253.851 Q2192.34 252.115 2192.34 249.106 Q2192.34 245.448 2194.93 243.458 Q2197.53 241.467 2202.29 241.467 Q2204.66 241.467 2206.74 241.814 Q2208.82 242.161 2210.58 242.856 Z" fill="#000000" fill-rule="nonzero" fill-opacity="1" /><path clip-path="url(#clip420)" d="M1964.95 323.314 L2103.39 323.314 L2103.39 281.842 L1964.95 281.842 L1964.95 323.314  Z" fill="#c271d2" fill-rule="evenodd" fill-opacity="1"/>
<polyline clip-path="url(#clip420)" style="stroke:#000000; stroke-linecap:round; stroke-linejoin:round; stroke-width:4; stroke-opacity:1; fill:none" points="1964.95,323.314 2103.39,323.314 2103.39,281.842 1964.95,281.842 1964.95,323.314 "/>
<path clip-path="url(#clip420)" d="M2126.46 285.298 L2131.14 285.298 L2131.14 299.464 L2148.13 299.464 L2148.13 285.298 L2152.8 285.298 L2152.8 319.858 L2148.13 319.858 L2148.13 303.399 L2131.14 303.399 L2131.14 319.858 L2126.46 319.858 L2126.46 285.298 Z" fill="#000000" fill-rule="nonzero" fill-opacity="1" /><path clip-path="url(#clip420)" d="M2172.71 322.265 Q2170.91 326.895 2169.19 328.307 Q2167.48 329.719 2164.61 329.719 L2161.21 329.719 L2161.21 326.154 L2163.71 326.154 Q2165.47 326.154 2166.44 325.32 Q2167.41 324.487 2168.59 321.385 L2169.36 319.441 L2158.87 293.932 L2163.38 293.932 L2171.48 314.209 L2179.59 293.932 L2184.1 293.932 L2172.71 322.265 Z" fill="#000000" fill-rule="nonzero" fill-opacity="1" /><path clip-path="url(#clip420)" d="M2207.04 297.867 L2207.04 283.839 L2211.3 283.839 L2211.3 319.858 L2207.04 319.858 L2207.04 315.969 Q2205.7 318.283 2203.64 319.418 Q2201.6 320.529 2198.73 320.529 Q2194.03 320.529 2191.07 316.779 Q2188.13 313.029 2188.13 306.918 Q2188.13 300.807 2191.07 297.057 Q2194.03 293.307 2198.73 293.307 Q2201.6 293.307 2203.64 294.441 Q2205.7 295.552 2207.04 297.867 M2192.53 306.918 Q2192.53 311.617 2194.45 314.302 Q2196.39 316.964 2199.77 316.964 Q2203.15 316.964 2205.1 314.302 Q2207.04 311.617 2207.04 306.918 Q2207.04 302.219 2205.1 299.557 Q2203.15 296.872 2199.77 296.872 Q2196.39 296.872 2194.45 299.557 Q2192.53 302.219 2192.53 306.918 Z" fill="#000000" fill-rule="nonzero" fill-opacity="1" /><path clip-path="url(#clip420)" d="M2235.1 297.913 Q2234.38 297.497 2233.52 297.311 Q2232.69 297.103 2231.67 297.103 Q2228.06 297.103 2226.11 299.464 Q2224.19 301.802 2224.19 306.2 L2224.19 319.858 L2219.91 319.858 L2219.91 293.932 L2224.19 293.932 L2224.19 297.96 Q2225.54 295.598 2227.69 294.464 Q2229.84 293.307 2232.92 293.307 Q2233.36 293.307 2233.89 293.376 Q2234.42 293.423 2235.07 293.538 L2235.1 297.913 Z" fill="#000000" fill-rule="nonzero" fill-opacity="1" /><path clip-path="url(#clip420)" d="M2248.57 296.918 Q2245.14 296.918 2243.15 299.603 Q2241.16 302.265 2241.16 306.918 Q2241.16 311.571 2243.13 314.256 Q2245.12 316.918 2248.57 316.918 Q2251.97 316.918 2253.96 314.233 Q2255.95 311.547 2255.95 306.918 Q2255.95 302.311 2253.96 299.626 Q2251.97 296.918 2248.57 296.918 M2248.57 293.307 Q2254.12 293.307 2257.29 296.918 Q2260.47 300.529 2260.47 306.918 Q2260.47 313.284 2257.29 316.918 Q2254.12 320.529 2248.57 320.529 Q2242.99 320.529 2239.82 316.918 Q2236.67 313.284 2236.67 306.918 Q2236.67 300.529 2239.82 296.918 Q2242.99 293.307 2248.57 293.307 Z" fill="#000000" fill-rule="nonzero" fill-opacity="1" /></svg>
