<?xml version="1.0" encoding="utf-8"?>
<svg xmlns="http://www.w3.org/2000/svg" xmlns:xlink="http://www.w3.org/1999/xlink" width="600" height="400" viewBox="0 0 2400 1600">
<defs>
  <clipPath id="clip470">
    <rect x="0" y="0" width="2400" height="1600"/>
  </clipPath>
</defs>
<path clip-path="url(#clip470)" d="M0 1600 L2400 1600 L2400 0 L0 0  Z" fill="#ffffff" fill-rule="evenodd" fill-opacity="1"/>
<defs>
  <clipPath id="clip471">
    <rect x="480" y="0" width="1681" height="1600"/>
  </clipPath>
</defs>
<path clip-path="url(#clip470)" d="M276.227 1486.45 L2352.76 1486.45 L2352.76 47.2441 L276.227 47.2441  Z" fill="#ffffff" fill-rule="evenodd" fill-opacity="1"/>
<defs>
  <clipPath id="clip472">
    <rect x="276" y="47" width="2078" height="1440"/>
  </clipPath>
</defs>
<polyline clip-path="url(#clip472)" style="stroke:#000000; stroke-linecap:round; stroke-linejoin:round; stroke-width:2; stroke-opacity:0.1; fill:none" points="630.009,1486.45 630.009,47.2441 "/>
<polyline clip-path="url(#clip472)" style="stroke:#000000; stroke-linecap:round; stroke-linejoin:round; stroke-width:2; stroke-opacity:0.1; fill:none" points="1314.49,1486.45 1314.49,47.2441 "/>
<polyline clip-path="url(#clip472)" style="stroke:#000000; stroke-linecap:round; stroke-linejoin:round; stroke-width:2; stroke-opacity:0.1; fill:none" points="1998.97,1486.45 1998.97,47.2441 "/>
<polyline clip-path="url(#clip470)" style="stroke:#000000; stroke-linecap:round; stroke-linejoin:round; stroke-width:4; stroke-opacity:1; fill:none" points="276.227,1486.45 2352.76,1486.45 "/>
<polyline clip-path="url(#clip470)" style="stroke:#000000; stroke-linecap:round; stroke-linejoin:round; stroke-width:4; stroke-opacity:1; fill:none" points="630.009,1486.45 630.009,1467.55 "/>
<polyline clip-path="url(#clip470)" style="stroke:#000000; stroke-linecap:round; stroke-linejoin:round; stroke-width:4; stroke-opacity:1; fill:none" points="1314.49,1486.45 1314.49,1467.55 "/>
<polyline clip-path="url(#clip470)" style="stroke:#000000; stroke-linecap:round; stroke-linejoin:round; stroke-width:4; stroke-opacity:1; fill:none" points="1998.97,1486.45 1998.97,1467.55 "/>
<path clip-path="url(#clip470)" d="M548.655 1543.92 L548.655 1534.63 L541.016 1534.63 L541.016 1530.79 L553.285 1530.79 L553.285 1545.63 Q550.576 1547.55 547.313 1548.55 Q544.049 1549.52 540.345 1549.52 Q532.243 1549.52 527.66 1544.8 Q523.1 1540.05 523.1 1531.6 Q523.1 1523.13 527.66 1518.41 Q532.243 1513.66 540.345 1513.66 Q543.725 1513.66 546.757 1514.5 Q549.813 1515.33 552.382 1516.95 L552.382 1521.93 Q549.789 1519.73 546.873 1518.62 Q543.956 1517.51 540.739 1517.51 Q534.396 1517.51 531.202 1521.05 Q528.03 1524.59 528.03 1531.6 Q528.03 1538.59 531.202 1542.13 Q534.396 1545.68 540.739 1545.68 Q543.215 1545.68 545.16 1545.26 Q547.104 1544.82 548.655 1543.92 Z" fill="#000000" fill-rule="nonzero" fill-opacity="1" /><path clip-path="url(#clip470)" d="M583.817 1534.82 L583.817 1536.9 L564.234 1536.9 Q564.512 1541.3 566.873 1543.62 Q569.257 1545.91 573.493 1545.91 Q575.947 1545.91 578.238 1545.31 Q580.553 1544.7 582.822 1543.5 L582.822 1547.53 Q580.53 1548.5 578.123 1549.01 Q575.715 1549.52 573.238 1549.52 Q567.035 1549.52 563.4 1545.91 Q559.789 1542.3 559.789 1536.14 Q559.789 1529.77 563.215 1526.05 Q566.664 1522.3 572.498 1522.3 Q577.729 1522.3 580.762 1525.68 Q583.817 1529.03 583.817 1534.82 M579.558 1533.57 Q579.512 1530.07 577.59 1527.99 Q575.692 1525.91 572.544 1525.91 Q568.979 1525.91 566.826 1527.92 Q564.697 1529.94 564.373 1533.59 L579.558 1533.57 Z" fill="#000000" fill-rule="nonzero" fill-opacity="1" /><path clip-path="url(#clip470)" d="M605.831 1526.9 Q605.113 1526.49 604.257 1526.3 Q603.423 1526.09 602.405 1526.09 Q598.794 1526.09 596.849 1528.45 Q594.928 1530.79 594.928 1535.19 L594.928 1548.85 L590.646 1548.85 L590.646 1522.92 L594.928 1522.92 L594.928 1526.95 Q596.271 1524.59 598.423 1523.45 Q600.576 1522.3 603.655 1522.3 Q604.095 1522.3 604.627 1522.37 Q605.16 1522.41 605.808 1522.53 L605.831 1526.9 Z" fill="#000000" fill-rule="nonzero" fill-opacity="1" /><path clip-path="url(#clip470)" d="M629.65 1527.9 Q631.247 1525.03 633.47 1523.66 Q635.692 1522.3 638.701 1522.3 Q642.752 1522.3 644.951 1525.14 Q647.15 1527.97 647.15 1533.2 L647.15 1548.85 L642.868 1548.85 L642.868 1533.34 Q642.868 1529.61 641.548 1527.81 Q640.229 1526 637.52 1526 Q634.21 1526 632.289 1528.2 Q630.368 1530.4 630.368 1534.2 L630.368 1548.85 L626.085 1548.85 L626.085 1533.34 Q626.085 1529.59 624.766 1527.81 Q623.446 1526 620.692 1526 Q617.428 1526 615.507 1528.22 Q613.585 1530.42 613.585 1534.2 L613.585 1548.85 L609.303 1548.85 L609.303 1522.92 L613.585 1522.92 L613.585 1526.95 Q615.044 1524.57 617.081 1523.43 Q619.118 1522.3 621.919 1522.3 Q624.743 1522.3 626.71 1523.73 Q628.701 1525.17 629.65 1527.9 Z" fill="#000000" fill-rule="nonzero" fill-opacity="1" /><path clip-path="url(#clip470)" d="M667.428 1535.82 Q662.266 1535.82 660.275 1537 Q658.284 1538.18 658.284 1541.02 Q658.284 1543.29 659.766 1544.63 Q661.27 1545.95 663.84 1545.95 Q667.381 1545.95 669.511 1543.45 Q671.664 1540.93 671.664 1536.76 L671.664 1535.82 L667.428 1535.82 M675.923 1534.06 L675.923 1548.85 L671.664 1548.85 L671.664 1544.91 Q670.205 1547.27 668.03 1548.41 Q665.854 1549.52 662.706 1549.52 Q658.724 1549.52 656.363 1547.3 Q654.025 1545.05 654.025 1541.3 Q654.025 1536.93 656.942 1534.7 Q659.881 1532.48 665.692 1532.48 L671.664 1532.48 L671.664 1532.07 Q671.664 1529.13 669.719 1527.53 Q667.798 1525.91 664.303 1525.91 Q662.081 1525.91 659.974 1526.44 Q657.868 1526.97 655.923 1528.04 L655.923 1524.1 Q658.261 1523.2 660.46 1522.76 Q662.659 1522.3 664.743 1522.3 Q670.368 1522.3 673.145 1525.21 Q675.923 1528.13 675.923 1534.06 Z" fill="#000000" fill-rule="nonzero" fill-opacity="1" /><path clip-path="url(#clip470)" d="M706.247 1533.2 L706.247 1548.85 L701.988 1548.85 L701.988 1533.34 Q701.988 1529.66 700.553 1527.83 Q699.117 1526 696.247 1526 Q692.798 1526 690.807 1528.2 Q688.816 1530.4 688.816 1534.2 L688.816 1548.85 L684.534 1548.85 L684.534 1522.92 L688.816 1522.92 L688.816 1526.95 Q690.344 1524.61 692.404 1523.45 Q694.488 1522.3 697.196 1522.3 Q701.664 1522.3 703.955 1525.07 Q706.247 1527.83 706.247 1533.2 Z" fill="#000000" fill-rule="nonzero" fill-opacity="1" /><path clip-path="url(#clip470)" d="M725.529 1551.26 Q723.724 1555.88 722.011 1557.3 Q720.298 1558.71 717.427 1558.71 L714.025 1558.71 L714.025 1555.14 L716.525 1555.14 Q718.284 1555.14 719.256 1554.31 Q720.228 1553.48 721.409 1550.38 L722.173 1548.43 L711.687 1522.92 L716.201 1522.92 L724.302 1543.2 L732.404 1522.92 L736.918 1522.92 L725.529 1551.26 Z" fill="#000000" fill-rule="nonzero" fill-opacity="1" /><path clip-path="url(#clip470)" d="M1246.64 1515.42 L1246.64 1519.98 Q1243.98 1518.71 1241.62 1518.08 Q1239.26 1517.46 1237.06 1517.46 Q1233.24 1517.46 1231.16 1518.94 Q1229.1 1520.42 1229.1 1523.15 Q1229.1 1525.45 1230.46 1526.63 Q1231.85 1527.78 1235.7 1528.5 L1238.52 1529.08 Q1243.75 1530.07 1246.23 1532.6 Q1248.73 1535.1 1248.73 1539.31 Q1248.73 1544.33 1245.35 1546.93 Q1241.99 1549.52 1235.49 1549.52 Q1233.03 1549.52 1230.26 1548.96 Q1227.5 1548.41 1224.54 1547.32 L1224.54 1542.51 Q1227.39 1544.1 1230.12 1544.91 Q1232.85 1545.72 1235.49 1545.72 Q1239.49 1545.72 1241.67 1544.15 Q1243.84 1542.57 1243.84 1539.66 Q1243.84 1537.11 1242.27 1535.68 Q1240.72 1534.24 1237.15 1533.52 L1234.31 1532.97 Q1229.08 1531.93 1226.74 1529.7 Q1224.4 1527.48 1224.4 1523.52 Q1224.4 1518.94 1227.62 1516.3 Q1230.86 1513.66 1236.53 1513.66 Q1238.96 1513.66 1241.48 1514.1 Q1244.01 1514.54 1246.64 1515.42 Z" fill="#000000" fill-rule="nonzero" fill-opacity="1" /><path clip-path="url(#clip470)" d="M1253.36 1522.92 L1257.62 1522.92 L1262.94 1543.15 L1268.24 1522.92 L1273.26 1522.92 L1278.59 1543.15 L1283.89 1522.92 L1288.15 1522.92 L1281.37 1548.85 L1276.34 1548.85 L1270.76 1527.6 L1265.16 1548.85 L1260.14 1548.85 L1253.36 1522.92 Z" fill="#000000" fill-rule="nonzero" fill-opacity="1" /><path clip-path="url(#clip470)" d="M1316.78 1534.82 L1316.78 1536.9 L1297.2 1536.9 Q1297.48 1541.3 1299.84 1543.62 Q1302.22 1545.91 1306.46 1545.91 Q1308.91 1545.91 1311.2 1545.31 Q1313.52 1544.7 1315.79 1543.5 L1315.79 1547.53 Q1313.5 1548.5 1311.09 1549.01 Q1308.68 1549.52 1306.2 1549.52 Q1300 1549.52 1296.37 1545.91 Q1292.76 1542.3 1292.76 1536.14 Q1292.76 1529.77 1296.18 1526.05 Q1299.63 1522.3 1305.46 1522.3 Q1310.7 1522.3 1313.73 1525.68 Q1316.78 1529.03 1316.78 1534.82 M1312.52 1533.57 Q1312.48 1530.07 1310.56 1527.99 Q1308.66 1525.91 1305.51 1525.91 Q1301.95 1525.91 1299.79 1527.92 Q1297.66 1529.94 1297.34 1533.59 L1312.52 1533.57 Z" fill="#000000" fill-rule="nonzero" fill-opacity="1" /><path clip-path="url(#clip470)" d="M1340.83 1526.86 L1340.83 1512.83 L1345.09 1512.83 L1345.09 1548.85 L1340.83 1548.85 L1340.83 1544.96 Q1339.49 1547.27 1337.43 1548.41 Q1335.39 1549.52 1332.52 1549.52 Q1327.82 1549.52 1324.86 1545.77 Q1321.92 1542.02 1321.92 1535.91 Q1321.92 1529.8 1324.86 1526.05 Q1327.82 1522.3 1332.52 1522.3 Q1335.39 1522.3 1337.43 1523.43 Q1339.49 1524.54 1340.83 1526.86 M1326.32 1535.91 Q1326.32 1540.61 1328.24 1543.29 Q1330.19 1545.95 1333.57 1545.95 Q1336.95 1545.95 1338.89 1543.29 Q1340.83 1540.61 1340.83 1535.91 Q1340.83 1531.21 1338.89 1528.55 Q1336.95 1525.86 1333.57 1525.86 Q1330.19 1525.86 1328.24 1528.55 Q1326.32 1531.21 1326.32 1535.91 Z" fill="#000000" fill-rule="nonzero" fill-opacity="1" /><path clip-path="url(#clip470)" d="M1376.04 1534.82 L1376.04 1536.9 L1356.46 1536.9 Q1356.74 1541.3 1359.1 1543.62 Q1361.48 1545.91 1365.72 1545.91 Q1368.17 1545.91 1370.46 1545.31 Q1372.78 1544.7 1375.05 1543.5 L1375.05 1547.53 Q1372.76 1548.5 1370.35 1549.01 Q1367.94 1549.52 1365.46 1549.52 Q1359.26 1549.52 1355.63 1545.91 Q1352.01 1542.3 1352.01 1536.14 Q1352.01 1529.77 1355.44 1526.05 Q1358.89 1522.3 1364.72 1522.3 Q1369.95 1522.3 1372.99 1525.68 Q1376.04 1529.03 1376.04 1534.82 M1371.78 1533.57 Q1371.74 1530.07 1369.82 1527.99 Q1367.92 1525.91 1364.77 1525.91 Q1361.2 1525.91 1359.05 1527.92 Q1356.92 1529.94 1356.6 1533.59 L1371.78 1533.57 Z" fill="#000000" fill-rule="nonzero" fill-opacity="1" /><path clip-path="url(#clip470)" d="M1404.58 1533.2 L1404.58 1548.85 L1400.32 1548.85 L1400.32 1533.34 Q1400.32 1529.66 1398.89 1527.83 Q1397.45 1526 1394.58 1526 Q1391.13 1526 1389.14 1528.2 Q1387.15 1530.4 1387.15 1534.2 L1387.15 1548.85 L1382.87 1548.85 L1382.87 1522.92 L1387.15 1522.92 L1387.15 1526.95 Q1388.68 1524.61 1390.74 1523.45 Q1392.82 1522.3 1395.53 1522.3 Q1400 1522.3 1402.29 1525.07 Q1404.58 1527.83 1404.58 1533.2 Z" fill="#000000" fill-rule="nonzero" fill-opacity="1" /><path clip-path="url(#clip470)" d="M1897.1 1518.13 L1897.1 1545.01 L1902.75 1545.01 Q1909.9 1545.01 1913.21 1541.76 Q1916.54 1538.52 1916.54 1531.53 Q1916.54 1524.59 1913.21 1521.37 Q1909.9 1518.13 1902.75 1518.13 L1897.1 1518.13 M1892.42 1514.29 L1902.03 1514.29 Q1912.08 1514.29 1916.78 1518.48 Q1921.47 1522.64 1921.47 1531.53 Q1921.47 1540.47 1916.75 1544.66 Q1912.03 1548.85 1902.03 1548.85 L1892.42 1548.85 L1892.42 1514.29 Z" fill="#000000" fill-rule="nonzero" fill-opacity="1" /><path clip-path="url(#clip470)" d="M1950.92 1534.82 L1950.92 1536.9 L1931.34 1536.9 Q1931.61 1541.3 1933.97 1543.62 Q1936.36 1545.91 1940.59 1545.91 Q1943.05 1545.91 1945.34 1545.31 Q1947.66 1544.7 1949.92 1543.5 L1949.92 1547.53 Q1947.63 1548.5 1945.22 1549.01 Q1942.82 1549.52 1940.34 1549.52 Q1934.14 1549.52 1930.5 1545.91 Q1926.89 1542.3 1926.89 1536.14 Q1926.89 1529.77 1930.32 1526.05 Q1933.77 1522.3 1939.6 1522.3 Q1944.83 1522.3 1947.86 1525.68 Q1950.92 1529.03 1950.92 1534.82 M1946.66 1533.57 Q1946.61 1530.07 1944.69 1527.99 Q1942.79 1525.91 1939.65 1525.91 Q1936.08 1525.91 1933.93 1527.92 Q1931.8 1529.94 1931.47 1533.59 L1946.66 1533.57 Z" fill="#000000" fill-rule="nonzero" fill-opacity="1" /><path clip-path="url(#clip470)" d="M1979.46 1533.2 L1979.46 1548.85 L1975.2 1548.85 L1975.2 1533.34 Q1975.2 1529.66 1973.77 1527.83 Q1972.33 1526 1969.46 1526 Q1966.01 1526 1964.02 1528.2 Q1962.03 1530.4 1962.03 1534.2 L1962.03 1548.85 L1957.75 1548.85 L1957.75 1522.92 L1962.03 1522.92 L1962.03 1526.95 Q1963.56 1524.61 1965.62 1523.45 Q1967.7 1522.3 1970.41 1522.3 Q1974.88 1522.3 1977.17 1525.07 Q1979.46 1527.83 1979.46 1533.2 Z" fill="#000000" fill-rule="nonzero" fill-opacity="1" /><path clip-path="url(#clip470)" d="M2008.14 1527.9 Q2009.74 1525.03 2011.96 1523.66 Q2014.18 1522.3 2017.19 1522.3 Q2021.24 1522.3 2023.44 1525.14 Q2025.64 1527.97 2025.64 1533.2 L2025.64 1548.85 L2021.36 1548.85 L2021.36 1533.34 Q2021.36 1529.61 2020.04 1527.81 Q2018.72 1526 2016.01 1526 Q2012.7 1526 2010.78 1528.2 Q2008.86 1530.4 2008.86 1534.2 L2008.86 1548.85 L2004.58 1548.85 L2004.58 1533.34 Q2004.58 1529.59 2003.26 1527.81 Q2001.94 1526 1999.18 1526 Q1995.92 1526 1994 1528.22 Q1992.08 1530.42 1992.08 1534.2 L1992.08 1548.85 L1987.79 1548.85 L1987.79 1522.92 L1992.08 1522.92 L1992.08 1526.95 Q1993.53 1524.57 1995.57 1523.43 Q1997.61 1522.3 2000.41 1522.3 Q2003.23 1522.3 2005.2 1523.73 Q2007.19 1525.17 2008.14 1527.9 Z" fill="#000000" fill-rule="nonzero" fill-opacity="1" /><path clip-path="url(#clip470)" d="M2045.92 1535.82 Q2040.76 1535.82 2038.77 1537 Q2036.77 1538.18 2036.77 1541.02 Q2036.77 1543.29 2038.26 1544.63 Q2039.76 1545.95 2042.33 1545.95 Q2045.87 1545.95 2048 1543.45 Q2050.15 1540.93 2050.15 1536.76 L2050.15 1535.82 L2045.92 1535.82 M2054.41 1534.06 L2054.41 1548.85 L2050.15 1548.85 L2050.15 1544.91 Q2048.7 1547.27 2046.52 1548.41 Q2044.34 1549.52 2041.2 1549.52 Q2037.21 1549.52 2034.85 1547.3 Q2032.52 1545.05 2032.52 1541.3 Q2032.52 1536.93 2035.43 1534.7 Q2038.37 1532.48 2044.18 1532.48 L2050.15 1532.48 L2050.15 1532.07 Q2050.15 1529.13 2048.21 1527.53 Q2046.29 1525.91 2042.79 1525.91 Q2040.57 1525.91 2038.46 1526.44 Q2036.36 1526.97 2034.41 1528.04 L2034.41 1524.1 Q2036.75 1523.2 2038.95 1522.76 Q2041.15 1522.3 2043.23 1522.3 Q2048.86 1522.3 2051.64 1525.21 Q2054.41 1528.13 2054.41 1534.06 Z" fill="#000000" fill-rule="nonzero" fill-opacity="1" /><path clip-path="url(#clip470)" d="M2078.21 1526.9 Q2077.49 1526.49 2076.64 1526.3 Q2075.8 1526.09 2074.78 1526.09 Q2071.17 1526.09 2069.23 1528.45 Q2067.31 1530.79 2067.31 1535.19 L2067.31 1548.85 L2063.02 1548.85 L2063.02 1522.92 L2067.31 1522.92 L2067.31 1526.95 Q2068.65 1524.59 2070.8 1523.45 Q2072.96 1522.3 2076.03 1522.3 Q2076.47 1522.3 2077.01 1522.37 Q2077.54 1522.41 2078.19 1522.53 L2078.21 1526.9 Z" fill="#000000" fill-rule="nonzero" fill-opacity="1" /><path clip-path="url(#clip470)" d="M2082.52 1512.83 L2086.8 1512.83 L2086.8 1534.1 L2099.51 1522.92 L2104.95 1522.92 L2091.2 1535.05 L2105.52 1548.85 L2099.97 1548.85 L2086.8 1536.19 L2086.8 1548.85 L2082.52 1548.85 L2082.52 1512.83 Z" fill="#000000" fill-rule="nonzero" fill-opacity="1" /><polyline clip-path="url(#clip472)" style="stroke:#000000; stroke-linecap:round; stroke-linejoin:round; stroke-width:2; stroke-opacity:0.1; fill:none" points="276.227,1445.72 2352.76,1445.72 "/>
<polyline clip-path="url(#clip472)" style="stroke:#000000; stroke-linecap:round; stroke-linejoin:round; stroke-width:2; stroke-opacity:0.1; fill:none" points="276.227,1232.78 2352.76,1232.78 "/>
<polyline clip-path="url(#clip472)" style="stroke:#000000; stroke-linecap:round; stroke-linejoin:round; stroke-width:2; stroke-opacity:0.1; fill:none" points="276.227,1019.84 2352.76,1019.84 "/>
<polyline clip-path="url(#clip472)" style="stroke:#000000; stroke-linecap:round; stroke-linejoin:round; stroke-width:2; stroke-opacity:0.1; fill:none" points="276.227,806.897 2352.76,806.897 "/>
<polyline clip-path="url(#clip472)" style="stroke:#000000; stroke-linecap:round; stroke-linejoin:round; stroke-width:2; stroke-opacity:0.1; fill:none" points="276.227,593.957 2352.76,593.957 "/>
<polyline clip-path="url(#clip472)" style="stroke:#000000; stroke-linecap:round; stroke-linejoin:round; stroke-width:2; stroke-opacity:0.1; fill:none" points="276.227,381.018 2352.76,381.018 "/>
<polyline clip-path="url(#clip472)" style="stroke:#000000; stroke-linecap:round; stroke-linejoin:round; stroke-width:2; stroke-opacity:0.1; fill:none" points="276.227,168.078 2352.76,168.078 "/>
<polyline clip-path="url(#clip470)" style="stroke:#000000; stroke-linecap:round; stroke-linejoin:round; stroke-width:4; stroke-opacity:1; fill:none" points="276.227,1486.45 276.227,47.2441 "/>
<polyline clip-path="url(#clip470)" style="stroke:#000000; stroke-linecap:round; stroke-linejoin:round; stroke-width:4; stroke-opacity:1; fill:none" points="276.227,1445.72 295.125,1445.72 "/>
<polyline clip-path="url(#clip470)" style="stroke:#000000; stroke-linecap:round; stroke-linejoin:round; stroke-width:4; stroke-opacity:1; fill:none" points="276.227,1232.78 295.125,1232.78 "/>
<polyline clip-path="url(#clip470)" style="stroke:#000000; stroke-linecap:round; stroke-linejoin:round; stroke-width:4; stroke-opacity:1; fill:none" points="276.227,1019.84 295.125,1019.84 "/>
<polyline clip-path="url(#clip470)" style="stroke:#000000; stroke-linecap:round; stroke-linejoin:round; stroke-width:4; stroke-opacity:1; fill:none" points="276.227,806.897 295.125,806.897 "/>
<polyline clip-path="url(#clip470)" style="stroke:#000000; stroke-linecap:round; stroke-linejoin:round; stroke-width:4; stroke-opacity:1; fill:none" points="276.227,593.957 295.125,593.957 "/>
<polyline clip-path="url(#clip470)" style="stroke:#000000; stroke-linecap:round; stroke-linejoin:round; stroke-width:4; stroke-opacity:1; fill:none" points="276.227,381.018 295.125,381.018 "/>
<polyline clip-path="url(#clip470)" style="stroke:#000000; stroke-linecap:round; stroke-linejoin:round; stroke-width:4; stroke-opacity:1; fill:none" points="276.227,168.078 295.125,168.078 "/>
<path clip-path="url(#clip470)" d="M228.283 1431.51 Q224.672 1431.51 222.843 1435.08 Q221.038 1438.62 221.038 1445.75 Q221.038 1452.86 222.843 1456.42 Q224.672 1459.96 228.283 1459.96 Q231.917 1459.96 233.723 1456.42 Q235.551 1452.86 235.551 1445.75 Q235.551 1438.62 233.723 1435.08 Q231.917 1431.51 228.283 1431.51 M228.283 1427.81 Q234.093 1427.81 237.149 1432.42 Q240.227 1437 240.227 1445.75 Q240.227 1454.48 237.149 1459.08 Q234.093 1463.67 228.283 1463.67 Q222.473 1463.67 219.394 1459.08 Q216.338 1454.48 216.338 1445.75 Q216.338 1437 219.394 1432.42 Q222.473 1427.81 228.283 1427.81 Z" fill="#000000" fill-rule="nonzero" fill-opacity="1" /><path clip-path="url(#clip470)" d="M54.5569 1252.57 L62.1958 1252.57 L62.1958 1226.2 L53.8856 1227.87 L53.8856 1223.61 L62.1495 1221.94 L66.8254 1221.94 L66.8254 1252.57 L74.4642 1252.57 L74.4642 1256.5 L54.5569 1256.5 L54.5569 1252.57 Z" fill="#000000" fill-rule="nonzero" fill-opacity="1" /><path clip-path="url(#clip470)" d="M83.9086 1250.62 L88.7928 1250.62 L88.7928 1256.5 L83.9086 1256.5 L83.9086 1250.62 Z" fill="#000000" fill-rule="nonzero" fill-opacity="1" /><path clip-path="url(#clip470)" d="M108.978 1225.02 Q105.367 1225.02 103.538 1228.59 Q101.733 1232.13 101.733 1239.26 Q101.733 1246.36 103.538 1249.93 Q105.367 1253.47 108.978 1253.47 Q112.612 1253.47 114.418 1249.93 Q116.246 1246.36 116.246 1239.26 Q116.246 1232.13 114.418 1228.59 Q112.612 1225.02 108.978 1225.02 M108.978 1221.32 Q114.788 1221.32 117.844 1225.93 Q120.922 1230.51 120.922 1239.26 Q120.922 1247.99 117.844 1252.59 Q114.788 1257.17 108.978 1257.17 Q103.168 1257.17 100.089 1252.59 Q97.0335 1247.99 97.0335 1239.26 Q97.0335 1230.51 100.089 1225.93 Q103.168 1221.32 108.978 1221.32 Z" fill="#000000" fill-rule="nonzero" fill-opacity="1" /><path clip-path="url(#clip470)" d="M157.311 1231.04 L146.732 1241.67 L157.311 1252.24 L154.556 1255.05 L143.931 1244.42 L133.306 1255.05 L130.575 1252.24 L141.131 1241.67 L130.575 1231.04 L133.306 1228.24 L143.931 1238.86 L154.556 1228.24 L157.311 1231.04 Z" fill="#000000" fill-rule="nonzero" fill-opacity="1" /><path clip-path="url(#clip470)" d="M169.672 1252.57 L177.311 1252.57 L177.311 1226.2 L169.001 1227.87 L169.001 1223.61 L177.265 1221.94 L181.94 1221.94 L181.94 1252.57 L189.579 1252.57 L189.579 1256.5 L169.672 1256.5 L169.672 1252.57 Z" fill="#000000" fill-rule="nonzero" fill-opacity="1" /><path clip-path="url(#clip470)" d="M209.024 1225.02 Q205.413 1225.02 203.584 1228.59 Q201.778 1232.13 201.778 1239.26 Q201.778 1246.36 203.584 1249.93 Q205.413 1253.47 209.024 1253.47 Q212.658 1253.47 214.463 1249.93 Q216.292 1246.36 216.292 1239.26 Q216.292 1232.13 214.463 1228.59 Q212.658 1225.02 209.024 1225.02 M209.024 1221.32 Q214.834 1221.32 217.889 1225.93 Q220.968 1230.51 220.968 1239.26 Q220.968 1247.99 217.889 1252.59 Q214.834 1257.17 209.024 1257.17 Q203.214 1257.17 200.135 1252.59 Q197.079 1247.99 197.079 1239.26 Q197.079 1230.51 200.135 1225.93 Q203.214 1221.32 209.024 1221.32 Z" fill="#000000" fill-rule="nonzero" fill-opacity="1" /><path clip-path="url(#clip470)" d="M230.598 1215.76 Q227.889 1215.76 226.328 1217.21 Q224.786 1218.65 224.786 1221.19 Q224.786 1223.73 226.328 1225.18 Q227.889 1226.63 230.598 1226.63 Q233.306 1226.63 234.867 1225.18 Q236.428 1223.71 236.428 1221.19 Q236.428 1218.65 234.867 1217.21 Q233.325 1215.76 230.598 1215.76 M226.798 1214.14 Q224.353 1213.54 222.98 1211.87 Q221.626 1210.19 221.626 1207.78 Q221.626 1204.42 224.015 1202.46 Q226.422 1200.51 230.598 1200.51 Q234.792 1200.51 237.18 1202.46 Q239.569 1204.42 239.569 1207.78 Q239.569 1210.19 238.196 1211.87 Q236.842 1213.54 234.416 1214.14 Q237.162 1214.78 238.685 1216.64 Q240.227 1218.5 240.227 1221.19 Q240.227 1225.28 237.726 1227.46 Q235.243 1229.64 230.598 1229.64 Q225.952 1229.64 223.451 1227.46 Q220.968 1225.28 220.968 1221.19 Q220.968 1218.5 222.51 1216.64 Q224.053 1214.78 226.798 1214.14 M225.407 1208.14 Q225.407 1210.32 226.761 1211.55 Q228.134 1212.77 230.598 1212.77 Q233.043 1212.77 234.416 1211.55 Q235.807 1210.32 235.807 1208.14 Q235.807 1205.96 234.416 1204.74 Q233.043 1203.51 230.598 1203.51 Q228.134 1203.51 226.761 1204.74 Q225.407 1205.96 225.407 1208.14 Z" fill="#000000" fill-rule="nonzero" fill-opacity="1" /><path clip-path="url(#clip470)" d="M57.7745 1039.63 L74.0939 1039.63 L74.0939 1043.56 L52.1495 1043.56 L52.1495 1039.63 Q54.8115 1036.87 59.3949 1032.24 Q64.0013 1027.59 65.1819 1026.25 Q67.4272 1023.73 68.3068 1021.99 Q69.2096 1020.23 69.2096 1018.54 Q69.2096 1015.79 67.2652 1014.05 Q65.3439 1012.31 62.2421 1012.31 Q60.043 1012.31 57.5893 1013.08 Q55.1588 1013.84 52.381 1015.39 L52.381 1010.67 Q55.2051 1009.54 57.6588 1008.96 Q60.1124 1008.38 62.1495 1008.38 Q67.5198 1008.38 70.7142 1011.06 Q73.9087 1013.75 73.9087 1018.24 Q73.9087 1020.37 73.0985 1022.29 Q72.3115 1024.19 70.205 1026.78 Q69.6263 1027.45 66.5245 1030.67 Q63.4226 1033.87 57.7745 1039.63 Z" fill="#000000" fill-rule="nonzero" fill-opacity="1" /><path clip-path="url(#clip470)" d="M83.9086 1037.68 L88.7928 1037.68 L88.7928 1043.56 L83.9086 1043.56 L83.9086 1037.68 Z" fill="#000000" fill-rule="nonzero" fill-opacity="1" /><path clip-path="url(#clip470)" d="M108.978 1012.08 Q105.367 1012.08 103.538 1015.65 Q101.733 1019.19 101.733 1026.32 Q101.733 1033.43 103.538 1036.99 Q105.367 1040.53 108.978 1040.53 Q112.612 1040.53 114.418 1036.99 Q116.246 1033.43 116.246 1026.32 Q116.246 1019.19 114.418 1015.65 Q112.612 1012.08 108.978 1012.08 M108.978 1008.38 Q114.788 1008.38 117.844 1012.99 Q120.922 1017.57 120.922 1026.32 Q120.922 1035.05 117.844 1039.65 Q114.788 1044.24 108.978 1044.24 Q103.168 1044.24 100.089 1039.65 Q97.0335 1035.05 97.0335 1026.32 Q97.0335 1017.57 100.089 1012.99 Q103.168 1008.38 108.978 1008.38 Z" fill="#000000" fill-rule="nonzero" fill-opacity="1" /><path clip-path="url(#clip470)" d="M157.311 1018.1 L146.732 1028.73 L157.311 1039.3 L154.556 1042.11 L143.931 1031.48 L133.306 1042.11 L130.575 1039.3 L141.131 1028.73 L130.575 1018.1 L133.306 1015.3 L143.931 1025.93 L154.556 1015.3 L157.311 1018.1 Z" fill="#000000" fill-rule="nonzero" fill-opacity="1" /><path clip-path="url(#clip470)" d="M169.672 1039.63 L177.311 1039.63 L177.311 1013.26 L169.001 1014.93 L169.001 1010.67 L177.265 1009 L181.94 1009 L181.94 1039.63 L189.579 1039.63 L189.579 1043.56 L169.672 1043.56 L169.672 1039.63 Z" fill="#000000" fill-rule="nonzero" fill-opacity="1" /><path clip-path="url(#clip470)" d="M209.024 1012.08 Q205.413 1012.08 203.584 1015.65 Q201.778 1019.19 201.778 1026.32 Q201.778 1033.43 203.584 1036.99 Q205.413 1040.53 209.024 1040.53 Q212.658 1040.53 214.463 1036.99 Q216.292 1033.43 216.292 1026.32 Q216.292 1019.19 214.463 1015.65 Q212.658 1012.08 209.024 1012.08 M209.024 1008.38 Q214.834 1008.38 217.889 1012.99 Q220.968 1017.57 220.968 1026.32 Q220.968 1035.05 217.889 1039.65 Q214.834 1044.24 209.024 1044.24 Q203.214 1044.24 200.135 1039.65 Q197.079 1035.05 197.079 1026.32 Q197.079 1017.57 200.135 1012.99 Q203.214 1008.38 209.024 1008.38 Z" fill="#000000" fill-rule="nonzero" fill-opacity="1" /><path clip-path="url(#clip470)" d="M230.598 1002.82 Q227.889 1002.82 226.328 1004.27 Q224.786 1005.72 224.786 1008.25 Q224.786 1010.79 226.328 1012.24 Q227.889 1013.69 230.598 1013.69 Q233.306 1013.69 234.867 1012.24 Q236.428 1010.77 236.428 1008.25 Q236.428 1005.72 234.867 1004.27 Q233.325 1002.82 230.598 1002.82 M226.798 1001.2 Q224.353 1000.6 222.98 998.926 Q221.626 997.252 221.626 994.844 Q221.626 991.478 224.015 989.522 Q226.422 987.566 230.598 987.566 Q234.792 987.566 237.18 989.522 Q239.569 991.478 239.569 994.844 Q239.569 997.252 238.196 998.926 Q236.842 1000.6 234.416 1001.2 Q237.162 1001.84 238.685 1003.7 Q240.227 1005.56 240.227 1008.25 Q240.227 1012.34 237.726 1014.52 Q235.243 1016.7 230.598 1016.7 Q225.952 1016.7 223.451 1014.52 Q220.968 1012.34 220.968 1008.25 Q220.968 1005.56 222.51 1003.7 Q224.053 1001.84 226.798 1001.2 M225.407 995.202 Q225.407 997.383 226.761 998.606 Q228.134 999.828 230.598 999.828 Q233.043 999.828 234.416 998.606 Q235.807 997.383 235.807 995.202 Q235.807 993.02 234.416 991.798 Q233.043 990.575 230.598 990.575 Q228.134 990.575 226.761 991.798 Q225.407 993.02 225.407 995.202 Z" fill="#000000" fill-rule="nonzero" fill-opacity="1" /><path clip-path="url(#clip470)" d="M67.9133 811.99 Q71.2698 812.708 73.1448 814.976 Q75.0429 817.245 75.0429 820.578 Q75.0429 825.694 71.5244 828.495 Q68.0059 831.296 61.5245 831.296 Q59.3486 831.296 57.0338 830.856 Q54.7421 830.439 52.2884 829.583 L52.2884 825.069 Q54.2328 826.203 56.5477 826.782 Q58.8625 827.361 61.3856 827.361 Q65.7837 827.361 68.0754 825.624 Q70.3902 823.888 70.3902 820.578 Q70.3902 817.523 68.2374 815.81 Q66.1078 814.074 62.2884 814.074 L58.2606 814.074 L58.2606 810.231 L62.4735 810.231 Q65.9226 810.231 67.7513 808.865 Q69.58 807.476 69.58 804.884 Q69.58 802.222 67.6819 800.81 Q65.8069 799.375 62.2884 799.375 Q60.3671 799.375 58.168 799.791 Q55.969 800.208 53.3301 801.088 L53.3301 796.921 Q55.9921 796.18 58.3069 795.81 Q60.6449 795.439 62.705 795.439 Q68.0291 795.439 71.1309 797.87 Q74.2327 800.277 74.2327 804.398 Q74.2327 807.268 72.5892 809.259 Q70.9457 811.226 67.9133 811.99 Z" fill="#000000" fill-rule="nonzero" fill-opacity="1" /><path clip-path="url(#clip470)" d="M83.9086 824.745 L88.7928 824.745 L88.7928 830.624 L83.9086 830.624 L83.9086 824.745 Z" fill="#000000" fill-rule="nonzero" fill-opacity="1" /><path clip-path="url(#clip470)" d="M108.978 799.143 Q105.367 799.143 103.538 802.708 Q101.733 806.25 101.733 813.379 Q101.733 820.486 103.538 824.05 Q105.367 827.592 108.978 827.592 Q112.612 827.592 114.418 824.05 Q116.246 820.486 116.246 813.379 Q116.246 806.25 114.418 802.708 Q112.612 799.143 108.978 799.143 M108.978 795.439 Q114.788 795.439 117.844 800.046 Q120.922 804.629 120.922 813.379 Q120.922 822.106 117.844 826.712 Q114.788 831.296 108.978 831.296 Q103.168 831.296 100.089 826.712 Q97.0335 822.106 97.0335 813.379 Q97.0335 804.629 100.089 800.046 Q103.168 795.439 108.978 795.439 Z" fill="#000000" fill-rule="nonzero" fill-opacity="1" /><path clip-path="url(#clip470)" d="M157.311 805.162 L146.732 815.787 L157.311 826.365 L154.556 829.166 L143.931 818.541 L133.306 829.166 L130.575 826.365 L141.131 815.787 L130.575 805.162 L133.306 802.361 L143.931 812.986 L154.556 802.361 L157.311 805.162 Z" fill="#000000" fill-rule="nonzero" fill-opacity="1" /><path clip-path="url(#clip470)" d="M169.672 826.689 L177.311 826.689 L177.311 800.324 L169.001 801.99 L169.001 797.731 L177.265 796.064 L181.94 796.064 L181.94 826.689 L189.579 826.689 L189.579 830.624 L169.672 830.624 L169.672 826.689 Z" fill="#000000" fill-rule="nonzero" fill-opacity="1" /><path clip-path="url(#clip470)" d="M209.024 799.143 Q205.413 799.143 203.584 802.708 Q201.778 806.25 201.778 813.379 Q201.778 820.486 203.584 824.05 Q205.413 827.592 209.024 827.592 Q212.658 827.592 214.463 824.05 Q216.292 820.486 216.292 813.379 Q216.292 806.25 214.463 802.708 Q212.658 799.143 209.024 799.143 M209.024 795.439 Q214.834 795.439 217.889 800.046 Q220.968 804.629 220.968 813.379 Q220.968 822.106 217.889 826.712 Q214.834 831.296 209.024 831.296 Q203.214 831.296 200.135 826.712 Q197.079 822.106 197.079 813.379 Q197.079 804.629 200.135 800.046 Q203.214 795.439 209.024 795.439 Z" fill="#000000" fill-rule="nonzero" fill-opacity="1" /><path clip-path="url(#clip470)" d="M230.598 789.879 Q227.889 789.879 226.328 791.327 Q224.786 792.776 224.786 795.315 Q224.786 797.854 226.328 799.302 Q227.889 800.75 230.598 800.75 Q233.306 800.75 234.867 799.302 Q236.428 797.835 236.428 795.315 Q236.428 792.776 234.867 791.327 Q233.325 789.879 230.598 789.879 M226.798 788.262 Q224.353 787.66 222.98 785.986 Q221.626 784.312 221.626 781.905 Q221.626 778.538 224.015 776.582 Q226.422 774.626 230.598 774.626 Q234.792 774.626 237.18 776.582 Q239.569 778.538 239.569 781.905 Q239.569 784.312 238.196 785.986 Q236.842 787.66 234.416 788.262 Q237.162 788.901 238.685 790.763 Q240.227 792.625 240.227 795.315 Q240.227 799.396 237.726 801.578 Q235.243 803.759 230.598 803.759 Q225.952 803.759 223.451 801.578 Q220.968 799.396 220.968 795.315 Q220.968 792.625 222.51 790.763 Q224.053 788.901 226.798 788.262 M225.407 782.262 Q225.407 784.444 226.761 785.666 Q228.134 786.889 230.598 786.889 Q233.043 786.889 234.416 785.666 Q235.807 784.444 235.807 782.262 Q235.807 780.08 234.416 778.858 Q233.043 777.635 230.598 777.635 Q228.134 777.635 226.761 778.858 Q225.407 780.08 225.407 782.262 Z" fill="#000000" fill-rule="nonzero" fill-opacity="1" /><path clip-path="url(#clip470)" d="M66.5939 587.199 L54.7884 605.648 L66.5939 605.648 L66.5939 587.199 M65.367 583.125 L71.2466 583.125 L71.2466 605.648 L76.1772 605.648 L76.1772 609.537 L71.2466 609.537 L71.2466 617.685 L66.5939 617.685 L66.5939 609.537 L50.9921 609.537 L50.9921 605.023 L65.367 583.125 Z" fill="#000000" fill-rule="nonzero" fill-opacity="1" /><path clip-path="url(#clip470)" d="M83.9086 611.805 L88.7928 611.805 L88.7928 617.685 L83.9086 617.685 L83.9086 611.805 Z" fill="#000000" fill-rule="nonzero" fill-opacity="1" /><path clip-path="url(#clip470)" d="M108.978 586.203 Q105.367 586.203 103.538 589.768 Q101.733 593.31 101.733 600.439 Q101.733 607.546 103.538 611.111 Q105.367 614.652 108.978 614.652 Q112.612 614.652 114.418 611.111 Q116.246 607.546 116.246 600.439 Q116.246 593.31 114.418 589.768 Q112.612 586.203 108.978 586.203 M108.978 582.5 Q114.788 582.5 117.844 587.106 Q120.922 591.69 120.922 600.439 Q120.922 609.166 117.844 613.773 Q114.788 618.356 108.978 618.356 Q103.168 618.356 100.089 613.773 Q97.0335 609.166 97.0335 600.439 Q97.0335 591.69 100.089 587.106 Q103.168 582.5 108.978 582.5 Z" fill="#000000" fill-rule="nonzero" fill-opacity="1" /><path clip-path="url(#clip470)" d="M157.311 592.222 L146.732 602.847 L157.311 613.426 L154.556 616.226 L143.931 605.602 L133.306 616.226 L130.575 613.426 L141.131 602.847 L130.575 592.222 L133.306 589.421 L143.931 600.046 L154.556 589.421 L157.311 592.222 Z" fill="#000000" fill-rule="nonzero" fill-opacity="1" /><path clip-path="url(#clip470)" d="M169.672 613.75 L177.311 613.75 L177.311 587.384 L169.001 589.051 L169.001 584.791 L177.265 583.125 L181.94 583.125 L181.94 613.75 L189.579 613.75 L189.579 617.685 L169.672 617.685 L169.672 613.75 Z" fill="#000000" fill-rule="nonzero" fill-opacity="1" /><path clip-path="url(#clip470)" d="M209.024 586.203 Q205.413 586.203 203.584 589.768 Q201.778 593.31 201.778 600.439 Q201.778 607.546 203.584 611.111 Q205.413 614.652 209.024 614.652 Q212.658 614.652 214.463 611.111 Q216.292 607.546 216.292 600.439 Q216.292 593.31 214.463 589.768 Q212.658 586.203 209.024 586.203 M209.024 582.5 Q214.834 582.5 217.889 587.106 Q220.968 591.69 220.968 600.439 Q220.968 609.166 217.889 613.773 Q214.834 618.356 209.024 618.356 Q203.214 618.356 200.135 613.773 Q197.079 609.166 197.079 600.439 Q197.079 591.69 200.135 587.106 Q203.214 582.5 209.024 582.5 Z" fill="#000000" fill-rule="nonzero" fill-opacity="1" /><path clip-path="url(#clip470)" d="M230.598 576.94 Q227.889 576.94 226.328 578.388 Q224.786 579.836 224.786 582.375 Q224.786 584.914 226.328 586.362 Q227.889 587.811 230.598 587.811 Q233.306 587.811 234.867 586.362 Q236.428 584.895 236.428 582.375 Q236.428 579.836 234.867 578.388 Q233.325 576.94 230.598 576.94 M226.798 575.322 Q224.353 574.72 222.98 573.046 Q221.626 571.373 221.626 568.965 Q221.626 565.599 224.015 563.643 Q226.422 561.687 230.598 561.687 Q234.792 561.687 237.18 563.643 Q239.569 565.599 239.569 568.965 Q239.569 571.373 238.196 573.046 Q236.842 574.72 234.416 575.322 Q237.162 575.962 238.685 577.824 Q240.227 579.686 240.227 582.375 Q240.227 586.456 237.726 588.638 Q235.243 590.82 230.598 590.82 Q225.952 590.82 223.451 588.638 Q220.968 586.456 220.968 582.375 Q220.968 579.686 222.51 577.824 Q224.053 575.962 226.798 575.322 M225.407 569.323 Q225.407 571.504 226.761 572.727 Q228.134 573.949 230.598 573.949 Q233.043 573.949 234.416 572.727 Q235.807 571.504 235.807 569.323 Q235.807 567.141 234.416 565.918 Q233.043 564.696 230.598 564.696 Q228.134 564.696 226.761 565.918 Q225.407 567.141 225.407 569.323 Z" fill="#000000" fill-rule="nonzero" fill-opacity="1" /><path clip-path="url(#clip470)" d="M53.793 370.185 L72.1494 370.185 L72.1494 374.12 L58.0754 374.12 L58.0754 382.592 Q59.0939 382.245 60.1124 382.083 Q61.131 381.898 62.1495 381.898 Q67.9365 381.898 71.3161 385.069 Q74.6957 388.241 74.6957 393.657 Q74.6957 399.236 71.2235 402.338 Q67.7513 405.416 61.4319 405.416 Q59.256 405.416 56.9875 405.046 Q54.7421 404.676 52.3347 403.935 L52.3347 399.236 Q54.418 400.37 56.6402 400.926 Q58.8625 401.481 61.3393 401.481 Q65.3439 401.481 67.6819 399.375 Q70.0198 397.268 70.0198 393.657 Q70.0198 390.046 67.6819 387.94 Q65.3439 385.833 61.3393 385.833 Q59.4643 385.833 57.5893 386.25 Q55.7375 386.667 53.793 387.546 L53.793 370.185 Z" fill="#000000" fill-rule="nonzero" fill-opacity="1" /><path clip-path="url(#clip470)" d="M83.9086 398.866 L88.7928 398.866 L88.7928 404.745 L83.9086 404.745 L83.9086 398.866 Z" fill="#000000" fill-rule="nonzero" fill-opacity="1" /><path clip-path="url(#clip470)" d="M108.978 373.264 Q105.367 373.264 103.538 376.829 Q101.733 380.37 101.733 387.5 Q101.733 394.606 103.538 398.171 Q105.367 401.713 108.978 401.713 Q112.612 401.713 114.418 398.171 Q116.246 394.606 116.246 387.5 Q116.246 380.37 114.418 376.829 Q112.612 373.264 108.978 373.264 M108.978 369.56 Q114.788 369.56 117.844 374.167 Q120.922 378.75 120.922 387.5 Q120.922 396.227 117.844 400.833 Q114.788 405.416 108.978 405.416 Q103.168 405.416 100.089 400.833 Q97.0335 396.227 97.0335 387.5 Q97.0335 378.75 100.089 374.167 Q103.168 369.56 108.978 369.56 Z" fill="#000000" fill-rule="nonzero" fill-opacity="1" /><path clip-path="url(#clip470)" d="M157.311 379.282 L146.732 389.907 L157.311 400.486 L154.556 403.287 L143.931 392.662 L133.306 403.287 L130.575 400.486 L141.131 389.907 L130.575 379.282 L133.306 376.481 L143.931 387.106 L154.556 376.481 L157.311 379.282 Z" fill="#000000" fill-rule="nonzero" fill-opacity="1" /><path clip-path="url(#clip470)" d="M169.672 400.81 L177.311 400.81 L177.311 374.444 L169.001 376.111 L169.001 371.852 L177.265 370.185 L181.94 370.185 L181.94 400.81 L189.579 400.81 L189.579 404.745 L169.672 404.745 L169.672 400.81 Z" fill="#000000" fill-rule="nonzero" fill-opacity="1" /><path clip-path="url(#clip470)" d="M209.024 373.264 Q205.413 373.264 203.584 376.829 Q201.778 380.37 201.778 387.5 Q201.778 394.606 203.584 398.171 Q205.413 401.713 209.024 401.713 Q212.658 401.713 214.463 398.171 Q216.292 394.606 216.292 387.5 Q216.292 380.37 214.463 376.829 Q212.658 373.264 209.024 373.264 M209.024 369.56 Q214.834 369.56 217.889 374.167 Q220.968 378.75 220.968 387.5 Q220.968 396.227 217.889 400.833 Q214.834 405.416 209.024 405.416 Q203.214 405.416 200.135 400.833 Q197.079 396.227 197.079 387.5 Q197.079 378.75 200.135 374.167 Q203.214 369.56 209.024 369.56 Z" fill="#000000" fill-rule="nonzero" fill-opacity="1" /><path clip-path="url(#clip470)" d="M230.598 364 Q227.889 364 226.328 365.448 Q224.786 366.896 224.786 369.435 Q224.786 371.975 226.328 373.423 Q227.889 374.871 230.598 374.871 Q233.306 374.871 234.867 373.423 Q236.428 371.956 236.428 369.435 Q236.428 366.896 234.867 365.448 Q233.325 364 230.598 364 M226.798 362.383 Q224.353 361.781 222.98 360.107 Q221.626 358.433 221.626 356.026 Q221.626 352.659 224.015 350.703 Q226.422 348.747 230.598 348.747 Q234.792 348.747 237.18 350.703 Q239.569 352.659 239.569 356.026 Q239.569 358.433 238.196 360.107 Q236.842 361.781 234.416 362.383 Q237.162 363.022 238.685 364.884 Q240.227 366.746 240.227 369.435 Q240.227 373.517 237.726 375.698 Q235.243 377.88 230.598 377.88 Q225.952 377.88 223.451 375.698 Q220.968 373.517 220.968 369.435 Q220.968 366.746 222.51 364.884 Q224.053 363.022 226.798 362.383 M225.407 356.383 Q225.407 358.565 226.761 359.787 Q228.134 361.01 230.598 361.01 Q233.043 361.01 234.416 359.787 Q235.807 358.565 235.807 356.383 Q235.807 354.201 234.416 352.979 Q233.043 351.756 230.598 351.756 Q228.134 351.756 226.761 352.979 Q225.407 354.201 225.407 356.383 Z" fill="#000000" fill-rule="nonzero" fill-opacity="1" /><path clip-path="url(#clip470)" d="M64.3254 172.662 Q61.1773 172.662 59.3254 174.815 Q57.4967 176.968 57.4967 180.718 Q57.4967 184.444 59.3254 186.62 Q61.1773 188.773 64.3254 188.773 Q67.4735 188.773 69.3022 186.62 Q71.1541 184.444 71.1541 180.718 Q71.1541 176.968 69.3022 174.815 Q67.4735 172.662 64.3254 172.662 M73.6077 158.009 L73.6077 162.269 Q71.8485 161.435 70.0429 160.995 Q68.2606 160.556 66.5013 160.556 Q61.8717 160.556 59.418 163.681 Q56.9875 166.806 56.6402 173.125 Q58.006 171.111 60.0662 170.046 Q62.1263 168.958 64.6032 168.958 Q69.8115 168.958 72.8207 172.13 Q75.8531 175.278 75.8531 180.718 Q75.8531 186.042 72.705 189.259 Q69.5568 192.477 64.3254 192.477 Q58.33 192.477 55.1588 187.894 Q51.9875 183.287 51.9875 174.56 Q51.9875 166.366 55.8764 161.505 Q59.7652 156.621 66.3161 156.621 Q68.0754 156.621 69.8578 156.968 Q71.6633 157.315 73.6077 158.009 Z" fill="#000000" fill-rule="nonzero" fill-opacity="1" /><path clip-path="url(#clip470)" d="M83.9086 185.926 L88.7928 185.926 L88.7928 191.806 L83.9086 191.806 L83.9086 185.926 Z" fill="#000000" fill-rule="nonzero" fill-opacity="1" /><path clip-path="url(#clip470)" d="M108.978 160.324 Q105.367 160.324 103.538 163.889 Q101.733 167.431 101.733 174.56 Q101.733 181.667 103.538 185.231 Q105.367 188.773 108.978 188.773 Q112.612 188.773 114.418 185.231 Q116.246 181.667 116.246 174.56 Q116.246 167.431 114.418 163.889 Q112.612 160.324 108.978 160.324 M108.978 156.621 Q114.788 156.621 117.844 161.227 Q120.922 165.81 120.922 174.56 Q120.922 183.287 117.844 187.894 Q114.788 192.477 108.978 192.477 Q103.168 192.477 100.089 187.894 Q97.0335 183.287 97.0335 174.56 Q97.0335 165.81 100.089 161.227 Q103.168 156.621 108.978 156.621 Z" fill="#000000" fill-rule="nonzero" fill-opacity="1" /><path clip-path="url(#clip470)" d="M157.311 166.343 L146.732 176.968 L157.311 187.546 L154.556 190.347 L143.931 179.722 L133.306 190.347 L130.575 187.546 L141.131 176.968 L130.575 166.343 L133.306 163.542 L143.931 174.167 L154.556 163.542 L157.311 166.343 Z" fill="#000000" fill-rule="nonzero" fill-opacity="1" /><path clip-path="url(#clip470)" d="M169.672 187.87 L177.311 187.87 L177.311 161.505 L169.001 163.171 L169.001 158.912 L177.265 157.246 L181.94 157.246 L181.94 187.87 L189.579 187.87 L189.579 191.806 L169.672 191.806 L169.672 187.87 Z" fill="#000000" fill-rule="nonzero" fill-opacity="1" /><path clip-path="url(#clip470)" d="M209.024 160.324 Q205.413 160.324 203.584 163.889 Q201.778 167.431 201.778 174.56 Q201.778 181.667 203.584 185.231 Q205.413 188.773 209.024 188.773 Q212.658 188.773 214.463 185.231 Q216.292 181.667 216.292 174.56 Q216.292 167.431 214.463 163.889 Q212.658 160.324 209.024 160.324 M209.024 156.621 Q214.834 156.621 217.889 161.227 Q220.968 165.81 220.968 174.56 Q220.968 183.287 217.889 187.894 Q214.834 192.477 209.024 192.477 Q203.214 192.477 200.135 187.894 Q197.079 183.287 197.079 174.56 Q197.079 165.81 200.135 161.227 Q203.214 156.621 209.024 156.621 Z" fill="#000000" fill-rule="nonzero" fill-opacity="1" /><path clip-path="url(#clip470)" d="M230.598 151.06 Q227.889 151.06 226.328 152.509 Q224.786 153.957 224.786 156.496 Q224.786 159.035 226.328 160.483 Q227.889 161.931 230.598 161.931 Q233.306 161.931 234.867 160.483 Q236.428 159.016 236.428 156.496 Q236.428 153.957 234.867 152.509 Q233.325 151.06 230.598 151.06 M226.798 149.443 Q224.353 148.841 222.98 147.167 Q221.626 145.493 221.626 143.086 Q221.626 139.719 224.015 137.763 Q226.422 135.807 230.598 135.807 Q234.792 135.807 237.18 137.763 Q239.569 139.719 239.569 143.086 Q239.569 145.493 238.196 147.167 Q236.842 148.841 234.416 149.443 Q237.162 150.082 238.685 151.944 Q240.227 153.806 240.227 156.496 Q240.227 160.577 237.726 162.759 Q235.243 164.941 230.598 164.941 Q225.952 164.941 223.451 162.759 Q220.968 160.577 220.968 156.496 Q220.968 153.806 222.51 151.944 Q224.053 150.082 226.798 149.443 M225.407 143.443 Q225.407 145.625 226.761 146.847 Q228.134 148.07 230.598 148.07 Q233.043 148.07 234.416 146.847 Q235.807 145.625 235.807 143.443 Q235.807 141.262 234.416 140.039 Q233.043 138.817 230.598 138.817 Q228.134 138.817 226.761 140.039 Q225.407 141.262 225.407 143.443 Z" fill="#000000" fill-rule="nonzero" fill-opacity="1" /><path clip-path="url(#clip472)" d="M390.44 87.9763 L390.44 745.354 L869.578 745.354 L869.578 87.9763 L390.44 87.9763 L390.44 87.9763  Z" fill="#009af9" fill-rule="evenodd" fill-opacity="1"/>
<polyline clip-path="url(#clip472)" style="stroke:#000000; stroke-linecap:round; stroke-linejoin:round; stroke-width:4; stroke-opacity:1; fill:none" points="390.44,87.9763 390.44,745.354 869.578,745.354 869.578,87.9763 390.44,87.9763 "/>
<path clip-path="url(#clip472)" d="M1074.92 1068.1 L1074.92 1286.31 L1554.06 1286.31 L1554.06 1068.1 L1074.92 1068.1 L1074.92 1068.1  Z" fill="#009af9" fill-rule="evenodd" fill-opacity="1"/>
<polyline clip-path="url(#clip472)" style="stroke:#000000; stroke-linecap:round; stroke-linejoin:round; stroke-width:4; stroke-opacity:1; fill:none" points="1074.92,1068.1 1074.92,1286.31 1554.06,1286.31 1554.06,1068.1 1074.92,1068.1 "/>
<path clip-path="url(#clip472)" d="M1759.41 1352.86 L1759.41 1406.69 L2238.54 1406.69 L2238.54 1352.86 L1759.41 1352.86 L1759.41 1352.86  Z" fill="#009af9" fill-rule="evenodd" fill-opacity="1"/>
<polyline clip-path="url(#clip472)" style="stroke:#000000; stroke-linecap:round; stroke-linejoin:round; stroke-width:4; stroke-opacity:1; fill:none" points="1759.41,1352.86 1759.41,1406.69 2238.54,1406.69 2238.54,1352.86 1759.41,1352.86 "/>
<circle clip-path="url(#clip472)" style="fill:#009af9; stroke:none; fill-opacity:0" cx="630.009" cy="87.9763" r="2"/>
<circle clip-path="url(#clip472)" style="fill:#009af9; stroke:none; fill-opacity:0" cx="1314.49" cy="1068.1" r="2"/>
<circle clip-path="url(#clip472)" style="fill:#009af9; stroke:none; fill-opacity:0" cx="1998.97" cy="1352.86" r="2"/>
<path clip-path="url(#clip472)" d="M390.44 745.354 L390.44 935.259 L869.578 935.259 L869.578 745.354 L390.44 745.354 L390.44 745.354  Z" fill="#e26f46" fill-rule="evenodd" fill-opacity="1"/>
<polyline clip-path="url(#clip472)" style="stroke:#000000; stroke-linecap:round; stroke-linejoin:round; stroke-width:4; stroke-opacity:1; fill:none" points="390.44,745.354 390.44,935.259 869.578,935.259 869.578,745.354 390.44,745.354 "/>
<path clip-path="url(#clip472)" d="M1074.92 1286.31 L1074.92 1286.31 L1554.06 1286.31 L1554.06 1286.31 L1074.92 1286.31 L1074.92 1286.31  Z" fill="#e26f46" fill-rule="evenodd" fill-opacity="1"/>
<polyline clip-path="url(#clip472)" style="stroke:#000000; stroke-linecap:round; stroke-linejoin:round; stroke-width:4; stroke-opacity:1; fill:none" points="1074.92,1286.31 1074.92,1286.31 1554.06,1286.31 1074.92,1286.31 "/>
<path clip-path="url(#clip472)" d="M1759.41 1406.69 L1759.41 1411.7 L2238.54 1411.7 L2238.54 1406.69 L1759.41 1406.69 L1759.41 1406.69  Z" fill="#e26f46" fill-rule="evenodd" fill-opacity="1"/>
<polyline clip-path="url(#clip472)" style="stroke:#000000; stroke-linecap:round; stroke-linejoin:round; stroke-width:4; stroke-opacity:1; fill:none" points="1759.41,1406.69 1759.41,1411.7 2238.54,1411.7 2238.54,1406.69 1759.41,1406.69 "/>
<circle clip-path="url(#clip472)" style="fill:#e26f46; stroke:none; fill-opacity:0" cx="630.009" cy="745.354" r="2"/>
<circle clip-path="url(#clip472)" style="fill:#e26f46; stroke:none; fill-opacity:0" cx="1314.49" cy="1286.31" r="2"/>
<circle clip-path="url(#clip472)" style="fill:#e26f46; stroke:none; fill-opacity:0" cx="1998.97" cy="1406.69" r="2"/>
<path clip-path="url(#clip472)" d="M390.44 935.259 L390.44 1445.72 L869.578 1445.72 L869.578 935.259 L390.44 935.259 L390.44 935.259  Z" fill="#3da44d" fill-rule="evenodd" fill-opacity="1"/>
<polyline clip-path="url(#clip472)" style="stroke:#000000; stroke-linecap:round; stroke-linejoin:round; stroke-width:4; stroke-opacity:1; fill:none" points="390.44,935.259 390.44,1445.72 869.578,1445.72 869.578,935.259 390.44,935.259 "/>
<path clip-path="url(#clip472)" d="M1074.92 1286.31 L1074.92 1307.3 L1554.06 1307.3 L1554.06 1286.31 L1074.92 1286.31 L1074.92 1286.31  Z" fill="#3da44d" fill-rule="evenodd" fill-opacity="1"/>
<polyline clip-path="url(#clip472)" style="stroke:#000000; stroke-linecap:round; stroke-linejoin:round; stroke-width:4; stroke-opacity:1; fill:none" points="1074.92,1286.31 1074.92,1307.3 1554.06,1307.3 1554.06,1286.31 1074.92,1286.31 "/>
<path clip-path="url(#clip472)" d="M1759.41 1411.7 L1759.41 1445.72 L2238.54 1445.72 L2238.54 1411.7 L1759.41 1411.7 L1759.41 1411.7  Z" fill="#3da44d" fill-rule="evenodd" fill-opacity="1"/>
<polyline clip-path="url(#clip472)" style="stroke:#000000; stroke-linecap:round; stroke-linejoin:round; stroke-width:4; stroke-opacity:1; fill:none" points="1759.41,1411.7 1759.41,1445.72 2238.54,1445.72 2238.54,1411.7 1759.41,1411.7 "/>
<circle clip-path="url(#clip472)" style="fill:#3da44d; stroke:none; fill-opacity:0" cx="630.009" cy="935.259" r="2"/>
<circle clip-path="url(#clip472)" style="fill:#3da44d; stroke:none; fill-opacity:0" cx="1314.49" cy="1286.31" r="2"/>
<circle clip-path="url(#clip472)" style="fill:#3da44d; stroke:none; fill-opacity:0" cx="1998.97" cy="1411.7" r="2"/>
<path clip-path="url(#clip472)" d="M390.44 1445.72 L390.44 1445.72 L869.578 1445.72 L869.578 1445.72 L390.44 1445.72 L390.44 1445.72  Z" fill="#c271d2" fill-rule="evenodd" fill-opacity="1"/>
<polyline clip-path="url(#clip472)" style="stroke:#000000; stroke-linecap:round; stroke-linejoin:round; stroke-width:4; stroke-opacity:1; fill:none" points="390.44,1445.72 390.44,1445.72 869.578,1445.72 390.44,1445.72 "/>
<path clip-path="url(#clip472)" d="M1074.92 1307.3 L1074.92 1445.72 L1554.06 1445.72 L1554.06 1307.3 L1074.92 1307.3 L1074.92 1307.3  Z" fill="#c271d2" fill-rule="evenodd" fill-opacity="1"/>
<polyline clip-path="url(#clip472)" style="stroke:#000000; stroke-linecap:round; stroke-linejoin:round; stroke-width:4; stroke-opacity:1; fill:none" points="1074.92,1307.3 1074.92,1445.72 1554.06,1445.72 1554.06,1307.3 1074.92,1307.3 "/>
<path clip-path="url(#clip472)" d="M1759.41 1445.72 L1759.41 1445.72 L2238.54 1445.72 L2238.54 1445.72 L1759.41 1445.72 L1759.41 1445.72  Z" fill="#c271d2" fill-rule="evenodd" fill-opacity="1"/>
<polyline clip-path="url(#clip472)" style="stroke:#000000; stroke-linecap:round; stroke-linejoin:round; stroke-width:4; stroke-opacity:1; fill:none" points="1759.41,1445.72 1759.41,1445.72 2238.54,1445.72 1759.41,1445.72 "/>
<circle clip-path="url(#clip472)" style="fill:#c271d2; stroke:none; fill-opacity:0" cx="630.009" cy="1445.72" r="2"/>
<circle clip-path="url(#clip472)" style="fill:#c271d2; stroke:none; fill-opacity:0" cx="1314.49" cy="1307.3" r="2"/>
<circle clip-path="url(#clip472)" style="fill:#c271d2; stroke:none; fill-opacity:0" cx="1998.97" cy="1445.72" r="2"/>
<path clip-path="url(#clip470)" d="M1941.88 354.418 L2283.54 354.418 L2283.54 95.2176 L1941.88 95.2176  Z" fill="#ffffff" fill-rule="evenodd" fill-opacity="1"/>
<polyline clip-path="url(#clip470)" style="stroke:#000000; stroke-linecap:round; stroke-linejoin:round; stroke-width:4; stroke-opacity:1; fill:none" points="1941.88,354.418 2283.54,354.418 2283.54,95.2176 1941.88,95.2176 1941.88,354.418 "/>
<path clip-path="url(#clip470)" d="M1964.95 167.794 L2103.39 167.794 L2103.39 126.322 L1964.95 126.322 L1964.95 167.794  Z" fill="#009af9" fill-rule="evenodd" fill-opacity="1"/>
<polyline clip-path="url(#clip470)" style="stroke:#000000; stroke-linecap:round; stroke-linejoin:round; stroke-width:4; stroke-opacity:1; fill:none" points="1964.95,167.794 2103.39,167.794 2103.39,126.322 1964.95,126.322 1964.95,167.794 "/>
<path clip-path="url(#clip470)" d="M2126.46 129.778 L2131.18 129.778 L2138.45 158.99 L2145.7 129.778 L2150.95 129.778 L2158.22 158.99 L2165.47 129.778 L2170.21 129.778 L2161.53 164.338 L2155.65 164.338 L2148.36 134.338 L2141 164.338 L2135.12 164.338 L2126.46 129.778 Z" fill="#000000" fill-rule="nonzero" fill-opacity="1" /><path clip-path="url(#clip470)" d="M2175.19 138.412 L2179.45 138.412 L2179.45 164.338 L2175.19 164.338 L2175.19 138.412 M2175.19 128.319 L2179.45 128.319 L2179.45 133.713 L2175.19 133.713 L2175.19 128.319 Z" fill="#000000" fill-rule="nonzero" fill-opacity="1" /><path clip-path="url(#clip470)" d="M2209.91 148.689 L2209.91 164.338 L2205.65 164.338 L2205.65 148.828 Q2205.65 145.148 2204.22 143.319 Q2202.78 141.49 2199.91 141.49 Q2196.46 141.49 2194.47 143.69 Q2192.48 145.889 2192.48 149.685 L2192.48 164.338 L2188.2 164.338 L2188.2 138.412 L2192.48 138.412 L2192.48 142.44 Q2194.01 140.102 2196.07 138.944 Q2198.15 137.787 2200.86 137.787 Q2205.33 137.787 2207.62 140.565 Q2209.91 143.319 2209.91 148.689 Z" fill="#000000" fill-rule="nonzero" fill-opacity="1" /><path clip-path="url(#clip470)" d="M2235.47 142.347 L2235.47 128.319 L2239.73 128.319 L2239.73 164.338 L2235.47 164.338 L2235.47 160.449 Q2234.12 162.763 2232.06 163.898 Q2230.03 165.009 2227.16 165.009 Q2222.46 165.009 2219.49 161.259 Q2216.55 157.509 2216.55 151.398 Q2216.55 145.287 2219.49 141.537 Q2222.46 137.787 2227.16 137.787 Q2230.03 137.787 2232.06 138.921 Q2234.12 140.032 2235.47 142.347 M2220.95 151.398 Q2220.95 156.097 2222.87 158.782 Q2224.82 161.444 2228.2 161.444 Q2231.58 161.444 2233.52 158.782 Q2235.47 156.097 2235.47 151.398 Q2235.47 146.699 2233.52 144.037 Q2231.58 141.352 2228.2 141.352 Q2224.82 141.352 2222.87 144.037 Q2220.95 146.699 2220.95 151.398 Z" fill="#000000" fill-rule="nonzero" fill-opacity="1" /><path clip-path="url(#clip470)" d="M1964.95 219.634 L2103.39 219.634 L2103.39 178.162 L1964.95 178.162 L1964.95 219.634  Z" fill="#e26f46" fill-rule="evenodd" fill-opacity="1"/>
<polyline clip-path="url(#clip470)" style="stroke:#000000; stroke-linecap:round; stroke-linejoin:round; stroke-width:4; stroke-opacity:1; fill:none" points="1964.95,219.634 2103.39,219.634 2103.39,178.162 1964.95,178.162 1964.95,219.634 "/>
<path clip-path="url(#clip470)" d="M2131.14 185.46 L2131.14 198.446 L2137.02 198.446 Q2140.28 198.446 2142.06 196.756 Q2143.85 195.067 2143.85 191.942 Q2143.85 188.84 2142.06 187.15 Q2140.28 185.46 2137.02 185.46 L2131.14 185.46 M2126.46 181.618 L2137.02 181.618 Q2142.83 181.618 2145.79 184.256 Q2148.78 186.872 2148.78 191.942 Q2148.78 197.057 2145.79 199.673 Q2142.83 202.289 2137.02 202.289 L2131.14 202.289 L2131.14 216.178 L2126.46 216.178 L2126.46 181.618 Z" fill="#000000" fill-rule="nonzero" fill-opacity="1" /><path clip-path="url(#clip470)" d="M2163.96 216.178 L2150.77 181.618 L2155.65 181.618 L2166.6 210.715 L2177.57 181.618 L2182.43 181.618 L2169.26 216.178 L2163.96 216.178 Z" fill="#000000" fill-rule="nonzero" fill-opacity="1" /><path clip-path="url(#clip470)" d="M1964.95 271.474 L2103.39 271.474 L2103.39 230.002 L1964.95 230.002 L1964.95 271.474  Z" fill="#3da44d" fill-rule="evenodd" fill-opacity="1"/>
<polyline clip-path="url(#clip470)" style="stroke:#000000; stroke-linecap:round; stroke-linejoin:round; stroke-width:4; stroke-opacity:1; fill:none" points="1964.95,271.474 2103.39,271.474 2103.39,230.002 1964.95,230.002 1964.95,271.474 "/>
<path clip-path="url(#clip470)" d="M2152.02 263.087 L2152.02 253.805 L2144.38 253.805 L2144.38 249.962 L2156.65 249.962 L2156.65 264.8 Q2153.94 266.721 2150.67 267.717 Q2147.41 268.689 2143.71 268.689 Q2135.61 268.689 2131.02 263.967 Q2126.46 259.221 2126.46 250.772 Q2126.46 242.3 2131.02 237.578 Q2135.61 232.833 2143.71 232.833 Q2147.09 232.833 2150.12 233.666 Q2153.17 234.499 2155.74 236.12 L2155.74 241.096 Q2153.15 238.897 2150.23 237.786 Q2147.32 236.675 2144.1 236.675 Q2137.76 236.675 2134.56 240.217 Q2131.39 243.758 2131.39 250.772 Q2131.39 257.763 2134.56 261.305 Q2137.76 264.846 2144.1 264.846 Q2146.58 264.846 2148.52 264.43 Q2150.47 263.99 2152.02 263.087 Z" fill="#000000" fill-rule="nonzero" fill-opacity="1" /><path clip-path="url(#clip470)" d="M2176.79 254.985 Q2171.62 254.985 2169.63 256.166 Q2167.64 257.346 2167.64 260.194 Q2167.64 262.462 2169.12 263.805 Q2170.63 265.124 2173.2 265.124 Q2176.74 265.124 2178.87 262.624 Q2181.02 260.101 2181.02 255.934 L2181.02 254.985 L2176.79 254.985 M2185.28 253.226 L2185.28 268.018 L2181.02 268.018 L2181.02 264.082 Q2179.56 266.443 2177.39 267.578 Q2175.21 268.689 2172.06 268.689 Q2168.08 268.689 2165.72 266.467 Q2163.38 264.221 2163.38 260.471 Q2163.38 256.096 2166.3 253.874 Q2169.24 251.652 2175.05 251.652 L2181.02 251.652 L2181.02 251.235 Q2181.02 248.295 2179.08 246.698 Q2177.16 245.078 2173.66 245.078 Q2171.44 245.078 2169.33 245.61 Q2167.23 246.143 2165.28 247.207 L2165.28 243.272 Q2167.62 242.37 2169.82 241.93 Q2172.02 241.467 2174.1 241.467 Q2179.73 241.467 2182.5 244.383 Q2185.28 247.3 2185.28 253.226 Z" fill="#000000" fill-rule="nonzero" fill-opacity="1" /><path clip-path="url(#clip470)" d="M2210.58 242.856 L2210.58 246.883 Q2208.78 245.957 2206.83 245.495 Q2204.89 245.032 2202.8 245.032 Q2199.63 245.032 2198.04 246.004 Q2196.46 246.976 2196.46 248.92 Q2196.46 250.402 2197.6 251.258 Q2198.73 252.092 2202.16 252.856 L2203.61 253.18 Q2208.15 254.152 2210.05 255.934 Q2211.97 257.694 2211.97 260.865 Q2211.97 264.476 2209.1 266.582 Q2206.25 268.689 2201.25 268.689 Q2199.17 268.689 2196.9 268.272 Q2194.66 267.879 2192.16 267.068 L2192.16 262.67 Q2194.52 263.897 2196.81 264.522 Q2199.1 265.124 2201.35 265.124 Q2204.35 265.124 2205.98 264.106 Q2207.6 263.064 2207.6 261.189 Q2207.6 259.453 2206.42 258.527 Q2205.26 257.601 2201.3 256.744 L2199.82 256.397 Q2195.86 255.564 2194.1 253.851 Q2192.34 252.115 2192.34 249.106 Q2192.34 245.448 2194.93 243.458 Q2197.53 241.467 2202.29 241.467 Q2204.66 241.467 2206.74 241.814 Q2208.82 242.161 2210.58 242.856 Z" fill="#000000" fill-rule="nonzero" fill-opacity="1" /><path clip-path="url(#clip470)" d="M1964.95 323.314 L2103.39 323.314 L2103.39 281.842 L1964.95 281.842 L1964.95 323.314  Z" fill="#c271d2" fill-rule="evenodd" fill-opacity="1"/>
<polyline clip-path="url(#clip470)" style="stroke:#000000; stroke-linecap:round; stroke-linejoin:round; stroke-width:4; stroke-opacity:1; fill:none" points="1964.95,323.314 2103.39,323.314 2103.39,281.842 1964.95,281.842 1964.95,323.314 "/>
<path clip-path="url(#clip470)" d="M2126.46 285.298 L2131.14 285.298 L2131.14 299.464 L2148.13 299.464 L2148.13 285.298 L2152.8 285.298 L2152.8 319.858 L2148.13 319.858 L2148.13 303.399 L2131.14 303.399 L2131.14 319.858 L2126.46 319.858 L2126.46 285.298 Z" fill="#000000" fill-rule="nonzero" fill-opacity="1" /><path clip-path="url(#clip470)" d="M2172.71 322.265 Q2170.91 326.895 2169.19 328.307 Q2167.48 329.719 2164.61 329.719 L2161.21 329.719 L2161.21 326.154 L2163.71 326.154 Q2165.47 326.154 2166.44 325.32 Q2167.41 324.487 2168.59 321.385 L2169.36 319.441 L2158.87 293.932 L2163.38 293.932 L2171.48 314.209 L2179.59 293.932 L2184.1 293.932 L2172.71 322.265 Z" fill="#000000" fill-rule="nonzero" fill-opacity="1" /><path clip-path="url(#clip470)" d="M2207.04 297.867 L2207.04 283.839 L2211.3 283.839 L2211.3 319.858 L2207.04 319.858 L2207.04 315.969 Q2205.7 318.283 2203.64 319.418 Q2201.6 320.529 2198.73 320.529 Q2194.03 320.529 2191.07 316.779 Q2188.13 313.029 2188.13 306.918 Q2188.13 300.807 2191.07 297.057 Q2194.03 293.307 2198.73 293.307 Q2201.6 293.307 2203.64 294.441 Q2205.7 295.552 2207.04 297.867 M2192.53 306.918 Q2192.53 311.617 2194.45 314.302 Q2196.39 316.964 2199.77 316.964 Q2203.15 316.964 2205.1 314.302 Q2207.04 311.617 2207.04 306.918 Q2207.04 302.219 2205.1 299.557 Q2203.15 296.872 2199.77 296.872 Q2196.39 296.872 2194.45 299.557 Q2192.53 302.219 2192.53 306.918 Z" fill="#000000" fill-rule="nonzero" fill-opacity="1" /><path clip-path="url(#clip470)" d="M2235.1 297.913 Q2234.38 297.497 2233.52 297.311 Q2232.69 297.103 2231.67 297.103 Q2228.06 297.103 2226.11 299.464 Q2224.19 301.802 2224.19 306.2 L2224.19 319.858 L2219.91 319.858 L2219.91 293.932 L2224.19 293.932 L2224.19 297.96 Q2225.54 295.598 2227.69 294.464 Q2229.84 293.307 2232.92 293.307 Q2233.36 293.307 2233.89 293.376 Q2234.42 293.423 2235.07 293.538 L2235.1 297.913 Z" fill="#000000" fill-rule="nonzero" fill-opacity="1" /><path clip-path="url(#clip470)" d="M2248.57 296.918 Q2245.14 296.918 2243.15 299.603 Q2241.16 302.265 2241.16 306.918 Q2241.16 311.571 2243.13 314.256 Q2245.12 316.918 2248.57 316.918 Q2251.97 316.918 2253.96 314.233 Q2255.95 311.547 2255.95 306.918 Q2255.95 302.311 2253.96 299.626 Q2251.97 296.918 2248.57 296.918 M2248.57 293.307 Q2254.12 293.307 2257.29 296.918 Q2260.47 300.529 2260.47 306.918 Q2260.47 313.284 2257.29 316.918 Q2254.12 320.529 2248.57 320.529 Q2242.99 320.529 2239.82 316.918 Q2236.67 313.284 2236.67 306.918 Q2236.67 300.529 2239.82 296.918 Q2242.99 293.307 2248.57 293.307 Z" fill="#000000" fill-rule="nonzero" fill-opacity="1" /></svg>
