<?xml version="1.0" encoding="utf-8"?>
<svg xmlns="http://www.w3.org/2000/svg" xmlns:xlink="http://www.w3.org/1999/xlink" width="600" height="400" viewBox="0 0 2400 1600">
<defs>
  <clipPath id="clip930">
    <rect x="0" y="0" width="2400" height="1600"/>
  </clipPath>
</defs>
<path clip-path="url(#clip930)" d="M0 1600 L2400 1600 L2400 0 L0 0  Z" fill="#ffffff" fill-rule="evenodd" fill-opacity="1"/>
<defs>
  <clipPath id="clip931">
    <rect x="480" y="0" width="1681" height="1600"/>
  </clipPath>
</defs>
<path clip-path="url(#clip930)" d="M276.227 1486.45 L2352.76 1486.45 L2352.76 47.2441 L276.227 47.2441  Z" fill="#ffffff" fill-rule="evenodd" fill-opacity="1"/>
<defs>
  <clipPath id="clip932">
    <rect x="276" y="47" width="2078" height="1440"/>
  </clipPath>
</defs>
<polyline clip-path="url(#clip932)" style="stroke:#000000; stroke-linecap:round; stroke-linejoin:round; stroke-width:2; stroke-opacity:0.1; fill:none" points="630.009,1486.45 630.009,47.2441 "/>
<polyline clip-path="url(#clip932)" style="stroke:#000000; stroke-linecap:round; stroke-linejoin:round; stroke-width:2; stroke-opacity:0.1; fill:none" points="1314.49,1486.45 1314.49,47.2441 "/>
<polyline clip-path="url(#clip932)" style="stroke:#000000; stroke-linecap:round; stroke-linejoin:round; stroke-width:2; stroke-opacity:0.1; fill:none" points="1998.97,1486.45 1998.97,47.2441 "/>
<polyline clip-path="url(#clip930)" style="stroke:#000000; stroke-linecap:round; stroke-linejoin:round; stroke-width:4; stroke-opacity:1; fill:none" points="276.227,1486.45 2352.76,1486.45 "/>
<polyline clip-path="url(#clip930)" style="stroke:#000000; stroke-linecap:round; stroke-linejoin:round; stroke-width:4; stroke-opacity:1; fill:none" points="630.009,1486.45 630.009,1467.55 "/>
<polyline clip-path="url(#clip930)" style="stroke:#000000; stroke-linecap:round; stroke-linejoin:round; stroke-width:4; stroke-opacity:1; fill:none" points="1314.49,1486.45 1314.49,1467.55 "/>
<polyline clip-path="url(#clip930)" style="stroke:#000000; stroke-linecap:round; stroke-linejoin:round; stroke-width:4; stroke-opacity:1; fill:none" points="1998.97,1486.45 1998.97,1467.55 "/>
<path clip-path="url(#clip930)" d="M548.655 1543.92 L548.655 1534.63 L541.016 1534.63 L541.016 1530.79 L553.285 1530.79 L553.285 1545.63 Q550.576 1547.55 547.313 1548.55 Q544.049 1549.52 540.345 1549.52 Q532.243 1549.52 527.66 1544.8 Q523.1 1540.05 523.1 1531.6 Q523.1 1523.13 527.66 1518.41 Q532.243 1513.66 540.345 1513.66 Q543.725 1513.66 546.757 1514.5 Q549.813 1515.33 552.382 1516.95 L552.382 1521.93 Q549.789 1519.73 546.873 1518.62 Q543.956 1517.51 540.739 1517.51 Q534.396 1517.51 531.202 1521.05 Q528.03 1524.59 528.03 1531.6 Q528.03 1538.59 531.202 1542.13 Q534.396 1545.68 540.739 1545.68 Q543.215 1545.68 545.16 1545.26 Q547.104 1544.82 548.655 1543.92 Z" fill="#000000" fill-rule="nonzero" fill-opacity="1" /><path clip-path="url(#clip930)" d="M583.817 1534.82 L583.817 1536.9 L564.234 1536.9 Q564.512 1541.3 566.873 1543.62 Q569.257 1545.91 573.493 1545.91 Q575.947 1545.91 578.238 1545.31 Q580.553 1544.7 582.822 1543.5 L582.822 1547.53 Q580.53 1548.5 578.123 1549.01 Q575.715 1549.52 573.238 1549.52 Q567.035 1549.52 563.4 1545.91 Q559.789 1542.3 559.789 1536.14 Q559.789 1529.77 563.215 1526.05 Q566.664 1522.3 572.498 1522.3 Q577.729 1522.3 580.762 1525.68 Q583.817 1529.03 583.817 1534.82 M579.558 1533.57 Q579.512 1530.07 577.59 1527.99 Q575.692 1525.91 572.544 1525.91 Q568.979 1525.91 566.826 1527.92 Q564.697 1529.94 564.373 1533.59 L579.558 1533.57 Z" fill="#000000" fill-rule="nonzero" fill-opacity="1" /><path clip-path="url(#clip930)" d="M605.831 1526.9 Q605.113 1526.49 604.257 1526.3 Q603.423 1526.09 602.405 1526.09 Q598.794 1526.09 596.849 1528.45 Q594.928 1530.79 594.928 1535.19 L594.928 1548.85 L590.646 1548.85 L590.646 1522.92 L594.928 1522.92 L594.928 1526.95 Q596.271 1524.59 598.423 1523.45 Q600.576 1522.3 603.655 1522.3 Q604.095 1522.3 604.627 1522.37 Q605.16 1522.41 605.808 1522.53 L605.831 1526.9 Z" fill="#000000" fill-rule="nonzero" fill-opacity="1" /><path clip-path="url(#clip930)" d="M629.65 1527.9 Q631.247 1525.03 633.47 1523.66 Q635.692 1522.3 638.701 1522.3 Q642.752 1522.3 644.951 1525.14 Q647.15 1527.97 647.15 1533.2 L647.15 1548.85 L642.868 1548.85 L642.868 1533.34 Q642.868 1529.61 641.548 1527.81 Q640.229 1526 637.52 1526 Q634.21 1526 632.289 1528.2 Q630.368 1530.4 630.368 1534.2 L630.368 1548.85 L626.085 1548.85 L626.085 1533.34 Q626.085 1529.59 624.766 1527.81 Q623.446 1526 620.692 1526 Q617.428 1526 615.507 1528.22 Q613.585 1530.42 613.585 1534.2 L613.585 1548.85 L609.303 1548.85 L609.303 1522.92 L613.585 1522.92 L613.585 1526.95 Q615.044 1524.57 617.081 1523.43 Q619.118 1522.3 621.919 1522.3 Q624.743 1522.3 626.71 1523.73 Q628.701 1525.17 629.65 1527.9 Z" fill="#000000" fill-rule="nonzero" fill-opacity="1" /><path clip-path="url(#clip930)" d="M667.428 1535.82 Q662.266 1535.82 660.275 1537 Q658.284 1538.18 658.284 1541.02 Q658.284 1543.29 659.766 1544.63 Q661.27 1545.95 663.84 1545.95 Q667.381 1545.95 669.511 1543.45 Q671.664 1540.93 671.664 1536.76 L671.664 1535.82 L667.428 1535.82 M675.923 1534.06 L675.923 1548.85 L671.664 1548.85 L671.664 1544.91 Q670.205 1547.27 668.03 1548.41 Q665.854 1549.52 662.706 1549.52 Q658.724 1549.52 656.363 1547.3 Q654.025 1545.05 654.025 1541.3 Q654.025 1536.93 656.942 1534.7 Q659.881 1532.48 665.692 1532.48 L671.664 1532.48 L671.664 1532.07 Q671.664 1529.13 669.719 1527.53 Q667.798 1525.91 664.303 1525.91 Q662.081 1525.91 659.974 1526.44 Q657.868 1526.97 655.923 1528.04 L655.923 1524.1 Q658.261 1523.2 660.46 1522.76 Q662.659 1522.3 664.743 1522.3 Q670.368 1522.3 673.145 1525.21 Q675.923 1528.13 675.923 1534.06 Z" fill="#000000" fill-rule="nonzero" fill-opacity="1" /><path clip-path="url(#clip930)" d="M706.247 1533.2 L706.247 1548.85 L701.988 1548.85 L701.988 1533.34 Q701.988 1529.66 700.553 1527.83 Q699.117 1526 696.247 1526 Q692.798 1526 690.807 1528.2 Q688.816 1530.4 688.816 1534.2 L688.816 1548.85 L684.534 1548.85 L684.534 1522.92 L688.816 1522.92 L688.816 1526.95 Q690.344 1524.61 692.404 1523.45 Q694.488 1522.3 697.196 1522.3 Q701.664 1522.3 703.955 1525.07 Q706.247 1527.83 706.247 1533.2 Z" fill="#000000" fill-rule="nonzero" fill-opacity="1" /><path clip-path="url(#clip930)" d="M725.529 1551.26 Q723.724 1555.88 722.011 1557.3 Q720.298 1558.71 717.427 1558.71 L714.025 1558.71 L714.025 1555.14 L716.525 1555.14 Q718.284 1555.14 719.256 1554.31 Q720.228 1553.48 721.409 1550.38 L722.173 1548.43 L711.687 1522.92 L716.201 1522.92 L724.302 1543.2 L732.404 1522.92 L736.918 1522.92 L725.529 1551.26 Z" fill="#000000" fill-rule="nonzero" fill-opacity="1" /><path clip-path="url(#clip930)" d="M1246.64 1515.42 L1246.64 1519.98 Q1243.98 1518.71 1241.62 1518.08 Q1239.26 1517.46 1237.06 1517.46 Q1233.24 1517.46 1231.16 1518.94 Q1229.1 1520.42 1229.1 1523.15 Q1229.1 1525.45 1230.46 1526.63 Q1231.85 1527.78 1235.7 1528.5 L1238.52 1529.08 Q1243.75 1530.07 1246.23 1532.6 Q1248.73 1535.1 1248.73 1539.31 Q1248.73 1544.33 1245.35 1546.93 Q1241.99 1549.52 1235.49 1549.52 Q1233.03 1549.52 1230.26 1548.96 Q1227.5 1548.41 1224.54 1547.32 L1224.54 1542.51 Q1227.39 1544.1 1230.12 1544.91 Q1232.85 1545.72 1235.49 1545.72 Q1239.49 1545.72 1241.67 1544.15 Q1243.84 1542.57 1243.84 1539.66 Q1243.84 1537.11 1242.27 1535.68 Q1240.72 1534.24 1237.15 1533.52 L1234.31 1532.97 Q1229.08 1531.93 1226.74 1529.7 Q1224.4 1527.48 1224.4 1523.52 Q1224.4 1518.94 1227.62 1516.3 Q1230.86 1513.66 1236.53 1513.66 Q1238.96 1513.66 1241.48 1514.1 Q1244.01 1514.54 1246.64 1515.42 Z" fill="#000000" fill-rule="nonzero" fill-opacity="1" /><path clip-path="url(#clip930)" d="M1253.36 1522.92 L1257.62 1522.92 L1262.94 1543.15 L1268.24 1522.92 L1273.26 1522.92 L1278.59 1543.15 L1283.89 1522.92 L1288.15 1522.92 L1281.37 1548.85 L1276.34 1548.85 L1270.76 1527.6 L1265.16 1548.85 L1260.14 1548.85 L1253.36 1522.92 Z" fill="#000000" fill-rule="nonzero" fill-opacity="1" /><path clip-path="url(#clip930)" d="M1316.78 1534.82 L1316.78 1536.9 L1297.2 1536.9 Q1297.48 1541.3 1299.84 1543.62 Q1302.22 1545.91 1306.46 1545.91 Q1308.91 1545.91 1311.2 1545.31 Q1313.52 1544.7 1315.79 1543.5 L1315.79 1547.53 Q1313.5 1548.5 1311.09 1549.01 Q1308.68 1549.52 1306.2 1549.52 Q1300 1549.52 1296.37 1545.91 Q1292.76 1542.3 1292.76 1536.14 Q1292.76 1529.77 1296.18 1526.05 Q1299.63 1522.3 1305.46 1522.3 Q1310.7 1522.3 1313.73 1525.68 Q1316.78 1529.03 1316.78 1534.82 M1312.52 1533.57 Q1312.48 1530.07 1310.56 1527.99 Q1308.66 1525.91 1305.51 1525.91 Q1301.95 1525.91 1299.79 1527.92 Q1297.66 1529.94 1297.34 1533.59 L1312.52 1533.57 Z" fill="#000000" fill-rule="nonzero" fill-opacity="1" /><path clip-path="url(#clip930)" d="M1340.83 1526.86 L1340.83 1512.83 L1345.09 1512.83 L1345.09 1548.85 L1340.83 1548.85 L1340.83 1544.96 Q1339.49 1547.27 1337.43 1548.41 Q1335.39 1549.52 1332.52 1549.52 Q1327.82 1549.52 1324.86 1545.77 Q1321.92 1542.02 1321.92 1535.91 Q1321.92 1529.8 1324.86 1526.05 Q1327.82 1522.3 1332.52 1522.3 Q1335.39 1522.3 1337.43 1523.43 Q1339.49 1524.54 1340.83 1526.86 M1326.32 1535.91 Q1326.32 1540.61 1328.24 1543.29 Q1330.19 1545.95 1333.57 1545.95 Q1336.95 1545.95 1338.89 1543.29 Q1340.83 1540.61 1340.83 1535.91 Q1340.83 1531.21 1338.89 1528.55 Q1336.95 1525.86 1333.57 1525.86 Q1330.19 1525.86 1328.24 1528.55 Q1326.32 1531.21 1326.32 1535.91 Z" fill="#000000" fill-rule="nonzero" fill-opacity="1" /><path clip-path="url(#clip930)" d="M1376.04 1534.82 L1376.04 1536.9 L1356.46 1536.9 Q1356.74 1541.3 1359.1 1543.62 Q1361.48 1545.91 1365.72 1545.91 Q1368.17 1545.91 1370.46 1545.31 Q1372.78 1544.7 1375.05 1543.5 L1375.05 1547.53 Q1372.76 1548.5 1370.35 1549.01 Q1367.94 1549.52 1365.46 1549.52 Q1359.26 1549.52 1355.63 1545.91 Q1352.01 1542.3 1352.01 1536.14 Q1352.01 1529.77 1355.44 1526.05 Q1358.89 1522.3 1364.72 1522.3 Q1369.95 1522.3 1372.99 1525.68 Q1376.04 1529.03 1376.04 1534.82 M1371.78 1533.57 Q1371.74 1530.07 1369.82 1527.99 Q1367.92 1525.91 1364.77 1525.91 Q1361.2 1525.91 1359.05 1527.92 Q1356.92 1529.94 1356.6 1533.59 L1371.78 1533.57 Z" fill="#000000" fill-rule="nonzero" fill-opacity="1" /><path clip-path="url(#clip930)" d="M1404.58 1533.2 L1404.58 1548.85 L1400.32 1548.85 L1400.32 1533.34 Q1400.32 1529.66 1398.89 1527.83 Q1397.45 1526 1394.58 1526 Q1391.13 1526 1389.14 1528.2 Q1387.15 1530.4 1387.15 1534.2 L1387.15 1548.85 L1382.87 1548.85 L1382.87 1522.92 L1387.15 1522.92 L1387.15 1526.95 Q1388.68 1524.61 1390.74 1523.45 Q1392.82 1522.3 1395.53 1522.3 Q1400 1522.3 1402.29 1525.07 Q1404.58 1527.83 1404.58 1533.2 Z" fill="#000000" fill-rule="nonzero" fill-opacity="1" /><path clip-path="url(#clip930)" d="M1897.1 1518.13 L1897.1 1545.01 L1902.75 1545.01 Q1909.9 1545.01 1913.21 1541.76 Q1916.54 1538.52 1916.54 1531.53 Q1916.54 1524.59 1913.21 1521.37 Q1909.9 1518.13 1902.75 1518.13 L1897.1 1518.13 M1892.42 1514.29 L1902.03 1514.29 Q1912.08 1514.29 1916.78 1518.48 Q1921.47 1522.64 1921.47 1531.53 Q1921.47 1540.47 1916.75 1544.66 Q1912.03 1548.85 1902.03 1548.85 L1892.42 1548.85 L1892.42 1514.29 Z" fill="#000000" fill-rule="nonzero" fill-opacity="1" /><path clip-path="url(#clip930)" d="M1950.92 1534.82 L1950.92 1536.9 L1931.34 1536.9 Q1931.61 1541.3 1933.97 1543.62 Q1936.36 1545.91 1940.59 1545.91 Q1943.05 1545.91 1945.34 1545.31 Q1947.66 1544.7 1949.92 1543.5 L1949.92 1547.53 Q1947.63 1548.5 1945.22 1549.01 Q1942.82 1549.52 1940.34 1549.52 Q1934.14 1549.52 1930.5 1545.91 Q1926.89 1542.3 1926.89 1536.14 Q1926.89 1529.77 1930.32 1526.05 Q1933.77 1522.3 1939.6 1522.3 Q1944.83 1522.3 1947.86 1525.68 Q1950.92 1529.03 1950.92 1534.82 M1946.66 1533.57 Q1946.61 1530.07 1944.69 1527.99 Q1942.79 1525.91 1939.65 1525.91 Q1936.08 1525.91 1933.93 1527.92 Q1931.8 1529.94 1931.47 1533.59 L1946.66 1533.57 Z" fill="#000000" fill-rule="nonzero" fill-opacity="1" /><path clip-path="url(#clip930)" d="M1979.46 1533.2 L1979.46 1548.85 L1975.2 1548.85 L1975.2 1533.34 Q1975.2 1529.66 1973.77 1527.83 Q1972.33 1526 1969.46 1526 Q1966.01 1526 1964.02 1528.2 Q1962.03 1530.4 1962.03 1534.2 L1962.03 1548.85 L1957.75 1548.85 L1957.75 1522.92 L1962.03 1522.92 L1962.03 1526.95 Q1963.56 1524.61 1965.62 1523.45 Q1967.7 1522.3 1970.41 1522.3 Q1974.88 1522.3 1977.17 1525.07 Q1979.46 1527.83 1979.46 1533.2 Z" fill="#000000" fill-rule="nonzero" fill-opacity="1" /><path clip-path="url(#clip930)" d="M2008.14 1527.9 Q2009.74 1525.03 2011.96 1523.66 Q2014.18 1522.3 2017.19 1522.3 Q2021.24 1522.3 2023.44 1525.14 Q2025.64 1527.97 2025.64 1533.2 L2025.64 1548.85 L2021.36 1548.85 L2021.36 1533.34 Q2021.36 1529.61 2020.04 1527.81 Q2018.72 1526 2016.01 1526 Q2012.7 1526 2010.78 1528.2 Q2008.86 1530.4 2008.86 1534.2 L2008.86 1548.85 L2004.58 1548.85 L2004.58 1533.34 Q2004.58 1529.59 2003.26 1527.81 Q2001.94 1526 1999.18 1526 Q1995.92 1526 1994 1528.22 Q1992.08 1530.42 1992.08 1534.2 L1992.08 1548.85 L1987.79 1548.85 L1987.79 1522.92 L1992.08 1522.92 L1992.08 1526.95 Q1993.53 1524.57 1995.57 1523.43 Q1997.61 1522.3 2000.41 1522.3 Q2003.23 1522.3 2005.2 1523.73 Q2007.19 1525.17 2008.14 1527.9 Z" fill="#000000" fill-rule="nonzero" fill-opacity="1" /><path clip-path="url(#clip930)" d="M2045.92 1535.82 Q2040.76 1535.82 2038.77 1537 Q2036.77 1538.18 2036.77 1541.02 Q2036.77 1543.29 2038.26 1544.63 Q2039.76 1545.95 2042.33 1545.95 Q2045.87 1545.95 2048 1543.45 Q2050.15 1540.93 2050.15 1536.76 L2050.15 1535.82 L2045.92 1535.82 M2054.41 1534.06 L2054.41 1548.85 L2050.15 1548.85 L2050.15 1544.91 Q2048.7 1547.27 2046.52 1548.41 Q2044.34 1549.52 2041.2 1549.52 Q2037.21 1549.52 2034.85 1547.3 Q2032.52 1545.05 2032.52 1541.3 Q2032.52 1536.93 2035.43 1534.7 Q2038.37 1532.48 2044.18 1532.48 L2050.15 1532.48 L2050.15 1532.07 Q2050.15 1529.13 2048.21 1527.53 Q2046.29 1525.91 2042.79 1525.91 Q2040.57 1525.91 2038.46 1526.44 Q2036.36 1526.97 2034.41 1528.04 L2034.41 1524.1 Q2036.75 1523.2 2038.95 1522.76 Q2041.15 1522.3 2043.23 1522.3 Q2048.86 1522.3 2051.64 1525.21 Q2054.41 1528.13 2054.41 1534.06 Z" fill="#000000" fill-rule="nonzero" fill-opacity="1" /><path clip-path="url(#clip930)" d="M2078.21 1526.9 Q2077.49 1526.49 2076.64 1526.3 Q2075.8 1526.09 2074.78 1526.09 Q2071.17 1526.09 2069.23 1528.45 Q2067.31 1530.79 2067.31 1535.19 L2067.31 1548.85 L2063.02 1548.85 L2063.02 1522.92 L2067.31 1522.92 L2067.31 1526.95 Q2068.65 1524.59 2070.8 1523.45 Q2072.96 1522.3 2076.03 1522.3 Q2076.47 1522.3 2077.01 1522.37 Q2077.54 1522.41 2078.19 1522.53 L2078.21 1526.9 Z" fill="#000000" fill-rule="nonzero" fill-opacity="1" /><path clip-path="url(#clip930)" d="M2082.52 1512.83 L2086.8 1512.83 L2086.8 1534.1 L2099.51 1522.92 L2104.95 1522.92 L2091.2 1535.05 L2105.52 1548.85 L2099.97 1548.85 L2086.8 1536.19 L2086.8 1548.85 L2082.52 1548.85 L2082.52 1512.83 Z" fill="#000000" fill-rule="nonzero" fill-opacity="1" /><polyline clip-path="url(#clip932)" style="stroke:#000000; stroke-linecap:round; stroke-linejoin:round; stroke-width:2; stroke-opacity:0.1; fill:none" points="276.227,1445.72 2352.76,1445.72 "/>
<polyline clip-path="url(#clip932)" style="stroke:#000000; stroke-linecap:round; stroke-linejoin:round; stroke-width:2; stroke-opacity:0.1; fill:none" points="276.227,1206.05 2352.76,1206.05 "/>
<polyline clip-path="url(#clip932)" style="stroke:#000000; stroke-linecap:round; stroke-linejoin:round; stroke-width:2; stroke-opacity:0.1; fill:none" points="276.227,966.39 2352.76,966.39 "/>
<polyline clip-path="url(#clip932)" style="stroke:#000000; stroke-linecap:round; stroke-linejoin:round; stroke-width:2; stroke-opacity:0.1; fill:none" points="276.227,726.727 2352.76,726.727 "/>
<polyline clip-path="url(#clip932)" style="stroke:#000000; stroke-linecap:round; stroke-linejoin:round; stroke-width:2; stroke-opacity:0.1; fill:none" points="276.227,487.065 2352.76,487.065 "/>
<polyline clip-path="url(#clip932)" style="stroke:#000000; stroke-linecap:round; stroke-linejoin:round; stroke-width:2; stroke-opacity:0.1; fill:none" points="276.227,247.402 2352.76,247.402 "/>
<polyline clip-path="url(#clip930)" style="stroke:#000000; stroke-linecap:round; stroke-linejoin:round; stroke-width:4; stroke-opacity:1; fill:none" points="276.227,1486.45 276.227,47.2441 "/>
<polyline clip-path="url(#clip930)" style="stroke:#000000; stroke-linecap:round; stroke-linejoin:round; stroke-width:4; stroke-opacity:1; fill:none" points="276.227,1445.72 295.125,1445.72 "/>
<polyline clip-path="url(#clip930)" style="stroke:#000000; stroke-linecap:round; stroke-linejoin:round; stroke-width:4; stroke-opacity:1; fill:none" points="276.227,1206.05 295.125,1206.05 "/>
<polyline clip-path="url(#clip930)" style="stroke:#000000; stroke-linecap:round; stroke-linejoin:round; stroke-width:4; stroke-opacity:1; fill:none" points="276.227,966.39 295.125,966.39 "/>
<polyline clip-path="url(#clip930)" style="stroke:#000000; stroke-linecap:round; stroke-linejoin:round; stroke-width:4; stroke-opacity:1; fill:none" points="276.227,726.727 295.125,726.727 "/>
<polyline clip-path="url(#clip930)" style="stroke:#000000; stroke-linecap:round; stroke-linejoin:round; stroke-width:4; stroke-opacity:1; fill:none" points="276.227,487.065 295.125,487.065 "/>
<polyline clip-path="url(#clip930)" style="stroke:#000000; stroke-linecap:round; stroke-linejoin:round; stroke-width:4; stroke-opacity:1; fill:none" points="276.227,247.402 295.125,247.402 "/>
<path clip-path="url(#clip930)" d="M228.283 1431.51 Q224.672 1431.51 222.843 1435.08 Q221.038 1438.62 221.038 1445.75 Q221.038 1452.86 222.843 1456.42 Q224.672 1459.96 228.283 1459.96 Q231.917 1459.96 233.723 1456.42 Q235.551 1452.86 235.551 1445.75 Q235.551 1438.62 233.723 1435.08 Q231.917 1431.51 228.283 1431.51 M228.283 1427.81 Q234.093 1427.81 237.149 1432.42 Q240.227 1437 240.227 1445.75 Q240.227 1454.48 237.149 1459.08 Q234.093 1463.67 228.283 1463.67 Q222.473 1463.67 219.394 1459.08 Q216.338 1454.48 216.338 1445.75 Q216.338 1437 219.394 1432.42 Q222.473 1427.81 228.283 1427.81 Z" fill="#000000" fill-rule="nonzero" fill-opacity="1" /><path clip-path="url(#clip930)" d="M54.5569 1225.85 L62.1958 1225.85 L62.1958 1199.48 L53.8856 1201.15 L53.8856 1196.89 L62.1495 1195.22 L66.8254 1195.22 L66.8254 1225.85 L74.4642 1225.85 L74.4642 1229.78 L54.5569 1229.78 L54.5569 1225.85 Z" fill="#000000" fill-rule="nonzero" fill-opacity="1" /><path clip-path="url(#clip930)" d="M83.9086 1223.9 L88.7928 1223.9 L88.7928 1229.78 L83.9086 1229.78 L83.9086 1223.9 Z" fill="#000000" fill-rule="nonzero" fill-opacity="1" /><path clip-path="url(#clip930)" d="M108.978 1198.3 Q105.367 1198.3 103.538 1201.86 Q101.733 1205.41 101.733 1212.54 Q101.733 1219.64 103.538 1223.21 Q105.367 1226.75 108.978 1226.75 Q112.612 1226.75 114.418 1223.21 Q116.246 1219.64 116.246 1212.54 Q116.246 1205.41 114.418 1201.86 Q112.612 1198.3 108.978 1198.3 M108.978 1194.6 Q114.788 1194.6 117.844 1199.2 Q120.922 1203.79 120.922 1212.54 Q120.922 1221.26 117.844 1225.87 Q114.788 1230.45 108.978 1230.45 Q103.168 1230.45 100.089 1225.87 Q97.0335 1221.26 97.0335 1212.54 Q97.0335 1203.79 100.089 1199.2 Q103.168 1194.6 108.978 1194.6 Z" fill="#000000" fill-rule="nonzero" fill-opacity="1" /><path clip-path="url(#clip930)" d="M157.311 1204.32 L146.732 1214.94 L157.311 1225.52 L154.556 1228.32 L143.931 1217.7 L133.306 1228.32 L130.575 1225.52 L141.131 1214.94 L130.575 1204.32 L133.306 1201.52 L143.931 1212.14 L154.556 1201.52 L157.311 1204.32 Z" fill="#000000" fill-rule="nonzero" fill-opacity="1" /><path clip-path="url(#clip930)" d="M169.672 1225.85 L177.311 1225.85 L177.311 1199.48 L169.001 1201.15 L169.001 1196.89 L177.265 1195.22 L181.94 1195.22 L181.94 1225.85 L189.579 1225.85 L189.579 1229.78 L169.672 1229.78 L169.672 1225.85 Z" fill="#000000" fill-rule="nonzero" fill-opacity="1" /><path clip-path="url(#clip930)" d="M209.024 1198.3 Q205.413 1198.3 203.584 1201.86 Q201.778 1205.41 201.778 1212.54 Q201.778 1219.64 203.584 1223.21 Q205.413 1226.75 209.024 1226.75 Q212.658 1226.75 214.463 1223.21 Q216.292 1219.64 216.292 1212.54 Q216.292 1205.41 214.463 1201.86 Q212.658 1198.3 209.024 1198.3 M209.024 1194.6 Q214.834 1194.6 217.889 1199.2 Q220.968 1203.79 220.968 1212.54 Q220.968 1221.26 217.889 1225.87 Q214.834 1230.45 209.024 1230.45 Q203.214 1230.45 200.135 1225.87 Q197.079 1221.26 197.079 1212.54 Q197.079 1203.79 200.135 1199.2 Q203.214 1194.6 209.024 1194.6 Z" fill="#000000" fill-rule="nonzero" fill-opacity="1" /><path clip-path="url(#clip930)" d="M230.598 1189.04 Q227.889 1189.04 226.328 1190.48 Q224.786 1191.93 224.786 1194.47 Q224.786 1197.01 226.328 1198.46 Q227.889 1199.91 230.598 1199.91 Q233.306 1199.91 234.867 1198.46 Q236.428 1196.99 236.428 1194.47 Q236.428 1191.93 234.867 1190.48 Q233.325 1189.04 230.598 1189.04 M226.798 1187.42 Q224.353 1186.82 222.98 1185.14 Q221.626 1183.47 221.626 1181.06 Q221.626 1177.69 224.015 1175.74 Q226.422 1173.78 230.598 1173.78 Q234.792 1173.78 237.18 1175.74 Q239.569 1177.69 239.569 1181.06 Q239.569 1183.47 238.196 1185.14 Q236.842 1186.82 234.416 1187.42 Q237.162 1188.06 238.685 1189.92 Q240.227 1191.78 240.227 1194.47 Q240.227 1198.55 237.726 1200.73 Q235.243 1202.92 230.598 1202.92 Q225.952 1202.92 223.451 1200.73 Q220.968 1198.55 220.968 1194.47 Q220.968 1191.78 222.51 1189.92 Q224.053 1188.06 226.798 1187.42 M225.407 1181.42 Q225.407 1183.6 226.761 1184.82 Q228.134 1186.04 230.598 1186.04 Q233.043 1186.04 234.416 1184.82 Q235.807 1183.6 235.807 1181.42 Q235.807 1179.24 234.416 1178.01 Q233.043 1176.79 230.598 1176.79 Q228.134 1176.79 226.761 1178.01 Q225.407 1179.24 225.407 1181.42 Z" fill="#000000" fill-rule="nonzero" fill-opacity="1" /><path clip-path="url(#clip930)" d="M57.7745 986.183 L74.0939 986.183 L74.0939 990.118 L52.1495 990.118 L52.1495 986.183 Q54.8115 983.428 59.3949 978.798 Q64.0013 974.146 65.1819 972.803 Q67.4272 970.28 68.3068 968.544 Q69.2096 966.784 69.2096 965.095 Q69.2096 962.34 67.2652 960.604 Q65.3439 958.868 62.2421 958.868 Q60.043 958.868 57.5893 959.632 Q55.1588 960.396 52.381 961.947 L52.381 957.224 Q55.2051 956.09 57.6588 955.511 Q60.1124 954.933 62.1495 954.933 Q67.5198 954.933 70.7142 957.618 Q73.9087 960.303 73.9087 964.794 Q73.9087 966.923 73.0985 968.845 Q72.3115 970.743 70.205 973.335 Q69.6263 974.007 66.5245 977.224 Q63.4226 980.419 57.7745 986.183 Z" fill="#000000" fill-rule="nonzero" fill-opacity="1" /><path clip-path="url(#clip930)" d="M83.9086 984.238 L88.7928 984.238 L88.7928 990.118 L83.9086 990.118 L83.9086 984.238 Z" fill="#000000" fill-rule="nonzero" fill-opacity="1" /><path clip-path="url(#clip930)" d="M108.978 958.636 Q105.367 958.636 103.538 962.201 Q101.733 965.743 101.733 972.872 Q101.733 979.979 103.538 983.544 Q105.367 987.085 108.978 987.085 Q112.612 987.085 114.418 983.544 Q116.246 979.979 116.246 972.872 Q116.246 965.743 114.418 962.201 Q112.612 958.636 108.978 958.636 M108.978 954.933 Q114.788 954.933 117.844 959.539 Q120.922 964.122 120.922 972.872 Q120.922 981.599 117.844 986.206 Q114.788 990.789 108.978 990.789 Q103.168 990.789 100.089 986.206 Q97.0335 981.599 97.0335 972.872 Q97.0335 964.122 100.089 959.539 Q103.168 954.933 108.978 954.933 Z" fill="#000000" fill-rule="nonzero" fill-opacity="1" /><path clip-path="url(#clip930)" d="M157.311 964.655 L146.732 975.28 L157.311 985.858 L154.556 988.659 L143.931 978.034 L133.306 988.659 L130.575 985.858 L141.131 975.28 L130.575 964.655 L133.306 961.854 L143.931 972.479 L154.556 961.854 L157.311 964.655 Z" fill="#000000" fill-rule="nonzero" fill-opacity="1" /><path clip-path="url(#clip930)" d="M169.672 986.183 L177.311 986.183 L177.311 959.817 L169.001 961.484 L169.001 957.224 L177.265 955.558 L181.94 955.558 L181.94 986.183 L189.579 986.183 L189.579 990.118 L169.672 990.118 L169.672 986.183 Z" fill="#000000" fill-rule="nonzero" fill-opacity="1" /><path clip-path="url(#clip930)" d="M209.024 958.636 Q205.413 958.636 203.584 962.201 Q201.778 965.743 201.778 972.872 Q201.778 979.979 203.584 983.544 Q205.413 987.085 209.024 987.085 Q212.658 987.085 214.463 983.544 Q216.292 979.979 216.292 972.872 Q216.292 965.743 214.463 962.201 Q212.658 958.636 209.024 958.636 M209.024 954.933 Q214.834 954.933 217.889 959.539 Q220.968 964.122 220.968 972.872 Q220.968 981.599 217.889 986.206 Q214.834 990.789 209.024 990.789 Q203.214 990.789 200.135 986.206 Q197.079 981.599 197.079 972.872 Q197.079 964.122 200.135 959.539 Q203.214 954.933 209.024 954.933 Z" fill="#000000" fill-rule="nonzero" fill-opacity="1" /><path clip-path="url(#clip930)" d="M230.598 949.373 Q227.889 949.373 226.328 950.821 Q224.786 952.269 224.786 954.808 Q224.786 957.347 226.328 958.795 Q227.889 960.243 230.598 960.243 Q233.306 960.243 234.867 958.795 Q236.428 957.328 236.428 954.808 Q236.428 952.269 234.867 950.821 Q233.325 949.373 230.598 949.373 M226.798 947.755 Q224.353 947.153 222.98 945.479 Q221.626 943.805 221.626 941.398 Q221.626 938.032 224.015 936.076 Q226.422 934.119 230.598 934.119 Q234.792 934.119 237.18 936.076 Q239.569 938.032 239.569 941.398 Q239.569 943.805 238.196 945.479 Q236.842 947.153 234.416 947.755 Q237.162 948.395 238.685 950.257 Q240.227 952.119 240.227 954.808 Q240.227 958.889 237.726 961.071 Q235.243 963.253 230.598 963.253 Q225.952 963.253 223.451 961.071 Q220.968 958.889 220.968 954.808 Q220.968 952.119 222.51 950.257 Q224.053 948.395 226.798 947.755 M225.407 941.755 Q225.407 943.937 226.761 945.16 Q228.134 946.382 230.598 946.382 Q233.043 946.382 234.416 945.16 Q235.807 943.937 235.807 941.755 Q235.807 939.574 234.416 938.351 Q233.043 937.129 230.598 937.129 Q228.134 937.129 226.761 938.351 Q225.407 939.574 225.407 941.755 Z" fill="#000000" fill-rule="nonzero" fill-opacity="1" /><path clip-path="url(#clip930)" d="M67.9133 731.821 Q71.2698 732.538 73.1448 734.807 Q75.0429 737.075 75.0429 740.409 Q75.0429 745.524 71.5244 748.325 Q68.0059 751.126 61.5245 751.126 Q59.3486 751.126 57.0338 750.686 Q54.7421 750.27 52.2884 749.413 L52.2884 744.899 Q54.2328 746.034 56.5477 746.612 Q58.8625 747.191 61.3856 747.191 Q65.7837 747.191 68.0754 745.455 Q70.3902 743.719 70.3902 740.409 Q70.3902 737.353 68.2374 735.64 Q66.1078 733.904 62.2884 733.904 L58.2606 733.904 L58.2606 730.061 L62.4735 730.061 Q65.9226 730.061 67.7513 728.696 Q69.58 727.307 69.58 724.714 Q69.58 722.052 67.6819 720.64 Q65.8069 719.205 62.2884 719.205 Q60.3671 719.205 58.168 719.622 Q55.969 720.038 53.3301 720.918 L53.3301 716.751 Q55.9921 716.011 58.3069 715.64 Q60.6449 715.27 62.705 715.27 Q68.0291 715.27 71.1309 717.7 Q74.2327 720.108 74.2327 724.228 Q74.2327 727.099 72.5892 729.089 Q70.9457 731.057 67.9133 731.821 Z" fill="#000000" fill-rule="nonzero" fill-opacity="1" /><path clip-path="url(#clip930)" d="M83.9086 744.575 L88.7928 744.575 L88.7928 750.455 L83.9086 750.455 L83.9086 744.575 Z" fill="#000000" fill-rule="nonzero" fill-opacity="1" /><path clip-path="url(#clip930)" d="M108.978 718.974 Q105.367 718.974 103.538 722.538 Q101.733 726.08 101.733 733.21 Q101.733 740.316 103.538 743.881 Q105.367 747.423 108.978 747.423 Q112.612 747.423 114.418 743.881 Q116.246 740.316 116.246 733.21 Q116.246 726.08 114.418 722.538 Q112.612 718.974 108.978 718.974 M108.978 715.27 Q114.788 715.27 117.844 719.876 Q120.922 724.46 120.922 733.21 Q120.922 741.936 117.844 746.543 Q114.788 751.126 108.978 751.126 Q103.168 751.126 100.089 746.543 Q97.0335 741.936 97.0335 733.21 Q97.0335 724.46 100.089 719.876 Q103.168 715.27 108.978 715.27 Z" fill="#000000" fill-rule="nonzero" fill-opacity="1" /><path clip-path="url(#clip930)" d="M157.311 724.992 L146.732 735.617 L157.311 746.196 L154.556 748.997 L143.931 738.372 L133.306 748.997 L130.575 746.196 L141.131 735.617 L130.575 724.992 L133.306 722.191 L143.931 732.816 L154.556 722.191 L157.311 724.992 Z" fill="#000000" fill-rule="nonzero" fill-opacity="1" /><path clip-path="url(#clip930)" d="M169.672 746.52 L177.311 746.52 L177.311 720.154 L169.001 721.821 L169.001 717.562 L177.265 715.895 L181.94 715.895 L181.94 746.52 L189.579 746.52 L189.579 750.455 L169.672 750.455 L169.672 746.52 Z" fill="#000000" fill-rule="nonzero" fill-opacity="1" /><path clip-path="url(#clip930)" d="M209.024 718.974 Q205.413 718.974 203.584 722.538 Q201.778 726.08 201.778 733.21 Q201.778 740.316 203.584 743.881 Q205.413 747.423 209.024 747.423 Q212.658 747.423 214.463 743.881 Q216.292 740.316 216.292 733.21 Q216.292 726.08 214.463 722.538 Q212.658 718.974 209.024 718.974 M209.024 715.27 Q214.834 715.27 217.889 719.876 Q220.968 724.46 220.968 733.21 Q220.968 741.936 217.889 746.543 Q214.834 751.126 209.024 751.126 Q203.214 751.126 200.135 746.543 Q197.079 741.936 197.079 733.21 Q197.079 724.46 200.135 719.876 Q203.214 715.27 209.024 715.27 Z" fill="#000000" fill-rule="nonzero" fill-opacity="1" /><path clip-path="url(#clip930)" d="M230.598 709.71 Q227.889 709.71 226.328 711.158 Q224.786 712.606 224.786 715.145 Q224.786 717.684 226.328 719.132 Q227.889 720.581 230.598 720.581 Q233.306 720.581 234.867 719.132 Q236.428 717.665 236.428 715.145 Q236.428 712.606 234.867 711.158 Q233.325 709.71 230.598 709.71 M226.798 708.092 Q224.353 707.49 222.98 705.817 Q221.626 704.143 221.626 701.735 Q221.626 698.369 224.015 696.413 Q226.422 694.457 230.598 694.457 Q234.792 694.457 237.18 696.413 Q239.569 698.369 239.569 701.735 Q239.569 704.143 238.196 705.817 Q236.842 707.49 234.416 708.092 Q237.162 708.732 238.685 710.594 Q240.227 712.456 240.227 715.145 Q240.227 719.227 237.726 721.408 Q235.243 723.59 230.598 723.59 Q225.952 723.59 223.451 721.408 Q220.968 719.227 220.968 715.145 Q220.968 712.456 222.51 710.594 Q224.053 708.732 226.798 708.092 M225.407 702.093 Q225.407 704.274 226.761 705.497 Q228.134 706.719 230.598 706.719 Q233.043 706.719 234.416 705.497 Q235.807 704.274 235.807 702.093 Q235.807 699.911 234.416 698.688 Q233.043 697.466 230.598 697.466 Q228.134 697.466 226.761 698.688 Q225.407 699.911 225.407 702.093 Z" fill="#000000" fill-rule="nonzero" fill-opacity="1" /><path clip-path="url(#clip930)" d="M66.5939 480.306 L54.7884 498.755 L66.5939 498.755 L66.5939 480.306 M65.367 476.232 L71.2466 476.232 L71.2466 498.755 L76.1772 498.755 L76.1772 502.644 L71.2466 502.644 L71.2466 510.792 L66.5939 510.792 L66.5939 502.644 L50.9921 502.644 L50.9921 498.13 L65.367 476.232 Z" fill="#000000" fill-rule="nonzero" fill-opacity="1" /><path clip-path="url(#clip930)" d="M83.9086 504.913 L88.7928 504.913 L88.7928 510.792 L83.9086 510.792 L83.9086 504.913 Z" fill="#000000" fill-rule="nonzero" fill-opacity="1" /><path clip-path="url(#clip930)" d="M108.978 479.311 Q105.367 479.311 103.538 482.876 Q101.733 486.417 101.733 493.547 Q101.733 500.653 103.538 504.218 Q105.367 507.76 108.978 507.76 Q112.612 507.76 114.418 504.218 Q116.246 500.653 116.246 493.547 Q116.246 486.417 114.418 482.876 Q112.612 479.311 108.978 479.311 M108.978 475.607 Q114.788 475.607 117.844 480.214 Q120.922 484.797 120.922 493.547 Q120.922 502.274 117.844 506.88 Q114.788 511.463 108.978 511.463 Q103.168 511.463 100.089 506.88 Q97.0335 502.274 97.0335 493.547 Q97.0335 484.797 100.089 480.214 Q103.168 475.607 108.978 475.607 Z" fill="#000000" fill-rule="nonzero" fill-opacity="1" /><path clip-path="url(#clip930)" d="M157.311 485.329 L146.732 495.954 L157.311 506.533 L154.556 509.334 L143.931 498.709 L133.306 509.334 L130.575 506.533 L141.131 495.954 L130.575 485.329 L133.306 482.528 L143.931 493.153 L154.556 482.528 L157.311 485.329 Z" fill="#000000" fill-rule="nonzero" fill-opacity="1" /><path clip-path="url(#clip930)" d="M169.672 506.857 L177.311 506.857 L177.311 480.491 L169.001 482.158 L169.001 477.899 L177.265 476.232 L181.94 476.232 L181.94 506.857 L189.579 506.857 L189.579 510.792 L169.672 510.792 L169.672 506.857 Z" fill="#000000" fill-rule="nonzero" fill-opacity="1" /><path clip-path="url(#clip930)" d="M209.024 479.311 Q205.413 479.311 203.584 482.876 Q201.778 486.417 201.778 493.547 Q201.778 500.653 203.584 504.218 Q205.413 507.76 209.024 507.76 Q212.658 507.76 214.463 504.218 Q216.292 500.653 216.292 493.547 Q216.292 486.417 214.463 482.876 Q212.658 479.311 209.024 479.311 M209.024 475.607 Q214.834 475.607 217.889 480.214 Q220.968 484.797 220.968 493.547 Q220.968 502.274 217.889 506.88 Q214.834 511.463 209.024 511.463 Q203.214 511.463 200.135 506.88 Q197.079 502.274 197.079 493.547 Q197.079 484.797 200.135 480.214 Q203.214 475.607 209.024 475.607 Z" fill="#000000" fill-rule="nonzero" fill-opacity="1" /><path clip-path="url(#clip930)" d="M230.598 470.047 Q227.889 470.047 226.328 471.495 Q224.786 472.943 224.786 475.482 Q224.786 478.022 226.328 479.47 Q227.889 480.918 230.598 480.918 Q233.306 480.918 234.867 479.47 Q236.428 478.003 236.428 475.482 Q236.428 472.943 234.867 471.495 Q233.325 470.047 230.598 470.047 M226.798 468.43 Q224.353 467.828 222.98 466.154 Q221.626 464.48 221.626 462.073 Q221.626 458.706 224.015 456.75 Q226.422 454.794 230.598 454.794 Q234.792 454.794 237.18 456.75 Q239.569 458.706 239.569 462.073 Q239.569 464.48 238.196 466.154 Q236.842 467.828 234.416 468.43 Q237.162 469.069 238.685 470.931 Q240.227 472.793 240.227 475.482 Q240.227 479.564 237.726 481.745 Q235.243 483.927 230.598 483.927 Q225.952 483.927 223.451 481.745 Q220.968 479.564 220.968 475.482 Q220.968 472.793 222.51 470.931 Q224.053 469.069 226.798 468.43 M225.407 462.43 Q225.407 464.612 226.761 465.834 Q228.134 467.057 230.598 467.057 Q233.043 467.057 234.416 465.834 Q235.807 464.612 235.807 462.43 Q235.807 460.248 234.416 459.026 Q233.043 457.803 230.598 457.803 Q228.134 457.803 226.761 459.026 Q225.407 460.248 225.407 462.43 Z" fill="#000000" fill-rule="nonzero" fill-opacity="1" /><path clip-path="url(#clip930)" d="M53.793 236.569 L72.1494 236.569 L72.1494 240.504 L58.0754 240.504 L58.0754 248.977 Q59.0939 248.629 60.1124 248.467 Q61.131 248.282 62.1495 248.282 Q67.9365 248.282 71.3161 251.453 Q74.6957 254.625 74.6957 260.041 Q74.6957 265.62 71.2235 268.722 Q67.7513 271.801 61.4319 271.801 Q59.256 271.801 56.9875 271.43 Q54.7421 271.06 52.3347 270.319 L52.3347 265.62 Q54.418 266.754 56.6402 267.31 Q58.8625 267.865 61.3393 267.865 Q65.3439 267.865 67.6819 265.759 Q70.0198 263.653 70.0198 260.041 Q70.0198 256.43 67.6819 254.324 Q65.3439 252.217 61.3393 252.217 Q59.4643 252.217 57.5893 252.634 Q55.7375 253.051 53.793 253.93 L53.793 236.569 Z" fill="#000000" fill-rule="nonzero" fill-opacity="1" /><path clip-path="url(#clip930)" d="M83.9086 265.25 L88.7928 265.25 L88.7928 271.129 L83.9086 271.129 L83.9086 265.25 Z" fill="#000000" fill-rule="nonzero" fill-opacity="1" /><path clip-path="url(#clip930)" d="M108.978 239.648 Q105.367 239.648 103.538 243.213 Q101.733 246.754 101.733 253.884 Q101.733 260.99 103.538 264.555 Q105.367 268.097 108.978 268.097 Q112.612 268.097 114.418 264.555 Q116.246 260.99 116.246 253.884 Q116.246 246.754 114.418 243.213 Q112.612 239.648 108.978 239.648 M108.978 235.944 Q114.788 235.944 117.844 240.551 Q120.922 245.134 120.922 253.884 Q120.922 262.611 117.844 267.217 Q114.788 271.801 108.978 271.801 Q103.168 271.801 100.089 267.217 Q97.0335 262.611 97.0335 253.884 Q97.0335 245.134 100.089 240.551 Q103.168 235.944 108.978 235.944 Z" fill="#000000" fill-rule="nonzero" fill-opacity="1" /><path clip-path="url(#clip930)" d="M157.311 245.666 L146.732 256.291 L157.311 266.87 L154.556 269.671 L143.931 259.046 L133.306 269.671 L130.575 266.87 L141.131 256.291 L130.575 245.666 L133.306 242.866 L143.931 253.491 L154.556 242.866 L157.311 245.666 Z" fill="#000000" fill-rule="nonzero" fill-opacity="1" /><path clip-path="url(#clip930)" d="M169.672 267.194 L177.311 267.194 L177.311 240.829 L169.001 242.495 L169.001 238.236 L177.265 236.569 L181.94 236.569 L181.94 267.194 L189.579 267.194 L189.579 271.129 L169.672 271.129 L169.672 267.194 Z" fill="#000000" fill-rule="nonzero" fill-opacity="1" /><path clip-path="url(#clip930)" d="M209.024 239.648 Q205.413 239.648 203.584 243.213 Q201.778 246.754 201.778 253.884 Q201.778 260.99 203.584 264.555 Q205.413 268.097 209.024 268.097 Q212.658 268.097 214.463 264.555 Q216.292 260.99 216.292 253.884 Q216.292 246.754 214.463 243.213 Q212.658 239.648 209.024 239.648 M209.024 235.944 Q214.834 235.944 217.889 240.551 Q220.968 245.134 220.968 253.884 Q220.968 262.611 217.889 267.217 Q214.834 271.801 209.024 271.801 Q203.214 271.801 200.135 267.217 Q197.079 262.611 197.079 253.884 Q197.079 245.134 200.135 240.551 Q203.214 235.944 209.024 235.944 Z" fill="#000000" fill-rule="nonzero" fill-opacity="1" /><path clip-path="url(#clip930)" d="M230.598 230.384 Q227.889 230.384 226.328 231.832 Q224.786 233.281 224.786 235.82 Q224.786 238.359 226.328 239.807 Q227.889 241.255 230.598 241.255 Q233.306 241.255 234.867 239.807 Q236.428 238.34 236.428 235.82 Q236.428 233.281 234.867 231.832 Q233.325 230.384 230.598 230.384 M226.798 228.767 Q224.353 228.165 222.98 226.491 Q221.626 224.817 221.626 222.41 Q221.626 219.043 224.015 217.087 Q226.422 215.131 230.598 215.131 Q234.792 215.131 237.18 217.087 Q239.569 219.043 239.569 222.41 Q239.569 224.817 238.196 226.491 Q236.842 228.165 234.416 228.767 Q237.162 229.406 238.685 231.268 Q240.227 233.13 240.227 235.82 Q240.227 239.901 237.726 242.083 Q235.243 244.264 230.598 244.264 Q225.952 244.264 223.451 242.083 Q220.968 239.901 220.968 235.82 Q220.968 233.13 222.51 231.268 Q224.053 229.406 226.798 228.767 M225.407 222.767 Q225.407 224.949 226.761 226.171 Q228.134 227.394 230.598 227.394 Q233.043 227.394 234.416 226.171 Q235.807 224.949 235.807 222.767 Q235.807 220.585 234.416 219.363 Q233.043 218.14 230.598 218.14 Q228.134 218.14 226.761 219.363 Q225.407 220.585 225.407 222.767 Z" fill="#000000" fill-rule="nonzero" fill-opacity="1" /><path clip-path="url(#clip932)" d="M390.44 87.9763 L390.44 711.56 L869.578 711.56 L869.578 87.9763 L390.44 87.9763 L390.44 87.9763  Z" fill="#009af9" fill-rule="evenodd" fill-opacity="1"/>
<polyline clip-path="url(#clip932)" style="stroke:#000000; stroke-linecap:round; stroke-linejoin:round; stroke-width:4; stroke-opacity:1; fill:none" points="390.44,87.9763 390.44,711.56 869.578,711.56 869.578,87.9763 390.44,87.9763 "/>
<path clip-path="url(#clip932)" d="M1074.92 789.713 L1074.92 1285.5 L1554.06 1285.5 L1554.06 789.713 L1074.92 789.713 L1074.92 789.713  Z" fill="#009af9" fill-rule="evenodd" fill-opacity="1"/>
<polyline clip-path="url(#clip932)" style="stroke:#000000; stroke-linecap:round; stroke-linejoin:round; stroke-width:4; stroke-opacity:1; fill:none" points="1074.92,789.713 1074.92,1285.5 1554.06,1285.5 1554.06,789.713 1074.92,789.713 "/>
<path clip-path="url(#clip932)" d="M1759.41 1348.61 L1759.41 1431.35 L2238.54 1431.35 L2238.54 1348.61 L1759.41 1348.61 L1759.41 1348.61  Z" fill="#009af9" fill-rule="evenodd" fill-opacity="1"/>
<polyline clip-path="url(#clip932)" style="stroke:#000000; stroke-linecap:round; stroke-linejoin:round; stroke-width:4; stroke-opacity:1; fill:none" points="1759.41,1348.61 1759.41,1431.35 2238.54,1431.35 2238.54,1348.61 1759.41,1348.61 "/>
<circle clip-path="url(#clip932)" style="fill:#009af9; stroke:none; fill-opacity:0" cx="630.009" cy="87.9763" r="2"/>
<circle clip-path="url(#clip932)" style="fill:#009af9; stroke:none; fill-opacity:0" cx="1314.49" cy="789.713" r="2"/>
<circle clip-path="url(#clip932)" style="fill:#009af9; stroke:none; fill-opacity:0" cx="1998.97" cy="1348.61" r="2"/>
<path clip-path="url(#clip932)" d="M390.44 711.56 L390.44 972.866 L869.578 972.866 L869.578 711.56 L390.44 711.56 L390.44 711.56  Z" fill="#e26f46" fill-rule="evenodd" fill-opacity="1"/>
<polyline clip-path="url(#clip932)" style="stroke:#000000; stroke-linecap:round; stroke-linejoin:round; stroke-width:4; stroke-opacity:1; fill:none" points="390.44,711.56 390.44,972.866 869.578,972.866 869.578,711.56 390.44,711.56 "/>
<path clip-path="url(#clip932)" d="M1074.92 1285.5 L1074.92 1285.5 L1554.06 1285.5 L1554.06 1285.5 L1074.92 1285.5 L1074.92 1285.5  Z" fill="#e26f46" fill-rule="evenodd" fill-opacity="1"/>
<polyline clip-path="url(#clip932)" style="stroke:#000000; stroke-linecap:round; stroke-linejoin:round; stroke-width:4; stroke-opacity:1; fill:none" points="1074.92,1285.5 1074.92,1285.5 1554.06,1285.5 1074.92,1285.5 "/>
<path clip-path="url(#clip932)" d="M1759.41 1431.35 L1759.41 1438.96 L2238.54 1438.96 L2238.54 1431.35 L1759.41 1431.35 L1759.41 1431.35  Z" fill="#e26f46" fill-rule="evenodd" fill-opacity="1"/>
<polyline clip-path="url(#clip932)" style="stroke:#000000; stroke-linecap:round; stroke-linejoin:round; stroke-width:4; stroke-opacity:1; fill:none" points="1759.41,1431.35 1759.41,1438.96 2238.54,1438.96 2238.54,1431.35 1759.41,1431.35 "/>
<circle clip-path="url(#clip932)" style="fill:#e26f46; stroke:none; fill-opacity:0" cx="630.009" cy="711.56" r="2"/>
<circle clip-path="url(#clip932)" style="fill:#e26f46; stroke:none; fill-opacity:0" cx="1314.49" cy="1285.5" r="2"/>
<circle clip-path="url(#clip932)" style="fill:#e26f46; stroke:none; fill-opacity:0" cx="1998.97" cy="1431.35" r="2"/>
<path clip-path="url(#clip932)" d="M390.44 972.866 L390.44 1031.21 L869.578 1031.21 L869.578 972.866 L390.44 972.866 L390.44 972.866  Z" fill="#3da44d" fill-rule="evenodd" fill-opacity="1"/>
<polyline clip-path="url(#clip932)" style="stroke:#000000; stroke-linecap:round; stroke-linejoin:round; stroke-width:4; stroke-opacity:1; fill:none" points="390.44,972.866 390.44,1031.21 869.578,1031.21 869.578,972.866 390.44,972.866 "/>
<path clip-path="url(#clip932)" d="M1074.92 1285.5 L1074.92 1287.27 L1554.06 1287.27 L1554.06 1285.5 L1074.92 1285.5 L1074.92 1285.5  Z" fill="#3da44d" fill-rule="evenodd" fill-opacity="1"/>
<polyline clip-path="url(#clip932)" style="stroke:#000000; stroke-linecap:round; stroke-linejoin:round; stroke-width:4; stroke-opacity:1; fill:none" points="1074.92,1285.5 1074.92,1287.27 1554.06,1287.27 1554.06,1285.5 1074.92,1285.5 "/>
<path clip-path="url(#clip932)" d="M1759.41 1438.96 L1759.41 1442.5 L2238.54 1442.5 L2238.54 1438.96 L1759.41 1438.96 L1759.41 1438.96  Z" fill="#3da44d" fill-rule="evenodd" fill-opacity="1"/>
<polyline clip-path="url(#clip932)" style="stroke:#000000; stroke-linecap:round; stroke-linejoin:round; stroke-width:4; stroke-opacity:1; fill:none" points="1759.41,1438.96 1759.41,1442.5 2238.54,1442.5 2238.54,1438.96 1759.41,1438.96 "/>
<circle clip-path="url(#clip932)" style="fill:#3da44d; stroke:none; fill-opacity:0" cx="630.009" cy="972.866" r="2"/>
<circle clip-path="url(#clip932)" style="fill:#3da44d; stroke:none; fill-opacity:0" cx="1314.49" cy="1285.5" r="2"/>
<circle clip-path="url(#clip932)" style="fill:#3da44d; stroke:none; fill-opacity:0" cx="1998.97" cy="1438.96" r="2"/>
<path clip-path="url(#clip932)" d="M390.44 1031.21 L390.44 1031.21 L869.578 1031.21 L869.578 1031.21 L390.44 1031.21 L390.44 1031.21  Z" fill="#c271d2" fill-rule="evenodd" fill-opacity="1"/>
<polyline clip-path="url(#clip932)" style="stroke:#000000; stroke-linecap:round; stroke-linejoin:round; stroke-width:4; stroke-opacity:1; fill:none" points="390.44,1031.21 390.44,1031.21 869.578,1031.21 390.44,1031.21 "/>
<path clip-path="url(#clip932)" d="M1074.92 1287.27 L1074.92 1443.05 L1554.06 1443.05 L1554.06 1287.27 L1074.92 1287.27 L1074.92 1287.27  Z" fill="#c271d2" fill-rule="evenodd" fill-opacity="1"/>
<polyline clip-path="url(#clip932)" style="stroke:#000000; stroke-linecap:round; stroke-linejoin:round; stroke-width:4; stroke-opacity:1; fill:none" points="1074.92,1287.27 1074.92,1443.05 1554.06,1443.05 1554.06,1287.27 1074.92,1287.27 "/>
<path clip-path="url(#clip932)" d="M1759.41 1442.5 L1759.41 1442.5 L2238.54 1442.5 L2238.54 1442.5 L1759.41 1442.5 L1759.41 1442.5  Z" fill="#c271d2" fill-rule="evenodd" fill-opacity="1"/>
<polyline clip-path="url(#clip932)" style="stroke:#000000; stroke-linecap:round; stroke-linejoin:round; stroke-width:4; stroke-opacity:1; fill:none" points="1759.41,1442.5 1759.41,1442.5 2238.54,1442.5 1759.41,1442.5 "/>
<circle clip-path="url(#clip932)" style="fill:#c271d2; stroke:none; fill-opacity:0" cx="630.009" cy="1031.21" r="2"/>
<circle clip-path="url(#clip932)" style="fill:#c271d2; stroke:none; fill-opacity:0" cx="1314.49" cy="1287.27" r="2"/>
<circle clip-path="url(#clip932)" style="fill:#c271d2; stroke:none; fill-opacity:0" cx="1998.97" cy="1442.5" r="2"/>
<path clip-path="url(#clip932)" d="M390.44 1031.21 L390.44 1068.99 L869.578 1068.99 L869.578 1031.21 L390.44 1031.21 L390.44 1031.21  Z" fill="#ac8d18" fill-rule="evenodd" fill-opacity="1"/>
<polyline clip-path="url(#clip932)" style="stroke:#000000; stroke-linecap:round; stroke-linejoin:round; stroke-width:4; stroke-opacity:1; fill:none" points="390.44,1031.21 390.44,1068.99 869.578,1068.99 869.578,1031.21 390.44,1031.21 "/>
<path clip-path="url(#clip932)" d="M1074.92 1443.05 L1074.92 1445.72 L1554.06 1445.72 L1554.06 1443.05 L1074.92 1443.05 L1074.92 1443.05  Z" fill="#ac8d18" fill-rule="evenodd" fill-opacity="1"/>
<polyline clip-path="url(#clip932)" style="stroke:#000000; stroke-linecap:round; stroke-linejoin:round; stroke-width:4; stroke-opacity:1; fill:none" points="1074.92,1443.05 1074.92,1445.72 1554.06,1445.72 1554.06,1443.05 1074.92,1443.05 "/>
<path clip-path="url(#clip932)" d="M1759.41 1442.5 L1759.41 1445.72 L2238.54 1445.72 L2238.54 1442.5 L1759.41 1442.5 L1759.41 1442.5  Z" fill="#ac8d18" fill-rule="evenodd" fill-opacity="1"/>
<polyline clip-path="url(#clip932)" style="stroke:#000000; stroke-linecap:round; stroke-linejoin:round; stroke-width:4; stroke-opacity:1; fill:none" points="1759.41,1442.5 1759.41,1445.72 2238.54,1445.72 2238.54,1442.5 1759.41,1442.5 "/>
<circle clip-path="url(#clip932)" style="fill:#ac8d18; stroke:none; fill-opacity:0" cx="630.009" cy="1031.21" r="2"/>
<circle clip-path="url(#clip932)" style="fill:#ac8d18; stroke:none; fill-opacity:0" cx="1314.49" cy="1443.05" r="2"/>
<circle clip-path="url(#clip932)" style="fill:#ac8d18; stroke:none; fill-opacity:0" cx="1998.97" cy="1442.5" r="2"/>
<path clip-path="url(#clip932)" d="M390.44 1068.99 L390.44 1445.72 L869.578 1445.72 L869.578 1068.99 L390.44 1068.99 L390.44 1068.99  Z" fill="#00a9ad" fill-rule="evenodd" fill-opacity="1"/>
<polyline clip-path="url(#clip932)" style="stroke:#000000; stroke-linecap:round; stroke-linejoin:round; stroke-width:4; stroke-opacity:1; fill:none" points="390.44,1068.99 390.44,1445.72 869.578,1445.72 869.578,1068.99 390.44,1068.99 "/>
<path clip-path="url(#clip932)" d="M1074.92 1445.72 L1074.92 1445.72 L1554.06 1445.72 L1554.06 1445.72 L1074.92 1445.72 L1074.92 1445.72  Z" fill="#00a9ad" fill-rule="evenodd" fill-opacity="1"/>
<polyline clip-path="url(#clip932)" style="stroke:#000000; stroke-linecap:round; stroke-linejoin:round; stroke-width:4; stroke-opacity:1; fill:none" points="1074.92,1445.72 1074.92,1445.72 1554.06,1445.72 1074.92,1445.72 "/>
<path clip-path="url(#clip932)" d="M1759.41 1445.72 L1759.41 1445.72 L2238.54 1445.72 L2238.54 1445.72 L1759.41 1445.72 L1759.41 1445.72  Z" fill="#00a9ad" fill-rule="evenodd" fill-opacity="1"/>
<polyline clip-path="url(#clip932)" style="stroke:#000000; stroke-linecap:round; stroke-linejoin:round; stroke-width:4; stroke-opacity:1; fill:none" points="1759.41,1445.72 1759.41,1445.72 2238.54,1445.72 1759.41,1445.72 "/>
<circle clip-path="url(#clip932)" style="fill:#00a9ad; stroke:none; fill-opacity:0" cx="630.009" cy="1068.99" r="2"/>
<circle clip-path="url(#clip932)" style="fill:#00a9ad; stroke:none; fill-opacity:0" cx="1314.49" cy="1445.72" r="2"/>
<circle clip-path="url(#clip932)" style="fill:#00a9ad; stroke:none; fill-opacity:0" cx="1998.97" cy="1445.72" r="2"/>
<path clip-path="url(#clip930)" d="M1898.09 458.098 L2283.54 458.098 L2283.54 95.2176 L1898.09 95.2176  Z" fill="#ffffff" fill-rule="evenodd" fill-opacity="1"/>
<polyline clip-path="url(#clip930)" style="stroke:#000000; stroke-linecap:round; stroke-linejoin:round; stroke-width:4; stroke-opacity:1; fill:none" points="1898.09,458.098 2283.54,458.098 2283.54,95.2176 1898.09,95.2176 1898.09,458.098 "/>
<path clip-path="url(#clip930)" d="M1921.16 167.794 L2059.59 167.794 L2059.59 126.322 L1921.16 126.322 L1921.16 167.794  Z" fill="#009af9" fill-rule="evenodd" fill-opacity="1"/>
<polyline clip-path="url(#clip930)" style="stroke:#000000; stroke-linecap:round; stroke-linejoin:round; stroke-width:4; stroke-opacity:1; fill:none" points="1921.16,167.794 2059.59,167.794 2059.59,126.322 1921.16,126.322 1921.16,167.794 "/>
<path clip-path="url(#clip930)" d="M2082.67 129.778 L2087.39 129.778 L2094.66 158.99 L2101.9 129.778 L2107.16 129.778 L2114.42 158.99 L2121.67 129.778 L2126.42 129.778 L2117.74 164.338 L2111.86 164.338 L2104.56 134.338 L2097.2 164.338 L2091.32 164.338 L2082.67 129.778 Z" fill="#000000" fill-rule="nonzero" fill-opacity="1" /><path clip-path="url(#clip930)" d="M2131.39 138.412 L2135.65 138.412 L2135.65 164.338 L2131.39 164.338 L2131.39 138.412 M2131.39 128.319 L2135.65 128.319 L2135.65 133.713 L2131.39 133.713 L2131.39 128.319 Z" fill="#000000" fill-rule="nonzero" fill-opacity="1" /><path clip-path="url(#clip930)" d="M2166.11 148.689 L2166.11 164.338 L2161.86 164.338 L2161.86 148.828 Q2161.86 145.148 2160.42 143.319 Q2158.98 141.49 2156.11 141.49 Q2152.67 141.49 2150.67 143.69 Q2148.68 145.889 2148.68 149.685 L2148.68 164.338 L2144.4 164.338 L2144.4 138.412 L2148.68 138.412 L2148.68 142.44 Q2150.21 140.102 2152.27 138.944 Q2154.36 137.787 2157.06 137.787 Q2161.53 137.787 2163.82 140.565 Q2166.11 143.319 2166.11 148.689 Z" fill="#000000" fill-rule="nonzero" fill-opacity="1" /><path clip-path="url(#clip930)" d="M2191.67 142.347 L2191.67 128.319 L2195.93 128.319 L2195.93 164.338 L2191.67 164.338 L2191.67 160.449 Q2190.33 162.763 2188.27 163.898 Q2186.23 165.009 2183.36 165.009 Q2178.66 165.009 2175.7 161.259 Q2172.76 157.509 2172.76 151.398 Q2172.76 145.287 2175.7 141.537 Q2178.66 137.787 2183.36 137.787 Q2186.23 137.787 2188.27 138.921 Q2190.33 140.032 2191.67 142.347 M2177.16 151.398 Q2177.16 156.097 2179.08 158.782 Q2181.02 161.444 2184.4 161.444 Q2187.78 161.444 2189.73 158.782 Q2191.67 156.097 2191.67 151.398 Q2191.67 146.699 2189.73 144.037 Q2187.78 141.352 2184.4 141.352 Q2181.02 141.352 2179.08 144.037 Q2177.16 146.699 2177.16 151.398 Z" fill="#000000" fill-rule="nonzero" fill-opacity="1" /><path clip-path="url(#clip930)" d="M1921.16 219.634 L2059.59 219.634 L2059.59 178.162 L1921.16 178.162 L1921.16 219.634  Z" fill="#e26f46" fill-rule="evenodd" fill-opacity="1"/>
<polyline clip-path="url(#clip930)" style="stroke:#000000; stroke-linecap:round; stroke-linejoin:round; stroke-width:4; stroke-opacity:1; fill:none" points="1921.16,219.634 2059.59,219.634 2059.59,178.162 1921.16,178.162 1921.16,219.634 "/>
<path clip-path="url(#clip930)" d="M2087.34 185.46 L2087.34 198.446 L2093.22 198.446 Q2096.49 198.446 2098.27 196.756 Q2100.05 195.067 2100.05 191.942 Q2100.05 188.84 2098.27 187.15 Q2096.49 185.46 2093.22 185.46 L2087.34 185.46 M2082.67 181.618 L2093.22 181.618 Q2099.03 181.618 2101.99 184.256 Q2104.98 186.872 2104.98 191.942 Q2104.98 197.057 2101.99 199.673 Q2099.03 202.289 2093.22 202.289 L2087.34 202.289 L2087.34 216.178 L2082.67 216.178 L2082.67 181.618 Z" fill="#000000" fill-rule="nonzero" fill-opacity="1" /><path clip-path="url(#clip930)" d="M2120.17 216.178 L2106.97 181.618 L2111.86 181.618 L2122.8 210.715 L2133.78 181.618 L2138.64 181.618 L2125.47 216.178 L2120.17 216.178 Z" fill="#000000" fill-rule="nonzero" fill-opacity="1" /><path clip-path="url(#clip930)" d="M1921.16 271.474 L2059.59 271.474 L2059.59 230.002 L1921.16 230.002 L1921.16 271.474  Z" fill="#3da44d" fill-rule="evenodd" fill-opacity="1"/>
<polyline clip-path="url(#clip930)" style="stroke:#000000; stroke-linecap:round; stroke-linejoin:round; stroke-width:4; stroke-opacity:1; fill:none" points="1921.16,271.474 2059.59,271.474 2059.59,230.002 1921.16,230.002 1921.16,271.474 "/>
<path clip-path="url(#clip930)" d="M2108.22 263.087 L2108.22 253.805 L2100.58 253.805 L2100.58 249.962 L2112.85 249.962 L2112.85 264.8 Q2110.14 266.721 2106.88 267.717 Q2103.61 268.689 2099.91 268.689 Q2091.81 268.689 2087.23 263.967 Q2082.67 259.221 2082.67 250.772 Q2082.67 242.3 2087.23 237.578 Q2091.81 232.833 2099.91 232.833 Q2103.29 232.833 2106.32 233.666 Q2109.38 234.499 2111.95 236.12 L2111.95 241.096 Q2109.36 238.897 2106.44 237.786 Q2103.52 236.675 2100.3 236.675 Q2093.96 236.675 2090.77 240.217 Q2087.6 243.758 2087.6 250.772 Q2087.6 257.763 2090.77 261.305 Q2093.96 264.846 2100.3 264.846 Q2102.78 264.846 2104.73 264.43 Q2106.67 263.99 2108.22 263.087 Z" fill="#000000" fill-rule="nonzero" fill-opacity="1" /><path clip-path="url(#clip930)" d="M2132.99 254.985 Q2127.83 254.985 2125.84 256.166 Q2123.85 257.346 2123.85 260.194 Q2123.85 262.462 2125.33 263.805 Q2126.83 265.124 2129.4 265.124 Q2132.94 265.124 2135.07 262.624 Q2137.23 260.101 2137.23 255.934 L2137.23 254.985 L2132.99 254.985 M2141.48 253.226 L2141.48 268.018 L2137.23 268.018 L2137.23 264.082 Q2135.77 266.443 2133.59 267.578 Q2131.42 268.689 2128.27 268.689 Q2124.29 268.689 2121.92 266.467 Q2119.59 264.221 2119.59 260.471 Q2119.59 256.096 2122.5 253.874 Q2125.44 251.652 2131.25 251.652 L2137.23 251.652 L2137.23 251.235 Q2137.23 248.295 2135.28 246.698 Q2133.36 245.078 2129.86 245.078 Q2127.64 245.078 2125.54 245.61 Q2123.43 246.143 2121.49 247.207 L2121.49 243.272 Q2123.82 242.37 2126.02 241.93 Q2128.22 241.467 2130.3 241.467 Q2135.93 241.467 2138.71 244.383 Q2141.48 247.3 2141.48 253.226 Z" fill="#000000" fill-rule="nonzero" fill-opacity="1" /><path clip-path="url(#clip930)" d="M2166.79 242.856 L2166.79 246.883 Q2164.98 245.957 2163.04 245.495 Q2161.09 245.032 2159.01 245.032 Q2155.84 245.032 2154.24 246.004 Q2152.67 246.976 2152.67 248.92 Q2152.67 250.402 2153.8 251.258 Q2154.93 252.092 2158.36 252.856 L2159.82 253.18 Q2164.36 254.152 2166.25 255.934 Q2168.17 257.694 2168.17 260.865 Q2168.17 264.476 2165.3 266.582 Q2162.46 268.689 2157.46 268.689 Q2155.37 268.689 2153.11 268.272 Q2150.86 267.879 2148.36 267.068 L2148.36 262.67 Q2150.72 263.897 2153.01 264.522 Q2155.3 265.124 2157.55 265.124 Q2160.56 265.124 2162.18 264.106 Q2163.8 263.064 2163.8 261.189 Q2163.8 259.453 2162.62 258.527 Q2161.46 257.601 2157.5 256.744 L2156.02 256.397 Q2152.06 255.564 2150.3 253.851 Q2148.55 252.115 2148.55 249.106 Q2148.55 245.448 2151.14 243.458 Q2153.73 241.467 2158.5 241.467 Q2160.86 241.467 2162.94 241.814 Q2165.03 242.161 2166.79 242.856 Z" fill="#000000" fill-rule="nonzero" fill-opacity="1" /><path clip-path="url(#clip930)" d="M1921.16 323.314 L2059.59 323.314 L2059.59 281.842 L1921.16 281.842 L1921.16 323.314  Z" fill="#c271d2" fill-rule="evenodd" fill-opacity="1"/>
<polyline clip-path="url(#clip930)" style="stroke:#000000; stroke-linecap:round; stroke-linejoin:round; stroke-width:4; stroke-opacity:1; fill:none" points="1921.16,323.314 2059.59,323.314 2059.59,281.842 1921.16,281.842 1921.16,323.314 "/>
<path clip-path="url(#clip930)" d="M2082.67 285.298 L2087.34 285.298 L2087.34 299.464 L2104.33 299.464 L2104.33 285.298 L2109.01 285.298 L2109.01 319.858 L2104.33 319.858 L2104.33 303.399 L2087.34 303.399 L2087.34 319.858 L2082.67 319.858 L2082.67 285.298 Z" fill="#000000" fill-rule="nonzero" fill-opacity="1" /><path clip-path="url(#clip930)" d="M2128.92 322.265 Q2127.11 326.895 2125.4 328.307 Q2123.68 329.719 2120.81 329.719 L2117.41 329.719 L2117.41 326.154 L2119.91 326.154 Q2121.67 326.154 2122.64 325.32 Q2123.61 324.487 2124.8 321.385 L2125.56 319.441 L2115.07 293.932 L2119.59 293.932 L2127.69 314.209 L2135.79 293.932 L2140.3 293.932 L2128.92 322.265 Z" fill="#000000" fill-rule="nonzero" fill-opacity="1" /><path clip-path="url(#clip930)" d="M2163.24 297.867 L2163.24 283.839 L2167.5 283.839 L2167.5 319.858 L2163.24 319.858 L2163.24 315.969 Q2161.9 318.283 2159.84 319.418 Q2157.8 320.529 2154.93 320.529 Q2150.23 320.529 2147.27 316.779 Q2144.33 313.029 2144.33 306.918 Q2144.33 300.807 2147.27 297.057 Q2150.23 293.307 2154.93 293.307 Q2157.8 293.307 2159.84 294.441 Q2161.9 295.552 2163.24 297.867 M2148.73 306.918 Q2148.73 311.617 2150.65 314.302 Q2152.6 316.964 2155.98 316.964 Q2159.36 316.964 2161.3 314.302 Q2163.24 311.617 2163.24 306.918 Q2163.24 302.219 2161.3 299.557 Q2159.36 296.872 2155.98 296.872 Q2152.6 296.872 2150.65 299.557 Q2148.73 302.219 2148.73 306.918 Z" fill="#000000" fill-rule="nonzero" fill-opacity="1" /><path clip-path="url(#clip930)" d="M2191.3 297.913 Q2190.58 297.497 2189.73 297.311 Q2188.89 297.103 2187.87 297.103 Q2184.26 297.103 2182.32 299.464 Q2180.4 301.802 2180.4 306.2 L2180.4 319.858 L2176.11 319.858 L2176.11 293.932 L2180.4 293.932 L2180.4 297.96 Q2181.74 295.598 2183.89 294.464 Q2186.04 293.307 2189.12 293.307 Q2189.56 293.307 2190.1 293.376 Q2190.63 293.423 2191.28 293.538 L2191.3 297.913 Z" fill="#000000" fill-rule="nonzero" fill-opacity="1" /><path clip-path="url(#clip930)" d="M2204.77 296.918 Q2201.35 296.918 2199.35 299.603 Q2197.36 302.265 2197.36 306.918 Q2197.36 311.571 2199.33 314.256 Q2201.32 316.918 2204.77 316.918 Q2208.17 316.918 2210.17 314.233 Q2212.16 311.547 2212.16 306.918 Q2212.16 302.311 2210.17 299.626 Q2208.17 296.918 2204.77 296.918 M2204.77 293.307 Q2210.33 293.307 2213.5 296.918 Q2216.67 300.529 2216.67 306.918 Q2216.67 313.284 2213.5 316.918 Q2210.33 320.529 2204.77 320.529 Q2199.19 320.529 2196.02 316.918 Q2192.87 313.284 2192.87 306.918 Q2192.87 300.529 2196.02 296.918 Q2199.19 293.307 2204.77 293.307 Z" fill="#000000" fill-rule="nonzero" fill-opacity="1" /><path clip-path="url(#clip930)" d="M1921.16 375.154 L2059.59 375.154 L2059.59 333.682 L1921.16 333.682 L1921.16 375.154  Z" fill="#ac8d18" fill-rule="evenodd" fill-opacity="1"/>
<polyline clip-path="url(#clip930)" style="stroke:#000000; stroke-linecap:round; stroke-linejoin:round; stroke-width:4; stroke-opacity:1; fill:none" points="1921.16,375.154 2059.59,375.154 2059.59,333.682 1921.16,333.682 1921.16,375.154 "/>
<path clip-path="url(#clip930)" d="M2087.34 355.193 L2087.34 367.855 L2094.84 367.855 Q2098.61 367.855 2100.42 366.304 Q2102.25 364.73 2102.25 361.512 Q2102.25 358.272 2100.42 356.744 Q2098.61 355.193 2094.84 355.193 L2087.34 355.193 M2087.34 340.98 L2087.34 351.397 L2094.26 351.397 Q2097.69 351.397 2099.36 350.124 Q2101.05 348.827 2101.05 346.188 Q2101.05 343.573 2099.36 342.276 Q2097.69 340.98 2094.26 340.98 L2087.34 340.98 M2082.67 337.138 L2094.61 337.138 Q2099.96 337.138 2102.85 339.36 Q2105.74 341.582 2105.74 345.679 Q2105.74 348.85 2104.26 350.725 Q2102.78 352.6 2099.91 353.063 Q2103.36 353.804 2105.26 356.165 Q2107.18 358.503 2107.18 362.022 Q2107.18 366.651 2104.03 369.174 Q2100.88 371.698 2095.07 371.698 L2082.67 371.698 L2082.67 337.138 Z" fill="#000000" fill-rule="nonzero" fill-opacity="1" /><path clip-path="url(#clip930)" d="M2126.79 358.665 Q2121.62 358.665 2119.63 359.846 Q2117.64 361.026 2117.64 363.874 Q2117.64 366.142 2119.12 367.485 Q2120.63 368.804 2123.2 368.804 Q2126.74 368.804 2128.87 366.304 Q2131.02 363.781 2131.02 359.614 L2131.02 358.665 L2126.79 358.665 M2135.28 356.906 L2135.28 371.698 L2131.02 371.698 L2131.02 367.762 Q2129.56 370.123 2127.39 371.258 Q2125.21 372.369 2122.06 372.369 Q2118.08 372.369 2115.72 370.147 Q2113.38 367.901 2113.38 364.151 Q2113.38 359.776 2116.3 357.554 Q2119.24 355.332 2125.05 355.332 L2131.02 355.332 L2131.02 354.915 Q2131.02 351.975 2129.08 350.378 Q2127.16 348.758 2123.66 348.758 Q2121.44 348.758 2119.33 349.29 Q2117.23 349.823 2115.28 350.887 L2115.28 346.952 Q2117.62 346.05 2119.82 345.61 Q2122.02 345.147 2124.1 345.147 Q2129.73 345.147 2132.5 348.063 Q2135.28 350.98 2135.28 356.906 Z" fill="#000000" fill-rule="nonzero" fill-opacity="1" /><path clip-path="url(#clip930)" d="M2148.27 338.411 L2148.27 345.772 L2157.04 345.772 L2157.04 349.082 L2148.27 349.082 L2148.27 363.156 Q2148.27 366.327 2149.12 367.23 Q2150 368.133 2152.67 368.133 L2157.04 368.133 L2157.04 371.698 L2152.67 371.698 Q2147.73 371.698 2145.86 369.869 Q2143.98 368.017 2143.98 363.156 L2143.98 349.082 L2140.86 349.082 L2140.86 345.772 L2143.98 345.772 L2143.98 338.411 L2148.27 338.411 Z" fill="#000000" fill-rule="nonzero" fill-opacity="1" /><path clip-path="url(#clip930)" d="M2166.86 338.411 L2166.86 345.772 L2175.63 345.772 L2175.63 349.082 L2166.86 349.082 L2166.86 363.156 Q2166.86 366.327 2167.71 367.23 Q2168.59 368.133 2171.25 368.133 L2175.63 368.133 L2175.63 371.698 L2171.25 371.698 Q2166.32 371.698 2164.45 369.869 Q2162.57 368.017 2162.57 363.156 L2162.57 349.082 L2159.45 349.082 L2159.45 345.772 L2162.57 345.772 L2162.57 338.411 L2166.86 338.411 Z" fill="#000000" fill-rule="nonzero" fill-opacity="1" /><path clip-path="url(#clip930)" d="M2203.41 357.67 L2203.41 359.753 L2183.82 359.753 Q2184.1 364.151 2186.46 366.466 Q2188.85 368.758 2193.08 368.758 Q2195.54 368.758 2197.83 368.156 Q2200.14 367.554 2202.41 366.35 L2202.41 370.378 Q2200.12 371.35 2197.71 371.86 Q2195.3 372.369 2192.83 372.369 Q2186.62 372.369 2182.99 368.758 Q2179.38 365.147 2179.38 358.989 Q2179.38 352.624 2182.8 348.897 Q2186.25 345.147 2192.09 345.147 Q2197.32 345.147 2200.35 348.526 Q2203.41 351.883 2203.41 357.67 M2199.15 356.42 Q2199.1 352.925 2197.18 350.841 Q2195.28 348.758 2192.13 348.758 Q2188.57 348.758 2186.42 350.772 Q2184.29 352.786 2183.96 356.443 L2199.15 356.42 Z" fill="#000000" fill-rule="nonzero" fill-opacity="1" /><path clip-path="url(#clip930)" d="M2225.42 349.753 Q2224.7 349.337 2223.85 349.151 Q2223.01 348.943 2221.99 348.943 Q2218.38 348.943 2216.44 351.304 Q2214.52 353.642 2214.52 358.04 L2214.52 371.698 L2210.23 371.698 L2210.23 345.772 L2214.52 345.772 L2214.52 349.8 Q2215.86 347.438 2218.01 346.304 Q2220.17 345.147 2223.24 345.147 Q2223.68 345.147 2224.22 345.216 Q2224.75 345.263 2225.4 345.378 L2225.42 349.753 Z" fill="#000000" fill-rule="nonzero" fill-opacity="1" /><path clip-path="url(#clip930)" d="M2240.67 374.105 Q2238.87 378.735 2237.16 380.147 Q2235.44 381.559 2232.57 381.559 L2229.17 381.559 L2229.17 377.994 L2231.67 377.994 Q2233.43 377.994 2234.4 377.16 Q2235.37 376.327 2236.55 373.225 L2237.32 371.281 L2226.83 345.772 L2231.35 345.772 L2239.45 366.049 L2247.55 345.772 L2252.06 345.772 L2240.67 374.105 Z" fill="#000000" fill-rule="nonzero" fill-opacity="1" /><path clip-path="url(#clip930)" d="M1921.16 426.994 L2059.59 426.994 L2059.59 385.522 L1921.16 385.522 L1921.16 426.994  Z" fill="#00a9ad" fill-rule="evenodd" fill-opacity="1"/>
<polyline clip-path="url(#clip930)" style="stroke:#000000; stroke-linecap:round; stroke-linejoin:round; stroke-width:4; stroke-opacity:1; fill:none" points="1921.16,426.994 2059.59,426.994 2059.59,385.522 1921.16,385.522 1921.16,426.994 "/>
<path clip-path="url(#clip930)" d="M2082.67 388.978 L2088.96 388.978 L2104.29 417.889 L2104.29 388.978 L2108.82 388.978 L2108.82 423.538 L2102.53 423.538 L2087.2 394.626 L2087.2 423.538 L2082.67 423.538 L2082.67 388.978 Z" fill="#000000" fill-rule="nonzero" fill-opacity="1" /><path clip-path="url(#clip930)" d="M2117.5 413.306 L2117.5 397.612 L2121.76 397.612 L2121.76 413.144 Q2121.76 416.825 2123.2 418.676 Q2124.63 420.505 2127.5 420.505 Q2130.95 420.505 2132.94 418.306 Q2134.96 416.107 2134.96 412.311 L2134.96 397.612 L2139.22 397.612 L2139.22 423.538 L2134.96 423.538 L2134.96 419.556 Q2133.41 421.917 2131.35 423.075 Q2129.31 424.209 2126.6 424.209 Q2122.13 424.209 2119.82 421.431 Q2117.5 418.653 2117.5 413.306 M2128.22 396.987 L2128.22 396.987 Z" fill="#000000" fill-rule="nonzero" fill-opacity="1" /><path clip-path="url(#clip930)" d="M2166.65 398.607 L2166.65 402.589 Q2164.84 401.593 2163.01 401.107 Q2161.21 400.598 2159.36 400.598 Q2155.21 400.598 2152.92 403.237 Q2150.63 405.852 2150.63 410.598 Q2150.63 415.343 2152.92 417.982 Q2155.21 420.598 2159.36 420.598 Q2161.21 420.598 2163.01 420.112 Q2164.84 419.602 2166.65 418.607 L2166.65 422.542 Q2164.86 423.376 2162.94 423.792 Q2161.04 424.209 2158.89 424.209 Q2153.04 424.209 2149.59 420.528 Q2146.14 416.848 2146.14 410.598 Q2146.14 404.255 2149.61 400.621 Q2153.11 396.987 2159.17 396.987 Q2161.14 396.987 2163.01 397.403 Q2164.89 397.797 2166.65 398.607 Z" fill="#000000" fill-rule="nonzero" fill-opacity="1" /><path clip-path="url(#clip930)" d="M2174.05 387.519 L2178.31 387.519 L2178.31 423.538 L2174.05 423.538 L2174.05 387.519 Z" fill="#000000" fill-rule="nonzero" fill-opacity="1" /><path clip-path="url(#clip930)" d="M2209.4 409.51 L2209.4 411.593 L2189.82 411.593 Q2190.1 415.991 2192.46 418.306 Q2194.84 420.598 2199.08 420.598 Q2201.53 420.598 2203.82 419.996 Q2206.14 419.394 2208.41 418.19 L2208.41 422.218 Q2206.11 423.19 2203.71 423.7 Q2201.3 424.209 2198.82 424.209 Q2192.62 424.209 2188.98 420.598 Q2185.37 416.987 2185.37 410.829 Q2185.37 404.464 2188.8 400.737 Q2192.25 396.987 2198.08 396.987 Q2203.31 396.987 2206.35 400.366 Q2209.4 403.723 2209.4 409.51 M2205.14 408.26 Q2205.1 404.765 2203.17 402.681 Q2201.28 400.598 2198.13 400.598 Q2194.56 400.598 2192.41 402.612 Q2190.28 404.626 2189.96 408.283 L2205.14 408.26 Z" fill="#000000" fill-rule="nonzero" fill-opacity="1" /><path clip-path="url(#clip930)" d="M2228.17 410.505 Q2223.01 410.505 2221.02 411.686 Q2219.03 412.866 2219.03 415.714 Q2219.03 417.982 2220.51 419.325 Q2222.02 420.644 2224.59 420.644 Q2228.13 420.644 2230.26 418.144 Q2232.41 415.621 2232.41 411.454 L2232.41 410.505 L2228.17 410.505 M2236.67 408.746 L2236.67 423.538 L2232.41 423.538 L2232.41 419.602 Q2230.95 421.963 2228.78 423.098 Q2226.6 424.209 2223.45 424.209 Q2219.47 424.209 2217.11 421.987 Q2214.77 419.741 2214.77 415.991 Q2214.77 411.616 2217.69 409.394 Q2220.63 407.172 2226.44 407.172 L2232.41 407.172 L2232.41 406.755 Q2232.41 403.815 2230.47 402.218 Q2228.54 400.598 2225.05 400.598 Q2222.83 400.598 2220.72 401.13 Q2218.61 401.663 2216.67 402.727 L2216.67 398.792 Q2219.01 397.89 2221.21 397.45 Q2223.41 396.987 2225.49 396.987 Q2231.11 396.987 2233.89 399.903 Q2236.67 402.82 2236.67 408.746 Z" fill="#000000" fill-rule="nonzero" fill-opacity="1" /><path clip-path="url(#clip930)" d="M2260.47 401.593 Q2259.75 401.177 2258.89 400.991 Q2258.06 400.783 2257.04 400.783 Q2253.43 400.783 2251.48 403.144 Q2249.56 405.482 2249.56 409.88 L2249.56 423.538 L2245.28 423.538 L2245.28 397.612 L2249.56 397.612 L2249.56 401.64 Q2250.91 399.278 2253.06 398.144 Q2255.21 396.987 2258.29 396.987 Q2258.73 396.987 2259.26 397.056 Q2259.79 397.103 2260.44 397.218 L2260.47 401.593 Z" fill="#000000" fill-rule="nonzero" fill-opacity="1" /></svg>
