<?xml version="1.0" encoding="utf-8"?>
<svg xmlns="http://www.w3.org/2000/svg" xmlns:xlink="http://www.w3.org/1999/xlink" width="600" height="400" viewBox="0 0 2400 1600">
<defs>
  <clipPath id="clip590">
    <rect x="0" y="0" width="2400" height="1600"/>
  </clipPath>
</defs>
<path clip-path="url(#clip590)" d="M0 1600 L2400 1600 L2400 0 L0 0  Z" fill="#ffffff" fill-rule="evenodd" fill-opacity="1"/>
<defs>
  <clipPath id="clip591">
    <rect x="480" y="0" width="1681" height="1600"/>
  </clipPath>
</defs>
<path clip-path="url(#clip590)" d="M303.956 1486.45 L2352.76 1486.45 L2352.76 47.2441 L303.956 47.2441  Z" fill="#ffffff" fill-rule="evenodd" fill-opacity="1"/>
<defs>
  <clipPath id="clip592">
    <rect x="303" y="47" width="2050" height="1440"/>
  </clipPath>
</defs>
<polyline clip-path="url(#clip592)" style="stroke:#000000; stroke-linecap:round; stroke-linejoin:round; stroke-width:2; stroke-opacity:0.1; fill:none" points="653.013,1486.45 653.013,47.2441 "/>
<polyline clip-path="url(#clip592)" style="stroke:#000000; stroke-linecap:round; stroke-linejoin:round; stroke-width:2; stroke-opacity:0.1; fill:none" points="1328.36,1486.45 1328.36,47.2441 "/>
<polyline clip-path="url(#clip592)" style="stroke:#000000; stroke-linecap:round; stroke-linejoin:round; stroke-width:2; stroke-opacity:0.1; fill:none" points="2003.7,1486.45 2003.7,47.2441 "/>
<polyline clip-path="url(#clip590)" style="stroke:#000000; stroke-linecap:round; stroke-linejoin:round; stroke-width:4; stroke-opacity:1; fill:none" points="303.956,1486.45 2352.76,1486.45 "/>
<polyline clip-path="url(#clip590)" style="stroke:#000000; stroke-linecap:round; stroke-linejoin:round; stroke-width:4; stroke-opacity:1; fill:none" points="653.013,1486.45 653.013,1467.55 "/>
<polyline clip-path="url(#clip590)" style="stroke:#000000; stroke-linecap:round; stroke-linejoin:round; stroke-width:4; stroke-opacity:1; fill:none" points="1328.36,1486.45 1328.36,1467.55 "/>
<polyline clip-path="url(#clip590)" style="stroke:#000000; stroke-linecap:round; stroke-linejoin:round; stroke-width:4; stroke-opacity:1; fill:none" points="2003.7,1486.45 2003.7,1467.55 "/>
<path clip-path="url(#clip590)" d="M571.659 1543.92 L571.659 1534.63 L564.021 1534.63 L564.021 1530.79 L576.289 1530.79 L576.289 1545.63 Q573.581 1547.55 570.317 1548.55 Q567.053 1549.52 563.349 1549.52 Q555.248 1549.52 550.664 1544.8 Q546.104 1540.05 546.104 1531.6 Q546.104 1523.13 550.664 1518.41 Q555.248 1513.66 563.349 1513.66 Q566.729 1513.66 569.761 1514.5 Q572.817 1515.33 575.386 1516.95 L575.386 1521.93 Q572.794 1519.73 569.877 1518.62 Q566.96 1517.51 563.743 1517.51 Q557.4 1517.51 554.206 1521.05 Q551.035 1524.59 551.035 1531.6 Q551.035 1538.59 554.206 1542.13 Q557.4 1545.68 563.743 1545.68 Q566.22 1545.68 568.164 1545.26 Q570.109 1544.82 571.659 1543.92 Z" fill="#000000" fill-rule="nonzero" fill-opacity="1" /><path clip-path="url(#clip590)" d="M606.821 1534.82 L606.821 1536.9 L587.238 1536.9 Q587.516 1541.3 589.877 1543.62 Q592.261 1545.91 596.497 1545.91 Q598.951 1545.91 601.243 1545.31 Q603.557 1544.7 605.826 1543.5 L605.826 1547.53 Q603.534 1548.5 601.127 1549.01 Q598.72 1549.52 596.243 1549.52 Q590.039 1549.52 586.405 1545.91 Q582.794 1542.3 582.794 1536.14 Q582.794 1529.77 586.22 1526.05 Q589.669 1522.3 595.502 1522.3 Q600.733 1522.3 603.766 1525.68 Q606.821 1529.03 606.821 1534.82 M602.562 1533.57 Q602.516 1530.07 600.595 1527.99 Q598.696 1525.91 595.548 1525.91 Q591.983 1525.91 589.831 1527.92 Q587.701 1529.94 587.377 1533.59 L602.562 1533.57 Z" fill="#000000" fill-rule="nonzero" fill-opacity="1" /><path clip-path="url(#clip590)" d="M628.835 1526.9 Q628.118 1526.49 627.261 1526.3 Q626.428 1526.09 625.409 1526.09 Q621.798 1526.09 619.854 1528.45 Q617.932 1530.79 617.932 1535.19 L617.932 1548.85 L613.65 1548.85 L613.65 1522.92 L617.932 1522.92 L617.932 1526.95 Q619.275 1524.59 621.428 1523.45 Q623.581 1522.3 626.659 1522.3 Q627.099 1522.3 627.631 1522.37 Q628.164 1522.41 628.812 1522.53 L628.835 1526.9 Z" fill="#000000" fill-rule="nonzero" fill-opacity="1" /><path clip-path="url(#clip590)" d="M652.654 1527.9 Q654.252 1525.03 656.474 1523.66 Q658.696 1522.3 661.705 1522.3 Q665.756 1522.3 667.955 1525.14 Q670.154 1527.97 670.154 1533.2 L670.154 1548.85 L665.872 1548.85 L665.872 1533.34 Q665.872 1529.61 664.553 1527.81 Q663.233 1526 660.525 1526 Q657.215 1526 655.293 1528.2 Q653.372 1530.4 653.372 1534.2 L653.372 1548.85 L649.09 1548.85 L649.09 1533.34 Q649.09 1529.59 647.77 1527.81 Q646.451 1526 643.696 1526 Q640.432 1526 638.511 1528.22 Q636.59 1530.42 636.59 1534.2 L636.59 1548.85 L632.307 1548.85 L632.307 1522.92 L636.59 1522.92 L636.59 1526.95 Q638.048 1524.57 640.085 1523.43 Q642.122 1522.3 644.923 1522.3 Q647.747 1522.3 649.715 1523.73 Q651.705 1525.17 652.654 1527.9 Z" fill="#000000" fill-rule="nonzero" fill-opacity="1" /><path clip-path="url(#clip590)" d="M690.432 1535.82 Q685.27 1535.82 683.279 1537 Q681.289 1538.18 681.289 1541.02 Q681.289 1543.29 682.77 1544.63 Q684.275 1545.95 686.844 1545.95 Q690.386 1545.95 692.515 1543.45 Q694.668 1540.93 694.668 1536.76 L694.668 1535.82 L690.432 1535.82 M698.927 1534.06 L698.927 1548.85 L694.668 1548.85 L694.668 1544.91 Q693.21 1547.27 691.034 1548.41 Q688.858 1549.52 685.71 1549.52 Q681.728 1549.52 679.367 1547.3 Q677.029 1545.05 677.029 1541.3 Q677.029 1536.93 679.946 1534.7 Q682.886 1532.48 688.696 1532.48 L694.668 1532.48 L694.668 1532.07 Q694.668 1529.13 692.724 1527.53 Q690.802 1525.91 687.307 1525.91 Q685.085 1525.91 682.978 1526.44 Q680.872 1526.97 678.927 1528.04 L678.927 1524.1 Q681.265 1523.2 683.464 1522.76 Q685.664 1522.3 687.747 1522.3 Q693.372 1522.3 696.15 1525.21 Q698.927 1528.13 698.927 1534.06 Z" fill="#000000" fill-rule="nonzero" fill-opacity="1" /><path clip-path="url(#clip590)" d="M729.251 1533.2 L729.251 1548.85 L724.992 1548.85 L724.992 1533.34 Q724.992 1529.66 723.557 1527.83 Q722.122 1526 719.251 1526 Q715.802 1526 713.812 1528.2 Q711.821 1530.4 711.821 1534.2 L711.821 1548.85 L707.538 1548.85 L707.538 1522.92 L711.821 1522.92 L711.821 1526.95 Q713.349 1524.61 715.409 1523.45 Q717.492 1522.3 720.2 1522.3 Q724.668 1522.3 726.96 1525.07 Q729.251 1527.83 729.251 1533.2 Z" fill="#000000" fill-rule="nonzero" fill-opacity="1" /><path clip-path="url(#clip590)" d="M748.534 1551.26 Q746.728 1555.88 745.015 1557.3 Q743.302 1558.71 740.432 1558.71 L737.029 1558.71 L737.029 1555.14 L739.529 1555.14 Q741.288 1555.14 742.26 1554.31 Q743.233 1553.48 744.413 1550.38 L745.177 1548.43 L734.691 1522.92 L739.205 1522.92 L747.307 1543.2 L755.409 1522.92 L759.922 1522.92 L748.534 1551.26 Z" fill="#000000" fill-rule="nonzero" fill-opacity="1" /><path clip-path="url(#clip590)" d="M1260.51 1515.42 L1260.51 1519.98 Q1257.85 1518.71 1255.49 1518.08 Q1253.12 1517.46 1250.93 1517.46 Q1247.11 1517.46 1245.02 1518.94 Q1242.96 1520.42 1242.96 1523.15 Q1242.96 1525.45 1244.33 1526.63 Q1245.72 1527.78 1249.56 1528.5 L1252.38 1529.08 Q1257.62 1530.07 1260.09 1532.6 Q1262.59 1535.1 1262.59 1539.31 Q1262.59 1544.33 1259.21 1546.93 Q1255.86 1549.52 1249.35 1549.52 Q1246.9 1549.52 1244.12 1548.96 Q1241.37 1548.41 1238.4 1547.32 L1238.4 1542.51 Q1241.25 1544.1 1243.98 1544.91 Q1246.71 1545.72 1249.35 1545.72 Q1253.36 1545.72 1255.53 1544.15 Q1257.71 1542.57 1257.71 1539.66 Q1257.71 1537.11 1256.13 1535.68 Q1254.58 1534.24 1251.02 1533.52 L1248.17 1532.97 Q1242.94 1531.93 1240.6 1529.7 Q1238.26 1527.48 1238.26 1523.52 Q1238.26 1518.94 1241.48 1516.3 Q1244.72 1513.66 1250.39 1513.66 Q1252.82 1513.66 1255.35 1514.1 Q1257.87 1514.54 1260.51 1515.42 Z" fill="#000000" fill-rule="nonzero" fill-opacity="1" /><path clip-path="url(#clip590)" d="M1267.22 1522.92 L1271.48 1522.92 L1276.81 1543.15 L1282.11 1522.92 L1287.13 1522.92 L1292.45 1543.15 L1297.75 1522.92 L1302.01 1522.92 L1295.23 1548.85 L1290.21 1548.85 L1284.63 1527.6 L1279.03 1548.85 L1274 1548.85 L1267.22 1522.92 Z" fill="#000000" fill-rule="nonzero" fill-opacity="1" /><path clip-path="url(#clip590)" d="M1330.65 1534.82 L1330.65 1536.9 L1311.06 1536.9 Q1311.34 1541.3 1313.7 1543.62 Q1316.09 1545.91 1320.32 1545.91 Q1322.78 1545.91 1325.07 1545.31 Q1327.38 1544.7 1329.65 1543.5 L1329.65 1547.53 Q1327.36 1548.5 1324.95 1549.01 Q1322.55 1549.52 1320.07 1549.52 Q1313.87 1549.52 1310.23 1545.91 Q1306.62 1542.3 1306.62 1536.14 Q1306.62 1529.77 1310.05 1526.05 Q1313.49 1522.3 1319.33 1522.3 Q1324.56 1522.3 1327.59 1525.68 Q1330.65 1529.03 1330.65 1534.82 M1326.39 1533.57 Q1326.34 1530.07 1324.42 1527.99 Q1322.52 1525.91 1319.37 1525.91 Q1315.81 1525.91 1313.66 1527.92 Q1311.53 1529.94 1311.2 1533.59 L1326.39 1533.57 Z" fill="#000000" fill-rule="nonzero" fill-opacity="1" /><path clip-path="url(#clip590)" d="M1354.7 1526.86 L1354.7 1512.83 L1358.96 1512.83 L1358.96 1548.85 L1354.7 1548.85 L1354.7 1544.96 Q1353.36 1547.27 1351.3 1548.41 Q1349.26 1549.52 1346.39 1549.52 Q1341.69 1549.52 1338.73 1545.77 Q1335.79 1542.02 1335.79 1535.91 Q1335.79 1529.8 1338.73 1526.05 Q1341.69 1522.3 1346.39 1522.3 Q1349.26 1522.3 1351.3 1523.43 Q1353.36 1524.54 1354.7 1526.86 M1340.18 1535.91 Q1340.18 1540.61 1342.11 1543.29 Q1344.05 1545.95 1347.43 1545.95 Q1350.81 1545.95 1352.75 1543.29 Q1354.7 1540.61 1354.7 1535.91 Q1354.7 1531.21 1352.75 1528.55 Q1350.81 1525.86 1347.43 1525.86 Q1344.05 1525.86 1342.11 1528.55 Q1340.18 1531.21 1340.18 1535.91 Z" fill="#000000" fill-rule="nonzero" fill-opacity="1" /><path clip-path="url(#clip590)" d="M1389.91 1534.82 L1389.91 1536.9 L1370.32 1536.9 Q1370.6 1541.3 1372.96 1543.62 Q1375.35 1545.91 1379.58 1545.91 Q1382.04 1545.91 1384.33 1545.31 Q1386.64 1544.7 1388.91 1543.5 L1388.91 1547.53 Q1386.62 1548.5 1384.21 1549.01 Q1381.8 1549.52 1379.33 1549.52 Q1373.12 1549.52 1369.49 1545.91 Q1365.88 1542.3 1365.88 1536.14 Q1365.88 1529.77 1369.3 1526.05 Q1372.75 1522.3 1378.59 1522.3 Q1383.82 1522.3 1386.85 1525.68 Q1389.91 1529.03 1389.91 1534.82 M1385.65 1533.57 Q1385.6 1530.07 1383.68 1527.99 Q1381.78 1525.91 1378.63 1525.91 Q1375.07 1525.91 1372.92 1527.92 Q1370.79 1529.94 1370.46 1533.59 L1385.65 1533.57 Z" fill="#000000" fill-rule="nonzero" fill-opacity="1" /><path clip-path="url(#clip590)" d="M1418.45 1533.2 L1418.45 1548.85 L1414.19 1548.85 L1414.19 1533.34 Q1414.19 1529.66 1412.75 1527.83 Q1411.32 1526 1408.45 1526 Q1405 1526 1403.01 1528.2 Q1401.02 1530.4 1401.02 1534.2 L1401.02 1548.85 L1396.74 1548.85 L1396.74 1522.92 L1401.02 1522.92 L1401.02 1526.95 Q1402.55 1524.61 1404.61 1523.45 Q1406.69 1522.3 1409.4 1522.3 Q1413.86 1522.3 1416.16 1525.07 Q1418.45 1527.83 1418.45 1533.2 Z" fill="#000000" fill-rule="nonzero" fill-opacity="1" /><path clip-path="url(#clip590)" d="M1901.82 1518.13 L1901.82 1545.01 L1907.47 1545.01 Q1914.62 1545.01 1917.93 1541.76 Q1921.27 1538.52 1921.27 1531.53 Q1921.27 1524.59 1917.93 1521.37 Q1914.62 1518.13 1907.47 1518.13 L1901.82 1518.13 M1897.15 1514.29 L1906.75 1514.29 Q1916.8 1514.29 1921.5 1518.48 Q1926.2 1522.64 1926.2 1531.53 Q1926.2 1540.47 1921.48 1544.66 Q1916.75 1548.85 1906.75 1548.85 L1897.15 1548.85 L1897.15 1514.29 Z" fill="#000000" fill-rule="nonzero" fill-opacity="1" /><path clip-path="url(#clip590)" d="M1955.64 1534.82 L1955.64 1536.9 L1936.06 1536.9 Q1936.34 1541.3 1938.7 1543.62 Q1941.08 1545.91 1945.32 1545.91 Q1947.77 1545.91 1950.06 1545.31 Q1952.38 1544.7 1954.65 1543.5 L1954.65 1547.53 Q1952.36 1548.5 1949.95 1549.01 Q1947.54 1549.52 1945.06 1549.52 Q1938.86 1549.52 1935.23 1545.91 Q1931.62 1542.3 1931.62 1536.14 Q1931.62 1529.77 1935.04 1526.05 Q1938.49 1522.3 1944.32 1522.3 Q1949.56 1522.3 1952.59 1525.68 Q1955.64 1529.03 1955.64 1534.82 M1951.38 1533.57 Q1951.34 1530.07 1949.42 1527.99 Q1947.52 1525.91 1944.37 1525.91 Q1940.81 1525.91 1938.65 1527.92 Q1936.52 1529.94 1936.2 1533.59 L1951.38 1533.57 Z" fill="#000000" fill-rule="nonzero" fill-opacity="1" /><path clip-path="url(#clip590)" d="M1984.18 1533.2 L1984.18 1548.85 L1979.93 1548.85 L1979.93 1533.34 Q1979.93 1529.66 1978.49 1527.83 Q1977.05 1526 1974.18 1526 Q1970.74 1526 1968.74 1528.2 Q1966.75 1530.4 1966.75 1534.2 L1966.75 1548.85 L1962.47 1548.85 L1962.47 1522.92 L1966.75 1522.92 L1966.75 1526.95 Q1968.28 1524.61 1970.34 1523.45 Q1972.43 1522.3 1975.13 1522.3 Q1979.6 1522.3 1981.89 1525.07 Q1984.18 1527.83 1984.18 1533.2 Z" fill="#000000" fill-rule="nonzero" fill-opacity="1" /><path clip-path="url(#clip590)" d="M2012.86 1527.9 Q2014.46 1525.03 2016.68 1523.66 Q2018.91 1522.3 2021.92 1522.3 Q2025.97 1522.3 2028.17 1525.14 Q2030.36 1527.97 2030.36 1533.2 L2030.36 1548.85 L2026.08 1548.85 L2026.08 1533.34 Q2026.08 1529.61 2024.76 1527.81 Q2023.44 1526 2020.74 1526 Q2017.43 1526 2015.5 1528.2 Q2013.58 1530.4 2013.58 1534.2 L2013.58 1548.85 L2009.3 1548.85 L2009.3 1533.34 Q2009.3 1529.59 2007.98 1527.81 Q2006.66 1526 2003.91 1526 Q2000.64 1526 1998.72 1528.22 Q1996.8 1530.42 1996.8 1534.2 L1996.8 1548.85 L1992.52 1548.85 L1992.52 1522.92 L1996.8 1522.92 L1996.8 1526.95 Q1998.26 1524.57 2000.3 1523.43 Q2002.33 1522.3 2005.13 1522.3 Q2007.96 1522.3 2009.93 1523.73 Q2011.92 1525.17 2012.86 1527.9 Z" fill="#000000" fill-rule="nonzero" fill-opacity="1" /><path clip-path="url(#clip590)" d="M2050.64 1535.82 Q2045.48 1535.82 2043.49 1537 Q2041.5 1538.18 2041.5 1541.02 Q2041.5 1543.29 2042.98 1544.63 Q2044.49 1545.95 2047.05 1545.95 Q2050.6 1545.95 2052.73 1543.45 Q2054.88 1540.93 2054.88 1536.76 L2054.88 1535.82 L2050.64 1535.82 M2059.14 1534.06 L2059.14 1548.85 L2054.88 1548.85 L2054.88 1544.91 Q2053.42 1547.27 2051.24 1548.41 Q2049.07 1549.52 2045.92 1549.52 Q2041.94 1549.52 2039.58 1547.3 Q2037.24 1545.05 2037.24 1541.3 Q2037.24 1536.93 2040.16 1534.7 Q2043.1 1532.48 2048.91 1532.48 L2054.88 1532.48 L2054.88 1532.07 Q2054.88 1529.13 2052.93 1527.53 Q2051.01 1525.91 2047.52 1525.91 Q2045.3 1525.91 2043.19 1526.44 Q2041.08 1526.97 2039.14 1528.04 L2039.14 1524.1 Q2041.48 1523.2 2043.67 1522.76 Q2045.87 1522.3 2047.96 1522.3 Q2053.58 1522.3 2056.36 1525.21 Q2059.14 1528.13 2059.14 1534.06 Z" fill="#000000" fill-rule="nonzero" fill-opacity="1" /><path clip-path="url(#clip590)" d="M2082.93 1526.9 Q2082.22 1526.49 2081.36 1526.3 Q2080.53 1526.09 2079.51 1526.09 Q2075.9 1526.09 2073.95 1528.45 Q2072.03 1530.79 2072.03 1535.19 L2072.03 1548.85 L2067.75 1548.85 L2067.75 1522.92 L2072.03 1522.92 L2072.03 1526.95 Q2073.37 1524.59 2075.53 1523.45 Q2077.68 1522.3 2080.76 1522.3 Q2081.2 1522.3 2081.73 1522.37 Q2082.26 1522.41 2082.91 1522.53 L2082.93 1526.9 Z" fill="#000000" fill-rule="nonzero" fill-opacity="1" /><path clip-path="url(#clip590)" d="M2087.24 1512.83 L2091.52 1512.83 L2091.52 1534.1 L2104.23 1522.92 L2109.67 1522.92 L2095.92 1535.05 L2110.25 1548.85 L2104.69 1548.85 L2091.52 1536.19 L2091.52 1548.85 L2087.24 1548.85 L2087.24 1512.83 Z" fill="#000000" fill-rule="nonzero" fill-opacity="1" /><polyline clip-path="url(#clip592)" style="stroke:#000000; stroke-linecap:round; stroke-linejoin:round; stroke-width:2; stroke-opacity:0.1; fill:none" points="303.956,1445.72 2352.76,1445.72 "/>
<polyline clip-path="url(#clip592)" style="stroke:#000000; stroke-linecap:round; stroke-linejoin:round; stroke-width:2; stroke-opacity:0.1; fill:none" points="303.956,1033.85 2352.76,1033.85 "/>
<polyline clip-path="url(#clip592)" style="stroke:#000000; stroke-linecap:round; stroke-linejoin:round; stroke-width:2; stroke-opacity:0.1; fill:none" points="303.956,621.993 2352.76,621.993 "/>
<polyline clip-path="url(#clip592)" style="stroke:#000000; stroke-linecap:round; stroke-linejoin:round; stroke-width:2; stroke-opacity:0.1; fill:none" points="303.956,210.132 2352.76,210.132 "/>
<polyline clip-path="url(#clip590)" style="stroke:#000000; stroke-linecap:round; stroke-linejoin:round; stroke-width:4; stroke-opacity:1; fill:none" points="303.956,1486.45 303.956,47.2441 "/>
<polyline clip-path="url(#clip590)" style="stroke:#000000; stroke-linecap:round; stroke-linejoin:round; stroke-width:4; stroke-opacity:1; fill:none" points="303.956,1445.72 322.853,1445.72 "/>
<polyline clip-path="url(#clip590)" style="stroke:#000000; stroke-linecap:round; stroke-linejoin:round; stroke-width:4; stroke-opacity:1; fill:none" points="303.956,1033.85 322.853,1033.85 "/>
<polyline clip-path="url(#clip590)" style="stroke:#000000; stroke-linecap:round; stroke-linejoin:round; stroke-width:4; stroke-opacity:1; fill:none" points="303.956,621.993 322.853,621.993 "/>
<polyline clip-path="url(#clip590)" style="stroke:#000000; stroke-linecap:round; stroke-linejoin:round; stroke-width:4; stroke-opacity:1; fill:none" points="303.956,210.132 322.853,210.132 "/>
<path clip-path="url(#clip590)" d="M256.011 1431.51 Q252.4 1431.51 250.571 1435.08 Q248.766 1438.62 248.766 1445.75 Q248.766 1452.86 250.571 1456.42 Q252.4 1459.96 256.011 1459.96 Q259.646 1459.96 261.451 1456.42 Q263.28 1452.86 263.28 1445.75 Q263.28 1438.62 261.451 1435.08 Q259.646 1431.51 256.011 1431.51 M256.011 1427.81 Q261.821 1427.81 264.877 1432.42 Q267.956 1437 267.956 1445.75 Q267.956 1454.48 264.877 1459.08 Q261.821 1463.67 256.011 1463.67 Q250.201 1463.67 247.122 1459.08 Q244.067 1454.48 244.067 1445.75 Q244.067 1437 247.122 1432.42 Q250.201 1427.81 256.011 1427.81 Z" fill="#000000" fill-rule="nonzero" fill-opacity="1" /><path clip-path="url(#clip590)" d="M52.4505 1023.02 L70.8068 1023.02 L70.8068 1026.96 L56.7328 1026.96 L56.7328 1035.43 Q57.7513 1035.08 58.7699 1034.92 Q59.7884 1034.73 60.8069 1034.73 Q66.5939 1034.73 69.9735 1037.91 Q73.3531 1041.08 73.3531 1046.49 Q73.3531 1052.07 69.8809 1055.17 Q66.4087 1058.25 60.0893 1058.25 Q57.9134 1058.25 55.6449 1057.88 Q53.3995 1057.51 50.9921 1056.77 L50.9921 1052.07 Q53.0754 1053.21 55.2977 1053.76 Q57.5199 1054.32 59.9967 1054.32 Q64.0013 1054.32 66.3393 1052.21 Q68.6772 1050.11 68.6772 1046.49 Q68.6772 1042.88 66.3393 1040.78 Q64.0013 1038.67 59.9967 1038.67 Q58.1217 1038.67 56.2467 1039.09 Q54.3949 1039.5 52.4505 1040.38 L52.4505 1023.02 Z" fill="#000000" fill-rule="nonzero" fill-opacity="1" /><path clip-path="url(#clip590)" d="M82.566 1051.7 L87.4503 1051.7 L87.4503 1057.58 L82.566 1057.58 L82.566 1051.7 Z" fill="#000000" fill-rule="nonzero" fill-opacity="1" /><path clip-path="url(#clip590)" d="M107.635 1026.1 Q104.024 1026.1 102.196 1029.67 Q100.39 1033.21 100.39 1040.34 Q100.39 1047.44 102.196 1051.01 Q104.024 1054.55 107.635 1054.55 Q111.27 1054.55 113.075 1051.01 Q114.904 1047.44 114.904 1040.34 Q114.904 1033.21 113.075 1029.67 Q111.27 1026.1 107.635 1026.1 M107.635 1022.4 Q113.445 1022.4 116.501 1027 Q119.58 1031.59 119.58 1040.34 Q119.58 1049.06 116.501 1053.67 Q113.445 1058.25 107.635 1058.25 Q101.825 1058.25 98.7465 1053.67 Q95.691 1049.06 95.691 1040.34 Q95.691 1031.59 98.7465 1027 Q101.825 1022.4 107.635 1022.4 Z" fill="#000000" fill-rule="nonzero" fill-opacity="1" /><path clip-path="url(#clip590)" d="M137.797 1026.1 Q134.186 1026.1 132.357 1029.67 Q130.552 1033.21 130.552 1040.34 Q130.552 1047.44 132.357 1051.01 Q134.186 1054.55 137.797 1054.55 Q141.431 1054.55 143.237 1051.01 Q145.066 1047.44 145.066 1040.34 Q145.066 1033.21 143.237 1029.67 Q141.431 1026.1 137.797 1026.1 M137.797 1022.4 Q143.607 1022.4 146.663 1027 Q149.742 1031.59 149.742 1040.34 Q149.742 1049.06 146.663 1053.67 Q143.607 1058.25 137.797 1058.25 Q131.987 1058.25 128.908 1053.67 Q125.853 1049.06 125.853 1040.34 Q125.853 1031.59 128.908 1027 Q131.987 1022.4 137.797 1022.4 Z" fill="#000000" fill-rule="nonzero" fill-opacity="1" /><path clip-path="url(#clip590)" d="M186.13 1032.12 L175.552 1042.74 L186.13 1053.32 L183.376 1056.12 L172.751 1045.5 L162.126 1056.12 L159.394 1053.32 L169.95 1042.74 L159.394 1032.12 L162.126 1029.32 L172.751 1039.94 L183.376 1029.32 L186.13 1032.12 Z" fill="#000000" fill-rule="nonzero" fill-opacity="1" /><path clip-path="url(#clip590)" d="M198.491 1053.65 L206.13 1053.65 L206.13 1027.28 L197.82 1028.95 L197.82 1024.69 L206.084 1023.02 L210.76 1023.02 L210.76 1053.65 L218.399 1053.65 L218.399 1057.58 L198.491 1057.58 L198.491 1053.65 Z" fill="#000000" fill-rule="nonzero" fill-opacity="1" /><path clip-path="url(#clip590)" d="M237.843 1026.1 Q234.232 1026.1 232.403 1029.67 Q230.598 1033.21 230.598 1040.34 Q230.598 1047.44 232.403 1051.01 Q234.232 1054.55 237.843 1054.55 Q241.477 1054.55 243.283 1051.01 Q245.111 1047.44 245.111 1040.34 Q245.111 1033.21 243.283 1029.67 Q241.477 1026.1 237.843 1026.1 M237.843 1022.4 Q243.653 1022.4 246.709 1027 Q249.787 1031.59 249.787 1040.34 Q249.787 1049.06 246.709 1053.67 Q243.653 1058.25 237.843 1058.25 Q232.033 1058.25 228.954 1053.67 Q225.899 1049.06 225.899 1040.34 Q225.899 1031.59 228.954 1027 Q232.033 1022.4 237.843 1022.4 Z" fill="#000000" fill-rule="nonzero" fill-opacity="1" /><path clip-path="url(#clip590)" d="M250.972 1002.09 L265.887 1002.09 L265.887 1005.29 L254.452 1005.29 L254.452 1012.17 Q255.279 1011.89 256.107 1011.76 Q256.934 1011.61 257.762 1011.61 Q262.464 1011.61 265.21 1014.19 Q267.956 1016.76 267.956 1021.16 Q267.956 1025.7 265.134 1028.22 Q262.313 1030.72 257.179 1030.72 Q255.411 1030.72 253.568 1030.42 Q251.743 1030.12 249.787 1029.51 L249.787 1025.7 Q251.48 1026.62 253.286 1027.07 Q255.091 1027.52 257.104 1027.52 Q260.357 1027.52 262.257 1025.81 Q264.156 1024.1 264.156 1021.16 Q264.156 1018.23 262.257 1016.52 Q260.357 1014.81 257.104 1014.81 Q255.58 1014.81 254.057 1015.14 Q252.552 1015.48 250.972 1016.2 L250.972 1002.09 Z" fill="#000000" fill-rule="nonzero" fill-opacity="1" /><path clip-path="url(#clip590)" d="M51.9918 641.786 L59.6307 641.786 L59.6307 615.42 L51.3205 617.087 L51.3205 612.827 L59.5844 611.161 L64.2603 611.161 L64.2603 641.786 L71.8991 641.786 L71.8991 645.721 L51.9918 645.721 L51.9918 641.786 Z" fill="#000000" fill-rule="nonzero" fill-opacity="1" /><path clip-path="url(#clip590)" d="M81.3435 639.841 L86.2278 639.841 L86.2278 645.721 L81.3435 645.721 L81.3435 639.841 Z" fill="#000000" fill-rule="nonzero" fill-opacity="1" /><path clip-path="url(#clip590)" d="M106.413 614.239 Q102.802 614.239 100.973 617.804 Q99.1675 621.346 99.1675 628.475 Q99.1675 635.582 100.973 639.147 Q102.802 642.688 106.413 642.688 Q110.047 642.688 111.853 639.147 Q113.681 635.582 113.681 628.475 Q113.681 621.346 111.853 617.804 Q110.047 614.239 106.413 614.239 M106.413 610.536 Q112.223 610.536 115.279 615.142 Q118.357 619.726 118.357 628.475 Q118.357 637.202 115.279 641.809 Q112.223 646.392 106.413 646.392 Q100.603 646.392 97.524 641.809 Q94.4685 637.202 94.4685 628.475 Q94.4685 619.726 97.524 615.142 Q100.603 610.536 106.413 610.536 Z" fill="#000000" fill-rule="nonzero" fill-opacity="1" /><path clip-path="url(#clip590)" d="M136.575 614.239 Q132.964 614.239 131.135 617.804 Q129.329 621.346 129.329 628.475 Q129.329 635.582 131.135 639.147 Q132.964 642.688 136.575 642.688 Q140.209 642.688 142.014 639.147 Q143.843 635.582 143.843 628.475 Q143.843 621.346 142.014 617.804 Q140.209 614.239 136.575 614.239 M136.575 610.536 Q142.385 610.536 145.44 615.142 Q148.519 619.726 148.519 628.475 Q148.519 637.202 145.44 641.809 Q142.385 646.392 136.575 646.392 Q130.765 646.392 127.686 641.809 Q124.63 637.202 124.63 628.475 Q124.63 619.726 127.686 615.142 Q130.765 610.536 136.575 610.536 Z" fill="#000000" fill-rule="nonzero" fill-opacity="1" /><path clip-path="url(#clip590)" d="M184.908 620.258 L174.329 630.883 L184.908 641.462 L182.153 644.262 L171.528 633.637 L160.903 644.262 L158.172 641.462 L168.727 630.883 L158.172 620.258 L160.903 617.457 L171.528 628.082 L182.153 617.457 L184.908 620.258 Z" fill="#000000" fill-rule="nonzero" fill-opacity="1" /><path clip-path="url(#clip590)" d="M197.269 641.786 L204.908 641.786 L204.908 615.42 L196.598 617.087 L196.598 612.827 L204.861 611.161 L209.537 611.161 L209.537 641.786 L217.176 641.786 L217.176 645.721 L197.269 645.721 L197.269 641.786 Z" fill="#000000" fill-rule="nonzero" fill-opacity="1" /><path clip-path="url(#clip590)" d="M236.62 614.239 Q233.009 614.239 231.181 617.804 Q229.375 621.346 229.375 628.475 Q229.375 635.582 231.181 639.147 Q233.009 642.688 236.62 642.688 Q240.255 642.688 242.06 639.147 Q243.889 635.582 243.889 628.475 Q243.889 621.346 242.06 617.804 Q240.255 614.239 236.62 614.239 M236.62 610.536 Q242.431 610.536 245.486 615.142 Q248.565 619.726 248.565 628.475 Q248.565 637.202 245.486 641.809 Q242.431 646.392 236.62 646.392 Q230.81 646.392 227.732 641.809 Q224.676 637.202 224.676 628.475 Q224.676 619.726 227.732 615.142 Q230.81 610.536 236.62 610.536 Z" fill="#000000" fill-rule="nonzero" fill-opacity="1" /><path clip-path="url(#clip590)" d="M258.589 602.756 Q256.032 602.756 254.527 604.505 Q253.041 606.255 253.041 609.301 Q253.041 612.329 254.527 614.097 Q256.032 615.847 258.589 615.847 Q261.147 615.847 262.633 614.097 Q264.138 612.329 264.138 609.301 Q264.138 606.255 262.633 604.505 Q261.147 602.756 258.589 602.756 M266.131 590.851 L266.131 594.312 Q264.702 593.635 263.235 593.277 Q261.787 592.92 260.357 592.92 Q256.596 592.92 254.602 595.459 Q252.627 597.998 252.345 603.132 Q253.455 601.496 255.129 600.631 Q256.803 599.747 258.815 599.747 Q263.047 599.747 265.492 602.324 Q267.956 604.882 267.956 609.301 Q267.956 613.627 265.398 616.242 Q262.84 618.856 258.589 618.856 Q253.718 618.856 251.142 615.132 Q248.565 611.389 248.565 604.299 Q248.565 597.641 251.725 593.691 Q254.884 589.723 260.207 589.723 Q261.636 589.723 263.084 590.005 Q264.551 590.287 266.131 590.851 Z" fill="#000000" fill-rule="nonzero" fill-opacity="1" /><path clip-path="url(#clip590)" d="M51.9918 229.924 L59.6307 229.924 L59.6307 203.559 L51.3205 205.225 L51.3205 200.966 L59.5844 199.3 L64.2603 199.3 L64.2603 229.924 L71.8991 229.924 L71.8991 233.86 L51.9918 233.86 L51.9918 229.924 Z" fill="#000000" fill-rule="nonzero" fill-opacity="1" /><path clip-path="url(#clip590)" d="M81.3435 227.98 L86.2278 227.98 L86.2278 233.86 L81.3435 233.86 L81.3435 227.98 Z" fill="#000000" fill-rule="nonzero" fill-opacity="1" /><path clip-path="url(#clip590)" d="M96.4592 199.3 L114.816 199.3 L114.816 203.235 L100.742 203.235 L100.742 211.707 Q101.76 211.36 102.779 211.198 Q103.797 211.012 104.816 211.012 Q110.603 211.012 113.982 214.184 Q117.362 217.355 117.362 222.772 Q117.362 228.35 113.89 231.452 Q110.417 234.531 104.098 234.531 Q101.922 234.531 99.6536 234.16 Q97.4083 233.79 95.0009 233.049 L95.0009 228.35 Q97.0842 229.485 99.3064 230.04 Q101.529 230.596 104.005 230.596 Q108.01 230.596 110.348 228.489 Q112.686 226.383 112.686 222.772 Q112.686 219.161 110.348 217.054 Q108.01 214.948 104.005 214.948 Q102.13 214.948 100.255 215.364 Q98.4036 215.781 96.4592 216.661 L96.4592 199.3 Z" fill="#000000" fill-rule="nonzero" fill-opacity="1" /><path clip-path="url(#clip590)" d="M136.575 202.378 Q132.964 202.378 131.135 205.943 Q129.329 209.485 129.329 216.614 Q129.329 223.721 131.135 227.285 Q132.964 230.827 136.575 230.827 Q140.209 230.827 142.014 227.285 Q143.843 223.721 143.843 216.614 Q143.843 209.485 142.014 205.943 Q140.209 202.378 136.575 202.378 M136.575 198.675 Q142.385 198.675 145.44 203.281 Q148.519 207.864 148.519 216.614 Q148.519 225.341 145.44 229.947 Q142.385 234.531 136.575 234.531 Q130.765 234.531 127.686 229.947 Q124.63 225.341 124.63 216.614 Q124.63 207.864 127.686 203.281 Q130.765 198.675 136.575 198.675 Z" fill="#000000" fill-rule="nonzero" fill-opacity="1" /><path clip-path="url(#clip590)" d="M184.908 208.397 L174.329 219.022 L184.908 229.6 L182.153 232.401 L171.528 221.776 L160.903 232.401 L158.172 229.6 L168.727 219.022 L158.172 208.397 L160.903 205.596 L171.528 216.221 L182.153 205.596 L184.908 208.397 Z" fill="#000000" fill-rule="nonzero" fill-opacity="1" /><path clip-path="url(#clip590)" d="M197.269 229.924 L204.908 229.924 L204.908 203.559 L196.598 205.225 L196.598 200.966 L204.861 199.3 L209.537 199.3 L209.537 229.924 L217.176 229.924 L217.176 233.86 L197.269 233.86 L197.269 229.924 Z" fill="#000000" fill-rule="nonzero" fill-opacity="1" /><path clip-path="url(#clip590)" d="M236.62 202.378 Q233.009 202.378 231.181 205.943 Q229.375 209.485 229.375 216.614 Q229.375 223.721 231.181 227.285 Q233.009 230.827 236.62 230.827 Q240.255 230.827 242.06 227.285 Q243.889 223.721 243.889 216.614 Q243.889 209.485 242.06 205.943 Q240.255 202.378 236.62 202.378 M236.62 198.675 Q242.431 198.675 245.486 203.281 Q248.565 207.864 248.565 216.614 Q248.565 225.341 245.486 229.947 Q242.431 234.531 236.62 234.531 Q230.81 234.531 227.732 229.947 Q224.676 225.341 224.676 216.614 Q224.676 207.864 227.732 203.281 Q230.81 198.675 236.62 198.675 Z" fill="#000000" fill-rule="nonzero" fill-opacity="1" /><path clip-path="url(#clip590)" d="M258.589 190.895 Q256.032 190.895 254.527 192.644 Q253.041 194.393 253.041 197.44 Q253.041 200.468 254.527 202.236 Q256.032 203.985 258.589 203.985 Q261.147 203.985 262.633 202.236 Q264.138 200.468 264.138 197.44 Q264.138 194.393 262.633 192.644 Q261.147 190.895 258.589 190.895 M266.131 178.99 L266.131 182.45 Q264.702 181.773 263.235 181.416 Q261.787 181.059 260.357 181.059 Q256.596 181.059 254.602 183.598 Q252.627 186.137 252.345 191.271 Q253.455 189.635 255.129 188.77 Q256.803 187.886 258.815 187.886 Q263.047 187.886 265.492 190.463 Q267.956 193.02 267.956 197.44 Q267.956 201.766 265.398 204.38 Q262.84 206.995 258.589 206.995 Q253.718 206.995 251.142 203.271 Q248.565 199.528 248.565 192.437 Q248.565 185.779 251.725 181.83 Q254.884 177.861 260.207 177.861 Q261.636 177.861 263.084 178.143 Q264.551 178.426 266.131 178.99 Z" fill="#000000" fill-rule="nonzero" fill-opacity="1" /><path clip-path="url(#clip592)" d="M416.643 87.9763 L416.643 236.246 L889.383 236.246 L889.383 87.9763 L416.643 87.9763 L416.643 87.9763  Z" fill="#009af9" fill-rule="evenodd" fill-opacity="1"/>
<polyline clip-path="url(#clip592)" style="stroke:#000000; stroke-linecap:round; stroke-linejoin:round; stroke-width:4; stroke-opacity:1; fill:none" points="416.643,87.9763 416.643,236.246 889.383,236.246 889.383,87.9763 416.643,87.9763 "/>
<path clip-path="url(#clip592)" d="M1091.99 1318.87 L1091.99 1359.38 L1564.73 1359.38 L1564.73 1318.87 L1091.99 1318.87 L1091.99 1318.87  Z" fill="#009af9" fill-rule="evenodd" fill-opacity="1"/>
<polyline clip-path="url(#clip592)" style="stroke:#000000; stroke-linecap:round; stroke-linejoin:round; stroke-width:4; stroke-opacity:1; fill:none" points="1091.99,1318.87 1091.99,1359.38 1564.73,1359.38 1564.73,1318.87 1091.99,1318.87 "/>
<path clip-path="url(#clip592)" d="M1767.33 1366.27 L1767.33 1387.82 L2240.07 1387.82 L2240.07 1366.27 L1767.33 1366.27 L1767.33 1366.27  Z" fill="#009af9" fill-rule="evenodd" fill-opacity="1"/>
<polyline clip-path="url(#clip592)" style="stroke:#000000; stroke-linecap:round; stroke-linejoin:round; stroke-width:4; stroke-opacity:1; fill:none" points="1767.33,1366.27 1767.33,1387.82 2240.07,1387.82 2240.07,1366.27 1767.33,1366.27 "/>
<circle clip-path="url(#clip592)" style="fill:#009af9; stroke:none; fill-opacity:0" cx="653.013" cy="87.9763" r="2"/>
<circle clip-path="url(#clip592)" style="fill:#009af9; stroke:none; fill-opacity:0" cx="1328.36" cy="1318.87" r="2"/>
<circle clip-path="url(#clip592)" style="fill:#009af9; stroke:none; fill-opacity:0" cx="2003.7" cy="1366.27" r="2"/>
<path clip-path="url(#clip592)" d="M416.643 236.246 L416.643 615.159 L889.383 615.159 L889.383 236.246 L416.643 236.246 L416.643 236.246  Z" fill="#e26f46" fill-rule="evenodd" fill-opacity="1"/>
<polyline clip-path="url(#clip592)" style="stroke:#000000; stroke-linecap:round; stroke-linejoin:round; stroke-width:4; stroke-opacity:1; fill:none" points="416.643,236.246 416.643,615.159 889.383,615.159 889.383,236.246 416.643,236.246 "/>
<path clip-path="url(#clip592)" d="M1091.99 1359.38 L1091.99 1359.38 L1564.73 1359.38 L1564.73 1359.38 L1091.99 1359.38 L1091.99 1359.38  Z" fill="#e26f46" fill-rule="evenodd" fill-opacity="1"/>
<polyline clip-path="url(#clip592)" style="stroke:#000000; stroke-linecap:round; stroke-linejoin:round; stroke-width:4; stroke-opacity:1; fill:none" points="1091.99,1359.38 1091.99,1359.38 1564.73,1359.38 1091.99,1359.38 "/>
<path clip-path="url(#clip592)" d="M1767.33 1387.82 L1767.33 1403.46 L2240.07 1403.46 L2240.07 1387.82 L1767.33 1387.82 L1767.33 1387.82  Z" fill="#e26f46" fill-rule="evenodd" fill-opacity="1"/>
<polyline clip-path="url(#clip592)" style="stroke:#000000; stroke-linecap:round; stroke-linejoin:round; stroke-width:4; stroke-opacity:1; fill:none" points="1767.33,1387.82 1767.33,1403.46 2240.07,1403.46 2240.07,1387.82 1767.33,1387.82 "/>
<circle clip-path="url(#clip592)" style="fill:#e26f46; stroke:none; fill-opacity:0" cx="653.013" cy="236.246" r="2"/>
<circle clip-path="url(#clip592)" style="fill:#e26f46; stroke:none; fill-opacity:0" cx="1328.36" cy="1359.38" r="2"/>
<circle clip-path="url(#clip592)" style="fill:#e26f46; stroke:none; fill-opacity:0" cx="2003.7" cy="1387.82" r="2"/>
<path clip-path="url(#clip592)" d="M416.643 615.159 L416.643 646.257 L889.383 646.257 L889.383 615.159 L416.643 615.159 L416.643 615.159  Z" fill="#3da44d" fill-rule="evenodd" fill-opacity="1"/>
<polyline clip-path="url(#clip592)" style="stroke:#000000; stroke-linecap:round; stroke-linejoin:round; stroke-width:4; stroke-opacity:1; fill:none" points="416.643,615.159 416.643,646.257 889.383,646.257 889.383,615.159 416.643,615.159 "/>
<path clip-path="url(#clip592)" d="M1091.99 1359.38 L1091.99 1365.94 L1564.73 1365.94 L1564.73 1359.38 L1091.99 1359.38 L1091.99 1359.38  Z" fill="#3da44d" fill-rule="evenodd" fill-opacity="1"/>
<polyline clip-path="url(#clip592)" style="stroke:#000000; stroke-linecap:round; stroke-linejoin:round; stroke-width:4; stroke-opacity:1; fill:none" points="1091.99,1359.38 1091.99,1365.94 1564.73,1365.94 1564.73,1359.38 1091.99,1359.38 "/>
<path clip-path="url(#clip592)" d="M1767.33 1403.46 L1767.33 1405.63 L2240.07 1405.63 L2240.07 1403.46 L1767.33 1403.46 L1767.33 1403.46  Z" fill="#3da44d" fill-rule="evenodd" fill-opacity="1"/>
<polyline clip-path="url(#clip592)" style="stroke:#000000; stroke-linecap:round; stroke-linejoin:round; stroke-width:4; stroke-opacity:1; fill:none" points="1767.33,1403.46 1767.33,1405.63 2240.07,1405.63 2240.07,1403.46 1767.33,1403.46 "/>
<circle clip-path="url(#clip592)" style="fill:#3da44d; stroke:none; fill-opacity:0" cx="653.013" cy="615.159" r="2"/>
<circle clip-path="url(#clip592)" style="fill:#3da44d; stroke:none; fill-opacity:0" cx="1328.36" cy="1359.38" r="2"/>
<circle clip-path="url(#clip592)" style="fill:#3da44d; stroke:none; fill-opacity:0" cx="2003.7" cy="1403.46" r="2"/>
<path clip-path="url(#clip592)" d="M416.643 646.257 L416.643 646.257 L889.383 646.257 L889.383 646.257 L416.643 646.257 L416.643 646.257  Z" fill="#c271d2" fill-rule="evenodd" fill-opacity="1"/>
<polyline clip-path="url(#clip592)" style="stroke:#000000; stroke-linecap:round; stroke-linejoin:round; stroke-width:4; stroke-opacity:1; fill:none" points="416.643,646.257 416.643,646.257 889.383,646.257 416.643,646.257 "/>
<path clip-path="url(#clip592)" d="M1091.99 1365.94 L1091.99 1377.48 L1564.73 1377.48 L1564.73 1365.94 L1091.99 1365.94 L1091.99 1365.94  Z" fill="#c271d2" fill-rule="evenodd" fill-opacity="1"/>
<polyline clip-path="url(#clip592)" style="stroke:#000000; stroke-linecap:round; stroke-linejoin:round; stroke-width:4; stroke-opacity:1; fill:none" points="1091.99,1365.94 1091.99,1377.48 1564.73,1377.48 1564.73,1365.94 1091.99,1365.94 "/>
<path clip-path="url(#clip592)" d="M1767.33 1405.63 L1767.33 1405.63 L2240.07 1405.63 L2240.07 1405.63 L1767.33 1405.63 L1767.33 1405.63  Z" fill="#c271d2" fill-rule="evenodd" fill-opacity="1"/>
<polyline clip-path="url(#clip592)" style="stroke:#000000; stroke-linecap:round; stroke-linejoin:round; stroke-width:4; stroke-opacity:1; fill:none" points="1767.33,1405.63 1767.33,1405.63 2240.07,1405.63 1767.33,1405.63 "/>
<circle clip-path="url(#clip592)" style="fill:#c271d2; stroke:none; fill-opacity:0" cx="653.013" cy="646.257" r="2"/>
<circle clip-path="url(#clip592)" style="fill:#c271d2; stroke:none; fill-opacity:0" cx="1328.36" cy="1365.94" r="2"/>
<circle clip-path="url(#clip592)" style="fill:#c271d2; stroke:none; fill-opacity:0" cx="2003.7" cy="1405.63" r="2"/>
<path clip-path="url(#clip592)" d="M416.643 646.257 L416.643 1445.72 L889.383 1445.72 L889.383 646.257 L416.643 646.257 L416.643 646.257  Z" fill="#ac8d18" fill-rule="evenodd" fill-opacity="1"/>
<polyline clip-path="url(#clip592)" style="stroke:#000000; stroke-linecap:round; stroke-linejoin:round; stroke-width:4; stroke-opacity:1; fill:none" points="416.643,646.257 416.643,1445.72 889.383,1445.72 889.383,646.257 416.643,646.257 "/>
<path clip-path="url(#clip592)" d="M1091.99 1377.48 L1091.99 1445.72 L1564.73 1445.72 L1564.73 1377.48 L1091.99 1377.48 L1091.99 1377.48  Z" fill="#ac8d18" fill-rule="evenodd" fill-opacity="1"/>
<polyline clip-path="url(#clip592)" style="stroke:#000000; stroke-linecap:round; stroke-linejoin:round; stroke-width:4; stroke-opacity:1; fill:none" points="1091.99,1377.48 1091.99,1445.72 1564.73,1445.72 1564.73,1377.48 1091.99,1377.48 "/>
<path clip-path="url(#clip592)" d="M1767.33 1405.63 L1767.33 1445.72 L2240.07 1445.72 L2240.07 1405.63 L1767.33 1405.63 L1767.33 1405.63  Z" fill="#ac8d18" fill-rule="evenodd" fill-opacity="1"/>
<polyline clip-path="url(#clip592)" style="stroke:#000000; stroke-linecap:round; stroke-linejoin:round; stroke-width:4; stroke-opacity:1; fill:none" points="1767.33,1405.63 1767.33,1445.72 2240.07,1445.72 2240.07,1405.63 1767.33,1405.63 "/>
<circle clip-path="url(#clip592)" style="fill:#ac8d18; stroke:none; fill-opacity:0" cx="653.013" cy="646.257" r="2"/>
<circle clip-path="url(#clip592)" style="fill:#ac8d18; stroke:none; fill-opacity:0" cx="1328.36" cy="1377.48" r="2"/>
<circle clip-path="url(#clip592)" style="fill:#ac8d18; stroke:none; fill-opacity:0" cx="2003.7" cy="1405.63" r="2"/>
<path clip-path="url(#clip590)" d="M1910.19 406.258 L2284.46 406.258 L2284.46 95.2176 L1910.19 95.2176  Z" fill="#ffffff" fill-rule="evenodd" fill-opacity="1"/>
<polyline clip-path="url(#clip590)" style="stroke:#000000; stroke-linecap:round; stroke-linejoin:round; stroke-width:4; stroke-opacity:1; fill:none" points="1910.19,406.258 2284.46,406.258 2284.46,95.2176 1910.19,95.2176 1910.19,406.258 "/>
<path clip-path="url(#clip590)" d="M1932.95 167.794 L2069.54 167.794 L2069.54 126.322 L1932.95 126.322 L1932.95 167.794  Z" fill="#009af9" fill-rule="evenodd" fill-opacity="1"/>
<polyline clip-path="url(#clip590)" style="stroke:#000000; stroke-linecap:round; stroke-linejoin:round; stroke-width:4; stroke-opacity:1; fill:none" points="1932.95,167.794 2069.54,167.794 2069.54,126.322 1932.95,126.322 1932.95,167.794 "/>
<path clip-path="url(#clip590)" d="M2092.3 129.778 L2097.02 129.778 L2104.29 158.99 L2111.54 129.778 L2116.79 129.778 L2124.06 158.99 L2131.31 129.778 L2136.05 129.778 L2127.37 164.338 L2121.49 164.338 L2114.2 134.338 L2106.84 164.338 L2100.96 164.338 L2092.3 129.778 Z" fill="#000000" fill-rule="nonzero" fill-opacity="1" /><path clip-path="url(#clip590)" d="M2141.03 138.412 L2145.29 138.412 L2145.29 164.338 L2141.03 164.338 L2141.03 138.412 M2141.03 128.319 L2145.29 128.319 L2145.29 133.713 L2141.03 133.713 L2141.03 128.319 Z" fill="#000000" fill-rule="nonzero" fill-opacity="1" /><path clip-path="url(#clip590)" d="M2175.75 148.689 L2175.75 164.338 L2171.49 164.338 L2171.49 148.828 Q2171.49 145.148 2170.06 143.319 Q2168.62 141.49 2165.75 141.49 Q2162.3 141.49 2160.31 143.69 Q2158.32 145.889 2158.32 149.685 L2158.32 164.338 L2154.04 164.338 L2154.04 138.412 L2158.32 138.412 L2158.32 142.44 Q2159.85 140.102 2161.91 138.944 Q2163.99 137.787 2166.7 137.787 Q2171.17 137.787 2173.46 140.565 Q2175.75 143.319 2175.75 148.689 Z" fill="#000000" fill-rule="nonzero" fill-opacity="1" /><path clip-path="url(#clip590)" d="M2201.3 142.347 L2201.3 128.319 L2205.56 128.319 L2205.56 164.338 L2201.3 164.338 L2201.3 160.449 Q2199.96 162.763 2197.9 163.898 Q2195.87 165.009 2192.99 165.009 Q2188.3 165.009 2185.33 161.259 Q2182.39 157.509 2182.39 151.398 Q2182.39 145.287 2185.33 141.537 Q2188.3 137.787 2192.99 137.787 Q2195.87 137.787 2197.9 138.921 Q2199.96 140.032 2201.3 142.347 M2186.79 151.398 Q2186.79 156.097 2188.71 158.782 Q2190.66 161.444 2194.04 161.444 Q2197.42 161.444 2199.36 158.782 Q2201.3 156.097 2201.3 151.398 Q2201.3 146.699 2199.36 144.037 Q2197.42 141.352 2194.04 141.352 Q2190.66 141.352 2188.71 144.037 Q2186.79 146.699 2186.79 151.398 Z" fill="#000000" fill-rule="nonzero" fill-opacity="1" /><path clip-path="url(#clip590)" d="M1932.95 219.634 L2069.54 219.634 L2069.54 178.162 L1932.95 178.162 L1932.95 219.634  Z" fill="#e26f46" fill-rule="evenodd" fill-opacity="1"/>
<polyline clip-path="url(#clip590)" style="stroke:#000000; stroke-linecap:round; stroke-linejoin:round; stroke-width:4; stroke-opacity:1; fill:none" points="1932.95,219.634 2069.54,219.634 2069.54,178.162 1932.95,178.162 1932.95,219.634 "/>
<path clip-path="url(#clip590)" d="M2096.98 185.46 L2096.98 198.446 L2102.86 198.446 Q2106.12 198.446 2107.9 196.756 Q2109.69 195.067 2109.69 191.942 Q2109.69 188.84 2107.9 187.15 Q2106.12 185.46 2102.86 185.46 L2096.98 185.46 M2092.3 181.618 L2102.86 181.618 Q2108.67 181.618 2111.63 184.256 Q2114.62 186.872 2114.62 191.942 Q2114.62 197.057 2111.63 199.673 Q2108.67 202.289 2102.86 202.289 L2096.98 202.289 L2096.98 216.178 L2092.3 216.178 L2092.3 181.618 Z" fill="#000000" fill-rule="nonzero" fill-opacity="1" /><path clip-path="url(#clip590)" d="M2129.8 216.178 L2116.61 181.618 L2121.49 181.618 L2132.44 210.715 L2143.41 181.618 L2148.27 181.618 L2135.1 216.178 L2129.8 216.178 Z" fill="#000000" fill-rule="nonzero" fill-opacity="1" /><path clip-path="url(#clip590)" d="M1932.95 271.474 L2069.54 271.474 L2069.54 230.002 L1932.95 230.002 L1932.95 271.474  Z" fill="#3da44d" fill-rule="evenodd" fill-opacity="1"/>
<polyline clip-path="url(#clip590)" style="stroke:#000000; stroke-linecap:round; stroke-linejoin:round; stroke-width:4; stroke-opacity:1; fill:none" points="1932.95,271.474 2069.54,271.474 2069.54,230.002 1932.95,230.002 1932.95,271.474 "/>
<path clip-path="url(#clip590)" d="M2117.86 263.087 L2117.86 253.805 L2110.22 253.805 L2110.22 249.962 L2122.49 249.962 L2122.49 264.8 Q2119.78 266.721 2116.51 267.717 Q2113.25 268.689 2109.55 268.689 Q2101.44 268.689 2096.86 263.967 Q2092.3 259.221 2092.3 250.772 Q2092.3 242.3 2096.86 237.578 Q2101.44 232.833 2109.55 232.833 Q2112.93 232.833 2115.96 233.666 Q2119.01 234.499 2121.58 236.12 L2121.58 241.096 Q2118.99 238.897 2116.07 237.786 Q2113.16 236.675 2109.94 236.675 Q2103.6 236.675 2100.4 240.217 Q2097.23 243.758 2097.23 250.772 Q2097.23 257.763 2100.4 261.305 Q2103.6 264.846 2109.94 264.846 Q2112.42 264.846 2114.36 264.43 Q2116.31 263.99 2117.86 263.087 Z" fill="#000000" fill-rule="nonzero" fill-opacity="1" /><path clip-path="url(#clip590)" d="M2142.62 254.985 Q2137.46 254.985 2135.47 256.166 Q2133.48 257.346 2133.48 260.194 Q2133.48 262.462 2134.96 263.805 Q2136.47 265.124 2139.04 265.124 Q2142.58 265.124 2144.71 262.624 Q2146.86 260.101 2146.86 255.934 L2146.86 254.985 L2142.62 254.985 M2151.12 253.226 L2151.12 268.018 L2146.86 268.018 L2146.86 264.082 Q2145.4 266.443 2143.23 267.578 Q2141.05 268.689 2137.9 268.689 Q2133.92 268.689 2131.56 266.467 Q2129.22 264.221 2129.22 260.471 Q2129.22 256.096 2132.14 253.874 Q2135.08 251.652 2140.89 251.652 L2146.86 251.652 L2146.86 251.235 Q2146.86 248.295 2144.92 246.698 Q2143 245.078 2139.5 245.078 Q2137.28 245.078 2135.17 245.61 Q2133.06 246.143 2131.12 247.207 L2131.12 243.272 Q2133.46 242.37 2135.66 241.93 Q2137.86 241.467 2139.94 241.467 Q2145.56 241.467 2148.34 244.383 Q2151.12 247.3 2151.12 253.226 Z" fill="#000000" fill-rule="nonzero" fill-opacity="1" /><path clip-path="url(#clip590)" d="M2176.42 242.856 L2176.42 246.883 Q2174.62 245.957 2172.67 245.495 Q2170.73 245.032 2168.64 245.032 Q2165.47 245.032 2163.87 246.004 Q2162.3 246.976 2162.3 248.92 Q2162.3 250.402 2163.43 251.258 Q2164.57 252.092 2167.99 252.856 L2169.45 253.18 Q2173.99 254.152 2175.89 255.934 Q2177.81 257.694 2177.81 260.865 Q2177.81 264.476 2174.94 266.582 Q2172.09 268.689 2167.09 268.689 Q2165.01 268.689 2162.74 268.272 Q2160.49 267.879 2157.99 267.068 L2157.99 262.67 Q2160.36 263.897 2162.65 264.522 Q2164.94 265.124 2167.18 265.124 Q2170.19 265.124 2171.81 264.106 Q2173.43 263.064 2173.43 261.189 Q2173.43 259.453 2172.25 258.527 Q2171.1 257.601 2167.14 256.744 L2165.66 256.397 Q2161.7 255.564 2159.94 253.851 Q2158.18 252.115 2158.18 249.106 Q2158.18 245.448 2160.77 243.458 Q2163.37 241.467 2168.13 241.467 Q2170.49 241.467 2172.58 241.814 Q2174.66 242.161 2176.42 242.856 Z" fill="#000000" fill-rule="nonzero" fill-opacity="1" /><path clip-path="url(#clip590)" d="M1932.95 323.314 L2069.54 323.314 L2069.54 281.842 L1932.95 281.842 L1932.95 323.314  Z" fill="#c271d2" fill-rule="evenodd" fill-opacity="1"/>
<polyline clip-path="url(#clip590)" style="stroke:#000000; stroke-linecap:round; stroke-linejoin:round; stroke-width:4; stroke-opacity:1; fill:none" points="1932.95,323.314 2069.54,323.314 2069.54,281.842 1932.95,281.842 1932.95,323.314 "/>
<path clip-path="url(#clip590)" d="M2092.3 285.298 L2096.98 285.298 L2096.98 299.464 L2113.97 299.464 L2113.97 285.298 L2118.64 285.298 L2118.64 319.858 L2113.97 319.858 L2113.97 303.399 L2096.98 303.399 L2096.98 319.858 L2092.3 319.858 L2092.3 285.298 Z" fill="#000000" fill-rule="nonzero" fill-opacity="1" /><path clip-path="url(#clip590)" d="M2138.55 322.265 Q2136.75 326.895 2135.03 328.307 Q2133.32 329.719 2130.45 329.719 L2127.05 329.719 L2127.05 326.154 L2129.55 326.154 Q2131.31 326.154 2132.28 325.32 Q2133.25 324.487 2134.43 321.385 L2135.19 319.441 L2124.71 293.932 L2129.22 293.932 L2137.32 314.209 L2145.43 293.932 L2149.94 293.932 L2138.55 322.265 Z" fill="#000000" fill-rule="nonzero" fill-opacity="1" /><path clip-path="url(#clip590)" d="M2172.88 297.867 L2172.88 283.839 L2177.14 283.839 L2177.14 319.858 L2172.88 319.858 L2172.88 315.969 Q2171.54 318.283 2169.48 319.418 Q2167.44 320.529 2164.57 320.529 Q2159.87 320.529 2156.91 316.779 Q2153.97 313.029 2153.97 306.918 Q2153.97 300.807 2156.91 297.057 Q2159.87 293.307 2164.57 293.307 Q2167.44 293.307 2169.48 294.441 Q2171.54 295.552 2172.88 297.867 M2158.37 306.918 Q2158.37 311.617 2160.29 314.302 Q2162.23 316.964 2165.61 316.964 Q2168.99 316.964 2170.93 314.302 Q2172.88 311.617 2172.88 306.918 Q2172.88 302.219 2170.93 299.557 Q2168.99 296.872 2165.61 296.872 Q2162.23 296.872 2160.29 299.557 Q2158.37 302.219 2158.37 306.918 Z" fill="#000000" fill-rule="nonzero" fill-opacity="1" /><path clip-path="url(#clip590)" d="M2200.93 297.913 Q2200.22 297.497 2199.36 297.311 Q2198.53 297.103 2197.51 297.103 Q2193.9 297.103 2191.95 299.464 Q2190.03 301.802 2190.03 306.2 L2190.03 319.858 L2185.75 319.858 L2185.75 293.932 L2190.03 293.932 L2190.03 297.96 Q2191.37 295.598 2193.53 294.464 Q2195.68 293.307 2198.76 293.307 Q2199.2 293.307 2199.73 293.376 Q2200.26 293.423 2200.91 293.538 L2200.93 297.913 Z" fill="#000000" fill-rule="nonzero" fill-opacity="1" /><path clip-path="url(#clip590)" d="M2214.41 296.918 Q2210.98 296.918 2208.99 299.603 Q2207 302.265 2207 306.918 Q2207 311.571 2208.97 314.256 Q2210.96 316.918 2214.41 316.918 Q2217.81 316.918 2219.8 314.233 Q2221.79 311.547 2221.79 306.918 Q2221.79 302.311 2219.8 299.626 Q2217.81 296.918 2214.41 296.918 M2214.41 293.307 Q2219.96 293.307 2223.13 296.918 Q2226.3 300.529 2226.3 306.918 Q2226.3 313.284 2223.13 316.918 Q2219.96 320.529 2214.41 320.529 Q2208.83 320.529 2205.66 316.918 Q2202.51 313.284 2202.51 306.918 Q2202.51 300.529 2205.66 296.918 Q2208.83 293.307 2214.41 293.307 Z" fill="#000000" fill-rule="nonzero" fill-opacity="1" /><path clip-path="url(#clip590)" d="M1932.95 375.154 L2069.54 375.154 L2069.54 333.682 L1932.95 333.682 L1932.95 375.154  Z" fill="#ac8d18" fill-rule="evenodd" fill-opacity="1"/>
<polyline clip-path="url(#clip590)" style="stroke:#000000; stroke-linecap:round; stroke-linejoin:round; stroke-width:4; stroke-opacity:1; fill:none" points="1932.95,375.154 2069.54,375.154 2069.54,333.682 1932.95,333.682 1932.95,375.154 "/>
<path clip-path="url(#clip590)" d="M2096.98 355.193 L2096.98 367.855 L2104.48 367.855 Q2108.25 367.855 2110.06 366.304 Q2111.88 364.73 2111.88 361.512 Q2111.88 358.272 2110.06 356.744 Q2108.25 355.193 2104.48 355.193 L2096.98 355.193 M2096.98 340.98 L2096.98 351.397 L2103.9 351.397 Q2107.32 351.397 2108.99 350.124 Q2110.68 348.827 2110.68 346.188 Q2110.68 343.573 2108.99 342.276 Q2107.32 340.98 2103.9 340.98 L2096.98 340.98 M2092.3 337.138 L2104.25 337.138 Q2109.59 337.138 2112.49 339.36 Q2115.38 341.582 2115.38 345.679 Q2115.38 348.85 2113.9 350.725 Q2112.42 352.6 2109.55 353.063 Q2113 353.804 2114.89 356.165 Q2116.81 358.503 2116.81 362.022 Q2116.81 366.651 2113.67 369.174 Q2110.52 371.698 2104.71 371.698 L2092.3 371.698 L2092.3 337.138 Z" fill="#000000" fill-rule="nonzero" fill-opacity="1" /><path clip-path="url(#clip590)" d="M2136.42 358.665 Q2131.26 358.665 2129.27 359.846 Q2127.28 361.026 2127.28 363.874 Q2127.28 366.142 2128.76 367.485 Q2130.26 368.804 2132.83 368.804 Q2136.37 368.804 2138.5 366.304 Q2140.66 363.781 2140.66 359.614 L2140.66 358.665 L2136.42 358.665 M2144.92 356.906 L2144.92 371.698 L2140.66 371.698 L2140.66 367.762 Q2139.2 370.123 2137.02 371.258 Q2134.85 372.369 2131.7 372.369 Q2127.72 372.369 2125.36 370.147 Q2123.02 367.901 2123.02 364.151 Q2123.02 359.776 2125.93 357.554 Q2128.87 355.332 2134.68 355.332 L2140.66 355.332 L2140.66 354.915 Q2140.66 351.975 2138.71 350.378 Q2136.79 348.758 2133.3 348.758 Q2131.07 348.758 2128.97 349.29 Q2126.86 349.823 2124.92 350.887 L2124.92 346.952 Q2127.25 346.05 2129.45 345.61 Q2131.65 345.147 2133.74 345.147 Q2139.36 345.147 2142.14 348.063 Q2144.92 350.98 2144.92 356.906 Z" fill="#000000" fill-rule="nonzero" fill-opacity="1" /><path clip-path="url(#clip590)" d="M2157.9 338.411 L2157.9 345.772 L2166.68 345.772 L2166.68 349.082 L2157.9 349.082 L2157.9 363.156 Q2157.9 366.327 2158.76 367.23 Q2159.64 368.133 2162.3 368.133 L2166.68 368.133 L2166.68 371.698 L2162.3 371.698 Q2157.37 371.698 2155.49 369.869 Q2153.62 368.017 2153.62 363.156 L2153.62 349.082 L2150.5 349.082 L2150.5 345.772 L2153.62 345.772 L2153.62 338.411 L2157.9 338.411 Z" fill="#000000" fill-rule="nonzero" fill-opacity="1" /><path clip-path="url(#clip590)" d="M2176.49 338.411 L2176.49 345.772 L2185.26 345.772 L2185.26 349.082 L2176.49 349.082 L2176.49 363.156 Q2176.49 366.327 2177.35 367.23 Q2178.23 368.133 2180.89 368.133 L2185.26 368.133 L2185.26 371.698 L2180.89 371.698 Q2175.96 371.698 2174.08 369.869 Q2172.21 368.017 2172.21 363.156 L2172.21 349.082 L2169.08 349.082 L2169.08 345.772 L2172.21 345.772 L2172.21 338.411 L2176.49 338.411 Z" fill="#000000" fill-rule="nonzero" fill-opacity="1" /><path clip-path="url(#clip590)" d="M2213.04 357.67 L2213.04 359.753 L2193.46 359.753 Q2193.74 364.151 2196.1 366.466 Q2198.48 368.758 2202.72 368.758 Q2205.17 368.758 2207.46 368.156 Q2209.78 367.554 2212.05 366.35 L2212.05 370.378 Q2209.75 371.35 2207.35 371.86 Q2204.94 372.369 2202.46 372.369 Q2196.26 372.369 2192.62 368.758 Q2189.01 365.147 2189.01 358.989 Q2189.01 352.624 2192.44 348.897 Q2195.89 345.147 2201.72 345.147 Q2206.95 345.147 2209.99 348.526 Q2213.04 351.883 2213.04 357.67 M2208.78 356.42 Q2208.74 352.925 2206.81 350.841 Q2204.92 348.758 2201.77 348.758 Q2198.2 348.758 2196.05 350.772 Q2193.92 352.786 2193.6 356.443 L2208.78 356.42 Z" fill="#000000" fill-rule="nonzero" fill-opacity="1" /><path clip-path="url(#clip590)" d="M2235.05 349.753 Q2234.34 349.337 2233.48 349.151 Q2232.65 348.943 2231.63 348.943 Q2228.02 348.943 2226.07 351.304 Q2224.15 353.642 2224.15 358.04 L2224.15 371.698 L2219.87 371.698 L2219.87 345.772 L2224.15 345.772 L2224.15 349.8 Q2225.49 347.438 2227.65 346.304 Q2229.8 345.147 2232.88 345.147 Q2233.32 345.147 2233.85 345.216 Q2234.38 345.263 2235.03 345.378 L2235.05 349.753 Z" fill="#000000" fill-rule="nonzero" fill-opacity="1" /><path clip-path="url(#clip590)" d="M2250.31 374.105 Q2248.5 378.735 2246.79 380.147 Q2245.08 381.559 2242.21 381.559 L2238.8 381.559 L2238.8 377.994 L2241.3 377.994 Q2243.06 377.994 2244.04 377.16 Q2245.01 376.327 2246.19 373.225 L2246.95 371.281 L2236.47 345.772 L2240.98 345.772 L2249.08 366.049 L2257.18 345.772 L2261.7 345.772 L2250.31 374.105 Z" fill="#000000" fill-rule="nonzero" fill-opacity="1" /></svg>
