<?xml version="1.0" encoding="utf-8"?>
<svg xmlns="http://www.w3.org/2000/svg" xmlns:xlink="http://www.w3.org/1999/xlink" width="600" height="400" viewBox="0 0 2400 1600">
<defs>
  <clipPath id="clip450">
    <rect x="0" y="0" width="2400" height="1600"/>
  </clipPath>
</defs>
<path clip-path="url(#clip450)" d="M0 1600 L2400 1600 L2400 0 L0 0  Z" fill="#ffffff" fill-rule="evenodd" fill-opacity="1"/>
<defs>
  <clipPath id="clip451">
    <rect x="480" y="0" width="1681" height="1600"/>
  </clipPath>
</defs>
<path clip-path="url(#clip450)" d="M273.979 1486.45 L2352.76 1486.45 L2352.76 47.2441 L273.979 47.2441  Z" fill="#ffffff" fill-rule="evenodd" fill-opacity="1"/>
<defs>
  <clipPath id="clip452">
    <rect x="273" y="47" width="2080" height="1440"/>
  </clipPath>
</defs>
<polyline clip-path="url(#clip452)" style="stroke:#000000; stroke-linecap:round; stroke-linejoin:round; stroke-width:2; stroke-opacity:0.1; fill:none" points="628.144,1486.45 628.144,47.2441 "/>
<polyline clip-path="url(#clip452)" style="stroke:#000000; stroke-linecap:round; stroke-linejoin:round; stroke-width:2; stroke-opacity:0.1; fill:none" points="1313.37,1486.45 1313.37,47.2441 "/>
<polyline clip-path="url(#clip452)" style="stroke:#000000; stroke-linecap:round; stroke-linejoin:round; stroke-width:2; stroke-opacity:0.1; fill:none" points="1998.59,1486.45 1998.59,47.2441 "/>
<polyline clip-path="url(#clip450)" style="stroke:#000000; stroke-linecap:round; stroke-linejoin:round; stroke-width:4; stroke-opacity:1; fill:none" points="273.979,1486.45 2352.76,1486.45 "/>
<polyline clip-path="url(#clip450)" style="stroke:#000000; stroke-linecap:round; stroke-linejoin:round; stroke-width:4; stroke-opacity:1; fill:none" points="628.144,1486.45 628.144,1467.55 "/>
<polyline clip-path="url(#clip450)" style="stroke:#000000; stroke-linecap:round; stroke-linejoin:round; stroke-width:4; stroke-opacity:1; fill:none" points="1313.37,1486.45 1313.37,1467.55 "/>
<polyline clip-path="url(#clip450)" style="stroke:#000000; stroke-linecap:round; stroke-linejoin:round; stroke-width:4; stroke-opacity:1; fill:none" points="1998.59,1486.45 1998.59,1467.55 "/>
<path clip-path="url(#clip450)" d="M560.297 1515.42 L560.297 1519.98 Q557.635 1518.71 555.274 1518.08 Q552.913 1517.46 550.714 1517.46 Q546.894 1517.46 544.811 1518.94 Q542.751 1520.42 542.751 1523.15 Q542.751 1525.45 544.116 1526.63 Q545.505 1527.78 549.348 1528.5 L552.172 1529.08 Q557.403 1530.07 559.88 1532.6 Q562.38 1535.1 562.38 1539.31 Q562.38 1544.33 559.001 1546.93 Q555.644 1549.52 549.14 1549.52 Q546.686 1549.52 543.908 1548.96 Q541.153 1548.41 538.19 1547.32 L538.19 1542.51 Q541.038 1544.1 543.769 1544.91 Q546.501 1545.72 549.14 1545.72 Q553.144 1545.72 555.32 1544.15 Q557.496 1542.57 557.496 1539.66 Q557.496 1537.11 555.922 1535.68 Q554.371 1534.24 550.806 1533.52 L547.959 1532.97 Q542.727 1531.93 540.39 1529.7 Q538.052 1527.48 538.052 1523.52 Q538.052 1518.94 541.269 1516.3 Q544.51 1513.66 550.181 1513.66 Q552.612 1513.66 555.135 1514.1 Q557.658 1514.54 560.297 1515.42 Z" fill="#000000" fill-rule="nonzero" fill-opacity="1" /><path clip-path="url(#clip450)" d="M567.01 1522.92 L571.269 1522.92 L576.593 1543.15 L581.894 1522.92 L586.917 1522.92 L592.241 1543.15 L597.542 1522.92 L601.801 1522.92 L595.019 1548.85 L589.996 1548.85 L584.417 1527.6 L578.815 1548.85 L573.792 1548.85 L567.01 1522.92 Z" fill="#000000" fill-rule="nonzero" fill-opacity="1" /><path clip-path="url(#clip450)" d="M630.435 1534.82 L630.435 1536.9 L610.852 1536.9 Q611.13 1541.3 613.491 1543.62 Q615.875 1545.91 620.111 1545.91 Q622.565 1545.91 624.857 1545.31 Q627.171 1544.7 629.44 1543.5 L629.44 1547.53 Q627.148 1548.5 624.741 1549.01 Q622.334 1549.52 619.857 1549.52 Q613.653 1549.52 610.019 1545.91 Q606.408 1542.3 606.408 1536.14 Q606.408 1529.77 609.834 1526.05 Q613.283 1522.3 619.116 1522.3 Q624.347 1522.3 627.38 1525.68 Q630.435 1529.03 630.435 1534.82 M626.176 1533.57 Q626.13 1530.07 624.209 1527.99 Q622.31 1525.91 619.162 1525.91 Q615.597 1525.91 613.445 1527.92 Q611.315 1529.94 610.991 1533.59 L626.176 1533.57 Z" fill="#000000" fill-rule="nonzero" fill-opacity="1" /><path clip-path="url(#clip450)" d="M654.486 1526.86 L654.486 1512.83 L658.745 1512.83 L658.745 1548.85 L654.486 1548.85 L654.486 1544.96 Q653.144 1547.27 651.083 1548.41 Q649.046 1549.52 646.176 1549.52 Q641.477 1549.52 638.514 1545.77 Q635.574 1542.02 635.574 1535.91 Q635.574 1529.8 638.514 1526.05 Q641.477 1522.3 646.176 1522.3 Q649.046 1522.3 651.083 1523.43 Q653.144 1524.54 654.486 1526.86 M639.972 1535.91 Q639.972 1540.61 641.894 1543.29 Q643.838 1545.95 647.218 1545.95 Q650.597 1545.95 652.542 1543.29 Q654.486 1540.61 654.486 1535.91 Q654.486 1531.21 652.542 1528.55 Q650.597 1525.86 647.218 1525.86 Q643.838 1525.86 641.894 1528.55 Q639.972 1531.21 639.972 1535.91 Z" fill="#000000" fill-rule="nonzero" fill-opacity="1" /><path clip-path="url(#clip450)" d="M689.694 1534.82 L689.694 1536.9 L670.111 1536.9 Q670.389 1541.3 672.75 1543.62 Q675.134 1545.91 679.37 1545.91 Q681.824 1545.91 684.116 1545.31 Q686.43 1544.7 688.699 1543.5 L688.699 1547.53 Q686.407 1548.5 684 1549.01 Q681.592 1549.52 679.116 1549.52 Q672.912 1549.52 669.278 1545.91 Q665.667 1542.3 665.667 1536.14 Q665.667 1529.77 669.093 1526.05 Q672.542 1522.3 678.375 1522.3 Q683.606 1522.3 686.639 1525.68 Q689.694 1529.03 689.694 1534.82 M685.435 1533.57 Q685.389 1530.07 683.467 1527.99 Q681.569 1525.91 678.421 1525.91 Q674.856 1525.91 672.704 1527.92 Q670.574 1529.94 670.25 1533.59 L685.435 1533.57 Z" fill="#000000" fill-rule="nonzero" fill-opacity="1" /><path clip-path="url(#clip450)" d="M718.236 1533.2 L718.236 1548.85 L713.977 1548.85 L713.977 1533.34 Q713.977 1529.66 712.541 1527.83 Q711.106 1526 708.236 1526 Q704.787 1526 702.796 1528.2 Q700.805 1530.4 700.805 1534.2 L700.805 1548.85 L696.523 1548.85 L696.523 1522.92 L700.805 1522.92 L700.805 1526.95 Q702.333 1524.61 704.393 1523.45 Q706.477 1522.3 709.185 1522.3 Q713.653 1522.3 715.944 1525.07 Q718.236 1527.83 718.236 1533.2 Z" fill="#000000" fill-rule="nonzero" fill-opacity="1" /><path clip-path="url(#clip450)" d="M1232.01 1543.92 L1232.01 1534.63 L1224.37 1534.63 L1224.37 1530.79 L1236.64 1530.79 L1236.64 1545.63 Q1233.93 1547.55 1230.67 1548.55 Q1227.41 1549.52 1223.7 1549.52 Q1215.6 1549.52 1211.02 1544.8 Q1206.46 1540.05 1206.46 1531.6 Q1206.46 1523.13 1211.02 1518.41 Q1215.6 1513.66 1223.7 1513.66 Q1227.08 1513.66 1230.12 1514.5 Q1233.17 1515.33 1235.74 1516.95 L1235.74 1521.93 Q1233.15 1519.73 1230.23 1518.62 Q1227.31 1517.51 1224.1 1517.51 Q1217.75 1517.51 1214.56 1521.05 Q1211.39 1524.59 1211.39 1531.6 Q1211.39 1538.59 1214.56 1542.13 Q1217.75 1545.68 1224.1 1545.68 Q1226.57 1545.68 1228.52 1545.26 Q1230.46 1544.82 1232.01 1543.92 Z" fill="#000000" fill-rule="nonzero" fill-opacity="1" /><path clip-path="url(#clip450)" d="M1267.18 1534.82 L1267.18 1536.9 L1247.59 1536.9 Q1247.87 1541.3 1250.23 1543.62 Q1252.62 1545.91 1256.85 1545.91 Q1259.31 1545.91 1261.6 1545.31 Q1263.91 1544.7 1266.18 1543.5 L1266.18 1547.53 Q1263.89 1548.5 1261.48 1549.01 Q1259.07 1549.52 1256.6 1549.52 Q1250.39 1549.52 1246.76 1545.91 Q1243.15 1542.3 1243.15 1536.14 Q1243.15 1529.77 1246.57 1526.05 Q1250.02 1522.3 1255.86 1522.3 Q1261.09 1522.3 1264.12 1525.68 Q1267.18 1529.03 1267.18 1534.82 M1262.92 1533.57 Q1262.87 1530.07 1260.95 1527.99 Q1259.05 1525.91 1255.9 1525.91 Q1252.34 1525.91 1250.18 1527.92 Q1248.06 1529.94 1247.73 1533.59 L1262.92 1533.57 Z" fill="#000000" fill-rule="nonzero" fill-opacity="1" /><path clip-path="url(#clip450)" d="M1289.19 1526.9 Q1288.47 1526.49 1287.62 1526.3 Q1286.78 1526.09 1285.76 1526.09 Q1282.15 1526.09 1280.21 1528.45 Q1278.29 1530.79 1278.29 1535.19 L1278.29 1548.85 L1274 1548.85 L1274 1522.92 L1278.29 1522.92 L1278.29 1526.95 Q1279.63 1524.59 1281.78 1523.45 Q1283.93 1522.3 1287.01 1522.3 Q1287.45 1522.3 1287.99 1522.37 Q1288.52 1522.41 1289.17 1522.53 L1289.19 1526.9 Z" fill="#000000" fill-rule="nonzero" fill-opacity="1" /><path clip-path="url(#clip450)" d="M1313.01 1527.9 Q1314.61 1525.03 1316.83 1523.66 Q1319.05 1522.3 1322.06 1522.3 Q1326.11 1522.3 1328.31 1525.14 Q1330.51 1527.97 1330.51 1533.2 L1330.51 1548.85 L1326.23 1548.85 L1326.23 1533.34 Q1326.23 1529.61 1324.91 1527.81 Q1323.59 1526 1320.88 1526 Q1317.57 1526 1315.65 1528.2 Q1313.73 1530.4 1313.73 1534.2 L1313.73 1548.85 L1309.44 1548.85 L1309.44 1533.34 Q1309.44 1529.59 1308.12 1527.81 Q1306.8 1526 1304.05 1526 Q1300.79 1526 1298.87 1528.22 Q1296.94 1530.42 1296.94 1534.2 L1296.94 1548.85 L1292.66 1548.85 L1292.66 1522.92 L1296.94 1522.92 L1296.94 1526.95 Q1298.4 1524.57 1300.44 1523.43 Q1302.48 1522.3 1305.28 1522.3 Q1308.1 1522.3 1310.07 1523.73 Q1312.06 1525.17 1313.01 1527.9 Z" fill="#000000" fill-rule="nonzero" fill-opacity="1" /><path clip-path="url(#clip450)" d="M1350.79 1535.82 Q1345.62 1535.82 1343.63 1537 Q1341.64 1538.18 1341.64 1541.02 Q1341.64 1543.29 1343.12 1544.63 Q1344.63 1545.95 1347.2 1545.95 Q1350.74 1545.95 1352.87 1543.45 Q1355.02 1540.93 1355.02 1536.76 L1355.02 1535.82 L1350.79 1535.82 M1359.28 1534.06 L1359.28 1548.85 L1355.02 1548.85 L1355.02 1544.91 Q1353.56 1547.27 1351.39 1548.41 Q1349.21 1549.52 1346.06 1549.52 Q1342.08 1549.52 1339.72 1547.3 Q1337.38 1545.05 1337.38 1541.3 Q1337.38 1536.93 1340.3 1534.7 Q1343.24 1532.48 1349.05 1532.48 L1355.02 1532.48 L1355.02 1532.07 Q1355.02 1529.13 1353.08 1527.53 Q1351.16 1525.91 1347.66 1525.91 Q1345.44 1525.91 1343.33 1526.44 Q1341.23 1526.97 1339.28 1528.04 L1339.28 1524.1 Q1341.62 1523.2 1343.82 1522.76 Q1346.02 1522.3 1348.1 1522.3 Q1353.73 1522.3 1356.5 1525.21 Q1359.28 1528.13 1359.28 1534.06 Z" fill="#000000" fill-rule="nonzero" fill-opacity="1" /><path clip-path="url(#clip450)" d="M1389.61 1533.2 L1389.61 1548.85 L1385.35 1548.85 L1385.35 1533.34 Q1385.35 1529.66 1383.91 1527.83 Q1382.48 1526 1379.61 1526 Q1376.16 1526 1374.17 1528.2 Q1372.17 1530.4 1372.17 1534.2 L1372.17 1548.85 L1367.89 1548.85 L1367.89 1522.92 L1372.17 1522.92 L1372.17 1526.95 Q1373.7 1524.61 1375.76 1523.45 Q1377.85 1522.3 1380.55 1522.3 Q1385.02 1522.3 1387.31 1525.07 Q1389.61 1527.83 1389.61 1533.2 Z" fill="#000000" fill-rule="nonzero" fill-opacity="1" /><path clip-path="url(#clip450)" d="M1408.89 1551.26 Q1407.08 1555.88 1405.37 1557.3 Q1403.66 1558.71 1400.79 1558.71 L1397.38 1558.71 L1397.38 1555.14 L1399.88 1555.14 Q1401.64 1555.14 1402.61 1554.31 Q1403.59 1553.48 1404.77 1550.38 L1405.53 1548.43 L1395.05 1522.92 L1399.56 1522.92 L1407.66 1543.2 L1415.76 1522.92 L1420.28 1522.92 L1408.89 1551.26 Z" fill="#000000" fill-rule="nonzero" fill-opacity="1" /><path clip-path="url(#clip450)" d="M1896.72 1518.13 L1896.72 1545.01 L1902.36 1545.01 Q1909.52 1545.01 1912.83 1541.76 Q1916.16 1538.52 1916.16 1531.53 Q1916.16 1524.59 1912.83 1521.37 Q1909.52 1518.13 1902.36 1518.13 L1896.72 1518.13 M1892.04 1514.29 L1901.65 1514.29 Q1911.69 1514.29 1916.39 1518.48 Q1921.09 1522.64 1921.09 1531.53 Q1921.09 1540.47 1916.37 1544.66 Q1911.65 1548.85 1901.65 1548.85 L1892.04 1548.85 L1892.04 1514.29 Z" fill="#000000" fill-rule="nonzero" fill-opacity="1" /><path clip-path="url(#clip450)" d="M1950.54 1534.82 L1950.54 1536.9 L1930.95 1536.9 Q1931.23 1541.3 1933.59 1543.62 Q1935.98 1545.91 1940.21 1545.91 Q1942.67 1545.91 1944.96 1545.31 Q1947.27 1544.7 1949.54 1543.5 L1949.54 1547.53 Q1947.25 1548.5 1944.84 1549.01 Q1942.43 1549.52 1939.96 1549.52 Q1933.75 1549.52 1930.12 1545.91 Q1926.51 1542.3 1926.51 1536.14 Q1926.51 1529.77 1929.93 1526.05 Q1933.38 1522.3 1939.22 1522.3 Q1944.45 1522.3 1947.48 1525.68 Q1950.54 1529.03 1950.54 1534.82 M1946.28 1533.57 Q1946.23 1530.07 1944.31 1527.99 Q1942.41 1525.91 1939.26 1525.91 Q1935.7 1525.91 1933.55 1527.92 Q1931.42 1529.94 1931.09 1533.59 L1946.28 1533.57 Z" fill="#000000" fill-rule="nonzero" fill-opacity="1" /><path clip-path="url(#clip450)" d="M1979.08 1533.2 L1979.08 1548.85 L1974.82 1548.85 L1974.82 1533.34 Q1974.82 1529.66 1973.38 1527.83 Q1971.95 1526 1969.08 1526 Q1965.63 1526 1963.64 1528.2 Q1961.65 1530.4 1961.65 1534.2 L1961.65 1548.85 L1957.36 1548.85 L1957.36 1522.92 L1961.65 1522.92 L1961.65 1526.95 Q1963.17 1524.61 1965.23 1523.45 Q1967.32 1522.3 1970.03 1522.3 Q1974.49 1522.3 1976.79 1525.07 Q1979.08 1527.83 1979.08 1533.2 Z" fill="#000000" fill-rule="nonzero" fill-opacity="1" /><path clip-path="url(#clip450)" d="M2007.76 1527.9 Q2009.35 1525.03 2011.58 1523.66 Q2013.8 1522.3 2016.81 1522.3 Q2020.86 1522.3 2023.06 1525.14 Q2025.26 1527.97 2025.26 1533.2 L2025.26 1548.85 L2020.98 1548.85 L2020.98 1533.34 Q2020.98 1529.61 2019.66 1527.81 Q2018.34 1526 2015.63 1526 Q2012.32 1526 2010.4 1528.2 Q2008.48 1530.4 2008.48 1534.2 L2008.48 1548.85 L2004.19 1548.85 L2004.19 1533.34 Q2004.19 1529.59 2002.87 1527.81 Q2001.55 1526 1998.8 1526 Q1995.54 1526 1993.61 1528.22 Q1991.69 1530.42 1991.69 1534.2 L1991.69 1548.85 L1987.41 1548.85 L1987.41 1522.92 L1991.69 1522.92 L1991.69 1526.95 Q1993.15 1524.57 1995.19 1523.43 Q1997.23 1522.3 2000.03 1522.3 Q2002.85 1522.3 2004.82 1523.73 Q2006.81 1525.17 2007.76 1527.9 Z" fill="#000000" fill-rule="nonzero" fill-opacity="1" /><path clip-path="url(#clip450)" d="M2045.54 1535.82 Q2040.37 1535.82 2038.38 1537 Q2036.39 1538.18 2036.39 1541.02 Q2036.39 1543.29 2037.87 1544.63 Q2039.38 1545.95 2041.95 1545.95 Q2045.49 1545.95 2047.62 1543.45 Q2049.77 1540.93 2049.77 1536.76 L2049.77 1535.82 L2045.54 1535.82 M2054.03 1534.06 L2054.03 1548.85 L2049.77 1548.85 L2049.77 1544.91 Q2048.31 1547.27 2046.14 1548.41 Q2043.96 1549.52 2040.81 1549.52 Q2036.83 1549.52 2034.47 1547.3 Q2032.13 1545.05 2032.13 1541.3 Q2032.13 1536.93 2035.05 1534.7 Q2037.99 1532.48 2043.8 1532.48 L2049.77 1532.48 L2049.77 1532.07 Q2049.77 1529.13 2047.83 1527.53 Q2045.91 1525.91 2042.41 1525.91 Q2040.19 1525.91 2038.08 1526.44 Q2035.98 1526.97 2034.03 1528.04 L2034.03 1524.1 Q2036.37 1523.2 2038.57 1522.76 Q2040.77 1522.3 2042.85 1522.3 Q2048.48 1522.3 2051.25 1525.21 Q2054.03 1528.13 2054.03 1534.06 Z" fill="#000000" fill-rule="nonzero" fill-opacity="1" /><path clip-path="url(#clip450)" d="M2077.83 1526.9 Q2077.11 1526.49 2076.25 1526.3 Q2075.42 1526.09 2074.4 1526.09 Q2070.79 1526.09 2068.85 1528.45 Q2066.92 1530.79 2066.92 1535.19 L2066.92 1548.85 L2062.64 1548.85 L2062.64 1522.92 L2066.92 1522.92 L2066.92 1526.95 Q2068.27 1524.59 2070.42 1523.45 Q2072.57 1522.3 2075.65 1522.3 Q2076.09 1522.3 2076.62 1522.37 Q2077.16 1522.41 2077.8 1522.53 L2077.83 1526.9 Z" fill="#000000" fill-rule="nonzero" fill-opacity="1" /><path clip-path="url(#clip450)" d="M2082.13 1512.83 L2086.41 1512.83 L2086.41 1534.1 L2099.12 1522.92 L2104.56 1522.92 L2090.81 1535.05 L2105.14 1548.85 L2099.59 1548.85 L2086.41 1536.19 L2086.41 1548.85 L2082.13 1548.85 L2082.13 1512.83 Z" fill="#000000" fill-rule="nonzero" fill-opacity="1" /><polyline clip-path="url(#clip452)" style="stroke:#000000; stroke-linecap:round; stroke-linejoin:round; stroke-width:2; stroke-opacity:0.1; fill:none" points="273.979,1445.72 2352.76,1445.72 "/>
<polyline clip-path="url(#clip452)" style="stroke:#000000; stroke-linecap:round; stroke-linejoin:round; stroke-width:2; stroke-opacity:0.1; fill:none" points="273.979,1050.35 2352.76,1050.35 "/>
<polyline clip-path="url(#clip452)" style="stroke:#000000; stroke-linecap:round; stroke-linejoin:round; stroke-width:2; stroke-opacity:0.1; fill:none" points="273.979,654.975 2352.76,654.975 "/>
<polyline clip-path="url(#clip452)" style="stroke:#000000; stroke-linecap:round; stroke-linejoin:round; stroke-width:2; stroke-opacity:0.1; fill:none" points="273.979,259.604 2352.76,259.604 "/>
<polyline clip-path="url(#clip450)" style="stroke:#000000; stroke-linecap:round; stroke-linejoin:round; stroke-width:4; stroke-opacity:1; fill:none" points="273.979,1486.45 273.979,47.2441 "/>
<polyline clip-path="url(#clip450)" style="stroke:#000000; stroke-linecap:round; stroke-linejoin:round; stroke-width:4; stroke-opacity:1; fill:none" points="273.979,1445.72 292.877,1445.72 "/>
<polyline clip-path="url(#clip450)" style="stroke:#000000; stroke-linecap:round; stroke-linejoin:round; stroke-width:4; stroke-opacity:1; fill:none" points="273.979,1050.35 292.877,1050.35 "/>
<polyline clip-path="url(#clip450)" style="stroke:#000000; stroke-linecap:round; stroke-linejoin:round; stroke-width:4; stroke-opacity:1; fill:none" points="273.979,654.975 292.877,654.975 "/>
<polyline clip-path="url(#clip450)" style="stroke:#000000; stroke-linecap:round; stroke-linejoin:round; stroke-width:4; stroke-opacity:1; fill:none" points="273.979,259.604 292.877,259.604 "/>
<path clip-path="url(#clip450)" d="M226.035 1431.51 Q222.423 1431.51 220.595 1435.08 Q218.789 1438.62 218.789 1445.75 Q218.789 1452.86 220.595 1456.42 Q222.423 1459.96 226.035 1459.96 Q229.669 1459.96 231.474 1456.42 Q233.303 1452.86 233.303 1445.75 Q233.303 1438.62 231.474 1435.08 Q229.669 1431.51 226.035 1431.51 M226.035 1427.81 Q231.845 1427.81 234.9 1432.42 Q237.979 1437 237.979 1445.75 Q237.979 1454.48 234.9 1459.08 Q231.845 1463.67 226.035 1463.67 Q220.224 1463.67 217.146 1459.08 Q214.09 1454.48 214.09 1445.75 Q214.09 1437 217.146 1432.42 Q220.224 1427.81 226.035 1427.81 Z" fill="#000000" fill-rule="nonzero" fill-opacity="1" /><path clip-path="url(#clip450)" d="M53.3995 1070.14 L61.0384 1070.14 L61.0384 1043.77 L52.7282 1045.44 L52.7282 1041.18 L60.9921 1039.51 L65.668 1039.51 L65.668 1070.14 L73.3068 1070.14 L73.3068 1074.07 L53.3995 1074.07 L53.3995 1070.14 Z" fill="#000000" fill-rule="nonzero" fill-opacity="1" /><path clip-path="url(#clip450)" d="M82.7512 1068.19 L87.6354 1068.19 L87.6354 1074.07 L82.7512 1074.07 L82.7512 1068.19 Z" fill="#000000" fill-rule="nonzero" fill-opacity="1" /><path clip-path="url(#clip450)" d="M107.821 1042.59 Q104.209 1042.59 102.381 1046.16 Q100.575 1049.7 100.575 1056.83 Q100.575 1063.93 102.381 1067.5 Q104.209 1071.04 107.821 1071.04 Q111.455 1071.04 113.26 1067.5 Q115.089 1063.93 115.089 1056.83 Q115.089 1049.7 113.26 1046.16 Q111.455 1042.59 107.821 1042.59 M107.821 1038.89 Q113.631 1038.89 116.686 1043.49 Q119.765 1048.08 119.765 1056.83 Q119.765 1065.55 116.686 1070.16 Q113.631 1074.74 107.821 1074.74 Q102.01 1074.74 98.9317 1070.16 Q95.8761 1065.55 95.8761 1056.83 Q95.8761 1048.08 98.9317 1043.49 Q102.01 1038.89 107.821 1038.89 Z" fill="#000000" fill-rule="nonzero" fill-opacity="1" /><path clip-path="url(#clip450)" d="M156.154 1048.61 L145.575 1059.23 L156.154 1069.81 L153.399 1072.61 L142.774 1061.99 L132.149 1072.61 L129.418 1069.81 L139.973 1059.23 L129.418 1048.61 L132.149 1045.81 L142.774 1056.43 L153.399 1045.81 L156.154 1048.61 Z" fill="#000000" fill-rule="nonzero" fill-opacity="1" /><path clip-path="url(#clip450)" d="M168.515 1070.14 L176.153 1070.14 L176.153 1043.77 L167.843 1045.44 L167.843 1041.18 L176.107 1039.51 L180.783 1039.51 L180.783 1070.14 L188.422 1070.14 L188.422 1074.07 L168.515 1074.07 L168.515 1070.14 Z" fill="#000000" fill-rule="nonzero" fill-opacity="1" /><path clip-path="url(#clip450)" d="M207.866 1042.59 Q204.255 1042.59 202.426 1046.16 Q200.621 1049.7 200.621 1056.83 Q200.621 1063.93 202.426 1067.5 Q204.255 1071.04 207.866 1071.04 Q211.501 1071.04 213.306 1067.5 Q215.135 1063.93 215.135 1056.83 Q215.135 1049.7 213.306 1046.16 Q211.501 1042.59 207.866 1042.59 M207.866 1038.89 Q213.676 1038.89 216.732 1043.49 Q219.811 1048.08 219.811 1056.83 Q219.811 1065.55 216.732 1070.16 Q213.676 1074.74 207.866 1074.74 Q202.056 1074.74 198.977 1070.16 Q195.922 1065.55 195.922 1056.83 Q195.922 1048.08 198.977 1043.49 Q202.056 1038.89 207.866 1038.89 Z" fill="#000000" fill-rule="nonzero" fill-opacity="1" /><path clip-path="url(#clip450)" d="M220.996 1018.58 L235.91 1018.58 L235.91 1021.78 L224.475 1021.78 L224.475 1028.66 Q225.303 1028.38 226.13 1028.25 Q226.958 1028.1 227.785 1028.1 Q232.487 1028.1 235.233 1030.68 Q237.979 1033.25 237.979 1037.65 Q237.979 1042.19 235.158 1044.71 Q232.337 1047.21 227.202 1047.21 Q225.434 1047.21 223.591 1046.91 Q221.767 1046.61 219.811 1046 L219.811 1042.19 Q221.503 1043.11 223.309 1043.56 Q225.114 1044.01 227.127 1044.01 Q230.381 1044.01 232.28 1042.3 Q234.18 1040.59 234.18 1037.65 Q234.18 1034.72 232.28 1033.01 Q230.381 1031.3 227.127 1031.3 Q225.603 1031.3 224.08 1031.64 Q222.575 1031.97 220.996 1032.69 L220.996 1018.58 Z" fill="#000000" fill-rule="nonzero" fill-opacity="1" /><path clip-path="url(#clip450)" d="M56.6171 674.767 L72.9365 674.767 L72.9365 678.702 L50.9921 678.702 L50.9921 674.767 Q53.6541 672.013 58.2375 667.383 Q62.8439 662.73 64.0245 661.388 Q66.2698 658.865 67.1494 657.128 Q68.0522 655.369 68.0522 653.679 Q68.0522 650.925 66.1078 649.189 Q64.1865 647.453 61.0847 647.453 Q58.8856 647.453 56.4319 648.217 Q54.0014 648.98 51.2236 650.531 L51.2236 645.809 Q54.0477 644.675 56.5014 644.096 Q58.955 643.517 60.9921 643.517 Q66.3624 643.517 69.5568 646.203 Q72.7513 648.888 72.7513 653.379 Q72.7513 655.508 71.9411 657.429 Q71.1541 659.328 69.0476 661.92 Q68.4689 662.591 65.367 665.809 Q62.2652 669.003 56.6171 674.767 Z" fill="#000000" fill-rule="nonzero" fill-opacity="1" /><path clip-path="url(#clip450)" d="M82.7512 672.823 L87.6354 672.823 L87.6354 678.702 L82.7512 678.702 L82.7512 672.823 Z" fill="#000000" fill-rule="nonzero" fill-opacity="1" /><path clip-path="url(#clip450)" d="M107.821 647.221 Q104.209 647.221 102.381 650.786 Q100.575 654.328 100.575 661.457 Q100.575 668.564 102.381 672.128 Q104.209 675.67 107.821 675.67 Q111.455 675.67 113.26 672.128 Q115.089 668.564 115.089 661.457 Q115.089 654.328 113.26 650.786 Q111.455 647.221 107.821 647.221 M107.821 643.517 Q113.631 643.517 116.686 648.124 Q119.765 652.707 119.765 661.457 Q119.765 670.184 116.686 674.79 Q113.631 679.374 107.821 679.374 Q102.01 679.374 98.9317 674.79 Q95.8761 670.184 95.8761 661.457 Q95.8761 652.707 98.9317 648.124 Q102.01 643.517 107.821 643.517 Z" fill="#000000" fill-rule="nonzero" fill-opacity="1" /><path clip-path="url(#clip450)" d="M156.154 653.24 L145.575 663.865 L156.154 674.443 L153.399 677.244 L142.774 666.619 L132.149 677.244 L129.418 674.443 L139.973 663.865 L129.418 653.24 L132.149 650.439 L142.774 661.064 L153.399 650.439 L156.154 653.24 Z" fill="#000000" fill-rule="nonzero" fill-opacity="1" /><path clip-path="url(#clip450)" d="M168.515 674.767 L176.153 674.767 L176.153 648.402 L167.843 650.068 L167.843 645.809 L176.107 644.142 L180.783 644.142 L180.783 674.767 L188.422 674.767 L188.422 678.702 L168.515 678.702 L168.515 674.767 Z" fill="#000000" fill-rule="nonzero" fill-opacity="1" /><path clip-path="url(#clip450)" d="M207.866 647.221 Q204.255 647.221 202.426 650.786 Q200.621 654.328 200.621 661.457 Q200.621 668.564 202.426 672.128 Q204.255 675.67 207.866 675.67 Q211.501 675.67 213.306 672.128 Q215.135 668.564 215.135 661.457 Q215.135 654.328 213.306 650.786 Q211.501 647.221 207.866 647.221 M207.866 643.517 Q213.676 643.517 216.732 648.124 Q219.811 652.707 219.811 661.457 Q219.811 670.184 216.732 674.79 Q213.676 679.374 207.866 679.374 Q202.056 679.374 198.977 674.79 Q195.922 670.184 195.922 661.457 Q195.922 652.707 198.977 648.124 Q202.056 643.517 207.866 643.517 Z" fill="#000000" fill-rule="nonzero" fill-opacity="1" /><path clip-path="url(#clip450)" d="M220.996 623.212 L235.91 623.212 L235.91 626.409 L224.475 626.409 L224.475 633.293 Q225.303 633.011 226.13 632.879 Q226.958 632.729 227.785 632.729 Q232.487 632.729 235.233 635.305 Q237.979 637.882 237.979 642.283 Q237.979 646.816 235.158 649.336 Q232.337 651.837 227.202 651.837 Q225.434 651.837 223.591 651.537 Q221.767 651.236 219.811 650.634 L219.811 646.816 Q221.503 647.737 223.309 648.189 Q225.114 648.64 227.127 648.64 Q230.381 648.64 232.28 646.929 Q234.18 645.217 234.18 642.283 Q234.18 639.349 232.28 637.638 Q230.381 635.926 227.127 635.926 Q225.603 635.926 224.08 636.265 Q222.575 636.603 220.996 637.318 L220.996 623.212 Z" fill="#000000" fill-rule="nonzero" fill-opacity="1" /><path clip-path="url(#clip450)" d="M66.7559 264.698 Q70.1124 265.415 71.9874 267.684 Q73.8855 269.952 73.8855 273.286 Q73.8855 278.402 70.367 281.202 Q66.8485 284.003 60.3671 284.003 Q58.1912 284.003 55.8764 283.564 Q53.5847 283.147 51.131 282.29 L51.131 277.777 Q53.0754 278.911 55.3903 279.489 Q57.7051 280.068 60.2282 280.068 Q64.6263 280.068 66.918 278.332 Q69.2328 276.596 69.2328 273.286 Q69.2328 270.23 67.08 268.517 Q64.9504 266.781 61.131 266.781 L57.1032 266.781 L57.1032 262.939 L61.3161 262.939 Q64.7652 262.939 66.5939 261.573 Q68.4226 260.184 68.4226 257.591 Q68.4226 254.929 66.5245 253.517 Q64.6495 252.082 61.131 252.082 Q59.2097 252.082 57.0106 252.499 Q54.8115 252.916 52.1727 253.795 L52.1727 249.629 Q54.8347 248.888 57.1495 248.517 Q59.4875 248.147 61.5476 248.147 Q66.8717 248.147 69.9735 250.578 Q73.0753 252.985 73.0753 257.105 Q73.0753 259.976 71.4318 261.966 Q69.7883 263.934 66.7559 264.698 Z" fill="#000000" fill-rule="nonzero" fill-opacity="1" /><path clip-path="url(#clip450)" d="M82.7512 277.452 L87.6354 277.452 L87.6354 283.332 L82.7512 283.332 L82.7512 277.452 Z" fill="#000000" fill-rule="nonzero" fill-opacity="1" /><path clip-path="url(#clip450)" d="M107.821 251.851 Q104.209 251.851 102.381 255.416 Q100.575 258.957 100.575 266.087 Q100.575 273.193 102.381 276.758 Q104.209 280.3 107.821 280.3 Q111.455 280.3 113.26 276.758 Q115.089 273.193 115.089 266.087 Q115.089 258.957 113.26 255.416 Q111.455 251.851 107.821 251.851 M107.821 248.147 Q113.631 248.147 116.686 252.753 Q119.765 257.337 119.765 266.087 Q119.765 274.814 116.686 279.42 Q113.631 284.003 107.821 284.003 Q102.01 284.003 98.9317 279.42 Q95.8761 274.814 95.8761 266.087 Q95.8761 257.337 98.9317 252.753 Q102.01 248.147 107.821 248.147 Z" fill="#000000" fill-rule="nonzero" fill-opacity="1" /><path clip-path="url(#clip450)" d="M156.154 257.869 L145.575 268.494 L156.154 279.073 L153.399 281.874 L142.774 271.249 L132.149 281.874 L129.418 279.073 L139.973 268.494 L129.418 257.869 L132.149 255.068 L142.774 265.693 L153.399 255.068 L156.154 257.869 Z" fill="#000000" fill-rule="nonzero" fill-opacity="1" /><path clip-path="url(#clip450)" d="M168.515 279.397 L176.153 279.397 L176.153 253.031 L167.843 254.698 L167.843 250.439 L176.107 248.772 L180.783 248.772 L180.783 279.397 L188.422 279.397 L188.422 283.332 L168.515 283.332 L168.515 279.397 Z" fill="#000000" fill-rule="nonzero" fill-opacity="1" /><path clip-path="url(#clip450)" d="M207.866 251.851 Q204.255 251.851 202.426 255.416 Q200.621 258.957 200.621 266.087 Q200.621 273.193 202.426 276.758 Q204.255 280.3 207.866 280.3 Q211.501 280.3 213.306 276.758 Q215.135 273.193 215.135 266.087 Q215.135 258.957 213.306 255.416 Q211.501 251.851 207.866 251.851 M207.866 248.147 Q213.676 248.147 216.732 252.753 Q219.811 257.337 219.811 266.087 Q219.811 274.814 216.732 279.42 Q213.676 284.003 207.866 284.003 Q202.056 284.003 198.977 279.42 Q195.922 274.814 195.922 266.087 Q195.922 257.337 198.977 252.753 Q202.056 248.147 207.866 248.147 Z" fill="#000000" fill-rule="nonzero" fill-opacity="1" /><path clip-path="url(#clip450)" d="M220.996 227.842 L235.91 227.842 L235.91 231.039 L224.475 231.039 L224.475 237.923 Q225.303 237.64 226.13 237.509 Q226.958 237.358 227.785 237.358 Q232.487 237.358 235.233 239.935 Q237.979 242.512 237.979 246.913 Q237.979 251.445 235.158 253.966 Q232.337 256.467 227.202 256.467 Q225.434 256.467 223.591 256.166 Q221.767 255.865 219.811 255.263 L219.811 251.445 Q221.503 252.367 223.309 252.818 Q225.114 253.27 227.127 253.27 Q230.381 253.27 232.28 251.558 Q234.18 249.847 234.18 246.913 Q234.18 243.979 232.28 242.267 Q230.381 240.556 227.127 240.556 Q225.603 240.556 224.08 240.894 Q222.575 241.233 220.996 241.947 L220.996 227.842 Z" fill="#000000" fill-rule="nonzero" fill-opacity="1" /><path clip-path="url(#clip452)" d="M388.315 87.9763 L388.315 509.437 L867.972 509.437 L867.972 87.9763 L388.315 87.9763 L388.315 87.9763  Z" fill="#009af9" fill-rule="evenodd" fill-opacity="1"/>
<polyline clip-path="url(#clip452)" style="stroke:#000000; stroke-linecap:round; stroke-linejoin:round; stroke-width:4; stroke-opacity:1; fill:none" points="388.315,87.9763 388.315,509.437 867.972,509.437 867.972,87.9763 388.315,87.9763 "/>
<path clip-path="url(#clip452)" d="M1073.54 1103.01 L1073.54 1363.33 L1553.2 1363.33 L1553.2 1103.01 L1073.54 1103.01 L1073.54 1103.01  Z" fill="#009af9" fill-rule="evenodd" fill-opacity="1"/>
<polyline clip-path="url(#clip452)" style="stroke:#000000; stroke-linecap:round; stroke-linejoin:round; stroke-width:4; stroke-opacity:1; fill:none" points="1073.54,1103.01 1073.54,1363.33 1553.2,1363.33 1553.2,1103.01 1073.54,1103.01 "/>
<path clip-path="url(#clip452)" d="M1758.76 1318.62 L1758.76 1379.37 L2238.42 1379.37 L2238.42 1318.62 L1758.76 1318.62 L1758.76 1318.62  Z" fill="#009af9" fill-rule="evenodd" fill-opacity="1"/>
<polyline clip-path="url(#clip452)" style="stroke:#000000; stroke-linecap:round; stroke-linejoin:round; stroke-width:4; stroke-opacity:1; fill:none" points="1758.76,1318.62 1758.76,1379.37 2238.42,1379.37 2238.42,1318.62 1758.76,1318.62 "/>
<circle clip-path="url(#clip452)" style="fill:#009af9; stroke:none; fill-opacity:0" cx="628.144" cy="87.9763" r="2"/>
<circle clip-path="url(#clip452)" style="fill:#009af9; stroke:none; fill-opacity:0" cx="1313.37" cy="1103.01" r="2"/>
<circle clip-path="url(#clip452)" style="fill:#009af9; stroke:none; fill-opacity:0" cx="1998.59" cy="1318.62" r="2"/>
<path clip-path="url(#clip452)" d="M388.315 509.437 L388.315 903.583 L867.972 903.583 L867.972 509.437 L388.315 509.437 L388.315 509.437  Z" fill="#e26f46" fill-rule="evenodd" fill-opacity="1"/>
<polyline clip-path="url(#clip452)" style="stroke:#000000; stroke-linecap:round; stroke-linejoin:round; stroke-width:4; stroke-opacity:1; fill:none" points="388.315,509.437 388.315,903.583 867.972,903.583 867.972,509.437 388.315,509.437 "/>
<path clip-path="url(#clip452)" d="M1073.54 1363.33 L1073.54 1363.33 L1553.2 1363.33 L1553.2 1363.33 L1073.54 1363.33 L1073.54 1363.33  Z" fill="#e26f46" fill-rule="evenodd" fill-opacity="1"/>
<polyline clip-path="url(#clip452)" style="stroke:#000000; stroke-linecap:round; stroke-linejoin:round; stroke-width:4; stroke-opacity:1; fill:none" points="1073.54,1363.33 1073.54,1363.33 1553.2,1363.33 1073.54,1363.33 "/>
<path clip-path="url(#clip452)" d="M1758.76 1379.37 L1758.76 1395.43 L2238.42 1395.43 L2238.42 1379.37 L1758.76 1379.37 L1758.76 1379.37  Z" fill="#e26f46" fill-rule="evenodd" fill-opacity="1"/>
<polyline clip-path="url(#clip452)" style="stroke:#000000; stroke-linecap:round; stroke-linejoin:round; stroke-width:4; stroke-opacity:1; fill:none" points="1758.76,1379.37 1758.76,1395.43 2238.42,1395.43 2238.42,1379.37 1758.76,1379.37 "/>
<circle clip-path="url(#clip452)" style="fill:#e26f46; stroke:none; fill-opacity:0" cx="628.144" cy="509.437" r="2"/>
<circle clip-path="url(#clip452)" style="fill:#e26f46; stroke:none; fill-opacity:0" cx="1313.37" cy="1363.33" r="2"/>
<circle clip-path="url(#clip452)" style="fill:#e26f46; stroke:none; fill-opacity:0" cx="1998.59" cy="1379.37" r="2"/>
<path clip-path="url(#clip452)" d="M388.315 903.583 L388.315 1110.8 L867.972 1110.8 L867.972 903.583 L388.315 903.583 L388.315 903.583  Z" fill="#3da44d" fill-rule="evenodd" fill-opacity="1"/>
<polyline clip-path="url(#clip452)" style="stroke:#000000; stroke-linecap:round; stroke-linejoin:round; stroke-width:4; stroke-opacity:1; fill:none" points="388.315,903.583 388.315,1110.8 867.972,1110.8 867.972,903.583 388.315,903.583 "/>
<path clip-path="url(#clip452)" d="M1073.54 1363.33 L1073.54 1369.95 L1553.2 1369.95 L1553.2 1363.33 L1073.54 1363.33 L1073.54 1363.33  Z" fill="#3da44d" fill-rule="evenodd" fill-opacity="1"/>
<polyline clip-path="url(#clip452)" style="stroke:#000000; stroke-linecap:round; stroke-linejoin:round; stroke-width:4; stroke-opacity:1; fill:none" points="1073.54,1363.33 1073.54,1369.95 1553.2,1369.95 1553.2,1363.33 1073.54,1363.33 "/>
<path clip-path="url(#clip452)" d="M1758.76 1395.43 L1758.76 1407.62 L2238.42 1407.62 L2238.42 1395.43 L1758.76 1395.43 L1758.76 1395.43  Z" fill="#3da44d" fill-rule="evenodd" fill-opacity="1"/>
<polyline clip-path="url(#clip452)" style="stroke:#000000; stroke-linecap:round; stroke-linejoin:round; stroke-width:4; stroke-opacity:1; fill:none" points="1758.76,1395.43 1758.76,1407.62 2238.42,1407.62 2238.42,1395.43 1758.76,1395.43 "/>
<circle clip-path="url(#clip452)" style="fill:#3da44d; stroke:none; fill-opacity:0" cx="628.144" cy="903.583" r="2"/>
<circle clip-path="url(#clip452)" style="fill:#3da44d; stroke:none; fill-opacity:0" cx="1313.37" cy="1363.33" r="2"/>
<circle clip-path="url(#clip452)" style="fill:#3da44d; stroke:none; fill-opacity:0" cx="1998.59" cy="1395.43" r="2"/>
<path clip-path="url(#clip452)" d="M388.315 1110.8 L388.315 1110.8 L867.972 1110.8 L867.972 1110.8 L388.315 1110.8 L388.315 1110.8  Z" fill="#c271d2" fill-rule="evenodd" fill-opacity="1"/>
<polyline clip-path="url(#clip452)" style="stroke:#000000; stroke-linecap:round; stroke-linejoin:round; stroke-width:4; stroke-opacity:1; fill:none" points="388.315,1110.8 388.315,1110.8 867.972,1110.8 388.315,1110.8 "/>
<path clip-path="url(#clip452)" d="M1073.54 1369.95 L1073.54 1425.31 L1553.2 1425.31 L1553.2 1369.95 L1073.54 1369.95 L1073.54 1369.95  Z" fill="#c271d2" fill-rule="evenodd" fill-opacity="1"/>
<polyline clip-path="url(#clip452)" style="stroke:#000000; stroke-linecap:round; stroke-linejoin:round; stroke-width:4; stroke-opacity:1; fill:none" points="1073.54,1369.95 1073.54,1425.31 1553.2,1425.31 1553.2,1369.95 1073.54,1369.95 "/>
<path clip-path="url(#clip452)" d="M1758.76 1407.62 L1758.76 1407.62 L2238.42 1407.62 L2238.42 1407.62 L1758.76 1407.62 L1758.76 1407.62  Z" fill="#c271d2" fill-rule="evenodd" fill-opacity="1"/>
<polyline clip-path="url(#clip452)" style="stroke:#000000; stroke-linecap:round; stroke-linejoin:round; stroke-width:4; stroke-opacity:1; fill:none" points="1758.76,1407.62 1758.76,1407.62 2238.42,1407.62 1758.76,1407.62 "/>
<circle clip-path="url(#clip452)" style="fill:#c271d2; stroke:none; fill-opacity:0" cx="628.144" cy="1110.8" r="2"/>
<circle clip-path="url(#clip452)" style="fill:#c271d2; stroke:none; fill-opacity:0" cx="1313.37" cy="1369.95" r="2"/>
<circle clip-path="url(#clip452)" style="fill:#c271d2; stroke:none; fill-opacity:0" cx="1998.59" cy="1407.62" r="2"/>
<path clip-path="url(#clip452)" d="M388.315 1110.8 L388.315 1362.9 L867.972 1362.9 L867.972 1110.8 L388.315 1110.8 L388.315 1110.8  Z" fill="#ac8d18" fill-rule="evenodd" fill-opacity="1"/>
<polyline clip-path="url(#clip452)" style="stroke:#000000; stroke-linecap:round; stroke-linejoin:round; stroke-width:4; stroke-opacity:1; fill:none" points="388.315,1110.8 388.315,1362.9 867.972,1362.9 867.972,1110.8 388.315,1110.8 "/>
<path clip-path="url(#clip452)" d="M1073.54 1425.31 L1073.54 1444.64 L1553.2 1444.64 L1553.2 1425.31 L1073.54 1425.31 L1073.54 1425.31  Z" fill="#ac8d18" fill-rule="evenodd" fill-opacity="1"/>
<polyline clip-path="url(#clip452)" style="stroke:#000000; stroke-linecap:round; stroke-linejoin:round; stroke-width:4; stroke-opacity:1; fill:none" points="1073.54,1425.31 1073.54,1444.64 1553.2,1444.64 1553.2,1425.31 1073.54,1425.31 "/>
<path clip-path="url(#clip452)" d="M1758.76 1407.62 L1758.76 1433.75 L2238.42 1433.75 L2238.42 1407.62 L1758.76 1407.62 L1758.76 1407.62  Z" fill="#ac8d18" fill-rule="evenodd" fill-opacity="1"/>
<polyline clip-path="url(#clip452)" style="stroke:#000000; stroke-linecap:round; stroke-linejoin:round; stroke-width:4; stroke-opacity:1; fill:none" points="1758.76,1407.62 1758.76,1433.75 2238.42,1433.75 2238.42,1407.62 1758.76,1407.62 "/>
<circle clip-path="url(#clip452)" style="fill:#ac8d18; stroke:none; fill-opacity:0" cx="628.144" cy="1110.8" r="2"/>
<circle clip-path="url(#clip452)" style="fill:#ac8d18; stroke:none; fill-opacity:0" cx="1313.37" cy="1425.31" r="2"/>
<circle clip-path="url(#clip452)" style="fill:#ac8d18; stroke:none; fill-opacity:0" cx="1998.59" cy="1407.62" r="2"/>
<path clip-path="url(#clip452)" d="M388.315 1362.9 L388.315 1445.72 L867.972 1445.72 L867.972 1362.9 L388.315 1362.9 L388.315 1362.9  Z" fill="#00a9ad" fill-rule="evenodd" fill-opacity="1"/>
<polyline clip-path="url(#clip452)" style="stroke:#000000; stroke-linecap:round; stroke-linejoin:round; stroke-width:4; stroke-opacity:1; fill:none" points="388.315,1362.9 388.315,1445.72 867.972,1445.72 867.972,1362.9 388.315,1362.9 "/>
<path clip-path="url(#clip452)" d="M1073.54 1444.64 L1073.54 1445.72 L1553.2 1445.72 L1553.2 1444.64 L1073.54 1444.64 L1073.54 1444.64  Z" fill="#00a9ad" fill-rule="evenodd" fill-opacity="1"/>
<polyline clip-path="url(#clip452)" style="stroke:#000000; stroke-linecap:round; stroke-linejoin:round; stroke-width:4; stroke-opacity:1; fill:none" points="1073.54,1444.64 1073.54,1445.72 1553.2,1445.72 1553.2,1444.64 1073.54,1444.64 "/>
<path clip-path="url(#clip452)" d="M1758.76 1433.75 L1758.76 1445.72 L2238.42 1445.72 L2238.42 1433.75 L1758.76 1433.75 L1758.76 1433.75  Z" fill="#00a9ad" fill-rule="evenodd" fill-opacity="1"/>
<polyline clip-path="url(#clip452)" style="stroke:#000000; stroke-linecap:round; stroke-linejoin:round; stroke-width:4; stroke-opacity:1; fill:none" points="1758.76,1433.75 1758.76,1445.72 2238.42,1445.72 2238.42,1433.75 1758.76,1433.75 "/>
<circle clip-path="url(#clip452)" style="fill:#00a9ad; stroke:none; fill-opacity:0" cx="628.144" cy="1362.9" r="2"/>
<circle clip-path="url(#clip452)" style="fill:#00a9ad; stroke:none; fill-opacity:0" cx="1313.37" cy="1444.64" r="2"/>
<circle clip-path="url(#clip452)" style="fill:#00a9ad; stroke:none; fill-opacity:0" cx="1998.59" cy="1433.75" r="2"/>
<path clip-path="url(#clip450)" d="M1773.23 458.098 L2283.46 458.098 L2283.46 95.2176 L1773.23 95.2176  Z" fill="#ffffff" fill-rule="evenodd" fill-opacity="1"/>
<polyline clip-path="url(#clip450)" style="stroke:#000000; stroke-linecap:round; stroke-linejoin:round; stroke-width:4; stroke-opacity:1; fill:none" points="1773.23,458.098 2283.46,458.098 2283.46,95.2176 1773.23,95.2176 1773.23,458.098 "/>
<path clip-path="url(#clip450)" d="M1796.32 167.794 L1934.91 167.794 L1934.91 126.322 L1796.32 126.322 L1796.32 167.794  Z" fill="#009af9" fill-rule="evenodd" fill-opacity="1"/>
<polyline clip-path="url(#clip450)" style="stroke:#000000; stroke-linecap:round; stroke-linejoin:round; stroke-width:4; stroke-opacity:1; fill:none" points="1796.32,167.794 1934.91,167.794 1934.91,126.322 1796.32,126.322 1796.32,167.794 "/>
<path clip-path="url(#clip450)" d="M1958.01 129.778 L1962.73 129.778 L1970 158.99 L1977.24 129.778 L1982.5 129.778 L1989.77 158.99 L1997.01 129.778 L2001.76 129.778 L1993.08 164.338 L1987.2 164.338 L1979.9 134.338 L1972.54 164.338 L1966.66 164.338 L1958.01 129.778 Z" fill="#000000" fill-rule="nonzero" fill-opacity="1" /><path clip-path="url(#clip450)" d="M2006.73 138.412 L2010.99 138.412 L2010.99 164.338 L2006.73 164.338 L2006.73 138.412 M2006.73 128.319 L2010.99 128.319 L2010.99 133.713 L2006.73 133.713 L2006.73 128.319 Z" fill="#000000" fill-rule="nonzero" fill-opacity="1" /><path clip-path="url(#clip450)" d="M2041.45 148.689 L2041.45 164.338 L2037.2 164.338 L2037.2 148.828 Q2037.2 145.148 2035.76 143.319 Q2034.33 141.49 2031.46 141.49 Q2028.01 141.49 2026.02 143.69 Q2024.02 145.889 2024.02 149.685 L2024.02 164.338 L2019.74 164.338 L2019.74 138.412 L2024.02 138.412 L2024.02 142.44 Q2025.55 140.102 2027.61 138.944 Q2029.7 137.787 2032.4 137.787 Q2036.87 137.787 2039.16 140.565 Q2041.45 143.319 2041.45 148.689 Z" fill="#000000" fill-rule="nonzero" fill-opacity="1" /><path clip-path="url(#clip450)" d="M2067.01 142.347 L2067.01 128.319 L2071.27 128.319 L2071.27 164.338 L2067.01 164.338 L2067.01 160.449 Q2065.67 162.763 2063.61 163.898 Q2061.57 165.009 2058.7 165.009 Q2054 165.009 2051.04 161.259 Q2048.1 157.509 2048.1 151.398 Q2048.1 145.287 2051.04 141.537 Q2054 137.787 2058.7 137.787 Q2061.57 137.787 2063.61 138.921 Q2065.67 140.032 2067.01 142.347 M2052.5 151.398 Q2052.5 156.097 2054.42 158.782 Q2056.36 161.444 2059.74 161.444 Q2063.12 161.444 2065.07 158.782 Q2067.01 156.097 2067.01 151.398 Q2067.01 146.699 2065.07 144.037 Q2063.12 141.352 2059.74 141.352 Q2056.36 141.352 2054.42 144.037 Q2052.5 146.699 2052.5 151.398 Z" fill="#000000" fill-rule="nonzero" fill-opacity="1" /><path clip-path="url(#clip450)" d="M1796.32 219.634 L1934.91 219.634 L1934.91 178.162 L1796.32 178.162 L1796.32 219.634  Z" fill="#e26f46" fill-rule="evenodd" fill-opacity="1"/>
<polyline clip-path="url(#clip450)" style="stroke:#000000; stroke-linecap:round; stroke-linejoin:round; stroke-width:4; stroke-opacity:1; fill:none" points="1796.32,219.634 1934.91,219.634 1934.91,178.162 1796.32,178.162 1796.32,219.634 "/>
<path clip-path="url(#clip450)" d="M1962.68 185.46 L1962.68 198.446 L1968.56 198.446 Q1971.83 198.446 1973.61 196.756 Q1975.39 195.067 1975.39 191.942 Q1975.39 188.84 1973.61 187.15 Q1971.83 185.46 1968.56 185.46 L1962.68 185.46 M1958.01 181.618 L1968.56 181.618 Q1974.37 181.618 1977.33 184.256 Q1980.32 186.872 1980.32 191.942 Q1980.32 197.057 1977.33 199.673 Q1974.37 202.289 1968.56 202.289 L1962.68 202.289 L1962.68 216.178 L1958.01 216.178 L1958.01 181.618 Z" fill="#000000" fill-rule="nonzero" fill-opacity="1" /><path clip-path="url(#clip450)" d="M1995.51 216.178 L1982.31 181.618 L1987.2 181.618 L1998.15 210.715 L2009.12 181.618 L2013.98 181.618 L2000.81 216.178 L1995.51 216.178 Z" fill="#000000" fill-rule="nonzero" fill-opacity="1" /><path clip-path="url(#clip450)" d="M1796.32 271.474 L1934.91 271.474 L1934.91 230.002 L1796.32 230.002 L1796.32 271.474  Z" fill="#3da44d" fill-rule="evenodd" fill-opacity="1"/>
<polyline clip-path="url(#clip450)" style="stroke:#000000; stroke-linecap:round; stroke-linejoin:round; stroke-width:4; stroke-opacity:1; fill:none" points="1796.32,271.474 1934.91,271.474 1934.91,230.002 1796.32,230.002 1796.32,271.474 "/>
<path clip-path="url(#clip450)" d="M1983.56 263.087 L1983.56 253.805 L1975.92 253.805 L1975.92 249.962 L1988.19 249.962 L1988.19 264.8 Q1985.48 266.721 1982.22 267.717 Q1978.96 268.689 1975.25 268.689 Q1967.15 268.689 1962.57 263.967 Q1958.01 259.221 1958.01 250.772 Q1958.01 242.3 1962.57 237.578 Q1967.15 232.833 1975.25 232.833 Q1978.63 232.833 1981.66 233.666 Q1984.72 234.499 1987.29 236.12 L1987.29 241.096 Q1984.7 238.897 1981.78 237.786 Q1978.86 236.675 1975.65 236.675 Q1969.3 236.675 1966.11 240.217 Q1962.94 243.758 1962.94 250.772 Q1962.94 257.763 1966.11 261.305 Q1969.3 264.846 1975.65 264.846 Q1978.12 264.846 1980.07 264.43 Q1982.01 263.99 1983.56 263.087 Z" fill="#000000" fill-rule="nonzero" fill-opacity="1" /><path clip-path="url(#clip450)" d="M2008.33 254.985 Q2003.17 254.985 2001.18 256.166 Q1999.19 257.346 1999.19 260.194 Q1999.19 262.462 2000.67 263.805 Q2002.17 265.124 2004.74 265.124 Q2008.28 265.124 2010.41 262.624 Q2012.57 260.101 2012.57 255.934 L2012.57 254.985 L2008.33 254.985 M2016.83 253.226 L2016.83 268.018 L2012.57 268.018 L2012.57 264.082 Q2011.11 266.443 2008.93 267.578 Q2006.76 268.689 2003.61 268.689 Q1999.63 268.689 1997.27 266.467 Q1994.93 264.221 1994.93 260.471 Q1994.93 256.096 1997.84 253.874 Q2000.78 251.652 2006.59 251.652 L2012.57 251.652 L2012.57 251.235 Q2012.57 248.295 2010.62 246.698 Q2008.7 245.078 2005.21 245.078 Q2002.98 245.078 2000.88 245.61 Q1998.77 246.143 1996.83 247.207 L1996.83 243.272 Q1999.16 242.37 2001.36 241.93 Q2003.56 241.467 2005.64 241.467 Q2011.27 241.467 2014.05 244.383 Q2016.83 247.3 2016.83 253.226 Z" fill="#000000" fill-rule="nonzero" fill-opacity="1" /><path clip-path="url(#clip450)" d="M2042.13 242.856 L2042.13 246.883 Q2040.32 245.957 2038.38 245.495 Q2036.43 245.032 2034.35 245.032 Q2031.18 245.032 2029.58 246.004 Q2028.01 246.976 2028.01 248.92 Q2028.01 250.402 2029.14 251.258 Q2030.27 252.092 2033.7 252.856 L2035.16 253.18 Q2039.7 254.152 2041.59 255.934 Q2043.52 257.694 2043.52 260.865 Q2043.52 264.476 2040.64 266.582 Q2037.8 268.689 2032.8 268.689 Q2030.71 268.689 2028.45 268.272 Q2026.2 267.879 2023.7 267.068 L2023.7 262.67 Q2026.06 263.897 2028.35 264.522 Q2030.64 265.124 2032.89 265.124 Q2035.9 265.124 2037.52 264.106 Q2039.14 263.064 2039.14 261.189 Q2039.14 259.453 2037.96 258.527 Q2036.8 257.601 2032.84 256.744 L2031.36 256.397 Q2027.4 255.564 2025.64 253.851 Q2023.89 252.115 2023.89 249.106 Q2023.89 245.448 2026.48 243.458 Q2029.07 241.467 2033.84 241.467 Q2036.2 241.467 2038.28 241.814 Q2040.37 242.161 2042.13 242.856 Z" fill="#000000" fill-rule="nonzero" fill-opacity="1" /><path clip-path="url(#clip450)" d="M1796.32 323.314 L1934.91 323.314 L1934.91 281.842 L1796.32 281.842 L1796.32 323.314  Z" fill="#c271d2" fill-rule="evenodd" fill-opacity="1"/>
<polyline clip-path="url(#clip450)" style="stroke:#000000; stroke-linecap:round; stroke-linejoin:round; stroke-width:4; stroke-opacity:1; fill:none" points="1796.32,323.314 1934.91,323.314 1934.91,281.842 1796.32,281.842 1796.32,323.314 "/>
<path clip-path="url(#clip450)" d="M1958.01 285.298 L1962.68 285.298 L1962.68 299.464 L1979.67 299.464 L1979.67 285.298 L1984.35 285.298 L1984.35 319.858 L1979.67 319.858 L1979.67 303.399 L1962.68 303.399 L1962.68 319.858 L1958.01 319.858 L1958.01 285.298 Z" fill="#000000" fill-rule="nonzero" fill-opacity="1" /><path clip-path="url(#clip450)" d="M2004.26 322.265 Q2002.45 326.895 2000.74 328.307 Q1999.02 329.719 1996.15 329.719 L1992.75 329.719 L1992.75 326.154 L1995.25 326.154 Q1997.01 326.154 1997.98 325.32 Q1998.96 324.487 2000.14 321.385 L2000.9 319.441 L1990.41 293.932 L1994.93 293.932 L2003.03 314.209 L2011.13 293.932 L2015.64 293.932 L2004.26 322.265 Z" fill="#000000" fill-rule="nonzero" fill-opacity="1" /><path clip-path="url(#clip450)" d="M2038.58 297.867 L2038.58 283.839 L2042.84 283.839 L2042.84 319.858 L2038.58 319.858 L2038.58 315.969 Q2037.24 318.283 2035.18 319.418 Q2033.14 320.529 2030.27 320.529 Q2025.58 320.529 2022.61 316.779 Q2019.67 313.029 2019.67 306.918 Q2019.67 300.807 2022.61 297.057 Q2025.58 293.307 2030.27 293.307 Q2033.14 293.307 2035.18 294.441 Q2037.24 295.552 2038.58 297.867 M2024.07 306.918 Q2024.07 311.617 2025.99 314.302 Q2027.94 316.964 2031.32 316.964 Q2034.7 316.964 2036.64 314.302 Q2038.58 311.617 2038.58 306.918 Q2038.58 302.219 2036.64 299.557 Q2034.7 296.872 2031.32 296.872 Q2027.94 296.872 2025.99 299.557 Q2024.07 302.219 2024.07 306.918 Z" fill="#000000" fill-rule="nonzero" fill-opacity="1" /><path clip-path="url(#clip450)" d="M2066.64 297.913 Q2065.92 297.497 2065.07 297.311 Q2064.23 297.103 2063.21 297.103 Q2059.6 297.103 2057.66 299.464 Q2055.74 301.802 2055.74 306.2 L2055.74 319.858 L2051.45 319.858 L2051.45 293.932 L2055.74 293.932 L2055.74 297.96 Q2057.08 295.598 2059.23 294.464 Q2061.39 293.307 2064.46 293.307 Q2064.9 293.307 2065.44 293.376 Q2065.97 293.423 2066.62 293.538 L2066.64 297.913 Z" fill="#000000" fill-rule="nonzero" fill-opacity="1" /><path clip-path="url(#clip450)" d="M2080.11 296.918 Q2076.69 296.918 2074.7 299.603 Q2072.7 302.265 2072.7 306.918 Q2072.7 311.571 2074.67 314.256 Q2076.66 316.918 2080.11 316.918 Q2083.51 316.918 2085.51 314.233 Q2087.5 311.547 2087.5 306.918 Q2087.5 302.311 2085.51 299.626 Q2083.51 296.918 2080.11 296.918 M2080.11 293.307 Q2085.67 293.307 2088.84 296.918 Q2092.01 300.529 2092.01 306.918 Q2092.01 313.284 2088.84 316.918 Q2085.67 320.529 2080.11 320.529 Q2074.53 320.529 2071.36 316.918 Q2068.21 313.284 2068.21 306.918 Q2068.21 300.529 2071.36 296.918 Q2074.53 293.307 2080.11 293.307 Z" fill="#000000" fill-rule="nonzero" fill-opacity="1" /><path clip-path="url(#clip450)" d="M1796.32 375.154 L1934.91 375.154 L1934.91 333.682 L1796.32 333.682 L1796.32 375.154  Z" fill="#ac8d18" fill-rule="evenodd" fill-opacity="1"/>
<polyline clip-path="url(#clip450)" style="stroke:#000000; stroke-linecap:round; stroke-linejoin:round; stroke-width:4; stroke-opacity:1; fill:none" points="1796.32,375.154 1934.91,375.154 1934.91,333.682 1796.32,333.682 1796.32,375.154 "/>
<path clip-path="url(#clip450)" d="M1962.68 355.193 L1962.68 367.855 L1970.18 367.855 Q1973.96 367.855 1975.76 366.304 Q1977.59 364.73 1977.59 361.512 Q1977.59 358.272 1975.76 356.744 Q1973.96 355.193 1970.18 355.193 L1962.68 355.193 M1962.68 340.98 L1962.68 351.397 L1969.6 351.397 Q1973.03 351.397 1974.7 350.124 Q1976.39 348.827 1976.39 346.188 Q1976.39 343.573 1974.7 342.276 Q1973.03 340.98 1969.6 340.98 L1962.68 340.98 M1958.01 337.138 L1969.95 337.138 Q1975.3 337.138 1978.19 339.36 Q1981.08 341.582 1981.08 345.679 Q1981.08 348.85 1979.6 350.725 Q1978.12 352.6 1975.25 353.063 Q1978.7 353.804 1980.6 356.165 Q1982.52 358.503 1982.52 362.022 Q1982.52 366.651 1979.37 369.174 Q1976.22 371.698 1970.41 371.698 L1958.01 371.698 L1958.01 337.138 Z" fill="#000000" fill-rule="nonzero" fill-opacity="1" /><path clip-path="url(#clip450)" d="M2002.13 358.665 Q1996.96 358.665 1994.97 359.846 Q1992.98 361.026 1992.98 363.874 Q1992.98 366.142 1994.46 367.485 Q1995.97 368.804 1998.54 368.804 Q2002.08 368.804 2004.21 366.304 Q2006.36 363.781 2006.36 359.614 L2006.36 358.665 L2002.13 358.665 M2010.62 356.906 L2010.62 371.698 L2006.36 371.698 L2006.36 367.762 Q2004.9 370.123 2002.73 371.258 Q2000.55 372.369 1997.4 372.369 Q1993.42 372.369 1991.06 370.147 Q1988.72 367.901 1988.72 364.151 Q1988.72 359.776 1991.64 357.554 Q1994.58 355.332 2000.39 355.332 L2006.36 355.332 L2006.36 354.915 Q2006.36 351.975 2004.42 350.378 Q2002.5 348.758 1999 348.758 Q1996.78 348.758 1994.67 349.29 Q1992.57 349.823 1990.62 350.887 L1990.62 346.952 Q1992.96 346.05 1995.16 345.61 Q1997.36 345.147 1999.44 345.147 Q2005.07 345.147 2007.84 348.063 Q2010.62 350.98 2010.62 356.906 Z" fill="#000000" fill-rule="nonzero" fill-opacity="1" /><path clip-path="url(#clip450)" d="M2023.61 338.411 L2023.61 345.772 L2032.38 345.772 L2032.38 349.082 L2023.61 349.082 L2023.61 363.156 Q2023.61 366.327 2024.46 367.23 Q2025.34 368.133 2028.01 368.133 L2032.38 368.133 L2032.38 371.698 L2028.01 371.698 Q2023.08 371.698 2021.2 369.869 Q2019.33 368.017 2019.33 363.156 L2019.33 349.082 L2016.2 349.082 L2016.2 345.772 L2019.33 345.772 L2019.33 338.411 L2023.61 338.411 Z" fill="#000000" fill-rule="nonzero" fill-opacity="1" /><path clip-path="url(#clip450)" d="M2042.2 338.411 L2042.2 345.772 L2050.97 345.772 L2050.97 349.082 L2042.2 349.082 L2042.2 363.156 Q2042.2 366.327 2043.05 367.23 Q2043.93 368.133 2046.59 368.133 L2050.97 368.133 L2050.97 371.698 L2046.59 371.698 Q2041.66 371.698 2039.79 369.869 Q2037.91 368.017 2037.91 363.156 L2037.91 349.082 L2034.79 349.082 L2034.79 345.772 L2037.91 345.772 L2037.91 338.411 L2042.2 338.411 Z" fill="#000000" fill-rule="nonzero" fill-opacity="1" /><path clip-path="url(#clip450)" d="M2078.75 357.67 L2078.75 359.753 L2059.16 359.753 Q2059.44 364.151 2061.8 366.466 Q2064.19 368.758 2068.42 368.758 Q2070.88 368.758 2073.17 368.156 Q2075.48 367.554 2077.75 366.35 L2077.75 370.378 Q2075.46 371.35 2073.05 371.86 Q2070.64 372.369 2068.17 372.369 Q2061.96 372.369 2058.33 368.758 Q2054.72 365.147 2054.72 358.989 Q2054.72 352.624 2058.14 348.897 Q2061.59 345.147 2067.43 345.147 Q2072.66 345.147 2075.69 348.526 Q2078.75 351.883 2078.75 357.67 M2074.49 356.42 Q2074.44 352.925 2072.52 350.841 Q2070.62 348.758 2067.47 348.758 Q2063.91 348.758 2061.76 350.772 Q2059.63 352.786 2059.3 356.443 L2074.49 356.42 Z" fill="#000000" fill-rule="nonzero" fill-opacity="1" /><path clip-path="url(#clip450)" d="M2100.76 349.753 Q2100.04 349.337 2099.19 349.151 Q2098.35 348.943 2097.33 348.943 Q2093.72 348.943 2091.78 351.304 Q2089.86 353.642 2089.86 358.04 L2089.86 371.698 L2085.58 371.698 L2085.58 345.772 L2089.86 345.772 L2089.86 349.8 Q2091.2 347.438 2093.35 346.304 Q2095.51 345.147 2098.58 345.147 Q2099.02 345.147 2099.56 345.216 Q2100.09 345.263 2100.74 345.378 L2100.76 349.753 Z" fill="#000000" fill-rule="nonzero" fill-opacity="1" /><path clip-path="url(#clip450)" d="M2116.01 374.105 Q2114.21 378.735 2112.5 380.147 Q2110.78 381.559 2107.91 381.559 L2104.51 381.559 L2104.51 377.994 L2107.01 377.994 Q2108.77 377.994 2109.74 377.16 Q2110.71 376.327 2111.89 373.225 L2112.66 371.281 L2102.17 345.772 L2106.69 345.772 L2114.79 366.049 L2122.89 345.772 L2127.4 345.772 L2116.01 374.105 Z" fill="#000000" fill-rule="nonzero" fill-opacity="1" /><path clip-path="url(#clip450)" d="M1796.32 426.994 L1934.91 426.994 L1934.91 385.522 L1796.32 385.522 L1796.32 426.994  Z" fill="#00a9ad" fill-rule="evenodd" fill-opacity="1"/>
<polyline clip-path="url(#clip450)" style="stroke:#000000; stroke-linecap:round; stroke-linejoin:round; stroke-width:4; stroke-opacity:1; fill:none" points="1796.32,426.994 1934.91,426.994 1934.91,385.522 1796.32,385.522 1796.32,426.994 "/>
<path clip-path="url(#clip450)" d="M1958.01 388.978 L1987.24 388.978 L1987.24 392.913 L1974.97 392.913 L1974.97 423.538 L1970.27 423.538 L1970.27 392.913 L1958.01 392.913 L1958.01 388.978 Z" fill="#000000" fill-rule="nonzero" fill-opacity="1" /><path clip-path="url(#clip450)" d="M1999.63 401.593 Q1998.91 401.177 1998.05 400.991 Q1997.22 400.783 1996.2 400.783 Q1992.59 400.783 1990.65 403.144 Q1988.72 405.482 1988.72 409.88 L1988.72 423.538 L1984.44 423.538 L1984.44 397.612 L1988.72 397.612 L1988.72 401.64 Q1990.07 399.278 1992.22 398.144 Q1994.37 396.987 1997.45 396.987 Q1997.89 396.987 1998.42 397.056 Q1998.96 397.103 1999.6 397.218 L1999.63 401.593 Z" fill="#000000" fill-rule="nonzero" fill-opacity="1" /><path clip-path="url(#clip450)" d="M2015.88 410.505 Q2010.71 410.505 2008.72 411.686 Q2006.73 412.866 2006.73 415.714 Q2006.73 417.982 2008.21 419.325 Q2009.72 420.644 2012.29 420.644 Q2015.83 420.644 2017.96 418.144 Q2020.11 415.621 2020.11 411.454 L2020.11 410.505 L2015.88 410.505 M2024.37 408.746 L2024.37 423.538 L2020.11 423.538 L2020.11 419.602 Q2018.65 421.963 2016.48 423.098 Q2014.3 424.209 2011.15 424.209 Q2007.17 424.209 2004.81 421.987 Q2002.47 419.741 2002.47 415.991 Q2002.47 411.616 2005.39 409.394 Q2008.33 407.172 2014.14 407.172 L2020.11 407.172 L2020.11 406.755 Q2020.11 403.815 2018.17 402.218 Q2016.25 400.598 2012.75 400.598 Q2010.53 400.598 2008.42 401.13 Q2006.32 401.663 2004.37 402.727 L2004.37 398.792 Q2006.71 397.89 2008.91 397.45 Q2011.11 396.987 2013.19 396.987 Q2018.82 396.987 2021.59 399.903 Q2024.37 402.82 2024.37 408.746 Z" fill="#000000" fill-rule="nonzero" fill-opacity="1" /><path clip-path="url(#clip450)" d="M2054.7 407.889 L2054.7 423.538 L2050.44 423.538 L2050.44 408.028 Q2050.44 404.348 2049 402.519 Q2047.57 400.69 2044.7 400.69 Q2041.25 400.69 2039.26 402.89 Q2037.27 405.089 2037.27 408.885 L2037.27 423.538 L2032.98 423.538 L2032.98 397.612 L2037.27 397.612 L2037.27 401.64 Q2038.79 399.302 2040.85 398.144 Q2042.94 396.987 2045.64 396.987 Q2050.11 396.987 2052.4 399.765 Q2054.7 402.519 2054.7 407.889 Z" fill="#000000" fill-rule="nonzero" fill-opacity="1" /><path clip-path="url(#clip450)" d="M2079.72 398.376 L2079.72 402.403 Q2077.91 401.477 2075.97 401.015 Q2074.02 400.552 2071.94 400.552 Q2068.77 400.552 2067.17 401.524 Q2065.6 402.496 2065.6 404.44 Q2065.6 405.922 2066.73 406.778 Q2067.87 407.612 2071.29 408.376 L2072.75 408.7 Q2077.29 409.672 2079.19 411.454 Q2081.11 413.214 2081.11 416.385 Q2081.11 419.996 2078.24 422.102 Q2075.39 424.209 2070.39 424.209 Q2068.31 424.209 2066.04 423.792 Q2063.79 423.399 2061.29 422.588 L2061.29 418.19 Q2063.65 419.417 2065.95 420.042 Q2068.24 420.644 2070.48 420.644 Q2073.49 420.644 2075.11 419.626 Q2076.73 418.584 2076.73 416.709 Q2076.73 414.973 2075.55 414.047 Q2074.39 413.121 2070.44 412.264 L2068.95 411.917 Q2065 411.084 2063.24 409.371 Q2061.48 407.635 2061.48 404.626 Q2061.48 400.968 2064.07 398.978 Q2066.66 396.987 2071.43 396.987 Q2073.79 396.987 2075.88 397.334 Q2077.96 397.681 2079.72 398.376 Z" fill="#000000" fill-rule="nonzero" fill-opacity="1" /><path clip-path="url(#clip450)" d="M2108.07 402.589 Q2109.67 399.718 2111.89 398.353 Q2114.12 396.987 2117.13 396.987 Q2121.18 396.987 2123.38 399.834 Q2125.57 402.658 2125.57 407.889 L2125.57 423.538 L2121.29 423.538 L2121.29 408.028 Q2121.29 404.302 2119.97 402.496 Q2118.65 400.69 2115.95 400.69 Q2112.64 400.69 2110.71 402.89 Q2108.79 405.089 2108.79 408.885 L2108.79 423.538 L2104.51 423.538 L2104.51 408.028 Q2104.51 404.278 2103.19 402.496 Q2101.87 400.69 2099.12 400.69 Q2095.85 400.69 2093.93 402.913 Q2092.01 405.112 2092.01 408.885 L2092.01 423.538 L2087.73 423.538 L2087.73 397.612 L2092.01 397.612 L2092.01 401.64 Q2093.47 399.255 2095.51 398.121 Q2097.54 396.987 2100.34 396.987 Q2103.17 396.987 2105.14 398.422 Q2107.13 399.857 2108.07 402.589 Z" fill="#000000" fill-rule="nonzero" fill-opacity="1" /><path clip-path="url(#clip450)" d="M2134.07 397.612 L2138.33 397.612 L2138.33 423.538 L2134.07 423.538 L2134.07 397.612 M2134.07 387.519 L2138.33 387.519 L2138.33 392.913 L2134.07 392.913 L2134.07 387.519 Z" fill="#000000" fill-rule="nonzero" fill-opacity="1" /><path clip-path="url(#clip450)" d="M2163.77 398.376 L2163.77 402.403 Q2161.96 401.477 2160.02 401.015 Q2158.07 400.552 2155.99 400.552 Q2152.82 400.552 2151.22 401.524 Q2149.65 402.496 2149.65 404.44 Q2149.65 405.922 2150.78 406.778 Q2151.92 407.612 2155.34 408.376 L2156.8 408.7 Q2161.34 409.672 2163.24 411.454 Q2165.16 413.214 2165.16 416.385 Q2165.16 419.996 2162.29 422.102 Q2159.44 424.209 2154.44 424.209 Q2152.36 424.209 2150.09 423.792 Q2147.84 423.399 2145.34 422.588 L2145.34 418.19 Q2147.7 419.417 2150 420.042 Q2152.29 420.644 2154.53 420.644 Q2157.54 420.644 2159.16 419.626 Q2160.78 418.584 2160.78 416.709 Q2160.78 414.973 2159.6 414.047 Q2158.45 413.121 2154.49 412.264 L2153.01 411.917 Q2149.05 411.084 2147.29 409.371 Q2145.53 407.635 2145.53 404.626 Q2145.53 400.968 2148.12 398.978 Q2150.71 396.987 2155.48 396.987 Q2157.84 396.987 2159.93 397.334 Q2162.01 397.681 2163.77 398.376 Z" fill="#000000" fill-rule="nonzero" fill-opacity="1" /><path clip-path="url(#clip450)" d="M2188.47 398.376 L2188.47 402.403 Q2186.66 401.477 2184.72 401.015 Q2182.77 400.552 2180.69 400.552 Q2177.52 400.552 2175.92 401.524 Q2174.35 402.496 2174.35 404.44 Q2174.35 405.922 2175.48 406.778 Q2176.62 407.612 2180.04 408.376 L2181.5 408.7 Q2186.04 409.672 2187.94 411.454 Q2189.86 413.214 2189.86 416.385 Q2189.86 419.996 2186.99 422.102 Q2184.14 424.209 2179.14 424.209 Q2177.06 424.209 2174.79 423.792 Q2172.54 423.399 2170.04 422.588 L2170.04 418.19 Q2172.4 419.417 2174.69 420.042 Q2176.99 420.644 2179.23 420.644 Q2182.24 420.644 2183.86 419.626 Q2185.48 418.584 2185.48 416.709 Q2185.48 414.973 2184.3 414.047 Q2183.14 413.121 2179.19 412.264 L2177.7 411.917 Q2173.75 411.084 2171.99 409.371 Q2170.23 407.635 2170.23 404.626 Q2170.23 400.968 2172.82 398.978 Q2175.41 396.987 2180.18 396.987 Q2182.54 396.987 2184.63 397.334 Q2186.71 397.681 2188.47 398.376 Z" fill="#000000" fill-rule="nonzero" fill-opacity="1" /><path clip-path="url(#clip450)" d="M2196.64 397.612 L2200.9 397.612 L2200.9 423.538 L2196.64 423.538 L2196.64 397.612 M2196.64 387.519 L2200.9 387.519 L2200.9 392.913 L2196.64 392.913 L2196.64 387.519 Z" fill="#000000" fill-rule="nonzero" fill-opacity="1" /><path clip-path="url(#clip450)" d="M2219.86 400.598 Q2216.43 400.598 2214.44 403.283 Q2212.45 405.945 2212.45 410.598 Q2212.45 415.251 2214.42 417.936 Q2216.41 420.598 2219.86 420.598 Q2223.26 420.598 2225.25 417.913 Q2227.24 415.227 2227.24 410.598 Q2227.24 405.991 2225.25 403.306 Q2223.26 400.598 2219.86 400.598 M2219.86 396.987 Q2225.41 396.987 2228.58 400.598 Q2231.75 404.209 2231.75 410.598 Q2231.75 416.964 2228.58 420.598 Q2225.41 424.209 2219.86 424.209 Q2214.28 424.209 2211.11 420.598 Q2207.96 416.964 2207.96 410.598 Q2207.96 404.209 2211.11 400.598 Q2214.28 396.987 2219.86 396.987 Z" fill="#000000" fill-rule="nonzero" fill-opacity="1" /><path clip-path="url(#clip450)" d="M2260.37 407.889 L2260.37 423.538 L2256.11 423.538 L2256.11 408.028 Q2256.11 404.348 2254.67 402.519 Q2253.24 400.69 2250.37 400.69 Q2246.92 400.69 2244.93 402.89 Q2242.94 405.089 2242.94 408.885 L2242.94 423.538 L2238.65 423.538 L2238.65 397.612 L2242.94 397.612 L2242.94 401.64 Q2244.46 399.302 2246.52 398.144 Q2248.61 396.987 2251.31 396.987 Q2255.78 396.987 2258.07 399.765 Q2260.37 402.519 2260.37 407.889 Z" fill="#000000" fill-rule="nonzero" fill-opacity="1" /></svg>
