<?xml version="1.0" encoding="utf-8"?>
<svg xmlns="http://www.w3.org/2000/svg" xmlns:xlink="http://www.w3.org/1999/xlink" width="600" height="400" viewBox="0 0 2400 1600">
<defs>
  <clipPath id="clip970">
    <rect x="0" y="0" width="2400" height="1600"/>
  </clipPath>
</defs>
<path clip-path="url(#clip970)" d="M0 1600 L2400 1600 L2400 0 L0 0  Z" fill="#ffffff" fill-rule="evenodd" fill-opacity="1"/>
<defs>
  <clipPath id="clip971">
    <rect x="480" y="0" width="1681" height="1600"/>
  </clipPath>
</defs>
<path clip-path="url(#clip970)" d="M273.979 1486.45 L2352.76 1486.45 L2352.76 47.2441 L273.979 47.2441  Z" fill="#ffffff" fill-rule="evenodd" fill-opacity="1"/>
<defs>
  <clipPath id="clip972">
    <rect x="273" y="47" width="2080" height="1440"/>
  </clipPath>
</defs>
<polyline clip-path="url(#clip972)" style="stroke:#000000; stroke-linecap:round; stroke-linejoin:round; stroke-width:2; stroke-opacity:0.1; fill:none" points="628.144,1486.45 628.144,47.2441 "/>
<polyline clip-path="url(#clip972)" style="stroke:#000000; stroke-linecap:round; stroke-linejoin:round; stroke-width:2; stroke-opacity:0.1; fill:none" points="1313.37,1486.45 1313.37,47.2441 "/>
<polyline clip-path="url(#clip972)" style="stroke:#000000; stroke-linecap:round; stroke-linejoin:round; stroke-width:2; stroke-opacity:0.1; fill:none" points="1998.59,1486.45 1998.59,47.2441 "/>
<polyline clip-path="url(#clip970)" style="stroke:#000000; stroke-linecap:round; stroke-linejoin:round; stroke-width:4; stroke-opacity:1; fill:none" points="273.979,1486.45 2352.76,1486.45 "/>
<polyline clip-path="url(#clip970)" style="stroke:#000000; stroke-linecap:round; stroke-linejoin:round; stroke-width:4; stroke-opacity:1; fill:none" points="628.144,1486.45 628.144,1467.55 "/>
<polyline clip-path="url(#clip970)" style="stroke:#000000; stroke-linecap:round; stroke-linejoin:round; stroke-width:4; stroke-opacity:1; fill:none" points="1313.37,1486.45 1313.37,1467.55 "/>
<polyline clip-path="url(#clip970)" style="stroke:#000000; stroke-linecap:round; stroke-linejoin:round; stroke-width:4; stroke-opacity:1; fill:none" points="1998.59,1486.45 1998.59,1467.55 "/>
<path clip-path="url(#clip970)" d="M546.79 1543.92 L546.79 1534.63 L539.151 1534.63 L539.151 1530.79 L551.42 1530.79 L551.42 1545.63 Q548.711 1547.55 545.447 1548.55 Q542.184 1549.52 538.48 1549.52 Q530.378 1549.52 525.795 1544.8 Q521.235 1540.05 521.235 1531.6 Q521.235 1523.13 525.795 1518.41 Q530.378 1513.66 538.48 1513.66 Q541.859 1513.66 544.892 1514.5 Q547.947 1515.33 550.517 1516.95 L550.517 1521.93 Q547.924 1519.73 545.008 1518.62 Q542.091 1517.51 538.873 1517.51 Q532.531 1517.51 529.336 1521.05 Q526.165 1524.59 526.165 1531.6 Q526.165 1538.59 529.336 1542.13 Q532.531 1545.68 538.873 1545.68 Q541.35 1545.68 543.295 1545.26 Q545.239 1544.82 546.79 1543.92 Z" fill="#000000" fill-rule="nonzero" fill-opacity="1" /><path clip-path="url(#clip970)" d="M581.952 1534.82 L581.952 1536.9 L562.369 1536.9 Q562.646 1541.3 565.007 1543.62 Q567.392 1545.91 571.628 1545.91 Q574.081 1545.91 576.373 1545.31 Q578.688 1544.7 580.956 1543.5 L580.956 1547.53 Q578.665 1548.5 576.257 1549.01 Q573.85 1549.52 571.373 1549.52 Q565.17 1549.52 561.535 1545.91 Q557.924 1542.3 557.924 1536.14 Q557.924 1529.77 561.35 1526.05 Q564.799 1522.3 570.632 1522.3 Q575.864 1522.3 578.896 1525.68 Q581.952 1529.03 581.952 1534.82 M577.693 1533.57 Q577.646 1530.07 575.725 1527.99 Q573.827 1525.91 570.679 1525.91 Q567.114 1525.91 564.961 1527.92 Q562.832 1529.94 562.507 1533.59 L577.693 1533.57 Z" fill="#000000" fill-rule="nonzero" fill-opacity="1" /><path clip-path="url(#clip970)" d="M603.966 1526.9 Q603.248 1526.49 602.392 1526.3 Q601.558 1526.09 600.54 1526.09 Q596.929 1526.09 594.984 1528.45 Q593.063 1530.79 593.063 1535.19 L593.063 1548.85 L588.78 1548.85 L588.78 1522.92 L593.063 1522.92 L593.063 1526.95 Q594.405 1524.59 596.558 1523.45 Q598.711 1522.3 601.79 1522.3 Q602.229 1522.3 602.762 1522.37 Q603.294 1522.41 603.942 1522.53 L603.966 1526.9 Z" fill="#000000" fill-rule="nonzero" fill-opacity="1" /><path clip-path="url(#clip970)" d="M627.785 1527.9 Q629.382 1525.03 631.604 1523.66 Q633.827 1522.3 636.836 1522.3 Q640.887 1522.3 643.086 1525.14 Q645.285 1527.97 645.285 1533.2 L645.285 1548.85 L641.002 1548.85 L641.002 1533.34 Q641.002 1529.61 639.683 1527.81 Q638.364 1526 635.655 1526 Q632.345 1526 630.424 1528.2 Q628.503 1530.4 628.503 1534.2 L628.503 1548.85 L624.22 1548.85 L624.22 1533.34 Q624.22 1529.59 622.901 1527.81 Q621.581 1526 618.827 1526 Q615.563 1526 613.641 1528.22 Q611.72 1530.42 611.72 1534.2 L611.72 1548.85 L607.438 1548.85 L607.438 1522.92 L611.72 1522.92 L611.72 1526.95 Q613.179 1524.57 615.216 1523.43 Q617.253 1522.3 620.053 1522.3 Q622.878 1522.3 624.845 1523.73 Q626.836 1525.17 627.785 1527.9 Z" fill="#000000" fill-rule="nonzero" fill-opacity="1" /><path clip-path="url(#clip970)" d="M665.562 1535.82 Q660.4 1535.82 658.41 1537 Q656.419 1538.18 656.419 1541.02 Q656.419 1543.29 657.9 1544.63 Q659.405 1545.95 661.975 1545.95 Q665.516 1545.95 667.646 1543.45 Q669.799 1540.93 669.799 1536.76 L669.799 1535.82 L665.562 1535.82 M674.058 1534.06 L674.058 1548.85 L669.799 1548.85 L669.799 1544.91 Q668.34 1547.27 666.164 1548.41 Q663.988 1549.52 660.84 1549.52 Q656.859 1549.52 654.498 1547.3 Q652.16 1545.05 652.16 1541.3 Q652.16 1536.93 655.076 1534.7 Q658.016 1532.48 663.826 1532.48 L669.799 1532.48 L669.799 1532.07 Q669.799 1529.13 667.854 1527.53 Q665.933 1525.91 662.438 1525.91 Q660.215 1525.91 658.109 1526.44 Q656.002 1526.97 654.058 1528.04 L654.058 1524.1 Q656.396 1523.2 658.595 1522.76 Q660.794 1522.3 662.877 1522.3 Q668.502 1522.3 671.28 1525.21 Q674.058 1528.13 674.058 1534.06 Z" fill="#000000" fill-rule="nonzero" fill-opacity="1" /><path clip-path="url(#clip970)" d="M704.382 1533.2 L704.382 1548.85 L700.122 1548.85 L700.122 1533.34 Q700.122 1529.66 698.687 1527.83 Q697.252 1526 694.382 1526 Q690.933 1526 688.942 1528.2 Q686.951 1530.4 686.951 1534.2 L686.951 1548.85 L682.669 1548.85 L682.669 1522.92 L686.951 1522.92 L686.951 1526.95 Q688.479 1524.61 690.539 1523.45 Q692.623 1522.3 695.331 1522.3 Q699.798 1522.3 702.09 1525.07 Q704.382 1527.83 704.382 1533.2 Z" fill="#000000" fill-rule="nonzero" fill-opacity="1" /><path clip-path="url(#clip970)" d="M723.664 1551.26 Q721.858 1555.88 720.146 1557.3 Q718.433 1558.71 715.562 1558.71 L712.159 1558.71 L712.159 1555.14 L714.659 1555.14 Q716.419 1555.14 717.391 1554.31 Q718.363 1553.48 719.544 1550.38 L720.308 1548.43 L709.822 1522.92 L714.335 1522.92 L722.437 1543.2 L730.539 1522.92 L735.053 1522.92 L723.664 1551.26 Z" fill="#000000" fill-rule="nonzero" fill-opacity="1" /><path clip-path="url(#clip970)" d="M1245.52 1515.42 L1245.52 1519.98 Q1242.86 1518.71 1240.5 1518.08 Q1238.14 1517.46 1235.94 1517.46 Q1232.12 1517.46 1230.03 1518.94 Q1227.97 1520.42 1227.97 1523.15 Q1227.97 1525.45 1229.34 1526.63 Q1230.73 1527.78 1234.57 1528.5 L1237.4 1529.08 Q1242.63 1530.07 1245.1 1532.6 Q1247.6 1535.1 1247.6 1539.31 Q1247.6 1544.33 1244.22 1546.93 Q1240.87 1549.52 1234.36 1549.52 Q1231.91 1549.52 1229.13 1548.96 Q1226.38 1548.41 1223.41 1547.32 L1223.41 1542.51 Q1226.26 1544.1 1228.99 1544.91 Q1231.72 1545.72 1234.36 1545.72 Q1238.37 1545.72 1240.54 1544.15 Q1242.72 1542.57 1242.72 1539.66 Q1242.72 1537.11 1241.15 1535.68 Q1239.59 1534.24 1236.03 1533.52 L1233.18 1532.97 Q1227.95 1531.93 1225.61 1529.7 Q1223.28 1527.48 1223.28 1523.52 Q1223.28 1518.94 1226.49 1516.3 Q1229.73 1513.66 1235.4 1513.66 Q1237.84 1513.66 1240.36 1514.1 Q1242.88 1514.54 1245.52 1515.42 Z" fill="#000000" fill-rule="nonzero" fill-opacity="1" /><path clip-path="url(#clip970)" d="M1252.23 1522.92 L1256.49 1522.92 L1261.82 1543.15 L1267.12 1522.92 L1272.14 1522.92 L1277.46 1543.15 L1282.77 1522.92 L1287.02 1522.92 L1280.24 1548.85 L1275.22 1548.85 L1269.64 1527.6 L1264.04 1548.85 L1259.02 1548.85 L1252.23 1522.92 Z" fill="#000000" fill-rule="nonzero" fill-opacity="1" /><path clip-path="url(#clip970)" d="M1315.66 1534.82 L1315.66 1536.9 L1296.08 1536.9 Q1296.35 1541.3 1298.71 1543.62 Q1301.1 1545.91 1305.34 1545.91 Q1307.79 1545.91 1310.08 1545.31 Q1312.4 1544.7 1314.66 1543.5 L1314.66 1547.53 Q1312.37 1548.5 1309.96 1549.01 Q1307.56 1549.52 1305.08 1549.52 Q1298.88 1549.52 1295.24 1545.91 Q1291.63 1542.3 1291.63 1536.14 Q1291.63 1529.77 1295.06 1526.05 Q1298.51 1522.3 1304.34 1522.3 Q1309.57 1522.3 1312.6 1525.68 Q1315.66 1529.03 1315.66 1534.82 M1311.4 1533.57 Q1311.35 1530.07 1309.43 1527.99 Q1307.53 1525.91 1304.39 1525.91 Q1300.82 1525.91 1298.67 1527.92 Q1296.54 1529.94 1296.21 1533.59 L1311.4 1533.57 Z" fill="#000000" fill-rule="nonzero" fill-opacity="1" /><path clip-path="url(#clip970)" d="M1339.71 1526.86 L1339.71 1512.83 L1343.97 1512.83 L1343.97 1548.85 L1339.71 1548.85 L1339.71 1544.96 Q1338.37 1547.27 1336.31 1548.41 Q1334.27 1549.52 1331.4 1549.52 Q1326.7 1549.52 1323.74 1545.77 Q1320.8 1542.02 1320.8 1535.91 Q1320.8 1529.8 1323.74 1526.05 Q1326.7 1522.3 1331.4 1522.3 Q1334.27 1522.3 1336.31 1523.43 Q1338.37 1524.54 1339.71 1526.86 M1325.2 1535.91 Q1325.2 1540.61 1327.12 1543.29 Q1329.06 1545.95 1332.44 1545.95 Q1335.82 1545.95 1337.77 1543.29 Q1339.71 1540.61 1339.71 1535.91 Q1339.71 1531.21 1337.77 1528.55 Q1335.82 1525.86 1332.44 1525.86 Q1329.06 1525.86 1327.12 1528.55 Q1325.2 1531.21 1325.2 1535.91 Z" fill="#000000" fill-rule="nonzero" fill-opacity="1" /><path clip-path="url(#clip970)" d="M1374.92 1534.82 L1374.92 1536.9 L1355.33 1536.9 Q1355.61 1541.3 1357.97 1543.62 Q1360.36 1545.91 1364.59 1545.91 Q1367.05 1545.91 1369.34 1545.31 Q1371.65 1544.7 1373.92 1543.5 L1373.92 1547.53 Q1371.63 1548.5 1369.22 1549.01 Q1366.82 1549.52 1364.34 1549.52 Q1358.14 1549.52 1354.5 1545.91 Q1350.89 1542.3 1350.89 1536.14 Q1350.89 1529.77 1354.32 1526.05 Q1357.77 1522.3 1363.6 1522.3 Q1368.83 1522.3 1371.86 1525.68 Q1374.92 1529.03 1374.92 1534.82 M1370.66 1533.57 Q1370.61 1530.07 1368.69 1527.99 Q1366.79 1525.91 1363.64 1525.91 Q1360.08 1525.91 1357.93 1527.92 Q1355.8 1529.94 1355.47 1533.59 L1370.66 1533.57 Z" fill="#000000" fill-rule="nonzero" fill-opacity="1" /><path clip-path="url(#clip970)" d="M1403.46 1533.2 L1403.46 1548.85 L1399.2 1548.85 L1399.2 1533.34 Q1399.2 1529.66 1397.77 1527.83 Q1396.33 1526 1393.46 1526 Q1390.01 1526 1388.02 1528.2 Q1386.03 1530.4 1386.03 1534.2 L1386.03 1548.85 L1381.75 1548.85 L1381.75 1522.92 L1386.03 1522.92 L1386.03 1526.95 Q1387.56 1524.61 1389.62 1523.45 Q1391.7 1522.3 1394.41 1522.3 Q1398.88 1522.3 1401.17 1525.07 Q1403.46 1527.83 1403.46 1533.2 Z" fill="#000000" fill-rule="nonzero" fill-opacity="1" /><path clip-path="url(#clip970)" d="M1896.72 1518.13 L1896.72 1545.01 L1902.36 1545.01 Q1909.52 1545.01 1912.83 1541.76 Q1916.16 1538.52 1916.16 1531.53 Q1916.16 1524.59 1912.83 1521.37 Q1909.52 1518.13 1902.36 1518.13 L1896.72 1518.13 M1892.04 1514.29 L1901.65 1514.29 Q1911.69 1514.29 1916.39 1518.48 Q1921.09 1522.64 1921.09 1531.53 Q1921.09 1540.47 1916.37 1544.66 Q1911.65 1548.85 1901.65 1548.85 L1892.04 1548.85 L1892.04 1514.29 Z" fill="#000000" fill-rule="nonzero" fill-opacity="1" /><path clip-path="url(#clip970)" d="M1950.54 1534.82 L1950.54 1536.9 L1930.95 1536.9 Q1931.23 1541.3 1933.59 1543.62 Q1935.98 1545.91 1940.21 1545.91 Q1942.67 1545.91 1944.96 1545.31 Q1947.27 1544.7 1949.54 1543.5 L1949.54 1547.53 Q1947.25 1548.5 1944.84 1549.01 Q1942.43 1549.52 1939.96 1549.52 Q1933.75 1549.52 1930.12 1545.91 Q1926.51 1542.3 1926.51 1536.14 Q1926.51 1529.77 1929.93 1526.05 Q1933.38 1522.3 1939.22 1522.3 Q1944.45 1522.3 1947.48 1525.68 Q1950.54 1529.03 1950.54 1534.82 M1946.28 1533.57 Q1946.23 1530.07 1944.31 1527.99 Q1942.41 1525.91 1939.26 1525.91 Q1935.7 1525.91 1933.55 1527.92 Q1931.42 1529.94 1931.09 1533.59 L1946.28 1533.57 Z" fill="#000000" fill-rule="nonzero" fill-opacity="1" /><path clip-path="url(#clip970)" d="M1979.08 1533.2 L1979.08 1548.85 L1974.82 1548.85 L1974.82 1533.34 Q1974.82 1529.66 1973.38 1527.83 Q1971.95 1526 1969.08 1526 Q1965.63 1526 1963.64 1528.2 Q1961.65 1530.4 1961.65 1534.2 L1961.65 1548.85 L1957.36 1548.85 L1957.36 1522.92 L1961.65 1522.92 L1961.65 1526.95 Q1963.17 1524.61 1965.23 1523.45 Q1967.32 1522.3 1970.03 1522.3 Q1974.49 1522.3 1976.79 1525.07 Q1979.08 1527.83 1979.08 1533.2 Z" fill="#000000" fill-rule="nonzero" fill-opacity="1" /><path clip-path="url(#clip970)" d="M2007.76 1527.9 Q2009.35 1525.03 2011.58 1523.66 Q2013.8 1522.3 2016.81 1522.3 Q2020.86 1522.3 2023.06 1525.14 Q2025.26 1527.97 2025.26 1533.2 L2025.26 1548.85 L2020.98 1548.85 L2020.98 1533.34 Q2020.98 1529.61 2019.66 1527.81 Q2018.34 1526 2015.63 1526 Q2012.32 1526 2010.4 1528.2 Q2008.48 1530.4 2008.48 1534.2 L2008.48 1548.85 L2004.19 1548.85 L2004.19 1533.34 Q2004.19 1529.59 2002.87 1527.81 Q2001.55 1526 1998.8 1526 Q1995.54 1526 1993.61 1528.22 Q1991.69 1530.42 1991.69 1534.2 L1991.69 1548.85 L1987.41 1548.85 L1987.41 1522.92 L1991.69 1522.92 L1991.69 1526.95 Q1993.15 1524.57 1995.19 1523.43 Q1997.23 1522.3 2000.03 1522.3 Q2002.85 1522.3 2004.82 1523.73 Q2006.81 1525.17 2007.76 1527.9 Z" fill="#000000" fill-rule="nonzero" fill-opacity="1" /><path clip-path="url(#clip970)" d="M2045.54 1535.82 Q2040.37 1535.82 2038.38 1537 Q2036.39 1538.18 2036.39 1541.02 Q2036.39 1543.29 2037.87 1544.63 Q2039.38 1545.95 2041.95 1545.95 Q2045.49 1545.95 2047.62 1543.45 Q2049.77 1540.93 2049.77 1536.76 L2049.77 1535.82 L2045.54 1535.82 M2054.03 1534.06 L2054.03 1548.85 L2049.77 1548.85 L2049.77 1544.91 Q2048.31 1547.27 2046.14 1548.41 Q2043.96 1549.52 2040.81 1549.52 Q2036.83 1549.52 2034.47 1547.3 Q2032.13 1545.05 2032.13 1541.3 Q2032.13 1536.93 2035.05 1534.7 Q2037.99 1532.48 2043.8 1532.48 L2049.77 1532.48 L2049.77 1532.07 Q2049.77 1529.13 2047.83 1527.53 Q2045.91 1525.91 2042.41 1525.91 Q2040.19 1525.91 2038.08 1526.44 Q2035.98 1526.97 2034.03 1528.04 L2034.03 1524.1 Q2036.37 1523.2 2038.57 1522.76 Q2040.77 1522.3 2042.85 1522.3 Q2048.48 1522.3 2051.25 1525.21 Q2054.03 1528.13 2054.03 1534.06 Z" fill="#000000" fill-rule="nonzero" fill-opacity="1" /><path clip-path="url(#clip970)" d="M2077.83 1526.9 Q2077.11 1526.49 2076.25 1526.3 Q2075.42 1526.09 2074.4 1526.09 Q2070.79 1526.09 2068.85 1528.45 Q2066.92 1530.79 2066.92 1535.19 L2066.92 1548.85 L2062.64 1548.85 L2062.64 1522.92 L2066.92 1522.92 L2066.92 1526.95 Q2068.27 1524.59 2070.42 1523.45 Q2072.57 1522.3 2075.65 1522.3 Q2076.09 1522.3 2076.62 1522.37 Q2077.16 1522.41 2077.8 1522.53 L2077.83 1526.9 Z" fill="#000000" fill-rule="nonzero" fill-opacity="1" /><path clip-path="url(#clip970)" d="M2082.13 1512.83 L2086.41 1512.83 L2086.41 1534.1 L2099.12 1522.92 L2104.56 1522.92 L2090.81 1535.05 L2105.14 1548.85 L2099.59 1548.85 L2086.41 1536.19 L2086.41 1548.85 L2082.13 1548.85 L2082.13 1512.83 Z" fill="#000000" fill-rule="nonzero" fill-opacity="1" /><polyline clip-path="url(#clip972)" style="stroke:#000000; stroke-linecap:round; stroke-linejoin:round; stroke-width:2; stroke-opacity:0.1; fill:none" points="273.979,1445.72 2352.76,1445.72 "/>
<polyline clip-path="url(#clip972)" style="stroke:#000000; stroke-linecap:round; stroke-linejoin:round; stroke-width:2; stroke-opacity:0.1; fill:none" points="273.979,1064.76 2352.76,1064.76 "/>
<polyline clip-path="url(#clip972)" style="stroke:#000000; stroke-linecap:round; stroke-linejoin:round; stroke-width:2; stroke-opacity:0.1; fill:none" points="273.979,683.808 2352.76,683.808 "/>
<polyline clip-path="url(#clip972)" style="stroke:#000000; stroke-linecap:round; stroke-linejoin:round; stroke-width:2; stroke-opacity:0.1; fill:none" points="273.979,302.854 2352.76,302.854 "/>
<polyline clip-path="url(#clip970)" style="stroke:#000000; stroke-linecap:round; stroke-linejoin:round; stroke-width:4; stroke-opacity:1; fill:none" points="273.979,1486.45 273.979,47.2441 "/>
<polyline clip-path="url(#clip970)" style="stroke:#000000; stroke-linecap:round; stroke-linejoin:round; stroke-width:4; stroke-opacity:1; fill:none" points="273.979,1445.72 292.877,1445.72 "/>
<polyline clip-path="url(#clip970)" style="stroke:#000000; stroke-linecap:round; stroke-linejoin:round; stroke-width:4; stroke-opacity:1; fill:none" points="273.979,1064.76 292.877,1064.76 "/>
<polyline clip-path="url(#clip970)" style="stroke:#000000; stroke-linecap:round; stroke-linejoin:round; stroke-width:4; stroke-opacity:1; fill:none" points="273.979,683.808 292.877,683.808 "/>
<polyline clip-path="url(#clip970)" style="stroke:#000000; stroke-linecap:round; stroke-linejoin:round; stroke-width:4; stroke-opacity:1; fill:none" points="273.979,302.854 292.877,302.854 "/>
<path clip-path="url(#clip970)" d="M226.035 1431.51 Q222.423 1431.51 220.595 1435.08 Q218.789 1438.62 218.789 1445.75 Q218.789 1452.86 220.595 1456.42 Q222.423 1459.96 226.035 1459.96 Q229.669 1459.96 231.474 1456.42 Q233.303 1452.86 233.303 1445.75 Q233.303 1438.62 231.474 1435.08 Q229.669 1431.51 226.035 1431.51 M226.035 1427.81 Q231.845 1427.81 234.9 1432.42 Q237.979 1437 237.979 1445.75 Q237.979 1454.48 234.9 1459.08 Q231.845 1463.67 226.035 1463.67 Q220.224 1463.67 217.146 1459.08 Q214.09 1454.48 214.09 1445.75 Q214.09 1437 217.146 1432.42 Q220.224 1427.81 226.035 1427.81 Z" fill="#000000" fill-rule="nonzero" fill-opacity="1" /><path clip-path="url(#clip970)" d="M53.3995 1084.55 L61.0384 1084.55 L61.0384 1058.19 L52.7282 1059.86 L52.7282 1055.6 L60.9921 1053.93 L65.668 1053.93 L65.668 1084.55 L73.3068 1084.55 L73.3068 1088.49 L53.3995 1088.49 L53.3995 1084.55 Z" fill="#000000" fill-rule="nonzero" fill-opacity="1" /><path clip-path="url(#clip970)" d="M82.7512 1082.61 L87.6354 1082.61 L87.6354 1088.49 L82.7512 1088.49 L82.7512 1082.61 Z" fill="#000000" fill-rule="nonzero" fill-opacity="1" /><path clip-path="url(#clip970)" d="M107.821 1057.01 Q104.209 1057.01 102.381 1060.57 Q100.575 1064.11 100.575 1071.24 Q100.575 1078.35 102.381 1081.92 Q104.209 1085.46 107.821 1085.46 Q111.455 1085.46 113.26 1081.92 Q115.089 1078.35 115.089 1071.24 Q115.089 1064.11 113.26 1060.57 Q111.455 1057.01 107.821 1057.01 M107.821 1053.3 Q113.631 1053.3 116.686 1057.91 Q119.765 1062.49 119.765 1071.24 Q119.765 1079.97 116.686 1084.58 Q113.631 1089.16 107.821 1089.16 Q102.01 1089.16 98.9317 1084.58 Q95.8761 1079.97 95.8761 1071.24 Q95.8761 1062.49 98.9317 1057.91 Q102.01 1053.3 107.821 1053.3 Z" fill="#000000" fill-rule="nonzero" fill-opacity="1" /><path clip-path="url(#clip970)" d="M156.154 1063.03 L145.575 1073.65 L156.154 1084.23 L153.399 1087.03 L142.774 1076.41 L132.149 1087.03 L129.418 1084.23 L139.973 1073.65 L129.418 1063.03 L132.149 1060.23 L142.774 1070.85 L153.399 1060.23 L156.154 1063.03 Z" fill="#000000" fill-rule="nonzero" fill-opacity="1" /><path clip-path="url(#clip970)" d="M168.515 1084.55 L176.153 1084.55 L176.153 1058.19 L167.843 1059.86 L167.843 1055.6 L176.107 1053.93 L180.783 1053.93 L180.783 1084.55 L188.422 1084.55 L188.422 1088.49 L168.515 1088.49 L168.515 1084.55 Z" fill="#000000" fill-rule="nonzero" fill-opacity="1" /><path clip-path="url(#clip970)" d="M207.866 1057.01 Q204.255 1057.01 202.426 1060.57 Q200.621 1064.11 200.621 1071.24 Q200.621 1078.35 202.426 1081.92 Q204.255 1085.46 207.866 1085.46 Q211.501 1085.46 213.306 1081.92 Q215.135 1078.35 215.135 1071.24 Q215.135 1064.11 213.306 1060.57 Q211.501 1057.01 207.866 1057.01 M207.866 1053.3 Q213.676 1053.3 216.732 1057.91 Q219.811 1062.49 219.811 1071.24 Q219.811 1079.97 216.732 1084.58 Q213.676 1089.16 207.866 1089.16 Q202.056 1089.16 198.977 1084.58 Q195.922 1079.97 195.922 1071.24 Q195.922 1062.49 198.977 1057.91 Q202.056 1053.3 207.866 1053.3 Z" fill="#000000" fill-rule="nonzero" fill-opacity="1" /><path clip-path="url(#clip970)" d="M220.996 1033 L235.91 1033 L235.91 1036.2 L224.475 1036.2 L224.475 1043.08 Q225.303 1042.8 226.13 1042.67 Q226.958 1042.52 227.785 1042.52 Q232.487 1042.52 235.233 1045.09 Q237.979 1047.67 237.979 1052.07 Q237.979 1056.6 235.158 1059.12 Q232.337 1061.62 227.202 1061.62 Q225.434 1061.62 223.591 1061.32 Q221.767 1061.02 219.811 1060.42 L219.811 1056.6 Q221.503 1057.52 223.309 1057.98 Q225.114 1058.43 227.127 1058.43 Q230.381 1058.43 232.28 1056.72 Q234.18 1055 234.18 1052.07 Q234.18 1049.14 232.28 1047.42 Q230.381 1045.71 227.127 1045.71 Q225.603 1045.71 224.08 1046.05 Q222.575 1046.39 220.996 1047.1 L220.996 1033 Z" fill="#000000" fill-rule="nonzero" fill-opacity="1" /><path clip-path="url(#clip970)" d="M56.6171 703.6 L72.9365 703.6 L72.9365 707.535 L50.9921 707.535 L50.9921 703.6 Q53.6541 700.846 58.2375 696.216 Q62.8439 691.563 64.0245 690.221 Q66.2698 687.698 67.1494 685.961 Q68.0522 684.202 68.0522 682.512 Q68.0522 679.758 66.1078 678.022 Q64.1865 676.286 61.0847 676.286 Q58.8856 676.286 56.4319 677.05 Q54.0014 677.813 51.2236 679.364 L51.2236 674.642 Q54.0477 673.508 56.5014 672.929 Q58.955 672.35 60.9921 672.35 Q66.3624 672.35 69.5568 675.036 Q72.7513 677.721 72.7513 682.212 Q72.7513 684.341 71.9411 686.262 Q71.1541 688.161 69.0476 690.753 Q68.4689 691.424 65.367 694.642 Q62.2652 697.836 56.6171 703.6 Z" fill="#000000" fill-rule="nonzero" fill-opacity="1" /><path clip-path="url(#clip970)" d="M82.7512 701.656 L87.6354 701.656 L87.6354 707.535 L82.7512 707.535 L82.7512 701.656 Z" fill="#000000" fill-rule="nonzero" fill-opacity="1" /><path clip-path="url(#clip970)" d="M107.821 676.054 Q104.209 676.054 102.381 679.619 Q100.575 683.161 100.575 690.29 Q100.575 697.397 102.381 700.961 Q104.209 704.503 107.821 704.503 Q111.455 704.503 113.26 700.961 Q115.089 697.397 115.089 690.29 Q115.089 683.161 113.26 679.619 Q111.455 676.054 107.821 676.054 M107.821 672.35 Q113.631 672.35 116.686 676.957 Q119.765 681.54 119.765 690.29 Q119.765 699.017 116.686 703.623 Q113.631 708.207 107.821 708.207 Q102.01 708.207 98.9317 703.623 Q95.8761 699.017 95.8761 690.29 Q95.8761 681.54 98.9317 676.957 Q102.01 672.35 107.821 672.35 Z" fill="#000000" fill-rule="nonzero" fill-opacity="1" /><path clip-path="url(#clip970)" d="M156.154 682.073 L145.575 692.698 L156.154 703.276 L153.399 706.077 L142.774 695.452 L132.149 706.077 L129.418 703.276 L139.973 692.698 L129.418 682.073 L132.149 679.272 L142.774 689.897 L153.399 679.272 L156.154 682.073 Z" fill="#000000" fill-rule="nonzero" fill-opacity="1" /><path clip-path="url(#clip970)" d="M168.515 703.6 L176.153 703.6 L176.153 677.235 L167.843 678.901 L167.843 674.642 L176.107 672.975 L180.783 672.975 L180.783 703.6 L188.422 703.6 L188.422 707.535 L168.515 707.535 L168.515 703.6 Z" fill="#000000" fill-rule="nonzero" fill-opacity="1" /><path clip-path="url(#clip970)" d="M207.866 676.054 Q204.255 676.054 202.426 679.619 Q200.621 683.161 200.621 690.29 Q200.621 697.397 202.426 700.961 Q204.255 704.503 207.866 704.503 Q211.501 704.503 213.306 700.961 Q215.135 697.397 215.135 690.29 Q215.135 683.161 213.306 679.619 Q211.501 676.054 207.866 676.054 M207.866 672.35 Q213.676 672.35 216.732 676.957 Q219.811 681.54 219.811 690.29 Q219.811 699.017 216.732 703.623 Q213.676 708.207 207.866 708.207 Q202.056 708.207 198.977 703.623 Q195.922 699.017 195.922 690.29 Q195.922 681.54 198.977 676.957 Q202.056 672.35 207.866 672.35 Z" fill="#000000" fill-rule="nonzero" fill-opacity="1" /><path clip-path="url(#clip970)" d="M220.996 652.045 L235.91 652.045 L235.91 655.242 L224.475 655.242 L224.475 662.126 Q225.303 661.844 226.13 661.712 Q226.958 661.562 227.785 661.562 Q232.487 661.562 235.233 664.138 Q237.979 666.715 237.979 671.116 Q237.979 675.649 235.158 678.169 Q232.337 680.67 227.202 680.67 Q225.434 680.67 223.591 680.37 Q221.767 680.069 219.811 679.467 L219.811 675.649 Q221.503 676.57 223.309 677.022 Q225.114 677.473 227.127 677.473 Q230.381 677.473 232.28 675.762 Q234.18 674.05 234.18 671.116 Q234.18 668.182 232.28 666.471 Q230.381 664.759 227.127 664.759 Q225.603 664.759 224.08 665.098 Q222.575 665.436 220.996 666.151 L220.996 652.045 Z" fill="#000000" fill-rule="nonzero" fill-opacity="1" /><path clip-path="url(#clip970)" d="M66.7559 307.947 Q70.1124 308.665 71.9874 310.933 Q73.8855 313.202 73.8855 316.535 Q73.8855 321.651 70.367 324.452 Q66.8485 327.253 60.3671 327.253 Q58.1912 327.253 55.8764 326.813 Q53.5847 326.396 51.131 325.54 L51.131 321.026 Q53.0754 322.16 55.3903 322.739 Q57.7051 323.318 60.2282 323.318 Q64.6263 323.318 66.918 321.582 Q69.2328 319.845 69.2328 316.535 Q69.2328 313.48 67.08 311.767 Q64.9504 310.031 61.131 310.031 L57.1032 310.031 L57.1032 306.188 L61.3161 306.188 Q64.7652 306.188 66.5939 304.822 Q68.4226 303.434 68.4226 300.841 Q68.4226 298.179 66.5245 296.767 Q64.6495 295.332 61.131 295.332 Q59.2097 295.332 57.0106 295.748 Q54.8115 296.165 52.1727 297.045 L52.1727 292.878 Q54.8347 292.137 57.1495 291.767 Q59.4875 291.397 61.5476 291.397 Q66.8717 291.397 69.9735 293.827 Q73.0753 296.234 73.0753 300.355 Q73.0753 303.225 71.4318 305.216 Q69.7883 307.183 66.7559 307.947 Z" fill="#000000" fill-rule="nonzero" fill-opacity="1" /><path clip-path="url(#clip970)" d="M82.7512 320.702 L87.6354 320.702 L87.6354 326.582 L82.7512 326.582 L82.7512 320.702 Z" fill="#000000" fill-rule="nonzero" fill-opacity="1" /><path clip-path="url(#clip970)" d="M107.821 295.1 Q104.209 295.1 102.381 298.665 Q100.575 302.207 100.575 309.336 Q100.575 316.443 102.381 320.007 Q104.209 323.549 107.821 323.549 Q111.455 323.549 113.26 320.007 Q115.089 316.443 115.089 309.336 Q115.089 302.207 113.26 298.665 Q111.455 295.1 107.821 295.1 M107.821 291.397 Q113.631 291.397 116.686 296.003 Q119.765 300.586 119.765 309.336 Q119.765 318.063 116.686 322.67 Q113.631 327.253 107.821 327.253 Q102.01 327.253 98.9317 322.67 Q95.8761 318.063 95.8761 309.336 Q95.8761 300.586 98.9317 296.003 Q102.01 291.397 107.821 291.397 Z" fill="#000000" fill-rule="nonzero" fill-opacity="1" /><path clip-path="url(#clip970)" d="M156.154 301.119 L145.575 311.744 L156.154 322.322 L153.399 325.123 L142.774 314.498 L132.149 325.123 L129.418 322.322 L139.973 311.744 L129.418 301.119 L132.149 298.318 L142.774 308.943 L153.399 298.318 L156.154 301.119 Z" fill="#000000" fill-rule="nonzero" fill-opacity="1" /><path clip-path="url(#clip970)" d="M168.515 322.646 L176.153 322.646 L176.153 296.281 L167.843 297.947 L167.843 293.688 L176.107 292.022 L180.783 292.022 L180.783 322.646 L188.422 322.646 L188.422 326.582 L168.515 326.582 L168.515 322.646 Z" fill="#000000" fill-rule="nonzero" fill-opacity="1" /><path clip-path="url(#clip970)" d="M207.866 295.1 Q204.255 295.1 202.426 298.665 Q200.621 302.207 200.621 309.336 Q200.621 316.443 202.426 320.007 Q204.255 323.549 207.866 323.549 Q211.501 323.549 213.306 320.007 Q215.135 316.443 215.135 309.336 Q215.135 302.207 213.306 298.665 Q211.501 295.1 207.866 295.1 M207.866 291.397 Q213.676 291.397 216.732 296.003 Q219.811 300.586 219.811 309.336 Q219.811 318.063 216.732 322.67 Q213.676 327.253 207.866 327.253 Q202.056 327.253 198.977 322.67 Q195.922 318.063 195.922 309.336 Q195.922 300.586 198.977 296.003 Q202.056 291.397 207.866 291.397 Z" fill="#000000" fill-rule="nonzero" fill-opacity="1" /><path clip-path="url(#clip970)" d="M220.996 271.091 L235.91 271.091 L235.91 274.288 L224.475 274.288 L224.475 281.172 Q225.303 280.89 226.13 280.758 Q226.958 280.608 227.785 280.608 Q232.487 280.608 235.233 283.185 Q237.979 285.761 237.979 290.162 Q237.979 294.695 235.158 297.215 Q232.337 299.717 227.202 299.717 Q225.434 299.717 223.591 299.416 Q221.767 299.115 219.811 298.513 L219.811 294.695 Q221.503 295.616 223.309 296.068 Q225.114 296.519 227.127 296.519 Q230.381 296.519 232.28 294.808 Q234.18 293.096 234.18 290.162 Q234.18 287.228 232.28 285.517 Q230.381 283.805 227.127 283.805 Q225.603 283.805 224.08 284.144 Q222.575 284.482 220.996 285.197 L220.996 271.091 Z" fill="#000000" fill-rule="nonzero" fill-opacity="1" /><path clip-path="url(#clip972)" d="M388.315 87.9763 L388.315 494.069 L867.972 494.069 L867.972 87.9763 L388.315 87.9763 L388.315 87.9763  Z" fill="#009af9" fill-rule="evenodd" fill-opacity="1"/>
<polyline clip-path="url(#clip972)" style="stroke:#000000; stroke-linecap:round; stroke-linejoin:round; stroke-width:4; stroke-opacity:1; fill:none" points="388.315,87.9763 388.315,494.069 867.972,494.069 867.972,87.9763 388.315,87.9763 "/>
<path clip-path="url(#clip972)" d="M1073.54 1114.95 L1073.54 1365.78 L1553.2 1365.78 L1553.2 1114.95 L1073.54 1114.95 L1073.54 1114.95  Z" fill="#009af9" fill-rule="evenodd" fill-opacity="1"/>
<polyline clip-path="url(#clip972)" style="stroke:#000000; stroke-linecap:round; stroke-linejoin:round; stroke-width:4; stroke-opacity:1; fill:none" points="1073.54,1114.95 1073.54,1365.78 1553.2,1365.78 1553.2,1114.95 1073.54,1114.95 "/>
<path clip-path="url(#clip972)" d="M1758.76 1334.78 L1758.76 1393.32 L2238.42 1393.32 L2238.42 1334.78 L1758.76 1334.78 L1758.76 1334.78  Z" fill="#009af9" fill-rule="evenodd" fill-opacity="1"/>
<polyline clip-path="url(#clip972)" style="stroke:#000000; stroke-linecap:round; stroke-linejoin:round; stroke-width:4; stroke-opacity:1; fill:none" points="1758.76,1334.78 1758.76,1393.32 2238.42,1393.32 2238.42,1334.78 1758.76,1334.78 "/>
<circle clip-path="url(#clip972)" style="fill:#009af9; stroke:none; fill-opacity:0" cx="628.144" cy="87.9763" r="2"/>
<circle clip-path="url(#clip972)" style="fill:#009af9; stroke:none; fill-opacity:0" cx="1313.37" cy="1114.95" r="2"/>
<circle clip-path="url(#clip972)" style="fill:#009af9; stroke:none; fill-opacity:0" cx="1998.59" cy="1334.78" r="2"/>
<path clip-path="url(#clip972)" d="M388.315 494.069 L388.315 873.844 L867.972 873.844 L867.972 494.069 L388.315 494.069 L388.315 494.069  Z" fill="#e26f46" fill-rule="evenodd" fill-opacity="1"/>
<polyline clip-path="url(#clip972)" style="stroke:#000000; stroke-linecap:round; stroke-linejoin:round; stroke-width:4; stroke-opacity:1; fill:none" points="388.315,494.069 388.315,873.844 867.972,873.844 867.972,494.069 388.315,494.069 "/>
<path clip-path="url(#clip972)" d="M1073.54 1365.78 L1073.54 1365.78 L1553.2 1365.78 L1553.2 1365.78 L1073.54 1365.78 L1073.54 1365.78  Z" fill="#e26f46" fill-rule="evenodd" fill-opacity="1"/>
<polyline clip-path="url(#clip972)" style="stroke:#000000; stroke-linecap:round; stroke-linejoin:round; stroke-width:4; stroke-opacity:1; fill:none" points="1073.54,1365.78 1073.54,1365.78 1553.2,1365.78 1073.54,1365.78 "/>
<path clip-path="url(#clip972)" d="M1758.76 1393.32 L1758.76 1408.79 L2238.42 1408.79 L2238.42 1393.32 L1758.76 1393.32 L1758.76 1393.32  Z" fill="#e26f46" fill-rule="evenodd" fill-opacity="1"/>
<polyline clip-path="url(#clip972)" style="stroke:#000000; stroke-linecap:round; stroke-linejoin:round; stroke-width:4; stroke-opacity:1; fill:none" points="1758.76,1393.32 1758.76,1408.79 2238.42,1408.79 2238.42,1393.32 1758.76,1393.32 "/>
<circle clip-path="url(#clip972)" style="fill:#e26f46; stroke:none; fill-opacity:0" cx="628.144" cy="494.069" r="2"/>
<circle clip-path="url(#clip972)" style="fill:#e26f46; stroke:none; fill-opacity:0" cx="1313.37" cy="1365.78" r="2"/>
<circle clip-path="url(#clip972)" style="fill:#e26f46; stroke:none; fill-opacity:0" cx="1998.59" cy="1393.32" r="2"/>
<path clip-path="url(#clip972)" d="M388.315 873.844 L388.315 1071.92 L867.972 1071.92 L867.972 873.844 L388.315 873.844 L388.315 873.844  Z" fill="#3da44d" fill-rule="evenodd" fill-opacity="1"/>
<polyline clip-path="url(#clip972)" style="stroke:#000000; stroke-linecap:round; stroke-linejoin:round; stroke-width:4; stroke-opacity:1; fill:none" points="388.315,873.844 388.315,1071.92 867.972,1071.92 867.972,873.844 388.315,873.844 "/>
<path clip-path="url(#clip972)" d="M1073.54 1365.78 L1073.54 1373.75 L1553.2 1373.75 L1553.2 1365.78 L1073.54 1365.78 L1073.54 1365.78  Z" fill="#3da44d" fill-rule="evenodd" fill-opacity="1"/>
<polyline clip-path="url(#clip972)" style="stroke:#000000; stroke-linecap:round; stroke-linejoin:round; stroke-width:4; stroke-opacity:1; fill:none" points="1073.54,1365.78 1073.54,1373.75 1553.2,1373.75 1553.2,1365.78 1073.54,1365.78 "/>
<path clip-path="url(#clip972)" d="M1758.76 1408.79 L1758.76 1420.54 L2238.42 1420.54 L2238.42 1408.79 L1758.76 1408.79 L1758.76 1408.79  Z" fill="#3da44d" fill-rule="evenodd" fill-opacity="1"/>
<polyline clip-path="url(#clip972)" style="stroke:#000000; stroke-linecap:round; stroke-linejoin:round; stroke-width:4; stroke-opacity:1; fill:none" points="1758.76,1408.79 1758.76,1420.54 2238.42,1420.54 2238.42,1408.79 1758.76,1408.79 "/>
<circle clip-path="url(#clip972)" style="fill:#3da44d; stroke:none; fill-opacity:0" cx="628.144" cy="873.844" r="2"/>
<circle clip-path="url(#clip972)" style="fill:#3da44d; stroke:none; fill-opacity:0" cx="1313.37" cy="1365.78" r="2"/>
<circle clip-path="url(#clip972)" style="fill:#3da44d; stroke:none; fill-opacity:0" cx="1998.59" cy="1408.79" r="2"/>
<path clip-path="url(#clip972)" d="M388.315 1071.92 L388.315 1071.92 L867.972 1071.92 L867.972 1071.92 L388.315 1071.92 L388.315 1071.92  Z" fill="#c271d2" fill-rule="evenodd" fill-opacity="1"/>
<polyline clip-path="url(#clip972)" style="stroke:#000000; stroke-linecap:round; stroke-linejoin:round; stroke-width:4; stroke-opacity:1; fill:none" points="388.315,1071.92 388.315,1071.92 867.972,1071.92 388.315,1071.92 "/>
<path clip-path="url(#clip972)" d="M1073.54 1373.75 L1073.54 1427.08 L1553.2 1427.08 L1553.2 1373.75 L1073.54 1373.75 L1073.54 1373.75  Z" fill="#c271d2" fill-rule="evenodd" fill-opacity="1"/>
<polyline clip-path="url(#clip972)" style="stroke:#000000; stroke-linecap:round; stroke-linejoin:round; stroke-width:4; stroke-opacity:1; fill:none" points="1073.54,1373.75 1073.54,1427.08 1553.2,1427.08 1553.2,1373.75 1073.54,1373.75 "/>
<path clip-path="url(#clip972)" d="M1758.76 1420.54 L1758.76 1420.54 L2238.42 1420.54 L2238.42 1420.54 L1758.76 1420.54 L1758.76 1420.54  Z" fill="#c271d2" fill-rule="evenodd" fill-opacity="1"/>
<polyline clip-path="url(#clip972)" style="stroke:#000000; stroke-linecap:round; stroke-linejoin:round; stroke-width:4; stroke-opacity:1; fill:none" points="1758.76,1420.54 1758.76,1420.54 2238.42,1420.54 1758.76,1420.54 "/>
<circle clip-path="url(#clip972)" style="fill:#c271d2; stroke:none; fill-opacity:0" cx="628.144" cy="1071.92" r="2"/>
<circle clip-path="url(#clip972)" style="fill:#c271d2; stroke:none; fill-opacity:0" cx="1313.37" cy="1373.75" r="2"/>
<circle clip-path="url(#clip972)" style="fill:#c271d2; stroke:none; fill-opacity:0" cx="1998.59" cy="1420.54" r="2"/>
<path clip-path="url(#clip972)" d="M388.315 1071.92 L388.315 1314.82 L867.972 1314.82 L867.972 1071.92 L388.315 1071.92 L388.315 1071.92  Z" fill="#ac8d18" fill-rule="evenodd" fill-opacity="1"/>
<polyline clip-path="url(#clip972)" style="stroke:#000000; stroke-linecap:round; stroke-linejoin:round; stroke-width:4; stroke-opacity:1; fill:none" points="388.315,1071.92 388.315,1314.82 867.972,1314.82 867.972,1071.92 388.315,1071.92 "/>
<path clip-path="url(#clip972)" d="M1073.54 1427.08 L1073.54 1445.72 L1553.2 1445.72 L1553.2 1427.08 L1073.54 1427.08 L1073.54 1427.08  Z" fill="#ac8d18" fill-rule="evenodd" fill-opacity="1"/>
<polyline clip-path="url(#clip972)" style="stroke:#000000; stroke-linecap:round; stroke-linejoin:round; stroke-width:4; stroke-opacity:1; fill:none" points="1073.54,1427.08 1073.54,1445.72 1553.2,1445.72 1553.2,1427.08 1073.54,1427.08 "/>
<path clip-path="url(#clip972)" d="M1758.76 1420.54 L1758.76 1445.72 L2238.42 1445.72 L2238.42 1420.54 L1758.76 1420.54 L1758.76 1420.54  Z" fill="#ac8d18" fill-rule="evenodd" fill-opacity="1"/>
<polyline clip-path="url(#clip972)" style="stroke:#000000; stroke-linecap:round; stroke-linejoin:round; stroke-width:4; stroke-opacity:1; fill:none" points="1758.76,1420.54 1758.76,1445.72 2238.42,1445.72 2238.42,1420.54 1758.76,1420.54 "/>
<circle clip-path="url(#clip972)" style="fill:#ac8d18; stroke:none; fill-opacity:0" cx="628.144" cy="1071.92" r="2"/>
<circle clip-path="url(#clip972)" style="fill:#ac8d18; stroke:none; fill-opacity:0" cx="1313.37" cy="1427.08" r="2"/>
<circle clip-path="url(#clip972)" style="fill:#ac8d18; stroke:none; fill-opacity:0" cx="1998.59" cy="1420.54" r="2"/>
<path clip-path="url(#clip972)" d="M388.315 1314.82 L388.315 1445.72 L867.972 1445.72 L867.972 1314.82 L388.315 1314.82 L388.315 1314.82  Z" fill="#00a9ad" fill-rule="evenodd" fill-opacity="1"/>
<polyline clip-path="url(#clip972)" style="stroke:#000000; stroke-linecap:round; stroke-linejoin:round; stroke-width:4; stroke-opacity:1; fill:none" points="388.315,1314.82 388.315,1445.72 867.972,1445.72 867.972,1314.82 388.315,1314.82 "/>
<path clip-path="url(#clip972)" d="M1073.54 1445.72 L1073.54 1445.72 L1553.2 1445.72 L1553.2 1445.72 L1073.54 1445.72 L1073.54 1445.72  Z" fill="#00a9ad" fill-rule="evenodd" fill-opacity="1"/>
<polyline clip-path="url(#clip972)" style="stroke:#000000; stroke-linecap:round; stroke-linejoin:round; stroke-width:4; stroke-opacity:1; fill:none" points="1073.54,1445.72 1073.54,1445.72 1553.2,1445.72 1073.54,1445.72 "/>
<path clip-path="url(#clip972)" d="M1758.76 1445.72 L1758.76 1445.72 L2238.42 1445.72 L2238.42 1445.72 L1758.76 1445.72 L1758.76 1445.72  Z" fill="#00a9ad" fill-rule="evenodd" fill-opacity="1"/>
<polyline clip-path="url(#clip972)" style="stroke:#000000; stroke-linecap:round; stroke-linejoin:round; stroke-width:4; stroke-opacity:1; fill:none" points="1758.76,1445.72 1758.76,1445.72 2238.42,1445.72 1758.76,1445.72 "/>
<circle clip-path="url(#clip972)" style="fill:#00a9ad; stroke:none; fill-opacity:0" cx="628.144" cy="1314.82" r="2"/>
<circle clip-path="url(#clip972)" style="fill:#00a9ad; stroke:none; fill-opacity:0" cx="1313.37" cy="1445.72" r="2"/>
<circle clip-path="url(#clip972)" style="fill:#00a9ad; stroke:none; fill-opacity:0" cx="1998.59" cy="1445.72" r="2"/>
<path clip-path="url(#clip970)" d="M1897.79 458.098 L2283.46 458.098 L2283.46 95.2176 L1897.79 95.2176  Z" fill="#ffffff" fill-rule="evenodd" fill-opacity="1"/>
<polyline clip-path="url(#clip970)" style="stroke:#000000; stroke-linecap:round; stroke-linejoin:round; stroke-width:4; stroke-opacity:1; fill:none" points="1897.79,458.098 2283.46,458.098 2283.46,95.2176 1897.79,95.2176 1897.79,458.098 "/>
<path clip-path="url(#clip970)" d="M1920.88 167.794 L2059.47 167.794 L2059.47 126.322 L1920.88 126.322 L1920.88 167.794  Z" fill="#009af9" fill-rule="evenodd" fill-opacity="1"/>
<polyline clip-path="url(#clip970)" style="stroke:#000000; stroke-linecap:round; stroke-linejoin:round; stroke-width:4; stroke-opacity:1; fill:none" points="1920.88,167.794 2059.47,167.794 2059.47,126.322 1920.88,126.322 1920.88,167.794 "/>
<path clip-path="url(#clip970)" d="M2082.57 129.778 L2087.29 129.778 L2094.56 158.99 L2101.8 129.778 L2107.06 129.778 L2114.32 158.99 L2121.57 129.778 L2126.32 129.778 L2117.64 164.338 L2111.76 164.338 L2104.46 134.338 L2097.1 164.338 L2091.22 164.338 L2082.57 129.778 Z" fill="#000000" fill-rule="nonzero" fill-opacity="1" /><path clip-path="url(#clip970)" d="M2131.29 138.412 L2135.55 138.412 L2135.55 164.338 L2131.29 164.338 L2131.29 138.412 M2131.29 128.319 L2135.55 128.319 L2135.55 133.713 L2131.29 133.713 L2131.29 128.319 Z" fill="#000000" fill-rule="nonzero" fill-opacity="1" /><path clip-path="url(#clip970)" d="M2166.01 148.689 L2166.01 164.338 L2161.76 164.338 L2161.76 148.828 Q2161.76 145.148 2160.32 143.319 Q2158.88 141.49 2156.01 141.49 Q2152.57 141.49 2150.57 143.69 Q2148.58 145.889 2148.58 149.685 L2148.58 164.338 L2144.3 164.338 L2144.3 138.412 L2148.58 138.412 L2148.58 142.44 Q2150.11 140.102 2152.17 138.944 Q2154.26 137.787 2156.96 137.787 Q2161.43 137.787 2163.72 140.565 Q2166.01 143.319 2166.01 148.689 Z" fill="#000000" fill-rule="nonzero" fill-opacity="1" /><path clip-path="url(#clip970)" d="M2191.57 142.347 L2191.57 128.319 L2195.83 128.319 L2195.83 164.338 L2191.57 164.338 L2191.57 160.449 Q2190.23 162.763 2188.17 163.898 Q2186.13 165.009 2183.26 165.009 Q2178.56 165.009 2175.6 161.259 Q2172.66 157.509 2172.66 151.398 Q2172.66 145.287 2175.6 141.537 Q2178.56 137.787 2183.26 137.787 Q2186.13 137.787 2188.17 138.921 Q2190.23 140.032 2191.57 142.347 M2177.06 151.398 Q2177.06 156.097 2178.98 158.782 Q2180.92 161.444 2184.3 161.444 Q2187.68 161.444 2189.63 158.782 Q2191.57 156.097 2191.57 151.398 Q2191.57 146.699 2189.63 144.037 Q2187.68 141.352 2184.3 141.352 Q2180.92 141.352 2178.98 144.037 Q2177.06 146.699 2177.06 151.398 Z" fill="#000000" fill-rule="nonzero" fill-opacity="1" /><path clip-path="url(#clip970)" d="M1920.88 219.634 L2059.47 219.634 L2059.47 178.162 L1920.88 178.162 L1920.88 219.634  Z" fill="#e26f46" fill-rule="evenodd" fill-opacity="1"/>
<polyline clip-path="url(#clip970)" style="stroke:#000000; stroke-linecap:round; stroke-linejoin:round; stroke-width:4; stroke-opacity:1; fill:none" points="1920.88,219.634 2059.47,219.634 2059.47,178.162 1920.88,178.162 1920.88,219.634 "/>
<path clip-path="url(#clip970)" d="M2087.24 185.46 L2087.24 198.446 L2093.12 198.446 Q2096.39 198.446 2098.17 196.756 Q2099.95 195.067 2099.95 191.942 Q2099.95 188.84 2098.17 187.15 Q2096.39 185.46 2093.12 185.46 L2087.24 185.46 M2082.57 181.618 L2093.12 181.618 Q2098.93 181.618 2101.89 184.256 Q2104.88 186.872 2104.88 191.942 Q2104.88 197.057 2101.89 199.673 Q2098.93 202.289 2093.12 202.289 L2087.24 202.289 L2087.24 216.178 L2082.57 216.178 L2082.57 181.618 Z" fill="#000000" fill-rule="nonzero" fill-opacity="1" /><path clip-path="url(#clip970)" d="M2120.07 216.178 L2106.87 181.618 L2111.76 181.618 L2122.7 210.715 L2133.68 181.618 L2138.54 181.618 L2125.37 216.178 L2120.07 216.178 Z" fill="#000000" fill-rule="nonzero" fill-opacity="1" /><path clip-path="url(#clip970)" d="M1920.88 271.474 L2059.47 271.474 L2059.47 230.002 L1920.88 230.002 L1920.88 271.474  Z" fill="#3da44d" fill-rule="evenodd" fill-opacity="1"/>
<polyline clip-path="url(#clip970)" style="stroke:#000000; stroke-linecap:round; stroke-linejoin:round; stroke-width:4; stroke-opacity:1; fill:none" points="1920.88,271.474 2059.47,271.474 2059.47,230.002 1920.88,230.002 1920.88,271.474 "/>
<path clip-path="url(#clip970)" d="M2108.12 263.087 L2108.12 253.805 L2100.48 253.805 L2100.48 249.962 L2112.75 249.962 L2112.75 264.8 Q2110.04 266.721 2106.78 267.717 Q2103.51 268.689 2099.81 268.689 Q2091.71 268.689 2087.13 263.967 Q2082.57 259.221 2082.57 250.772 Q2082.57 242.3 2087.13 237.578 Q2091.71 232.833 2099.81 232.833 Q2103.19 232.833 2106.22 233.666 Q2109.28 234.499 2111.85 236.12 L2111.85 241.096 Q2109.26 238.897 2106.34 237.786 Q2103.42 236.675 2100.2 236.675 Q2093.86 236.675 2090.67 240.217 Q2087.5 243.758 2087.5 250.772 Q2087.5 257.763 2090.67 261.305 Q2093.86 264.846 2100.2 264.846 Q2102.68 264.846 2104.63 264.43 Q2106.57 263.99 2108.12 263.087 Z" fill="#000000" fill-rule="nonzero" fill-opacity="1" /><path clip-path="url(#clip970)" d="M2132.89 254.985 Q2127.73 254.985 2125.74 256.166 Q2123.75 257.346 2123.75 260.194 Q2123.75 262.462 2125.23 263.805 Q2126.73 265.124 2129.3 265.124 Q2132.84 265.124 2134.97 262.624 Q2137.13 260.101 2137.13 255.934 L2137.13 254.985 L2132.89 254.985 M2141.38 253.226 L2141.38 268.018 L2137.13 268.018 L2137.13 264.082 Q2135.67 266.443 2133.49 267.578 Q2131.32 268.689 2128.17 268.689 Q2124.19 268.689 2121.82 266.467 Q2119.49 264.221 2119.49 260.471 Q2119.49 256.096 2122.4 253.874 Q2125.34 251.652 2131.15 251.652 L2137.13 251.652 L2137.13 251.235 Q2137.13 248.295 2135.18 246.698 Q2133.26 245.078 2129.76 245.078 Q2127.54 245.078 2125.44 245.61 Q2123.33 246.143 2121.39 247.207 L2121.39 243.272 Q2123.72 242.37 2125.92 241.93 Q2128.12 241.467 2130.2 241.467 Q2135.83 241.467 2138.61 244.383 Q2141.38 247.3 2141.38 253.226 Z" fill="#000000" fill-rule="nonzero" fill-opacity="1" /><path clip-path="url(#clip970)" d="M2166.69 242.856 L2166.69 246.883 Q2164.88 245.957 2162.94 245.495 Q2160.99 245.032 2158.91 245.032 Q2155.74 245.032 2154.14 246.004 Q2152.57 246.976 2152.57 248.92 Q2152.57 250.402 2153.7 251.258 Q2154.83 252.092 2158.26 252.856 L2159.72 253.18 Q2164.26 254.152 2166.15 255.934 Q2168.07 257.694 2168.07 260.865 Q2168.07 264.476 2165.2 266.582 Q2162.36 268.689 2157.36 268.689 Q2155.27 268.689 2153.01 268.272 Q2150.76 267.879 2148.26 267.068 L2148.26 262.67 Q2150.62 263.897 2152.91 264.522 Q2155.2 265.124 2157.45 265.124 Q2160.46 265.124 2162.08 264.106 Q2163.7 263.064 2163.7 261.189 Q2163.7 259.453 2162.52 258.527 Q2161.36 257.601 2157.4 256.744 L2155.92 256.397 Q2151.96 255.564 2150.2 253.851 Q2148.45 252.115 2148.45 249.106 Q2148.45 245.448 2151.04 243.458 Q2153.63 241.467 2158.4 241.467 Q2160.76 241.467 2162.84 241.814 Q2164.93 242.161 2166.69 242.856 Z" fill="#000000" fill-rule="nonzero" fill-opacity="1" /><path clip-path="url(#clip970)" d="M1920.88 323.314 L2059.47 323.314 L2059.47 281.842 L1920.88 281.842 L1920.88 323.314  Z" fill="#c271d2" fill-rule="evenodd" fill-opacity="1"/>
<polyline clip-path="url(#clip970)" style="stroke:#000000; stroke-linecap:round; stroke-linejoin:round; stroke-width:4; stroke-opacity:1; fill:none" points="1920.88,323.314 2059.47,323.314 2059.47,281.842 1920.88,281.842 1920.88,323.314 "/>
<path clip-path="url(#clip970)" d="M2082.57 285.298 L2087.24 285.298 L2087.24 299.464 L2104.23 299.464 L2104.23 285.298 L2108.91 285.298 L2108.91 319.858 L2104.23 319.858 L2104.23 303.399 L2087.24 303.399 L2087.24 319.858 L2082.57 319.858 L2082.57 285.298 Z" fill="#000000" fill-rule="nonzero" fill-opacity="1" /><path clip-path="url(#clip970)" d="M2128.82 322.265 Q2127.01 326.895 2125.3 328.307 Q2123.58 329.719 2120.71 329.719 L2117.31 329.719 L2117.31 326.154 L2119.81 326.154 Q2121.57 326.154 2122.54 325.32 Q2123.51 324.487 2124.7 321.385 L2125.46 319.441 L2114.97 293.932 L2119.49 293.932 L2127.59 314.209 L2135.69 293.932 L2140.2 293.932 L2128.82 322.265 Z" fill="#000000" fill-rule="nonzero" fill-opacity="1" /><path clip-path="url(#clip970)" d="M2163.14 297.867 L2163.14 283.839 L2167.4 283.839 L2167.4 319.858 L2163.14 319.858 L2163.14 315.969 Q2161.8 318.283 2159.74 319.418 Q2157.7 320.529 2154.83 320.529 Q2150.13 320.529 2147.17 316.779 Q2144.23 313.029 2144.23 306.918 Q2144.23 300.807 2147.17 297.057 Q2150.13 293.307 2154.83 293.307 Q2157.7 293.307 2159.74 294.441 Q2161.8 295.552 2163.14 297.867 M2148.63 306.918 Q2148.63 311.617 2150.55 314.302 Q2152.5 316.964 2155.88 316.964 Q2159.26 316.964 2161.2 314.302 Q2163.14 311.617 2163.14 306.918 Q2163.14 302.219 2161.2 299.557 Q2159.26 296.872 2155.88 296.872 Q2152.5 296.872 2150.55 299.557 Q2148.63 302.219 2148.63 306.918 Z" fill="#000000" fill-rule="nonzero" fill-opacity="1" /><path clip-path="url(#clip970)" d="M2191.2 297.913 Q2190.48 297.497 2189.63 297.311 Q2188.79 297.103 2187.77 297.103 Q2184.16 297.103 2182.22 299.464 Q2180.3 301.802 2180.3 306.2 L2180.3 319.858 L2176.01 319.858 L2176.01 293.932 L2180.3 293.932 L2180.3 297.96 Q2181.64 295.598 2183.79 294.464 Q2185.94 293.307 2189.02 293.307 Q2189.46 293.307 2190 293.376 Q2190.53 293.423 2191.18 293.538 L2191.2 297.913 Z" fill="#000000" fill-rule="nonzero" fill-opacity="1" /><path clip-path="url(#clip970)" d="M2204.67 296.918 Q2201.25 296.918 2199.26 299.603 Q2197.26 302.265 2197.26 306.918 Q2197.26 311.571 2199.23 314.256 Q2201.22 316.918 2204.67 316.918 Q2208.07 316.918 2210.07 314.233 Q2212.06 311.547 2212.06 306.918 Q2212.06 302.311 2210.07 299.626 Q2208.07 296.918 2204.67 296.918 M2204.67 293.307 Q2210.23 293.307 2213.4 296.918 Q2216.57 300.529 2216.57 306.918 Q2216.57 313.284 2213.4 316.918 Q2210.23 320.529 2204.67 320.529 Q2199.09 320.529 2195.92 316.918 Q2192.77 313.284 2192.77 306.918 Q2192.77 300.529 2195.92 296.918 Q2199.09 293.307 2204.67 293.307 Z" fill="#000000" fill-rule="nonzero" fill-opacity="1" /><path clip-path="url(#clip970)" d="M1920.88 375.154 L2059.47 375.154 L2059.47 333.682 L1920.88 333.682 L1920.88 375.154  Z" fill="#ac8d18" fill-rule="evenodd" fill-opacity="1"/>
<polyline clip-path="url(#clip970)" style="stroke:#000000; stroke-linecap:round; stroke-linejoin:round; stroke-width:4; stroke-opacity:1; fill:none" points="1920.88,375.154 2059.47,375.154 2059.47,333.682 1920.88,333.682 1920.88,375.154 "/>
<path clip-path="url(#clip970)" d="M2087.24 355.193 L2087.24 367.855 L2094.74 367.855 Q2098.51 367.855 2100.32 366.304 Q2102.15 364.73 2102.15 361.512 Q2102.15 358.272 2100.32 356.744 Q2098.51 355.193 2094.74 355.193 L2087.24 355.193 M2087.24 340.98 L2087.24 351.397 L2094.16 351.397 Q2097.59 351.397 2099.26 350.124 Q2100.95 348.827 2100.95 346.188 Q2100.95 343.573 2099.26 342.276 Q2097.59 340.98 2094.16 340.98 L2087.24 340.98 M2082.57 337.138 L2094.51 337.138 Q2099.86 337.138 2102.75 339.36 Q2105.64 341.582 2105.64 345.679 Q2105.64 348.85 2104.16 350.725 Q2102.68 352.6 2099.81 353.063 Q2103.26 353.804 2105.16 356.165 Q2107.08 358.503 2107.08 362.022 Q2107.08 366.651 2103.93 369.174 Q2100.78 371.698 2094.97 371.698 L2082.57 371.698 L2082.57 337.138 Z" fill="#000000" fill-rule="nonzero" fill-opacity="1" /><path clip-path="url(#clip970)" d="M2126.69 358.665 Q2121.52 358.665 2119.53 359.846 Q2117.54 361.026 2117.54 363.874 Q2117.54 366.142 2119.02 367.485 Q2120.53 368.804 2123.1 368.804 Q2126.64 368.804 2128.77 366.304 Q2130.92 363.781 2130.92 359.614 L2130.92 358.665 L2126.69 358.665 M2135.18 356.906 L2135.18 371.698 L2130.92 371.698 L2130.92 367.762 Q2129.46 370.123 2127.29 371.258 Q2125.11 372.369 2121.96 372.369 Q2117.98 372.369 2115.62 370.147 Q2113.28 367.901 2113.28 364.151 Q2113.28 359.776 2116.2 357.554 Q2119.14 355.332 2124.95 355.332 L2130.92 355.332 L2130.92 354.915 Q2130.92 351.975 2128.98 350.378 Q2127.06 348.758 2123.56 348.758 Q2121.34 348.758 2119.23 349.29 Q2117.13 349.823 2115.18 350.887 L2115.18 346.952 Q2117.52 346.05 2119.72 345.61 Q2121.92 345.147 2124 345.147 Q2129.63 345.147 2132.4 348.063 Q2135.18 350.98 2135.18 356.906 Z" fill="#000000" fill-rule="nonzero" fill-opacity="1" /><path clip-path="url(#clip970)" d="M2148.17 338.411 L2148.17 345.772 L2156.94 345.772 L2156.94 349.082 L2148.17 349.082 L2148.17 363.156 Q2148.17 366.327 2149.02 367.23 Q2149.9 368.133 2152.57 368.133 L2156.94 368.133 L2156.94 371.698 L2152.57 371.698 Q2147.63 371.698 2145.76 369.869 Q2143.88 368.017 2143.88 363.156 L2143.88 349.082 L2140.76 349.082 L2140.76 345.772 L2143.88 345.772 L2143.88 338.411 L2148.17 338.411 Z" fill="#000000" fill-rule="nonzero" fill-opacity="1" /><path clip-path="url(#clip970)" d="M2166.76 338.411 L2166.76 345.772 L2175.53 345.772 L2175.53 349.082 L2166.76 349.082 L2166.76 363.156 Q2166.76 366.327 2167.61 367.23 Q2168.49 368.133 2171.15 368.133 L2175.53 368.133 L2175.53 371.698 L2171.15 371.698 Q2166.22 371.698 2164.35 369.869 Q2162.47 368.017 2162.47 363.156 L2162.47 349.082 L2159.35 349.082 L2159.35 345.772 L2162.47 345.772 L2162.47 338.411 L2166.76 338.411 Z" fill="#000000" fill-rule="nonzero" fill-opacity="1" /><path clip-path="url(#clip970)" d="M2203.31 357.67 L2203.31 359.753 L2183.72 359.753 Q2184 364.151 2186.36 366.466 Q2188.75 368.758 2192.98 368.758 Q2195.44 368.758 2197.73 368.156 Q2200.04 367.554 2202.31 366.35 L2202.31 370.378 Q2200.02 371.35 2197.61 371.86 Q2195.2 372.369 2192.73 372.369 Q2186.52 372.369 2182.89 368.758 Q2179.28 365.147 2179.28 358.989 Q2179.28 352.624 2182.7 348.897 Q2186.15 345.147 2191.99 345.147 Q2197.22 345.147 2200.25 348.526 Q2203.31 351.883 2203.31 357.67 M2199.05 356.42 Q2199 352.925 2197.08 350.841 Q2195.18 348.758 2192.03 348.758 Q2188.47 348.758 2186.32 350.772 Q2184.19 352.786 2183.86 356.443 L2199.05 356.42 Z" fill="#000000" fill-rule="nonzero" fill-opacity="1" /><path clip-path="url(#clip970)" d="M2225.32 349.753 Q2224.6 349.337 2223.75 349.151 Q2222.91 348.943 2221.89 348.943 Q2218.28 348.943 2216.34 351.304 Q2214.42 353.642 2214.42 358.04 L2214.42 371.698 L2210.13 371.698 L2210.13 345.772 L2214.42 345.772 L2214.42 349.8 Q2215.76 347.438 2217.91 346.304 Q2220.07 345.147 2223.14 345.147 Q2223.58 345.147 2224.12 345.216 Q2224.65 345.263 2225.3 345.378 L2225.32 349.753 Z" fill="#000000" fill-rule="nonzero" fill-opacity="1" /><path clip-path="url(#clip970)" d="M2240.57 374.105 Q2238.77 378.735 2237.06 380.147 Q2235.34 381.559 2232.47 381.559 L2229.07 381.559 L2229.07 377.994 L2231.57 377.994 Q2233.33 377.994 2234.3 377.16 Q2235.27 376.327 2236.45 373.225 L2237.22 371.281 L2226.73 345.772 L2231.25 345.772 L2239.35 366.049 L2247.45 345.772 L2251.96 345.772 L2240.57 374.105 Z" fill="#000000" fill-rule="nonzero" fill-opacity="1" /><path clip-path="url(#clip970)" d="M1920.88 426.994 L2059.47 426.994 L2059.47 385.522 L1920.88 385.522 L1920.88 426.994  Z" fill="#00a9ad" fill-rule="evenodd" fill-opacity="1"/>
<polyline clip-path="url(#clip970)" style="stroke:#000000; stroke-linecap:round; stroke-linejoin:round; stroke-width:4; stroke-opacity:1; fill:none" points="1920.88,426.994 2059.47,426.994 2059.47,385.522 1920.88,385.522 1920.88,426.994 "/>
<path clip-path="url(#clip970)" d="M2082.57 388.978 L2088.86 388.978 L2104.19 417.889 L2104.19 388.978 L2108.72 388.978 L2108.72 423.538 L2102.43 423.538 L2087.1 394.626 L2087.1 423.538 L2082.57 423.538 L2082.57 388.978 Z" fill="#000000" fill-rule="nonzero" fill-opacity="1" /><path clip-path="url(#clip970)" d="M2117.4 413.306 L2117.4 397.612 L2121.66 397.612 L2121.66 413.144 Q2121.66 416.825 2123.1 418.676 Q2124.53 420.505 2127.4 420.505 Q2130.85 420.505 2132.84 418.306 Q2134.86 416.107 2134.86 412.311 L2134.86 397.612 L2139.12 397.612 L2139.12 423.538 L2134.86 423.538 L2134.86 419.556 Q2133.31 421.917 2131.25 423.075 Q2129.21 424.209 2126.5 424.209 Q2122.03 424.209 2119.72 421.431 Q2117.4 418.653 2117.4 413.306 M2128.12 396.987 L2128.12 396.987 Z" fill="#000000" fill-rule="nonzero" fill-opacity="1" /><path clip-path="url(#clip970)" d="M2166.55 398.607 L2166.55 402.589 Q2164.74 401.593 2162.91 401.107 Q2161.11 400.598 2159.26 400.598 Q2155.11 400.598 2152.82 403.237 Q2150.53 405.852 2150.53 410.598 Q2150.53 415.343 2152.82 417.982 Q2155.11 420.598 2159.26 420.598 Q2161.11 420.598 2162.91 420.112 Q2164.74 419.602 2166.55 418.607 L2166.55 422.542 Q2164.76 423.376 2162.84 423.792 Q2160.95 424.209 2158.79 424.209 Q2152.94 424.209 2149.49 420.528 Q2146.04 416.848 2146.04 410.598 Q2146.04 404.255 2149.51 400.621 Q2153.01 396.987 2159.07 396.987 Q2161.04 396.987 2162.91 397.403 Q2164.79 397.797 2166.55 398.607 Z" fill="#000000" fill-rule="nonzero" fill-opacity="1" /><path clip-path="url(#clip970)" d="M2173.95 387.519 L2178.21 387.519 L2178.21 423.538 L2173.95 423.538 L2173.95 387.519 Z" fill="#000000" fill-rule="nonzero" fill-opacity="1" /><path clip-path="url(#clip970)" d="M2209.3 409.51 L2209.3 411.593 L2189.72 411.593 Q2190 415.991 2192.36 418.306 Q2194.74 420.598 2198.98 420.598 Q2201.43 420.598 2203.72 419.996 Q2206.04 419.394 2208.31 418.19 L2208.31 422.218 Q2206.01 423.19 2203.61 423.7 Q2201.2 424.209 2198.72 424.209 Q2192.52 424.209 2188.88 420.598 Q2185.27 416.987 2185.27 410.829 Q2185.27 404.464 2188.7 400.737 Q2192.15 396.987 2197.98 396.987 Q2203.21 396.987 2206.25 400.366 Q2209.3 403.723 2209.3 409.51 M2205.04 408.26 Q2205 404.765 2203.07 402.681 Q2201.18 400.598 2198.03 400.598 Q2194.46 400.598 2192.31 402.612 Q2190.18 404.626 2189.86 408.283 L2205.04 408.26 Z" fill="#000000" fill-rule="nonzero" fill-opacity="1" /><path clip-path="url(#clip970)" d="M2228.07 410.505 Q2222.91 410.505 2220.92 411.686 Q2218.93 412.866 2218.93 415.714 Q2218.93 417.982 2220.41 419.325 Q2221.92 420.644 2224.49 420.644 Q2228.03 420.644 2230.16 418.144 Q2232.31 415.621 2232.31 411.454 L2232.31 410.505 L2228.07 410.505 M2236.57 408.746 L2236.57 423.538 L2232.31 423.538 L2232.31 419.602 Q2230.85 421.963 2228.68 423.098 Q2226.5 424.209 2223.35 424.209 Q2219.37 424.209 2217.01 421.987 Q2214.67 419.741 2214.67 415.991 Q2214.67 411.616 2217.59 409.394 Q2220.53 407.172 2226.34 407.172 L2232.31 407.172 L2232.31 406.755 Q2232.31 403.815 2230.37 402.218 Q2228.44 400.598 2224.95 400.598 Q2222.73 400.598 2220.62 401.13 Q2218.51 401.663 2216.57 402.727 L2216.57 398.792 Q2218.91 397.89 2221.11 397.45 Q2223.31 396.987 2225.39 396.987 Q2231.01 396.987 2233.79 399.903 Q2236.57 402.82 2236.57 408.746 Z" fill="#000000" fill-rule="nonzero" fill-opacity="1" /><path clip-path="url(#clip970)" d="M2260.37 401.593 Q2259.65 401.177 2258.79 400.991 Q2257.96 400.783 2256.94 400.783 Q2253.33 400.783 2251.38 403.144 Q2249.46 405.482 2249.46 409.88 L2249.46 423.538 L2245.18 423.538 L2245.18 397.612 L2249.46 397.612 L2249.46 401.64 Q2250.81 399.278 2252.96 398.144 Q2255.11 396.987 2258.19 396.987 Q2258.63 396.987 2259.16 397.056 Q2259.69 397.103 2260.34 397.218 L2260.37 401.593 Z" fill="#000000" fill-rule="nonzero" fill-opacity="1" /></svg>
