<?xml version="1.0" encoding="utf-8"?>
<svg xmlns="http://www.w3.org/2000/svg" xmlns:xlink="http://www.w3.org/1999/xlink" width="600" height="400" viewBox="0 0 2400 1600">
<defs>
  <clipPath id="clip920">
    <rect x="0" y="0" width="2400" height="1600"/>
  </clipPath>
</defs>
<path clip-path="url(#clip920)" d="M0 1600 L2400 1600 L2400 0 L0 0  Z" fill="#ffffff" fill-rule="evenodd" fill-opacity="1"/>
<defs>
  <clipPath id="clip921">
    <rect x="480" y="0" width="1681" height="1600"/>
  </clipPath>
</defs>
<path clip-path="url(#clip920)" d="M273.979 1486.45 L2352.76 1486.45 L2352.76 47.2441 L273.979 47.2441  Z" fill="#ffffff" fill-rule="evenodd" fill-opacity="1"/>
<defs>
  <clipPath id="clip922">
    <rect x="273" y="47" width="2080" height="1440"/>
  </clipPath>
</defs>
<polyline clip-path="url(#clip922)" style="stroke:#000000; stroke-linecap:round; stroke-linejoin:round; stroke-width:2; stroke-opacity:0.1; fill:none" points="628.144,1486.45 628.144,47.2441 "/>
<polyline clip-path="url(#clip922)" style="stroke:#000000; stroke-linecap:round; stroke-linejoin:round; stroke-width:2; stroke-opacity:0.1; fill:none" points="1313.37,1486.45 1313.37,47.2441 "/>
<polyline clip-path="url(#clip922)" style="stroke:#000000; stroke-linecap:round; stroke-linejoin:round; stroke-width:2; stroke-opacity:0.1; fill:none" points="1998.59,1486.45 1998.59,47.2441 "/>
<polyline clip-path="url(#clip920)" style="stroke:#000000; stroke-linecap:round; stroke-linejoin:round; stroke-width:4; stroke-opacity:1; fill:none" points="273.979,1486.45 2352.76,1486.45 "/>
<polyline clip-path="url(#clip920)" style="stroke:#000000; stroke-linecap:round; stroke-linejoin:round; stroke-width:4; stroke-opacity:1; fill:none" points="628.144,1486.45 628.144,1467.55 "/>
<polyline clip-path="url(#clip920)" style="stroke:#000000; stroke-linecap:round; stroke-linejoin:round; stroke-width:4; stroke-opacity:1; fill:none" points="1313.37,1486.45 1313.37,1467.55 "/>
<polyline clip-path="url(#clip920)" style="stroke:#000000; stroke-linecap:round; stroke-linejoin:round; stroke-width:4; stroke-opacity:1; fill:none" points="1998.59,1486.45 1998.59,1467.55 "/>
<path clip-path="url(#clip920)" d="M546.79 1543.92 L546.79 1534.63 L539.151 1534.63 L539.151 1530.79 L551.42 1530.79 L551.42 1545.63 Q548.711 1547.55 545.447 1548.55 Q542.184 1549.52 538.48 1549.52 Q530.378 1549.52 525.795 1544.8 Q521.235 1540.05 521.235 1531.6 Q521.235 1523.13 525.795 1518.41 Q530.378 1513.66 538.48 1513.66 Q541.859 1513.66 544.892 1514.5 Q547.947 1515.33 550.517 1516.95 L550.517 1521.93 Q547.924 1519.73 545.008 1518.62 Q542.091 1517.51 538.873 1517.51 Q532.531 1517.51 529.336 1521.05 Q526.165 1524.59 526.165 1531.6 Q526.165 1538.59 529.336 1542.13 Q532.531 1545.68 538.873 1545.68 Q541.35 1545.68 543.295 1545.26 Q545.239 1544.82 546.79 1543.92 Z" fill="#000000" fill-rule="nonzero" fill-opacity="1" /><path clip-path="url(#clip920)" d="M581.952 1534.82 L581.952 1536.9 L562.369 1536.9 Q562.646 1541.3 565.007 1543.62 Q567.392 1545.91 571.628 1545.91 Q574.081 1545.91 576.373 1545.31 Q578.688 1544.7 580.956 1543.5 L580.956 1547.53 Q578.665 1548.5 576.257 1549.01 Q573.85 1549.52 571.373 1549.52 Q565.17 1549.52 561.535 1545.91 Q557.924 1542.3 557.924 1536.14 Q557.924 1529.77 561.35 1526.05 Q564.799 1522.3 570.632 1522.3 Q575.864 1522.3 578.896 1525.68 Q581.952 1529.03 581.952 1534.82 M577.693 1533.57 Q577.646 1530.07 575.725 1527.99 Q573.827 1525.91 570.679 1525.91 Q567.114 1525.91 564.961 1527.92 Q562.832 1529.94 562.507 1533.59 L577.693 1533.57 Z" fill="#000000" fill-rule="nonzero" fill-opacity="1" /><path clip-path="url(#clip920)" d="M603.966 1526.9 Q603.248 1526.49 602.392 1526.3 Q601.558 1526.09 600.54 1526.09 Q596.929 1526.09 594.984 1528.45 Q593.063 1530.79 593.063 1535.19 L593.063 1548.85 L588.78 1548.85 L588.78 1522.92 L593.063 1522.92 L593.063 1526.95 Q594.405 1524.59 596.558 1523.45 Q598.711 1522.3 601.79 1522.3 Q602.229 1522.3 602.762 1522.37 Q603.294 1522.41 603.942 1522.53 L603.966 1526.9 Z" fill="#000000" fill-rule="nonzero" fill-opacity="1" /><path clip-path="url(#clip920)" d="M627.785 1527.9 Q629.382 1525.03 631.604 1523.66 Q633.827 1522.3 636.836 1522.3 Q640.887 1522.3 643.086 1525.14 Q645.285 1527.97 645.285 1533.2 L645.285 1548.85 L641.002 1548.85 L641.002 1533.34 Q641.002 1529.61 639.683 1527.81 Q638.364 1526 635.655 1526 Q632.345 1526 630.424 1528.2 Q628.503 1530.4 628.503 1534.2 L628.503 1548.85 L624.22 1548.85 L624.22 1533.34 Q624.22 1529.59 622.901 1527.81 Q621.581 1526 618.827 1526 Q615.563 1526 613.641 1528.22 Q611.72 1530.42 611.72 1534.2 L611.72 1548.85 L607.438 1548.85 L607.438 1522.92 L611.72 1522.92 L611.72 1526.95 Q613.179 1524.57 615.216 1523.43 Q617.253 1522.3 620.053 1522.3 Q622.878 1522.3 624.845 1523.73 Q626.836 1525.17 627.785 1527.9 Z" fill="#000000" fill-rule="nonzero" fill-opacity="1" /><path clip-path="url(#clip920)" d="M665.562 1535.82 Q660.4 1535.82 658.41 1537 Q656.419 1538.18 656.419 1541.02 Q656.419 1543.29 657.9 1544.63 Q659.405 1545.95 661.975 1545.95 Q665.516 1545.95 667.646 1543.45 Q669.799 1540.93 669.799 1536.76 L669.799 1535.82 L665.562 1535.82 M674.058 1534.06 L674.058 1548.85 L669.799 1548.85 L669.799 1544.91 Q668.34 1547.27 666.164 1548.41 Q663.988 1549.52 660.84 1549.52 Q656.859 1549.52 654.498 1547.3 Q652.16 1545.05 652.16 1541.3 Q652.16 1536.93 655.076 1534.7 Q658.016 1532.48 663.826 1532.48 L669.799 1532.48 L669.799 1532.07 Q669.799 1529.13 667.854 1527.53 Q665.933 1525.91 662.438 1525.91 Q660.215 1525.91 658.109 1526.44 Q656.002 1526.97 654.058 1528.04 L654.058 1524.1 Q656.396 1523.2 658.595 1522.76 Q660.794 1522.3 662.877 1522.3 Q668.502 1522.3 671.28 1525.21 Q674.058 1528.13 674.058 1534.06 Z" fill="#000000" fill-rule="nonzero" fill-opacity="1" /><path clip-path="url(#clip920)" d="M704.382 1533.2 L704.382 1548.85 L700.122 1548.85 L700.122 1533.34 Q700.122 1529.66 698.687 1527.83 Q697.252 1526 694.382 1526 Q690.933 1526 688.942 1528.2 Q686.951 1530.4 686.951 1534.2 L686.951 1548.85 L682.669 1548.85 L682.669 1522.92 L686.951 1522.92 L686.951 1526.95 Q688.479 1524.61 690.539 1523.45 Q692.623 1522.3 695.331 1522.3 Q699.798 1522.3 702.09 1525.07 Q704.382 1527.83 704.382 1533.2 Z" fill="#000000" fill-rule="nonzero" fill-opacity="1" /><path clip-path="url(#clip920)" d="M723.664 1551.26 Q721.858 1555.88 720.146 1557.3 Q718.433 1558.71 715.562 1558.71 L712.159 1558.71 L712.159 1555.14 L714.659 1555.14 Q716.419 1555.14 717.391 1554.31 Q718.363 1553.48 719.544 1550.38 L720.308 1548.43 L709.822 1522.92 L714.335 1522.92 L722.437 1543.2 L730.539 1522.92 L735.053 1522.92 L723.664 1551.26 Z" fill="#000000" fill-rule="nonzero" fill-opacity="1" /><path clip-path="url(#clip920)" d="M1245.52 1515.42 L1245.52 1519.98 Q1242.86 1518.71 1240.5 1518.08 Q1238.14 1517.46 1235.94 1517.46 Q1232.12 1517.46 1230.03 1518.94 Q1227.97 1520.42 1227.97 1523.15 Q1227.97 1525.45 1229.34 1526.63 Q1230.73 1527.78 1234.57 1528.5 L1237.4 1529.08 Q1242.63 1530.07 1245.1 1532.6 Q1247.6 1535.1 1247.6 1539.31 Q1247.6 1544.33 1244.22 1546.93 Q1240.87 1549.52 1234.36 1549.52 Q1231.91 1549.52 1229.13 1548.96 Q1226.38 1548.41 1223.41 1547.32 L1223.41 1542.51 Q1226.26 1544.1 1228.99 1544.91 Q1231.72 1545.72 1234.36 1545.72 Q1238.37 1545.72 1240.54 1544.15 Q1242.72 1542.57 1242.72 1539.66 Q1242.72 1537.11 1241.15 1535.68 Q1239.59 1534.24 1236.03 1533.52 L1233.18 1532.97 Q1227.95 1531.93 1225.61 1529.7 Q1223.28 1527.48 1223.28 1523.52 Q1223.28 1518.94 1226.49 1516.3 Q1229.73 1513.66 1235.4 1513.66 Q1237.84 1513.66 1240.36 1514.1 Q1242.88 1514.54 1245.52 1515.42 Z" fill="#000000" fill-rule="nonzero" fill-opacity="1" /><path clip-path="url(#clip920)" d="M1252.23 1522.92 L1256.49 1522.92 L1261.82 1543.15 L1267.12 1522.92 L1272.14 1522.92 L1277.46 1543.15 L1282.77 1522.92 L1287.02 1522.92 L1280.24 1548.85 L1275.22 1548.85 L1269.64 1527.6 L1264.04 1548.85 L1259.02 1548.85 L1252.23 1522.92 Z" fill="#000000" fill-rule="nonzero" fill-opacity="1" /><path clip-path="url(#clip920)" d="M1315.66 1534.82 L1315.66 1536.9 L1296.08 1536.9 Q1296.35 1541.3 1298.71 1543.62 Q1301.1 1545.91 1305.34 1545.91 Q1307.79 1545.91 1310.08 1545.31 Q1312.4 1544.7 1314.66 1543.5 L1314.66 1547.53 Q1312.37 1548.5 1309.96 1549.01 Q1307.56 1549.52 1305.08 1549.52 Q1298.88 1549.52 1295.24 1545.91 Q1291.63 1542.3 1291.63 1536.14 Q1291.63 1529.77 1295.06 1526.05 Q1298.51 1522.3 1304.34 1522.3 Q1309.57 1522.3 1312.6 1525.68 Q1315.66 1529.03 1315.66 1534.82 M1311.4 1533.57 Q1311.35 1530.07 1309.43 1527.99 Q1307.53 1525.91 1304.39 1525.91 Q1300.82 1525.91 1298.67 1527.92 Q1296.54 1529.94 1296.21 1533.59 L1311.4 1533.57 Z" fill="#000000" fill-rule="nonzero" fill-opacity="1" /><path clip-path="url(#clip920)" d="M1339.71 1526.86 L1339.71 1512.83 L1343.97 1512.83 L1343.97 1548.85 L1339.71 1548.85 L1339.71 1544.96 Q1338.37 1547.27 1336.31 1548.41 Q1334.27 1549.52 1331.4 1549.52 Q1326.7 1549.52 1323.74 1545.77 Q1320.8 1542.02 1320.8 1535.91 Q1320.8 1529.8 1323.74 1526.05 Q1326.7 1522.3 1331.4 1522.3 Q1334.27 1522.3 1336.31 1523.43 Q1338.37 1524.54 1339.71 1526.86 M1325.2 1535.91 Q1325.2 1540.61 1327.12 1543.29 Q1329.06 1545.95 1332.44 1545.95 Q1335.82 1545.95 1337.77 1543.29 Q1339.71 1540.61 1339.71 1535.91 Q1339.71 1531.21 1337.77 1528.55 Q1335.82 1525.86 1332.44 1525.86 Q1329.06 1525.86 1327.12 1528.55 Q1325.2 1531.21 1325.2 1535.91 Z" fill="#000000" fill-rule="nonzero" fill-opacity="1" /><path clip-path="url(#clip920)" d="M1374.92 1534.82 L1374.92 1536.9 L1355.33 1536.9 Q1355.61 1541.3 1357.97 1543.62 Q1360.36 1545.91 1364.59 1545.91 Q1367.05 1545.91 1369.34 1545.31 Q1371.65 1544.7 1373.92 1543.5 L1373.92 1547.53 Q1371.63 1548.5 1369.22 1549.01 Q1366.82 1549.52 1364.34 1549.52 Q1358.14 1549.52 1354.5 1545.91 Q1350.89 1542.3 1350.89 1536.14 Q1350.89 1529.77 1354.32 1526.05 Q1357.77 1522.3 1363.6 1522.3 Q1368.83 1522.3 1371.86 1525.68 Q1374.92 1529.03 1374.92 1534.82 M1370.66 1533.57 Q1370.61 1530.07 1368.69 1527.99 Q1366.79 1525.91 1363.64 1525.91 Q1360.08 1525.91 1357.93 1527.92 Q1355.8 1529.94 1355.47 1533.59 L1370.66 1533.57 Z" fill="#000000" fill-rule="nonzero" fill-opacity="1" /><path clip-path="url(#clip920)" d="M1403.46 1533.2 L1403.46 1548.85 L1399.2 1548.85 L1399.2 1533.34 Q1399.2 1529.66 1397.77 1527.83 Q1396.33 1526 1393.46 1526 Q1390.01 1526 1388.02 1528.2 Q1386.03 1530.4 1386.03 1534.2 L1386.03 1548.85 L1381.75 1548.85 L1381.75 1522.92 L1386.03 1522.92 L1386.03 1526.95 Q1387.56 1524.61 1389.62 1523.45 Q1391.7 1522.3 1394.41 1522.3 Q1398.88 1522.3 1401.17 1525.07 Q1403.46 1527.83 1403.46 1533.2 Z" fill="#000000" fill-rule="nonzero" fill-opacity="1" /><path clip-path="url(#clip920)" d="M1896.72 1518.13 L1896.72 1545.01 L1902.36 1545.01 Q1909.52 1545.01 1912.83 1541.76 Q1916.16 1538.52 1916.16 1531.53 Q1916.16 1524.59 1912.83 1521.37 Q1909.52 1518.13 1902.36 1518.13 L1896.72 1518.13 M1892.04 1514.29 L1901.65 1514.29 Q1911.69 1514.29 1916.39 1518.48 Q1921.09 1522.64 1921.09 1531.53 Q1921.09 1540.47 1916.37 1544.66 Q1911.65 1548.85 1901.65 1548.85 L1892.04 1548.85 L1892.04 1514.29 Z" fill="#000000" fill-rule="nonzero" fill-opacity="1" /><path clip-path="url(#clip920)" d="M1950.54 1534.82 L1950.54 1536.9 L1930.95 1536.9 Q1931.23 1541.3 1933.59 1543.62 Q1935.98 1545.91 1940.21 1545.91 Q1942.67 1545.91 1944.96 1545.31 Q1947.27 1544.7 1949.54 1543.5 L1949.54 1547.53 Q1947.25 1548.5 1944.84 1549.01 Q1942.43 1549.52 1939.96 1549.52 Q1933.75 1549.52 1930.12 1545.91 Q1926.51 1542.3 1926.51 1536.14 Q1926.51 1529.77 1929.93 1526.05 Q1933.38 1522.3 1939.22 1522.3 Q1944.45 1522.3 1947.48 1525.68 Q1950.54 1529.03 1950.54 1534.82 M1946.28 1533.57 Q1946.23 1530.07 1944.31 1527.99 Q1942.41 1525.91 1939.26 1525.91 Q1935.7 1525.91 1933.55 1527.92 Q1931.42 1529.94 1931.09 1533.59 L1946.28 1533.57 Z" fill="#000000" fill-rule="nonzero" fill-opacity="1" /><path clip-path="url(#clip920)" d="M1979.08 1533.2 L1979.08 1548.85 L1974.82 1548.85 L1974.82 1533.34 Q1974.82 1529.66 1973.38 1527.83 Q1971.95 1526 1969.08 1526 Q1965.63 1526 1963.64 1528.2 Q1961.65 1530.4 1961.65 1534.2 L1961.65 1548.85 L1957.36 1548.85 L1957.36 1522.92 L1961.65 1522.92 L1961.65 1526.95 Q1963.17 1524.61 1965.23 1523.45 Q1967.32 1522.3 1970.03 1522.3 Q1974.49 1522.3 1976.79 1525.07 Q1979.08 1527.83 1979.08 1533.2 Z" fill="#000000" fill-rule="nonzero" fill-opacity="1" /><path clip-path="url(#clip920)" d="M2007.76 1527.9 Q2009.35 1525.03 2011.58 1523.66 Q2013.8 1522.3 2016.81 1522.3 Q2020.86 1522.3 2023.06 1525.14 Q2025.26 1527.97 2025.26 1533.2 L2025.26 1548.85 L2020.98 1548.85 L2020.98 1533.34 Q2020.98 1529.61 2019.66 1527.81 Q2018.34 1526 2015.63 1526 Q2012.32 1526 2010.4 1528.2 Q2008.48 1530.4 2008.48 1534.2 L2008.48 1548.85 L2004.19 1548.85 L2004.19 1533.34 Q2004.19 1529.59 2002.87 1527.81 Q2001.55 1526 1998.8 1526 Q1995.54 1526 1993.61 1528.22 Q1991.69 1530.42 1991.69 1534.2 L1991.69 1548.85 L1987.41 1548.85 L1987.41 1522.92 L1991.69 1522.92 L1991.69 1526.95 Q1993.15 1524.57 1995.19 1523.43 Q1997.23 1522.3 2000.03 1522.3 Q2002.85 1522.3 2004.82 1523.73 Q2006.81 1525.17 2007.76 1527.9 Z" fill="#000000" fill-rule="nonzero" fill-opacity="1" /><path clip-path="url(#clip920)" d="M2045.54 1535.82 Q2040.37 1535.82 2038.38 1537 Q2036.39 1538.18 2036.39 1541.02 Q2036.39 1543.29 2037.87 1544.63 Q2039.38 1545.95 2041.95 1545.95 Q2045.49 1545.95 2047.62 1543.45 Q2049.77 1540.93 2049.77 1536.76 L2049.77 1535.82 L2045.54 1535.82 M2054.03 1534.06 L2054.03 1548.85 L2049.77 1548.85 L2049.77 1544.91 Q2048.31 1547.27 2046.14 1548.41 Q2043.96 1549.52 2040.81 1549.52 Q2036.83 1549.52 2034.47 1547.3 Q2032.13 1545.05 2032.13 1541.3 Q2032.13 1536.93 2035.05 1534.7 Q2037.99 1532.48 2043.8 1532.48 L2049.77 1532.48 L2049.77 1532.07 Q2049.77 1529.13 2047.83 1527.53 Q2045.91 1525.91 2042.41 1525.91 Q2040.19 1525.91 2038.08 1526.44 Q2035.98 1526.97 2034.03 1528.04 L2034.03 1524.1 Q2036.37 1523.2 2038.57 1522.76 Q2040.77 1522.3 2042.85 1522.3 Q2048.48 1522.3 2051.25 1525.21 Q2054.03 1528.13 2054.03 1534.06 Z" fill="#000000" fill-rule="nonzero" fill-opacity="1" /><path clip-path="url(#clip920)" d="M2077.83 1526.9 Q2077.11 1526.49 2076.25 1526.3 Q2075.42 1526.09 2074.4 1526.09 Q2070.79 1526.09 2068.85 1528.45 Q2066.92 1530.79 2066.92 1535.19 L2066.92 1548.85 L2062.64 1548.85 L2062.64 1522.92 L2066.92 1522.92 L2066.92 1526.95 Q2068.27 1524.59 2070.42 1523.45 Q2072.57 1522.3 2075.65 1522.3 Q2076.09 1522.3 2076.62 1522.37 Q2077.16 1522.41 2077.8 1522.53 L2077.83 1526.9 Z" fill="#000000" fill-rule="nonzero" fill-opacity="1" /><path clip-path="url(#clip920)" d="M2082.13 1512.83 L2086.41 1512.83 L2086.41 1534.1 L2099.12 1522.92 L2104.56 1522.92 L2090.81 1535.05 L2105.14 1548.85 L2099.59 1548.85 L2086.41 1536.19 L2086.41 1548.85 L2082.13 1548.85 L2082.13 1512.83 Z" fill="#000000" fill-rule="nonzero" fill-opacity="1" /><polyline clip-path="url(#clip922)" style="stroke:#000000; stroke-linecap:round; stroke-linejoin:round; stroke-width:2; stroke-opacity:0.1; fill:none" points="273.979,1445.72 2352.76,1445.72 "/>
<polyline clip-path="url(#clip922)" style="stroke:#000000; stroke-linecap:round; stroke-linejoin:round; stroke-width:2; stroke-opacity:0.1; fill:none" points="273.979,1025.05 2352.76,1025.05 "/>
<polyline clip-path="url(#clip922)" style="stroke:#000000; stroke-linecap:round; stroke-linejoin:round; stroke-width:2; stroke-opacity:0.1; fill:none" points="273.979,604.377 2352.76,604.377 "/>
<polyline clip-path="url(#clip922)" style="stroke:#000000; stroke-linecap:round; stroke-linejoin:round; stroke-width:2; stroke-opacity:0.1; fill:none" points="273.979,183.708 2352.76,183.708 "/>
<polyline clip-path="url(#clip920)" style="stroke:#000000; stroke-linecap:round; stroke-linejoin:round; stroke-width:4; stroke-opacity:1; fill:none" points="273.979,1486.45 273.979,47.2441 "/>
<polyline clip-path="url(#clip920)" style="stroke:#000000; stroke-linecap:round; stroke-linejoin:round; stroke-width:4; stroke-opacity:1; fill:none" points="273.979,1445.72 292.877,1445.72 "/>
<polyline clip-path="url(#clip920)" style="stroke:#000000; stroke-linecap:round; stroke-linejoin:round; stroke-width:4; stroke-opacity:1; fill:none" points="273.979,1025.05 292.877,1025.05 "/>
<polyline clip-path="url(#clip920)" style="stroke:#000000; stroke-linecap:round; stroke-linejoin:round; stroke-width:4; stroke-opacity:1; fill:none" points="273.979,604.377 292.877,604.377 "/>
<polyline clip-path="url(#clip920)" style="stroke:#000000; stroke-linecap:round; stroke-linejoin:round; stroke-width:4; stroke-opacity:1; fill:none" points="273.979,183.708 292.877,183.708 "/>
<path clip-path="url(#clip920)" d="M226.035 1431.51 Q222.423 1431.51 220.595 1435.08 Q218.789 1438.62 218.789 1445.75 Q218.789 1452.86 220.595 1456.42 Q222.423 1459.96 226.035 1459.96 Q229.669 1459.96 231.474 1456.42 Q233.303 1452.86 233.303 1445.75 Q233.303 1438.62 231.474 1435.08 Q229.669 1431.51 226.035 1431.51 M226.035 1427.81 Q231.845 1427.81 234.9 1432.42 Q237.979 1437 237.979 1445.75 Q237.979 1454.48 234.9 1459.08 Q231.845 1463.67 226.035 1463.67 Q220.224 1463.67 217.146 1459.08 Q214.09 1454.48 214.09 1445.75 Q214.09 1437 217.146 1432.42 Q220.224 1427.81 226.035 1427.81 Z" fill="#000000" fill-rule="nonzero" fill-opacity="1" /><path clip-path="url(#clip920)" d="M53.3995 1044.84 L61.0384 1044.84 L61.0384 1018.47 L52.7282 1020.14 L52.7282 1015.88 L60.9921 1014.21 L65.668 1014.21 L65.668 1044.84 L73.3068 1044.84 L73.3068 1048.77 L53.3995 1048.77 L53.3995 1044.84 Z" fill="#000000" fill-rule="nonzero" fill-opacity="1" /><path clip-path="url(#clip920)" d="M82.7512 1042.89 L87.6354 1042.89 L87.6354 1048.77 L82.7512 1048.77 L82.7512 1042.89 Z" fill="#000000" fill-rule="nonzero" fill-opacity="1" /><path clip-path="url(#clip920)" d="M107.821 1017.29 Q104.209 1017.29 102.381 1020.86 Q100.575 1024.4 100.575 1031.53 Q100.575 1038.64 102.381 1042.2 Q104.209 1045.74 107.821 1045.74 Q111.455 1045.74 113.26 1042.2 Q115.089 1038.64 115.089 1031.53 Q115.089 1024.4 113.26 1020.86 Q111.455 1017.29 107.821 1017.29 M107.821 1013.59 Q113.631 1013.59 116.686 1018.2 Q119.765 1022.78 119.765 1031.53 Q119.765 1040.26 116.686 1044.86 Q113.631 1049.45 107.821 1049.45 Q102.01 1049.45 98.9317 1044.86 Q95.8761 1040.26 95.8761 1031.53 Q95.8761 1022.78 98.9317 1018.2 Q102.01 1013.59 107.821 1013.59 Z" fill="#000000" fill-rule="nonzero" fill-opacity="1" /><path clip-path="url(#clip920)" d="M156.154 1023.31 L145.575 1033.94 L156.154 1044.51 L153.399 1047.32 L142.774 1036.69 L132.149 1047.32 L129.418 1044.51 L139.973 1033.94 L129.418 1023.31 L132.149 1020.51 L142.774 1031.14 L153.399 1020.51 L156.154 1023.31 Z" fill="#000000" fill-rule="nonzero" fill-opacity="1" /><path clip-path="url(#clip920)" d="M168.515 1044.84 L176.153 1044.84 L176.153 1018.47 L167.843 1020.14 L167.843 1015.88 L176.107 1014.21 L180.783 1014.21 L180.783 1044.84 L188.422 1044.84 L188.422 1048.77 L168.515 1048.77 L168.515 1044.84 Z" fill="#000000" fill-rule="nonzero" fill-opacity="1" /><path clip-path="url(#clip920)" d="M207.866 1017.29 Q204.255 1017.29 202.426 1020.86 Q200.621 1024.4 200.621 1031.53 Q200.621 1038.64 202.426 1042.2 Q204.255 1045.74 207.866 1045.74 Q211.501 1045.74 213.306 1042.2 Q215.135 1038.64 215.135 1031.53 Q215.135 1024.4 213.306 1020.86 Q211.501 1017.29 207.866 1017.29 M207.866 1013.59 Q213.676 1013.59 216.732 1018.2 Q219.811 1022.78 219.811 1031.53 Q219.811 1040.26 216.732 1044.86 Q213.676 1049.45 207.866 1049.45 Q202.056 1049.45 198.977 1044.86 Q195.922 1040.26 195.922 1031.53 Q195.922 1022.78 198.977 1018.2 Q202.056 1013.59 207.866 1013.59 Z" fill="#000000" fill-rule="nonzero" fill-opacity="1" /><path clip-path="url(#clip920)" d="M220.996 993.284 L235.91 993.284 L235.91 996.481 L224.475 996.481 L224.475 1003.36 Q225.303 1003.08 226.13 1002.95 Q226.958 1002.8 227.785 1002.8 Q232.487 1002.8 235.233 1005.38 Q237.979 1007.95 237.979 1012.35 Q237.979 1016.89 235.158 1019.41 Q232.337 1021.91 227.202 1021.91 Q225.434 1021.91 223.591 1021.61 Q221.767 1021.31 219.811 1020.71 L219.811 1016.89 Q221.503 1017.81 223.309 1018.26 Q225.114 1018.71 227.127 1018.71 Q230.381 1018.71 232.28 1017 Q234.18 1015.29 234.18 1012.35 Q234.18 1009.42 232.28 1007.71 Q230.381 1006 227.127 1006 Q225.603 1006 224.08 1006.34 Q222.575 1006.67 220.996 1007.39 L220.996 993.284 Z" fill="#000000" fill-rule="nonzero" fill-opacity="1" /><path clip-path="url(#clip920)" d="M56.6171 624.17 L72.9365 624.17 L72.9365 628.105 L50.9921 628.105 L50.9921 624.17 Q53.6541 621.415 58.2375 616.785 Q62.8439 612.133 64.0245 610.79 Q66.2698 608.267 67.1494 606.531 Q68.0522 604.772 68.0522 603.082 Q68.0522 600.327 66.1078 598.591 Q64.1865 596.855 61.0847 596.855 Q58.8856 596.855 56.4319 597.619 Q54.0014 598.383 51.2236 599.934 L51.2236 595.211 Q54.0477 594.077 56.5014 593.498 Q58.955 592.92 60.9921 592.92 Q66.3624 592.92 69.5568 595.605 Q72.7513 598.29 72.7513 602.781 Q72.7513 604.91 71.9411 606.832 Q71.1541 608.73 69.0476 611.322 Q68.4689 611.994 65.367 615.211 Q62.2652 618.406 56.6171 624.17 Z" fill="#000000" fill-rule="nonzero" fill-opacity="1" /><path clip-path="url(#clip920)" d="M82.7512 622.225 L87.6354 622.225 L87.6354 628.105 L82.7512 628.105 L82.7512 622.225 Z" fill="#000000" fill-rule="nonzero" fill-opacity="1" /><path clip-path="url(#clip920)" d="M107.821 596.623 Q104.209 596.623 102.381 600.188 Q100.575 603.73 100.575 610.859 Q100.575 617.966 102.381 621.531 Q104.209 625.072 107.821 625.072 Q111.455 625.072 113.26 621.531 Q115.089 617.966 115.089 610.859 Q115.089 603.73 113.26 600.188 Q111.455 596.623 107.821 596.623 M107.821 592.92 Q113.631 592.92 116.686 597.526 Q119.765 602.11 119.765 610.859 Q119.765 619.586 116.686 624.193 Q113.631 628.776 107.821 628.776 Q102.01 628.776 98.9317 624.193 Q95.8761 619.586 95.8761 610.859 Q95.8761 602.11 98.9317 597.526 Q102.01 592.92 107.821 592.92 Z" fill="#000000" fill-rule="nonzero" fill-opacity="1" /><path clip-path="url(#clip920)" d="M156.154 602.642 L145.575 613.267 L156.154 623.846 L153.399 626.646 L142.774 616.021 L132.149 626.646 L129.418 623.846 L139.973 613.267 L129.418 602.642 L132.149 599.841 L142.774 610.466 L153.399 599.841 L156.154 602.642 Z" fill="#000000" fill-rule="nonzero" fill-opacity="1" /><path clip-path="url(#clip920)" d="M168.515 624.17 L176.153 624.17 L176.153 597.804 L167.843 599.471 L167.843 595.211 L176.107 593.545 L180.783 593.545 L180.783 624.17 L188.422 624.17 L188.422 628.105 L168.515 628.105 L168.515 624.17 Z" fill="#000000" fill-rule="nonzero" fill-opacity="1" /><path clip-path="url(#clip920)" d="M207.866 596.623 Q204.255 596.623 202.426 600.188 Q200.621 603.73 200.621 610.859 Q200.621 617.966 202.426 621.531 Q204.255 625.072 207.866 625.072 Q211.501 625.072 213.306 621.531 Q215.135 617.966 215.135 610.859 Q215.135 603.73 213.306 600.188 Q211.501 596.623 207.866 596.623 M207.866 592.92 Q213.676 592.92 216.732 597.526 Q219.811 602.11 219.811 610.859 Q219.811 619.586 216.732 624.193 Q213.676 628.776 207.866 628.776 Q202.056 628.776 198.977 624.193 Q195.922 619.586 195.922 610.859 Q195.922 602.11 198.977 597.526 Q202.056 592.92 207.866 592.92 Z" fill="#000000" fill-rule="nonzero" fill-opacity="1" /><path clip-path="url(#clip920)" d="M220.996 572.614 L235.91 572.614 L235.91 575.812 L224.475 575.812 L224.475 582.695 Q225.303 582.413 226.13 582.282 Q226.958 582.131 227.785 582.131 Q232.487 582.131 235.233 584.708 Q237.979 587.284 237.979 591.685 Q237.979 596.218 235.158 598.738 Q232.337 601.24 227.202 601.24 Q225.434 601.24 223.591 600.939 Q221.767 600.638 219.811 600.036 L219.811 596.218 Q221.503 597.14 223.309 597.591 Q225.114 598.042 227.127 598.042 Q230.381 598.042 232.28 596.331 Q234.18 594.619 234.18 591.685 Q234.18 588.751 232.28 587.04 Q230.381 585.328 227.127 585.328 Q225.603 585.328 224.08 585.667 Q222.575 586.005 220.996 586.72 L220.996 572.614 Z" fill="#000000" fill-rule="nonzero" fill-opacity="1" /><path clip-path="url(#clip920)" d="M66.7559 188.801 Q70.1124 189.519 71.9874 191.787 Q73.8855 194.056 73.8855 197.389 Q73.8855 202.505 70.367 205.306 Q66.8485 208.107 60.3671 208.107 Q58.1912 208.107 55.8764 207.667 Q53.5847 207.25 51.131 206.394 L51.131 201.88 Q53.0754 203.014 55.3903 203.593 Q57.7051 204.172 60.2282 204.172 Q64.6263 204.172 66.918 202.435 Q69.2328 200.699 69.2328 197.389 Q69.2328 194.334 67.08 192.621 Q64.9504 190.885 61.131 190.885 L57.1032 190.885 L57.1032 187.042 L61.3161 187.042 Q64.7652 187.042 66.5939 185.676 Q68.4226 184.287 68.4226 181.695 Q68.4226 179.033 66.5245 177.621 Q64.6495 176.186 61.131 176.186 Q59.2097 176.186 57.0106 176.602 Q54.8115 177.019 52.1727 177.899 L52.1727 173.732 Q54.8347 172.991 57.1495 172.621 Q59.4875 172.25 61.5476 172.25 Q66.8717 172.25 69.9735 174.681 Q73.0753 177.088 73.0753 181.209 Q73.0753 184.079 71.4318 186.07 Q69.7883 188.037 66.7559 188.801 Z" fill="#000000" fill-rule="nonzero" fill-opacity="1" /><path clip-path="url(#clip920)" d="M82.7512 201.556 L87.6354 201.556 L87.6354 207.435 L82.7512 207.435 L82.7512 201.556 Z" fill="#000000" fill-rule="nonzero" fill-opacity="1" /><path clip-path="url(#clip920)" d="M107.821 175.954 Q104.209 175.954 102.381 179.519 Q100.575 183.061 100.575 190.19 Q100.575 197.297 102.381 200.861 Q104.209 204.403 107.821 204.403 Q111.455 204.403 113.26 200.861 Q115.089 197.297 115.089 190.19 Q115.089 183.061 113.26 179.519 Q111.455 175.954 107.821 175.954 M107.821 172.25 Q113.631 172.25 116.686 176.857 Q119.765 181.44 119.765 190.19 Q119.765 198.917 116.686 203.523 Q113.631 208.107 107.821 208.107 Q102.01 208.107 98.9317 203.523 Q95.8761 198.917 95.8761 190.19 Q95.8761 181.44 98.9317 176.857 Q102.01 172.25 107.821 172.25 Z" fill="#000000" fill-rule="nonzero" fill-opacity="1" /><path clip-path="url(#clip920)" d="M156.154 181.973 L145.575 192.598 L156.154 203.176 L153.399 205.977 L142.774 195.352 L132.149 205.977 L129.418 203.176 L139.973 192.598 L129.418 181.973 L132.149 179.172 L142.774 189.797 L153.399 179.172 L156.154 181.973 Z" fill="#000000" fill-rule="nonzero" fill-opacity="1" /><path clip-path="url(#clip920)" d="M168.515 203.5 L176.153 203.5 L176.153 177.135 L167.843 178.801 L167.843 174.542 L176.107 172.875 L180.783 172.875 L180.783 203.5 L188.422 203.5 L188.422 207.435 L168.515 207.435 L168.515 203.5 Z" fill="#000000" fill-rule="nonzero" fill-opacity="1" /><path clip-path="url(#clip920)" d="M207.866 175.954 Q204.255 175.954 202.426 179.519 Q200.621 183.061 200.621 190.19 Q200.621 197.297 202.426 200.861 Q204.255 204.403 207.866 204.403 Q211.501 204.403 213.306 200.861 Q215.135 197.297 215.135 190.19 Q215.135 183.061 213.306 179.519 Q211.501 175.954 207.866 175.954 M207.866 172.25 Q213.676 172.25 216.732 176.857 Q219.811 181.44 219.811 190.19 Q219.811 198.917 216.732 203.523 Q213.676 208.107 207.866 208.107 Q202.056 208.107 198.977 203.523 Q195.922 198.917 195.922 190.19 Q195.922 181.44 198.977 176.857 Q202.056 172.25 207.866 172.25 Z" fill="#000000" fill-rule="nonzero" fill-opacity="1" /><path clip-path="url(#clip920)" d="M220.996 151.945 L235.91 151.945 L235.91 155.142 L224.475 155.142 L224.475 162.026 Q225.303 161.744 226.13 161.612 Q226.958 161.462 227.785 161.462 Q232.487 161.462 235.233 164.038 Q237.979 166.615 237.979 171.016 Q237.979 175.549 235.158 178.069 Q232.337 180.57 227.202 180.57 Q225.434 180.57 223.591 180.27 Q221.767 179.969 219.811 179.367 L219.811 175.549 Q221.503 176.47 223.309 176.922 Q225.114 177.373 227.127 177.373 Q230.381 177.373 232.28 175.662 Q234.18 173.95 234.18 171.016 Q234.18 168.082 232.28 166.371 Q230.381 164.659 227.127 164.659 Q225.603 164.659 224.08 164.998 Q222.575 165.336 220.996 166.051 L220.996 151.945 Z" fill="#000000" fill-rule="nonzero" fill-opacity="1" /><path clip-path="url(#clip922)" d="M388.315 87.9763 L388.315 536.406 L867.972 536.406 L867.972 87.9763 L388.315 87.9763 L388.315 87.9763  Z" fill="#009af9" fill-rule="evenodd" fill-opacity="1"/>
<polyline clip-path="url(#clip922)" style="stroke:#000000; stroke-linecap:round; stroke-linejoin:round; stroke-width:4; stroke-opacity:1; fill:none" points="388.315,87.9763 388.315,536.406 867.972,536.406 867.972,87.9763 388.315,87.9763 "/>
<path clip-path="url(#clip922)" d="M1073.54 1083.46 L1073.54 1360.43 L1553.2 1360.43 L1553.2 1083.46 L1073.54 1083.46 L1073.54 1083.46  Z" fill="#009af9" fill-rule="evenodd" fill-opacity="1"/>
<polyline clip-path="url(#clip922)" style="stroke:#000000; stroke-linecap:round; stroke-linejoin:round; stroke-width:4; stroke-opacity:1; fill:none" points="1073.54,1083.46 1073.54,1360.43 1553.2,1360.43 1553.2,1083.46 1073.54,1083.46 "/>
<path clip-path="url(#clip922)" d="M1758.76 1323.22 L1758.76 1387.85 L2238.42 1387.85 L2238.42 1323.22 L1758.76 1323.22 L1758.76 1323.22  Z" fill="#009af9" fill-rule="evenodd" fill-opacity="1"/>
<polyline clip-path="url(#clip922)" style="stroke:#000000; stroke-linecap:round; stroke-linejoin:round; stroke-width:4; stroke-opacity:1; fill:none" points="1758.76,1323.22 1758.76,1387.85 2238.42,1387.85 2238.42,1323.22 1758.76,1323.22 "/>
<circle clip-path="url(#clip922)" style="fill:#009af9; stroke:none; fill-opacity:0" cx="628.144" cy="87.9763" r="2"/>
<circle clip-path="url(#clip922)" style="fill:#009af9; stroke:none; fill-opacity:0" cx="1313.37" cy="1083.46" r="2"/>
<circle clip-path="url(#clip922)" style="fill:#009af9; stroke:none; fill-opacity:0" cx="1998.59" cy="1323.22" r="2"/>
<path clip-path="url(#clip922)" d="M388.315 536.406 L388.315 955.772 L867.972 955.772 L867.972 536.406 L388.315 536.406 L388.315 536.406  Z" fill="#e26f46" fill-rule="evenodd" fill-opacity="1"/>
<polyline clip-path="url(#clip922)" style="stroke:#000000; stroke-linecap:round; stroke-linejoin:round; stroke-width:4; stroke-opacity:1; fill:none" points="388.315,536.406 388.315,955.772 867.972,955.772 867.972,536.406 388.315,536.406 "/>
<path clip-path="url(#clip922)" d="M1073.54 1360.43 L1073.54 1360.43 L1553.2 1360.43 L1553.2 1360.43 L1073.54 1360.43 L1073.54 1360.43  Z" fill="#e26f46" fill-rule="evenodd" fill-opacity="1"/>
<polyline clip-path="url(#clip922)" style="stroke:#000000; stroke-linecap:round; stroke-linejoin:round; stroke-width:4; stroke-opacity:1; fill:none" points="1073.54,1360.43 1073.54,1360.43 1553.2,1360.43 1073.54,1360.43 "/>
<path clip-path="url(#clip922)" d="M1758.76 1387.85 L1758.76 1404.94 L2238.42 1404.94 L2238.42 1387.85 L1758.76 1387.85 L1758.76 1387.85  Z" fill="#e26f46" fill-rule="evenodd" fill-opacity="1"/>
<polyline clip-path="url(#clip922)" style="stroke:#000000; stroke-linecap:round; stroke-linejoin:round; stroke-width:4; stroke-opacity:1; fill:none" points="1758.76,1387.85 1758.76,1404.94 2238.42,1404.94 2238.42,1387.85 1758.76,1387.85 "/>
<circle clip-path="url(#clip922)" style="fill:#e26f46; stroke:none; fill-opacity:0" cx="628.144" cy="536.406" r="2"/>
<circle clip-path="url(#clip922)" style="fill:#e26f46; stroke:none; fill-opacity:0" cx="1313.37" cy="1360.43" r="2"/>
<circle clip-path="url(#clip922)" style="fill:#e26f46; stroke:none; fill-opacity:0" cx="1998.59" cy="1387.85" r="2"/>
<path clip-path="url(#clip922)" d="M388.315 955.772 L388.315 1177.49 L867.972 1177.49 L867.972 955.772 L388.315 955.772 L388.315 955.772  Z" fill="#3da44d" fill-rule="evenodd" fill-opacity="1"/>
<polyline clip-path="url(#clip922)" style="stroke:#000000; stroke-linecap:round; stroke-linejoin:round; stroke-width:4; stroke-opacity:1; fill:none" points="388.315,955.772 388.315,1177.49 867.972,1177.49 867.972,955.772 388.315,955.772 "/>
<path clip-path="url(#clip922)" d="M1073.54 1360.43 L1073.54 1366.25 L1553.2 1366.25 L1553.2 1360.43 L1073.54 1360.43 L1073.54 1360.43  Z" fill="#3da44d" fill-rule="evenodd" fill-opacity="1"/>
<polyline clip-path="url(#clip922)" style="stroke:#000000; stroke-linecap:round; stroke-linejoin:round; stroke-width:4; stroke-opacity:1; fill:none" points="1073.54,1360.43 1073.54,1366.25 1553.2,1366.25 1553.2,1360.43 1073.54,1360.43 "/>
<path clip-path="url(#clip922)" d="M1758.76 1404.94 L1758.76 1417.91 L2238.42 1417.91 L2238.42 1404.94 L1758.76 1404.94 L1758.76 1404.94  Z" fill="#3da44d" fill-rule="evenodd" fill-opacity="1"/>
<polyline clip-path="url(#clip922)" style="stroke:#000000; stroke-linecap:round; stroke-linejoin:round; stroke-width:4; stroke-opacity:1; fill:none" points="1758.76,1404.94 1758.76,1417.91 2238.42,1417.91 2238.42,1404.94 1758.76,1404.94 "/>
<circle clip-path="url(#clip922)" style="fill:#3da44d; stroke:none; fill-opacity:0" cx="628.144" cy="955.772" r="2"/>
<circle clip-path="url(#clip922)" style="fill:#3da44d; stroke:none; fill-opacity:0" cx="1313.37" cy="1360.43" r="2"/>
<circle clip-path="url(#clip922)" style="fill:#3da44d; stroke:none; fill-opacity:0" cx="1998.59" cy="1404.94" r="2"/>
<path clip-path="url(#clip922)" d="M388.315 1177.49 L388.315 1177.49 L867.972 1177.49 L867.972 1177.49 L388.315 1177.49 L388.315 1177.49  Z" fill="#c271d2" fill-rule="evenodd" fill-opacity="1"/>
<polyline clip-path="url(#clip922)" style="stroke:#000000; stroke-linecap:round; stroke-linejoin:round; stroke-width:4; stroke-opacity:1; fill:none" points="388.315,1177.49 388.315,1177.49 867.972,1177.49 388.315,1177.49 "/>
<path clip-path="url(#clip922)" d="M1073.54 1366.25 L1073.54 1425.14 L1553.2 1425.14 L1553.2 1366.25 L1073.54 1366.25 L1073.54 1366.25  Z" fill="#c271d2" fill-rule="evenodd" fill-opacity="1"/>
<polyline clip-path="url(#clip922)" style="stroke:#000000; stroke-linecap:round; stroke-linejoin:round; stroke-width:4; stroke-opacity:1; fill:none" points="1073.54,1366.25 1073.54,1425.14 1553.2,1425.14 1553.2,1366.25 1073.54,1366.25 "/>
<path clip-path="url(#clip922)" d="M1758.76 1417.91 L1758.76 1417.91 L2238.42 1417.91 L2238.42 1417.91 L1758.76 1417.91 L1758.76 1417.91  Z" fill="#c271d2" fill-rule="evenodd" fill-opacity="1"/>
<polyline clip-path="url(#clip922)" style="stroke:#000000; stroke-linecap:round; stroke-linejoin:round; stroke-width:4; stroke-opacity:1; fill:none" points="1758.76,1417.91 1758.76,1417.91 2238.42,1417.91 1758.76,1417.91 "/>
<circle clip-path="url(#clip922)" style="fill:#c271d2; stroke:none; fill-opacity:0" cx="628.144" cy="1177.49" r="2"/>
<circle clip-path="url(#clip922)" style="fill:#c271d2; stroke:none; fill-opacity:0" cx="1313.37" cy="1366.25" r="2"/>
<circle clip-path="url(#clip922)" style="fill:#c271d2; stroke:none; fill-opacity:0" cx="1998.59" cy="1417.91" r="2"/>
<path clip-path="url(#clip922)" d="M388.315 1177.49 L388.315 1445.72 L867.972 1445.72 L867.972 1177.49 L388.315 1177.49 L388.315 1177.49  Z" fill="#ac8d18" fill-rule="evenodd" fill-opacity="1"/>
<polyline clip-path="url(#clip922)" style="stroke:#000000; stroke-linecap:round; stroke-linejoin:round; stroke-width:4; stroke-opacity:1; fill:none" points="388.315,1177.49 388.315,1445.72 867.972,1445.72 867.972,1177.49 388.315,1177.49 "/>
<path clip-path="url(#clip922)" d="M1073.54 1425.14 L1073.54 1445.72 L1553.2 1445.72 L1553.2 1425.14 L1073.54 1425.14 L1073.54 1425.14  Z" fill="#ac8d18" fill-rule="evenodd" fill-opacity="1"/>
<polyline clip-path="url(#clip922)" style="stroke:#000000; stroke-linecap:round; stroke-linejoin:round; stroke-width:4; stroke-opacity:1; fill:none" points="1073.54,1425.14 1073.54,1445.72 1553.2,1445.72 1553.2,1425.14 1073.54,1425.14 "/>
<path clip-path="url(#clip922)" d="M1758.76 1417.91 L1758.76 1445.72 L2238.42 1445.72 L2238.42 1417.91 L1758.76 1417.91 L1758.76 1417.91  Z" fill="#ac8d18" fill-rule="evenodd" fill-opacity="1"/>
<polyline clip-path="url(#clip922)" style="stroke:#000000; stroke-linecap:round; stroke-linejoin:round; stroke-width:4; stroke-opacity:1; fill:none" points="1758.76,1417.91 1758.76,1445.72 2238.42,1445.72 2238.42,1417.91 1758.76,1417.91 "/>
<circle clip-path="url(#clip922)" style="fill:#ac8d18; stroke:none; fill-opacity:0" cx="628.144" cy="1177.49" r="2"/>
<circle clip-path="url(#clip922)" style="fill:#ac8d18; stroke:none; fill-opacity:0" cx="1313.37" cy="1425.14" r="2"/>
<circle clip-path="url(#clip922)" style="fill:#ac8d18; stroke:none; fill-opacity:0" cx="1998.59" cy="1417.91" r="2"/>
<path clip-path="url(#clip920)" d="M1906.19 406.258 L2283.46 406.258 L2283.46 95.2176 L1906.19 95.2176  Z" fill="#ffffff" fill-rule="evenodd" fill-opacity="1"/>
<polyline clip-path="url(#clip920)" style="stroke:#000000; stroke-linecap:round; stroke-linejoin:round; stroke-width:4; stroke-opacity:1; fill:none" points="1906.19,406.258 2283.46,406.258 2283.46,95.2176 1906.19,95.2176 1906.19,406.258 "/>
<path clip-path="url(#clip920)" d="M1929.29 167.794 L2067.87 167.794 L2067.87 126.322 L1929.29 126.322 L1929.29 167.794  Z" fill="#009af9" fill-rule="evenodd" fill-opacity="1"/>
<polyline clip-path="url(#clip920)" style="stroke:#000000; stroke-linecap:round; stroke-linejoin:round; stroke-width:4; stroke-opacity:1; fill:none" points="1929.29,167.794 2067.87,167.794 2067.87,126.322 1929.29,126.322 1929.29,167.794 "/>
<path clip-path="url(#clip920)" d="M2090.97 129.778 L2095.69 129.778 L2102.96 158.99 L2110.2 129.778 L2115.46 129.778 L2122.73 158.99 L2129.97 129.778 L2134.72 129.778 L2126.04 164.338 L2120.16 164.338 L2112.87 134.338 L2105.51 164.338 L2099.63 164.338 L2090.97 129.778 Z" fill="#000000" fill-rule="nonzero" fill-opacity="1" /><path clip-path="url(#clip920)" d="M2139.7 138.412 L2143.95 138.412 L2143.95 164.338 L2139.7 164.338 L2139.7 138.412 M2139.7 128.319 L2143.95 128.319 L2143.95 133.713 L2139.7 133.713 L2139.7 128.319 Z" fill="#000000" fill-rule="nonzero" fill-opacity="1" /><path clip-path="url(#clip920)" d="M2174.42 148.689 L2174.42 164.338 L2170.16 164.338 L2170.16 148.828 Q2170.16 145.148 2168.72 143.319 Q2167.29 141.49 2164.42 141.49 Q2160.97 141.49 2158.98 143.69 Q2156.99 145.889 2156.99 149.685 L2156.99 164.338 L2152.7 164.338 L2152.7 138.412 L2156.99 138.412 L2156.99 142.44 Q2158.51 140.102 2160.57 138.944 Q2162.66 137.787 2165.37 137.787 Q2169.83 137.787 2172.13 140.565 Q2174.42 143.319 2174.42 148.689 Z" fill="#000000" fill-rule="nonzero" fill-opacity="1" /><path clip-path="url(#clip920)" d="M2199.97 142.347 L2199.97 128.319 L2204.23 128.319 L2204.23 164.338 L2199.97 164.338 L2199.97 160.449 Q2198.63 162.763 2196.57 163.898 Q2194.53 165.009 2191.66 165.009 Q2186.96 165.009 2184 161.259 Q2181.06 157.509 2181.06 151.398 Q2181.06 145.287 2184 141.537 Q2186.96 137.787 2191.66 137.787 Q2194.53 137.787 2196.57 138.921 Q2198.63 140.032 2199.97 142.347 M2185.46 151.398 Q2185.46 156.097 2187.38 158.782 Q2189.32 161.444 2192.7 161.444 Q2196.08 161.444 2198.03 158.782 Q2199.97 156.097 2199.97 151.398 Q2199.97 146.699 2198.03 144.037 Q2196.08 141.352 2192.7 141.352 Q2189.32 141.352 2187.38 144.037 Q2185.46 146.699 2185.46 151.398 Z" fill="#000000" fill-rule="nonzero" fill-opacity="1" /><path clip-path="url(#clip920)" d="M1929.29 219.634 L2067.87 219.634 L2067.87 178.162 L1929.29 178.162 L1929.29 219.634  Z" fill="#e26f46" fill-rule="evenodd" fill-opacity="1"/>
<polyline clip-path="url(#clip920)" style="stroke:#000000; stroke-linecap:round; stroke-linejoin:round; stroke-width:4; stroke-opacity:1; fill:none" points="1929.29,219.634 2067.87,219.634 2067.87,178.162 1929.29,178.162 1929.29,219.634 "/>
<path clip-path="url(#clip920)" d="M2095.64 185.46 L2095.64 198.446 L2101.52 198.446 Q2104.79 198.446 2106.57 196.756 Q2108.35 195.067 2108.35 191.942 Q2108.35 188.84 2106.57 187.15 Q2104.79 185.46 2101.52 185.46 L2095.64 185.46 M2090.97 181.618 L2101.52 181.618 Q2107.33 181.618 2110.3 184.256 Q2113.28 186.872 2113.28 191.942 Q2113.28 197.057 2110.3 199.673 Q2107.33 202.289 2101.52 202.289 L2095.64 202.289 L2095.64 216.178 L2090.97 216.178 L2090.97 181.618 Z" fill="#000000" fill-rule="nonzero" fill-opacity="1" /><path clip-path="url(#clip920)" d="M2128.47 216.178 L2115.27 181.618 L2120.16 181.618 L2131.11 210.715 L2142.08 181.618 L2146.94 181.618 L2133.77 216.178 L2128.47 216.178 Z" fill="#000000" fill-rule="nonzero" fill-opacity="1" /><path clip-path="url(#clip920)" d="M1929.29 271.474 L2067.87 271.474 L2067.87 230.002 L1929.29 230.002 L1929.29 271.474  Z" fill="#3da44d" fill-rule="evenodd" fill-opacity="1"/>
<polyline clip-path="url(#clip920)" style="stroke:#000000; stroke-linecap:round; stroke-linejoin:round; stroke-width:4; stroke-opacity:1; fill:none" points="1929.29,271.474 2067.87,271.474 2067.87,230.002 1929.29,230.002 1929.29,271.474 "/>
<path clip-path="url(#clip920)" d="M2116.52 263.087 L2116.52 253.805 L2108.89 253.805 L2108.89 249.962 L2121.15 249.962 L2121.15 264.8 Q2118.45 266.721 2115.18 267.717 Q2111.92 268.689 2108.21 268.689 Q2100.11 268.689 2095.53 263.967 Q2090.97 259.221 2090.97 250.772 Q2090.97 242.3 2095.53 237.578 Q2100.11 232.833 2108.21 232.833 Q2111.59 232.833 2114.63 233.666 Q2117.68 234.499 2120.25 236.12 L2120.25 241.096 Q2117.66 238.897 2114.74 237.786 Q2111.82 236.675 2108.61 236.675 Q2102.26 236.675 2099.07 240.217 Q2095.9 243.758 2095.9 250.772 Q2095.9 257.763 2099.07 261.305 Q2102.26 264.846 2108.61 264.846 Q2111.08 264.846 2113.03 264.43 Q2114.97 263.99 2116.52 263.087 Z" fill="#000000" fill-rule="nonzero" fill-opacity="1" /><path clip-path="url(#clip920)" d="M2141.29 254.985 Q2136.13 254.985 2134.14 256.166 Q2132.15 257.346 2132.15 260.194 Q2132.15 262.462 2133.63 263.805 Q2135.14 265.124 2137.7 265.124 Q2141.25 265.124 2143.38 262.624 Q2145.53 260.101 2145.53 255.934 L2145.53 254.985 L2141.29 254.985 M2149.79 253.226 L2149.79 268.018 L2145.53 268.018 L2145.53 264.082 Q2144.07 266.443 2141.89 267.578 Q2139.72 268.689 2136.57 268.689 Q2132.59 268.689 2130.23 266.467 Q2127.89 264.221 2127.89 260.471 Q2127.89 256.096 2130.81 253.874 Q2133.75 251.652 2139.56 251.652 L2145.53 251.652 L2145.53 251.235 Q2145.53 248.295 2143.58 246.698 Q2141.66 245.078 2138.17 245.078 Q2135.95 245.078 2133.84 245.61 Q2131.73 246.143 2129.79 247.207 L2129.79 243.272 Q2132.13 242.37 2134.32 241.93 Q2136.52 241.467 2138.61 241.467 Q2144.23 241.467 2147.01 244.383 Q2149.79 247.3 2149.79 253.226 Z" fill="#000000" fill-rule="nonzero" fill-opacity="1" /><path clip-path="url(#clip920)" d="M2175.09 242.856 L2175.09 246.883 Q2173.28 245.957 2171.34 245.495 Q2169.39 245.032 2167.31 245.032 Q2164.14 245.032 2162.54 246.004 Q2160.97 246.976 2160.97 248.92 Q2160.97 250.402 2162.1 251.258 Q2163.24 252.092 2166.66 252.856 L2168.12 253.18 Q2172.66 254.152 2174.56 255.934 Q2176.48 257.694 2176.48 260.865 Q2176.48 264.476 2173.61 266.582 Q2170.76 268.689 2165.76 268.689 Q2163.68 268.689 2161.41 268.272 Q2159.16 267.879 2156.66 267.068 L2156.66 262.67 Q2159.02 263.897 2161.32 264.522 Q2163.61 265.124 2165.85 265.124 Q2168.86 265.124 2170.48 264.106 Q2172.1 263.064 2172.1 261.189 Q2172.1 259.453 2170.92 258.527 Q2169.76 257.601 2165.81 256.744 L2164.32 256.397 Q2160.37 255.564 2158.61 253.851 Q2156.85 252.115 2156.85 249.106 Q2156.85 245.448 2159.44 243.458 Q2162.03 241.467 2166.8 241.467 Q2169.16 241.467 2171.25 241.814 Q2173.33 242.161 2175.09 242.856 Z" fill="#000000" fill-rule="nonzero" fill-opacity="1" /><path clip-path="url(#clip920)" d="M1929.29 323.314 L2067.87 323.314 L2067.87 281.842 L1929.29 281.842 L1929.29 323.314  Z" fill="#c271d2" fill-rule="evenodd" fill-opacity="1"/>
<polyline clip-path="url(#clip920)" style="stroke:#000000; stroke-linecap:round; stroke-linejoin:round; stroke-width:4; stroke-opacity:1; fill:none" points="1929.29,323.314 2067.87,323.314 2067.87,281.842 1929.29,281.842 1929.29,323.314 "/>
<path clip-path="url(#clip920)" d="M2090.97 285.298 L2095.64 285.298 L2095.64 299.464 L2112.64 299.464 L2112.64 285.298 L2117.31 285.298 L2117.31 319.858 L2112.64 319.858 L2112.64 303.399 L2095.64 303.399 L2095.64 319.858 L2090.97 319.858 L2090.97 285.298 Z" fill="#000000" fill-rule="nonzero" fill-opacity="1" /><path clip-path="url(#clip920)" d="M2137.22 322.265 Q2135.41 326.895 2133.7 328.307 Q2131.99 329.719 2129.12 329.719 L2125.71 329.719 L2125.71 326.154 L2128.21 326.154 Q2129.97 326.154 2130.95 325.32 Q2131.92 324.487 2133.1 321.385 L2133.86 319.441 L2123.38 293.932 L2127.89 293.932 L2135.99 314.209 L2144.09 293.932 L2148.61 293.932 L2137.22 322.265 Z" fill="#000000" fill-rule="nonzero" fill-opacity="1" /><path clip-path="url(#clip920)" d="M2171.55 297.867 L2171.55 283.839 L2175.81 283.839 L2175.81 319.858 L2171.55 319.858 L2171.55 315.969 Q2170.2 318.283 2168.14 319.418 Q2166.11 320.529 2163.24 320.529 Q2158.54 320.529 2155.57 316.779 Q2152.63 313.029 2152.63 306.918 Q2152.63 300.807 2155.57 297.057 Q2158.54 293.307 2163.24 293.307 Q2166.11 293.307 2168.14 294.441 Q2170.2 295.552 2171.55 297.867 M2157.03 306.918 Q2157.03 311.617 2158.95 314.302 Q2160.9 316.964 2164.28 316.964 Q2167.66 316.964 2169.6 314.302 Q2171.55 311.617 2171.55 306.918 Q2171.55 302.219 2169.6 299.557 Q2167.66 296.872 2164.28 296.872 Q2160.9 296.872 2158.95 299.557 Q2157.03 302.219 2157.03 306.918 Z" fill="#000000" fill-rule="nonzero" fill-opacity="1" /><path clip-path="url(#clip920)" d="M2199.6 297.913 Q2198.88 297.497 2198.03 297.311 Q2197.19 297.103 2196.18 297.103 Q2192.57 297.103 2190.62 299.464 Q2188.7 301.802 2188.7 306.2 L2188.7 319.858 L2184.42 319.858 L2184.42 293.932 L2188.7 293.932 L2188.7 297.96 Q2190.04 295.598 2192.19 294.464 Q2194.35 293.307 2197.43 293.307 Q2197.87 293.307 2198.4 293.376 Q2198.93 293.423 2199.58 293.538 L2199.6 297.913 Z" fill="#000000" fill-rule="nonzero" fill-opacity="1" /><path clip-path="url(#clip920)" d="M2213.07 296.918 Q2209.65 296.918 2207.66 299.603 Q2205.67 302.265 2205.67 306.918 Q2205.67 311.571 2207.63 314.256 Q2209.63 316.918 2213.07 316.918 Q2216.48 316.918 2218.47 314.233 Q2220.46 311.547 2220.46 306.918 Q2220.46 302.311 2218.47 299.626 Q2216.48 296.918 2213.07 296.918 M2213.07 293.307 Q2218.63 293.307 2221.8 296.918 Q2224.97 300.529 2224.97 306.918 Q2224.97 313.284 2221.8 316.918 Q2218.63 320.529 2213.07 320.529 Q2207.5 320.529 2204.32 316.918 Q2201.18 313.284 2201.18 306.918 Q2201.18 300.529 2204.32 296.918 Q2207.5 293.307 2213.07 293.307 Z" fill="#000000" fill-rule="nonzero" fill-opacity="1" /><path clip-path="url(#clip920)" d="M1929.29 375.154 L2067.87 375.154 L2067.87 333.682 L1929.29 333.682 L1929.29 375.154  Z" fill="#ac8d18" fill-rule="evenodd" fill-opacity="1"/>
<polyline clip-path="url(#clip920)" style="stroke:#000000; stroke-linecap:round; stroke-linejoin:round; stroke-width:4; stroke-opacity:1; fill:none" points="1929.29,375.154 2067.87,375.154 2067.87,333.682 1929.29,333.682 1929.29,375.154 "/>
<path clip-path="url(#clip920)" d="M2095.64 355.193 L2095.64 367.855 L2103.14 367.855 Q2106.92 367.855 2108.72 366.304 Q2110.55 364.73 2110.55 361.512 Q2110.55 358.272 2108.72 356.744 Q2106.92 355.193 2103.14 355.193 L2095.64 355.193 M2095.64 340.98 L2095.64 351.397 L2102.57 351.397 Q2105.99 351.397 2107.66 350.124 Q2109.35 348.827 2109.35 346.188 Q2109.35 343.573 2107.66 342.276 Q2105.99 340.98 2102.57 340.98 L2095.64 340.98 M2090.97 337.138 L2102.91 337.138 Q2108.26 337.138 2111.15 339.36 Q2114.05 341.582 2114.05 345.679 Q2114.05 348.85 2112.57 350.725 Q2111.08 352.6 2108.21 353.063 Q2111.66 353.804 2113.56 356.165 Q2115.48 358.503 2115.48 362.022 Q2115.48 366.651 2112.33 369.174 Q2109.19 371.698 2103.38 371.698 L2090.97 371.698 L2090.97 337.138 Z" fill="#000000" fill-rule="nonzero" fill-opacity="1" /><path clip-path="url(#clip920)" d="M2135.09 358.665 Q2129.93 358.665 2127.94 359.846 Q2125.95 361.026 2125.95 363.874 Q2125.95 366.142 2127.43 367.485 Q2128.93 368.804 2131.5 368.804 Q2135.04 368.804 2137.17 366.304 Q2139.32 363.781 2139.32 359.614 L2139.32 358.665 L2135.09 358.665 M2143.58 356.906 L2143.58 371.698 L2139.32 371.698 L2139.32 367.762 Q2137.87 370.123 2135.69 371.258 Q2133.51 372.369 2130.37 372.369 Q2126.39 372.369 2124.02 370.147 Q2121.69 367.901 2121.69 364.151 Q2121.69 359.776 2124.6 357.554 Q2127.54 355.332 2133.35 355.332 L2139.32 355.332 L2139.32 354.915 Q2139.32 351.975 2137.38 350.378 Q2135.46 348.758 2131.96 348.758 Q2129.74 348.758 2127.64 349.29 Q2125.53 349.823 2123.58 350.887 L2123.58 346.952 Q2125.92 346.05 2128.12 345.61 Q2130.32 345.147 2132.4 345.147 Q2138.03 345.147 2140.81 348.063 Q2143.58 350.98 2143.58 356.906 Z" fill="#000000" fill-rule="nonzero" fill-opacity="1" /><path clip-path="url(#clip920)" d="M2156.57 338.411 L2156.57 345.772 L2165.34 345.772 L2165.34 349.082 L2156.57 349.082 L2156.57 363.156 Q2156.57 366.327 2157.43 367.23 Q2158.31 368.133 2160.97 368.133 L2165.34 368.133 L2165.34 371.698 L2160.97 371.698 Q2156.04 371.698 2154.16 369.869 Q2152.29 368.017 2152.29 363.156 L2152.29 349.082 L2149.16 349.082 L2149.16 345.772 L2152.29 345.772 L2152.29 338.411 L2156.57 338.411 Z" fill="#000000" fill-rule="nonzero" fill-opacity="1" /><path clip-path="url(#clip920)" d="M2175.16 338.411 L2175.16 345.772 L2183.93 345.772 L2183.93 349.082 L2175.16 349.082 L2175.16 363.156 Q2175.16 366.327 2176.01 367.23 Q2176.89 368.133 2179.56 368.133 L2183.93 368.133 L2183.93 371.698 L2179.56 371.698 Q2174.63 371.698 2172.75 369.869 Q2170.88 368.017 2170.88 363.156 L2170.88 349.082 L2167.75 349.082 L2167.75 345.772 L2170.88 345.772 L2170.88 338.411 L2175.16 338.411 Z" fill="#000000" fill-rule="nonzero" fill-opacity="1" /><path clip-path="url(#clip920)" d="M2211.71 357.67 L2211.71 359.753 L2192.13 359.753 Q2192.4 364.151 2194.76 366.466 Q2197.15 368.758 2201.38 368.758 Q2203.84 368.758 2206.13 368.156 Q2208.44 367.554 2210.71 366.35 L2210.71 370.378 Q2208.42 371.35 2206.01 371.86 Q2203.61 372.369 2201.13 372.369 Q2194.93 372.369 2191.29 368.758 Q2187.68 365.147 2187.68 358.989 Q2187.68 352.624 2191.11 348.897 Q2194.56 345.147 2200.39 345.147 Q2205.62 345.147 2208.65 348.526 Q2211.71 351.883 2211.71 357.67 M2207.45 356.42 Q2207.4 352.925 2205.48 350.841 Q2203.58 348.758 2200.44 348.758 Q2196.87 348.758 2194.72 350.772 Q2192.59 352.786 2192.26 356.443 L2207.45 356.42 Z" fill="#000000" fill-rule="nonzero" fill-opacity="1" /><path clip-path="url(#clip920)" d="M2233.72 349.753 Q2233 349.337 2232.15 349.151 Q2231.32 348.943 2230.3 348.943 Q2226.69 348.943 2224.74 351.304 Q2222.82 353.642 2222.82 358.04 L2222.82 371.698 L2218.54 371.698 L2218.54 345.772 L2222.82 345.772 L2222.82 349.8 Q2224.16 347.438 2226.32 346.304 Q2228.47 345.147 2231.55 345.147 Q2231.99 345.147 2232.52 345.216 Q2233.05 345.263 2233.7 345.378 L2233.72 349.753 Z" fill="#000000" fill-rule="nonzero" fill-opacity="1" /><path clip-path="url(#clip920)" d="M2248.98 374.105 Q2247.17 378.735 2245.46 380.147 Q2243.75 381.559 2240.88 381.559 L2237.47 381.559 L2237.47 377.994 L2239.97 377.994 Q2241.73 377.994 2242.7 377.16 Q2243.68 376.327 2244.86 373.225 L2245.62 371.281 L2235.13 345.772 L2239.65 345.772 L2247.75 366.049 L2255.85 345.772 L2260.37 345.772 L2248.98 374.105 Z" fill="#000000" fill-rule="nonzero" fill-opacity="1" /></svg>
