<?xml version="1.0" encoding="utf-8"?>
<svg xmlns="http://www.w3.org/2000/svg" xmlns:xlink="http://www.w3.org/1999/xlink" width="600" height="400" viewBox="0 0 2400 1600">
<defs>
  <clipPath id="clip460">
    <rect x="0" y="0" width="2400" height="1600"/>
  </clipPath>
</defs>
<path clip-path="url(#clip460)" d="M0 1600 L2400 1600 L2400 0 L0 0  Z" fill="#ffffff" fill-rule="evenodd" fill-opacity="1"/>
<defs>
  <clipPath id="clip461">
    <rect x="480" y="0" width="1681" height="1600"/>
  </clipPath>
</defs>
<path clip-path="url(#clip460)" d="M273.979 1486.45 L2352.76 1486.45 L2352.76 47.2441 L273.979 47.2441  Z" fill="#ffffff" fill-rule="evenodd" fill-opacity="1"/>
<defs>
  <clipPath id="clip462">
    <rect x="273" y="47" width="2080" height="1440"/>
  </clipPath>
</defs>
<polyline clip-path="url(#clip462)" style="stroke:#000000; stroke-linecap:round; stroke-linejoin:round; stroke-width:2; stroke-opacity:0.1; fill:none" points="628.144,1486.45 628.144,47.2441 "/>
<polyline clip-path="url(#clip462)" style="stroke:#000000; stroke-linecap:round; stroke-linejoin:round; stroke-width:2; stroke-opacity:0.1; fill:none" points="1313.37,1486.45 1313.37,47.2441 "/>
<polyline clip-path="url(#clip462)" style="stroke:#000000; stroke-linecap:round; stroke-linejoin:round; stroke-width:2; stroke-opacity:0.1; fill:none" points="1998.59,1486.45 1998.59,47.2441 "/>
<polyline clip-path="url(#clip460)" style="stroke:#000000; stroke-linecap:round; stroke-linejoin:round; stroke-width:4; stroke-opacity:1; fill:none" points="273.979,1486.45 2352.76,1486.45 "/>
<polyline clip-path="url(#clip460)" style="stroke:#000000; stroke-linecap:round; stroke-linejoin:round; stroke-width:4; stroke-opacity:1; fill:none" points="628.144,1486.45 628.144,1467.55 "/>
<polyline clip-path="url(#clip460)" style="stroke:#000000; stroke-linecap:round; stroke-linejoin:round; stroke-width:4; stroke-opacity:1; fill:none" points="1313.37,1486.45 1313.37,1467.55 "/>
<polyline clip-path="url(#clip460)" style="stroke:#000000; stroke-linecap:round; stroke-linejoin:round; stroke-width:4; stroke-opacity:1; fill:none" points="1998.59,1486.45 1998.59,1467.55 "/>
<path clip-path="url(#clip460)" d="M560.297 1515.42 L560.297 1519.98 Q557.635 1518.71 555.274 1518.08 Q552.913 1517.46 550.714 1517.46 Q546.894 1517.46 544.811 1518.94 Q542.751 1520.42 542.751 1523.15 Q542.751 1525.45 544.116 1526.63 Q545.505 1527.78 549.348 1528.5 L552.172 1529.08 Q557.403 1530.07 559.88 1532.6 Q562.38 1535.1 562.38 1539.31 Q562.38 1544.33 559.001 1546.93 Q555.644 1549.52 549.14 1549.52 Q546.686 1549.52 543.908 1548.96 Q541.153 1548.41 538.19 1547.32 L538.19 1542.51 Q541.038 1544.1 543.769 1544.91 Q546.501 1545.72 549.14 1545.72 Q553.144 1545.72 555.32 1544.15 Q557.496 1542.57 557.496 1539.66 Q557.496 1537.11 555.922 1535.68 Q554.371 1534.24 550.806 1533.52 L547.959 1532.97 Q542.727 1531.93 540.39 1529.7 Q538.052 1527.48 538.052 1523.52 Q538.052 1518.94 541.269 1516.3 Q544.51 1513.66 550.181 1513.66 Q552.612 1513.66 555.135 1514.1 Q557.658 1514.54 560.297 1515.42 Z" fill="#000000" fill-rule="nonzero" fill-opacity="1" /><path clip-path="url(#clip460)" d="M567.01 1522.92 L571.269 1522.92 L576.593 1543.15 L581.894 1522.92 L586.917 1522.92 L592.241 1543.15 L597.542 1522.92 L601.801 1522.92 L595.019 1548.85 L589.996 1548.85 L584.417 1527.6 L578.815 1548.85 L573.792 1548.85 L567.01 1522.92 Z" fill="#000000" fill-rule="nonzero" fill-opacity="1" /><path clip-path="url(#clip460)" d="M630.435 1534.82 L630.435 1536.9 L610.852 1536.9 Q611.13 1541.3 613.491 1543.62 Q615.875 1545.91 620.111 1545.91 Q622.565 1545.91 624.857 1545.31 Q627.171 1544.7 629.44 1543.5 L629.44 1547.53 Q627.148 1548.5 624.741 1549.01 Q622.334 1549.52 619.857 1549.52 Q613.653 1549.52 610.019 1545.91 Q606.408 1542.3 606.408 1536.14 Q606.408 1529.77 609.834 1526.05 Q613.283 1522.3 619.116 1522.3 Q624.347 1522.3 627.38 1525.68 Q630.435 1529.03 630.435 1534.82 M626.176 1533.57 Q626.13 1530.07 624.209 1527.99 Q622.31 1525.91 619.162 1525.91 Q615.597 1525.91 613.445 1527.92 Q611.315 1529.94 610.991 1533.59 L626.176 1533.57 Z" fill="#000000" fill-rule="nonzero" fill-opacity="1" /><path clip-path="url(#clip460)" d="M654.486 1526.86 L654.486 1512.83 L658.745 1512.83 L658.745 1548.85 L654.486 1548.85 L654.486 1544.96 Q653.144 1547.27 651.083 1548.41 Q649.046 1549.52 646.176 1549.52 Q641.477 1549.52 638.514 1545.77 Q635.574 1542.02 635.574 1535.91 Q635.574 1529.8 638.514 1526.05 Q641.477 1522.3 646.176 1522.3 Q649.046 1522.3 651.083 1523.43 Q653.144 1524.54 654.486 1526.86 M639.972 1535.91 Q639.972 1540.61 641.894 1543.29 Q643.838 1545.95 647.218 1545.95 Q650.597 1545.95 652.542 1543.29 Q654.486 1540.61 654.486 1535.91 Q654.486 1531.21 652.542 1528.55 Q650.597 1525.86 647.218 1525.86 Q643.838 1525.86 641.894 1528.55 Q639.972 1531.21 639.972 1535.91 Z" fill="#000000" fill-rule="nonzero" fill-opacity="1" /><path clip-path="url(#clip460)" d="M689.694 1534.82 L689.694 1536.9 L670.111 1536.9 Q670.389 1541.3 672.75 1543.62 Q675.134 1545.91 679.37 1545.91 Q681.824 1545.91 684.116 1545.31 Q686.43 1544.7 688.699 1543.5 L688.699 1547.53 Q686.407 1548.5 684 1549.01 Q681.592 1549.52 679.116 1549.52 Q672.912 1549.52 669.278 1545.91 Q665.667 1542.3 665.667 1536.14 Q665.667 1529.77 669.093 1526.05 Q672.542 1522.3 678.375 1522.3 Q683.606 1522.3 686.639 1525.68 Q689.694 1529.03 689.694 1534.82 M685.435 1533.57 Q685.389 1530.07 683.467 1527.99 Q681.569 1525.91 678.421 1525.91 Q674.856 1525.91 672.704 1527.92 Q670.574 1529.94 670.25 1533.59 L685.435 1533.57 Z" fill="#000000" fill-rule="nonzero" fill-opacity="1" /><path clip-path="url(#clip460)" d="M718.236 1533.2 L718.236 1548.85 L713.977 1548.85 L713.977 1533.34 Q713.977 1529.66 712.541 1527.83 Q711.106 1526 708.236 1526 Q704.787 1526 702.796 1528.2 Q700.805 1530.4 700.805 1534.2 L700.805 1548.85 L696.523 1548.85 L696.523 1522.92 L700.805 1522.92 L700.805 1526.95 Q702.333 1524.61 704.393 1523.45 Q706.477 1522.3 709.185 1522.3 Q713.653 1522.3 715.944 1525.07 Q718.236 1527.83 718.236 1533.2 Z" fill="#000000" fill-rule="nonzero" fill-opacity="1" /><path clip-path="url(#clip460)" d="M1232.01 1543.92 L1232.01 1534.63 L1224.37 1534.63 L1224.37 1530.79 L1236.64 1530.79 L1236.64 1545.63 Q1233.93 1547.55 1230.67 1548.55 Q1227.41 1549.52 1223.7 1549.52 Q1215.6 1549.52 1211.02 1544.8 Q1206.46 1540.05 1206.46 1531.6 Q1206.46 1523.13 1211.02 1518.41 Q1215.6 1513.66 1223.7 1513.66 Q1227.08 1513.66 1230.12 1514.5 Q1233.17 1515.33 1235.74 1516.95 L1235.74 1521.93 Q1233.15 1519.73 1230.23 1518.62 Q1227.31 1517.51 1224.1 1517.51 Q1217.75 1517.51 1214.56 1521.05 Q1211.39 1524.59 1211.39 1531.6 Q1211.39 1538.59 1214.56 1542.13 Q1217.75 1545.68 1224.1 1545.68 Q1226.57 1545.68 1228.52 1545.26 Q1230.46 1544.82 1232.01 1543.92 Z" fill="#000000" fill-rule="nonzero" fill-opacity="1" /><path clip-path="url(#clip460)" d="M1267.18 1534.82 L1267.18 1536.9 L1247.59 1536.9 Q1247.87 1541.3 1250.23 1543.62 Q1252.62 1545.91 1256.85 1545.91 Q1259.31 1545.91 1261.6 1545.31 Q1263.91 1544.7 1266.18 1543.5 L1266.18 1547.53 Q1263.89 1548.5 1261.48 1549.01 Q1259.07 1549.52 1256.6 1549.52 Q1250.39 1549.52 1246.76 1545.91 Q1243.15 1542.3 1243.15 1536.14 Q1243.15 1529.77 1246.57 1526.05 Q1250.02 1522.3 1255.86 1522.3 Q1261.09 1522.3 1264.12 1525.68 Q1267.18 1529.03 1267.18 1534.82 M1262.92 1533.57 Q1262.87 1530.07 1260.95 1527.99 Q1259.05 1525.91 1255.9 1525.91 Q1252.34 1525.91 1250.18 1527.92 Q1248.06 1529.94 1247.73 1533.59 L1262.92 1533.57 Z" fill="#000000" fill-rule="nonzero" fill-opacity="1" /><path clip-path="url(#clip460)" d="M1289.19 1526.9 Q1288.47 1526.49 1287.62 1526.3 Q1286.78 1526.09 1285.76 1526.09 Q1282.15 1526.09 1280.21 1528.45 Q1278.29 1530.79 1278.29 1535.19 L1278.29 1548.85 L1274 1548.85 L1274 1522.92 L1278.29 1522.92 L1278.29 1526.95 Q1279.63 1524.59 1281.78 1523.45 Q1283.93 1522.3 1287.01 1522.3 Q1287.45 1522.3 1287.99 1522.37 Q1288.52 1522.41 1289.17 1522.53 L1289.19 1526.9 Z" fill="#000000" fill-rule="nonzero" fill-opacity="1" /><path clip-path="url(#clip460)" d="M1313.01 1527.9 Q1314.61 1525.03 1316.83 1523.66 Q1319.05 1522.3 1322.06 1522.3 Q1326.11 1522.3 1328.31 1525.14 Q1330.51 1527.97 1330.51 1533.2 L1330.51 1548.85 L1326.23 1548.85 L1326.23 1533.34 Q1326.23 1529.61 1324.91 1527.81 Q1323.59 1526 1320.88 1526 Q1317.57 1526 1315.65 1528.2 Q1313.73 1530.4 1313.73 1534.2 L1313.73 1548.85 L1309.44 1548.85 L1309.44 1533.34 Q1309.44 1529.59 1308.12 1527.81 Q1306.8 1526 1304.05 1526 Q1300.79 1526 1298.87 1528.22 Q1296.94 1530.42 1296.94 1534.2 L1296.94 1548.85 L1292.66 1548.85 L1292.66 1522.92 L1296.94 1522.92 L1296.94 1526.95 Q1298.4 1524.57 1300.44 1523.43 Q1302.48 1522.3 1305.28 1522.3 Q1308.1 1522.3 1310.07 1523.73 Q1312.06 1525.17 1313.01 1527.9 Z" fill="#000000" fill-rule="nonzero" fill-opacity="1" /><path clip-path="url(#clip460)" d="M1350.79 1535.82 Q1345.62 1535.82 1343.63 1537 Q1341.64 1538.18 1341.64 1541.02 Q1341.64 1543.29 1343.12 1544.63 Q1344.63 1545.95 1347.2 1545.95 Q1350.74 1545.95 1352.87 1543.45 Q1355.02 1540.93 1355.02 1536.76 L1355.02 1535.82 L1350.79 1535.82 M1359.28 1534.06 L1359.28 1548.85 L1355.02 1548.85 L1355.02 1544.91 Q1353.56 1547.27 1351.39 1548.41 Q1349.21 1549.52 1346.06 1549.52 Q1342.08 1549.52 1339.72 1547.3 Q1337.38 1545.05 1337.38 1541.3 Q1337.38 1536.93 1340.3 1534.7 Q1343.24 1532.48 1349.05 1532.48 L1355.02 1532.48 L1355.02 1532.07 Q1355.02 1529.13 1353.08 1527.53 Q1351.16 1525.91 1347.66 1525.91 Q1345.44 1525.91 1343.33 1526.44 Q1341.23 1526.97 1339.28 1528.04 L1339.28 1524.1 Q1341.62 1523.2 1343.82 1522.76 Q1346.02 1522.3 1348.1 1522.3 Q1353.73 1522.3 1356.5 1525.21 Q1359.28 1528.13 1359.28 1534.06 Z" fill="#000000" fill-rule="nonzero" fill-opacity="1" /><path clip-path="url(#clip460)" d="M1389.61 1533.2 L1389.61 1548.85 L1385.35 1548.85 L1385.35 1533.34 Q1385.35 1529.66 1383.91 1527.83 Q1382.48 1526 1379.61 1526 Q1376.16 1526 1374.17 1528.2 Q1372.17 1530.4 1372.17 1534.2 L1372.17 1548.85 L1367.89 1548.85 L1367.89 1522.92 L1372.17 1522.92 L1372.17 1526.95 Q1373.7 1524.61 1375.76 1523.45 Q1377.85 1522.3 1380.55 1522.3 Q1385.02 1522.3 1387.31 1525.07 Q1389.61 1527.83 1389.61 1533.2 Z" fill="#000000" fill-rule="nonzero" fill-opacity="1" /><path clip-path="url(#clip460)" d="M1408.89 1551.26 Q1407.08 1555.88 1405.37 1557.3 Q1403.66 1558.71 1400.79 1558.71 L1397.38 1558.71 L1397.38 1555.14 L1399.88 1555.14 Q1401.64 1555.14 1402.61 1554.31 Q1403.59 1553.48 1404.77 1550.38 L1405.53 1548.43 L1395.05 1522.92 L1399.56 1522.92 L1407.66 1543.2 L1415.76 1522.92 L1420.28 1522.92 L1408.89 1551.26 Z" fill="#000000" fill-rule="nonzero" fill-opacity="1" /><path clip-path="url(#clip460)" d="M1896.72 1518.13 L1896.72 1545.01 L1902.36 1545.01 Q1909.52 1545.01 1912.83 1541.76 Q1916.16 1538.52 1916.16 1531.53 Q1916.16 1524.59 1912.83 1521.37 Q1909.52 1518.13 1902.36 1518.13 L1896.72 1518.13 M1892.04 1514.29 L1901.65 1514.29 Q1911.69 1514.29 1916.39 1518.48 Q1921.09 1522.64 1921.09 1531.53 Q1921.09 1540.47 1916.37 1544.66 Q1911.65 1548.85 1901.65 1548.85 L1892.04 1548.85 L1892.04 1514.29 Z" fill="#000000" fill-rule="nonzero" fill-opacity="1" /><path clip-path="url(#clip460)" d="M1950.54 1534.82 L1950.54 1536.9 L1930.95 1536.9 Q1931.23 1541.3 1933.59 1543.62 Q1935.98 1545.91 1940.21 1545.91 Q1942.67 1545.91 1944.96 1545.31 Q1947.27 1544.7 1949.54 1543.5 L1949.54 1547.53 Q1947.25 1548.5 1944.84 1549.01 Q1942.43 1549.52 1939.96 1549.52 Q1933.75 1549.52 1930.12 1545.91 Q1926.51 1542.3 1926.51 1536.14 Q1926.51 1529.77 1929.93 1526.05 Q1933.38 1522.3 1939.22 1522.3 Q1944.45 1522.3 1947.48 1525.68 Q1950.54 1529.03 1950.54 1534.82 M1946.28 1533.57 Q1946.23 1530.07 1944.31 1527.99 Q1942.41 1525.91 1939.26 1525.91 Q1935.7 1525.91 1933.55 1527.92 Q1931.42 1529.94 1931.09 1533.59 L1946.28 1533.57 Z" fill="#000000" fill-rule="nonzero" fill-opacity="1" /><path clip-path="url(#clip460)" d="M1979.08 1533.2 L1979.08 1548.85 L1974.82 1548.85 L1974.82 1533.34 Q1974.82 1529.66 1973.38 1527.83 Q1971.95 1526 1969.08 1526 Q1965.63 1526 1963.64 1528.2 Q1961.65 1530.4 1961.65 1534.2 L1961.65 1548.85 L1957.36 1548.85 L1957.36 1522.92 L1961.65 1522.92 L1961.65 1526.95 Q1963.17 1524.61 1965.23 1523.45 Q1967.32 1522.3 1970.03 1522.3 Q1974.49 1522.3 1976.79 1525.07 Q1979.08 1527.83 1979.08 1533.2 Z" fill="#000000" fill-rule="nonzero" fill-opacity="1" /><path clip-path="url(#clip460)" d="M2007.76 1527.9 Q2009.35 1525.03 2011.58 1523.66 Q2013.8 1522.3 2016.81 1522.3 Q2020.86 1522.3 2023.06 1525.14 Q2025.26 1527.97 2025.26 1533.2 L2025.26 1548.85 L2020.98 1548.85 L2020.98 1533.34 Q2020.98 1529.61 2019.66 1527.81 Q2018.34 1526 2015.63 1526 Q2012.32 1526 2010.4 1528.2 Q2008.48 1530.4 2008.48 1534.2 L2008.48 1548.85 L2004.19 1548.85 L2004.19 1533.34 Q2004.19 1529.59 2002.87 1527.81 Q2001.55 1526 1998.8 1526 Q1995.54 1526 1993.61 1528.22 Q1991.69 1530.42 1991.69 1534.2 L1991.69 1548.85 L1987.41 1548.85 L1987.41 1522.92 L1991.69 1522.92 L1991.69 1526.95 Q1993.15 1524.57 1995.19 1523.43 Q1997.23 1522.3 2000.03 1522.3 Q2002.85 1522.3 2004.82 1523.73 Q2006.81 1525.17 2007.76 1527.9 Z" fill="#000000" fill-rule="nonzero" fill-opacity="1" /><path clip-path="url(#clip460)" d="M2045.54 1535.82 Q2040.37 1535.82 2038.38 1537 Q2036.39 1538.18 2036.39 1541.02 Q2036.39 1543.29 2037.87 1544.63 Q2039.38 1545.95 2041.95 1545.95 Q2045.49 1545.95 2047.62 1543.45 Q2049.77 1540.93 2049.77 1536.76 L2049.77 1535.82 L2045.54 1535.82 M2054.03 1534.06 L2054.03 1548.85 L2049.77 1548.85 L2049.77 1544.91 Q2048.31 1547.27 2046.14 1548.41 Q2043.96 1549.52 2040.81 1549.52 Q2036.83 1549.52 2034.47 1547.3 Q2032.13 1545.05 2032.13 1541.3 Q2032.13 1536.93 2035.05 1534.7 Q2037.99 1532.48 2043.8 1532.48 L2049.77 1532.48 L2049.77 1532.07 Q2049.77 1529.13 2047.83 1527.53 Q2045.91 1525.91 2042.41 1525.91 Q2040.19 1525.91 2038.08 1526.44 Q2035.98 1526.97 2034.03 1528.04 L2034.03 1524.1 Q2036.37 1523.2 2038.57 1522.76 Q2040.77 1522.3 2042.85 1522.3 Q2048.48 1522.3 2051.25 1525.21 Q2054.03 1528.13 2054.03 1534.06 Z" fill="#000000" fill-rule="nonzero" fill-opacity="1" /><path clip-path="url(#clip460)" d="M2077.83 1526.9 Q2077.11 1526.49 2076.25 1526.3 Q2075.42 1526.09 2074.4 1526.09 Q2070.79 1526.09 2068.85 1528.45 Q2066.92 1530.79 2066.92 1535.19 L2066.92 1548.85 L2062.64 1548.85 L2062.64 1522.92 L2066.92 1522.92 L2066.92 1526.95 Q2068.27 1524.59 2070.42 1523.45 Q2072.57 1522.3 2075.65 1522.3 Q2076.09 1522.3 2076.62 1522.37 Q2077.16 1522.41 2077.8 1522.53 L2077.83 1526.9 Z" fill="#000000" fill-rule="nonzero" fill-opacity="1" /><path clip-path="url(#clip460)" d="M2082.13 1512.83 L2086.41 1512.83 L2086.41 1534.1 L2099.12 1522.92 L2104.56 1522.92 L2090.81 1535.05 L2105.14 1548.85 L2099.59 1548.85 L2086.41 1536.19 L2086.41 1548.85 L2082.13 1548.85 L2082.13 1512.83 Z" fill="#000000" fill-rule="nonzero" fill-opacity="1" /><polyline clip-path="url(#clip462)" style="stroke:#000000; stroke-linecap:round; stroke-linejoin:round; stroke-width:2; stroke-opacity:0.1; fill:none" points="273.979,1445.72 2352.76,1445.72 "/>
<polyline clip-path="url(#clip462)" style="stroke:#000000; stroke-linecap:round; stroke-linejoin:round; stroke-width:2; stroke-opacity:0.1; fill:none" points="273.979,1024.11 2352.76,1024.11 "/>
<polyline clip-path="url(#clip462)" style="stroke:#000000; stroke-linecap:round; stroke-linejoin:round; stroke-width:2; stroke-opacity:0.1; fill:none" points="273.979,602.503 2352.76,602.503 "/>
<polyline clip-path="url(#clip462)" style="stroke:#000000; stroke-linecap:round; stroke-linejoin:round; stroke-width:2; stroke-opacity:0.1; fill:none" points="273.979,180.897 2352.76,180.897 "/>
<polyline clip-path="url(#clip460)" style="stroke:#000000; stroke-linecap:round; stroke-linejoin:round; stroke-width:4; stroke-opacity:1; fill:none" points="273.979,1486.45 273.979,47.2441 "/>
<polyline clip-path="url(#clip460)" style="stroke:#000000; stroke-linecap:round; stroke-linejoin:round; stroke-width:4; stroke-opacity:1; fill:none" points="273.979,1445.72 292.877,1445.72 "/>
<polyline clip-path="url(#clip460)" style="stroke:#000000; stroke-linecap:round; stroke-linejoin:round; stroke-width:4; stroke-opacity:1; fill:none" points="273.979,1024.11 292.877,1024.11 "/>
<polyline clip-path="url(#clip460)" style="stroke:#000000; stroke-linecap:round; stroke-linejoin:round; stroke-width:4; stroke-opacity:1; fill:none" points="273.979,602.503 292.877,602.503 "/>
<polyline clip-path="url(#clip460)" style="stroke:#000000; stroke-linecap:round; stroke-linejoin:round; stroke-width:4; stroke-opacity:1; fill:none" points="273.979,180.897 292.877,180.897 "/>
<path clip-path="url(#clip460)" d="M226.035 1431.51 Q222.423 1431.51 220.595 1435.08 Q218.789 1438.62 218.789 1445.75 Q218.789 1452.86 220.595 1456.42 Q222.423 1459.96 226.035 1459.96 Q229.669 1459.96 231.474 1456.42 Q233.303 1452.86 233.303 1445.75 Q233.303 1438.62 231.474 1435.08 Q229.669 1431.51 226.035 1431.51 M226.035 1427.81 Q231.845 1427.81 234.9 1432.42 Q237.979 1437 237.979 1445.75 Q237.979 1454.48 234.9 1459.08 Q231.845 1463.67 226.035 1463.67 Q220.224 1463.67 217.146 1459.08 Q214.09 1454.48 214.09 1445.75 Q214.09 1437 217.146 1432.42 Q220.224 1427.81 226.035 1427.81 Z" fill="#000000" fill-rule="nonzero" fill-opacity="1" /><path clip-path="url(#clip460)" d="M53.3995 1043.9 L61.0384 1043.9 L61.0384 1017.54 L52.7282 1019.2 L52.7282 1014.94 L60.9921 1013.28 L65.668 1013.28 L65.668 1043.9 L73.3068 1043.9 L73.3068 1047.84 L53.3995 1047.84 L53.3995 1043.9 Z" fill="#000000" fill-rule="nonzero" fill-opacity="1" /><path clip-path="url(#clip460)" d="M82.7512 1041.96 L87.6354 1041.96 L87.6354 1047.84 L82.7512 1047.84 L82.7512 1041.96 Z" fill="#000000" fill-rule="nonzero" fill-opacity="1" /><path clip-path="url(#clip460)" d="M107.821 1016.36 Q104.209 1016.36 102.381 1019.92 Q100.575 1023.46 100.575 1030.59 Q100.575 1037.7 102.381 1041.26 Q104.209 1044.8 107.821 1044.8 Q111.455 1044.8 113.26 1041.26 Q115.089 1037.7 115.089 1030.59 Q115.089 1023.46 113.26 1019.92 Q111.455 1016.36 107.821 1016.36 M107.821 1012.65 Q113.631 1012.65 116.686 1017.26 Q119.765 1021.84 119.765 1030.59 Q119.765 1039.32 116.686 1043.93 Q113.631 1048.51 107.821 1048.51 Q102.01 1048.51 98.9317 1043.93 Q95.8761 1039.32 95.8761 1030.59 Q95.8761 1021.84 98.9317 1017.26 Q102.01 1012.65 107.821 1012.65 Z" fill="#000000" fill-rule="nonzero" fill-opacity="1" /><path clip-path="url(#clip460)" d="M156.154 1022.37 L145.575 1033 L156.154 1043.58 L153.399 1046.38 L142.774 1035.75 L132.149 1046.38 L129.418 1043.58 L139.973 1033 L129.418 1022.37 L132.149 1019.57 L142.774 1030.2 L153.399 1019.57 L156.154 1022.37 Z" fill="#000000" fill-rule="nonzero" fill-opacity="1" /><path clip-path="url(#clip460)" d="M168.515 1043.9 L176.153 1043.9 L176.153 1017.54 L167.843 1019.2 L167.843 1014.94 L176.107 1013.28 L180.783 1013.28 L180.783 1043.9 L188.422 1043.9 L188.422 1047.84 L168.515 1047.84 L168.515 1043.9 Z" fill="#000000" fill-rule="nonzero" fill-opacity="1" /><path clip-path="url(#clip460)" d="M207.866 1016.36 Q204.255 1016.36 202.426 1019.92 Q200.621 1023.46 200.621 1030.59 Q200.621 1037.7 202.426 1041.26 Q204.255 1044.8 207.866 1044.8 Q211.501 1044.8 213.306 1041.26 Q215.135 1037.7 215.135 1030.59 Q215.135 1023.46 213.306 1019.92 Q211.501 1016.36 207.866 1016.36 M207.866 1012.65 Q213.676 1012.65 216.732 1017.26 Q219.811 1021.84 219.811 1030.59 Q219.811 1039.32 216.732 1043.93 Q213.676 1048.51 207.866 1048.51 Q202.056 1048.51 198.977 1043.93 Q195.922 1039.32 195.922 1030.59 Q195.922 1021.84 198.977 1017.26 Q202.056 1012.65 207.866 1012.65 Z" fill="#000000" fill-rule="nonzero" fill-opacity="1" /><path clip-path="url(#clip460)" d="M220.996 992.347 L235.91 992.347 L235.91 995.544 L224.475 995.544 L224.475 1002.43 Q225.303 1002.15 226.13 1002.01 Q226.958 1001.86 227.785 1001.86 Q232.487 1001.86 235.233 1004.44 Q237.979 1007.02 237.979 1011.42 Q237.979 1015.95 235.158 1018.47 Q232.337 1020.97 227.202 1020.97 Q225.434 1020.97 223.591 1020.67 Q221.767 1020.37 219.811 1019.77 L219.811 1015.95 Q221.503 1016.87 223.309 1017.32 Q225.114 1017.77 227.127 1017.77 Q230.381 1017.77 232.28 1016.06 Q234.18 1014.35 234.18 1011.42 Q234.18 1008.48 232.28 1006.77 Q230.381 1005.06 227.127 1005.06 Q225.603 1005.06 224.08 1005.4 Q222.575 1005.74 220.996 1006.45 L220.996 992.347 Z" fill="#000000" fill-rule="nonzero" fill-opacity="1" /><path clip-path="url(#clip460)" d="M56.6171 622.296 L72.9365 622.296 L72.9365 626.231 L50.9921 626.231 L50.9921 622.296 Q53.6541 619.541 58.2375 614.912 Q62.8439 610.259 64.0245 608.916 Q66.2698 606.393 67.1494 604.657 Q68.0522 602.898 68.0522 601.208 Q68.0522 598.453 66.1078 596.717 Q64.1865 594.981 61.0847 594.981 Q58.8856 594.981 56.4319 595.745 Q54.0014 596.509 51.2236 598.06 L51.2236 593.338 Q54.0477 592.203 56.5014 591.625 Q58.955 591.046 60.9921 591.046 Q66.3624 591.046 69.5568 593.731 Q72.7513 596.416 72.7513 600.907 Q72.7513 603.037 71.9411 604.958 Q71.1541 606.856 69.0476 609.449 Q68.4689 610.12 65.367 613.337 Q62.2652 616.532 56.6171 622.296 Z" fill="#000000" fill-rule="nonzero" fill-opacity="1" /><path clip-path="url(#clip460)" d="M82.7512 620.351 L87.6354 620.351 L87.6354 626.231 L82.7512 626.231 L82.7512 620.351 Z" fill="#000000" fill-rule="nonzero" fill-opacity="1" /><path clip-path="url(#clip460)" d="M107.821 594.75 Q104.209 594.75 102.381 598.314 Q100.575 601.856 100.575 608.986 Q100.575 616.092 102.381 619.657 Q104.209 623.199 107.821 623.199 Q111.455 623.199 113.26 619.657 Q115.089 616.092 115.089 608.986 Q115.089 601.856 113.26 598.314 Q111.455 594.75 107.821 594.75 M107.821 591.046 Q113.631 591.046 116.686 595.652 Q119.765 600.236 119.765 608.986 Q119.765 617.712 116.686 622.319 Q113.631 626.902 107.821 626.902 Q102.01 626.902 98.9317 622.319 Q95.8761 617.712 95.8761 608.986 Q95.8761 600.236 98.9317 595.652 Q102.01 591.046 107.821 591.046 Z" fill="#000000" fill-rule="nonzero" fill-opacity="1" /><path clip-path="url(#clip460)" d="M156.154 600.768 L145.575 611.393 L156.154 621.972 L153.399 624.773 L142.774 614.148 L132.149 624.773 L129.418 621.972 L139.973 611.393 L129.418 600.768 L132.149 597.967 L142.774 608.592 L153.399 597.967 L156.154 600.768 Z" fill="#000000" fill-rule="nonzero" fill-opacity="1" /><path clip-path="url(#clip460)" d="M168.515 622.296 L176.153 622.296 L176.153 595.93 L167.843 597.597 L167.843 593.338 L176.107 591.671 L180.783 591.671 L180.783 622.296 L188.422 622.296 L188.422 626.231 L168.515 626.231 L168.515 622.296 Z" fill="#000000" fill-rule="nonzero" fill-opacity="1" /><path clip-path="url(#clip460)" d="M207.866 594.75 Q204.255 594.75 202.426 598.314 Q200.621 601.856 200.621 608.986 Q200.621 616.092 202.426 619.657 Q204.255 623.199 207.866 623.199 Q211.501 623.199 213.306 619.657 Q215.135 616.092 215.135 608.986 Q215.135 601.856 213.306 598.314 Q211.501 594.75 207.866 594.75 M207.866 591.046 Q213.676 591.046 216.732 595.652 Q219.811 600.236 219.811 608.986 Q219.811 617.712 216.732 622.319 Q213.676 626.902 207.866 626.902 Q202.056 626.902 198.977 622.319 Q195.922 617.712 195.922 608.986 Q195.922 600.236 198.977 595.652 Q202.056 591.046 207.866 591.046 Z" fill="#000000" fill-rule="nonzero" fill-opacity="1" /><path clip-path="url(#clip460)" d="M220.996 570.741 L235.91 570.741 L235.91 573.938 L224.475 573.938 L224.475 580.822 Q225.303 580.539 226.13 580.408 Q226.958 580.257 227.785 580.257 Q232.487 580.257 235.233 582.834 Q237.979 585.411 237.979 589.812 Q237.979 594.344 235.158 596.865 Q232.337 599.366 227.202 599.366 Q225.434 599.366 223.591 599.065 Q221.767 598.764 219.811 598.162 L219.811 594.344 Q221.503 595.266 223.309 595.717 Q225.114 596.169 227.127 596.169 Q230.381 596.169 232.28 594.457 Q234.18 592.746 234.18 589.812 Q234.18 586.878 232.28 585.166 Q230.381 583.455 227.127 583.455 Q225.603 583.455 224.08 583.793 Q222.575 584.132 220.996 584.846 L220.996 570.741 Z" fill="#000000" fill-rule="nonzero" fill-opacity="1" /><path clip-path="url(#clip460)" d="M66.7559 185.991 Q70.1124 186.708 71.9874 188.977 Q73.8855 191.245 73.8855 194.579 Q73.8855 199.694 70.367 202.495 Q66.8485 205.296 60.3671 205.296 Q58.1912 205.296 55.8764 204.856 Q53.5847 204.44 51.131 203.583 L51.131 199.069 Q53.0754 200.204 55.3903 200.782 Q57.7051 201.361 60.2282 201.361 Q64.6263 201.361 66.918 199.625 Q69.2328 197.889 69.2328 194.579 Q69.2328 191.523 67.08 189.81 Q64.9504 188.074 61.131 188.074 L57.1032 188.074 L57.1032 184.231 L61.3161 184.231 Q64.7652 184.231 66.5939 182.866 Q68.4226 181.477 68.4226 178.884 Q68.4226 176.222 66.5245 174.81 Q64.6495 173.375 61.131 173.375 Q59.2097 173.375 57.0106 173.792 Q54.8115 174.208 52.1727 175.088 L52.1727 170.921 Q54.8347 170.181 57.1495 169.81 Q59.4875 169.44 61.5476 169.44 Q66.8717 169.44 69.9735 171.87 Q73.0753 174.278 73.0753 178.398 Q73.0753 181.268 71.4318 183.259 Q69.7883 185.227 66.7559 185.991 Z" fill="#000000" fill-rule="nonzero" fill-opacity="1" /><path clip-path="url(#clip460)" d="M82.7512 198.745 L87.6354 198.745 L87.6354 204.625 L82.7512 204.625 L82.7512 198.745 Z" fill="#000000" fill-rule="nonzero" fill-opacity="1" /><path clip-path="url(#clip460)" d="M107.821 173.143 Q104.209 173.143 102.381 176.708 Q100.575 180.25 100.575 187.379 Q100.575 194.486 102.381 198.051 Q104.209 201.592 107.821 201.592 Q111.455 201.592 113.26 198.051 Q115.089 194.486 115.089 187.379 Q115.089 180.25 113.26 176.708 Q111.455 173.143 107.821 173.143 M107.821 169.44 Q113.631 169.44 116.686 174.046 Q119.765 178.63 119.765 187.379 Q119.765 196.106 116.686 200.713 Q113.631 205.296 107.821 205.296 Q102.01 205.296 98.9317 200.713 Q95.8761 196.106 95.8761 187.379 Q95.8761 178.63 98.9317 174.046 Q102.01 169.44 107.821 169.44 Z" fill="#000000" fill-rule="nonzero" fill-opacity="1" /><path clip-path="url(#clip460)" d="M156.154 179.162 L145.575 189.787 L156.154 200.366 L153.399 203.166 L142.774 192.542 L132.149 203.166 L129.418 200.366 L139.973 189.787 L129.418 179.162 L132.149 176.361 L142.774 186.986 L153.399 176.361 L156.154 179.162 Z" fill="#000000" fill-rule="nonzero" fill-opacity="1" /><path clip-path="url(#clip460)" d="M168.515 200.69 L176.153 200.69 L176.153 174.324 L167.843 175.991 L167.843 171.731 L176.107 170.065 L180.783 170.065 L180.783 200.69 L188.422 200.69 L188.422 204.625 L168.515 204.625 L168.515 200.69 Z" fill="#000000" fill-rule="nonzero" fill-opacity="1" /><path clip-path="url(#clip460)" d="M207.866 173.143 Q204.255 173.143 202.426 176.708 Q200.621 180.25 200.621 187.379 Q200.621 194.486 202.426 198.051 Q204.255 201.592 207.866 201.592 Q211.501 201.592 213.306 198.051 Q215.135 194.486 215.135 187.379 Q215.135 180.25 213.306 176.708 Q211.501 173.143 207.866 173.143 M207.866 169.44 Q213.676 169.44 216.732 174.046 Q219.811 178.63 219.811 187.379 Q219.811 196.106 216.732 200.713 Q213.676 205.296 207.866 205.296 Q202.056 205.296 198.977 200.713 Q195.922 196.106 195.922 187.379 Q195.922 178.63 198.977 174.046 Q202.056 169.44 207.866 169.44 Z" fill="#000000" fill-rule="nonzero" fill-opacity="1" /><path clip-path="url(#clip460)" d="M220.996 149.134 L235.91 149.134 L235.91 152.332 L224.475 152.332 L224.475 159.215 Q225.303 158.933 226.13 158.802 Q226.958 158.651 227.785 158.651 Q232.487 158.651 235.233 161.228 Q237.979 163.804 237.979 168.205 Q237.979 172.738 235.158 175.258 Q232.337 177.76 227.202 177.76 Q225.434 177.76 223.591 177.459 Q221.767 177.158 219.811 176.556 L219.811 172.738 Q221.503 173.66 223.309 174.111 Q225.114 174.562 227.127 174.562 Q230.381 174.562 232.28 172.851 Q234.18 171.139 234.18 168.205 Q234.18 165.271 232.28 163.56 Q230.381 161.848 227.127 161.848 Q225.603 161.848 224.08 162.187 Q222.575 162.526 220.996 163.24 L220.996 149.134 Z" fill="#000000" fill-rule="nonzero" fill-opacity="1" /><path clip-path="url(#clip462)" d="M388.315 87.9763 L388.315 659.008 L867.972 659.008 L867.972 87.9763 L388.315 87.9763 L388.315 87.9763  Z" fill="#009af9" fill-rule="evenodd" fill-opacity="1"/>
<polyline clip-path="url(#clip462)" style="stroke:#000000; stroke-linecap:round; stroke-linejoin:round; stroke-width:4; stroke-opacity:1; fill:none" points="388.315,87.9763 388.315,659.008 867.972,659.008 867.972,87.9763 388.315,87.9763 "/>
<path clip-path="url(#clip462)" d="M1073.54 1188.73 L1073.54 1317.92 L1553.2 1317.92 L1553.2 1188.73 L1073.54 1188.73 L1073.54 1188.73  Z" fill="#009af9" fill-rule="evenodd" fill-opacity="1"/>
<polyline clip-path="url(#clip462)" style="stroke:#000000; stroke-linecap:round; stroke-linejoin:round; stroke-width:4; stroke-opacity:1; fill:none" points="1073.54,1188.73 1073.54,1317.92 1553.2,1317.92 1553.2,1188.73 1073.54,1188.73 "/>
<path clip-path="url(#clip462)" d="M1758.76 1361.22 L1758.76 1406.55 L2238.42 1406.55 L2238.42 1361.22 L1758.76 1361.22 L1758.76 1361.22  Z" fill="#009af9" fill-rule="evenodd" fill-opacity="1"/>
<polyline clip-path="url(#clip462)" style="stroke:#000000; stroke-linecap:round; stroke-linejoin:round; stroke-width:4; stroke-opacity:1; fill:none" points="1758.76,1361.22 1758.76,1406.55 2238.42,1406.55 2238.42,1361.22 1758.76,1361.22 "/>
<circle clip-path="url(#clip462)" style="fill:#009af9; stroke:none; fill-opacity:0" cx="628.144" cy="87.9763" r="2"/>
<circle clip-path="url(#clip462)" style="fill:#009af9; stroke:none; fill-opacity:0" cx="1313.37" cy="1188.73" r="2"/>
<circle clip-path="url(#clip462)" style="fill:#009af9; stroke:none; fill-opacity:0" cx="1998.59" cy="1361.22" r="2"/>
<path clip-path="url(#clip462)" d="M388.315 659.008 L388.315 1059.1 L867.972 1059.1 L867.972 659.008 L388.315 659.008 L388.315 659.008  Z" fill="#e26f46" fill-rule="evenodd" fill-opacity="1"/>
<polyline clip-path="url(#clip462)" style="stroke:#000000; stroke-linecap:round; stroke-linejoin:round; stroke-width:4; stroke-opacity:1; fill:none" points="388.315,659.008 388.315,1059.1 867.972,1059.1 867.972,659.008 388.315,659.008 "/>
<path clip-path="url(#clip462)" d="M1073.54 1317.92 L1073.54 1317.92 L1553.2 1317.92 L1553.2 1317.92 L1073.54 1317.92 L1073.54 1317.92  Z" fill="#e26f46" fill-rule="evenodd" fill-opacity="1"/>
<polyline clip-path="url(#clip462)" style="stroke:#000000; stroke-linecap:round; stroke-linejoin:round; stroke-width:4; stroke-opacity:1; fill:none" points="1073.54,1317.92 1073.54,1317.92 1553.2,1317.92 1073.54,1317.92 "/>
<path clip-path="url(#clip462)" d="M1758.76 1406.55 L1758.76 1417.73 L2238.42 1417.73 L2238.42 1406.55 L1758.76 1406.55 L1758.76 1406.55  Z" fill="#e26f46" fill-rule="evenodd" fill-opacity="1"/>
<polyline clip-path="url(#clip462)" style="stroke:#000000; stroke-linecap:round; stroke-linejoin:round; stroke-width:4; stroke-opacity:1; fill:none" points="1758.76,1406.55 1758.76,1417.73 2238.42,1417.73 2238.42,1406.55 1758.76,1406.55 "/>
<circle clip-path="url(#clip462)" style="fill:#e26f46; stroke:none; fill-opacity:0" cx="628.144" cy="659.008" r="2"/>
<circle clip-path="url(#clip462)" style="fill:#e26f46; stroke:none; fill-opacity:0" cx="1313.37" cy="1317.92" r="2"/>
<circle clip-path="url(#clip462)" style="fill:#e26f46; stroke:none; fill-opacity:0" cx="1998.59" cy="1406.55" r="2"/>
<path clip-path="url(#clip462)" d="M388.315 1059.1 L388.315 1445.72 L867.972 1445.72 L867.972 1059.1 L388.315 1059.1 L388.315 1059.1  Z" fill="#3da44d" fill-rule="evenodd" fill-opacity="1"/>
<polyline clip-path="url(#clip462)" style="stroke:#000000; stroke-linecap:round; stroke-linejoin:round; stroke-width:4; stroke-opacity:1; fill:none" points="388.315,1059.1 388.315,1445.72 867.972,1445.72 867.972,1059.1 388.315,1059.1 "/>
<path clip-path="url(#clip462)" d="M1073.54 1317.92 L1073.54 1386.69 L1553.2 1386.69 L1553.2 1317.92 L1073.54 1317.92 L1073.54 1317.92  Z" fill="#3da44d" fill-rule="evenodd" fill-opacity="1"/>
<polyline clip-path="url(#clip462)" style="stroke:#000000; stroke-linecap:round; stroke-linejoin:round; stroke-width:4; stroke-opacity:1; fill:none" points="1073.54,1317.92 1073.54,1386.69 1553.2,1386.69 1553.2,1317.92 1073.54,1317.92 "/>
<path clip-path="url(#clip462)" d="M1758.76 1417.73 L1758.76 1445.72 L2238.42 1445.72 L2238.42 1417.73 L1758.76 1417.73 L1758.76 1417.73  Z" fill="#3da44d" fill-rule="evenodd" fill-opacity="1"/>
<polyline clip-path="url(#clip462)" style="stroke:#000000; stroke-linecap:round; stroke-linejoin:round; stroke-width:4; stroke-opacity:1; fill:none" points="1758.76,1417.73 1758.76,1445.72 2238.42,1445.72 2238.42,1417.73 1758.76,1417.73 "/>
<circle clip-path="url(#clip462)" style="fill:#3da44d; stroke:none; fill-opacity:0" cx="628.144" cy="1059.1" r="2"/>
<circle clip-path="url(#clip462)" style="fill:#3da44d; stroke:none; fill-opacity:0" cx="1313.37" cy="1317.92" r="2"/>
<circle clip-path="url(#clip462)" style="fill:#3da44d; stroke:none; fill-opacity:0" cx="1998.59" cy="1417.73" r="2"/>
<path clip-path="url(#clip462)" d="M388.315 1445.72 L388.315 1445.72 L867.972 1445.72 L867.972 1445.72 L388.315 1445.72 L388.315 1445.72  Z" fill="#c271d2" fill-rule="evenodd" fill-opacity="1"/>
<polyline clip-path="url(#clip462)" style="stroke:#000000; stroke-linecap:round; stroke-linejoin:round; stroke-width:4; stroke-opacity:1; fill:none" points="388.315,1445.72 388.315,1445.72 867.972,1445.72 388.315,1445.72 "/>
<path clip-path="url(#clip462)" d="M1073.54 1386.69 L1073.54 1445.72 L1553.2 1445.72 L1553.2 1386.69 L1073.54 1386.69 L1073.54 1386.69  Z" fill="#c271d2" fill-rule="evenodd" fill-opacity="1"/>
<polyline clip-path="url(#clip462)" style="stroke:#000000; stroke-linecap:round; stroke-linejoin:round; stroke-width:4; stroke-opacity:1; fill:none" points="1073.54,1386.69 1073.54,1445.72 1553.2,1445.72 1553.2,1386.69 1073.54,1386.69 "/>
<path clip-path="url(#clip462)" d="M1758.76 1445.72 L1758.76 1445.72 L2238.42 1445.72 L2238.42 1445.72 L1758.76 1445.72 L1758.76 1445.72  Z" fill="#c271d2" fill-rule="evenodd" fill-opacity="1"/>
<polyline clip-path="url(#clip462)" style="stroke:#000000; stroke-linecap:round; stroke-linejoin:round; stroke-width:4; stroke-opacity:1; fill:none" points="1758.76,1445.72 1758.76,1445.72 2238.42,1445.72 1758.76,1445.72 "/>
<circle clip-path="url(#clip462)" style="fill:#c271d2; stroke:none; fill-opacity:0" cx="628.144" cy="1445.72" r="2"/>
<circle clip-path="url(#clip462)" style="fill:#c271d2; stroke:none; fill-opacity:0" cx="1313.37" cy="1386.69" r="2"/>
<circle clip-path="url(#clip462)" style="fill:#c271d2; stroke:none; fill-opacity:0" cx="1998.59" cy="1445.72" r="2"/>
<path clip-path="url(#clip460)" d="M1941.58 354.418 L2283.46 354.418 L2283.46 95.2176 L1941.58 95.2176  Z" fill="#ffffff" fill-rule="evenodd" fill-opacity="1"/>
<polyline clip-path="url(#clip460)" style="stroke:#000000; stroke-linecap:round; stroke-linejoin:round; stroke-width:4; stroke-opacity:1; fill:none" points="1941.58,354.418 2283.46,354.418 2283.46,95.2176 1941.58,95.2176 1941.58,354.418 "/>
<path clip-path="url(#clip460)" d="M1964.68 167.794 L2103.26 167.794 L2103.26 126.322 L1964.68 126.322 L1964.68 167.794  Z" fill="#009af9" fill-rule="evenodd" fill-opacity="1"/>
<polyline clip-path="url(#clip460)" style="stroke:#000000; stroke-linecap:round; stroke-linejoin:round; stroke-width:4; stroke-opacity:1; fill:none" points="1964.68,167.794 2103.26,167.794 2103.26,126.322 1964.68,126.322 1964.68,167.794 "/>
<path clip-path="url(#clip460)" d="M2126.36 129.778 L2131.08 129.778 L2138.35 158.99 L2145.6 129.778 L2150.85 129.778 L2158.12 158.99 L2165.37 129.778 L2170.11 129.778 L2161.43 164.338 L2155.55 164.338 L2148.26 134.338 L2140.9 164.338 L2135.02 164.338 L2126.36 129.778 Z" fill="#000000" fill-rule="nonzero" fill-opacity="1" /><path clip-path="url(#clip460)" d="M2175.09 138.412 L2179.35 138.412 L2179.35 164.338 L2175.09 164.338 L2175.09 138.412 M2175.09 128.319 L2179.35 128.319 L2179.35 133.713 L2175.09 133.713 L2175.09 128.319 Z" fill="#000000" fill-rule="nonzero" fill-opacity="1" /><path clip-path="url(#clip460)" d="M2209.81 148.689 L2209.81 164.338 L2205.55 164.338 L2205.55 148.828 Q2205.55 145.148 2204.12 143.319 Q2202.68 141.49 2199.81 141.49 Q2196.36 141.49 2194.37 143.69 Q2192.38 145.889 2192.38 149.685 L2192.38 164.338 L2188.1 164.338 L2188.1 138.412 L2192.38 138.412 L2192.38 142.44 Q2193.91 140.102 2195.97 138.944 Q2198.05 137.787 2200.76 137.787 Q2205.23 137.787 2207.52 140.565 Q2209.81 143.319 2209.81 148.689 Z" fill="#000000" fill-rule="nonzero" fill-opacity="1" /><path clip-path="url(#clip460)" d="M2235.37 142.347 L2235.37 128.319 L2239.63 128.319 L2239.63 164.338 L2235.37 164.338 L2235.37 160.449 Q2234.02 162.763 2231.96 163.898 Q2229.93 165.009 2227.06 165.009 Q2222.36 165.009 2219.39 161.259 Q2216.45 157.509 2216.45 151.398 Q2216.45 145.287 2219.39 141.537 Q2222.36 137.787 2227.06 137.787 Q2229.93 137.787 2231.96 138.921 Q2234.02 140.032 2235.37 142.347 M2220.85 151.398 Q2220.85 156.097 2222.77 158.782 Q2224.72 161.444 2228.1 161.444 Q2231.48 161.444 2233.42 158.782 Q2235.37 156.097 2235.37 151.398 Q2235.37 146.699 2233.42 144.037 Q2231.48 141.352 2228.1 141.352 Q2224.72 141.352 2222.77 144.037 Q2220.85 146.699 2220.85 151.398 Z" fill="#000000" fill-rule="nonzero" fill-opacity="1" /><path clip-path="url(#clip460)" d="M1964.68 219.634 L2103.26 219.634 L2103.26 178.162 L1964.68 178.162 L1964.68 219.634  Z" fill="#e26f46" fill-rule="evenodd" fill-opacity="1"/>
<polyline clip-path="url(#clip460)" style="stroke:#000000; stroke-linecap:round; stroke-linejoin:round; stroke-width:4; stroke-opacity:1; fill:none" points="1964.68,219.634 2103.26,219.634 2103.26,178.162 1964.68,178.162 1964.68,219.634 "/>
<path clip-path="url(#clip460)" d="M2131.04 185.46 L2131.04 198.446 L2136.92 198.446 Q2140.18 198.446 2141.96 196.756 Q2143.75 195.067 2143.75 191.942 Q2143.75 188.84 2141.96 187.15 Q2140.18 185.46 2136.92 185.46 L2131.04 185.46 M2126.36 181.618 L2136.92 181.618 Q2142.73 181.618 2145.69 184.256 Q2148.68 186.872 2148.68 191.942 Q2148.68 197.057 2145.69 199.673 Q2142.73 202.289 2136.92 202.289 L2131.04 202.289 L2131.04 216.178 L2126.36 216.178 L2126.36 181.618 Z" fill="#000000" fill-rule="nonzero" fill-opacity="1" /><path clip-path="url(#clip460)" d="M2163.86 216.178 L2150.67 181.618 L2155.55 181.618 L2166.5 210.715 L2177.47 181.618 L2182.33 181.618 L2169.16 216.178 L2163.86 216.178 Z" fill="#000000" fill-rule="nonzero" fill-opacity="1" /><path clip-path="url(#clip460)" d="M1964.68 271.474 L2103.26 271.474 L2103.26 230.002 L1964.68 230.002 L1964.68 271.474  Z" fill="#3da44d" fill-rule="evenodd" fill-opacity="1"/>
<polyline clip-path="url(#clip460)" style="stroke:#000000; stroke-linecap:round; stroke-linejoin:round; stroke-width:4; stroke-opacity:1; fill:none" points="1964.68,271.474 2103.26,271.474 2103.26,230.002 1964.68,230.002 1964.68,271.474 "/>
<path clip-path="url(#clip460)" d="M2151.92 263.087 L2151.92 253.805 L2144.28 253.805 L2144.28 249.962 L2156.55 249.962 L2156.55 264.8 Q2153.84 266.721 2150.57 267.717 Q2147.31 268.689 2143.61 268.689 Q2135.51 268.689 2130.92 263.967 Q2126.36 259.221 2126.36 250.772 Q2126.36 242.3 2130.92 237.578 Q2135.51 232.833 2143.61 232.833 Q2146.99 232.833 2150.02 233.666 Q2153.07 234.499 2155.64 236.12 L2155.64 241.096 Q2153.05 238.897 2150.13 237.786 Q2147.22 236.675 2144 236.675 Q2137.66 236.675 2134.46 240.217 Q2131.29 243.758 2131.29 250.772 Q2131.29 257.763 2134.46 261.305 Q2137.66 264.846 2144 264.846 Q2146.48 264.846 2148.42 264.43 Q2150.37 263.99 2151.92 263.087 Z" fill="#000000" fill-rule="nonzero" fill-opacity="1" /><path clip-path="url(#clip460)" d="M2176.69 254.985 Q2171.52 254.985 2169.53 256.166 Q2167.54 257.346 2167.54 260.194 Q2167.54 262.462 2169.02 263.805 Q2170.53 265.124 2173.1 265.124 Q2176.64 265.124 2178.77 262.624 Q2180.92 260.101 2180.92 255.934 L2180.92 254.985 L2176.69 254.985 M2185.18 253.226 L2185.18 268.018 L2180.92 268.018 L2180.92 264.082 Q2179.46 266.443 2177.29 267.578 Q2175.11 268.689 2171.96 268.689 Q2167.98 268.689 2165.62 266.467 Q2163.28 264.221 2163.28 260.471 Q2163.28 256.096 2166.2 253.874 Q2169.14 251.652 2174.95 251.652 L2180.92 251.652 L2180.92 251.235 Q2180.92 248.295 2178.98 246.698 Q2177.06 245.078 2173.56 245.078 Q2171.34 245.078 2169.23 245.61 Q2167.13 246.143 2165.18 247.207 L2165.18 243.272 Q2167.52 242.37 2169.72 241.93 Q2171.92 241.467 2174 241.467 Q2179.63 241.467 2182.4 244.383 Q2185.18 247.3 2185.18 253.226 Z" fill="#000000" fill-rule="nonzero" fill-opacity="1" /><path clip-path="url(#clip460)" d="M2210.48 242.856 L2210.48 246.883 Q2208.68 245.957 2206.73 245.495 Q2204.79 245.032 2202.7 245.032 Q2199.53 245.032 2197.94 246.004 Q2196.36 246.976 2196.36 248.92 Q2196.36 250.402 2197.5 251.258 Q2198.63 252.092 2202.06 252.856 L2203.51 253.18 Q2208.05 254.152 2209.95 255.934 Q2211.87 257.694 2211.87 260.865 Q2211.87 264.476 2209 266.582 Q2206.15 268.689 2201.15 268.689 Q2199.07 268.689 2196.8 268.272 Q2194.56 267.879 2192.06 267.068 L2192.06 262.67 Q2194.42 263.897 2196.71 264.522 Q2199 265.124 2201.25 265.124 Q2204.26 265.124 2205.88 264.106 Q2207.5 263.064 2207.5 261.189 Q2207.5 259.453 2206.32 258.527 Q2205.16 257.601 2201.2 256.744 L2199.72 256.397 Q2195.76 255.564 2194 253.851 Q2192.24 252.115 2192.24 249.106 Q2192.24 245.448 2194.83 243.458 Q2197.43 241.467 2202.19 241.467 Q2204.56 241.467 2206.64 241.814 Q2208.72 242.161 2210.48 242.856 Z" fill="#000000" fill-rule="nonzero" fill-opacity="1" /><path clip-path="url(#clip460)" d="M1964.68 323.314 L2103.26 323.314 L2103.26 281.842 L1964.68 281.842 L1964.68 323.314  Z" fill="#c271d2" fill-rule="evenodd" fill-opacity="1"/>
<polyline clip-path="url(#clip460)" style="stroke:#000000; stroke-linecap:round; stroke-linejoin:round; stroke-width:4; stroke-opacity:1; fill:none" points="1964.68,323.314 2103.26,323.314 2103.26,281.842 1964.68,281.842 1964.68,323.314 "/>
<path clip-path="url(#clip460)" d="M2126.36 285.298 L2131.04 285.298 L2131.04 299.464 L2148.03 299.464 L2148.03 285.298 L2152.7 285.298 L2152.7 319.858 L2148.03 319.858 L2148.03 303.399 L2131.04 303.399 L2131.04 319.858 L2126.36 319.858 L2126.36 285.298 Z" fill="#000000" fill-rule="nonzero" fill-opacity="1" /><path clip-path="url(#clip460)" d="M2172.61 322.265 Q2170.81 326.895 2169.09 328.307 Q2167.38 329.719 2164.51 329.719 L2161.11 329.719 L2161.11 326.154 L2163.61 326.154 Q2165.37 326.154 2166.34 325.32 Q2167.31 324.487 2168.49 321.385 L2169.26 319.441 L2158.77 293.932 L2163.28 293.932 L2171.38 314.209 L2179.49 293.932 L2184 293.932 L2172.61 322.265 Z" fill="#000000" fill-rule="nonzero" fill-opacity="1" /><path clip-path="url(#clip460)" d="M2206.94 297.867 L2206.94 283.839 L2211.2 283.839 L2211.2 319.858 L2206.94 319.858 L2206.94 315.969 Q2205.6 318.283 2203.54 319.418 Q2201.5 320.529 2198.63 320.529 Q2193.93 320.529 2190.97 316.779 Q2188.03 313.029 2188.03 306.918 Q2188.03 300.807 2190.97 297.057 Q2193.93 293.307 2198.63 293.307 Q2201.5 293.307 2203.54 294.441 Q2205.6 295.552 2206.94 297.867 M2192.43 306.918 Q2192.43 311.617 2194.35 314.302 Q2196.29 316.964 2199.67 316.964 Q2203.05 316.964 2205 314.302 Q2206.94 311.617 2206.94 306.918 Q2206.94 302.219 2205 299.557 Q2203.05 296.872 2199.67 296.872 Q2196.29 296.872 2194.35 299.557 Q2192.43 302.219 2192.43 306.918 Z" fill="#000000" fill-rule="nonzero" fill-opacity="1" /><path clip-path="url(#clip460)" d="M2235 297.913 Q2234.28 297.497 2233.42 297.311 Q2232.59 297.103 2231.57 297.103 Q2227.96 297.103 2226.01 299.464 Q2224.09 301.802 2224.09 306.2 L2224.09 319.858 L2219.81 319.858 L2219.81 293.932 L2224.09 293.932 L2224.09 297.96 Q2225.44 295.598 2227.59 294.464 Q2229.74 293.307 2232.82 293.307 Q2233.26 293.307 2233.79 293.376 Q2234.32 293.423 2234.97 293.538 L2235 297.913 Z" fill="#000000" fill-rule="nonzero" fill-opacity="1" /><path clip-path="url(#clip460)" d="M2248.47 296.918 Q2245.04 296.918 2243.05 299.603 Q2241.06 302.265 2241.06 306.918 Q2241.06 311.571 2243.03 314.256 Q2245.02 316.918 2248.47 316.918 Q2251.87 316.918 2253.86 314.233 Q2255.85 311.547 2255.85 306.918 Q2255.85 302.311 2253.86 299.626 Q2251.87 296.918 2248.47 296.918 M2248.47 293.307 Q2254.02 293.307 2257.19 296.918 Q2260.37 300.529 2260.37 306.918 Q2260.37 313.284 2257.19 316.918 Q2254.02 320.529 2248.47 320.529 Q2242.89 320.529 2239.72 316.918 Q2236.57 313.284 2236.57 306.918 Q2236.57 300.529 2239.72 296.918 Q2242.89 293.307 2248.47 293.307 Z" fill="#000000" fill-rule="nonzero" fill-opacity="1" /></svg>
