<?xml version="1.0" encoding="utf-8"?>
<svg xmlns="http://www.w3.org/2000/svg" xmlns:xlink="http://www.w3.org/1999/xlink" width="600" height="400" viewBox="0 0 2400 1600">
<defs>
  <clipPath id="clip620">
    <rect x="0" y="0" width="2400" height="1600"/>
  </clipPath>
</defs>
<path clip-path="url(#clip620)" d="M0 1600 L2400 1600 L2400 0 L0 0  Z" fill="#ffffff" fill-rule="evenodd" fill-opacity="1"/>
<defs>
  <clipPath id="clip621">
    <rect x="480" y="0" width="1681" height="1600"/>
  </clipPath>
</defs>
<path clip-path="url(#clip620)" d="M275.136 1486.45 L2352.76 1486.45 L2352.76 47.2441 L275.136 47.2441  Z" fill="#ffffff" fill-rule="evenodd" fill-opacity="1"/>
<defs>
  <clipPath id="clip622">
    <rect x="275" y="47" width="2079" height="1440"/>
  </clipPath>
</defs>
<polyline clip-path="url(#clip622)" style="stroke:#000000; stroke-linecap:round; stroke-linejoin:round; stroke-width:2; stroke-opacity:0.1; fill:none" points="629.104,1486.45 629.104,47.2441 "/>
<polyline clip-path="url(#clip622)" style="stroke:#000000; stroke-linecap:round; stroke-linejoin:round; stroke-width:2; stroke-opacity:0.1; fill:none" points="1313.95,1486.45 1313.95,47.2441 "/>
<polyline clip-path="url(#clip622)" style="stroke:#000000; stroke-linecap:round; stroke-linejoin:round; stroke-width:2; stroke-opacity:0.1; fill:none" points="1998.79,1486.45 1998.79,47.2441 "/>
<polyline clip-path="url(#clip620)" style="stroke:#000000; stroke-linecap:round; stroke-linejoin:round; stroke-width:4; stroke-opacity:1; fill:none" points="275.136,1486.45 2352.76,1486.45 "/>
<polyline clip-path="url(#clip620)" style="stroke:#000000; stroke-linecap:round; stroke-linejoin:round; stroke-width:4; stroke-opacity:1; fill:none" points="629.104,1486.45 629.104,1467.55 "/>
<polyline clip-path="url(#clip620)" style="stroke:#000000; stroke-linecap:round; stroke-linejoin:round; stroke-width:4; stroke-opacity:1; fill:none" points="1313.95,1486.45 1313.95,1467.55 "/>
<polyline clip-path="url(#clip620)" style="stroke:#000000; stroke-linecap:round; stroke-linejoin:round; stroke-width:4; stroke-opacity:1; fill:none" points="1998.79,1486.45 1998.79,1467.55 "/>
<path clip-path="url(#clip620)" d="M561.257 1515.42 L561.257 1519.98 Q558.595 1518.71 556.234 1518.08 Q553.873 1517.46 551.674 1517.46 Q547.854 1517.46 545.771 1518.94 Q543.711 1520.42 543.711 1523.15 Q543.711 1525.45 545.077 1526.63 Q546.465 1527.78 550.308 1528.5 L553.132 1529.08 Q558.364 1530.07 560.84 1532.6 Q563.34 1535.1 563.34 1539.31 Q563.34 1544.33 559.961 1546.93 Q556.604 1549.52 550.1 1549.52 Q547.646 1549.52 544.868 1548.96 Q542.114 1548.41 539.151 1547.32 L539.151 1542.51 Q541.998 1544.1 544.729 1544.91 Q547.461 1545.72 550.1 1545.72 Q554.104 1545.72 556.28 1544.15 Q558.456 1542.57 558.456 1539.66 Q558.456 1537.11 556.882 1535.68 Q555.331 1534.24 551.766 1533.52 L548.919 1532.97 Q543.688 1531.93 541.35 1529.7 Q539.012 1527.48 539.012 1523.52 Q539.012 1518.94 542.229 1516.3 Q545.47 1513.66 551.141 1513.66 Q553.572 1513.66 556.095 1514.1 Q558.618 1514.54 561.257 1515.42 Z" fill="#000000" fill-rule="nonzero" fill-opacity="1" /><path clip-path="url(#clip620)" d="M567.97 1522.92 L572.229 1522.92 L577.553 1543.15 L582.854 1522.92 L587.877 1522.92 L593.201 1543.15 L598.502 1522.92 L602.761 1522.92 L595.979 1548.85 L590.956 1548.85 L585.377 1527.6 L579.775 1548.85 L574.752 1548.85 L567.97 1522.92 Z" fill="#000000" fill-rule="nonzero" fill-opacity="1" /><path clip-path="url(#clip620)" d="M631.396 1534.82 L631.396 1536.9 L611.812 1536.9 Q612.09 1541.3 614.451 1543.62 Q616.835 1545.91 621.072 1545.91 Q623.525 1545.91 625.817 1545.31 Q628.132 1544.7 630.4 1543.5 L630.4 1547.53 Q628.109 1548.5 625.701 1549.01 Q623.294 1549.52 620.817 1549.52 Q614.613 1549.52 610.979 1545.91 Q607.368 1542.3 607.368 1536.14 Q607.368 1529.77 610.794 1526.05 Q614.243 1522.3 620.076 1522.3 Q625.308 1522.3 628.34 1525.68 Q631.396 1529.03 631.396 1534.82 M627.136 1533.57 Q627.09 1530.07 625.169 1527.99 Q623.271 1525.91 620.122 1525.91 Q616.558 1525.91 614.405 1527.92 Q612.275 1529.94 611.951 1533.59 L627.136 1533.57 Z" fill="#000000" fill-rule="nonzero" fill-opacity="1" /><path clip-path="url(#clip620)" d="M655.446 1526.86 L655.446 1512.83 L659.706 1512.83 L659.706 1548.85 L655.446 1548.85 L655.446 1544.96 Q654.104 1547.27 652.044 1548.41 Q650.007 1549.52 647.136 1549.52 Q642.437 1549.52 639.474 1545.77 Q636.534 1542.02 636.534 1535.91 Q636.534 1529.8 639.474 1526.05 Q642.437 1522.3 647.136 1522.3 Q650.007 1522.3 652.044 1523.43 Q654.104 1524.54 655.446 1526.86 M640.933 1535.91 Q640.933 1540.61 642.854 1543.29 Q644.798 1545.95 648.178 1545.95 Q651.558 1545.95 653.502 1543.29 Q655.446 1540.61 655.446 1535.91 Q655.446 1531.21 653.502 1528.55 Q651.558 1525.86 648.178 1525.86 Q644.798 1525.86 642.854 1528.55 Q640.933 1531.21 640.933 1535.91 Z" fill="#000000" fill-rule="nonzero" fill-opacity="1" /><path clip-path="url(#clip620)" d="M690.655 1534.82 L690.655 1536.9 L671.071 1536.9 Q671.349 1541.3 673.71 1543.62 Q676.094 1545.91 680.33 1545.91 Q682.784 1545.91 685.076 1545.31 Q687.391 1544.7 689.659 1543.5 L689.659 1547.53 Q687.367 1548.5 684.96 1549.01 Q682.553 1549.52 680.076 1549.52 Q673.872 1549.52 670.238 1545.91 Q666.627 1542.3 666.627 1536.14 Q666.627 1529.77 670.053 1526.05 Q673.502 1522.3 679.335 1522.3 Q684.567 1522.3 687.599 1525.68 Q690.655 1529.03 690.655 1534.82 M686.395 1533.57 Q686.349 1530.07 684.428 1527.99 Q682.53 1525.91 679.381 1525.91 Q675.817 1525.91 673.664 1527.92 Q671.534 1529.94 671.21 1533.59 L686.395 1533.57 Z" fill="#000000" fill-rule="nonzero" fill-opacity="1" /><path clip-path="url(#clip620)" d="M719.196 1533.2 L719.196 1548.85 L714.937 1548.85 L714.937 1533.34 Q714.937 1529.66 713.502 1527.83 Q712.066 1526 709.196 1526 Q705.747 1526 703.756 1528.2 Q701.766 1530.4 701.766 1534.2 L701.766 1548.85 L697.483 1548.85 L697.483 1522.92 L701.766 1522.92 L701.766 1526.95 Q703.293 1524.61 705.354 1523.45 Q707.437 1522.3 710.145 1522.3 Q714.613 1522.3 716.904 1525.07 Q719.196 1527.83 719.196 1533.2 Z" fill="#000000" fill-rule="nonzero" fill-opacity="1" /><path clip-path="url(#clip620)" d="M1232.59 1543.92 L1232.59 1534.63 L1224.95 1534.63 L1224.95 1530.79 L1237.22 1530.79 L1237.22 1545.63 Q1234.51 1547.55 1231.25 1548.55 Q1227.99 1549.52 1224.28 1549.52 Q1216.18 1549.52 1211.6 1544.8 Q1207.04 1540.05 1207.04 1531.6 Q1207.04 1523.13 1211.6 1518.41 Q1216.18 1513.66 1224.28 1513.66 Q1227.66 1513.66 1230.69 1514.5 Q1233.75 1515.33 1236.32 1516.95 L1236.32 1521.93 Q1233.73 1519.73 1230.81 1518.62 Q1227.89 1517.51 1224.68 1517.51 Q1218.33 1517.51 1215.14 1521.05 Q1211.97 1524.59 1211.97 1531.6 Q1211.97 1538.59 1215.14 1542.13 Q1218.33 1545.68 1224.68 1545.68 Q1227.15 1545.68 1229.1 1545.26 Q1231.04 1544.82 1232.59 1543.92 Z" fill="#000000" fill-rule="nonzero" fill-opacity="1" /><path clip-path="url(#clip620)" d="M1267.75 1534.82 L1267.75 1536.9 L1248.17 1536.9 Q1248.45 1541.3 1250.81 1543.62 Q1253.19 1545.91 1257.43 1545.91 Q1259.88 1545.91 1262.18 1545.31 Q1264.49 1544.7 1266.76 1543.5 L1266.76 1547.53 Q1264.47 1548.5 1262.06 1549.01 Q1259.65 1549.52 1257.18 1549.52 Q1250.97 1549.52 1247.34 1545.91 Q1243.73 1542.3 1243.73 1536.14 Q1243.73 1529.77 1247.15 1526.05 Q1250.6 1522.3 1256.43 1522.3 Q1261.67 1522.3 1264.7 1525.68 Q1267.75 1529.03 1267.75 1534.82 M1263.5 1533.57 Q1263.45 1530.07 1261.53 1527.99 Q1259.63 1525.91 1256.48 1525.91 Q1252.92 1525.91 1250.76 1527.92 Q1248.63 1529.94 1248.31 1533.59 L1263.5 1533.57 Z" fill="#000000" fill-rule="nonzero" fill-opacity="1" /><path clip-path="url(#clip620)" d="M1289.77 1526.9 Q1289.05 1526.49 1288.19 1526.3 Q1287.36 1526.09 1286.34 1526.09 Q1282.73 1526.09 1280.79 1528.45 Q1278.87 1530.79 1278.87 1535.19 L1278.87 1548.85 L1274.58 1548.85 L1274.58 1522.92 L1278.87 1522.92 L1278.87 1526.95 Q1280.21 1524.59 1282.36 1523.45 Q1284.51 1522.3 1287.59 1522.3 Q1288.03 1522.3 1288.56 1522.37 Q1289.1 1522.41 1289.74 1522.53 L1289.77 1526.9 Z" fill="#000000" fill-rule="nonzero" fill-opacity="1" /><path clip-path="url(#clip620)" d="M1313.59 1527.9 Q1315.18 1525.03 1317.41 1523.66 Q1319.63 1522.3 1322.64 1522.3 Q1326.69 1522.3 1328.89 1525.14 Q1331.09 1527.97 1331.09 1533.2 L1331.09 1548.85 L1326.8 1548.85 L1326.8 1533.34 Q1326.8 1529.61 1325.49 1527.81 Q1324.17 1526 1321.46 1526 Q1318.15 1526 1316.23 1528.2 Q1314.3 1530.4 1314.3 1534.2 L1314.3 1548.85 L1310.02 1548.85 L1310.02 1533.34 Q1310.02 1529.59 1308.7 1527.81 Q1307.38 1526 1304.63 1526 Q1301.37 1526 1299.44 1528.22 Q1297.52 1530.42 1297.52 1534.2 L1297.52 1548.85 L1293.24 1548.85 L1293.24 1522.92 L1297.52 1522.92 L1297.52 1526.95 Q1298.98 1524.57 1301.02 1523.43 Q1303.05 1522.3 1305.86 1522.3 Q1308.68 1522.3 1310.65 1523.73 Q1312.64 1525.17 1313.59 1527.9 Z" fill="#000000" fill-rule="nonzero" fill-opacity="1" /><path clip-path="url(#clip620)" d="M1351.36 1535.82 Q1346.2 1535.82 1344.21 1537 Q1342.22 1538.18 1342.22 1541.02 Q1342.22 1543.29 1343.7 1544.63 Q1345.21 1545.95 1347.78 1545.95 Q1351.32 1545.95 1353.45 1543.45 Q1355.6 1540.93 1355.6 1536.76 L1355.6 1535.82 L1351.36 1535.82 M1359.86 1534.06 L1359.86 1548.85 L1355.6 1548.85 L1355.6 1544.91 Q1354.14 1547.27 1351.97 1548.41 Q1349.79 1549.52 1346.64 1549.52 Q1342.66 1549.52 1340.3 1547.3 Q1337.96 1545.05 1337.96 1541.3 Q1337.96 1536.93 1340.88 1534.7 Q1343.82 1532.48 1349.63 1532.48 L1355.6 1532.48 L1355.6 1532.07 Q1355.6 1529.13 1353.66 1527.53 Q1351.74 1525.91 1348.24 1525.91 Q1346.02 1525.91 1343.91 1526.44 Q1341.8 1526.97 1339.86 1528.04 L1339.86 1524.1 Q1342.2 1523.2 1344.4 1522.76 Q1346.6 1522.3 1348.68 1522.3 Q1354.3 1522.3 1357.08 1525.21 Q1359.86 1528.13 1359.86 1534.06 Z" fill="#000000" fill-rule="nonzero" fill-opacity="1" /><path clip-path="url(#clip620)" d="M1390.18 1533.2 L1390.18 1548.85 L1385.92 1548.85 L1385.92 1533.34 Q1385.92 1529.66 1384.49 1527.83 Q1383.05 1526 1380.18 1526 Q1376.74 1526 1374.74 1528.2 Q1372.75 1530.4 1372.75 1534.2 L1372.75 1548.85 L1368.47 1548.85 L1368.47 1522.92 L1372.75 1522.92 L1372.75 1526.95 Q1374.28 1524.61 1376.34 1523.45 Q1378.42 1522.3 1381.13 1522.3 Q1385.6 1522.3 1387.89 1525.07 Q1390.18 1527.83 1390.18 1533.2 Z" fill="#000000" fill-rule="nonzero" fill-opacity="1" /><path clip-path="url(#clip620)" d="M1409.47 1551.26 Q1407.66 1555.88 1405.95 1557.3 Q1404.24 1558.71 1401.36 1558.71 L1397.96 1558.71 L1397.96 1555.14 L1400.46 1555.14 Q1402.22 1555.14 1403.19 1554.31 Q1404.17 1553.48 1405.35 1550.38 L1406.11 1548.43 L1395.62 1522.92 L1400.14 1522.92 L1408.24 1543.2 L1416.34 1522.92 L1420.86 1522.92 L1409.47 1551.26 Z" fill="#000000" fill-rule="nonzero" fill-opacity="1" /><path clip-path="url(#clip620)" d="M1896.91 1518.13 L1896.91 1545.01 L1902.56 1545.01 Q1909.71 1545.01 1913.02 1541.76 Q1916.36 1538.52 1916.36 1531.53 Q1916.36 1524.59 1913.02 1521.37 Q1909.71 1518.13 1902.56 1518.13 L1896.91 1518.13 M1892.24 1514.29 L1901.84 1514.29 Q1911.89 1514.29 1916.59 1518.48 Q1921.29 1522.64 1921.29 1531.53 Q1921.29 1540.47 1916.57 1544.66 Q1911.84 1548.85 1901.84 1548.85 L1892.24 1548.85 L1892.24 1514.29 Z" fill="#000000" fill-rule="nonzero" fill-opacity="1" /><path clip-path="url(#clip620)" d="M1950.73 1534.82 L1950.73 1536.9 L1931.15 1536.9 Q1931.43 1541.3 1933.79 1543.62 Q1936.17 1545.91 1940.41 1545.91 Q1942.86 1545.91 1945.15 1545.31 Q1947.47 1544.7 1949.74 1543.5 L1949.74 1547.53 Q1947.45 1548.5 1945.04 1549.01 Q1942.63 1549.52 1940.15 1549.52 Q1933.95 1549.52 1930.32 1545.91 Q1926.71 1542.3 1926.71 1536.14 Q1926.71 1529.77 1930.13 1526.05 Q1933.58 1522.3 1939.41 1522.3 Q1944.65 1522.3 1947.68 1525.68 Q1950.73 1529.03 1950.73 1534.82 M1946.47 1533.57 Q1946.43 1530.07 1944.51 1527.99 Q1942.61 1525.91 1939.46 1525.91 Q1935.9 1525.91 1933.74 1527.92 Q1931.61 1529.94 1931.29 1533.59 L1946.47 1533.57 Z" fill="#000000" fill-rule="nonzero" fill-opacity="1" /><path clip-path="url(#clip620)" d="M1979.27 1533.2 L1979.27 1548.85 L1975.02 1548.85 L1975.02 1533.34 Q1975.02 1529.66 1973.58 1527.83 Q1972.14 1526 1969.27 1526 Q1965.83 1526 1963.83 1528.2 Q1961.84 1530.4 1961.84 1534.2 L1961.84 1548.85 L1957.56 1548.85 L1957.56 1522.92 L1961.84 1522.92 L1961.84 1526.95 Q1963.37 1524.61 1965.43 1523.45 Q1967.52 1522.3 1970.22 1522.3 Q1974.69 1522.3 1976.98 1525.07 Q1979.27 1527.83 1979.27 1533.2 Z" fill="#000000" fill-rule="nonzero" fill-opacity="1" /><path clip-path="url(#clip620)" d="M2007.95 1527.9 Q2009.55 1525.03 2011.77 1523.66 Q2014 1522.3 2017.01 1522.3 Q2021.06 1522.3 2023.26 1525.14 Q2025.45 1527.97 2025.45 1533.2 L2025.45 1548.85 L2021.17 1548.85 L2021.17 1533.34 Q2021.17 1529.61 2019.85 1527.81 Q2018.53 1526 2015.83 1526 Q2012.52 1526 2010.59 1528.2 Q2008.67 1530.4 2008.67 1534.2 L2008.67 1548.85 L2004.39 1548.85 L2004.39 1533.34 Q2004.39 1529.59 2003.07 1527.81 Q2001.75 1526 1999 1526 Q1995.73 1526 1993.81 1528.22 Q1991.89 1530.42 1991.89 1534.2 L1991.89 1548.85 L1987.61 1548.85 L1987.61 1522.92 L1991.89 1522.92 L1991.89 1526.95 Q1993.35 1524.57 1995.39 1523.43 Q1997.42 1522.3 2000.22 1522.3 Q2003.05 1522.3 2005.02 1523.73 Q2007.01 1525.17 2007.95 1527.9 Z" fill="#000000" fill-rule="nonzero" fill-opacity="1" /><path clip-path="url(#clip620)" d="M2045.73 1535.82 Q2040.57 1535.82 2038.58 1537 Q2036.59 1538.18 2036.59 1541.02 Q2036.59 1543.29 2038.07 1544.63 Q2039.58 1545.95 2042.14 1545.95 Q2045.69 1545.95 2047.82 1543.45 Q2049.97 1540.93 2049.97 1536.76 L2049.97 1535.82 L2045.73 1535.82 M2054.23 1534.06 L2054.23 1548.85 L2049.97 1548.85 L2049.97 1544.91 Q2048.51 1547.27 2046.33 1548.41 Q2044.16 1549.52 2041.01 1549.52 Q2037.03 1549.52 2034.67 1547.3 Q2032.33 1545.05 2032.33 1541.3 Q2032.33 1536.93 2035.25 1534.7 Q2038.19 1532.48 2044 1532.48 L2049.97 1532.48 L2049.97 1532.07 Q2049.97 1529.13 2048.02 1527.53 Q2046.1 1525.91 2042.61 1525.91 Q2040.39 1525.91 2038.28 1526.44 Q2036.17 1526.97 2034.23 1528.04 L2034.23 1524.1 Q2036.57 1523.2 2038.76 1522.76 Q2040.96 1522.3 2043.05 1522.3 Q2048.67 1522.3 2051.45 1525.21 Q2054.23 1528.13 2054.23 1534.06 Z" fill="#000000" fill-rule="nonzero" fill-opacity="1" /><path clip-path="url(#clip620)" d="M2078.02 1526.9 Q2077.31 1526.49 2076.45 1526.3 Q2075.62 1526.09 2074.6 1526.09 Q2070.99 1526.09 2069.04 1528.45 Q2067.12 1530.79 2067.12 1535.19 L2067.12 1548.85 L2062.84 1548.85 L2062.84 1522.92 L2067.12 1522.92 L2067.12 1526.95 Q2068.46 1524.59 2070.62 1523.45 Q2072.77 1522.3 2075.85 1522.3 Q2076.29 1522.3 2076.82 1522.37 Q2077.35 1522.41 2078 1522.53 L2078.02 1526.9 Z" fill="#000000" fill-rule="nonzero" fill-opacity="1" /><path clip-path="url(#clip620)" d="M2082.33 1512.83 L2086.61 1512.83 L2086.61 1534.1 L2099.32 1522.92 L2104.76 1522.92 L2091.01 1535.05 L2105.34 1548.85 L2099.78 1548.85 L2086.61 1536.19 L2086.61 1548.85 L2082.33 1548.85 L2082.33 1512.83 Z" fill="#000000" fill-rule="nonzero" fill-opacity="1" /><polyline clip-path="url(#clip622)" style="stroke:#000000; stroke-linecap:round; stroke-linejoin:round; stroke-width:2; stroke-opacity:0.1; fill:none" points="275.136,1445.72 2352.76,1445.72 "/>
<polyline clip-path="url(#clip622)" style="stroke:#000000; stroke-linecap:round; stroke-linejoin:round; stroke-width:2; stroke-opacity:0.1; fill:none" points="275.136,1053.57 2352.76,1053.57 "/>
<polyline clip-path="url(#clip622)" style="stroke:#000000; stroke-linecap:round; stroke-linejoin:round; stroke-width:2; stroke-opacity:0.1; fill:none" points="275.136,661.429 2352.76,661.429 "/>
<polyline clip-path="url(#clip622)" style="stroke:#000000; stroke-linecap:round; stroke-linejoin:round; stroke-width:2; stroke-opacity:0.1; fill:none" points="275.136,269.286 2352.76,269.286 "/>
<polyline clip-path="url(#clip620)" style="stroke:#000000; stroke-linecap:round; stroke-linejoin:round; stroke-width:4; stroke-opacity:1; fill:none" points="275.136,1486.45 275.136,47.2441 "/>
<polyline clip-path="url(#clip620)" style="stroke:#000000; stroke-linecap:round; stroke-linejoin:round; stroke-width:4; stroke-opacity:1; fill:none" points="275.136,1445.72 294.034,1445.72 "/>
<polyline clip-path="url(#clip620)" style="stroke:#000000; stroke-linecap:round; stroke-linejoin:round; stroke-width:4; stroke-opacity:1; fill:none" points="275.136,1053.57 294.034,1053.57 "/>
<polyline clip-path="url(#clip620)" style="stroke:#000000; stroke-linecap:round; stroke-linejoin:round; stroke-width:4; stroke-opacity:1; fill:none" points="275.136,661.429 294.034,661.429 "/>
<polyline clip-path="url(#clip620)" style="stroke:#000000; stroke-linecap:round; stroke-linejoin:round; stroke-width:4; stroke-opacity:1; fill:none" points="275.136,269.286 294.034,269.286 "/>
<path clip-path="url(#clip620)" d="M227.192 1431.51 Q223.581 1431.51 221.752 1435.08 Q219.947 1438.62 219.947 1445.75 Q219.947 1452.86 221.752 1456.42 Q223.581 1459.96 227.192 1459.96 Q230.826 1459.96 232.632 1456.42 Q234.46 1452.86 234.46 1445.75 Q234.46 1438.62 232.632 1435.08 Q230.826 1431.51 227.192 1431.51 M227.192 1427.81 Q233.002 1427.81 236.058 1432.42 Q239.136 1437 239.136 1445.75 Q239.136 1454.48 236.058 1459.08 Q233.002 1463.67 227.192 1463.67 Q221.382 1463.67 218.303 1459.08 Q215.248 1454.48 215.248 1445.75 Q215.248 1437 218.303 1432.42 Q221.382 1427.81 227.192 1427.81 Z" fill="#000000" fill-rule="nonzero" fill-opacity="1" /><path clip-path="url(#clip620)" d="M57.7745 1073.37 L74.0939 1073.37 L74.0939 1077.3 L52.1495 1077.3 L52.1495 1073.37 Q54.8115 1070.61 59.3949 1065.98 Q64.0013 1061.33 65.1819 1059.99 Q67.4272 1057.46 68.3068 1055.73 Q69.2096 1053.97 69.2096 1052.28 Q69.2096 1049.52 67.2652 1047.79 Q65.3439 1046.05 62.2421 1046.05 Q60.043 1046.05 57.5893 1046.81 Q55.1588 1047.58 52.381 1049.13 L52.381 1044.41 Q55.2051 1043.27 57.6588 1042.69 Q60.1124 1042.12 62.1495 1042.12 Q67.5198 1042.12 70.7142 1044.8 Q73.9087 1047.49 73.9087 1051.98 Q73.9087 1054.11 73.0985 1056.03 Q72.3115 1057.93 70.205 1060.52 Q69.6263 1061.19 66.5245 1064.41 Q63.4226 1067.6 57.7745 1073.37 Z" fill="#000000" fill-rule="nonzero" fill-opacity="1" /><path clip-path="url(#clip620)" d="M83.9086 1071.42 L88.7928 1071.42 L88.7928 1077.3 L83.9086 1077.3 L83.9086 1071.42 Z" fill="#000000" fill-rule="nonzero" fill-opacity="1" /><path clip-path="url(#clip620)" d="M108.978 1045.82 Q105.367 1045.82 103.538 1049.38 Q101.733 1052.93 101.733 1060.05 Q101.733 1067.16 103.538 1070.73 Q105.367 1074.27 108.978 1074.27 Q112.612 1074.27 114.418 1070.73 Q116.246 1067.16 116.246 1060.05 Q116.246 1052.93 114.418 1049.38 Q112.612 1045.82 108.978 1045.82 M108.978 1042.12 Q114.788 1042.12 117.844 1046.72 Q120.922 1051.3 120.922 1060.05 Q120.922 1068.78 117.844 1073.39 Q114.788 1077.97 108.978 1077.97 Q103.168 1077.97 100.089 1073.39 Q97.0335 1068.78 97.0335 1060.05 Q97.0335 1051.3 100.089 1046.72 Q103.168 1042.12 108.978 1042.12 Z" fill="#000000" fill-rule="nonzero" fill-opacity="1" /><path clip-path="url(#clip620)" d="M157.311 1051.84 L146.732 1062.46 L157.311 1073.04 L154.556 1075.84 L143.931 1065.22 L133.306 1075.84 L130.575 1073.04 L141.131 1062.46 L130.575 1051.84 L133.306 1049.04 L143.931 1059.66 L154.556 1049.04 L157.311 1051.84 Z" fill="#000000" fill-rule="nonzero" fill-opacity="1" /><path clip-path="url(#clip620)" d="M169.672 1073.37 L177.311 1073.37 L177.311 1047 L169.001 1048.67 L169.001 1044.41 L177.265 1042.74 L181.94 1042.74 L181.94 1073.37 L189.579 1073.37 L189.579 1077.3 L169.672 1077.3 L169.672 1073.37 Z" fill="#000000" fill-rule="nonzero" fill-opacity="1" /><path clip-path="url(#clip620)" d="M209.024 1045.82 Q205.413 1045.82 203.584 1049.38 Q201.778 1052.93 201.778 1060.05 Q201.778 1067.16 203.584 1070.73 Q205.413 1074.27 209.024 1074.27 Q212.658 1074.27 214.463 1070.73 Q216.292 1067.16 216.292 1060.05 Q216.292 1052.93 214.463 1049.38 Q212.658 1045.82 209.024 1045.82 M209.024 1042.12 Q214.834 1042.12 217.889 1046.72 Q220.968 1051.3 220.968 1060.05 Q220.968 1068.78 217.889 1073.39 Q214.834 1077.97 209.024 1077.97 Q203.214 1077.97 200.135 1073.39 Q197.079 1068.78 197.079 1060.05 Q197.079 1051.3 200.135 1046.72 Q203.214 1042.12 209.024 1042.12 Z" fill="#000000" fill-rule="nonzero" fill-opacity="1" /><path clip-path="url(#clip620)" d="M222.153 1021.81 L237.068 1021.81 L237.068 1025.01 L225.632 1025.01 L225.632 1031.89 Q226.46 1031.61 227.287 1031.48 Q228.115 1031.33 228.943 1031.33 Q233.645 1031.33 236.39 1033.9 Q239.136 1036.48 239.136 1040.88 Q239.136 1045.41 236.315 1047.93 Q233.494 1050.44 228.36 1050.44 Q226.592 1050.44 224.748 1050.13 Q222.924 1049.83 220.968 1049.23 L220.968 1045.41 Q222.661 1046.34 224.466 1046.79 Q226.272 1047.24 228.284 1047.24 Q231.538 1047.24 233.438 1045.53 Q235.337 1043.81 235.337 1040.88 Q235.337 1037.95 233.438 1036.24 Q231.538 1034.52 228.284 1034.52 Q226.761 1034.52 225.237 1034.86 Q223.733 1035.2 222.153 1035.92 L222.153 1021.81 Z" fill="#000000" fill-rule="nonzero" fill-opacity="1" /><path clip-path="url(#clip620)" d="M66.5939 654.671 L54.7884 673.12 L66.5939 673.12 L66.5939 654.671 M65.367 650.597 L71.2466 650.597 L71.2466 673.12 L76.1772 673.12 L76.1772 677.009 L71.2466 677.009 L71.2466 685.157 L66.5939 685.157 L66.5939 677.009 L50.9921 677.009 L50.9921 672.495 L65.367 650.597 Z" fill="#000000" fill-rule="nonzero" fill-opacity="1" /><path clip-path="url(#clip620)" d="M83.9086 679.277 L88.7928 679.277 L88.7928 685.157 L83.9086 685.157 L83.9086 679.277 Z" fill="#000000" fill-rule="nonzero" fill-opacity="1" /><path clip-path="url(#clip620)" d="M108.978 653.676 Q105.367 653.676 103.538 657.241 Q101.733 660.782 101.733 667.912 Q101.733 675.018 103.538 678.583 Q105.367 682.125 108.978 682.125 Q112.612 682.125 114.418 678.583 Q116.246 675.018 116.246 667.912 Q116.246 660.782 114.418 657.241 Q112.612 653.676 108.978 653.676 M108.978 649.972 Q114.788 649.972 117.844 654.578 Q120.922 659.162 120.922 667.912 Q120.922 676.639 117.844 681.245 Q114.788 685.828 108.978 685.828 Q103.168 685.828 100.089 681.245 Q97.0335 676.639 97.0335 667.912 Q97.0335 659.162 100.089 654.578 Q103.168 649.972 108.978 649.972 Z" fill="#000000" fill-rule="nonzero" fill-opacity="1" /><path clip-path="url(#clip620)" d="M157.311 659.694 L146.732 670.319 L157.311 680.898 L154.556 683.699 L143.931 673.074 L133.306 683.699 L130.575 680.898 L141.131 670.319 L130.575 659.694 L133.306 656.893 L143.931 667.518 L154.556 656.893 L157.311 659.694 Z" fill="#000000" fill-rule="nonzero" fill-opacity="1" /><path clip-path="url(#clip620)" d="M169.672 681.222 L177.311 681.222 L177.311 654.856 L169.001 656.523 L169.001 652.264 L177.265 650.597 L181.94 650.597 L181.94 681.222 L189.579 681.222 L189.579 685.157 L169.672 685.157 L169.672 681.222 Z" fill="#000000" fill-rule="nonzero" fill-opacity="1" /><path clip-path="url(#clip620)" d="M209.024 653.676 Q205.413 653.676 203.584 657.241 Q201.778 660.782 201.778 667.912 Q201.778 675.018 203.584 678.583 Q205.413 682.125 209.024 682.125 Q212.658 682.125 214.463 678.583 Q216.292 675.018 216.292 667.912 Q216.292 660.782 214.463 657.241 Q212.658 653.676 209.024 653.676 M209.024 649.972 Q214.834 649.972 217.889 654.578 Q220.968 659.162 220.968 667.912 Q220.968 676.639 217.889 681.245 Q214.834 685.828 209.024 685.828 Q203.214 685.828 200.135 681.245 Q197.079 676.639 197.079 667.912 Q197.079 659.162 200.135 654.578 Q203.214 649.972 209.024 649.972 Z" fill="#000000" fill-rule="nonzero" fill-opacity="1" /><path clip-path="url(#clip620)" d="M222.153 629.667 L237.068 629.667 L237.068 632.864 L225.632 632.864 L225.632 639.748 Q226.46 639.465 227.287 639.334 Q228.115 639.183 228.943 639.183 Q233.645 639.183 236.39 641.76 Q239.136 644.337 239.136 648.738 Q239.136 653.27 236.315 655.791 Q233.494 658.292 228.36 658.292 Q226.592 658.292 224.748 657.991 Q222.924 657.69 220.968 657.088 L220.968 653.27 Q222.661 654.192 224.466 654.643 Q226.272 655.095 228.284 655.095 Q231.538 655.095 233.438 653.383 Q235.337 651.672 235.337 648.738 Q235.337 645.804 233.438 644.092 Q231.538 642.381 228.284 642.381 Q226.761 642.381 225.237 642.719 Q223.733 643.058 222.153 643.772 L222.153 629.667 Z" fill="#000000" fill-rule="nonzero" fill-opacity="1" /><path clip-path="url(#clip620)" d="M64.3254 273.87 Q61.1773 273.87 59.3254 276.023 Q57.4967 278.176 57.4967 281.926 Q57.4967 285.653 59.3254 287.829 Q61.1773 289.982 64.3254 289.982 Q67.4735 289.982 69.3022 287.829 Q71.1541 285.653 71.1541 281.926 Q71.1541 278.176 69.3022 276.023 Q67.4735 273.87 64.3254 273.87 M73.6077 259.218 L73.6077 263.477 Q71.8485 262.644 70.0429 262.204 Q68.2606 261.764 66.5013 261.764 Q61.8717 261.764 59.418 264.889 Q56.9875 268.014 56.6402 274.333 Q58.006 272.32 60.0662 271.255 Q62.1263 270.167 64.6032 270.167 Q69.8115 270.167 72.8207 273.338 Q75.8531 276.486 75.8531 281.926 Q75.8531 287.25 72.705 290.468 Q69.5568 293.685 64.3254 293.685 Q58.33 293.685 55.1588 289.102 Q51.9875 284.495 51.9875 275.769 Q51.9875 267.574 55.8764 262.713 Q59.7652 257.829 66.3161 257.829 Q68.0754 257.829 69.8578 258.176 Q71.6633 258.523 73.6077 259.218 Z" fill="#000000" fill-rule="nonzero" fill-opacity="1" /><path clip-path="url(#clip620)" d="M83.9086 287.134 L88.7928 287.134 L88.7928 293.014 L83.9086 293.014 L83.9086 287.134 Z" fill="#000000" fill-rule="nonzero" fill-opacity="1" /><path clip-path="url(#clip620)" d="M108.978 261.533 Q105.367 261.533 103.538 265.097 Q101.733 268.639 101.733 275.769 Q101.733 282.875 103.538 286.44 Q105.367 289.982 108.978 289.982 Q112.612 289.982 114.418 286.44 Q116.246 282.875 116.246 275.769 Q116.246 268.639 114.418 265.097 Q112.612 261.533 108.978 261.533 M108.978 257.829 Q114.788 257.829 117.844 262.435 Q120.922 267.019 120.922 275.769 Q120.922 284.495 117.844 289.102 Q114.788 293.685 108.978 293.685 Q103.168 293.685 100.089 289.102 Q97.0335 284.495 97.0335 275.769 Q97.0335 267.019 100.089 262.435 Q103.168 257.829 108.978 257.829 Z" fill="#000000" fill-rule="nonzero" fill-opacity="1" /><path clip-path="url(#clip620)" d="M157.311 267.551 L146.732 278.176 L157.311 288.755 L154.556 291.556 L143.931 280.931 L133.306 291.556 L130.575 288.755 L141.131 278.176 L130.575 267.551 L133.306 264.75 L143.931 275.375 L154.556 264.75 L157.311 267.551 Z" fill="#000000" fill-rule="nonzero" fill-opacity="1" /><path clip-path="url(#clip620)" d="M169.672 289.079 L177.311 289.079 L177.311 262.713 L169.001 264.38 L169.001 260.121 L177.265 258.454 L181.94 258.454 L181.94 289.079 L189.579 289.079 L189.579 293.014 L169.672 293.014 L169.672 289.079 Z" fill="#000000" fill-rule="nonzero" fill-opacity="1" /><path clip-path="url(#clip620)" d="M209.024 261.533 Q205.413 261.533 203.584 265.097 Q201.778 268.639 201.778 275.769 Q201.778 282.875 203.584 286.44 Q205.413 289.982 209.024 289.982 Q212.658 289.982 214.463 286.44 Q216.292 282.875 216.292 275.769 Q216.292 268.639 214.463 265.097 Q212.658 261.533 209.024 261.533 M209.024 257.829 Q214.834 257.829 217.889 262.435 Q220.968 267.019 220.968 275.769 Q220.968 284.495 217.889 289.102 Q214.834 293.685 209.024 293.685 Q203.214 293.685 200.135 289.102 Q197.079 284.495 197.079 275.769 Q197.079 267.019 200.135 262.435 Q203.214 257.829 209.024 257.829 Z" fill="#000000" fill-rule="nonzero" fill-opacity="1" /><path clip-path="url(#clip620)" d="M222.153 237.524 L237.068 237.524 L237.068 240.721 L225.632 240.721 L225.632 247.604 Q226.46 247.322 227.287 247.191 Q228.115 247.04 228.943 247.04 Q233.645 247.04 236.39 249.617 Q239.136 252.194 239.136 256.595 Q239.136 261.127 236.315 263.648 Q233.494 266.149 228.36 266.149 Q226.592 266.149 224.748 265.848 Q222.924 265.547 220.968 264.945 L220.968 261.127 Q222.661 262.049 224.466 262.5 Q226.272 262.952 228.284 262.952 Q231.538 262.952 233.438 261.24 Q235.337 259.529 235.337 256.595 Q235.337 253.661 233.438 251.949 Q231.538 250.238 228.284 250.238 Q226.761 250.238 225.237 250.576 Q223.733 250.915 222.153 251.629 L222.153 237.524 Z" fill="#000000" fill-rule="nonzero" fill-opacity="1" /><path clip-path="url(#clip622)" d="M389.409 87.9763 L389.409 411.311 L868.799 411.311 L868.799 87.9763 L389.409 87.9763 L389.409 87.9763  Z" fill="#009af9" fill-rule="evenodd" fill-opacity="1"/>
<polyline clip-path="url(#clip622)" style="stroke:#000000; stroke-linecap:round; stroke-linejoin:round; stroke-width:4; stroke-opacity:1; fill:none" points="389.409,87.9763 389.409,411.311 868.799,411.311 868.799,87.9763 389.409,87.9763 "/>
<path clip-path="url(#clip622)" d="M1074.25 1058.93 L1074.25 1307.49 L1553.64 1307.49 L1553.64 1058.93 L1074.25 1058.93 L1074.25 1058.93  Z" fill="#009af9" fill-rule="evenodd" fill-opacity="1"/>
<polyline clip-path="url(#clip622)" style="stroke:#000000; stroke-linecap:round; stroke-linejoin:round; stroke-width:4; stroke-opacity:1; fill:none" points="1074.25,1058.93 1074.25,1307.49 1553.64,1307.49 1553.64,1058.93 1074.25,1058.93 "/>
<path clip-path="url(#clip622)" d="M1759.09 1353.69 L1759.09 1396.14 L2238.48 1396.14 L2238.48 1353.69 L1759.09 1353.69 L1759.09 1353.69  Z" fill="#009af9" fill-rule="evenodd" fill-opacity="1"/>
<polyline clip-path="url(#clip622)" style="stroke:#000000; stroke-linecap:round; stroke-linejoin:round; stroke-width:4; stroke-opacity:1; fill:none" points="1759.09,1353.69 1759.09,1396.14 2238.48,1396.14 2238.48,1353.69 1759.09,1353.69 "/>
<circle clip-path="url(#clip622)" style="fill:#009af9; stroke:none; fill-opacity:0" cx="629.104" cy="87.9763" r="2"/>
<circle clip-path="url(#clip622)" style="fill:#009af9; stroke:none; fill-opacity:0" cx="1313.95" cy="1058.93" r="2"/>
<circle clip-path="url(#clip622)" style="fill:#009af9; stroke:none; fill-opacity:0" cx="1998.79" cy="1353.69" r="2"/>
<path clip-path="url(#clip622)" d="M389.409 411.311 L389.409 750.138 L868.799 750.138 L868.799 411.311 L389.409 411.311 L389.409 411.311  Z" fill="#e26f46" fill-rule="evenodd" fill-opacity="1"/>
<polyline clip-path="url(#clip622)" style="stroke:#000000; stroke-linecap:round; stroke-linejoin:round; stroke-width:4; stroke-opacity:1; fill:none" points="389.409,411.311 389.409,750.138 868.799,750.138 868.799,411.311 389.409,411.311 "/>
<path clip-path="url(#clip622)" d="M1074.25 1307.49 L1074.25 1307.49 L1553.64 1307.49 L1553.64 1307.49 L1074.25 1307.49 L1074.25 1307.49  Z" fill="#e26f46" fill-rule="evenodd" fill-opacity="1"/>
<polyline clip-path="url(#clip622)" style="stroke:#000000; stroke-linecap:round; stroke-linejoin:round; stroke-width:4; stroke-opacity:1; fill:none" points="1074.25,1307.49 1074.25,1307.49 1553.64,1307.49 1074.25,1307.49 "/>
<path clip-path="url(#clip622)" d="M1759.09 1396.14 L1759.09 1404.65 L2238.48 1404.65 L2238.48 1396.14 L1759.09 1396.14 L1759.09 1396.14  Z" fill="#e26f46" fill-rule="evenodd" fill-opacity="1"/>
<polyline clip-path="url(#clip622)" style="stroke:#000000; stroke-linecap:round; stroke-linejoin:round; stroke-width:4; stroke-opacity:1; fill:none" points="1759.09,1396.14 1759.09,1404.65 2238.48,1404.65 2238.48,1396.14 1759.09,1396.14 "/>
<circle clip-path="url(#clip622)" style="fill:#e26f46; stroke:none; fill-opacity:0" cx="629.104" cy="411.311" r="2"/>
<circle clip-path="url(#clip622)" style="fill:#e26f46; stroke:none; fill-opacity:0" cx="1313.95" cy="1307.49" r="2"/>
<circle clip-path="url(#clip622)" style="fill:#e26f46; stroke:none; fill-opacity:0" cx="1998.79" cy="1396.14" r="2"/>
<path clip-path="url(#clip622)" d="M389.409 750.138 L389.409 854.611 L868.799 854.611 L868.799 750.138 L389.409 750.138 L389.409 750.138  Z" fill="#3da44d" fill-rule="evenodd" fill-opacity="1"/>
<polyline clip-path="url(#clip622)" style="stroke:#000000; stroke-linecap:round; stroke-linejoin:round; stroke-width:4; stroke-opacity:1; fill:none" points="389.409,750.138 389.409,854.611 868.799,854.611 868.799,750.138 389.409,750.138 "/>
<path clip-path="url(#clip622)" d="M1074.25 1307.49 L1074.25 1321.15 L1553.64 1321.15 L1553.64 1307.49 L1074.25 1307.49 L1074.25 1307.49  Z" fill="#3da44d" fill-rule="evenodd" fill-opacity="1"/>
<polyline clip-path="url(#clip622)" style="stroke:#000000; stroke-linecap:round; stroke-linejoin:round; stroke-width:4; stroke-opacity:1; fill:none" points="1074.25,1307.49 1074.25,1321.15 1553.64,1321.15 1553.64,1307.49 1074.25,1307.49 "/>
<path clip-path="url(#clip622)" d="M1759.09 1404.65 L1759.09 1411.3 L2238.48 1411.3 L2238.48 1404.65 L1759.09 1404.65 L1759.09 1404.65  Z" fill="#3da44d" fill-rule="evenodd" fill-opacity="1"/>
<polyline clip-path="url(#clip622)" style="stroke:#000000; stroke-linecap:round; stroke-linejoin:round; stroke-width:4; stroke-opacity:1; fill:none" points="1759.09,1404.65 1759.09,1411.3 2238.48,1411.3 2238.48,1404.65 1759.09,1404.65 "/>
<circle clip-path="url(#clip622)" style="fill:#3da44d; stroke:none; fill-opacity:0" cx="629.104" cy="750.138" r="2"/>
<circle clip-path="url(#clip622)" style="fill:#3da44d; stroke:none; fill-opacity:0" cx="1313.95" cy="1307.49" r="2"/>
<circle clip-path="url(#clip622)" style="fill:#3da44d; stroke:none; fill-opacity:0" cx="1998.79" cy="1404.65" r="2"/>
<path clip-path="url(#clip622)" d="M389.409 854.611 L389.409 854.611 L868.799 854.611 L868.799 854.611 L389.409 854.611 L389.409 854.611  Z" fill="#c271d2" fill-rule="evenodd" fill-opacity="1"/>
<polyline clip-path="url(#clip622)" style="stroke:#000000; stroke-linecap:round; stroke-linejoin:round; stroke-width:4; stroke-opacity:1; fill:none" points="389.409,854.611 389.409,854.611 868.799,854.611 389.409,854.611 "/>
<path clip-path="url(#clip622)" d="M1074.25 1321.15 L1074.25 1348.6 L1553.64 1348.6 L1553.64 1321.15 L1074.25 1321.15 L1074.25 1321.15  Z" fill="#c271d2" fill-rule="evenodd" fill-opacity="1"/>
<polyline clip-path="url(#clip622)" style="stroke:#000000; stroke-linecap:round; stroke-linejoin:round; stroke-width:4; stroke-opacity:1; fill:none" points="1074.25,1321.15 1074.25,1348.6 1553.64,1348.6 1553.64,1321.15 1074.25,1321.15 "/>
<path clip-path="url(#clip622)" d="M1759.09 1411.3 L1759.09 1411.3 L2238.48 1411.3 L2238.48 1411.3 L1759.09 1411.3 L1759.09 1411.3  Z" fill="#c271d2" fill-rule="evenodd" fill-opacity="1"/>
<polyline clip-path="url(#clip622)" style="stroke:#000000; stroke-linecap:round; stroke-linejoin:round; stroke-width:4; stroke-opacity:1; fill:none" points="1759.09,1411.3 1759.09,1411.3 2238.48,1411.3 1759.09,1411.3 "/>
<circle clip-path="url(#clip622)" style="fill:#c271d2; stroke:none; fill-opacity:0" cx="629.104" cy="854.611" r="2"/>
<circle clip-path="url(#clip622)" style="fill:#c271d2; stroke:none; fill-opacity:0" cx="1313.95" cy="1321.15" r="2"/>
<circle clip-path="url(#clip622)" style="fill:#c271d2; stroke:none; fill-opacity:0" cx="1998.79" cy="1411.3" r="2"/>
<path clip-path="url(#clip622)" d="M389.409 854.611 L389.409 1356.03 L868.799 1356.03 L868.799 854.611 L389.409 854.611 L389.409 854.611  Z" fill="#ac8d18" fill-rule="evenodd" fill-opacity="1"/>
<polyline clip-path="url(#clip622)" style="stroke:#000000; stroke-linecap:round; stroke-linejoin:round; stroke-width:4; stroke-opacity:1; fill:none" points="389.409,854.611 389.409,1356.03 868.799,1356.03 868.799,854.611 389.409,854.611 "/>
<path clip-path="url(#clip622)" d="M1074.25 1348.6 L1074.25 1445.1 L1553.64 1445.1 L1553.64 1348.6 L1074.25 1348.6 L1074.25 1348.6  Z" fill="#ac8d18" fill-rule="evenodd" fill-opacity="1"/>
<polyline clip-path="url(#clip622)" style="stroke:#000000; stroke-linecap:round; stroke-linejoin:round; stroke-width:4; stroke-opacity:1; fill:none" points="1074.25,1348.6 1074.25,1445.1 1553.64,1445.1 1553.64,1348.6 1074.25,1348.6 "/>
<path clip-path="url(#clip622)" d="M1759.09 1411.3 L1759.09 1439.03 L2238.48 1439.03 L2238.48 1411.3 L1759.09 1411.3 L1759.09 1411.3  Z" fill="#ac8d18" fill-rule="evenodd" fill-opacity="1"/>
<polyline clip-path="url(#clip622)" style="stroke:#000000; stroke-linecap:round; stroke-linejoin:round; stroke-width:4; stroke-opacity:1; fill:none" points="1759.09,1411.3 1759.09,1439.03 2238.48,1439.03 2238.48,1411.3 1759.09,1411.3 "/>
<circle clip-path="url(#clip622)" style="fill:#ac8d18; stroke:none; fill-opacity:0" cx="629.104" cy="854.611" r="2"/>
<circle clip-path="url(#clip622)" style="fill:#ac8d18; stroke:none; fill-opacity:0" cx="1313.95" cy="1348.6" r="2"/>
<circle clip-path="url(#clip622)" style="fill:#ac8d18; stroke:none; fill-opacity:0" cx="1998.79" cy="1411.3" r="2"/>
<path clip-path="url(#clip622)" d="M389.409 1356.03 L389.409 1445.72 L868.799 1445.72 L868.799 1356.03 L389.409 1356.03 L389.409 1356.03  Z" fill="#00a9ad" fill-rule="evenodd" fill-opacity="1"/>
<polyline clip-path="url(#clip622)" style="stroke:#000000; stroke-linecap:round; stroke-linejoin:round; stroke-width:4; stroke-opacity:1; fill:none" points="389.409,1356.03 389.409,1445.72 868.799,1445.72 868.799,1356.03 389.409,1356.03 "/>
<path clip-path="url(#clip622)" d="M1074.25 1445.1 L1074.25 1445.72 L1553.64 1445.72 L1553.64 1445.1 L1074.25 1445.1 L1074.25 1445.1  Z" fill="#00a9ad" fill-rule="evenodd" fill-opacity="1"/>
<polyline clip-path="url(#clip622)" style="stroke:#000000; stroke-linecap:round; stroke-linejoin:round; stroke-width:4; stroke-opacity:1; fill:none" points="1074.25,1445.1 1074.25,1445.72 1553.64,1445.72 1553.64,1445.1 1074.25,1445.1 "/>
<path clip-path="url(#clip622)" d="M1759.09 1439.03 L1759.09 1445.72 L2238.48 1445.72 L2238.48 1439.03 L1759.09 1439.03 L1759.09 1439.03  Z" fill="#00a9ad" fill-rule="evenodd" fill-opacity="1"/>
<polyline clip-path="url(#clip622)" style="stroke:#000000; stroke-linecap:round; stroke-linejoin:round; stroke-width:4; stroke-opacity:1; fill:none" points="1759.09,1439.03 1759.09,1445.72 2238.48,1445.72 2238.48,1439.03 1759.09,1439.03 "/>
<circle clip-path="url(#clip622)" style="fill:#00a9ad; stroke:none; fill-opacity:0" cx="629.104" cy="1356.03" r="2"/>
<circle clip-path="url(#clip622)" style="fill:#00a9ad; stroke:none; fill-opacity:0" cx="1313.95" cy="1445.1" r="2"/>
<circle clip-path="url(#clip622)" style="fill:#00a9ad; stroke:none; fill-opacity:0" cx="1998.79" cy="1439.03" r="2"/>
<path clip-path="url(#clip620)" d="M1773.38 458.098 L2283.5 458.098 L2283.5 95.2176 L1773.38 95.2176  Z" fill="#ffffff" fill-rule="evenodd" fill-opacity="1"/>
<polyline clip-path="url(#clip620)" style="stroke:#000000; stroke-linecap:round; stroke-linejoin:round; stroke-width:4; stroke-opacity:1; fill:none" points="1773.38,458.098 2283.5,458.098 2283.5,95.2176 1773.38,95.2176 1773.38,458.098 "/>
<path clip-path="url(#clip620)" d="M1796.47 167.794 L1934.97 167.794 L1934.97 126.322 L1796.47 126.322 L1796.47 167.794  Z" fill="#009af9" fill-rule="evenodd" fill-opacity="1"/>
<polyline clip-path="url(#clip620)" style="stroke:#000000; stroke-linecap:round; stroke-linejoin:round; stroke-width:4; stroke-opacity:1; fill:none" points="1796.47,167.794 1934.97,167.794 1934.97,126.322 1796.47,126.322 1796.47,167.794 "/>
<path clip-path="url(#clip620)" d="M1958.06 129.778 L1962.78 129.778 L1970.05 158.99 L1977.29 129.778 L1982.55 129.778 L1989.82 158.99 L1997.06 129.778 L2001.81 129.778 L1993.13 164.338 L1987.25 164.338 L1979.96 134.338 L1972.59 164.338 L1966.72 164.338 L1958.06 129.778 Z" fill="#000000" fill-rule="nonzero" fill-opacity="1" /><path clip-path="url(#clip620)" d="M2006.78 138.412 L2011.04 138.412 L2011.04 164.338 L2006.78 164.338 L2006.78 138.412 M2006.78 128.319 L2011.04 128.319 L2011.04 133.713 L2006.78 133.713 L2006.78 128.319 Z" fill="#000000" fill-rule="nonzero" fill-opacity="1" /><path clip-path="url(#clip620)" d="M2041.51 148.689 L2041.51 164.338 L2037.25 164.338 L2037.25 148.828 Q2037.25 145.148 2035.81 143.319 Q2034.38 141.49 2031.51 141.49 Q2028.06 141.49 2026.07 143.69 Q2024.08 145.889 2024.08 149.685 L2024.08 164.338 L2019.79 164.338 L2019.79 138.412 L2024.08 138.412 L2024.08 142.44 Q2025.6 140.102 2027.66 138.944 Q2029.75 137.787 2032.46 137.787 Q2036.92 137.787 2039.21 140.565 Q2041.51 143.319 2041.51 148.689 Z" fill="#000000" fill-rule="nonzero" fill-opacity="1" /><path clip-path="url(#clip620)" d="M2067.06 142.347 L2067.06 128.319 L2071.32 128.319 L2071.32 164.338 L2067.06 164.338 L2067.06 160.449 Q2065.72 162.763 2063.66 163.898 Q2061.62 165.009 2058.75 165.009 Q2054.05 165.009 2051.09 161.259 Q2048.15 157.509 2048.15 151.398 Q2048.15 145.287 2051.09 141.537 Q2054.05 137.787 2058.75 137.787 Q2061.62 137.787 2063.66 138.921 Q2065.72 140.032 2067.06 142.347 M2052.55 151.398 Q2052.55 156.097 2054.47 158.782 Q2056.41 161.444 2059.79 161.444 Q2063.17 161.444 2065.12 158.782 Q2067.06 156.097 2067.06 151.398 Q2067.06 146.699 2065.12 144.037 Q2063.17 141.352 2059.79 141.352 Q2056.41 141.352 2054.47 144.037 Q2052.55 146.699 2052.55 151.398 Z" fill="#000000" fill-rule="nonzero" fill-opacity="1" /><path clip-path="url(#clip620)" d="M1796.47 219.634 L1934.97 219.634 L1934.97 178.162 L1796.47 178.162 L1796.47 219.634  Z" fill="#e26f46" fill-rule="evenodd" fill-opacity="1"/>
<polyline clip-path="url(#clip620)" style="stroke:#000000; stroke-linecap:round; stroke-linejoin:round; stroke-width:4; stroke-opacity:1; fill:none" points="1796.47,219.634 1934.97,219.634 1934.97,178.162 1796.47,178.162 1796.47,219.634 "/>
<path clip-path="url(#clip620)" d="M1962.73 185.46 L1962.73 198.446 L1968.61 198.446 Q1971.88 198.446 1973.66 196.756 Q1975.44 195.067 1975.44 191.942 Q1975.44 188.84 1973.66 187.15 Q1971.88 185.46 1968.61 185.46 L1962.73 185.46 M1958.06 181.618 L1968.61 181.618 Q1974.42 181.618 1977.39 184.256 Q1980.37 186.872 1980.37 191.942 Q1980.37 197.057 1977.39 199.673 Q1974.42 202.289 1968.61 202.289 L1962.73 202.289 L1962.73 216.178 L1958.06 216.178 L1958.06 181.618 Z" fill="#000000" fill-rule="nonzero" fill-opacity="1" /><path clip-path="url(#clip620)" d="M1995.56 216.178 L1982.36 181.618 L1987.25 181.618 L1998.2 210.715 L2009.17 181.618 L2014.03 181.618 L2000.86 216.178 L1995.56 216.178 Z" fill="#000000" fill-rule="nonzero" fill-opacity="1" /><path clip-path="url(#clip620)" d="M1796.47 271.474 L1934.97 271.474 L1934.97 230.002 L1796.47 230.002 L1796.47 271.474  Z" fill="#3da44d" fill-rule="evenodd" fill-opacity="1"/>
<polyline clip-path="url(#clip620)" style="stroke:#000000; stroke-linecap:round; stroke-linejoin:round; stroke-width:4; stroke-opacity:1; fill:none" points="1796.47,271.474 1934.97,271.474 1934.97,230.002 1796.47,230.002 1796.47,271.474 "/>
<path clip-path="url(#clip620)" d="M1983.61 263.087 L1983.61 253.805 L1975.97 253.805 L1975.97 249.962 L1988.24 249.962 L1988.24 264.8 Q1985.53 266.721 1982.27 267.717 Q1979.01 268.689 1975.3 268.689 Q1967.2 268.689 1962.62 263.967 Q1958.06 259.221 1958.06 250.772 Q1958.06 242.3 1962.62 237.578 Q1967.2 232.833 1975.3 232.833 Q1978.68 232.833 1981.72 233.666 Q1984.77 234.499 1987.34 236.12 L1987.34 241.096 Q1984.75 238.897 1981.83 237.786 Q1978.91 236.675 1975.7 236.675 Q1969.35 236.675 1966.16 240.217 Q1962.99 243.758 1962.99 250.772 Q1962.99 257.763 1966.16 261.305 Q1969.35 264.846 1975.7 264.846 Q1978.17 264.846 1980.12 264.43 Q1982.06 263.99 1983.61 263.087 Z" fill="#000000" fill-rule="nonzero" fill-opacity="1" /><path clip-path="url(#clip620)" d="M2008.38 254.985 Q2003.22 254.985 2001.23 256.166 Q1999.24 257.346 1999.24 260.194 Q1999.24 262.462 2000.72 263.805 Q2002.22 265.124 2004.79 265.124 Q2008.34 265.124 2010.46 262.624 Q2012.62 260.101 2012.62 255.934 L2012.62 254.985 L2008.38 254.985 M2016.88 253.226 L2016.88 268.018 L2012.62 268.018 L2012.62 264.082 Q2011.16 266.443 2008.98 267.578 Q2006.81 268.689 2003.66 268.689 Q1999.68 268.689 1997.32 266.467 Q1994.98 264.221 1994.98 260.471 Q1994.98 256.096 1997.9 253.874 Q2000.84 251.652 2006.65 251.652 L2012.62 251.652 L2012.62 251.235 Q2012.62 248.295 2010.67 246.698 Q2008.75 245.078 2005.26 245.078 Q2003.03 245.078 2000.93 245.61 Q1998.82 246.143 1996.88 247.207 L1996.88 243.272 Q1999.21 242.37 2001.41 241.93 Q2003.61 241.467 2005.7 241.467 Q2011.32 241.467 2014.1 244.383 Q2016.88 247.3 2016.88 253.226 Z" fill="#000000" fill-rule="nonzero" fill-opacity="1" /><path clip-path="url(#clip620)" d="M2042.18 242.856 L2042.18 246.883 Q2040.37 245.957 2038.43 245.495 Q2036.48 245.032 2034.4 245.032 Q2031.23 245.032 2029.63 246.004 Q2028.06 246.976 2028.06 248.92 Q2028.06 250.402 2029.19 251.258 Q2030.33 252.092 2033.75 252.856 L2035.21 253.18 Q2039.75 254.152 2041.65 255.934 Q2043.57 257.694 2043.57 260.865 Q2043.57 264.476 2040.7 266.582 Q2037.85 268.689 2032.85 268.689 Q2030.77 268.689 2028.5 268.272 Q2026.25 267.879 2023.75 267.068 L2023.75 262.67 Q2026.11 263.897 2028.4 264.522 Q2030.7 265.124 2032.94 265.124 Q2035.95 265.124 2037.57 264.106 Q2039.19 263.064 2039.19 261.189 Q2039.19 259.453 2038.01 258.527 Q2036.85 257.601 2032.9 256.744 L2031.41 256.397 Q2027.46 255.564 2025.7 253.851 Q2023.94 252.115 2023.94 249.106 Q2023.94 245.448 2026.53 243.458 Q2029.12 241.467 2033.89 241.467 Q2036.25 241.467 2038.34 241.814 Q2040.42 242.161 2042.18 242.856 Z" fill="#000000" fill-rule="nonzero" fill-opacity="1" /><path clip-path="url(#clip620)" d="M1796.47 323.314 L1934.97 323.314 L1934.97 281.842 L1796.47 281.842 L1796.47 323.314  Z" fill="#c271d2" fill-rule="evenodd" fill-opacity="1"/>
<polyline clip-path="url(#clip620)" style="stroke:#000000; stroke-linecap:round; stroke-linejoin:round; stroke-width:4; stroke-opacity:1; fill:none" points="1796.47,323.314 1934.97,323.314 1934.97,281.842 1796.47,281.842 1796.47,323.314 "/>
<path clip-path="url(#clip620)" d="M1958.06 285.298 L1962.73 285.298 L1962.73 299.464 L1979.72 299.464 L1979.72 285.298 L1984.4 285.298 L1984.4 319.858 L1979.72 319.858 L1979.72 303.399 L1962.73 303.399 L1962.73 319.858 L1958.06 319.858 L1958.06 285.298 Z" fill="#000000" fill-rule="nonzero" fill-opacity="1" /><path clip-path="url(#clip620)" d="M2004.31 322.265 Q2002.5 326.895 2000.79 328.307 Q1999.08 329.719 1996.21 329.719 L1992.8 329.719 L1992.8 326.154 L1995.3 326.154 Q1997.06 326.154 1998.03 325.32 Q1999.01 324.487 2000.19 321.385 L2000.95 319.441 L1990.47 293.932 L1994.98 293.932 L2003.08 314.209 L2011.18 293.932 L2015.7 293.932 L2004.31 322.265 Z" fill="#000000" fill-rule="nonzero" fill-opacity="1" /><path clip-path="url(#clip620)" d="M2038.64 297.867 L2038.64 283.839 L2042.9 283.839 L2042.9 319.858 L2038.64 319.858 L2038.64 315.969 Q2037.29 318.283 2035.23 319.418 Q2033.2 320.529 2030.33 320.529 Q2025.63 320.529 2022.66 316.779 Q2019.72 313.029 2019.72 306.918 Q2019.72 300.807 2022.66 297.057 Q2025.63 293.307 2030.33 293.307 Q2033.2 293.307 2035.23 294.441 Q2037.29 295.552 2038.64 297.867 M2024.12 306.918 Q2024.12 311.617 2026.04 314.302 Q2027.99 316.964 2031.37 316.964 Q2034.75 316.964 2036.69 314.302 Q2038.64 311.617 2038.64 306.918 Q2038.64 302.219 2036.69 299.557 Q2034.75 296.872 2031.37 296.872 Q2027.99 296.872 2026.04 299.557 Q2024.12 302.219 2024.12 306.918 Z" fill="#000000" fill-rule="nonzero" fill-opacity="1" /><path clip-path="url(#clip620)" d="M2066.69 297.913 Q2065.97 297.497 2065.12 297.311 Q2064.28 297.103 2063.27 297.103 Q2059.65 297.103 2057.71 299.464 Q2055.79 301.802 2055.79 306.2 L2055.79 319.858 L2051.51 319.858 L2051.51 293.932 L2055.79 293.932 L2055.79 297.96 Q2057.13 295.598 2059.28 294.464 Q2061.44 293.307 2064.52 293.307 Q2064.96 293.307 2065.49 293.376 Q2066.02 293.423 2066.67 293.538 L2066.69 297.913 Z" fill="#000000" fill-rule="nonzero" fill-opacity="1" /><path clip-path="url(#clip620)" d="M2080.16 296.918 Q2076.74 296.918 2074.75 299.603 Q2072.76 302.265 2072.76 306.918 Q2072.76 311.571 2074.72 314.256 Q2076.71 316.918 2080.16 316.918 Q2083.57 316.918 2085.56 314.233 Q2087.55 311.547 2087.55 306.918 Q2087.55 302.311 2085.56 299.626 Q2083.57 296.918 2080.16 296.918 M2080.16 293.307 Q2085.72 293.307 2088.89 296.918 Q2092.06 300.529 2092.06 306.918 Q2092.06 313.284 2088.89 316.918 Q2085.72 320.529 2080.16 320.529 Q2074.58 320.529 2071.41 316.918 Q2068.27 313.284 2068.27 306.918 Q2068.27 300.529 2071.41 296.918 Q2074.58 293.307 2080.16 293.307 Z" fill="#000000" fill-rule="nonzero" fill-opacity="1" /><path clip-path="url(#clip620)" d="M1796.47 375.154 L1934.97 375.154 L1934.97 333.682 L1796.47 333.682 L1796.47 375.154  Z" fill="#ac8d18" fill-rule="evenodd" fill-opacity="1"/>
<polyline clip-path="url(#clip620)" style="stroke:#000000; stroke-linecap:round; stroke-linejoin:round; stroke-width:4; stroke-opacity:1; fill:none" points="1796.47,375.154 1934.97,375.154 1934.97,333.682 1796.47,333.682 1796.47,375.154 "/>
<path clip-path="url(#clip620)" d="M1962.73 355.193 L1962.73 367.855 L1970.23 367.855 Q1974.01 367.855 1975.81 366.304 Q1977.64 364.73 1977.64 361.512 Q1977.64 358.272 1975.81 356.744 Q1974.01 355.193 1970.23 355.193 L1962.73 355.193 M1962.73 340.98 L1962.73 351.397 L1969.65 351.397 Q1973.08 351.397 1974.75 350.124 Q1976.44 348.827 1976.44 346.188 Q1976.44 343.573 1974.75 342.276 Q1973.08 340.98 1969.65 340.98 L1962.73 340.98 M1958.06 337.138 L1970 337.138 Q1975.35 337.138 1978.24 339.36 Q1981.14 341.582 1981.14 345.679 Q1981.14 348.85 1979.65 350.725 Q1978.17 352.6 1975.3 353.063 Q1978.75 353.804 1980.65 356.165 Q1982.57 358.503 1982.57 362.022 Q1982.57 366.651 1979.42 369.174 Q1976.28 371.698 1970.47 371.698 L1958.06 371.698 L1958.06 337.138 Z" fill="#000000" fill-rule="nonzero" fill-opacity="1" /><path clip-path="url(#clip620)" d="M2002.18 358.665 Q1997.02 358.665 1995.03 359.846 Q1993.03 361.026 1993.03 363.874 Q1993.03 366.142 1994.52 367.485 Q1996.02 368.804 1998.59 368.804 Q2002.13 368.804 2004.26 366.304 Q2006.41 363.781 2006.41 359.614 L2006.41 358.665 L2002.18 358.665 M2010.67 356.906 L2010.67 371.698 L2006.41 371.698 L2006.41 367.762 Q2004.96 370.123 2002.78 371.258 Q2000.6 372.369 1997.46 372.369 Q1993.47 372.369 1991.11 370.147 Q1988.78 367.901 1988.78 364.151 Q1988.78 359.776 1991.69 357.554 Q1994.63 355.332 2000.44 355.332 L2006.41 355.332 L2006.41 354.915 Q2006.41 351.975 2004.47 350.378 Q2002.55 348.758 1999.05 348.758 Q1996.83 348.758 1994.72 349.29 Q1992.62 349.823 1990.67 350.887 L1990.67 346.952 Q1993.01 346.05 1995.21 345.61 Q1997.41 345.147 1999.49 345.147 Q2005.12 345.147 2007.9 348.063 Q2010.67 350.98 2010.67 356.906 Z" fill="#000000" fill-rule="nonzero" fill-opacity="1" /><path clip-path="url(#clip620)" d="M2023.66 338.411 L2023.66 345.772 L2032.43 345.772 L2032.43 349.082 L2023.66 349.082 L2023.66 363.156 Q2023.66 366.327 2024.52 367.23 Q2025.4 368.133 2028.06 368.133 L2032.43 368.133 L2032.43 371.698 L2028.06 371.698 Q2023.13 371.698 2021.25 369.869 Q2019.38 368.017 2019.38 363.156 L2019.38 349.082 L2016.25 349.082 L2016.25 345.772 L2019.38 345.772 L2019.38 338.411 L2023.66 338.411 Z" fill="#000000" fill-rule="nonzero" fill-opacity="1" /><path clip-path="url(#clip620)" d="M2042.25 338.411 L2042.25 345.772 L2051.02 345.772 L2051.02 349.082 L2042.25 349.082 L2042.25 363.156 Q2042.25 366.327 2043.1 367.23 Q2043.98 368.133 2046.65 368.133 L2051.02 368.133 L2051.02 371.698 L2046.65 371.698 Q2041.71 371.698 2039.84 369.869 Q2037.96 368.017 2037.96 363.156 L2037.96 349.082 L2034.84 349.082 L2034.84 345.772 L2037.96 345.772 L2037.96 338.411 L2042.25 338.411 Z" fill="#000000" fill-rule="nonzero" fill-opacity="1" /><path clip-path="url(#clip620)" d="M2078.8 357.67 L2078.8 359.753 L2059.21 359.753 Q2059.49 364.151 2061.85 366.466 Q2064.24 368.758 2068.47 368.758 Q2070.93 368.758 2073.22 368.156 Q2075.53 367.554 2077.8 366.35 L2077.8 370.378 Q2075.51 371.35 2073.1 371.86 Q2070.7 372.369 2068.22 372.369 Q2062.02 372.369 2058.38 368.758 Q2054.77 365.147 2054.77 358.989 Q2054.77 352.624 2058.2 348.897 Q2061.65 345.147 2067.48 345.147 Q2072.71 345.147 2075.74 348.526 Q2078.8 351.883 2078.8 357.67 M2074.54 356.42 Q2074.49 352.925 2072.57 350.841 Q2070.67 348.758 2067.52 348.758 Q2063.96 348.758 2061.81 350.772 Q2059.68 352.786 2059.35 356.443 L2074.54 356.42 Z" fill="#000000" fill-rule="nonzero" fill-opacity="1" /><path clip-path="url(#clip620)" d="M2100.81 349.753 Q2100.09 349.337 2099.24 349.151 Q2098.4 348.943 2097.39 348.943 Q2093.77 348.943 2091.83 351.304 Q2089.91 353.642 2089.91 358.04 L2089.91 371.698 L2085.63 371.698 L2085.63 345.772 L2089.91 345.772 L2089.91 349.8 Q2091.25 347.438 2093.4 346.304 Q2095.56 345.147 2098.64 345.147 Q2099.08 345.147 2099.61 345.216 Q2100.14 345.263 2100.79 345.378 L2100.81 349.753 Z" fill="#000000" fill-rule="nonzero" fill-opacity="1" /><path clip-path="url(#clip620)" d="M2116.07 374.105 Q2114.26 378.735 2112.55 380.147 Q2110.83 381.559 2107.96 381.559 L2104.56 381.559 L2104.56 377.994 L2107.06 377.994 Q2108.82 377.994 2109.79 377.16 Q2110.77 376.327 2111.95 373.225 L2112.71 371.281 L2102.22 345.772 L2106.74 345.772 L2114.84 366.049 L2122.94 345.772 L2127.46 345.772 L2116.07 374.105 Z" fill="#000000" fill-rule="nonzero" fill-opacity="1" /><path clip-path="url(#clip620)" d="M1796.47 426.994 L1934.97 426.994 L1934.97 385.522 L1796.47 385.522 L1796.47 426.994  Z" fill="#00a9ad" fill-rule="evenodd" fill-opacity="1"/>
<polyline clip-path="url(#clip620)" style="stroke:#000000; stroke-linecap:round; stroke-linejoin:round; stroke-width:4; stroke-opacity:1; fill:none" points="1796.47,426.994 1934.97,426.994 1934.97,385.522 1796.47,385.522 1796.47,426.994 "/>
<path clip-path="url(#clip620)" d="M1958.06 388.978 L1987.29 388.978 L1987.29 392.913 L1975.03 392.913 L1975.03 423.538 L1970.33 423.538 L1970.33 392.913 L1958.06 392.913 L1958.06 388.978 Z" fill="#000000" fill-rule="nonzero" fill-opacity="1" /><path clip-path="url(#clip620)" d="M1999.68 401.593 Q1998.96 401.177 1998.1 400.991 Q1997.27 400.783 1996.25 400.783 Q1992.64 400.783 1990.7 403.144 Q1988.78 405.482 1988.78 409.88 L1988.78 423.538 L1984.49 423.538 L1984.49 397.612 L1988.78 397.612 L1988.78 401.64 Q1990.12 399.278 1992.27 398.144 Q1994.42 396.987 1997.5 396.987 Q1997.94 396.987 1998.47 397.056 Q1999.01 397.103 1999.65 397.218 L1999.68 401.593 Z" fill="#000000" fill-rule="nonzero" fill-opacity="1" /><path clip-path="url(#clip620)" d="M2015.93 410.505 Q2010.77 410.505 2008.78 411.686 Q2006.78 412.866 2006.78 415.714 Q2006.78 417.982 2008.27 419.325 Q2009.77 420.644 2012.34 420.644 Q2015.88 420.644 2018.01 418.144 Q2020.16 415.621 2020.16 411.454 L2020.16 410.505 L2015.93 410.505 M2024.42 408.746 L2024.42 423.538 L2020.16 423.538 L2020.16 419.602 Q2018.71 421.963 2016.53 423.098 Q2014.35 424.209 2011.21 424.209 Q2007.22 424.209 2004.86 421.987 Q2002.53 419.741 2002.53 415.991 Q2002.53 411.616 2005.44 409.394 Q2008.38 407.172 2014.19 407.172 L2020.16 407.172 L2020.16 406.755 Q2020.16 403.815 2018.22 402.218 Q2016.3 400.598 2012.8 400.598 Q2010.58 400.598 2008.47 401.13 Q2006.37 401.663 2004.42 402.727 L2004.42 398.792 Q2006.76 397.89 2008.96 397.45 Q2011.16 396.987 2013.24 396.987 Q2018.87 396.987 2021.65 399.903 Q2024.42 402.82 2024.42 408.746 Z" fill="#000000" fill-rule="nonzero" fill-opacity="1" /><path clip-path="url(#clip620)" d="M2054.75 407.889 L2054.75 423.538 L2050.49 423.538 L2050.49 408.028 Q2050.49 404.348 2049.05 402.519 Q2047.62 400.69 2044.75 400.69 Q2041.3 400.69 2039.31 402.89 Q2037.32 405.089 2037.32 408.885 L2037.32 423.538 L2033.03 423.538 L2033.03 397.612 L2037.32 397.612 L2037.32 401.64 Q2038.84 399.302 2040.9 398.144 Q2042.99 396.987 2045.7 396.987 Q2050.16 396.987 2052.46 399.765 Q2054.75 402.519 2054.75 407.889 Z" fill="#000000" fill-rule="nonzero" fill-opacity="1" /><path clip-path="url(#clip620)" d="M2079.77 398.376 L2079.77 402.403 Q2077.96 401.477 2076.02 401.015 Q2074.08 400.552 2071.99 400.552 Q2068.82 400.552 2067.22 401.524 Q2065.65 402.496 2065.65 404.44 Q2065.65 405.922 2066.78 406.778 Q2067.92 407.612 2071.34 408.376 L2072.8 408.7 Q2077.34 409.672 2079.24 411.454 Q2081.16 413.214 2081.16 416.385 Q2081.16 419.996 2078.29 422.102 Q2075.44 424.209 2070.44 424.209 Q2068.36 424.209 2066.09 423.792 Q2063.84 423.399 2061.34 422.588 L2061.34 418.19 Q2063.71 419.417 2066 420.042 Q2068.29 420.644 2070.53 420.644 Q2073.54 420.644 2075.16 419.626 Q2076.78 418.584 2076.78 416.709 Q2076.78 414.973 2075.6 414.047 Q2074.45 413.121 2070.49 412.264 L2069.01 411.917 Q2065.05 411.084 2063.29 409.371 Q2061.53 407.635 2061.53 404.626 Q2061.53 400.968 2064.12 398.978 Q2066.71 396.987 2071.48 396.987 Q2073.84 396.987 2075.93 397.334 Q2078.01 397.681 2079.77 398.376 Z" fill="#000000" fill-rule="nonzero" fill-opacity="1" /><path clip-path="url(#clip620)" d="M2108.13 402.589 Q2109.72 399.718 2111.95 398.353 Q2114.17 396.987 2117.18 396.987 Q2121.23 396.987 2123.43 399.834 Q2125.63 402.658 2125.63 407.889 L2125.63 423.538 L2121.34 423.538 L2121.34 408.028 Q2121.34 404.302 2120.02 402.496 Q2118.71 400.69 2116 400.69 Q2112.69 400.69 2110.77 402.89 Q2108.84 405.089 2108.84 408.885 L2108.84 423.538 L2104.56 423.538 L2104.56 408.028 Q2104.56 404.278 2103.24 402.496 Q2101.92 400.69 2099.17 400.69 Q2095.9 400.69 2093.98 402.913 Q2092.06 405.112 2092.06 408.885 L2092.06 423.538 L2087.78 423.538 L2087.78 397.612 L2092.06 397.612 L2092.06 401.64 Q2093.52 399.255 2095.56 398.121 Q2097.59 396.987 2100.39 396.987 Q2103.22 396.987 2105.19 398.422 Q2107.18 399.857 2108.13 402.589 Z" fill="#000000" fill-rule="nonzero" fill-opacity="1" /><path clip-path="url(#clip620)" d="M2134.12 397.612 L2138.38 397.612 L2138.38 423.538 L2134.12 423.538 L2134.12 397.612 M2134.12 387.519 L2138.38 387.519 L2138.38 392.913 L2134.12 392.913 L2134.12 387.519 Z" fill="#000000" fill-rule="nonzero" fill-opacity="1" /><path clip-path="url(#clip620)" d="M2163.82 398.376 L2163.82 402.403 Q2162.02 401.477 2160.07 401.015 Q2158.13 400.552 2156.04 400.552 Q2152.87 400.552 2151.27 401.524 Q2149.7 402.496 2149.7 404.44 Q2149.7 405.922 2150.83 406.778 Q2151.97 407.612 2155.39 408.376 L2156.85 408.7 Q2161.39 409.672 2163.29 411.454 Q2165.21 413.214 2165.21 416.385 Q2165.21 419.996 2162.34 422.102 Q2159.49 424.209 2154.49 424.209 Q2152.41 424.209 2150.14 423.792 Q2147.89 423.399 2145.39 422.588 L2145.39 418.19 Q2147.76 419.417 2150.05 420.042 Q2152.34 420.644 2154.58 420.644 Q2157.59 420.644 2159.21 419.626 Q2160.83 418.584 2160.83 416.709 Q2160.83 414.973 2159.65 414.047 Q2158.5 413.121 2154.54 412.264 L2153.06 411.917 Q2149.1 411.084 2147.34 409.371 Q2145.58 407.635 2145.58 404.626 Q2145.58 400.968 2148.17 398.978 Q2150.77 396.987 2155.53 396.987 Q2157.89 396.987 2159.98 397.334 Q2162.06 397.681 2163.82 398.376 Z" fill="#000000" fill-rule="nonzero" fill-opacity="1" /><path clip-path="url(#clip620)" d="M2188.52 398.376 L2188.52 402.403 Q2186.71 401.477 2184.77 401.015 Q2182.83 400.552 2180.74 400.552 Q2177.57 400.552 2175.97 401.524 Q2174.4 402.496 2174.4 404.44 Q2174.4 405.922 2175.53 406.778 Q2176.67 407.612 2180.09 408.376 L2181.55 408.7 Q2186.09 409.672 2187.99 411.454 Q2189.91 413.214 2189.91 416.385 Q2189.91 419.996 2187.04 422.102 Q2184.19 424.209 2179.19 424.209 Q2177.11 424.209 2174.84 423.792 Q2172.59 423.399 2170.09 422.588 L2170.09 418.19 Q2172.45 419.417 2174.75 420.042 Q2177.04 420.644 2179.28 420.644 Q2182.29 420.644 2183.91 419.626 Q2185.53 418.584 2185.53 416.709 Q2185.53 414.973 2184.35 414.047 Q2183.2 413.121 2179.24 412.264 L2177.76 411.917 Q2173.8 411.084 2172.04 409.371 Q2170.28 407.635 2170.28 404.626 Q2170.28 400.968 2172.87 398.978 Q2175.46 396.987 2180.23 396.987 Q2182.59 396.987 2184.68 397.334 Q2186.76 397.681 2188.52 398.376 Z" fill="#000000" fill-rule="nonzero" fill-opacity="1" /><path clip-path="url(#clip620)" d="M2196.69 397.612 L2200.95 397.612 L2200.95 423.538 L2196.69 423.538 L2196.69 397.612 M2196.69 387.519 L2200.95 387.519 L2200.95 392.913 L2196.69 392.913 L2196.69 387.519 Z" fill="#000000" fill-rule="nonzero" fill-opacity="1" /><path clip-path="url(#clip620)" d="M2219.91 400.598 Q2216.48 400.598 2214.49 403.283 Q2212.5 405.945 2212.5 410.598 Q2212.5 415.251 2214.47 417.936 Q2216.46 420.598 2219.91 420.598 Q2223.31 420.598 2225.3 417.913 Q2227.29 415.227 2227.29 410.598 Q2227.29 405.991 2225.3 403.306 Q2223.31 400.598 2219.91 400.598 M2219.91 396.987 Q2225.46 396.987 2228.64 400.598 Q2231.81 404.209 2231.81 410.598 Q2231.81 416.964 2228.64 420.598 Q2225.46 424.209 2219.91 424.209 Q2214.33 424.209 2211.16 420.598 Q2208.01 416.964 2208.01 410.598 Q2208.01 404.209 2211.16 400.598 Q2214.33 396.987 2219.91 396.987 Z" fill="#000000" fill-rule="nonzero" fill-opacity="1" /><path clip-path="url(#clip620)" d="M2260.42 407.889 L2260.42 423.538 L2256.16 423.538 L2256.16 408.028 Q2256.16 404.348 2254.72 402.519 Q2253.29 400.69 2250.42 400.69 Q2246.97 400.69 2244.98 402.89 Q2242.99 405.089 2242.99 408.885 L2242.99 423.538 L2238.7 423.538 L2238.7 397.612 L2242.99 397.612 L2242.99 401.64 Q2244.51 399.302 2246.57 398.144 Q2248.66 396.987 2251.37 396.987 Q2255.83 396.987 2258.13 399.765 Q2260.42 402.519 2260.42 407.889 Z" fill="#000000" fill-rule="nonzero" fill-opacity="1" /></svg>
