<?xml version="1.0" encoding="utf-8"?>
<svg xmlns="http://www.w3.org/2000/svg" xmlns:xlink="http://www.w3.org/1999/xlink" width="600" height="400" viewBox="0 0 2400 1600">
<defs>
  <clipPath id="clip080">
    <rect x="0" y="0" width="2400" height="1600"/>
  </clipPath>
</defs>
<path clip-path="url(#clip080)" d="M0 1600 L2400 1600 L2400 0 L0 0  Z" fill="#ffffff" fill-rule="evenodd" fill-opacity="1"/>
<defs>
  <clipPath id="clip081">
    <rect x="480" y="0" width="1681" height="1600"/>
  </clipPath>
</defs>
<path clip-path="url(#clip080)" d="M273.979 1486.45 L2352.76 1486.45 L2352.76 47.2441 L273.979 47.2441  Z" fill="#ffffff" fill-rule="evenodd" fill-opacity="1"/>
<defs>
  <clipPath id="clip082">
    <rect x="273" y="47" width="2080" height="1440"/>
  </clipPath>
</defs>
<polyline clip-path="url(#clip082)" style="stroke:#000000; stroke-linecap:round; stroke-linejoin:round; stroke-width:2; stroke-opacity:0.1; fill:none" points="628.144,1486.45 628.144,47.2441 "/>
<polyline clip-path="url(#clip082)" style="stroke:#000000; stroke-linecap:round; stroke-linejoin:round; stroke-width:2; stroke-opacity:0.1; fill:none" points="1313.37,1486.45 1313.37,47.2441 "/>
<polyline clip-path="url(#clip082)" style="stroke:#000000; stroke-linecap:round; stroke-linejoin:round; stroke-width:2; stroke-opacity:0.1; fill:none" points="1998.59,1486.45 1998.59,47.2441 "/>
<polyline clip-path="url(#clip080)" style="stroke:#000000; stroke-linecap:round; stroke-linejoin:round; stroke-width:4; stroke-opacity:1; fill:none" points="273.979,1486.45 2352.76,1486.45 "/>
<polyline clip-path="url(#clip080)" style="stroke:#000000; stroke-linecap:round; stroke-linejoin:round; stroke-width:4; stroke-opacity:1; fill:none" points="628.144,1486.45 628.144,1467.55 "/>
<polyline clip-path="url(#clip080)" style="stroke:#000000; stroke-linecap:round; stroke-linejoin:round; stroke-width:4; stroke-opacity:1; fill:none" points="1313.37,1486.45 1313.37,1467.55 "/>
<polyline clip-path="url(#clip080)" style="stroke:#000000; stroke-linecap:round; stroke-linejoin:round; stroke-width:4; stroke-opacity:1; fill:none" points="1998.59,1486.45 1998.59,1467.55 "/>
<path clip-path="url(#clip080)" d="M546.79 1543.92 L546.79 1534.63 L539.151 1534.63 L539.151 1530.79 L551.42 1530.79 L551.42 1545.63 Q548.711 1547.55 545.447 1548.55 Q542.184 1549.52 538.48 1549.52 Q530.378 1549.52 525.795 1544.8 Q521.235 1540.05 521.235 1531.6 Q521.235 1523.13 525.795 1518.41 Q530.378 1513.66 538.48 1513.66 Q541.859 1513.66 544.892 1514.5 Q547.947 1515.33 550.517 1516.95 L550.517 1521.93 Q547.924 1519.73 545.008 1518.62 Q542.091 1517.51 538.873 1517.51 Q532.531 1517.51 529.336 1521.05 Q526.165 1524.59 526.165 1531.6 Q526.165 1538.59 529.336 1542.13 Q532.531 1545.68 538.873 1545.68 Q541.35 1545.68 543.295 1545.26 Q545.239 1544.82 546.79 1543.92 Z" fill="#000000" fill-rule="nonzero" fill-opacity="1" /><path clip-path="url(#clip080)" d="M581.952 1534.82 L581.952 1536.9 L562.369 1536.9 Q562.646 1541.3 565.007 1543.62 Q567.392 1545.91 571.628 1545.91 Q574.081 1545.91 576.373 1545.31 Q578.688 1544.7 580.956 1543.5 L580.956 1547.53 Q578.665 1548.5 576.257 1549.01 Q573.85 1549.52 571.373 1549.52 Q565.17 1549.52 561.535 1545.91 Q557.924 1542.3 557.924 1536.14 Q557.924 1529.77 561.35 1526.05 Q564.799 1522.3 570.632 1522.3 Q575.864 1522.3 578.896 1525.68 Q581.952 1529.03 581.952 1534.82 M577.693 1533.57 Q577.646 1530.07 575.725 1527.99 Q573.827 1525.91 570.679 1525.91 Q567.114 1525.91 564.961 1527.92 Q562.832 1529.94 562.507 1533.59 L577.693 1533.57 Z" fill="#000000" fill-rule="nonzero" fill-opacity="1" /><path clip-path="url(#clip080)" d="M603.966 1526.9 Q603.248 1526.49 602.392 1526.3 Q601.558 1526.09 600.54 1526.09 Q596.929 1526.09 594.984 1528.45 Q593.063 1530.79 593.063 1535.19 L593.063 1548.85 L588.78 1548.85 L588.78 1522.92 L593.063 1522.92 L593.063 1526.95 Q594.405 1524.59 596.558 1523.45 Q598.711 1522.3 601.79 1522.3 Q602.229 1522.3 602.762 1522.37 Q603.294 1522.41 603.942 1522.53 L603.966 1526.9 Z" fill="#000000" fill-rule="nonzero" fill-opacity="1" /><path clip-path="url(#clip080)" d="M627.785 1527.9 Q629.382 1525.03 631.604 1523.66 Q633.827 1522.3 636.836 1522.3 Q640.887 1522.3 643.086 1525.14 Q645.285 1527.97 645.285 1533.2 L645.285 1548.85 L641.002 1548.85 L641.002 1533.34 Q641.002 1529.61 639.683 1527.81 Q638.364 1526 635.655 1526 Q632.345 1526 630.424 1528.2 Q628.503 1530.4 628.503 1534.2 L628.503 1548.85 L624.22 1548.85 L624.22 1533.34 Q624.22 1529.59 622.901 1527.81 Q621.581 1526 618.827 1526 Q615.563 1526 613.641 1528.22 Q611.72 1530.42 611.72 1534.2 L611.72 1548.85 L607.438 1548.85 L607.438 1522.92 L611.72 1522.92 L611.72 1526.95 Q613.179 1524.57 615.216 1523.43 Q617.253 1522.3 620.053 1522.3 Q622.878 1522.3 624.845 1523.73 Q626.836 1525.17 627.785 1527.9 Z" fill="#000000" fill-rule="nonzero" fill-opacity="1" /><path clip-path="url(#clip080)" d="M665.562 1535.82 Q660.4 1535.82 658.41 1537 Q656.419 1538.18 656.419 1541.02 Q656.419 1543.29 657.9 1544.63 Q659.405 1545.95 661.975 1545.95 Q665.516 1545.95 667.646 1543.45 Q669.799 1540.93 669.799 1536.76 L669.799 1535.82 L665.562 1535.82 M674.058 1534.06 L674.058 1548.85 L669.799 1548.85 L669.799 1544.91 Q668.34 1547.27 666.164 1548.41 Q663.988 1549.52 660.84 1549.52 Q656.859 1549.52 654.498 1547.3 Q652.16 1545.05 652.16 1541.3 Q652.16 1536.93 655.076 1534.7 Q658.016 1532.48 663.826 1532.48 L669.799 1532.48 L669.799 1532.07 Q669.799 1529.13 667.854 1527.53 Q665.933 1525.91 662.438 1525.91 Q660.215 1525.91 658.109 1526.44 Q656.002 1526.97 654.058 1528.04 L654.058 1524.1 Q656.396 1523.2 658.595 1522.76 Q660.794 1522.3 662.877 1522.3 Q668.502 1522.3 671.28 1525.21 Q674.058 1528.13 674.058 1534.06 Z" fill="#000000" fill-rule="nonzero" fill-opacity="1" /><path clip-path="url(#clip080)" d="M704.382 1533.2 L704.382 1548.85 L700.122 1548.85 L700.122 1533.34 Q700.122 1529.66 698.687 1527.83 Q697.252 1526 694.382 1526 Q690.933 1526 688.942 1528.2 Q686.951 1530.4 686.951 1534.2 L686.951 1548.85 L682.669 1548.85 L682.669 1522.92 L686.951 1522.92 L686.951 1526.95 Q688.479 1524.61 690.539 1523.45 Q692.623 1522.3 695.331 1522.3 Q699.798 1522.3 702.09 1525.07 Q704.382 1527.83 704.382 1533.2 Z" fill="#000000" fill-rule="nonzero" fill-opacity="1" /><path clip-path="url(#clip080)" d="M723.664 1551.26 Q721.858 1555.88 720.146 1557.3 Q718.433 1558.71 715.562 1558.71 L712.159 1558.71 L712.159 1555.14 L714.659 1555.14 Q716.419 1555.14 717.391 1554.31 Q718.363 1553.48 719.544 1550.38 L720.308 1548.43 L709.822 1522.92 L714.335 1522.92 L722.437 1543.2 L730.539 1522.92 L735.053 1522.92 L723.664 1551.26 Z" fill="#000000" fill-rule="nonzero" fill-opacity="1" /><path clip-path="url(#clip080)" d="M1245.52 1515.42 L1245.52 1519.98 Q1242.86 1518.71 1240.5 1518.08 Q1238.14 1517.46 1235.94 1517.46 Q1232.12 1517.46 1230.03 1518.94 Q1227.97 1520.42 1227.97 1523.15 Q1227.97 1525.45 1229.34 1526.63 Q1230.73 1527.78 1234.57 1528.5 L1237.4 1529.08 Q1242.63 1530.07 1245.1 1532.6 Q1247.6 1535.1 1247.6 1539.31 Q1247.6 1544.33 1244.22 1546.93 Q1240.87 1549.52 1234.36 1549.52 Q1231.91 1549.52 1229.13 1548.96 Q1226.38 1548.41 1223.41 1547.32 L1223.41 1542.51 Q1226.26 1544.1 1228.99 1544.91 Q1231.72 1545.72 1234.36 1545.72 Q1238.37 1545.72 1240.54 1544.15 Q1242.72 1542.57 1242.72 1539.66 Q1242.72 1537.11 1241.15 1535.68 Q1239.59 1534.24 1236.03 1533.52 L1233.18 1532.97 Q1227.95 1531.93 1225.61 1529.7 Q1223.28 1527.48 1223.28 1523.52 Q1223.28 1518.94 1226.49 1516.3 Q1229.73 1513.66 1235.4 1513.66 Q1237.84 1513.66 1240.36 1514.1 Q1242.88 1514.54 1245.52 1515.42 Z" fill="#000000" fill-rule="nonzero" fill-opacity="1" /><path clip-path="url(#clip080)" d="M1252.23 1522.92 L1256.49 1522.92 L1261.82 1543.15 L1267.12 1522.92 L1272.14 1522.92 L1277.46 1543.15 L1282.77 1522.92 L1287.02 1522.92 L1280.24 1548.85 L1275.22 1548.85 L1269.64 1527.6 L1264.04 1548.85 L1259.02 1548.85 L1252.23 1522.92 Z" fill="#000000" fill-rule="nonzero" fill-opacity="1" /><path clip-path="url(#clip080)" d="M1315.66 1534.82 L1315.66 1536.9 L1296.08 1536.9 Q1296.35 1541.3 1298.71 1543.62 Q1301.1 1545.91 1305.34 1545.91 Q1307.79 1545.91 1310.08 1545.31 Q1312.4 1544.7 1314.66 1543.5 L1314.66 1547.53 Q1312.37 1548.5 1309.96 1549.01 Q1307.56 1549.52 1305.08 1549.52 Q1298.88 1549.52 1295.24 1545.91 Q1291.63 1542.3 1291.63 1536.14 Q1291.63 1529.77 1295.06 1526.05 Q1298.51 1522.3 1304.34 1522.3 Q1309.57 1522.3 1312.6 1525.68 Q1315.66 1529.03 1315.66 1534.82 M1311.4 1533.57 Q1311.35 1530.07 1309.43 1527.99 Q1307.53 1525.91 1304.39 1525.91 Q1300.82 1525.91 1298.67 1527.92 Q1296.54 1529.94 1296.21 1533.59 L1311.4 1533.57 Z" fill="#000000" fill-rule="nonzero" fill-opacity="1" /><path clip-path="url(#clip080)" d="M1339.71 1526.86 L1339.71 1512.83 L1343.97 1512.83 L1343.97 1548.85 L1339.71 1548.85 L1339.71 1544.96 Q1338.37 1547.27 1336.31 1548.41 Q1334.27 1549.52 1331.4 1549.52 Q1326.7 1549.52 1323.74 1545.77 Q1320.8 1542.02 1320.8 1535.91 Q1320.8 1529.8 1323.74 1526.05 Q1326.7 1522.3 1331.4 1522.3 Q1334.27 1522.3 1336.31 1523.43 Q1338.37 1524.54 1339.71 1526.86 M1325.2 1535.91 Q1325.2 1540.61 1327.12 1543.29 Q1329.06 1545.95 1332.44 1545.95 Q1335.82 1545.95 1337.77 1543.29 Q1339.71 1540.61 1339.71 1535.91 Q1339.71 1531.21 1337.77 1528.55 Q1335.82 1525.86 1332.44 1525.86 Q1329.06 1525.86 1327.12 1528.55 Q1325.2 1531.21 1325.2 1535.91 Z" fill="#000000" fill-rule="nonzero" fill-opacity="1" /><path clip-path="url(#clip080)" d="M1374.92 1534.82 L1374.92 1536.9 L1355.33 1536.9 Q1355.61 1541.3 1357.97 1543.62 Q1360.36 1545.91 1364.59 1545.91 Q1367.05 1545.91 1369.34 1545.31 Q1371.65 1544.7 1373.92 1543.5 L1373.92 1547.53 Q1371.63 1548.5 1369.22 1549.01 Q1366.82 1549.52 1364.34 1549.52 Q1358.14 1549.52 1354.5 1545.91 Q1350.89 1542.3 1350.89 1536.14 Q1350.89 1529.77 1354.32 1526.05 Q1357.77 1522.3 1363.6 1522.3 Q1368.83 1522.3 1371.86 1525.68 Q1374.92 1529.03 1374.92 1534.82 M1370.66 1533.57 Q1370.61 1530.07 1368.69 1527.99 Q1366.79 1525.91 1363.64 1525.91 Q1360.08 1525.91 1357.93 1527.92 Q1355.8 1529.94 1355.47 1533.59 L1370.66 1533.57 Z" fill="#000000" fill-rule="nonzero" fill-opacity="1" /><path clip-path="url(#clip080)" d="M1403.46 1533.2 L1403.46 1548.85 L1399.2 1548.85 L1399.2 1533.34 Q1399.2 1529.66 1397.77 1527.83 Q1396.33 1526 1393.46 1526 Q1390.01 1526 1388.02 1528.2 Q1386.03 1530.4 1386.03 1534.2 L1386.03 1548.85 L1381.75 1548.85 L1381.75 1522.92 L1386.03 1522.92 L1386.03 1526.95 Q1387.56 1524.61 1389.62 1523.45 Q1391.7 1522.3 1394.41 1522.3 Q1398.88 1522.3 1401.17 1525.07 Q1403.46 1527.83 1403.46 1533.2 Z" fill="#000000" fill-rule="nonzero" fill-opacity="1" /><path clip-path="url(#clip080)" d="M1896.72 1518.13 L1896.72 1545.01 L1902.36 1545.01 Q1909.52 1545.01 1912.83 1541.76 Q1916.16 1538.52 1916.16 1531.53 Q1916.16 1524.59 1912.83 1521.37 Q1909.52 1518.13 1902.36 1518.13 L1896.72 1518.13 M1892.04 1514.29 L1901.65 1514.29 Q1911.69 1514.29 1916.39 1518.48 Q1921.09 1522.64 1921.09 1531.53 Q1921.09 1540.47 1916.37 1544.66 Q1911.65 1548.85 1901.65 1548.85 L1892.04 1548.85 L1892.04 1514.29 Z" fill="#000000" fill-rule="nonzero" fill-opacity="1" /><path clip-path="url(#clip080)" d="M1950.54 1534.82 L1950.54 1536.9 L1930.95 1536.9 Q1931.23 1541.3 1933.59 1543.62 Q1935.98 1545.91 1940.21 1545.91 Q1942.67 1545.91 1944.96 1545.31 Q1947.27 1544.7 1949.54 1543.5 L1949.54 1547.53 Q1947.25 1548.5 1944.84 1549.01 Q1942.43 1549.52 1939.96 1549.52 Q1933.75 1549.52 1930.12 1545.91 Q1926.51 1542.3 1926.51 1536.14 Q1926.51 1529.77 1929.93 1526.05 Q1933.38 1522.3 1939.22 1522.3 Q1944.45 1522.3 1947.48 1525.68 Q1950.54 1529.03 1950.54 1534.82 M1946.28 1533.57 Q1946.23 1530.07 1944.31 1527.99 Q1942.41 1525.91 1939.26 1525.91 Q1935.7 1525.91 1933.55 1527.92 Q1931.42 1529.94 1931.09 1533.59 L1946.28 1533.57 Z" fill="#000000" fill-rule="nonzero" fill-opacity="1" /><path clip-path="url(#clip080)" d="M1979.08 1533.2 L1979.08 1548.85 L1974.82 1548.85 L1974.82 1533.34 Q1974.82 1529.66 1973.38 1527.83 Q1971.95 1526 1969.08 1526 Q1965.63 1526 1963.64 1528.2 Q1961.65 1530.4 1961.65 1534.2 L1961.65 1548.85 L1957.36 1548.85 L1957.36 1522.92 L1961.65 1522.92 L1961.65 1526.95 Q1963.17 1524.61 1965.23 1523.45 Q1967.32 1522.3 1970.03 1522.3 Q1974.49 1522.3 1976.79 1525.07 Q1979.08 1527.83 1979.08 1533.2 Z" fill="#000000" fill-rule="nonzero" fill-opacity="1" /><path clip-path="url(#clip080)" d="M2007.76 1527.9 Q2009.35 1525.03 2011.58 1523.66 Q2013.8 1522.3 2016.81 1522.3 Q2020.86 1522.3 2023.06 1525.14 Q2025.26 1527.97 2025.26 1533.2 L2025.26 1548.85 L2020.98 1548.85 L2020.98 1533.34 Q2020.98 1529.61 2019.66 1527.81 Q2018.34 1526 2015.63 1526 Q2012.32 1526 2010.4 1528.2 Q2008.48 1530.4 2008.48 1534.2 L2008.48 1548.85 L2004.19 1548.85 L2004.19 1533.34 Q2004.19 1529.59 2002.87 1527.81 Q2001.55 1526 1998.8 1526 Q1995.54 1526 1993.61 1528.22 Q1991.69 1530.42 1991.69 1534.2 L1991.69 1548.85 L1987.41 1548.85 L1987.41 1522.92 L1991.69 1522.92 L1991.69 1526.95 Q1993.15 1524.57 1995.19 1523.43 Q1997.23 1522.3 2000.03 1522.3 Q2002.85 1522.3 2004.82 1523.73 Q2006.81 1525.17 2007.76 1527.9 Z" fill="#000000" fill-rule="nonzero" fill-opacity="1" /><path clip-path="url(#clip080)" d="M2045.54 1535.82 Q2040.37 1535.82 2038.38 1537 Q2036.39 1538.18 2036.39 1541.02 Q2036.39 1543.29 2037.87 1544.63 Q2039.38 1545.95 2041.95 1545.95 Q2045.49 1545.95 2047.62 1543.45 Q2049.77 1540.93 2049.77 1536.76 L2049.77 1535.82 L2045.54 1535.82 M2054.03 1534.06 L2054.03 1548.85 L2049.77 1548.85 L2049.77 1544.91 Q2048.31 1547.27 2046.14 1548.41 Q2043.96 1549.52 2040.81 1549.52 Q2036.83 1549.52 2034.47 1547.3 Q2032.13 1545.05 2032.13 1541.3 Q2032.13 1536.93 2035.05 1534.7 Q2037.99 1532.48 2043.8 1532.48 L2049.77 1532.48 L2049.77 1532.07 Q2049.77 1529.13 2047.83 1527.53 Q2045.91 1525.91 2042.41 1525.91 Q2040.19 1525.91 2038.08 1526.44 Q2035.98 1526.97 2034.03 1528.04 L2034.03 1524.1 Q2036.37 1523.2 2038.57 1522.76 Q2040.77 1522.3 2042.85 1522.3 Q2048.48 1522.3 2051.25 1525.21 Q2054.03 1528.13 2054.03 1534.06 Z" fill="#000000" fill-rule="nonzero" fill-opacity="1" /><path clip-path="url(#clip080)" d="M2077.83 1526.9 Q2077.11 1526.49 2076.25 1526.3 Q2075.42 1526.09 2074.4 1526.09 Q2070.79 1526.09 2068.85 1528.45 Q2066.92 1530.79 2066.92 1535.19 L2066.92 1548.85 L2062.64 1548.85 L2062.64 1522.92 L2066.92 1522.92 L2066.92 1526.95 Q2068.27 1524.59 2070.42 1523.45 Q2072.57 1522.3 2075.65 1522.3 Q2076.09 1522.3 2076.62 1522.37 Q2077.16 1522.41 2077.8 1522.53 L2077.83 1526.9 Z" fill="#000000" fill-rule="nonzero" fill-opacity="1" /><path clip-path="url(#clip080)" d="M2082.13 1512.83 L2086.41 1512.83 L2086.41 1534.1 L2099.12 1522.92 L2104.56 1522.92 L2090.81 1535.05 L2105.14 1548.85 L2099.59 1548.85 L2086.41 1536.19 L2086.41 1548.85 L2082.13 1548.85 L2082.13 1512.83 Z" fill="#000000" fill-rule="nonzero" fill-opacity="1" /><polyline clip-path="url(#clip082)" style="stroke:#000000; stroke-linecap:round; stroke-linejoin:round; stroke-width:2; stroke-opacity:0.1; fill:none" points="273.979,1445.72 2352.76,1445.72 "/>
<polyline clip-path="url(#clip082)" style="stroke:#000000; stroke-linecap:round; stroke-linejoin:round; stroke-width:2; stroke-opacity:0.1; fill:none" points="273.979,1065.52 2352.76,1065.52 "/>
<polyline clip-path="url(#clip082)" style="stroke:#000000; stroke-linecap:round; stroke-linejoin:round; stroke-width:2; stroke-opacity:0.1; fill:none" points="273.979,685.325 2352.76,685.325 "/>
<polyline clip-path="url(#clip082)" style="stroke:#000000; stroke-linecap:round; stroke-linejoin:round; stroke-width:2; stroke-opacity:0.1; fill:none" points="273.979,305.13 2352.76,305.13 "/>
<polyline clip-path="url(#clip080)" style="stroke:#000000; stroke-linecap:round; stroke-linejoin:round; stroke-width:4; stroke-opacity:1; fill:none" points="273.979,1486.45 273.979,47.2441 "/>
<polyline clip-path="url(#clip080)" style="stroke:#000000; stroke-linecap:round; stroke-linejoin:round; stroke-width:4; stroke-opacity:1; fill:none" points="273.979,1445.72 292.877,1445.72 "/>
<polyline clip-path="url(#clip080)" style="stroke:#000000; stroke-linecap:round; stroke-linejoin:round; stroke-width:4; stroke-opacity:1; fill:none" points="273.979,1065.52 292.877,1065.52 "/>
<polyline clip-path="url(#clip080)" style="stroke:#000000; stroke-linecap:round; stroke-linejoin:round; stroke-width:4; stroke-opacity:1; fill:none" points="273.979,685.325 292.877,685.325 "/>
<polyline clip-path="url(#clip080)" style="stroke:#000000; stroke-linecap:round; stroke-linejoin:round; stroke-width:4; stroke-opacity:1; fill:none" points="273.979,305.13 292.877,305.13 "/>
<path clip-path="url(#clip080)" d="M226.035 1431.51 Q222.423 1431.51 220.595 1435.08 Q218.789 1438.62 218.789 1445.75 Q218.789 1452.86 220.595 1456.42 Q222.423 1459.96 226.035 1459.96 Q229.669 1459.96 231.474 1456.42 Q233.303 1452.86 233.303 1445.75 Q233.303 1438.62 231.474 1435.08 Q229.669 1431.51 226.035 1431.51 M226.035 1427.81 Q231.845 1427.81 234.9 1432.42 Q237.979 1437 237.979 1445.75 Q237.979 1454.48 234.9 1459.08 Q231.845 1463.67 226.035 1463.67 Q220.224 1463.67 217.146 1459.08 Q214.09 1454.48 214.09 1445.75 Q214.09 1437 217.146 1432.42 Q220.224 1427.81 226.035 1427.81 Z" fill="#000000" fill-rule="nonzero" fill-opacity="1" /><path clip-path="url(#clip080)" d="M53.3995 1085.31 L61.0384 1085.31 L61.0384 1058.95 L52.7282 1060.61 L52.7282 1056.35 L60.9921 1054.69 L65.668 1054.69 L65.668 1085.31 L73.3068 1085.31 L73.3068 1089.25 L53.3995 1089.25 L53.3995 1085.31 Z" fill="#000000" fill-rule="nonzero" fill-opacity="1" /><path clip-path="url(#clip080)" d="M82.7512 1083.37 L87.6354 1083.37 L87.6354 1089.25 L82.7512 1089.25 L82.7512 1083.37 Z" fill="#000000" fill-rule="nonzero" fill-opacity="1" /><path clip-path="url(#clip080)" d="M107.821 1057.77 Q104.209 1057.77 102.381 1061.33 Q100.575 1064.87 100.575 1072 Q100.575 1079.11 102.381 1082.67 Q104.209 1086.22 107.821 1086.22 Q111.455 1086.22 113.26 1082.67 Q115.089 1079.11 115.089 1072 Q115.089 1064.87 113.26 1061.33 Q111.455 1057.77 107.821 1057.77 M107.821 1054.06 Q113.631 1054.06 116.686 1058.67 Q119.765 1063.25 119.765 1072 Q119.765 1080.73 116.686 1085.34 Q113.631 1089.92 107.821 1089.92 Q102.01 1089.92 98.9317 1085.34 Q95.8761 1080.73 95.8761 1072 Q95.8761 1063.25 98.9317 1058.67 Q102.01 1054.06 107.821 1054.06 Z" fill="#000000" fill-rule="nonzero" fill-opacity="1" /><path clip-path="url(#clip080)" d="M156.154 1063.79 L145.575 1074.41 L156.154 1084.99 L153.399 1087.79 L142.774 1077.16 L132.149 1087.79 L129.418 1084.99 L139.973 1074.41 L129.418 1063.79 L132.149 1060.98 L142.774 1071.61 L153.399 1060.98 L156.154 1063.79 Z" fill="#000000" fill-rule="nonzero" fill-opacity="1" /><path clip-path="url(#clip080)" d="M168.515 1085.31 L176.153 1085.31 L176.153 1058.95 L167.843 1060.61 L167.843 1056.35 L176.107 1054.69 L180.783 1054.69 L180.783 1085.31 L188.422 1085.31 L188.422 1089.25 L168.515 1089.25 L168.515 1085.31 Z" fill="#000000" fill-rule="nonzero" fill-opacity="1" /><path clip-path="url(#clip080)" d="M207.866 1057.77 Q204.255 1057.77 202.426 1061.33 Q200.621 1064.87 200.621 1072 Q200.621 1079.11 202.426 1082.67 Q204.255 1086.22 207.866 1086.22 Q211.501 1086.22 213.306 1082.67 Q215.135 1079.11 215.135 1072 Q215.135 1064.87 213.306 1061.33 Q211.501 1057.77 207.866 1057.77 M207.866 1054.06 Q213.676 1054.06 216.732 1058.67 Q219.811 1063.25 219.811 1072 Q219.811 1080.73 216.732 1085.34 Q213.676 1089.92 207.866 1089.92 Q202.056 1089.92 198.977 1085.34 Q195.922 1080.73 195.922 1072 Q195.922 1063.25 198.977 1058.67 Q202.056 1054.06 207.866 1054.06 Z" fill="#000000" fill-rule="nonzero" fill-opacity="1" /><path clip-path="url(#clip080)" d="M220.996 1033.76 L235.91 1033.76 L235.91 1036.96 L224.475 1036.96 L224.475 1043.84 Q225.303 1043.56 226.13 1043.42 Q226.958 1043.27 227.785 1043.27 Q232.487 1043.27 235.233 1045.85 Q237.979 1048.43 237.979 1052.83 Q237.979 1057.36 235.158 1059.88 Q232.337 1062.38 227.202 1062.38 Q225.434 1062.38 223.591 1062.08 Q221.767 1061.78 219.811 1061.18 L219.811 1057.36 Q221.503 1058.28 223.309 1058.73 Q225.114 1059.19 227.127 1059.19 Q230.381 1059.19 232.28 1057.47 Q234.18 1055.76 234.18 1052.83 Q234.18 1049.89 232.28 1048.18 Q230.381 1046.47 227.127 1046.47 Q225.603 1046.47 224.08 1046.81 Q222.575 1047.15 220.996 1047.86 L220.996 1033.76 Z" fill="#000000" fill-rule="nonzero" fill-opacity="1" /><path clip-path="url(#clip080)" d="M56.6171 705.118 L72.9365 705.118 L72.9365 709.053 L50.9921 709.053 L50.9921 705.118 Q53.6541 702.363 58.2375 697.734 Q62.8439 693.081 64.0245 691.738 Q66.2698 689.215 67.1494 687.479 Q68.0522 685.72 68.0522 684.03 Q68.0522 681.275 66.1078 679.539 Q64.1865 677.803 61.0847 677.803 Q58.8856 677.803 56.4319 678.567 Q54.0014 679.331 51.2236 680.882 L51.2236 676.16 Q54.0477 675.025 56.5014 674.447 Q58.955 673.868 60.9921 673.868 Q66.3624 673.868 69.5568 676.553 Q72.7513 679.238 72.7513 683.729 Q72.7513 685.859 71.9411 687.78 Q71.1541 689.678 69.0476 692.271 Q68.4689 692.942 65.367 696.16 Q62.2652 699.354 56.6171 705.118 Z" fill="#000000" fill-rule="nonzero" fill-opacity="1" /><path clip-path="url(#clip080)" d="M82.7512 703.173 L87.6354 703.173 L87.6354 709.053 L82.7512 709.053 L82.7512 703.173 Z" fill="#000000" fill-rule="nonzero" fill-opacity="1" /><path clip-path="url(#clip080)" d="M107.821 677.572 Q104.209 677.572 102.381 681.137 Q100.575 684.678 100.575 691.808 Q100.575 698.914 102.381 702.479 Q104.209 706.021 107.821 706.021 Q111.455 706.021 113.26 702.479 Q115.089 698.914 115.089 691.808 Q115.089 684.678 113.26 681.137 Q111.455 677.572 107.821 677.572 M107.821 673.868 Q113.631 673.868 116.686 678.475 Q119.765 683.058 119.765 691.808 Q119.765 700.535 116.686 705.141 Q113.631 709.724 107.821 709.724 Q102.01 709.724 98.9317 705.141 Q95.8761 700.535 95.8761 691.808 Q95.8761 683.058 98.9317 678.475 Q102.01 673.868 107.821 673.868 Z" fill="#000000" fill-rule="nonzero" fill-opacity="1" /><path clip-path="url(#clip080)" d="M156.154 683.59 L145.575 694.215 L156.154 704.794 L153.399 707.595 L142.774 696.97 L132.149 707.595 L129.418 704.794 L139.973 694.215 L129.418 683.59 L132.149 680.789 L142.774 691.414 L153.399 680.789 L156.154 683.59 Z" fill="#000000" fill-rule="nonzero" fill-opacity="1" /><path clip-path="url(#clip080)" d="M168.515 705.118 L176.153 705.118 L176.153 678.752 L167.843 680.419 L167.843 676.16 L176.107 674.493 L180.783 674.493 L180.783 705.118 L188.422 705.118 L188.422 709.053 L168.515 709.053 L168.515 705.118 Z" fill="#000000" fill-rule="nonzero" fill-opacity="1" /><path clip-path="url(#clip080)" d="M207.866 677.572 Q204.255 677.572 202.426 681.137 Q200.621 684.678 200.621 691.808 Q200.621 698.914 202.426 702.479 Q204.255 706.021 207.866 706.021 Q211.501 706.021 213.306 702.479 Q215.135 698.914 215.135 691.808 Q215.135 684.678 213.306 681.137 Q211.501 677.572 207.866 677.572 M207.866 673.868 Q213.676 673.868 216.732 678.475 Q219.811 683.058 219.811 691.808 Q219.811 700.535 216.732 705.141 Q213.676 709.724 207.866 709.724 Q202.056 709.724 198.977 705.141 Q195.922 700.535 195.922 691.808 Q195.922 683.058 198.977 678.475 Q202.056 673.868 207.866 673.868 Z" fill="#000000" fill-rule="nonzero" fill-opacity="1" /><path clip-path="url(#clip080)" d="M220.996 653.563 L235.91 653.563 L235.91 656.76 L224.475 656.76 L224.475 663.644 Q225.303 663.362 226.13 663.23 Q226.958 663.079 227.785 663.079 Q232.487 663.079 235.233 665.656 Q237.979 668.233 237.979 672.634 Q237.979 677.166 235.158 679.687 Q232.337 682.188 227.202 682.188 Q225.434 682.188 223.591 681.887 Q221.767 681.586 219.811 680.984 L219.811 677.166 Q221.503 678.088 223.309 678.539 Q225.114 678.991 227.127 678.991 Q230.381 678.991 232.28 677.279 Q234.18 675.568 234.18 672.634 Q234.18 669.7 232.28 667.988 Q230.381 666.277 227.127 666.277 Q225.603 666.277 224.08 666.615 Q222.575 666.954 220.996 667.669 L220.996 653.563 Z" fill="#000000" fill-rule="nonzero" fill-opacity="1" /><path clip-path="url(#clip080)" d="M66.7559 310.224 Q70.1124 310.941 71.9874 313.21 Q73.8855 315.478 73.8855 318.812 Q73.8855 323.927 70.367 326.728 Q66.8485 329.529 60.3671 329.529 Q58.1912 329.529 55.8764 329.089 Q53.5847 328.673 51.131 327.816 L51.131 323.302 Q53.0754 324.437 55.3903 325.015 Q57.7051 325.594 60.2282 325.594 Q64.6263 325.594 66.918 323.858 Q69.2328 322.122 69.2328 318.812 Q69.2328 315.756 67.08 314.043 Q64.9504 312.307 61.131 312.307 L57.1032 312.307 L57.1032 308.465 L61.3161 308.465 Q64.7652 308.465 66.5939 307.099 Q68.4226 305.71 68.4226 303.117 Q68.4226 300.455 66.5245 299.043 Q64.6495 297.608 61.131 297.608 Q59.2097 297.608 57.0106 298.025 Q54.8115 298.441 52.1727 299.321 L52.1727 295.154 Q54.8347 294.414 57.1495 294.043 Q59.4875 293.673 61.5476 293.673 Q66.8717 293.673 69.9735 296.104 Q73.0753 298.511 73.0753 302.631 Q73.0753 305.502 71.4318 307.492 Q69.7883 309.46 66.7559 310.224 Z" fill="#000000" fill-rule="nonzero" fill-opacity="1" /><path clip-path="url(#clip080)" d="M82.7512 322.978 L87.6354 322.978 L87.6354 328.858 L82.7512 328.858 L82.7512 322.978 Z" fill="#000000" fill-rule="nonzero" fill-opacity="1" /><path clip-path="url(#clip080)" d="M107.821 297.377 Q104.209 297.377 102.381 300.941 Q100.575 304.483 100.575 311.613 Q100.575 318.719 102.381 322.284 Q104.209 325.826 107.821 325.826 Q111.455 325.826 113.26 322.284 Q115.089 318.719 115.089 311.613 Q115.089 304.483 113.26 300.941 Q111.455 297.377 107.821 297.377 M107.821 293.673 Q113.631 293.673 116.686 298.279 Q119.765 302.863 119.765 311.613 Q119.765 320.34 116.686 324.946 Q113.631 329.529 107.821 329.529 Q102.01 329.529 98.9317 324.946 Q95.8761 320.34 95.8761 311.613 Q95.8761 302.863 98.9317 298.279 Q102.01 293.673 107.821 293.673 Z" fill="#000000" fill-rule="nonzero" fill-opacity="1" /><path clip-path="url(#clip080)" d="M156.154 303.395 L145.575 314.02 L156.154 324.599 L153.399 327.4 L142.774 316.775 L132.149 327.4 L129.418 324.599 L139.973 314.02 L129.418 303.395 L132.149 300.594 L142.774 311.219 L153.399 300.594 L156.154 303.395 Z" fill="#000000" fill-rule="nonzero" fill-opacity="1" /><path clip-path="url(#clip080)" d="M168.515 324.923 L176.153 324.923 L176.153 298.557 L167.843 300.224 L167.843 295.965 L176.107 294.298 L180.783 294.298 L180.783 324.923 L188.422 324.923 L188.422 328.858 L168.515 328.858 L168.515 324.923 Z" fill="#000000" fill-rule="nonzero" fill-opacity="1" /><path clip-path="url(#clip080)" d="M207.866 297.377 Q204.255 297.377 202.426 300.941 Q200.621 304.483 200.621 311.613 Q200.621 318.719 202.426 322.284 Q204.255 325.826 207.866 325.826 Q211.501 325.826 213.306 322.284 Q215.135 318.719 215.135 311.613 Q215.135 304.483 213.306 300.941 Q211.501 297.377 207.866 297.377 M207.866 293.673 Q213.676 293.673 216.732 298.279 Q219.811 302.863 219.811 311.613 Q219.811 320.34 216.732 324.946 Q213.676 329.529 207.866 329.529 Q202.056 329.529 198.977 324.946 Q195.922 320.34 195.922 311.613 Q195.922 302.863 198.977 298.279 Q202.056 293.673 207.866 293.673 Z" fill="#000000" fill-rule="nonzero" fill-opacity="1" /><path clip-path="url(#clip080)" d="M220.996 273.368 L235.91 273.368 L235.91 276.565 L224.475 276.565 L224.475 283.449 Q225.303 283.166 226.13 283.035 Q226.958 282.884 227.785 282.884 Q232.487 282.884 235.233 285.461 Q237.979 288.038 237.979 292.439 Q237.979 296.971 235.158 299.492 Q232.337 301.993 227.202 301.993 Q225.434 301.993 223.591 301.692 Q221.767 301.391 219.811 300.789 L219.811 296.971 Q221.503 297.893 223.309 298.344 Q225.114 298.796 227.127 298.796 Q230.381 298.796 232.28 297.084 Q234.18 295.373 234.18 292.439 Q234.18 289.505 232.28 287.793 Q230.381 286.082 227.127 286.082 Q225.603 286.082 224.08 286.42 Q222.575 286.759 220.996 287.473 L220.996 273.368 Z" fill="#000000" fill-rule="nonzero" fill-opacity="1" /><path clip-path="url(#clip082)" d="M388.315 87.9763 L388.315 493.261 L867.972 493.261 L867.972 87.9763 L388.315 87.9763 L388.315 87.9763  Z" fill="#009af9" fill-rule="evenodd" fill-opacity="1"/>
<polyline clip-path="url(#clip082)" style="stroke:#000000; stroke-linecap:round; stroke-linejoin:round; stroke-width:4; stroke-opacity:1; fill:none" points="388.315,87.9763 388.315,493.261 867.972,493.261 867.972,87.9763 388.315,87.9763 "/>
<path clip-path="url(#clip082)" d="M1073.54 1118.31 L1073.54 1368.64 L1553.2 1368.64 L1553.2 1118.31 L1073.54 1118.31 L1073.54 1118.31  Z" fill="#009af9" fill-rule="evenodd" fill-opacity="1"/>
<polyline clip-path="url(#clip082)" style="stroke:#000000; stroke-linecap:round; stroke-linejoin:round; stroke-width:4; stroke-opacity:1; fill:none" points="1073.54,1118.31 1073.54,1368.64 1553.2,1368.64 1553.2,1118.31 1073.54,1118.31 "/>
<path clip-path="url(#clip082)" d="M1758.76 1335 L1758.76 1393.42 L2238.42 1393.42 L2238.42 1335 L1758.76 1335 L1758.76 1335  Z" fill="#009af9" fill-rule="evenodd" fill-opacity="1"/>
<polyline clip-path="url(#clip082)" style="stroke:#000000; stroke-linecap:round; stroke-linejoin:round; stroke-width:4; stroke-opacity:1; fill:none" points="1758.76,1335 1758.76,1393.42 2238.42,1393.42 2238.42,1335 1758.76,1335 "/>
<circle clip-path="url(#clip082)" style="fill:#009af9; stroke:none; fill-opacity:0" cx="628.144" cy="87.9763" r="2"/>
<circle clip-path="url(#clip082)" style="fill:#009af9; stroke:none; fill-opacity:0" cx="1313.37" cy="1118.31" r="2"/>
<circle clip-path="url(#clip082)" style="fill:#009af9; stroke:none; fill-opacity:0" cx="1998.59" cy="1335" r="2"/>
<path clip-path="url(#clip082)" d="M388.315 493.261 L388.315 872.278 L867.972 872.278 L867.972 493.261 L388.315 493.261 L388.315 493.261  Z" fill="#e26f46" fill-rule="evenodd" fill-opacity="1"/>
<polyline clip-path="url(#clip082)" style="stroke:#000000; stroke-linecap:round; stroke-linejoin:round; stroke-width:4; stroke-opacity:1; fill:none" points="388.315,493.261 388.315,872.278 867.972,872.278 867.972,493.261 388.315,493.261 "/>
<path clip-path="url(#clip082)" d="M1073.54 1368.64 L1073.54 1368.64 L1553.2 1368.64 L1553.2 1368.64 L1073.54 1368.64 L1073.54 1368.64  Z" fill="#e26f46" fill-rule="evenodd" fill-opacity="1"/>
<polyline clip-path="url(#clip082)" style="stroke:#000000; stroke-linecap:round; stroke-linejoin:round; stroke-width:4; stroke-opacity:1; fill:none" points="1073.54,1368.64 1073.54,1368.64 1553.2,1368.64 1073.54,1368.64 "/>
<path clip-path="url(#clip082)" d="M1758.76 1393.42 L1758.76 1408.87 L2238.42 1408.87 L2238.42 1393.42 L1758.76 1393.42 L1758.76 1393.42  Z" fill="#e26f46" fill-rule="evenodd" fill-opacity="1"/>
<polyline clip-path="url(#clip082)" style="stroke:#000000; stroke-linecap:round; stroke-linejoin:round; stroke-width:4; stroke-opacity:1; fill:none" points="1758.76,1393.42 1758.76,1408.87 2238.42,1408.87 2238.42,1393.42 1758.76,1393.42 "/>
<circle clip-path="url(#clip082)" style="fill:#e26f46; stroke:none; fill-opacity:0" cx="628.144" cy="493.261" r="2"/>
<circle clip-path="url(#clip082)" style="fill:#e26f46; stroke:none; fill-opacity:0" cx="1313.37" cy="1368.64" r="2"/>
<circle clip-path="url(#clip082)" style="fill:#e26f46; stroke:none; fill-opacity:0" cx="1998.59" cy="1393.42" r="2"/>
<path clip-path="url(#clip082)" d="M388.315 872.278 L388.315 1072.66 L867.972 1072.66 L867.972 872.278 L388.315 872.278 L388.315 872.278  Z" fill="#3da44d" fill-rule="evenodd" fill-opacity="1"/>
<polyline clip-path="url(#clip082)" style="stroke:#000000; stroke-linecap:round; stroke-linejoin:round; stroke-width:4; stroke-opacity:1; fill:none" points="388.315,872.278 388.315,1072.66 867.972,1072.66 867.972,872.278 388.315,872.278 "/>
<path clip-path="url(#clip082)" d="M1073.54 1368.64 L1073.54 1373.89 L1553.2 1373.89 L1553.2 1368.64 L1073.54 1368.64 L1073.54 1368.64  Z" fill="#3da44d" fill-rule="evenodd" fill-opacity="1"/>
<polyline clip-path="url(#clip082)" style="stroke:#000000; stroke-linecap:round; stroke-linejoin:round; stroke-width:4; stroke-opacity:1; fill:none" points="1073.54,1368.64 1073.54,1373.89 1553.2,1373.89 1553.2,1368.64 1073.54,1368.64 "/>
<path clip-path="url(#clip082)" d="M1758.76 1408.87 L1758.76 1420.59 L2238.42 1420.59 L2238.42 1408.87 L1758.76 1408.87 L1758.76 1408.87  Z" fill="#3da44d" fill-rule="evenodd" fill-opacity="1"/>
<polyline clip-path="url(#clip082)" style="stroke:#000000; stroke-linecap:round; stroke-linejoin:round; stroke-width:4; stroke-opacity:1; fill:none" points="1758.76,1408.87 1758.76,1420.59 2238.42,1420.59 2238.42,1408.87 1758.76,1408.87 "/>
<circle clip-path="url(#clip082)" style="fill:#3da44d; stroke:none; fill-opacity:0" cx="628.144" cy="872.278" r="2"/>
<circle clip-path="url(#clip082)" style="fill:#3da44d; stroke:none; fill-opacity:0" cx="1313.37" cy="1368.64" r="2"/>
<circle clip-path="url(#clip082)" style="fill:#3da44d; stroke:none; fill-opacity:0" cx="1998.59" cy="1408.87" r="2"/>
<path clip-path="url(#clip082)" d="M388.315 1072.66 L388.315 1072.66 L867.972 1072.66 L867.972 1072.66 L388.315 1072.66 L388.315 1072.66  Z" fill="#c271d2" fill-rule="evenodd" fill-opacity="1"/>
<polyline clip-path="url(#clip082)" style="stroke:#000000; stroke-linecap:round; stroke-linejoin:round; stroke-width:4; stroke-opacity:1; fill:none" points="388.315,1072.66 388.315,1072.66 867.972,1072.66 388.315,1072.66 "/>
<path clip-path="url(#clip082)" d="M1073.54 1373.89 L1073.54 1427.12 L1553.2 1427.12 L1553.2 1373.89 L1073.54 1373.89 L1073.54 1373.89  Z" fill="#c271d2" fill-rule="evenodd" fill-opacity="1"/>
<polyline clip-path="url(#clip082)" style="stroke:#000000; stroke-linecap:round; stroke-linejoin:round; stroke-width:4; stroke-opacity:1; fill:none" points="1073.54,1373.89 1073.54,1427.12 1553.2,1427.12 1553.2,1373.89 1073.54,1373.89 "/>
<path clip-path="url(#clip082)" d="M1758.76 1420.59 L1758.76 1420.59 L2238.42 1420.59 L2238.42 1420.59 L1758.76 1420.59 L1758.76 1420.59  Z" fill="#c271d2" fill-rule="evenodd" fill-opacity="1"/>
<polyline clip-path="url(#clip082)" style="stroke:#000000; stroke-linecap:round; stroke-linejoin:round; stroke-width:4; stroke-opacity:1; fill:none" points="1758.76,1420.59 1758.76,1420.59 2238.42,1420.59 1758.76,1420.59 "/>
<circle clip-path="url(#clip082)" style="fill:#c271d2; stroke:none; fill-opacity:0" cx="628.144" cy="1072.66" r="2"/>
<circle clip-path="url(#clip082)" style="fill:#c271d2; stroke:none; fill-opacity:0" cx="1313.37" cy="1373.89" r="2"/>
<circle clip-path="url(#clip082)" style="fill:#c271d2; stroke:none; fill-opacity:0" cx="1998.59" cy="1420.59" r="2"/>
<path clip-path="url(#clip082)" d="M388.315 1072.66 L388.315 1315.08 L867.972 1315.08 L867.972 1072.66 L388.315 1072.66 L388.315 1072.66  Z" fill="#ac8d18" fill-rule="evenodd" fill-opacity="1"/>
<polyline clip-path="url(#clip082)" style="stroke:#000000; stroke-linecap:round; stroke-linejoin:round; stroke-width:4; stroke-opacity:1; fill:none" points="388.315,1072.66 388.315,1315.08 867.972,1315.08 867.972,1072.66 388.315,1072.66 "/>
<path clip-path="url(#clip082)" d="M1073.54 1427.12 L1073.54 1445.72 L1553.2 1445.72 L1553.2 1427.12 L1073.54 1427.12 L1073.54 1427.12  Z" fill="#ac8d18" fill-rule="evenodd" fill-opacity="1"/>
<polyline clip-path="url(#clip082)" style="stroke:#000000; stroke-linecap:round; stroke-linejoin:round; stroke-width:4; stroke-opacity:1; fill:none" points="1073.54,1427.12 1073.54,1445.72 1553.2,1445.72 1553.2,1427.12 1073.54,1427.12 "/>
<path clip-path="url(#clip082)" d="M1758.76 1420.59 L1758.76 1445.72 L2238.42 1445.72 L2238.42 1420.59 L1758.76 1420.59 L1758.76 1420.59  Z" fill="#ac8d18" fill-rule="evenodd" fill-opacity="1"/>
<polyline clip-path="url(#clip082)" style="stroke:#000000; stroke-linecap:round; stroke-linejoin:round; stroke-width:4; stroke-opacity:1; fill:none" points="1758.76,1420.59 1758.76,1445.72 2238.42,1445.72 2238.42,1420.59 1758.76,1420.59 "/>
<circle clip-path="url(#clip082)" style="fill:#ac8d18; stroke:none; fill-opacity:0" cx="628.144" cy="1072.66" r="2"/>
<circle clip-path="url(#clip082)" style="fill:#ac8d18; stroke:none; fill-opacity:0" cx="1313.37" cy="1427.12" r="2"/>
<circle clip-path="url(#clip082)" style="fill:#ac8d18; stroke:none; fill-opacity:0" cx="1998.59" cy="1420.59" r="2"/>
<path clip-path="url(#clip082)" d="M388.315 1315.08 L388.315 1445.72 L867.972 1445.72 L867.972 1315.08 L388.315 1315.08 L388.315 1315.08  Z" fill="#00a9ad" fill-rule="evenodd" fill-opacity="1"/>
<polyline clip-path="url(#clip082)" style="stroke:#000000; stroke-linecap:round; stroke-linejoin:round; stroke-width:4; stroke-opacity:1; fill:none" points="388.315,1315.08 388.315,1445.72 867.972,1445.72 867.972,1315.08 388.315,1315.08 "/>
<path clip-path="url(#clip082)" d="M1073.54 1445.72 L1073.54 1445.72 L1553.2 1445.72 L1553.2 1445.72 L1073.54 1445.72 L1073.54 1445.72  Z" fill="#00a9ad" fill-rule="evenodd" fill-opacity="1"/>
<polyline clip-path="url(#clip082)" style="stroke:#000000; stroke-linecap:round; stroke-linejoin:round; stroke-width:4; stroke-opacity:1; fill:none" points="1073.54,1445.72 1073.54,1445.72 1553.2,1445.72 1073.54,1445.72 "/>
<path clip-path="url(#clip082)" d="M1758.76 1445.72 L1758.76 1445.72 L2238.42 1445.72 L2238.42 1445.72 L1758.76 1445.72 L1758.76 1445.72  Z" fill="#00a9ad" fill-rule="evenodd" fill-opacity="1"/>
<polyline clip-path="url(#clip082)" style="stroke:#000000; stroke-linecap:round; stroke-linejoin:round; stroke-width:4; stroke-opacity:1; fill:none" points="1758.76,1445.72 1758.76,1445.72 2238.42,1445.72 1758.76,1445.72 "/>
<circle clip-path="url(#clip082)" style="fill:#00a9ad; stroke:none; fill-opacity:0" cx="628.144" cy="1315.08" r="2"/>
<circle clip-path="url(#clip082)" style="fill:#00a9ad; stroke:none; fill-opacity:0" cx="1313.37" cy="1445.72" r="2"/>
<circle clip-path="url(#clip082)" style="fill:#00a9ad; stroke:none; fill-opacity:0" cx="1998.59" cy="1445.72" r="2"/>
<path clip-path="url(#clip080)" d="M1773.23 458.098 L2283.46 458.098 L2283.46 95.2176 L1773.23 95.2176  Z" fill="#ffffff" fill-rule="evenodd" fill-opacity="1"/>
<polyline clip-path="url(#clip080)" style="stroke:#000000; stroke-linecap:round; stroke-linejoin:round; stroke-width:4; stroke-opacity:1; fill:none" points="1773.23,458.098 2283.46,458.098 2283.46,95.2176 1773.23,95.2176 1773.23,458.098 "/>
<path clip-path="url(#clip080)" d="M1796.32 167.794 L1934.91 167.794 L1934.91 126.322 L1796.32 126.322 L1796.32 167.794  Z" fill="#009af9" fill-rule="evenodd" fill-opacity="1"/>
<polyline clip-path="url(#clip080)" style="stroke:#000000; stroke-linecap:round; stroke-linejoin:round; stroke-width:4; stroke-opacity:1; fill:none" points="1796.32,167.794 1934.91,167.794 1934.91,126.322 1796.32,126.322 1796.32,167.794 "/>
<path clip-path="url(#clip080)" d="M1958.01 129.778 L1962.73 129.778 L1970 158.99 L1977.24 129.778 L1982.5 129.778 L1989.77 158.99 L1997.01 129.778 L2001.76 129.778 L1993.08 164.338 L1987.2 164.338 L1979.9 134.338 L1972.54 164.338 L1966.66 164.338 L1958.01 129.778 Z" fill="#000000" fill-rule="nonzero" fill-opacity="1" /><path clip-path="url(#clip080)" d="M2006.73 138.412 L2010.99 138.412 L2010.99 164.338 L2006.73 164.338 L2006.73 138.412 M2006.73 128.319 L2010.99 128.319 L2010.99 133.713 L2006.73 133.713 L2006.73 128.319 Z" fill="#000000" fill-rule="nonzero" fill-opacity="1" /><path clip-path="url(#clip080)" d="M2041.45 148.689 L2041.45 164.338 L2037.2 164.338 L2037.2 148.828 Q2037.2 145.148 2035.76 143.319 Q2034.33 141.49 2031.46 141.49 Q2028.01 141.49 2026.02 143.69 Q2024.02 145.889 2024.02 149.685 L2024.02 164.338 L2019.74 164.338 L2019.74 138.412 L2024.02 138.412 L2024.02 142.44 Q2025.55 140.102 2027.61 138.944 Q2029.7 137.787 2032.4 137.787 Q2036.87 137.787 2039.16 140.565 Q2041.45 143.319 2041.45 148.689 Z" fill="#000000" fill-rule="nonzero" fill-opacity="1" /><path clip-path="url(#clip080)" d="M2067.01 142.347 L2067.01 128.319 L2071.27 128.319 L2071.27 164.338 L2067.01 164.338 L2067.01 160.449 Q2065.67 162.763 2063.61 163.898 Q2061.57 165.009 2058.7 165.009 Q2054 165.009 2051.04 161.259 Q2048.1 157.509 2048.1 151.398 Q2048.1 145.287 2051.04 141.537 Q2054 137.787 2058.7 137.787 Q2061.57 137.787 2063.61 138.921 Q2065.67 140.032 2067.01 142.347 M2052.5 151.398 Q2052.5 156.097 2054.42 158.782 Q2056.36 161.444 2059.74 161.444 Q2063.12 161.444 2065.07 158.782 Q2067.01 156.097 2067.01 151.398 Q2067.01 146.699 2065.07 144.037 Q2063.12 141.352 2059.74 141.352 Q2056.36 141.352 2054.42 144.037 Q2052.5 146.699 2052.5 151.398 Z" fill="#000000" fill-rule="nonzero" fill-opacity="1" /><path clip-path="url(#clip080)" d="M1796.32 219.634 L1934.91 219.634 L1934.91 178.162 L1796.32 178.162 L1796.32 219.634  Z" fill="#e26f46" fill-rule="evenodd" fill-opacity="1"/>
<polyline clip-path="url(#clip080)" style="stroke:#000000; stroke-linecap:round; stroke-linejoin:round; stroke-width:4; stroke-opacity:1; fill:none" points="1796.32,219.634 1934.91,219.634 1934.91,178.162 1796.32,178.162 1796.32,219.634 "/>
<path clip-path="url(#clip080)" d="M1962.68 185.46 L1962.68 198.446 L1968.56 198.446 Q1971.83 198.446 1973.61 196.756 Q1975.39 195.067 1975.39 191.942 Q1975.39 188.84 1973.61 187.15 Q1971.83 185.46 1968.56 185.46 L1962.68 185.46 M1958.01 181.618 L1968.56 181.618 Q1974.37 181.618 1977.33 184.256 Q1980.32 186.872 1980.32 191.942 Q1980.32 197.057 1977.33 199.673 Q1974.37 202.289 1968.56 202.289 L1962.68 202.289 L1962.68 216.178 L1958.01 216.178 L1958.01 181.618 Z" fill="#000000" fill-rule="nonzero" fill-opacity="1" /><path clip-path="url(#clip080)" d="M1995.51 216.178 L1982.31 181.618 L1987.2 181.618 L1998.15 210.715 L2009.12 181.618 L2013.98 181.618 L2000.81 216.178 L1995.51 216.178 Z" fill="#000000" fill-rule="nonzero" fill-opacity="1" /><path clip-path="url(#clip080)" d="M1796.32 271.474 L1934.91 271.474 L1934.91 230.002 L1796.32 230.002 L1796.32 271.474  Z" fill="#3da44d" fill-rule="evenodd" fill-opacity="1"/>
<polyline clip-path="url(#clip080)" style="stroke:#000000; stroke-linecap:round; stroke-linejoin:round; stroke-width:4; stroke-opacity:1; fill:none" points="1796.32,271.474 1934.91,271.474 1934.91,230.002 1796.32,230.002 1796.32,271.474 "/>
<path clip-path="url(#clip080)" d="M1983.56 263.087 L1983.56 253.805 L1975.92 253.805 L1975.92 249.962 L1988.19 249.962 L1988.19 264.8 Q1985.48 266.721 1982.22 267.717 Q1978.96 268.689 1975.25 268.689 Q1967.15 268.689 1962.57 263.967 Q1958.01 259.221 1958.01 250.772 Q1958.01 242.3 1962.57 237.578 Q1967.15 232.833 1975.25 232.833 Q1978.63 232.833 1981.66 233.666 Q1984.72 234.499 1987.29 236.12 L1987.29 241.096 Q1984.7 238.897 1981.78 237.786 Q1978.86 236.675 1975.65 236.675 Q1969.3 236.675 1966.11 240.217 Q1962.94 243.758 1962.94 250.772 Q1962.94 257.763 1966.11 261.305 Q1969.3 264.846 1975.65 264.846 Q1978.12 264.846 1980.07 264.43 Q1982.01 263.99 1983.56 263.087 Z" fill="#000000" fill-rule="nonzero" fill-opacity="1" /><path clip-path="url(#clip080)" d="M2008.33 254.985 Q2003.17 254.985 2001.18 256.166 Q1999.19 257.346 1999.19 260.194 Q1999.19 262.462 2000.67 263.805 Q2002.17 265.124 2004.74 265.124 Q2008.28 265.124 2010.41 262.624 Q2012.57 260.101 2012.57 255.934 L2012.57 254.985 L2008.33 254.985 M2016.83 253.226 L2016.83 268.018 L2012.57 268.018 L2012.57 264.082 Q2011.11 266.443 2008.93 267.578 Q2006.76 268.689 2003.61 268.689 Q1999.63 268.689 1997.27 266.467 Q1994.93 264.221 1994.93 260.471 Q1994.93 256.096 1997.84 253.874 Q2000.78 251.652 2006.59 251.652 L2012.57 251.652 L2012.57 251.235 Q2012.57 248.295 2010.62 246.698 Q2008.7 245.078 2005.21 245.078 Q2002.98 245.078 2000.88 245.61 Q1998.77 246.143 1996.83 247.207 L1996.83 243.272 Q1999.16 242.37 2001.36 241.93 Q2003.56 241.467 2005.64 241.467 Q2011.27 241.467 2014.05 244.383 Q2016.83 247.3 2016.83 253.226 Z" fill="#000000" fill-rule="nonzero" fill-opacity="1" /><path clip-path="url(#clip080)" d="M2042.13 242.856 L2042.13 246.883 Q2040.32 245.957 2038.38 245.495 Q2036.43 245.032 2034.35 245.032 Q2031.18 245.032 2029.58 246.004 Q2028.01 246.976 2028.01 248.92 Q2028.01 250.402 2029.14 251.258 Q2030.27 252.092 2033.7 252.856 L2035.16 253.18 Q2039.7 254.152 2041.59 255.934 Q2043.52 257.694 2043.52 260.865 Q2043.52 264.476 2040.64 266.582 Q2037.8 268.689 2032.8 268.689 Q2030.71 268.689 2028.45 268.272 Q2026.2 267.879 2023.7 267.068 L2023.7 262.67 Q2026.06 263.897 2028.35 264.522 Q2030.64 265.124 2032.89 265.124 Q2035.9 265.124 2037.52 264.106 Q2039.14 263.064 2039.14 261.189 Q2039.14 259.453 2037.96 258.527 Q2036.8 257.601 2032.84 256.744 L2031.36 256.397 Q2027.4 255.564 2025.64 253.851 Q2023.89 252.115 2023.89 249.106 Q2023.89 245.448 2026.48 243.458 Q2029.07 241.467 2033.84 241.467 Q2036.2 241.467 2038.28 241.814 Q2040.37 242.161 2042.13 242.856 Z" fill="#000000" fill-rule="nonzero" fill-opacity="1" /><path clip-path="url(#clip080)" d="M1796.32 323.314 L1934.91 323.314 L1934.91 281.842 L1796.32 281.842 L1796.32 323.314  Z" fill="#c271d2" fill-rule="evenodd" fill-opacity="1"/>
<polyline clip-path="url(#clip080)" style="stroke:#000000; stroke-linecap:round; stroke-linejoin:round; stroke-width:4; stroke-opacity:1; fill:none" points="1796.32,323.314 1934.91,323.314 1934.91,281.842 1796.32,281.842 1796.32,323.314 "/>
<path clip-path="url(#clip080)" d="M1958.01 285.298 L1962.68 285.298 L1962.68 299.464 L1979.67 299.464 L1979.67 285.298 L1984.35 285.298 L1984.35 319.858 L1979.67 319.858 L1979.67 303.399 L1962.68 303.399 L1962.68 319.858 L1958.01 319.858 L1958.01 285.298 Z" fill="#000000" fill-rule="nonzero" fill-opacity="1" /><path clip-path="url(#clip080)" d="M2004.26 322.265 Q2002.45 326.895 2000.74 328.307 Q1999.02 329.719 1996.15 329.719 L1992.75 329.719 L1992.75 326.154 L1995.25 326.154 Q1997.01 326.154 1997.98 325.32 Q1998.96 324.487 2000.14 321.385 L2000.9 319.441 L1990.41 293.932 L1994.93 293.932 L2003.03 314.209 L2011.13 293.932 L2015.64 293.932 L2004.26 322.265 Z" fill="#000000" fill-rule="nonzero" fill-opacity="1" /><path clip-path="url(#clip080)" d="M2038.58 297.867 L2038.58 283.839 L2042.84 283.839 L2042.84 319.858 L2038.58 319.858 L2038.58 315.969 Q2037.24 318.283 2035.18 319.418 Q2033.14 320.529 2030.27 320.529 Q2025.58 320.529 2022.61 316.779 Q2019.67 313.029 2019.67 306.918 Q2019.67 300.807 2022.61 297.057 Q2025.58 293.307 2030.27 293.307 Q2033.14 293.307 2035.18 294.441 Q2037.24 295.552 2038.58 297.867 M2024.07 306.918 Q2024.07 311.617 2025.99 314.302 Q2027.94 316.964 2031.32 316.964 Q2034.7 316.964 2036.64 314.302 Q2038.58 311.617 2038.58 306.918 Q2038.58 302.219 2036.64 299.557 Q2034.7 296.872 2031.32 296.872 Q2027.94 296.872 2025.99 299.557 Q2024.07 302.219 2024.07 306.918 Z" fill="#000000" fill-rule="nonzero" fill-opacity="1" /><path clip-path="url(#clip080)" d="M2066.64 297.913 Q2065.92 297.497 2065.07 297.311 Q2064.23 297.103 2063.21 297.103 Q2059.6 297.103 2057.66 299.464 Q2055.74 301.802 2055.74 306.2 L2055.74 319.858 L2051.45 319.858 L2051.45 293.932 L2055.74 293.932 L2055.74 297.96 Q2057.08 295.598 2059.23 294.464 Q2061.39 293.307 2064.46 293.307 Q2064.9 293.307 2065.44 293.376 Q2065.97 293.423 2066.62 293.538 L2066.64 297.913 Z" fill="#000000" fill-rule="nonzero" fill-opacity="1" /><path clip-path="url(#clip080)" d="M2080.11 296.918 Q2076.69 296.918 2074.7 299.603 Q2072.7 302.265 2072.7 306.918 Q2072.7 311.571 2074.67 314.256 Q2076.66 316.918 2080.11 316.918 Q2083.51 316.918 2085.51 314.233 Q2087.5 311.547 2087.5 306.918 Q2087.5 302.311 2085.51 299.626 Q2083.51 296.918 2080.11 296.918 M2080.11 293.307 Q2085.67 293.307 2088.84 296.918 Q2092.01 300.529 2092.01 306.918 Q2092.01 313.284 2088.84 316.918 Q2085.67 320.529 2080.11 320.529 Q2074.53 320.529 2071.36 316.918 Q2068.21 313.284 2068.21 306.918 Q2068.21 300.529 2071.36 296.918 Q2074.53 293.307 2080.11 293.307 Z" fill="#000000" fill-rule="nonzero" fill-opacity="1" /><path clip-path="url(#clip080)" d="M1796.32 375.154 L1934.91 375.154 L1934.91 333.682 L1796.32 333.682 L1796.32 375.154  Z" fill="#ac8d18" fill-rule="evenodd" fill-opacity="1"/>
<polyline clip-path="url(#clip080)" style="stroke:#000000; stroke-linecap:round; stroke-linejoin:round; stroke-width:4; stroke-opacity:1; fill:none" points="1796.32,375.154 1934.91,375.154 1934.91,333.682 1796.32,333.682 1796.32,375.154 "/>
<path clip-path="url(#clip080)" d="M1962.68 355.193 L1962.68 367.855 L1970.18 367.855 Q1973.96 367.855 1975.76 366.304 Q1977.59 364.73 1977.59 361.512 Q1977.59 358.272 1975.76 356.744 Q1973.96 355.193 1970.18 355.193 L1962.68 355.193 M1962.68 340.98 L1962.68 351.397 L1969.6 351.397 Q1973.03 351.397 1974.7 350.124 Q1976.39 348.827 1976.39 346.188 Q1976.39 343.573 1974.7 342.276 Q1973.03 340.98 1969.6 340.98 L1962.68 340.98 M1958.01 337.138 L1969.95 337.138 Q1975.3 337.138 1978.19 339.36 Q1981.08 341.582 1981.08 345.679 Q1981.08 348.85 1979.6 350.725 Q1978.12 352.6 1975.25 353.063 Q1978.7 353.804 1980.6 356.165 Q1982.52 358.503 1982.52 362.022 Q1982.52 366.651 1979.37 369.174 Q1976.22 371.698 1970.41 371.698 L1958.01 371.698 L1958.01 337.138 Z" fill="#000000" fill-rule="nonzero" fill-opacity="1" /><path clip-path="url(#clip080)" d="M2002.13 358.665 Q1996.96 358.665 1994.97 359.846 Q1992.98 361.026 1992.98 363.874 Q1992.98 366.142 1994.46 367.485 Q1995.97 368.804 1998.54 368.804 Q2002.08 368.804 2004.21 366.304 Q2006.36 363.781 2006.36 359.614 L2006.36 358.665 L2002.13 358.665 M2010.62 356.906 L2010.62 371.698 L2006.36 371.698 L2006.36 367.762 Q2004.9 370.123 2002.73 371.258 Q2000.55 372.369 1997.4 372.369 Q1993.42 372.369 1991.06 370.147 Q1988.72 367.901 1988.72 364.151 Q1988.72 359.776 1991.64 357.554 Q1994.58 355.332 2000.39 355.332 L2006.36 355.332 L2006.36 354.915 Q2006.36 351.975 2004.42 350.378 Q2002.5 348.758 1999 348.758 Q1996.78 348.758 1994.67 349.29 Q1992.57 349.823 1990.62 350.887 L1990.62 346.952 Q1992.96 346.05 1995.16 345.61 Q1997.36 345.147 1999.44 345.147 Q2005.07 345.147 2007.84 348.063 Q2010.62 350.98 2010.62 356.906 Z" fill="#000000" fill-rule="nonzero" fill-opacity="1" /><path clip-path="url(#clip080)" d="M2023.61 338.411 L2023.61 345.772 L2032.38 345.772 L2032.38 349.082 L2023.61 349.082 L2023.61 363.156 Q2023.61 366.327 2024.46 367.23 Q2025.34 368.133 2028.01 368.133 L2032.38 368.133 L2032.38 371.698 L2028.01 371.698 Q2023.08 371.698 2021.2 369.869 Q2019.33 368.017 2019.33 363.156 L2019.33 349.082 L2016.2 349.082 L2016.2 345.772 L2019.33 345.772 L2019.33 338.411 L2023.61 338.411 Z" fill="#000000" fill-rule="nonzero" fill-opacity="1" /><path clip-path="url(#clip080)" d="M2042.2 338.411 L2042.2 345.772 L2050.97 345.772 L2050.97 349.082 L2042.2 349.082 L2042.2 363.156 Q2042.2 366.327 2043.05 367.23 Q2043.93 368.133 2046.59 368.133 L2050.97 368.133 L2050.97 371.698 L2046.59 371.698 Q2041.66 371.698 2039.79 369.869 Q2037.91 368.017 2037.91 363.156 L2037.91 349.082 L2034.79 349.082 L2034.79 345.772 L2037.91 345.772 L2037.91 338.411 L2042.2 338.411 Z" fill="#000000" fill-rule="nonzero" fill-opacity="1" /><path clip-path="url(#clip080)" d="M2078.75 357.67 L2078.75 359.753 L2059.16 359.753 Q2059.44 364.151 2061.8 366.466 Q2064.19 368.758 2068.42 368.758 Q2070.88 368.758 2073.17 368.156 Q2075.48 367.554 2077.75 366.35 L2077.75 370.378 Q2075.46 371.35 2073.05 371.86 Q2070.64 372.369 2068.17 372.369 Q2061.96 372.369 2058.33 368.758 Q2054.72 365.147 2054.72 358.989 Q2054.72 352.624 2058.14 348.897 Q2061.59 345.147 2067.43 345.147 Q2072.66 345.147 2075.69 348.526 Q2078.75 351.883 2078.75 357.67 M2074.49 356.42 Q2074.44 352.925 2072.52 350.841 Q2070.62 348.758 2067.47 348.758 Q2063.91 348.758 2061.76 350.772 Q2059.63 352.786 2059.3 356.443 L2074.49 356.42 Z" fill="#000000" fill-rule="nonzero" fill-opacity="1" /><path clip-path="url(#clip080)" d="M2100.76 349.753 Q2100.04 349.337 2099.19 349.151 Q2098.35 348.943 2097.33 348.943 Q2093.72 348.943 2091.78 351.304 Q2089.86 353.642 2089.86 358.04 L2089.86 371.698 L2085.58 371.698 L2085.58 345.772 L2089.86 345.772 L2089.86 349.8 Q2091.2 347.438 2093.35 346.304 Q2095.51 345.147 2098.58 345.147 Q2099.02 345.147 2099.56 345.216 Q2100.09 345.263 2100.74 345.378 L2100.76 349.753 Z" fill="#000000" fill-rule="nonzero" fill-opacity="1" /><path clip-path="url(#clip080)" d="M2116.01 374.105 Q2114.21 378.735 2112.5 380.147 Q2110.78 381.559 2107.91 381.559 L2104.51 381.559 L2104.51 377.994 L2107.01 377.994 Q2108.77 377.994 2109.74 377.16 Q2110.71 376.327 2111.89 373.225 L2112.66 371.281 L2102.17 345.772 L2106.69 345.772 L2114.79 366.049 L2122.89 345.772 L2127.4 345.772 L2116.01 374.105 Z" fill="#000000" fill-rule="nonzero" fill-opacity="1" /><path clip-path="url(#clip080)" d="M1796.32 426.994 L1934.91 426.994 L1934.91 385.522 L1796.32 385.522 L1796.32 426.994  Z" fill="#00a9ad" fill-rule="evenodd" fill-opacity="1"/>
<polyline clip-path="url(#clip080)" style="stroke:#000000; stroke-linecap:round; stroke-linejoin:round; stroke-width:4; stroke-opacity:1; fill:none" points="1796.32,426.994 1934.91,426.994 1934.91,385.522 1796.32,385.522 1796.32,426.994 "/>
<path clip-path="url(#clip080)" d="M1958.01 388.978 L1987.24 388.978 L1987.24 392.913 L1974.97 392.913 L1974.97 423.538 L1970.27 423.538 L1970.27 392.913 L1958.01 392.913 L1958.01 388.978 Z" fill="#000000" fill-rule="nonzero" fill-opacity="1" /><path clip-path="url(#clip080)" d="M1999.63 401.593 Q1998.91 401.177 1998.05 400.991 Q1997.22 400.783 1996.2 400.783 Q1992.59 400.783 1990.65 403.144 Q1988.72 405.482 1988.72 409.88 L1988.72 423.538 L1984.44 423.538 L1984.44 397.612 L1988.72 397.612 L1988.72 401.64 Q1990.07 399.278 1992.22 398.144 Q1994.37 396.987 1997.45 396.987 Q1997.89 396.987 1998.42 397.056 Q1998.96 397.103 1999.6 397.218 L1999.63 401.593 Z" fill="#000000" fill-rule="nonzero" fill-opacity="1" /><path clip-path="url(#clip080)" d="M2015.88 410.505 Q2010.71 410.505 2008.72 411.686 Q2006.73 412.866 2006.73 415.714 Q2006.73 417.982 2008.21 419.325 Q2009.72 420.644 2012.29 420.644 Q2015.83 420.644 2017.96 418.144 Q2020.11 415.621 2020.11 411.454 L2020.11 410.505 L2015.88 410.505 M2024.37 408.746 L2024.37 423.538 L2020.11 423.538 L2020.11 419.602 Q2018.65 421.963 2016.48 423.098 Q2014.3 424.209 2011.15 424.209 Q2007.17 424.209 2004.81 421.987 Q2002.47 419.741 2002.47 415.991 Q2002.47 411.616 2005.39 409.394 Q2008.33 407.172 2014.14 407.172 L2020.11 407.172 L2020.11 406.755 Q2020.11 403.815 2018.17 402.218 Q2016.25 400.598 2012.75 400.598 Q2010.53 400.598 2008.42 401.13 Q2006.32 401.663 2004.37 402.727 L2004.37 398.792 Q2006.71 397.89 2008.91 397.45 Q2011.11 396.987 2013.19 396.987 Q2018.82 396.987 2021.59 399.903 Q2024.37 402.82 2024.37 408.746 Z" fill="#000000" fill-rule="nonzero" fill-opacity="1" /><path clip-path="url(#clip080)" d="M2054.7 407.889 L2054.7 423.538 L2050.44 423.538 L2050.44 408.028 Q2050.44 404.348 2049 402.519 Q2047.57 400.69 2044.7 400.69 Q2041.25 400.69 2039.26 402.89 Q2037.27 405.089 2037.27 408.885 L2037.27 423.538 L2032.98 423.538 L2032.98 397.612 L2037.27 397.612 L2037.27 401.64 Q2038.79 399.302 2040.85 398.144 Q2042.94 396.987 2045.64 396.987 Q2050.11 396.987 2052.4 399.765 Q2054.7 402.519 2054.7 407.889 Z" fill="#000000" fill-rule="nonzero" fill-opacity="1" /><path clip-path="url(#clip080)" d="M2079.72 398.376 L2079.72 402.403 Q2077.91 401.477 2075.97 401.015 Q2074.02 400.552 2071.94 400.552 Q2068.77 400.552 2067.17 401.524 Q2065.6 402.496 2065.6 404.44 Q2065.6 405.922 2066.73 406.778 Q2067.87 407.612 2071.29 408.376 L2072.75 408.7 Q2077.29 409.672 2079.19 411.454 Q2081.11 413.214 2081.11 416.385 Q2081.11 419.996 2078.24 422.102 Q2075.39 424.209 2070.39 424.209 Q2068.31 424.209 2066.04 423.792 Q2063.79 423.399 2061.29 422.588 L2061.29 418.19 Q2063.65 419.417 2065.95 420.042 Q2068.24 420.644 2070.48 420.644 Q2073.49 420.644 2075.11 419.626 Q2076.73 418.584 2076.73 416.709 Q2076.73 414.973 2075.55 414.047 Q2074.39 413.121 2070.44 412.264 L2068.95 411.917 Q2065 411.084 2063.24 409.371 Q2061.48 407.635 2061.48 404.626 Q2061.48 400.968 2064.07 398.978 Q2066.66 396.987 2071.43 396.987 Q2073.79 396.987 2075.88 397.334 Q2077.96 397.681 2079.72 398.376 Z" fill="#000000" fill-rule="nonzero" fill-opacity="1" /><path clip-path="url(#clip080)" d="M2108.07 402.589 Q2109.67 399.718 2111.89 398.353 Q2114.12 396.987 2117.13 396.987 Q2121.18 396.987 2123.38 399.834 Q2125.57 402.658 2125.57 407.889 L2125.57 423.538 L2121.29 423.538 L2121.29 408.028 Q2121.29 404.302 2119.97 402.496 Q2118.65 400.69 2115.95 400.69 Q2112.64 400.69 2110.71 402.89 Q2108.79 405.089 2108.79 408.885 L2108.79 423.538 L2104.51 423.538 L2104.51 408.028 Q2104.51 404.278 2103.19 402.496 Q2101.87 400.69 2099.12 400.69 Q2095.85 400.69 2093.93 402.913 Q2092.01 405.112 2092.01 408.885 L2092.01 423.538 L2087.73 423.538 L2087.73 397.612 L2092.01 397.612 L2092.01 401.64 Q2093.47 399.255 2095.51 398.121 Q2097.54 396.987 2100.34 396.987 Q2103.17 396.987 2105.14 398.422 Q2107.13 399.857 2108.07 402.589 Z" fill="#000000" fill-rule="nonzero" fill-opacity="1" /><path clip-path="url(#clip080)" d="M2134.07 397.612 L2138.33 397.612 L2138.33 423.538 L2134.07 423.538 L2134.07 397.612 M2134.07 387.519 L2138.33 387.519 L2138.33 392.913 L2134.07 392.913 L2134.07 387.519 Z" fill="#000000" fill-rule="nonzero" fill-opacity="1" /><path clip-path="url(#clip080)" d="M2163.77 398.376 L2163.77 402.403 Q2161.96 401.477 2160.02 401.015 Q2158.07 400.552 2155.99 400.552 Q2152.82 400.552 2151.22 401.524 Q2149.65 402.496 2149.65 404.44 Q2149.65 405.922 2150.78 406.778 Q2151.92 407.612 2155.34 408.376 L2156.8 408.7 Q2161.34 409.672 2163.24 411.454 Q2165.16 413.214 2165.16 416.385 Q2165.16 419.996 2162.29 422.102 Q2159.44 424.209 2154.44 424.209 Q2152.36 424.209 2150.09 423.792 Q2147.84 423.399 2145.34 422.588 L2145.34 418.19 Q2147.7 419.417 2150 420.042 Q2152.29 420.644 2154.53 420.644 Q2157.54 420.644 2159.16 419.626 Q2160.78 418.584 2160.78 416.709 Q2160.78 414.973 2159.6 414.047 Q2158.45 413.121 2154.49 412.264 L2153.01 411.917 Q2149.05 411.084 2147.29 409.371 Q2145.53 407.635 2145.53 404.626 Q2145.53 400.968 2148.12 398.978 Q2150.71 396.987 2155.48 396.987 Q2157.84 396.987 2159.93 397.334 Q2162.01 397.681 2163.77 398.376 Z" fill="#000000" fill-rule="nonzero" fill-opacity="1" /><path clip-path="url(#clip080)" d="M2188.47 398.376 L2188.47 402.403 Q2186.66 401.477 2184.72 401.015 Q2182.77 400.552 2180.69 400.552 Q2177.52 400.552 2175.92 401.524 Q2174.35 402.496 2174.35 404.44 Q2174.35 405.922 2175.48 406.778 Q2176.62 407.612 2180.04 408.376 L2181.5 408.7 Q2186.04 409.672 2187.94 411.454 Q2189.86 413.214 2189.86 416.385 Q2189.86 419.996 2186.99 422.102 Q2184.14 424.209 2179.14 424.209 Q2177.06 424.209 2174.79 423.792 Q2172.54 423.399 2170.04 422.588 L2170.04 418.19 Q2172.4 419.417 2174.69 420.042 Q2176.99 420.644 2179.23 420.644 Q2182.24 420.644 2183.86 419.626 Q2185.48 418.584 2185.48 416.709 Q2185.48 414.973 2184.3 414.047 Q2183.14 413.121 2179.19 412.264 L2177.7 411.917 Q2173.75 411.084 2171.99 409.371 Q2170.23 407.635 2170.23 404.626 Q2170.23 400.968 2172.82 398.978 Q2175.41 396.987 2180.18 396.987 Q2182.54 396.987 2184.63 397.334 Q2186.71 397.681 2188.47 398.376 Z" fill="#000000" fill-rule="nonzero" fill-opacity="1" /><path clip-path="url(#clip080)" d="M2196.64 397.612 L2200.9 397.612 L2200.9 423.538 L2196.64 423.538 L2196.64 397.612 M2196.64 387.519 L2200.9 387.519 L2200.9 392.913 L2196.64 392.913 L2196.64 387.519 Z" fill="#000000" fill-rule="nonzero" fill-opacity="1" /><path clip-path="url(#clip080)" d="M2219.86 400.598 Q2216.43 400.598 2214.44 403.283 Q2212.45 405.945 2212.45 410.598 Q2212.45 415.251 2214.42 417.936 Q2216.41 420.598 2219.86 420.598 Q2223.26 420.598 2225.25 417.913 Q2227.24 415.227 2227.24 410.598 Q2227.24 405.991 2225.25 403.306 Q2223.26 400.598 2219.86 400.598 M2219.86 396.987 Q2225.41 396.987 2228.58 400.598 Q2231.75 404.209 2231.75 410.598 Q2231.75 416.964 2228.58 420.598 Q2225.41 424.209 2219.86 424.209 Q2214.28 424.209 2211.11 420.598 Q2207.96 416.964 2207.96 410.598 Q2207.96 404.209 2211.11 400.598 Q2214.28 396.987 2219.86 396.987 Z" fill="#000000" fill-rule="nonzero" fill-opacity="1" /><path clip-path="url(#clip080)" d="M2260.37 407.889 L2260.37 423.538 L2256.11 423.538 L2256.11 408.028 Q2256.11 404.348 2254.67 402.519 Q2253.24 400.69 2250.37 400.69 Q2246.92 400.69 2244.93 402.89 Q2242.94 405.089 2242.94 408.885 L2242.94 423.538 L2238.65 423.538 L2238.65 397.612 L2242.94 397.612 L2242.94 401.64 Q2244.46 399.302 2246.52 398.144 Q2248.61 396.987 2251.31 396.987 Q2255.78 396.987 2258.07 399.765 Q2260.37 402.519 2260.37 407.889 Z" fill="#000000" fill-rule="nonzero" fill-opacity="1" /></svg>
