<?xml version="1.0" encoding="utf-8"?>
<svg xmlns="http://www.w3.org/2000/svg" xmlns:xlink="http://www.w3.org/1999/xlink" width="600" height="400" viewBox="0 0 2400 1600">
<defs>
  <clipPath id="clip810">
    <rect x="0" y="0" width="2400" height="1600"/>
  </clipPath>
</defs>
<path clip-path="url(#clip810)" d="M0 1600 L2400 1600 L2400 0 L0 0  Z" fill="#ffffff" fill-rule="evenodd" fill-opacity="1"/>
<defs>
  <clipPath id="clip811">
    <rect x="480" y="0" width="1681" height="1600"/>
  </clipPath>
</defs>
<path clip-path="url(#clip810)" d="M275.136 1486.45 L2352.76 1486.45 L2352.76 47.2441 L275.136 47.2441  Z" fill="#ffffff" fill-rule="evenodd" fill-opacity="1"/>
<defs>
  <clipPath id="clip812">
    <rect x="275" y="47" width="2079" height="1440"/>
  </clipPath>
</defs>
<polyline clip-path="url(#clip812)" style="stroke:#000000; stroke-linecap:round; stroke-linejoin:round; stroke-width:2; stroke-opacity:0.1; fill:none" points="629.104,1486.45 629.104,47.2441 "/>
<polyline clip-path="url(#clip812)" style="stroke:#000000; stroke-linecap:round; stroke-linejoin:round; stroke-width:2; stroke-opacity:0.1; fill:none" points="1313.95,1486.45 1313.95,47.2441 "/>
<polyline clip-path="url(#clip812)" style="stroke:#000000; stroke-linecap:round; stroke-linejoin:round; stroke-width:2; stroke-opacity:0.1; fill:none" points="1998.79,1486.45 1998.79,47.2441 "/>
<polyline clip-path="url(#clip810)" style="stroke:#000000; stroke-linecap:round; stroke-linejoin:round; stroke-width:4; stroke-opacity:1; fill:none" points="275.136,1486.45 2352.76,1486.45 "/>
<polyline clip-path="url(#clip810)" style="stroke:#000000; stroke-linecap:round; stroke-linejoin:round; stroke-width:4; stroke-opacity:1; fill:none" points="629.104,1486.45 629.104,1467.55 "/>
<polyline clip-path="url(#clip810)" style="stroke:#000000; stroke-linecap:round; stroke-linejoin:round; stroke-width:4; stroke-opacity:1; fill:none" points="1313.95,1486.45 1313.95,1467.55 "/>
<polyline clip-path="url(#clip810)" style="stroke:#000000; stroke-linecap:round; stroke-linejoin:round; stroke-width:4; stroke-opacity:1; fill:none" points="1998.79,1486.45 1998.79,1467.55 "/>
<path clip-path="url(#clip810)" d="M547.75 1543.92 L547.75 1534.63 L540.111 1534.63 L540.111 1530.79 L552.38 1530.79 L552.38 1545.63 Q549.671 1547.55 546.408 1548.55 Q543.144 1549.52 539.44 1549.52 Q531.338 1549.52 526.755 1544.8 Q522.195 1540.05 522.195 1531.6 Q522.195 1523.13 526.755 1518.41 Q531.338 1513.66 539.44 1513.66 Q542.82 1513.66 545.852 1514.5 Q548.908 1515.33 551.477 1516.95 L551.477 1521.93 Q548.884 1519.73 545.968 1518.62 Q543.051 1517.51 539.834 1517.51 Q533.491 1517.51 530.297 1521.05 Q527.125 1524.59 527.125 1531.6 Q527.125 1538.59 530.297 1542.13 Q533.491 1545.68 539.834 1545.68 Q542.31 1545.68 544.255 1545.26 Q546.199 1544.82 547.75 1543.92 Z" fill="#000000" fill-rule="nonzero" fill-opacity="1" /><path clip-path="url(#clip810)" d="M582.912 1534.82 L582.912 1536.9 L563.329 1536.9 Q563.607 1541.3 565.968 1543.62 Q568.352 1545.91 572.588 1545.91 Q575.042 1545.91 577.333 1545.31 Q579.648 1544.7 581.917 1543.5 L581.917 1547.53 Q579.625 1548.5 577.218 1549.01 Q574.81 1549.52 572.333 1549.52 Q566.13 1549.52 562.495 1545.91 Q558.884 1542.3 558.884 1536.14 Q558.884 1529.77 562.31 1526.05 Q565.759 1522.3 571.593 1522.3 Q576.824 1522.3 579.856 1525.68 Q582.912 1529.03 582.912 1534.82 M578.653 1533.57 Q578.607 1530.07 576.685 1527.99 Q574.787 1525.91 571.639 1525.91 Q568.074 1525.91 565.921 1527.92 Q563.792 1529.94 563.468 1533.59 L578.653 1533.57 Z" fill="#000000" fill-rule="nonzero" fill-opacity="1" /><path clip-path="url(#clip810)" d="M604.926 1526.9 Q604.208 1526.49 603.352 1526.3 Q602.518 1526.09 601.5 1526.09 Q597.889 1526.09 595.944 1528.45 Q594.023 1530.79 594.023 1535.19 L594.023 1548.85 L589.741 1548.85 L589.741 1522.92 L594.023 1522.92 L594.023 1526.95 Q595.366 1524.59 597.518 1523.45 Q599.671 1522.3 602.75 1522.3 Q603.19 1522.3 603.722 1522.37 Q604.255 1522.41 604.903 1522.53 L604.926 1526.9 Z" fill="#000000" fill-rule="nonzero" fill-opacity="1" /><path clip-path="url(#clip810)" d="M628.745 1527.9 Q630.342 1525.03 632.565 1523.66 Q634.787 1522.3 637.796 1522.3 Q641.847 1522.3 644.046 1525.14 Q646.245 1527.97 646.245 1533.2 L646.245 1548.85 L641.963 1548.85 L641.963 1533.34 Q641.963 1529.61 640.643 1527.81 Q639.324 1526 636.615 1526 Q633.305 1526 631.384 1528.2 Q629.463 1530.4 629.463 1534.2 L629.463 1548.85 L625.18 1548.85 L625.18 1533.34 Q625.18 1529.59 623.861 1527.81 Q622.541 1526 619.787 1526 Q616.523 1526 614.602 1528.22 Q612.68 1530.42 612.68 1534.2 L612.68 1548.85 L608.398 1548.85 L608.398 1522.92 L612.68 1522.92 L612.68 1526.95 Q614.139 1524.57 616.176 1523.43 Q618.213 1522.3 621.014 1522.3 Q623.838 1522.3 625.805 1523.73 Q627.796 1525.17 628.745 1527.9 Z" fill="#000000" fill-rule="nonzero" fill-opacity="1" /><path clip-path="url(#clip810)" d="M666.523 1535.82 Q661.361 1535.82 659.37 1537 Q657.379 1538.18 657.379 1541.02 Q657.379 1543.29 658.861 1544.63 Q660.365 1545.95 662.935 1545.95 Q666.476 1545.95 668.606 1543.45 Q670.759 1540.93 670.759 1536.76 L670.759 1535.82 L666.523 1535.82 M675.018 1534.06 L675.018 1548.85 L670.759 1548.85 L670.759 1544.91 Q669.3 1547.27 667.125 1548.41 Q664.949 1549.52 661.801 1549.52 Q657.819 1549.52 655.458 1547.3 Q653.12 1545.05 653.12 1541.3 Q653.12 1536.93 656.037 1534.7 Q658.976 1532.48 664.787 1532.48 L670.759 1532.48 L670.759 1532.07 Q670.759 1529.13 668.814 1527.53 Q666.893 1525.91 663.398 1525.91 Q661.176 1525.91 659.069 1526.44 Q656.963 1526.97 655.018 1528.04 L655.018 1524.1 Q657.356 1523.2 659.555 1522.76 Q661.754 1522.3 663.838 1522.3 Q669.463 1522.3 672.24 1525.21 Q675.018 1528.13 675.018 1534.06 Z" fill="#000000" fill-rule="nonzero" fill-opacity="1" /><path clip-path="url(#clip810)" d="M705.342 1533.2 L705.342 1548.85 L701.083 1548.85 L701.083 1533.34 Q701.083 1529.66 699.648 1527.83 Q698.212 1526 695.342 1526 Q691.893 1526 689.902 1528.2 Q687.911 1530.4 687.911 1534.2 L687.911 1548.85 L683.629 1548.85 L683.629 1522.92 L687.911 1522.92 L687.911 1526.95 Q689.439 1524.61 691.499 1523.45 Q693.583 1522.3 696.291 1522.3 Q700.759 1522.3 703.05 1525.07 Q705.342 1527.83 705.342 1533.2 Z" fill="#000000" fill-rule="nonzero" fill-opacity="1" /><path clip-path="url(#clip810)" d="M724.624 1551.26 Q722.819 1555.88 721.106 1557.3 Q719.393 1558.71 716.522 1558.71 L713.12 1558.71 L713.12 1555.14 L715.62 1555.14 Q717.379 1555.14 718.351 1554.31 Q719.323 1553.48 720.504 1550.38 L721.268 1548.43 L710.782 1522.92 L715.296 1522.92 L723.397 1543.2 L731.499 1522.92 L736.013 1522.92 L724.624 1551.26 Z" fill="#000000" fill-rule="nonzero" fill-opacity="1" /><path clip-path="url(#clip810)" d="M1246.1 1515.42 L1246.1 1519.98 Q1243.44 1518.71 1241.08 1518.08 Q1238.72 1517.46 1236.52 1517.46 Q1232.7 1517.46 1230.61 1518.94 Q1228.55 1520.42 1228.55 1523.15 Q1228.55 1525.45 1229.92 1526.63 Q1231.31 1527.78 1235.15 1528.5 L1237.97 1529.08 Q1243.21 1530.07 1245.68 1532.6 Q1248.18 1535.1 1248.18 1539.31 Q1248.18 1544.33 1244.8 1546.93 Q1241.45 1549.52 1234.94 1549.52 Q1232.49 1549.52 1229.71 1548.96 Q1226.96 1548.41 1223.99 1547.32 L1223.99 1542.51 Q1226.84 1544.1 1229.57 1544.91 Q1232.3 1545.72 1234.94 1545.72 Q1238.95 1545.72 1241.12 1544.15 Q1243.3 1542.57 1243.3 1539.66 Q1243.3 1537.11 1241.72 1535.68 Q1240.17 1534.24 1236.61 1533.52 L1233.76 1532.97 Q1228.53 1531.93 1226.19 1529.7 Q1223.85 1527.48 1223.85 1523.52 Q1223.85 1518.94 1227.07 1516.3 Q1230.31 1513.66 1235.98 1513.66 Q1238.41 1513.66 1240.94 1514.1 Q1243.46 1514.54 1246.1 1515.42 Z" fill="#000000" fill-rule="nonzero" fill-opacity="1" /><path clip-path="url(#clip810)" d="M1252.81 1522.92 L1257.07 1522.92 L1262.4 1543.15 L1267.7 1522.92 L1272.72 1522.92 L1278.04 1543.15 L1283.34 1522.92 L1287.6 1522.92 L1280.82 1548.85 L1275.8 1548.85 L1270.22 1527.6 L1264.62 1548.85 L1259.59 1548.85 L1252.81 1522.92 Z" fill="#000000" fill-rule="nonzero" fill-opacity="1" /><path clip-path="url(#clip810)" d="M1316.24 1534.82 L1316.24 1536.9 L1296.65 1536.9 Q1296.93 1541.3 1299.29 1543.62 Q1301.68 1545.91 1305.91 1545.91 Q1308.37 1545.91 1310.66 1545.31 Q1312.97 1544.7 1315.24 1543.5 L1315.24 1547.53 Q1312.95 1548.5 1310.54 1549.01 Q1308.14 1549.52 1305.66 1549.52 Q1299.46 1549.52 1295.82 1545.91 Q1292.21 1542.3 1292.21 1536.14 Q1292.21 1529.77 1295.64 1526.05 Q1299.09 1522.3 1304.92 1522.3 Q1310.15 1522.3 1313.18 1525.68 Q1316.24 1529.03 1316.24 1534.82 M1311.98 1533.57 Q1311.93 1530.07 1310.01 1527.99 Q1308.11 1525.91 1304.96 1525.91 Q1301.4 1525.91 1299.25 1527.92 Q1297.12 1529.94 1296.79 1533.59 L1311.98 1533.57 Z" fill="#000000" fill-rule="nonzero" fill-opacity="1" /><path clip-path="url(#clip810)" d="M1340.29 1526.86 L1340.29 1512.83 L1344.55 1512.83 L1344.55 1548.85 L1340.29 1548.85 L1340.29 1544.96 Q1338.95 1547.27 1336.89 1548.41 Q1334.85 1549.52 1331.98 1549.52 Q1327.28 1549.52 1324.32 1545.77 Q1321.38 1542.02 1321.38 1535.91 Q1321.38 1529.8 1324.32 1526.05 Q1327.28 1522.3 1331.98 1522.3 Q1334.85 1522.3 1336.89 1523.43 Q1338.95 1524.54 1340.29 1526.86 M1325.77 1535.91 Q1325.77 1540.61 1327.7 1543.29 Q1329.64 1545.95 1333.02 1545.95 Q1336.4 1545.95 1338.34 1543.29 Q1340.29 1540.61 1340.29 1535.91 Q1340.29 1531.21 1338.34 1528.55 Q1336.4 1525.86 1333.02 1525.86 Q1329.64 1525.86 1327.7 1528.55 Q1325.77 1531.21 1325.77 1535.91 Z" fill="#000000" fill-rule="nonzero" fill-opacity="1" /><path clip-path="url(#clip810)" d="M1375.5 1534.82 L1375.5 1536.9 L1355.91 1536.9 Q1356.19 1541.3 1358.55 1543.62 Q1360.94 1545.91 1365.17 1545.91 Q1367.63 1545.91 1369.92 1545.31 Q1372.23 1544.7 1374.5 1543.5 L1374.5 1547.53 Q1372.21 1548.5 1369.8 1549.01 Q1367.39 1549.52 1364.92 1549.52 Q1358.71 1549.52 1355.08 1545.91 Q1351.47 1542.3 1351.47 1536.14 Q1351.47 1529.77 1354.89 1526.05 Q1358.34 1522.3 1364.18 1522.3 Q1369.41 1522.3 1372.44 1525.68 Q1375.5 1529.03 1375.5 1534.82 M1371.24 1533.57 Q1371.19 1530.07 1369.27 1527.99 Q1367.37 1525.91 1364.22 1525.91 Q1360.66 1525.91 1358.51 1527.92 Q1356.38 1529.94 1356.05 1533.59 L1371.24 1533.57 Z" fill="#000000" fill-rule="nonzero" fill-opacity="1" /><path clip-path="url(#clip810)" d="M1404.04 1533.2 L1404.04 1548.85 L1399.78 1548.85 L1399.78 1533.34 Q1399.78 1529.66 1398.34 1527.83 Q1396.91 1526 1394.04 1526 Q1390.59 1526 1388.6 1528.2 Q1386.61 1530.4 1386.61 1534.2 L1386.61 1548.85 L1382.33 1548.85 L1382.33 1522.92 L1386.61 1522.92 L1386.61 1526.95 Q1388.14 1524.61 1390.2 1523.45 Q1392.28 1522.3 1394.99 1522.3 Q1399.45 1522.3 1401.75 1525.07 Q1404.04 1527.83 1404.04 1533.2 Z" fill="#000000" fill-rule="nonzero" fill-opacity="1" /><path clip-path="url(#clip810)" d="M1896.91 1518.13 L1896.91 1545.01 L1902.56 1545.01 Q1909.71 1545.01 1913.02 1541.76 Q1916.36 1538.52 1916.36 1531.53 Q1916.36 1524.59 1913.02 1521.37 Q1909.71 1518.13 1902.56 1518.13 L1896.91 1518.13 M1892.24 1514.29 L1901.84 1514.29 Q1911.89 1514.29 1916.59 1518.48 Q1921.29 1522.64 1921.29 1531.53 Q1921.29 1540.47 1916.57 1544.66 Q1911.84 1548.85 1901.84 1548.85 L1892.24 1548.85 L1892.24 1514.29 Z" fill="#000000" fill-rule="nonzero" fill-opacity="1" /><path clip-path="url(#clip810)" d="M1950.73 1534.82 L1950.73 1536.9 L1931.15 1536.9 Q1931.43 1541.3 1933.79 1543.62 Q1936.17 1545.91 1940.41 1545.91 Q1942.86 1545.91 1945.15 1545.31 Q1947.47 1544.7 1949.74 1543.5 L1949.74 1547.53 Q1947.45 1548.5 1945.04 1549.01 Q1942.63 1549.52 1940.15 1549.52 Q1933.95 1549.52 1930.32 1545.91 Q1926.71 1542.3 1926.71 1536.14 Q1926.71 1529.77 1930.13 1526.05 Q1933.58 1522.3 1939.41 1522.3 Q1944.65 1522.3 1947.68 1525.68 Q1950.73 1529.03 1950.73 1534.82 M1946.47 1533.57 Q1946.43 1530.07 1944.51 1527.99 Q1942.61 1525.91 1939.46 1525.91 Q1935.9 1525.91 1933.74 1527.92 Q1931.61 1529.94 1931.29 1533.59 L1946.47 1533.57 Z" fill="#000000" fill-rule="nonzero" fill-opacity="1" /><path clip-path="url(#clip810)" d="M1979.27 1533.2 L1979.27 1548.85 L1975.02 1548.85 L1975.02 1533.34 Q1975.02 1529.66 1973.58 1527.83 Q1972.14 1526 1969.27 1526 Q1965.83 1526 1963.83 1528.2 Q1961.84 1530.4 1961.84 1534.2 L1961.84 1548.85 L1957.56 1548.85 L1957.56 1522.92 L1961.84 1522.92 L1961.84 1526.95 Q1963.37 1524.61 1965.43 1523.45 Q1967.52 1522.3 1970.22 1522.3 Q1974.69 1522.3 1976.98 1525.07 Q1979.27 1527.83 1979.27 1533.2 Z" fill="#000000" fill-rule="nonzero" fill-opacity="1" /><path clip-path="url(#clip810)" d="M2007.95 1527.9 Q2009.55 1525.03 2011.77 1523.66 Q2014 1522.3 2017.01 1522.3 Q2021.06 1522.3 2023.26 1525.14 Q2025.45 1527.97 2025.45 1533.2 L2025.45 1548.85 L2021.17 1548.85 L2021.17 1533.34 Q2021.17 1529.61 2019.85 1527.81 Q2018.53 1526 2015.83 1526 Q2012.52 1526 2010.59 1528.2 Q2008.67 1530.4 2008.67 1534.2 L2008.67 1548.85 L2004.39 1548.85 L2004.39 1533.34 Q2004.39 1529.59 2003.07 1527.81 Q2001.75 1526 1999 1526 Q1995.73 1526 1993.81 1528.22 Q1991.89 1530.42 1991.89 1534.2 L1991.89 1548.85 L1987.61 1548.85 L1987.61 1522.92 L1991.89 1522.92 L1991.89 1526.95 Q1993.35 1524.57 1995.39 1523.43 Q1997.42 1522.3 2000.22 1522.3 Q2003.05 1522.3 2005.02 1523.73 Q2007.01 1525.17 2007.95 1527.9 Z" fill="#000000" fill-rule="nonzero" fill-opacity="1" /><path clip-path="url(#clip810)" d="M2045.73 1535.82 Q2040.57 1535.82 2038.58 1537 Q2036.59 1538.18 2036.59 1541.02 Q2036.59 1543.29 2038.07 1544.63 Q2039.58 1545.95 2042.14 1545.95 Q2045.69 1545.95 2047.82 1543.45 Q2049.97 1540.93 2049.97 1536.76 L2049.97 1535.82 L2045.73 1535.82 M2054.23 1534.06 L2054.23 1548.85 L2049.97 1548.85 L2049.97 1544.91 Q2048.51 1547.27 2046.33 1548.41 Q2044.16 1549.52 2041.01 1549.52 Q2037.03 1549.52 2034.67 1547.3 Q2032.33 1545.05 2032.33 1541.3 Q2032.33 1536.93 2035.25 1534.7 Q2038.19 1532.48 2044 1532.48 L2049.97 1532.48 L2049.97 1532.07 Q2049.97 1529.13 2048.02 1527.53 Q2046.1 1525.91 2042.61 1525.91 Q2040.39 1525.91 2038.28 1526.44 Q2036.17 1526.97 2034.23 1528.04 L2034.23 1524.1 Q2036.57 1523.2 2038.76 1522.76 Q2040.96 1522.3 2043.05 1522.3 Q2048.67 1522.3 2051.45 1525.21 Q2054.23 1528.13 2054.23 1534.06 Z" fill="#000000" fill-rule="nonzero" fill-opacity="1" /><path clip-path="url(#clip810)" d="M2078.02 1526.9 Q2077.31 1526.49 2076.45 1526.3 Q2075.62 1526.09 2074.6 1526.09 Q2070.99 1526.09 2069.04 1528.45 Q2067.12 1530.79 2067.12 1535.19 L2067.12 1548.85 L2062.84 1548.85 L2062.84 1522.92 L2067.12 1522.92 L2067.12 1526.95 Q2068.46 1524.59 2070.62 1523.45 Q2072.77 1522.3 2075.85 1522.3 Q2076.29 1522.3 2076.82 1522.37 Q2077.35 1522.41 2078 1522.53 L2078.02 1526.9 Z" fill="#000000" fill-rule="nonzero" fill-opacity="1" /><path clip-path="url(#clip810)" d="M2082.33 1512.83 L2086.61 1512.83 L2086.61 1534.1 L2099.32 1522.92 L2104.76 1522.92 L2091.01 1535.05 L2105.34 1548.85 L2099.78 1548.85 L2086.61 1536.19 L2086.61 1548.85 L2082.33 1548.85 L2082.33 1512.83 Z" fill="#000000" fill-rule="nonzero" fill-opacity="1" /><polyline clip-path="url(#clip812)" style="stroke:#000000; stroke-linecap:round; stroke-linejoin:round; stroke-width:2; stroke-opacity:0.1; fill:none" points="275.136,1445.72 2352.76,1445.72 "/>
<polyline clip-path="url(#clip812)" style="stroke:#000000; stroke-linecap:round; stroke-linejoin:round; stroke-width:2; stroke-opacity:0.1; fill:none" points="275.136,1235.78 2352.76,1235.78 "/>
<polyline clip-path="url(#clip812)" style="stroke:#000000; stroke-linecap:round; stroke-linejoin:round; stroke-width:2; stroke-opacity:0.1; fill:none" points="275.136,1025.84 2352.76,1025.84 "/>
<polyline clip-path="url(#clip812)" style="stroke:#000000; stroke-linecap:round; stroke-linejoin:round; stroke-width:2; stroke-opacity:0.1; fill:none" points="275.136,815.9 2352.76,815.9 "/>
<polyline clip-path="url(#clip812)" style="stroke:#000000; stroke-linecap:round; stroke-linejoin:round; stroke-width:2; stroke-opacity:0.1; fill:none" points="275.136,605.962 2352.76,605.962 "/>
<polyline clip-path="url(#clip812)" style="stroke:#000000; stroke-linecap:round; stroke-linejoin:round; stroke-width:2; stroke-opacity:0.1; fill:none" points="275.136,396.023 2352.76,396.023 "/>
<polyline clip-path="url(#clip812)" style="stroke:#000000; stroke-linecap:round; stroke-linejoin:round; stroke-width:2; stroke-opacity:0.1; fill:none" points="275.136,186.084 2352.76,186.084 "/>
<polyline clip-path="url(#clip810)" style="stroke:#000000; stroke-linecap:round; stroke-linejoin:round; stroke-width:4; stroke-opacity:1; fill:none" points="275.136,1486.45 275.136,47.2441 "/>
<polyline clip-path="url(#clip810)" style="stroke:#000000; stroke-linecap:round; stroke-linejoin:round; stroke-width:4; stroke-opacity:1; fill:none" points="275.136,1445.72 294.034,1445.72 "/>
<polyline clip-path="url(#clip810)" style="stroke:#000000; stroke-linecap:round; stroke-linejoin:round; stroke-width:4; stroke-opacity:1; fill:none" points="275.136,1235.78 294.034,1235.78 "/>
<polyline clip-path="url(#clip810)" style="stroke:#000000; stroke-linecap:round; stroke-linejoin:round; stroke-width:4; stroke-opacity:1; fill:none" points="275.136,1025.84 294.034,1025.84 "/>
<polyline clip-path="url(#clip810)" style="stroke:#000000; stroke-linecap:round; stroke-linejoin:round; stroke-width:4; stroke-opacity:1; fill:none" points="275.136,815.9 294.034,815.9 "/>
<polyline clip-path="url(#clip810)" style="stroke:#000000; stroke-linecap:round; stroke-linejoin:round; stroke-width:4; stroke-opacity:1; fill:none" points="275.136,605.962 294.034,605.962 "/>
<polyline clip-path="url(#clip810)" style="stroke:#000000; stroke-linecap:round; stroke-linejoin:round; stroke-width:4; stroke-opacity:1; fill:none" points="275.136,396.023 294.034,396.023 "/>
<polyline clip-path="url(#clip810)" style="stroke:#000000; stroke-linecap:round; stroke-linejoin:round; stroke-width:4; stroke-opacity:1; fill:none" points="275.136,186.084 294.034,186.084 "/>
<path clip-path="url(#clip810)" d="M227.192 1431.51 Q223.581 1431.51 221.752 1435.08 Q219.947 1438.62 219.947 1445.75 Q219.947 1452.86 221.752 1456.42 Q223.581 1459.96 227.192 1459.96 Q230.826 1459.96 232.632 1456.42 Q234.46 1452.86 234.46 1445.75 Q234.46 1438.62 232.632 1435.08 Q230.826 1431.51 227.192 1431.51 M227.192 1427.81 Q233.002 1427.81 236.058 1432.42 Q239.136 1437 239.136 1445.75 Q239.136 1454.48 236.058 1459.08 Q233.002 1463.67 227.192 1463.67 Q221.382 1463.67 218.303 1459.08 Q215.248 1454.48 215.248 1445.75 Q215.248 1437 218.303 1432.42 Q221.382 1427.81 227.192 1427.81 Z" fill="#000000" fill-rule="nonzero" fill-opacity="1" /><path clip-path="url(#clip810)" d="M54.5569 1255.57 L62.1958 1255.57 L62.1958 1229.2 L53.8856 1230.87 L53.8856 1226.61 L62.1495 1224.94 L66.8254 1224.94 L66.8254 1255.57 L74.4642 1255.57 L74.4642 1259.5 L54.5569 1259.5 L54.5569 1255.57 Z" fill="#000000" fill-rule="nonzero" fill-opacity="1" /><path clip-path="url(#clip810)" d="M83.9086 1253.63 L88.7928 1253.63 L88.7928 1259.5 L83.9086 1259.5 L83.9086 1253.63 Z" fill="#000000" fill-rule="nonzero" fill-opacity="1" /><path clip-path="url(#clip810)" d="M108.978 1228.02 Q105.367 1228.02 103.538 1231.59 Q101.733 1235.13 101.733 1242.26 Q101.733 1249.37 103.538 1252.93 Q105.367 1256.47 108.978 1256.47 Q112.612 1256.47 114.418 1252.93 Q116.246 1249.37 116.246 1242.26 Q116.246 1235.13 114.418 1231.59 Q112.612 1228.02 108.978 1228.02 M108.978 1224.32 Q114.788 1224.32 117.844 1228.93 Q120.922 1233.51 120.922 1242.26 Q120.922 1250.99 117.844 1255.59 Q114.788 1260.18 108.978 1260.18 Q103.168 1260.18 100.089 1255.59 Q97.0335 1250.99 97.0335 1242.26 Q97.0335 1233.51 100.089 1228.93 Q103.168 1224.32 108.978 1224.32 Z" fill="#000000" fill-rule="nonzero" fill-opacity="1" /><path clip-path="url(#clip810)" d="M157.311 1234.04 L146.732 1244.67 L157.311 1255.25 L154.556 1258.05 L143.931 1247.42 L133.306 1258.05 L130.575 1255.25 L141.131 1244.67 L130.575 1234.04 L133.306 1231.24 L143.931 1241.87 L154.556 1231.24 L157.311 1234.04 Z" fill="#000000" fill-rule="nonzero" fill-opacity="1" /><path clip-path="url(#clip810)" d="M169.672 1255.57 L177.311 1255.57 L177.311 1229.2 L169.001 1230.87 L169.001 1226.61 L177.265 1224.94 L181.94 1224.94 L181.94 1255.57 L189.579 1255.57 L189.579 1259.5 L169.672 1259.5 L169.672 1255.57 Z" fill="#000000" fill-rule="nonzero" fill-opacity="1" /><path clip-path="url(#clip810)" d="M209.024 1228.02 Q205.413 1228.02 203.584 1231.59 Q201.778 1235.13 201.778 1242.26 Q201.778 1249.37 203.584 1252.93 Q205.413 1256.47 209.024 1256.47 Q212.658 1256.47 214.463 1252.93 Q216.292 1249.37 216.292 1242.26 Q216.292 1235.13 214.463 1231.59 Q212.658 1228.02 209.024 1228.02 M209.024 1224.32 Q214.834 1224.32 217.889 1228.93 Q220.968 1233.51 220.968 1242.26 Q220.968 1250.99 217.889 1255.59 Q214.834 1260.18 209.024 1260.18 Q203.214 1260.18 200.135 1255.59 Q197.079 1250.99 197.079 1242.26 Q197.079 1233.51 200.135 1228.93 Q203.214 1224.32 209.024 1224.32 Z" fill="#000000" fill-rule="nonzero" fill-opacity="1" /><path clip-path="url(#clip810)" d="M222.153 1204.01 L237.068 1204.01 L237.068 1207.21 L225.632 1207.21 L225.632 1214.1 Q226.46 1213.81 227.287 1213.68 Q228.115 1213.53 228.943 1213.53 Q233.645 1213.53 236.39 1216.11 Q239.136 1218.68 239.136 1223.09 Q239.136 1227.62 236.315 1230.14 Q233.494 1232.64 228.36 1232.64 Q226.592 1232.64 224.748 1232.34 Q222.924 1232.04 220.968 1231.44 L220.968 1227.62 Q222.661 1228.54 224.466 1228.99 Q226.272 1229.44 228.284 1229.44 Q231.538 1229.44 233.438 1227.73 Q235.337 1226.02 235.337 1223.09 Q235.337 1220.15 233.438 1218.44 Q231.538 1216.73 228.284 1216.73 Q226.761 1216.73 225.237 1217.07 Q223.733 1217.41 222.153 1218.12 L222.153 1204.01 Z" fill="#000000" fill-rule="nonzero" fill-opacity="1" /><path clip-path="url(#clip810)" d="M57.7745 1045.63 L74.0939 1045.63 L74.0939 1049.57 L52.1495 1049.57 L52.1495 1045.63 Q54.8115 1042.88 59.3949 1038.25 Q64.0013 1033.59 65.1819 1032.25 Q67.4272 1029.73 68.3068 1027.99 Q69.2096 1026.23 69.2096 1024.54 Q69.2096 1021.79 67.2652 1020.05 Q65.3439 1018.32 62.2421 1018.32 Q60.043 1018.32 57.5893 1019.08 Q55.1588 1019.84 52.381 1021.4 L52.381 1016.67 Q55.2051 1015.54 57.6588 1014.96 Q60.1124 1014.38 62.1495 1014.38 Q67.5198 1014.38 70.7142 1017.07 Q73.9087 1019.75 73.9087 1024.24 Q73.9087 1026.37 73.0985 1028.29 Q72.3115 1030.19 70.205 1032.78 Q69.6263 1033.46 66.5245 1036.67 Q63.4226 1039.87 57.7745 1045.63 Z" fill="#000000" fill-rule="nonzero" fill-opacity="1" /><path clip-path="url(#clip810)" d="M83.9086 1043.69 L88.7928 1043.69 L88.7928 1049.57 L83.9086 1049.57 L83.9086 1043.69 Z" fill="#000000" fill-rule="nonzero" fill-opacity="1" /><path clip-path="url(#clip810)" d="M108.978 1018.08 Q105.367 1018.08 103.538 1021.65 Q101.733 1025.19 101.733 1032.32 Q101.733 1039.43 103.538 1042.99 Q105.367 1046.53 108.978 1046.53 Q112.612 1046.53 114.418 1042.99 Q116.246 1039.43 116.246 1032.32 Q116.246 1025.19 114.418 1021.65 Q112.612 1018.08 108.978 1018.08 M108.978 1014.38 Q114.788 1014.38 117.844 1018.99 Q120.922 1023.57 120.922 1032.32 Q120.922 1041.05 117.844 1045.65 Q114.788 1050.24 108.978 1050.24 Q103.168 1050.24 100.089 1045.65 Q97.0335 1041.05 97.0335 1032.32 Q97.0335 1023.57 100.089 1018.99 Q103.168 1014.38 108.978 1014.38 Z" fill="#000000" fill-rule="nonzero" fill-opacity="1" /><path clip-path="url(#clip810)" d="M157.311 1024.1 L146.732 1034.73 L157.311 1045.31 L154.556 1048.11 L143.931 1037.48 L133.306 1048.11 L130.575 1045.31 L141.131 1034.73 L130.575 1024.1 L133.306 1021.3 L143.931 1031.93 L154.556 1021.3 L157.311 1024.1 Z" fill="#000000" fill-rule="nonzero" fill-opacity="1" /><path clip-path="url(#clip810)" d="M169.672 1045.63 L177.311 1045.63 L177.311 1019.27 L169.001 1020.93 L169.001 1016.67 L177.265 1015.01 L181.94 1015.01 L181.94 1045.63 L189.579 1045.63 L189.579 1049.57 L169.672 1049.57 L169.672 1045.63 Z" fill="#000000" fill-rule="nonzero" fill-opacity="1" /><path clip-path="url(#clip810)" d="M209.024 1018.08 Q205.413 1018.08 203.584 1021.65 Q201.778 1025.19 201.778 1032.32 Q201.778 1039.43 203.584 1042.99 Q205.413 1046.53 209.024 1046.53 Q212.658 1046.53 214.463 1042.99 Q216.292 1039.43 216.292 1032.32 Q216.292 1025.19 214.463 1021.65 Q212.658 1018.08 209.024 1018.08 M209.024 1014.38 Q214.834 1014.38 217.889 1018.99 Q220.968 1023.57 220.968 1032.32 Q220.968 1041.05 217.889 1045.65 Q214.834 1050.24 209.024 1050.24 Q203.214 1050.24 200.135 1045.65 Q197.079 1041.05 197.079 1032.32 Q197.079 1023.57 200.135 1018.99 Q203.214 1014.38 209.024 1014.38 Z" fill="#000000" fill-rule="nonzero" fill-opacity="1" /><path clip-path="url(#clip810)" d="M222.153 994.076 L237.068 994.076 L237.068 997.273 L225.632 997.273 L225.632 1004.16 Q226.46 1003.87 227.287 1003.74 Q228.115 1003.59 228.943 1003.59 Q233.645 1003.59 236.39 1006.17 Q239.136 1008.75 239.136 1013.15 Q239.136 1017.68 236.315 1020.2 Q233.494 1022.7 228.36 1022.7 Q226.592 1022.7 224.748 1022.4 Q222.924 1022.1 220.968 1021.5 L220.968 1017.68 Q222.661 1018.6 224.466 1019.05 Q226.272 1019.5 228.284 1019.5 Q231.538 1019.5 233.438 1017.79 Q235.337 1016.08 235.337 1013.15 Q235.337 1010.21 233.438 1008.5 Q231.538 1006.79 228.284 1006.79 Q226.761 1006.79 225.237 1007.13 Q223.733 1007.47 222.153 1008.18 L222.153 994.076 Z" fill="#000000" fill-rule="nonzero" fill-opacity="1" /><path clip-path="url(#clip810)" d="M67.9133 820.994 Q71.2698 821.711 73.1448 823.98 Q75.0429 826.248 75.0429 829.581 Q75.0429 834.697 71.5244 837.498 Q68.0059 840.299 61.5245 840.299 Q59.3486 840.299 57.0338 839.859 Q54.7421 839.443 52.2884 838.586 L52.2884 834.072 Q54.2328 835.206 56.5477 835.785 Q58.8625 836.364 61.3856 836.364 Q65.7837 836.364 68.0754 834.628 Q70.3902 832.892 70.3902 829.581 Q70.3902 826.526 68.2374 824.813 Q66.1078 823.077 62.2884 823.077 L58.2606 823.077 L58.2606 819.234 L62.4735 819.234 Q65.9226 819.234 67.7513 817.869 Q69.58 816.48 69.58 813.887 Q69.58 811.225 67.6819 809.813 Q65.8069 808.378 62.2884 808.378 Q60.3671 808.378 58.168 808.795 Q55.969 809.211 53.3301 810.091 L53.3301 805.924 Q55.9921 805.183 58.3069 804.813 Q60.6449 804.443 62.705 804.443 Q68.0291 804.443 71.1309 806.873 Q74.2327 809.281 74.2327 813.401 Q74.2327 816.271 72.5892 818.262 Q70.9457 820.23 67.9133 820.994 Z" fill="#000000" fill-rule="nonzero" fill-opacity="1" /><path clip-path="url(#clip810)" d="M83.9086 833.748 L88.7928 833.748 L88.7928 839.628 L83.9086 839.628 L83.9086 833.748 Z" fill="#000000" fill-rule="nonzero" fill-opacity="1" /><path clip-path="url(#clip810)" d="M108.978 808.146 Q105.367 808.146 103.538 811.711 Q101.733 815.253 101.733 822.382 Q101.733 829.489 103.538 833.054 Q105.367 836.595 108.978 836.595 Q112.612 836.595 114.418 833.054 Q116.246 829.489 116.246 822.382 Q116.246 815.253 114.418 811.711 Q112.612 808.146 108.978 808.146 M108.978 804.443 Q114.788 804.443 117.844 809.049 Q120.922 813.632 120.922 822.382 Q120.922 831.109 117.844 835.716 Q114.788 840.299 108.978 840.299 Q103.168 840.299 100.089 835.716 Q97.0335 831.109 97.0335 822.382 Q97.0335 813.632 100.089 809.049 Q103.168 804.443 108.978 804.443 Z" fill="#000000" fill-rule="nonzero" fill-opacity="1" /><path clip-path="url(#clip810)" d="M157.311 814.165 L146.732 824.79 L157.311 835.368 L154.556 838.169 L143.931 827.544 L133.306 838.169 L130.575 835.368 L141.131 824.79 L130.575 814.165 L133.306 811.364 L143.931 821.989 L154.556 811.364 L157.311 814.165 Z" fill="#000000" fill-rule="nonzero" fill-opacity="1" /><path clip-path="url(#clip810)" d="M169.672 835.693 L177.311 835.693 L177.311 809.327 L169.001 810.994 L169.001 806.734 L177.265 805.068 L181.94 805.068 L181.94 835.693 L189.579 835.693 L189.579 839.628 L169.672 839.628 L169.672 835.693 Z" fill="#000000" fill-rule="nonzero" fill-opacity="1" /><path clip-path="url(#clip810)" d="M209.024 808.146 Q205.413 808.146 203.584 811.711 Q201.778 815.253 201.778 822.382 Q201.778 829.489 203.584 833.054 Q205.413 836.595 209.024 836.595 Q212.658 836.595 214.463 833.054 Q216.292 829.489 216.292 822.382 Q216.292 815.253 214.463 811.711 Q212.658 808.146 209.024 808.146 M209.024 804.443 Q214.834 804.443 217.889 809.049 Q220.968 813.632 220.968 822.382 Q220.968 831.109 217.889 835.716 Q214.834 840.299 209.024 840.299 Q203.214 840.299 200.135 835.716 Q197.079 831.109 197.079 822.382 Q197.079 813.632 200.135 809.049 Q203.214 804.443 209.024 804.443 Z" fill="#000000" fill-rule="nonzero" fill-opacity="1" /><path clip-path="url(#clip810)" d="M222.153 784.137 L237.068 784.137 L237.068 787.335 L225.632 787.335 L225.632 794.218 Q226.46 793.936 227.287 793.804 Q228.115 793.654 228.943 793.654 Q233.645 793.654 236.39 796.231 Q239.136 798.807 239.136 803.208 Q239.136 807.741 236.315 810.261 Q233.494 812.763 228.36 812.763 Q226.592 812.763 224.748 812.462 Q222.924 812.161 220.968 811.559 L220.968 807.741 Q222.661 808.663 224.466 809.114 Q226.272 809.565 228.284 809.565 Q231.538 809.565 233.438 807.854 Q235.337 806.142 235.337 803.208 Q235.337 800.274 233.438 798.563 Q231.538 796.851 228.284 796.851 Q226.761 796.851 225.237 797.19 Q223.733 797.528 222.153 798.243 L222.153 784.137 Z" fill="#000000" fill-rule="nonzero" fill-opacity="1" /><path clip-path="url(#clip810)" d="M66.5939 599.203 L54.7884 617.652 L66.5939 617.652 L66.5939 599.203 M65.367 595.129 L71.2466 595.129 L71.2466 617.652 L76.1772 617.652 L76.1772 621.541 L71.2466 621.541 L71.2466 629.689 L66.5939 629.689 L66.5939 621.541 L50.9921 621.541 L50.9921 617.027 L65.367 595.129 Z" fill="#000000" fill-rule="nonzero" fill-opacity="1" /><path clip-path="url(#clip810)" d="M83.9086 623.81 L88.7928 623.81 L88.7928 629.689 L83.9086 629.689 L83.9086 623.81 Z" fill="#000000" fill-rule="nonzero" fill-opacity="1" /><path clip-path="url(#clip810)" d="M108.978 598.208 Q105.367 598.208 103.538 601.773 Q101.733 605.314 101.733 612.444 Q101.733 619.55 103.538 623.115 Q105.367 626.657 108.978 626.657 Q112.612 626.657 114.418 623.115 Q116.246 619.55 116.246 612.444 Q116.246 605.314 114.418 601.773 Q112.612 598.208 108.978 598.208 M108.978 594.504 Q114.788 594.504 117.844 599.111 Q120.922 603.694 120.922 612.444 Q120.922 621.171 117.844 625.777 Q114.788 630.36 108.978 630.36 Q103.168 630.36 100.089 625.777 Q97.0335 621.171 97.0335 612.444 Q97.0335 603.694 100.089 599.111 Q103.168 594.504 108.978 594.504 Z" fill="#000000" fill-rule="nonzero" fill-opacity="1" /><path clip-path="url(#clip810)" d="M157.311 604.226 L146.732 614.851 L157.311 625.43 L154.556 628.231 L143.931 617.606 L133.306 628.231 L130.575 625.43 L141.131 614.851 L130.575 604.226 L133.306 601.425 L143.931 612.05 L154.556 601.425 L157.311 604.226 Z" fill="#000000" fill-rule="nonzero" fill-opacity="1" /><path clip-path="url(#clip810)" d="M169.672 625.754 L177.311 625.754 L177.311 599.388 L169.001 601.055 L169.001 596.796 L177.265 595.129 L181.94 595.129 L181.94 625.754 L189.579 625.754 L189.579 629.689 L169.672 629.689 L169.672 625.754 Z" fill="#000000" fill-rule="nonzero" fill-opacity="1" /><path clip-path="url(#clip810)" d="M209.024 598.208 Q205.413 598.208 203.584 601.773 Q201.778 605.314 201.778 612.444 Q201.778 619.55 203.584 623.115 Q205.413 626.657 209.024 626.657 Q212.658 626.657 214.463 623.115 Q216.292 619.55 216.292 612.444 Q216.292 605.314 214.463 601.773 Q212.658 598.208 209.024 598.208 M209.024 594.504 Q214.834 594.504 217.889 599.111 Q220.968 603.694 220.968 612.444 Q220.968 621.171 217.889 625.777 Q214.834 630.36 209.024 630.36 Q203.214 630.36 200.135 625.777 Q197.079 621.171 197.079 612.444 Q197.079 603.694 200.135 599.111 Q203.214 594.504 209.024 594.504 Z" fill="#000000" fill-rule="nonzero" fill-opacity="1" /><path clip-path="url(#clip810)" d="M222.153 574.199 L237.068 574.199 L237.068 577.396 L225.632 577.396 L225.632 584.28 Q226.46 583.998 227.287 583.866 Q228.115 583.715 228.943 583.715 Q233.645 583.715 236.39 586.292 Q239.136 588.869 239.136 593.27 Q239.136 597.803 236.315 600.323 Q233.494 602.824 228.36 602.824 Q226.592 602.824 224.748 602.523 Q222.924 602.222 220.968 601.62 L220.968 597.803 Q222.661 598.724 224.466 599.175 Q226.272 599.627 228.284 599.627 Q231.538 599.627 233.438 597.915 Q235.337 596.204 235.337 593.27 Q235.337 590.336 233.438 588.624 Q231.538 586.913 228.284 586.913 Q226.761 586.913 225.237 587.251 Q223.733 587.59 222.153 588.305 L222.153 574.199 Z" fill="#000000" fill-rule="nonzero" fill-opacity="1" /><path clip-path="url(#clip810)" d="M53.793 385.191 L72.1494 385.191 L72.1494 389.126 L58.0754 389.126 L58.0754 397.598 Q59.0939 397.251 60.1124 397.089 Q61.131 396.904 62.1495 396.904 Q67.9365 396.904 71.3161 400.075 Q74.6957 403.246 74.6957 408.663 Q74.6957 414.241 71.2235 417.343 Q67.7513 420.422 61.4319 420.422 Q59.256 420.422 56.9875 420.052 Q54.7421 419.681 52.3347 418.94 L52.3347 414.241 Q54.418 415.376 56.6402 415.931 Q58.8625 416.487 61.3393 416.487 Q65.3439 416.487 67.6819 414.38 Q70.0198 412.274 70.0198 408.663 Q70.0198 405.052 67.6819 402.945 Q65.3439 400.839 61.3393 400.839 Q59.4643 400.839 57.5893 401.255 Q55.7375 401.672 53.793 402.552 L53.793 385.191 Z" fill="#000000" fill-rule="nonzero" fill-opacity="1" /><path clip-path="url(#clip810)" d="M83.9086 413.871 L88.7928 413.871 L88.7928 419.751 L83.9086 419.751 L83.9086 413.871 Z" fill="#000000" fill-rule="nonzero" fill-opacity="1" /><path clip-path="url(#clip810)" d="M108.978 388.269 Q105.367 388.269 103.538 391.834 Q101.733 395.376 101.733 402.505 Q101.733 409.612 103.538 413.177 Q105.367 416.718 108.978 416.718 Q112.612 416.718 114.418 413.177 Q116.246 409.612 116.246 402.505 Q116.246 395.376 114.418 391.834 Q112.612 388.269 108.978 388.269 M108.978 384.566 Q114.788 384.566 117.844 389.172 Q120.922 393.755 120.922 402.505 Q120.922 411.232 117.844 415.839 Q114.788 420.422 108.978 420.422 Q103.168 420.422 100.089 415.839 Q97.0335 411.232 97.0335 402.505 Q97.0335 393.755 100.089 389.172 Q103.168 384.566 108.978 384.566 Z" fill="#000000" fill-rule="nonzero" fill-opacity="1" /><path clip-path="url(#clip810)" d="M157.311 394.288 L146.732 404.913 L157.311 415.491 L154.556 418.292 L143.931 407.667 L133.306 418.292 L130.575 415.491 L141.131 404.913 L130.575 394.288 L133.306 391.487 L143.931 402.112 L154.556 391.487 L157.311 394.288 Z" fill="#000000" fill-rule="nonzero" fill-opacity="1" /><path clip-path="url(#clip810)" d="M169.672 415.815 L177.311 415.815 L177.311 389.45 L169.001 391.117 L169.001 386.857 L177.265 385.191 L181.94 385.191 L181.94 415.815 L189.579 415.815 L189.579 419.751 L169.672 419.751 L169.672 415.815 Z" fill="#000000" fill-rule="nonzero" fill-opacity="1" /><path clip-path="url(#clip810)" d="M209.024 388.269 Q205.413 388.269 203.584 391.834 Q201.778 395.376 201.778 402.505 Q201.778 409.612 203.584 413.177 Q205.413 416.718 209.024 416.718 Q212.658 416.718 214.463 413.177 Q216.292 409.612 216.292 402.505 Q216.292 395.376 214.463 391.834 Q212.658 388.269 209.024 388.269 M209.024 384.566 Q214.834 384.566 217.889 389.172 Q220.968 393.755 220.968 402.505 Q220.968 411.232 217.889 415.839 Q214.834 420.422 209.024 420.422 Q203.214 420.422 200.135 415.839 Q197.079 411.232 197.079 402.505 Q197.079 393.755 200.135 389.172 Q203.214 384.566 209.024 384.566 Z" fill="#000000" fill-rule="nonzero" fill-opacity="1" /><path clip-path="url(#clip810)" d="M222.153 364.26 L237.068 364.26 L237.068 367.458 L225.632 367.458 L225.632 374.341 Q226.46 374.059 227.287 373.927 Q228.115 373.777 228.943 373.777 Q233.645 373.777 236.39 376.354 Q239.136 378.93 239.136 383.331 Q239.136 387.864 236.315 390.384 Q233.494 392.886 228.36 392.886 Q226.592 392.886 224.748 392.585 Q222.924 392.284 220.968 391.682 L220.968 387.864 Q222.661 388.786 224.466 389.237 Q226.272 389.688 228.284 389.688 Q231.538 389.688 233.438 387.977 Q235.337 386.265 235.337 383.331 Q235.337 380.397 233.438 378.686 Q231.538 376.974 228.284 376.974 Q226.761 376.974 225.237 377.313 Q223.733 377.651 222.153 378.366 L222.153 364.26 Z" fill="#000000" fill-rule="nonzero" fill-opacity="1" /><path clip-path="url(#clip810)" d="M64.3254 190.669 Q61.1773 190.669 59.3254 192.821 Q57.4967 194.974 57.4967 198.724 Q57.4967 202.451 59.3254 204.627 Q61.1773 206.78 64.3254 206.78 Q67.4735 206.78 69.3022 204.627 Q71.1541 202.451 71.1541 198.724 Q71.1541 194.974 69.3022 192.821 Q67.4735 190.669 64.3254 190.669 M73.6077 176.016 L73.6077 180.275 Q71.8485 179.442 70.0429 179.002 Q68.2606 178.562 66.5013 178.562 Q61.8717 178.562 59.418 181.687 Q56.9875 184.812 56.6402 191.132 Q58.006 189.118 60.0662 188.053 Q62.1263 186.965 64.6032 186.965 Q69.8115 186.965 72.8207 190.136 Q75.8531 193.284 75.8531 198.724 Q75.8531 204.048 72.705 207.266 Q69.5568 210.483 64.3254 210.483 Q58.33 210.483 55.1588 205.9 Q51.9875 201.294 51.9875 192.567 Q51.9875 184.372 55.8764 179.511 Q59.7652 174.627 66.3161 174.627 Q68.0754 174.627 69.8578 174.974 Q71.6633 175.322 73.6077 176.016 Z" fill="#000000" fill-rule="nonzero" fill-opacity="1" /><path clip-path="url(#clip810)" d="M83.9086 203.932 L88.7928 203.932 L88.7928 209.812 L83.9086 209.812 L83.9086 203.932 Z" fill="#000000" fill-rule="nonzero" fill-opacity="1" /><path clip-path="url(#clip810)" d="M108.978 178.331 Q105.367 178.331 103.538 181.896 Q101.733 185.437 101.733 192.567 Q101.733 199.673 103.538 203.238 Q105.367 206.78 108.978 206.78 Q112.612 206.78 114.418 203.238 Q116.246 199.673 116.246 192.567 Q116.246 185.437 114.418 181.896 Q112.612 178.331 108.978 178.331 M108.978 174.627 Q114.788 174.627 117.844 179.234 Q120.922 183.817 120.922 192.567 Q120.922 201.294 117.844 205.9 Q114.788 210.483 108.978 210.483 Q103.168 210.483 100.089 205.9 Q97.0335 201.294 97.0335 192.567 Q97.0335 183.817 100.089 179.234 Q103.168 174.627 108.978 174.627 Z" fill="#000000" fill-rule="nonzero" fill-opacity="1" /><path clip-path="url(#clip810)" d="M157.311 184.349 L146.732 194.974 L157.311 205.553 L154.556 208.354 L143.931 197.729 L133.306 208.354 L130.575 205.553 L141.131 194.974 L130.575 184.349 L133.306 181.548 L143.931 192.173 L154.556 181.548 L157.311 184.349 Z" fill="#000000" fill-rule="nonzero" fill-opacity="1" /><path clip-path="url(#clip810)" d="M169.672 205.877 L177.311 205.877 L177.311 179.511 L169.001 181.178 L169.001 176.919 L177.265 175.252 L181.94 175.252 L181.94 205.877 L189.579 205.877 L189.579 209.812 L169.672 209.812 L169.672 205.877 Z" fill="#000000" fill-rule="nonzero" fill-opacity="1" /><path clip-path="url(#clip810)" d="M209.024 178.331 Q205.413 178.331 203.584 181.896 Q201.778 185.437 201.778 192.567 Q201.778 199.673 203.584 203.238 Q205.413 206.78 209.024 206.78 Q212.658 206.78 214.463 203.238 Q216.292 199.673 216.292 192.567 Q216.292 185.437 214.463 181.896 Q212.658 178.331 209.024 178.331 M209.024 174.627 Q214.834 174.627 217.889 179.234 Q220.968 183.817 220.968 192.567 Q220.968 201.294 217.889 205.9 Q214.834 210.483 209.024 210.483 Q203.214 210.483 200.135 205.9 Q197.079 201.294 197.079 192.567 Q197.079 183.817 200.135 179.234 Q203.214 174.627 209.024 174.627 Z" fill="#000000" fill-rule="nonzero" fill-opacity="1" /><path clip-path="url(#clip810)" d="M222.153 154.322 L237.068 154.322 L237.068 157.519 L225.632 157.519 L225.632 164.403 Q226.46 164.121 227.287 163.989 Q228.115 163.838 228.943 163.838 Q233.645 163.838 236.39 166.415 Q239.136 168.992 239.136 173.393 Q239.136 177.925 236.315 180.446 Q233.494 182.947 228.36 182.947 Q226.592 182.947 224.748 182.646 Q222.924 182.345 220.968 181.743 L220.968 177.925 Q222.661 178.847 224.466 179.298 Q226.272 179.75 228.284 179.75 Q231.538 179.75 233.438 178.038 Q235.337 176.327 235.337 173.393 Q235.337 170.459 233.438 168.747 Q231.538 167.036 228.284 167.036 Q226.761 167.036 225.237 167.374 Q223.733 167.713 222.153 168.428 L222.153 154.322 Z" fill="#000000" fill-rule="nonzero" fill-opacity="1" /><path clip-path="url(#clip812)" d="M389.409 87.9763 L389.409 434.179 L868.799 434.179 L868.799 87.9763 L389.409 87.9763 L389.409 87.9763  Z" fill="#009af9" fill-rule="evenodd" fill-opacity="1"/>
<polyline clip-path="url(#clip812)" style="stroke:#000000; stroke-linecap:round; stroke-linejoin:round; stroke-width:4; stroke-opacity:1; fill:none" points="389.409,87.9763 389.409,434.179 868.799,434.179 868.799,87.9763 389.409,87.9763 "/>
<path clip-path="url(#clip812)" d="M1074.25 1032.24 L1074.25 1298.38 L1553.64 1298.38 L1553.64 1032.24 L1074.25 1032.24 L1074.25 1032.24  Z" fill="#009af9" fill-rule="evenodd" fill-opacity="1"/>
<polyline clip-path="url(#clip812)" style="stroke:#000000; stroke-linecap:round; stroke-linejoin:round; stroke-width:4; stroke-opacity:1; fill:none" points="1074.25,1032.24 1074.25,1298.38 1553.64,1298.38 1553.64,1032.24 1074.25,1032.24 "/>
<path clip-path="url(#clip812)" d="M1759.09 1354.34 L1759.09 1399.79 L2238.48 1399.79 L2238.48 1354.34 L1759.09 1354.34 L1759.09 1354.34  Z" fill="#009af9" fill-rule="evenodd" fill-opacity="1"/>
<polyline clip-path="url(#clip812)" style="stroke:#000000; stroke-linecap:round; stroke-linejoin:round; stroke-width:4; stroke-opacity:1; fill:none" points="1759.09,1354.34 1759.09,1399.79 2238.48,1399.79 2238.48,1354.34 1759.09,1354.34 "/>
<circle clip-path="url(#clip812)" style="fill:#009af9; stroke:none; fill-opacity:0" cx="629.104" cy="87.9763" r="2"/>
<circle clip-path="url(#clip812)" style="fill:#009af9; stroke:none; fill-opacity:0" cx="1313.95" cy="1032.24" r="2"/>
<circle clip-path="url(#clip812)" style="fill:#009af9; stroke:none; fill-opacity:0" cx="1998.79" cy="1354.34" r="2"/>
<path clip-path="url(#clip812)" d="M389.409 434.179 L389.409 796.969 L868.799 796.969 L868.799 434.179 L389.409 434.179 L389.409 434.179  Z" fill="#e26f46" fill-rule="evenodd" fill-opacity="1"/>
<polyline clip-path="url(#clip812)" style="stroke:#000000; stroke-linecap:round; stroke-linejoin:round; stroke-width:4; stroke-opacity:1; fill:none" points="389.409,434.179 389.409,796.969 868.799,796.969 868.799,434.179 389.409,434.179 "/>
<path clip-path="url(#clip812)" d="M1074.25 1298.38 L1074.25 1298.38 L1553.64 1298.38 L1553.64 1298.38 L1074.25 1298.38 L1074.25 1298.38  Z" fill="#e26f46" fill-rule="evenodd" fill-opacity="1"/>
<polyline clip-path="url(#clip812)" style="stroke:#000000; stroke-linecap:round; stroke-linejoin:round; stroke-width:4; stroke-opacity:1; fill:none" points="1074.25,1298.38 1074.25,1298.38 1553.64,1298.38 1074.25,1298.38 "/>
<path clip-path="url(#clip812)" d="M1759.09 1399.79 L1759.09 1408.91 L2238.48 1408.91 L2238.48 1399.79 L1759.09 1399.79 L1759.09 1399.79  Z" fill="#e26f46" fill-rule="evenodd" fill-opacity="1"/>
<polyline clip-path="url(#clip812)" style="stroke:#000000; stroke-linecap:round; stroke-linejoin:round; stroke-width:4; stroke-opacity:1; fill:none" points="1759.09,1399.79 1759.09,1408.91 2238.48,1408.91 2238.48,1399.79 1759.09,1399.79 "/>
<circle clip-path="url(#clip812)" style="fill:#e26f46; stroke:none; fill-opacity:0" cx="629.104" cy="434.179" r="2"/>
<circle clip-path="url(#clip812)" style="fill:#e26f46; stroke:none; fill-opacity:0" cx="1313.95" cy="1298.38" r="2"/>
<circle clip-path="url(#clip812)" style="fill:#e26f46; stroke:none; fill-opacity:0" cx="1998.79" cy="1399.79" r="2"/>
<path clip-path="url(#clip812)" d="M389.409 796.969 L389.409 908.831 L868.799 908.831 L868.799 796.969 L389.409 796.969 L389.409 796.969  Z" fill="#3da44d" fill-rule="evenodd" fill-opacity="1"/>
<polyline clip-path="url(#clip812)" style="stroke:#000000; stroke-linecap:round; stroke-linejoin:round; stroke-width:4; stroke-opacity:1; fill:none" points="389.409,796.969 389.409,908.831 868.799,908.831 868.799,796.969 389.409,796.969 "/>
<path clip-path="url(#clip812)" d="M1074.25 1298.38 L1074.25 1313 L1553.64 1313 L1553.64 1298.38 L1074.25 1298.38 L1074.25 1298.38  Z" fill="#3da44d" fill-rule="evenodd" fill-opacity="1"/>
<polyline clip-path="url(#clip812)" style="stroke:#000000; stroke-linecap:round; stroke-linejoin:round; stroke-width:4; stroke-opacity:1; fill:none" points="1074.25,1298.38 1074.25,1313 1553.64,1313 1553.64,1298.38 1074.25,1298.38 "/>
<path clip-path="url(#clip812)" d="M1759.09 1408.91 L1759.09 1416.02 L2238.48 1416.02 L2238.48 1408.91 L1759.09 1408.91 L1759.09 1408.91  Z" fill="#3da44d" fill-rule="evenodd" fill-opacity="1"/>
<polyline clip-path="url(#clip812)" style="stroke:#000000; stroke-linecap:round; stroke-linejoin:round; stroke-width:4; stroke-opacity:1; fill:none" points="1759.09,1408.91 1759.09,1416.02 2238.48,1416.02 2238.48,1408.91 1759.09,1408.91 "/>
<circle clip-path="url(#clip812)" style="fill:#3da44d; stroke:none; fill-opacity:0" cx="629.104" cy="796.969" r="2"/>
<circle clip-path="url(#clip812)" style="fill:#3da44d; stroke:none; fill-opacity:0" cx="1313.95" cy="1298.38" r="2"/>
<circle clip-path="url(#clip812)" style="fill:#3da44d; stroke:none; fill-opacity:0" cx="1998.79" cy="1408.91" r="2"/>
<path clip-path="url(#clip812)" d="M389.409 908.831 L389.409 908.831 L868.799 908.831 L868.799 908.831 L389.409 908.831 L389.409 908.831  Z" fill="#c271d2" fill-rule="evenodd" fill-opacity="1"/>
<polyline clip-path="url(#clip812)" style="stroke:#000000; stroke-linecap:round; stroke-linejoin:round; stroke-width:4; stroke-opacity:1; fill:none" points="389.409,908.831 389.409,908.831 868.799,908.831 389.409,908.831 "/>
<path clip-path="url(#clip812)" d="M1074.25 1313 L1074.25 1342.39 L1553.64 1342.39 L1553.64 1313 L1074.25 1313 L1074.25 1313  Z" fill="#c271d2" fill-rule="evenodd" fill-opacity="1"/>
<polyline clip-path="url(#clip812)" style="stroke:#000000; stroke-linecap:round; stroke-linejoin:round; stroke-width:4; stroke-opacity:1; fill:none" points="1074.25,1313 1074.25,1342.39 1553.64,1342.39 1553.64,1313 1074.25,1313 "/>
<path clip-path="url(#clip812)" d="M1759.09 1416.02 L1759.09 1416.02 L2238.48 1416.02 L2238.48 1416.02 L1759.09 1416.02 L1759.09 1416.02  Z" fill="#c271d2" fill-rule="evenodd" fill-opacity="1"/>
<polyline clip-path="url(#clip812)" style="stroke:#000000; stroke-linecap:round; stroke-linejoin:round; stroke-width:4; stroke-opacity:1; fill:none" points="1759.09,1416.02 1759.09,1416.02 2238.48,1416.02 1759.09,1416.02 "/>
<circle clip-path="url(#clip812)" style="fill:#c271d2; stroke:none; fill-opacity:0" cx="629.104" cy="908.831" r="2"/>
<circle clip-path="url(#clip812)" style="fill:#c271d2; stroke:none; fill-opacity:0" cx="1313.95" cy="1313" r="2"/>
<circle clip-path="url(#clip812)" style="fill:#c271d2; stroke:none; fill-opacity:0" cx="1998.79" cy="1416.02" r="2"/>
<path clip-path="url(#clip812)" d="M389.409 908.831 L389.409 1445.72 L868.799 1445.72 L868.799 908.831 L389.409 908.831 L389.409 908.831  Z" fill="#ac8d18" fill-rule="evenodd" fill-opacity="1"/>
<polyline clip-path="url(#clip812)" style="stroke:#000000; stroke-linecap:round; stroke-linejoin:round; stroke-width:4; stroke-opacity:1; fill:none" points="389.409,908.831 389.409,1445.72 868.799,1445.72 868.799,908.831 389.409,908.831 "/>
<path clip-path="url(#clip812)" d="M1074.25 1342.39 L1074.25 1445.72 L1553.64 1445.72 L1553.64 1342.39 L1074.25 1342.39 L1074.25 1342.39  Z" fill="#ac8d18" fill-rule="evenodd" fill-opacity="1"/>
<polyline clip-path="url(#clip812)" style="stroke:#000000; stroke-linecap:round; stroke-linejoin:round; stroke-width:4; stroke-opacity:1; fill:none" points="1074.25,1342.39 1074.25,1445.72 1553.64,1445.72 1553.64,1342.39 1074.25,1342.39 "/>
<path clip-path="url(#clip812)" d="M1759.09 1416.02 L1759.09 1445.72 L2238.48 1445.72 L2238.48 1416.02 L1759.09 1416.02 L1759.09 1416.02  Z" fill="#ac8d18" fill-rule="evenodd" fill-opacity="1"/>
<polyline clip-path="url(#clip812)" style="stroke:#000000; stroke-linecap:round; stroke-linejoin:round; stroke-width:4; stroke-opacity:1; fill:none" points="1759.09,1416.02 1759.09,1445.72 2238.48,1445.72 2238.48,1416.02 1759.09,1416.02 "/>
<circle clip-path="url(#clip812)" style="fill:#ac8d18; stroke:none; fill-opacity:0" cx="629.104" cy="908.831" r="2"/>
<circle clip-path="url(#clip812)" style="fill:#ac8d18; stroke:none; fill-opacity:0" cx="1313.95" cy="1342.39" r="2"/>
<circle clip-path="url(#clip812)" style="fill:#ac8d18; stroke:none; fill-opacity:0" cx="1998.79" cy="1416.02" r="2"/>
<path clip-path="url(#clip810)" d="M1906.34 406.258 L2283.5 406.258 L2283.5 95.2176 L1906.34 95.2176  Z" fill="#ffffff" fill-rule="evenodd" fill-opacity="1"/>
<polyline clip-path="url(#clip810)" style="stroke:#000000; stroke-linecap:round; stroke-linejoin:round; stroke-width:4; stroke-opacity:1; fill:none" points="1906.34,406.258 2283.5,406.258 2283.5,95.2176 1906.34,95.2176 1906.34,406.258 "/>
<path clip-path="url(#clip810)" d="M1929.43 167.794 L2067.94 167.794 L2067.94 126.322 L1929.43 126.322 L1929.43 167.794  Z" fill="#009af9" fill-rule="evenodd" fill-opacity="1"/>
<polyline clip-path="url(#clip810)" style="stroke:#000000; stroke-linecap:round; stroke-linejoin:round; stroke-width:4; stroke-opacity:1; fill:none" points="1929.43,167.794 2067.94,167.794 2067.94,126.322 1929.43,126.322 1929.43,167.794 "/>
<path clip-path="url(#clip810)" d="M2091.02 129.778 L2095.74 129.778 L2103.01 158.99 L2110.26 129.778 L2115.51 129.778 L2122.78 158.99 L2130.02 129.778 L2134.77 129.778 L2126.09 164.338 L2120.21 164.338 L2112.92 134.338 L2105.56 164.338 L2099.68 164.338 L2091.02 129.778 Z" fill="#000000" fill-rule="nonzero" fill-opacity="1" /><path clip-path="url(#clip810)" d="M2139.75 138.412 L2144.01 138.412 L2144.01 164.338 L2139.75 164.338 L2139.75 138.412 M2139.75 128.319 L2144.01 128.319 L2144.01 133.713 L2139.75 133.713 L2139.75 128.319 Z" fill="#000000" fill-rule="nonzero" fill-opacity="1" /><path clip-path="url(#clip810)" d="M2174.47 148.689 L2174.47 164.338 L2170.21 164.338 L2170.21 148.828 Q2170.21 145.148 2168.77 143.319 Q2167.34 141.49 2164.47 141.49 Q2161.02 141.49 2159.03 143.69 Q2157.04 145.889 2157.04 149.685 L2157.04 164.338 L2152.76 164.338 L2152.76 138.412 L2157.04 138.412 L2157.04 142.44 Q2158.57 140.102 2160.63 138.944 Q2162.71 137.787 2165.42 137.787 Q2169.89 137.787 2172.18 140.565 Q2174.47 143.319 2174.47 148.689 Z" fill="#000000" fill-rule="nonzero" fill-opacity="1" /><path clip-path="url(#clip810)" d="M2200.02 142.347 L2200.02 128.319 L2204.28 128.319 L2204.28 164.338 L2200.02 164.338 L2200.02 160.449 Q2198.68 162.763 2196.62 163.898 Q2194.58 165.009 2191.71 165.009 Q2187.01 165.009 2184.05 161.259 Q2181.11 157.509 2181.11 151.398 Q2181.11 145.287 2184.05 141.537 Q2187.01 137.787 2191.71 137.787 Q2194.58 137.787 2196.62 138.921 Q2198.68 140.032 2200.02 142.347 M2185.51 151.398 Q2185.51 156.097 2187.43 158.782 Q2189.38 161.444 2192.76 161.444 Q2196.14 161.444 2198.08 158.782 Q2200.02 156.097 2200.02 151.398 Q2200.02 146.699 2198.08 144.037 Q2196.14 141.352 2192.76 141.352 Q2189.38 141.352 2187.43 144.037 Q2185.51 146.699 2185.51 151.398 Z" fill="#000000" fill-rule="nonzero" fill-opacity="1" /><path clip-path="url(#clip810)" d="M1929.43 219.634 L2067.94 219.634 L2067.94 178.162 L1929.43 178.162 L1929.43 219.634  Z" fill="#e26f46" fill-rule="evenodd" fill-opacity="1"/>
<polyline clip-path="url(#clip810)" style="stroke:#000000; stroke-linecap:round; stroke-linejoin:round; stroke-width:4; stroke-opacity:1; fill:none" points="1929.43,219.634 2067.94,219.634 2067.94,178.162 1929.43,178.162 1929.43,219.634 "/>
<path clip-path="url(#clip810)" d="M2095.7 185.46 L2095.7 198.446 L2101.58 198.446 Q2104.84 198.446 2106.62 196.756 Q2108.4 195.067 2108.4 191.942 Q2108.4 188.84 2106.62 187.15 Q2104.84 185.46 2101.58 185.46 L2095.7 185.46 M2091.02 181.618 L2101.58 181.618 Q2107.39 181.618 2110.35 184.256 Q2113.33 186.872 2113.33 191.942 Q2113.33 197.057 2110.35 199.673 Q2107.39 202.289 2101.58 202.289 L2095.7 202.289 L2095.7 216.178 L2091.02 216.178 L2091.02 181.618 Z" fill="#000000" fill-rule="nonzero" fill-opacity="1" /><path clip-path="url(#clip810)" d="M2128.52 216.178 L2115.33 181.618 L2120.21 181.618 L2131.16 210.715 L2142.13 181.618 L2146.99 181.618 L2133.82 216.178 L2128.52 216.178 Z" fill="#000000" fill-rule="nonzero" fill-opacity="1" /><path clip-path="url(#clip810)" d="M1929.43 271.474 L2067.94 271.474 L2067.94 230.002 L1929.43 230.002 L1929.43 271.474  Z" fill="#3da44d" fill-rule="evenodd" fill-opacity="1"/>
<polyline clip-path="url(#clip810)" style="stroke:#000000; stroke-linecap:round; stroke-linejoin:round; stroke-width:4; stroke-opacity:1; fill:none" points="1929.43,271.474 2067.94,271.474 2067.94,230.002 1929.43,230.002 1929.43,271.474 "/>
<path clip-path="url(#clip810)" d="M2116.58 263.087 L2116.58 253.805 L2108.94 253.805 L2108.94 249.962 L2121.21 249.962 L2121.21 264.8 Q2118.5 266.721 2115.23 267.717 Q2111.97 268.689 2108.27 268.689 Q2100.16 268.689 2095.58 263.967 Q2091.02 259.221 2091.02 250.772 Q2091.02 242.3 2095.58 237.578 Q2100.16 232.833 2108.27 232.833 Q2111.64 232.833 2114.68 233.666 Q2117.73 234.499 2120.3 236.12 L2120.3 241.096 Q2117.71 238.897 2114.79 237.786 Q2111.88 236.675 2108.66 236.675 Q2102.32 236.675 2099.12 240.217 Q2095.95 243.758 2095.95 250.772 Q2095.95 257.763 2099.12 261.305 Q2102.32 264.846 2108.66 264.846 Q2111.14 264.846 2113.08 264.43 Q2115.02 263.99 2116.58 263.087 Z" fill="#000000" fill-rule="nonzero" fill-opacity="1" /><path clip-path="url(#clip810)" d="M2141.34 254.985 Q2136.18 254.985 2134.19 256.166 Q2132.2 257.346 2132.2 260.194 Q2132.2 262.462 2133.68 263.805 Q2135.19 265.124 2137.76 265.124 Q2141.3 265.124 2143.43 262.624 Q2145.58 260.101 2145.58 255.934 L2145.58 254.985 L2141.34 254.985 M2149.84 253.226 L2149.84 268.018 L2145.58 268.018 L2145.58 264.082 Q2144.12 266.443 2141.95 267.578 Q2139.77 268.689 2136.62 268.689 Q2132.64 268.689 2130.28 266.467 Q2127.94 264.221 2127.94 260.471 Q2127.94 256.096 2130.86 253.874 Q2133.8 251.652 2139.61 251.652 L2145.58 251.652 L2145.58 251.235 Q2145.58 248.295 2143.64 246.698 Q2141.71 245.078 2138.22 245.078 Q2136 245.078 2133.89 245.61 Q2131.78 246.143 2129.84 247.207 L2129.84 243.272 Q2132.18 242.37 2134.38 241.93 Q2136.58 241.467 2138.66 241.467 Q2144.28 241.467 2147.06 244.383 Q2149.84 247.3 2149.84 253.226 Z" fill="#000000" fill-rule="nonzero" fill-opacity="1" /><path clip-path="url(#clip810)" d="M2175.14 242.856 L2175.14 246.883 Q2173.33 245.957 2171.39 245.495 Q2169.45 245.032 2167.36 245.032 Q2164.19 245.032 2162.59 246.004 Q2161.02 246.976 2161.02 248.92 Q2161.02 250.402 2162.15 251.258 Q2163.29 252.092 2166.71 252.856 L2168.17 253.18 Q2172.71 254.152 2174.61 255.934 Q2176.53 257.694 2176.53 260.865 Q2176.53 264.476 2173.66 266.582 Q2170.81 268.689 2165.81 268.689 Q2163.73 268.689 2161.46 268.272 Q2159.21 267.879 2156.71 267.068 L2156.71 262.67 Q2159.08 263.897 2161.37 264.522 Q2163.66 265.124 2165.9 265.124 Q2168.91 265.124 2170.53 264.106 Q2172.15 263.064 2172.15 261.189 Q2172.15 259.453 2170.97 258.527 Q2169.82 257.601 2165.86 256.744 L2164.38 256.397 Q2160.42 255.564 2158.66 253.851 Q2156.9 252.115 2156.9 249.106 Q2156.9 245.448 2159.49 243.458 Q2162.08 241.467 2166.85 241.467 Q2169.21 241.467 2171.3 241.814 Q2173.38 242.161 2175.14 242.856 Z" fill="#000000" fill-rule="nonzero" fill-opacity="1" /><path clip-path="url(#clip810)" d="M1929.43 323.314 L2067.94 323.314 L2067.94 281.842 L1929.43 281.842 L1929.43 323.314  Z" fill="#c271d2" fill-rule="evenodd" fill-opacity="1"/>
<polyline clip-path="url(#clip810)" style="stroke:#000000; stroke-linecap:round; stroke-linejoin:round; stroke-width:4; stroke-opacity:1; fill:none" points="1929.43,323.314 2067.94,323.314 2067.94,281.842 1929.43,281.842 1929.43,323.314 "/>
<path clip-path="url(#clip810)" d="M2091.02 285.298 L2095.7 285.298 L2095.7 299.464 L2112.69 299.464 L2112.69 285.298 L2117.36 285.298 L2117.36 319.858 L2112.69 319.858 L2112.69 303.399 L2095.7 303.399 L2095.7 319.858 L2091.02 319.858 L2091.02 285.298 Z" fill="#000000" fill-rule="nonzero" fill-opacity="1" /><path clip-path="url(#clip810)" d="M2137.27 322.265 Q2135.46 326.895 2133.75 328.307 Q2132.04 329.719 2129.17 329.719 L2125.77 329.719 L2125.77 326.154 L2128.27 326.154 Q2130.02 326.154 2131 325.32 Q2131.97 324.487 2133.15 321.385 L2133.91 319.441 L2123.43 293.932 L2127.94 293.932 L2136.04 314.209 L2144.14 293.932 L2148.66 293.932 L2137.27 322.265 Z" fill="#000000" fill-rule="nonzero" fill-opacity="1" /><path clip-path="url(#clip810)" d="M2171.6 297.867 L2171.6 283.839 L2175.86 283.839 L2175.86 319.858 L2171.6 319.858 L2171.6 315.969 Q2170.26 318.283 2168.2 319.418 Q2166.16 320.529 2163.29 320.529 Q2158.59 320.529 2155.63 316.779 Q2152.69 313.029 2152.69 306.918 Q2152.69 300.807 2155.63 297.057 Q2158.59 293.307 2163.29 293.307 Q2166.16 293.307 2168.2 294.441 Q2170.26 295.552 2171.6 297.867 M2157.08 306.918 Q2157.08 311.617 2159.01 314.302 Q2160.95 316.964 2164.33 316.964 Q2167.71 316.964 2169.65 314.302 Q2171.6 311.617 2171.6 306.918 Q2171.6 302.219 2169.65 299.557 Q2167.71 296.872 2164.33 296.872 Q2160.95 296.872 2159.01 299.557 Q2157.08 302.219 2157.08 306.918 Z" fill="#000000" fill-rule="nonzero" fill-opacity="1" /><path clip-path="url(#clip810)" d="M2199.65 297.913 Q2198.94 297.497 2198.08 297.311 Q2197.25 297.103 2196.23 297.103 Q2192.62 297.103 2190.67 299.464 Q2188.75 301.802 2188.75 306.2 L2188.75 319.858 L2184.47 319.858 L2184.47 293.932 L2188.75 293.932 L2188.75 297.96 Q2190.09 295.598 2192.25 294.464 Q2194.4 293.307 2197.48 293.307 Q2197.92 293.307 2198.45 293.376 Q2198.98 293.423 2199.63 293.538 L2199.65 297.913 Z" fill="#000000" fill-rule="nonzero" fill-opacity="1" /><path clip-path="url(#clip810)" d="M2213.13 296.918 Q2209.7 296.918 2207.71 299.603 Q2205.72 302.265 2205.72 306.918 Q2205.72 311.571 2207.69 314.256 Q2209.68 316.918 2213.13 316.918 Q2216.53 316.918 2218.52 314.233 Q2220.51 311.547 2220.51 306.918 Q2220.51 302.311 2218.52 299.626 Q2216.53 296.918 2213.13 296.918 M2213.13 293.307 Q2218.68 293.307 2221.85 296.918 Q2225.02 300.529 2225.02 306.918 Q2225.02 313.284 2221.85 316.918 Q2218.68 320.529 2213.13 320.529 Q2207.55 320.529 2204.38 316.918 Q2201.23 313.284 2201.23 306.918 Q2201.23 300.529 2204.38 296.918 Q2207.55 293.307 2213.13 293.307 Z" fill="#000000" fill-rule="nonzero" fill-opacity="1" /><path clip-path="url(#clip810)" d="M1929.43 375.154 L2067.94 375.154 L2067.94 333.682 L1929.43 333.682 L1929.43 375.154  Z" fill="#ac8d18" fill-rule="evenodd" fill-opacity="1"/>
<polyline clip-path="url(#clip810)" style="stroke:#000000; stroke-linecap:round; stroke-linejoin:round; stroke-width:4; stroke-opacity:1; fill:none" points="1929.43,375.154 2067.94,375.154 2067.94,333.682 1929.43,333.682 1929.43,375.154 "/>
<path clip-path="url(#clip810)" d="M2095.7 355.193 L2095.7 367.855 L2103.2 367.855 Q2106.97 367.855 2108.77 366.304 Q2110.6 364.73 2110.6 361.512 Q2110.6 358.272 2108.77 356.744 Q2106.97 355.193 2103.2 355.193 L2095.7 355.193 M2095.7 340.98 L2095.7 351.397 L2102.62 351.397 Q2106.04 351.397 2107.71 350.124 Q2109.4 348.827 2109.4 346.188 Q2109.4 343.573 2107.71 342.276 Q2106.04 340.98 2102.62 340.98 L2095.7 340.98 M2091.02 337.138 L2102.96 337.138 Q2108.31 337.138 2111.21 339.36 Q2114.1 341.582 2114.1 345.679 Q2114.1 348.85 2112.62 350.725 Q2111.14 352.6 2108.27 353.063 Q2111.71 353.804 2113.61 356.165 Q2115.53 358.503 2115.53 362.022 Q2115.53 366.651 2112.39 369.174 Q2109.24 371.698 2103.43 371.698 L2091.02 371.698 L2091.02 337.138 Z" fill="#000000" fill-rule="nonzero" fill-opacity="1" /><path clip-path="url(#clip810)" d="M2135.14 358.665 Q2129.98 358.665 2127.99 359.846 Q2126 361.026 2126 363.874 Q2126 366.142 2127.48 367.485 Q2128.98 368.804 2131.55 368.804 Q2135.09 368.804 2137.22 366.304 Q2139.38 363.781 2139.38 359.614 L2139.38 358.665 L2135.14 358.665 M2143.64 356.906 L2143.64 371.698 L2139.38 371.698 L2139.38 367.762 Q2137.92 370.123 2135.74 371.258 Q2133.57 372.369 2130.42 372.369 Q2126.44 372.369 2124.08 370.147 Q2121.74 367.901 2121.74 364.151 Q2121.74 359.776 2124.65 357.554 Q2127.59 355.332 2133.4 355.332 L2139.38 355.332 L2139.38 354.915 Q2139.38 351.975 2137.43 350.378 Q2135.51 348.758 2132.02 348.758 Q2129.79 348.758 2127.69 349.29 Q2125.58 349.823 2123.64 350.887 L2123.64 346.952 Q2125.97 346.05 2128.17 345.61 Q2130.37 345.147 2132.45 345.147 Q2138.08 345.147 2140.86 348.063 Q2143.64 350.98 2143.64 356.906 Z" fill="#000000" fill-rule="nonzero" fill-opacity="1" /><path clip-path="url(#clip810)" d="M2156.62 338.411 L2156.62 345.772 L2165.39 345.772 L2165.39 349.082 L2156.62 349.082 L2156.62 363.156 Q2156.62 366.327 2157.48 367.23 Q2158.36 368.133 2161.02 368.133 L2165.39 368.133 L2165.39 371.698 L2161.02 371.698 Q2156.09 371.698 2154.21 369.869 Q2152.34 368.017 2152.34 363.156 L2152.34 349.082 L2149.21 349.082 L2149.21 345.772 L2152.34 345.772 L2152.34 338.411 L2156.62 338.411 Z" fill="#000000" fill-rule="nonzero" fill-opacity="1" /><path clip-path="url(#clip810)" d="M2175.21 338.411 L2175.21 345.772 L2183.98 345.772 L2183.98 349.082 L2175.21 349.082 L2175.21 363.156 Q2175.21 366.327 2176.07 367.23 Q2176.95 368.133 2179.61 368.133 L2183.98 368.133 L2183.98 371.698 L2179.61 371.698 Q2174.68 371.698 2172.8 369.869 Q2170.93 368.017 2170.93 363.156 L2170.93 349.082 L2167.8 349.082 L2167.8 345.772 L2170.93 345.772 L2170.93 338.411 L2175.21 338.411 Z" fill="#000000" fill-rule="nonzero" fill-opacity="1" /><path clip-path="url(#clip810)" d="M2211.76 357.67 L2211.76 359.753 L2192.18 359.753 Q2192.45 364.151 2194.82 366.466 Q2197.2 368.758 2201.44 368.758 Q2203.89 368.758 2206.18 368.156 Q2208.5 367.554 2210.76 366.35 L2210.76 370.378 Q2208.47 371.35 2206.07 371.86 Q2203.66 372.369 2201.18 372.369 Q2194.98 372.369 2191.34 368.758 Q2187.73 365.147 2187.73 358.989 Q2187.73 352.624 2191.16 348.897 Q2194.61 345.147 2200.44 345.147 Q2205.67 345.147 2208.7 348.526 Q2211.76 351.883 2211.76 357.67 M2207.5 356.42 Q2207.45 352.925 2205.53 350.841 Q2203.64 348.758 2200.49 348.758 Q2196.92 348.758 2194.77 350.772 Q2192.64 352.786 2192.32 356.443 L2207.5 356.42 Z" fill="#000000" fill-rule="nonzero" fill-opacity="1" /><path clip-path="url(#clip810)" d="M2233.77 349.753 Q2233.06 349.337 2232.2 349.151 Q2231.37 348.943 2230.35 348.943 Q2226.74 348.943 2224.79 351.304 Q2222.87 353.642 2222.87 358.04 L2222.87 371.698 L2218.59 371.698 L2218.59 345.772 L2222.87 345.772 L2222.87 349.8 Q2224.21 347.438 2226.37 346.304 Q2228.52 345.147 2231.6 345.147 Q2232.04 345.147 2232.57 345.216 Q2233.1 345.263 2233.75 345.378 L2233.77 349.753 Z" fill="#000000" fill-rule="nonzero" fill-opacity="1" /><path clip-path="url(#clip810)" d="M2249.03 374.105 Q2247.22 378.735 2245.51 380.147 Q2243.8 381.559 2240.93 381.559 L2237.52 381.559 L2237.52 377.994 L2240.02 377.994 Q2241.78 377.994 2242.76 377.16 Q2243.73 376.327 2244.91 373.225 L2245.67 371.281 L2235.19 345.772 L2239.7 345.772 L2247.8 366.049 L2255.9 345.772 L2260.42 345.772 L2249.03 374.105 Z" fill="#000000" fill-rule="nonzero" fill-opacity="1" /></svg>
