<svg class="main-svg" xmlns="http://www.w3.org/2000/svg" xmlns:xlink="http://www.w3.org/1999/xlink" width="700" height="500" style="" viewBox="0 0 700 500"><rect x="0" y="0" width="700" height="500" style="fill: rgb(255, 255, 255); fill-opacity: 1;"/><defs id="defs-b22e59"><g class="clips"><clipPath id="clipb22e59xyplot" class="plotclip"><rect width="528" height="387"/></clipPath><clipPath class="axesclip" id="clipb22e59x"><rect x="68" y="0" width="528" height="500"/></clipPath><clipPath class="axesclip" id="clipb22e59y"><rect x="0" y="60" width="700" height="387"/></clipPath><clipPath class="axesclip" id="clipb22e59xy"><rect x="68" y="60" width="528" height="387"/></clipPath></g><g class="gradients"/></defs><g class="bglayer"><rect class="bg" x="68" y="60" width="528" height="387" style="fill: rgb(229, 236, 246); fill-opacity: 1; stroke-width: 0;"/></g><g class="layer-below"><g class="imagelayer"/><g class="shapelayer"/></g><g class="cartesianlayer"><g class="subplot xy"><g class="layer-subplot"><g class="shapelayer"/><g class="imagelayer"/></g><g class="gridlayer"><g class="x"><path class="xgrid crisp" transform="translate(172.76,0)" d="M0,60v387" style="stroke: rgb(255, 255, 255); stroke-opacity: 1; stroke-width: 1px;"/><path class="xgrid crisp" transform="translate(277.52,0)" d="M0,60v387" style="stroke: rgb(255, 255, 255); stroke-opacity: 1; stroke-width: 1px;"/><path class="xgrid crisp" transform="translate(382.29,0)" d="M0,60v387" style="stroke: rgb(255, 255, 255); stroke-opacity: 1; stroke-width: 1px;"/><path class="xgrid crisp" transform="translate(487.05,0)" d="M0,60v387" style="stroke: rgb(255, 255, 255); stroke-opacity: 1; stroke-width: 1px;"/><path class="xgrid crisp" transform="translate(591.81,0)" d="M0,60v387" style="stroke: rgb(255, 255, 255); stroke-opacity: 1; stroke-width: 1px;"/></g><g class="y"><path class="ygrid crisp" transform="translate(0,372.61)" d="M68,0h528" style="stroke: rgb(255, 255, 255); stroke-opacity: 1; stroke-width: 1px;"/><path class="ygrid crisp" transform="translate(0,298.21000000000004)" d="M68,0h528" style="stroke: rgb(255, 255, 255); stroke-opacity: 1; stroke-width: 1px;"/><path class="ygrid crisp" transform="translate(0,223.82)" d="M68,0h528" style="stroke: rgb(255, 255, 255); stroke-opacity: 1; stroke-width: 1px;"/><path class="ygrid crisp" transform="translate(0,149.43)" d="M68,0h528" style="stroke: rgb(255, 255, 255); stroke-opacity: 1; stroke-width: 1px;"/><path class="ygrid crisp" transform="translate(0,75.03)" d="M68,0h528" style="stroke: rgb(255, 255, 255); stroke-opacity: 1; stroke-width: 1px;"/></g></g><g class="zerolinelayer"><path class="xzl zl crisp" transform="translate(68,0)" d="M0,60v387" style="stroke: rgb(255, 255, 255); stroke-opacity: 1; stroke-width: 2px;"/><path class="yzl zl crisp" transform="translate(0,447)" d="M68,0h528" style="stroke: rgb(255, 255, 255); stroke-opacity: 1; stroke-width: 2px;"/></g><path class="xlines-below"/><path class="ylines-below"/><g class="overlines-below"/><g class="xaxislayer-below"/><g class="yaxislayer-below"/><g class="overaxes-below"/><g class="plot" transform="translate(68,60)" clip-path="url('#clipb22e59xyplot')"><g class="scatterlayer mlayer"><g class="trace scatter traceadc377" style="stroke-miterlimit: 2;"><g class="fills"><g><path class="js-fill" d="M528,387L0,387L0,334.4L1.05,336.42L2.1,341.36L4.19,347.75L5.24,343.17L6.29,325.44L7.33,292.94L10.48,171.32L11.52,146.89L14.67,80.94L15.71,57.31L16.76,49.35L17.81,64.11L23.05,136.56L24.1,139.34L25.14,136.56L26.19,128.38L27.24,113.62L28.29,76.62L30.38,34.42L31.43,32.88L32.48,44.41L33.52,68.9L34.57,58.52L35.62,34.69L37.71,36.77L38.76,32.36L39.81,24.06L40.86,26.47L41.9,34.51L42.95,51.64L48.19,130.16L49.24,133.57L50.29,130.47L51.33,123.25L52.38,109.27L53.43,75.41L55.52,33.35L56.57,31.79L58.67,20.05L59.71,29.35L61.81,46.33L62.86,67.49L67.05,136.36L68.1,168.55L70.19,227.8L71.24,258.63L74.38,312.99L75.43,326.49L79.62,360.9L80.67,367.7L82.76,374.46L83.81,374.86L84.86,371.73L85.9,365.24L90.1,335.41L91.14,326.49L94.29,307.65L95.33,294.15L96.38,282.51L97.43,259.24L100.57,168.55L101.62,136.46L102.67,130.56L103.71,135.35L105.81,134.9L106.86,126.23L110,85.32L111.05,88.9L112.1,81.09L113.14,87.94L116.29,142.76L117.33,168L121.52,242.16L122.57,252.48L123.62,249.61L124.67,241.05L125.71,234.55L126.76,218.88L132,100.69L133.05,88.59L134.1,86.63L135.14,80.74L137.24,92.9L138.29,95.49L139.33,89.76L140.38,76.54L141.43,76.72L142.48,87.29L148.76,193.74L149.81,180.64L150.86,170.7L151.9,171.21L154,178.66L155.05,168.95L159.24,100.66L160.29,99.19L163.43,111.97L164.48,106.26L166.57,86.92L167.62,93.82L169.71,113.26L170.76,113.7L173.9,147.28L174.95,150.04L176,147.95L177.05,141.52L178.1,121.84L179.14,79.51L181.24,33.83L182.29,31.01L183.33,33.94L184.38,28.82L185.43,30.36L186.48,30.38L188.57,37.11L189.62,35.57L190.67,19.35L191.71,23.71L194.86,71.16L195.9,84.78L198,120.02L199.05,128.78L200.1,132.35L201.14,131.72L202.19,126.98L203.24,111L204.29,78.47L205.33,95.4L206.38,108.6L207.43,109.35L208.48,107.49L209.52,113.59L210.57,118.98L211.62,104.77L212.67,48.8L213.71,35.3L214.76,35.97L215.81,26.54L216.86,29.99L217.9,37.89L224.19,132.54L225.24,137.33L226.29,136.92L227.33,127.87L229.43,90.56L230.48,59.88L231.52,35.09L232.57,34.09L234.67,29.26L235.71,30.09L236.76,30.94L237.81,37.46L238.86,40.57L239.9,38.5L240.95,23.43L242,27.48L243.05,36.25L244.1,58.61L249.33,128.73L250.38,134.52L251.43,134.11L252.48,125.83L253.52,111.77L254.57,76.35L255.62,55.65L256.67,67.94L257.71,79.43L258.76,78.12L264,38.77L265.05,41.59L268.19,137.27L269.24,133.64L270.29,148.2L271.33,182.71L274.48,262.86L275.52,275.91L279.71,308.86L280.76,313.85L282.86,312.34L283.9,317.78L288.1,362.77L289.14,365.54L290.19,365.99L291.24,364.33L294.38,353.5L295.43,349.01L297.52,332.84L298.57,322.66L300.67,312.54L301.71,311.68L302.76,313.04L303.81,312.44L305.9,305.08L306.95,300.7L308,296.82L309.05,296.16L310.1,297.02L311.14,300.14L316.38,340.85L317.43,343.17L319.52,344.48L320.57,346.44L322.67,351.33L323.71,355.81L328.95,376.97L330,378.89L331.05,379.39L332.1,378.94L335.24,374.56L336.29,372.09L338.38,367.3L339.43,366.19L341.52,362.87L342.57,359.14L344.67,347.25L345.71,339.44L352,292.08L353.05,292.54L355.14,301L356.19,301.66L358.29,303.62L359.33,301.2L362.48,286.64L363.52,285.03L364.57,288.96L365.62,295.91L369.81,336.92L370.86,335.46L372.95,311.53L374,293.29L378.19,224.07L379.24,211.48L383.43,157.92L384.48,154.14L385.52,155.25L386.57,162.76L390.76,220.14L391.81,225.58L393.9,233.84L394.95,242.96L402.29,305.99L403.33,309.41L406.48,314.45L407.52,317.48L409.62,331.38L410.67,340.5L412.76,350.78L413.81,350.42L414.86,347.1L415.9,340.6L418,330.88L419.05,330.98L420.1,334L421.14,339.29L428.48,372.19L429.52,373.75L430.57,370.93L431.62,364.23L433.71,348.01L434.76,347.5L438.95,361.96L440,363.02L442.1,363.37L443.14,362.36L445.24,360.3L446.29,362.31L449.43,371.23L450.48,372.29L451.52,371.28L452.57,368.86L454.67,358.43L455.71,349.42L457.81,321.1L458.86,298.28L460.95,235.76L462,223.21L463.05,215.81L464.1,219.33L465.14,226.34L466.19,240.8L468.29,278.38L469.33,287.25L470.38,282.36L471.43,270.52L474.57,248.3L475.62,250.82L477.71,297.12L478.76,315.96L481.9,341.1L482.95,346.49L485.05,360.4L486.1,361.26L488.19,336.37L489.24,317.98L492.38,259.14L493.43,249.01L494.48,233.24L495.52,231.02L496.57,219.08L497.62,195.1L498.67,167.75L499.71,162.51L500.76,158.98L501.81,164.06L502.86,174.35L503.9,203.87L506,256.01L507.05,267.45L508.1,274.5L509.14,276.11L511.24,287.1L512.29,294.2L514.38,303.92L515.43,315.61L518.57,338.84L519.62,345.84L520.67,348.51L521.71,345.79L523.81,335.56L524.86,322.21L528,273.95" style="fill: rgb(131, 90, 241); fill-opacity: 0.5; stroke-width: 0;"/></g><g><path class="js-fill" d="M0,334.4L1.05,336.42L2.1,341.36L4.19,347.75L5.24,341.85L7.33,257.48L8.38,196.07L10.48,122.19L11.52,111.78L12.57,112.64L13.62,101.61L16.76,49.35L17.81,64.11L23.05,136.56L24.1,139.34L25.14,136.56L26.19,128.38L27.24,113.62L28.29,76.62L30.38,34.42L31.43,32.88L32.48,31.03L33.52,44.42L34.57,29.32L35.62,31L36.67,35.96L37.71,36.77L38.76,32.36L39.81,24.06L40.86,26.47L41.9,34.51L48.19,130.16L49.24,133.57L50.29,130.47L51.33,123.25L52.38,109.27L53.43,75.41L55.52,32.9L56.57,31.79L58.67,20.05L59.71,24.99L60.76,24.45L61.81,29.48L63.9,83.75L64.95,93.49L67.05,136.36L68.1,168.55L70.19,227.8L71.24,258.63L74.38,312.99L75.43,326.49L79.62,360.9L80.67,365.81L83.81,323.29L84.86,317.5L85.9,313.03L86.95,318.63L89.05,346.05L90.1,335.41L92.19,320.95L93.24,317.07L96.38,282.51L97.43,259.24L100.57,168.55L101.62,136.46L102.67,130.56L103.71,135.35L104.76,135.25L105.81,130.82L108.95,39.27L110,36.68L114.19,103.5L115.24,125.07L118.38,187.8L119.43,208.75L122.57,252.48L123.62,249.61L125.71,234.55L126.76,218.88L132,100.69L133.05,88.59L134.1,79.91L135.14,80.41L137.24,92.9L138.29,95.49L139.33,89.57L140.38,76.54L141.43,76.72L142.48,87.29L148.76,193.74L149.81,180.64L150.86,170.7L151.9,171.21L154,178.66L155.05,168.95L159.24,100.66L160.29,99.19L162.38,108.98L163.43,110.43L164.48,106.26L165.52,92.91L166.57,86.92L167.62,93.82L169.71,113.26L170.76,113.7L173.9,147.28L174.95,150.04L176,147.95L177.05,141.52L178.1,121.84L179.14,79.51L181.24,33.83L182.29,31.01L183.33,33.94L184.38,28.82L185.43,30.36L186.48,30.38L188.57,37.11L189.62,35.24L190.67,19.35L191.71,23.71L194.86,71.16L195.9,84.78L198,120.02L199.05,128.78L200.1,132.35L201.14,131.72L202.19,126.98L203.24,111L204.29,78.47L205.33,95.4L206.38,102.15L207.43,76.3L209.52,22.04L210.57,25.98L211.62,28.28L212.67,33.69L214.76,35.97L215.81,26.54L216.86,29.99L217.9,37.89L224.19,132.54L225.24,137.33L226.29,136.92L227.33,127.87L229.43,90.56L230.48,59.88L231.52,34.29L232.57,34.09L234.67,29.26L235.71,30.09L236.76,30.94L237.81,37.46L238.86,40.57L239.9,38.5L240.95,23.43L242,27.48L243.05,36.25L244.1,58.61L249.33,128.73L250.38,134.52L251.43,134.11L252.48,125.83L253.52,111.77L254.57,76.35L255.62,55.62L256.67,54.95L258.76,31.01L259.81,26.38L261.9,28.6L262.95,32.89L264,38.77L265.05,40.18L268.19,137.27L269.24,133.64L270.29,148.2L271.33,182.71L274.48,262.86L275.52,275.91L279.71,308.86L280.76,313.85L281.81,305.62L282.86,270.85L284.95,208.46L286,217.39L287.05,236.46L288.1,269.93L290.19,362.65L291.24,364.33L294.38,353.5L295.43,349.01L297.52,332.84L298.57,322.66L300.67,312.54L301.71,311.68L302.76,313.04L303.81,312.44L305.9,305.05L306.95,278.75L310.1,146.49L311.14,138.7L312.19,157.08L313.24,199.7L315.33,328.17L316.38,340.85L318.48,343.87L319.52,344.48L322.67,351.33L323.71,355.81L328.95,376.97L330,378.89L331.05,379.39L332.1,361.19L335.24,235.29L336.29,225.37L337.33,235.65L338.38,266.35L340.48,360.45L341.52,362.87L343.62,353.95L344.67,347.25L352,292.08L353.05,292.54L355.14,301L356.19,301.43L357.24,281.58L358.29,230.49L360.38,134.32L361.43,118.12L362.48,129.08L363.52,162.99L366.67,306.79L367.71,319.29L369.81,336.92L370.86,335.46L372.95,311.53L374,293.29L378.19,224.07L379.24,211.48L381.33,183.16L382.38,151.59L385.52,23.15L386.57,23.91L387.62,25.93L388.67,69.36L390.76,210.48L391.81,225.58L393.9,233.84L394.95,242.96L402.29,305.99L403.33,309.41L406.48,314.45L407.52,305.57L409.62,262.32L410.67,253.47L411.71,259.01L412.76,278.48L414.86,327.94L415.9,338.96L418,330.88L419.05,330.98L420.1,334L421.14,339.29L428.48,372.19L429.52,373.75L430.57,370.93L431.62,364.23L432.67,343.66L433.71,303.95L435.81,261.38L436.86,265.49L441.05,361.62L442.1,363.37L445.24,360.3L446.29,362.31L449.43,371.23L450.48,372.29L451.52,371.28L452.57,368.86L454.67,358.43L455.71,349.42L456.76,336.37L457.81,309.65L460.95,153.67L462,135.67L463.05,137.83L464.1,160.77L467.24,264.53L468.29,278.38L469.33,287.25L470.38,282.36L472.48,262.11L473.52,255.76L474.57,248.3L475.62,250.82L477.71,297.12L478.76,315.96L481.9,341.1L482.95,345.4L484,347.62L485.05,347.31L487.14,324.96L488.19,311.24L494.48,233.24L495.52,231.02L496.57,219.08L497.62,195.1L498.67,167.75L499.71,162.51L500.76,158.98L501.81,164.06L502.86,174.35L503.9,203.87L506,256.01L507.05,267.45L508.1,265.55L509.14,248.13L512.29,207.43L513.33,209.74L515.43,282.37L516.48,321.73L518.57,338.84L519.62,345.84L520.67,348.51L521.71,345.79L523.81,335.56L524.86,322.21L528,273.95L528,273.95L524.86,322.21L523.81,335.56L521.71,345.79L520.67,348.51L519.62,345.84L518.57,338.84L515.43,315.61L514.38,303.92L512.29,294.2L511.24,287.1L509.14,276.11L508.1,274.5L507.05,267.45L506,256.01L503.9,203.87L502.86,174.35L501.81,164.06L500.76,158.98L499.71,162.51L498.67,167.75L497.62,195.1L496.57,219.08L495.52,231.02L494.48,233.24L493.43,249.01L492.38,259.14L489.24,317.98L488.19,336.37L486.1,361.26L485.05,360.4L482.95,346.49L481.9,341.1L478.76,315.96L477.71,297.12L475.62,250.82L474.57,248.3L471.43,270.52L470.38,282.36L469.33,287.25L468.29,278.38L466.19,240.8L465.14,226.34L464.1,219.33L463.05,215.81L462,223.21L460.95,235.76L458.86,298.28L457.81,321.1L455.71,349.42L454.67,358.43L452.57,368.86L451.52,371.28L450.48,372.29L449.43,371.23L446.29,362.31L445.24,360.3L443.14,362.36L442.1,363.37L440,363.02L438.95,361.96L434.76,347.5L433.71,348.01L431.62,364.23L430.57,370.93L429.52,373.75L428.48,372.19L421.14,339.29L420.1,334L419.05,330.98L418,330.88L415.9,340.6L414.86,347.1L413.81,350.42L412.76,350.78L410.67,340.5L409.62,331.38L407.52,317.48L406.48,314.45L403.33,309.41L402.29,305.99L394.95,242.96L393.9,233.84L391.81,225.58L390.76,220.14L386.57,162.76L385.52,155.25L384.48,154.14L383.43,157.92L379.24,211.48L378.19,224.07L374,293.29L372.95,311.53L370.86,335.46L369.81,336.92L365.62,295.91L364.57,288.96L363.52,285.03L362.48,286.64L359.33,301.2L358.29,303.62L356.19,301.66L355.14,301L353.05,292.54L352,292.08L345.71,339.44L344.67,347.25L342.57,359.14L341.52,362.87L339.43,366.19L338.38,367.3L336.29,372.09L335.24,374.56L332.1,378.94L331.05,379.39L330,378.89L328.95,376.97L323.71,355.81L322.67,351.33L320.57,346.44L319.52,344.48L317.43,343.17L316.38,340.85L311.14,300.14L310.1,297.02L309.05,296.16L308,296.82L306.95,300.7L305.9,305.08L303.81,312.44L302.76,313.04L301.71,311.68L300.67,312.54L298.57,322.66L297.52,332.84L295.43,349.01L294.38,353.5L291.24,364.33L290.19,365.99L289.14,365.54L288.1,362.77L283.9,317.78L282.86,312.34L280.76,313.85L279.71,308.86L275.52,275.91L274.48,262.86L271.33,182.71L270.29,148.2L269.24,133.64L268.19,137.27L265.05,41.59L264,38.77L258.76,78.12L257.71,79.43L256.67,67.94L255.62,55.65L254.57,76.35L253.52,111.77L252.48,125.83L251.43,134.11L250.38,134.52L249.33,128.73L244.1,58.61L243.05,36.25L242,27.48L240.95,23.43L239.9,38.5L238.86,40.57L237.81,37.46L236.76,30.94L235.71,30.09L234.67,29.26L232.57,34.09L231.52,35.09L230.48,59.88L229.43,90.56L227.33,127.87L226.29,136.92L225.24,137.33L224.19,132.54L217.9,37.89L216.86,29.99L215.81,26.54L214.76,35.97L213.71,35.3L212.67,48.8L211.62,104.77L210.57,118.98L209.52,113.59L208.48,107.49L207.43,109.35L206.38,108.6L205.33,95.4L204.29,78.47L203.24,111L202.19,126.98L201.14,131.72L200.1,132.35L199.05,128.78L198,120.02L195.9,84.78L194.86,71.16L191.71,23.71L190.67,19.35L189.62,35.57L188.57,37.11L186.48,30.38L185.43,30.36L184.38,28.82L183.33,33.94L182.29,31.01L181.24,33.83L179.14,79.51L178.1,121.84L177.05,141.52L176,147.95L174.95,150.04L173.9,147.28L170.76,113.7L169.71,113.26L167.62,93.82L166.57,86.92L164.48,106.26L163.43,111.97L160.29,99.19L159.24,100.66L155.05,168.95L154,178.66L151.9,171.21L150.86,170.7L149.81,180.64L148.76,193.74L142.48,87.29L141.43,76.72L140.38,76.54L139.33,89.76L138.29,95.49L137.24,92.9L135.14,80.74L134.1,86.63L133.05,88.59L132,100.69L126.76,218.88L125.71,234.55L124.67,241.05L123.62,249.61L122.57,252.48L121.52,242.16L117.33,168L116.29,142.76L113.14,87.94L112.1,81.09L111.05,88.9L110,85.32L106.86,126.23L105.81,134.9L103.71,135.35L102.67,130.56L101.62,136.46L100.57,168.55L97.43,259.24L96.38,282.51L95.33,294.15L94.29,307.65L91.14,326.49L90.1,335.41L85.9,365.24L84.86,371.73L83.81,374.86L82.76,374.46L80.67,367.7L79.62,360.9L75.43,326.49L74.38,312.99L71.24,258.63L70.19,227.8L68.1,168.55L67.05,136.36L62.86,67.49L61.81,46.33L59.71,29.35L58.67,20.05L56.57,31.79L55.52,33.35L53.43,75.41L52.38,109.27L51.33,123.25L50.29,130.47L49.24,133.57L48.19,130.16L42.95,51.64L41.9,34.51L40.86,26.47L39.81,24.06L38.76,32.36L37.71,36.77L35.62,34.69L34.57,58.52L33.52,68.9L32.48,44.41L31.43,32.88L30.38,34.42L28.29,76.62L27.24,113.62L26.19,128.38L25.14,136.56L24.1,139.34L23.05,136.56L17.81,64.11L16.76,49.35L15.71,57.31L14.67,80.94L11.52,146.89L10.48,171.32L7.33,292.94L6.29,325.44L5.24,343.17L4.19,347.75L2.1,341.36L1.05,336.42L0,334.4Z" style="fill: rgb(111, 231, 219); fill-opacity: 0.5; stroke-width: 0;"/></g></g><g class="errorbars"/><g class="lines"><path class="js-line" d="M0,334.4L1.05,336.42L2.1,341.36L4.19,347.75L5.24,343.17L6.29,325.44L7.33,292.94L10.48,171.32L11.52,146.89L14.67,80.94L15.71,57.31L16.76,49.35L17.81,64.11L23.05,136.56L24.1,139.34L25.14,136.56L26.19,128.38L27.24,113.62L28.29,76.62L30.38,34.42L31.43,32.88L32.48,44.41L33.52,68.9L34.57,58.52L35.62,34.69L37.71,36.77L38.76,32.36L39.81,24.06L40.86,26.47L41.9,34.51L42.95,51.64L48.19,130.16L49.24,133.57L50.29,130.47L51.33,123.25L52.38,109.27L53.43,75.41L55.52,33.35L56.57,31.79L58.67,20.05L59.71,29.35L61.81,46.33L62.86,67.49L67.05,136.36L68.1,168.55L70.19,227.8L71.24,258.63L74.38,312.99L75.43,326.49L79.62,360.9L80.67,367.7L82.76,374.46L83.81,374.86L84.86,371.73L85.9,365.24L90.1,335.41L91.14,326.49L94.29,307.65L95.33,294.15L96.38,282.51L97.43,259.24L100.57,168.55L101.62,136.46L102.67,130.56L103.71,135.35L105.81,134.9L106.86,126.23L110,85.32L111.05,88.9L112.1,81.09L113.14,87.94L116.29,142.76L117.33,168L121.52,242.16L122.57,252.48L123.62,249.61L124.67,241.05L125.71,234.55L126.76,218.88L132,100.69L133.05,88.59L134.1,86.63L135.14,80.74L137.24,92.9L138.29,95.49L139.33,89.76L140.38,76.54L141.43,76.72L142.48,87.29L148.76,193.74L149.81,180.64L150.86,170.7L151.9,171.21L154,178.66L155.05,168.95L159.24,100.66L160.29,99.19L163.43,111.97L164.48,106.26L166.57,86.92L167.62,93.82L169.71,113.26L170.76,113.7L173.9,147.28L174.95,150.04L176,147.95L177.05,141.52L178.1,121.84L179.14,79.51L181.24,33.83L182.29,31.01L183.33,33.94L184.38,28.82L185.43,30.36L186.48,30.38L188.57,37.11L189.62,35.57L190.67,19.35L191.71,23.71L194.86,71.16L195.9,84.78L198,120.02L199.05,128.78L200.1,132.35L201.14,131.72L202.19,126.98L203.24,111L204.29,78.47L205.33,95.4L206.38,108.6L207.43,109.35L208.48,107.49L209.52,113.59L210.57,118.98L211.62,104.77L212.67,48.8L213.71,35.3L214.76,35.97L215.81,26.54L216.86,29.99L217.9,37.89L224.19,132.54L225.24,137.33L226.29,136.92L227.33,127.87L229.43,90.56L230.48,59.88L231.52,35.09L232.57,34.09L234.67,29.26L235.71,30.09L236.76,30.94L237.81,37.46L238.86,40.57L239.9,38.5L240.95,23.43L242,27.48L243.05,36.25L244.1,58.61L249.33,128.73L250.38,134.52L251.43,134.11L252.48,125.83L253.52,111.77L254.57,76.35L255.62,55.65L256.67,67.94L257.71,79.43L258.76,78.12L264,38.77L265.05,41.59L268.19,137.27L269.24,133.64L270.29,148.2L271.33,182.71L274.48,262.86L275.52,275.91L279.71,308.86L280.76,313.85L282.86,312.34L283.9,317.78L288.1,362.77L289.14,365.54L290.19,365.99L291.24,364.33L294.38,353.5L295.43,349.01L297.52,332.84L298.57,322.66L300.67,312.54L301.71,311.68L302.76,313.04L303.81,312.44L305.9,305.08L306.95,300.7L308,296.82L309.05,296.16L310.1,297.02L311.14,300.14L316.38,340.85L317.43,343.17L319.52,344.48L320.57,346.44L322.67,351.33L323.71,355.81L328.95,376.97L330,378.89L331.05,379.39L332.1,378.94L335.24,374.56L336.29,372.09L338.38,367.3L339.43,366.19L341.52,362.87L342.57,359.14L344.67,347.25L345.71,339.44L352,292.08L353.05,292.54L355.14,301L356.19,301.66L358.29,303.62L359.33,301.2L362.48,286.64L363.52,285.03L364.57,288.96L365.62,295.91L369.81,336.92L370.86,335.46L372.95,311.53L374,293.29L378.19,224.07L379.24,211.48L383.43,157.92L384.48,154.14L385.52,155.25L386.57,162.76L390.76,220.14L391.81,225.58L393.9,233.84L394.95,242.96L402.29,305.99L403.33,309.41L406.48,314.45L407.52,317.48L409.62,331.38L410.67,340.5L412.76,350.78L413.81,350.42L414.86,347.1L415.9,340.6L418,330.88L419.05,330.98L420.1,334L421.14,339.29L428.48,372.19L429.52,373.75L430.57,370.93L431.62,364.23L433.71,348.01L434.76,347.5L438.95,361.96L440,363.02L442.1,363.37L443.14,362.36L445.24,360.3L446.29,362.31L449.43,371.23L450.48,372.29L451.52,371.28L452.57,368.86L454.67,358.43L455.71,349.42L457.81,321.1L458.86,298.28L460.95,235.76L462,223.21L463.05,215.81L464.1,219.33L465.14,226.34L466.19,240.8L468.29,278.38L469.33,287.25L470.38,282.36L471.43,270.52L474.57,248.3L475.62,250.82L477.71,297.12L478.76,315.96L481.9,341.1L482.95,346.49L485.05,360.4L486.1,361.26L488.19,336.37L489.24,317.98L492.38,259.14L493.43,249.01L494.48,233.24L495.52,231.02L496.57,219.08L497.62,195.1L498.67,167.75L499.71,162.51L500.76,158.98L501.81,164.06L502.86,174.35L503.9,203.87L506,256.01L507.05,267.45L508.1,274.5L509.14,276.11L511.24,287.1L512.29,294.2L514.38,303.92L515.43,315.61L518.57,338.84L519.62,345.84L520.67,348.51L521.71,345.79L523.81,335.56L524.86,322.21L528,273.95" style="vector-effect: non-scaling-stroke; fill: none; stroke: rgb(131, 90, 241); stroke-opacity: 1; stroke-width: 0.5px; opacity: 1;"/></g><g class="points"/><g class="text"/></g><g class="trace scatter traceefa8da" style="stroke-miterlimit: 2;"><g class="fills"><g><path class="js-fill" d="M0,172.85L1.05,163.6L2.1,142.08L4.19,66.59L5.24,53.54L6.29,52.15L7.33,46.24L8.38,41.93L9.43,44.35L10.48,44.51L11.52,46.8L12.57,49.58L13.62,45.69L14.67,34.08L15.71,37.53L19.9,91.43L20.95,109.22L23.05,136.56L24.1,139.34L25.14,136.56L26.19,128.38L27.24,113.62L28.29,76.62L30.38,34.42L31.43,32.88L33.52,29.34L34.57,28.87L35.62,31L36.67,35.96L37.71,36.77L38.76,32.36L39.81,24.06L40.86,26.47L41.9,34.51L42.95,51.64L48.19,130.16L49.24,133.57L50.29,130.47L51.33,123.25L52.38,109.27L53.43,75.41L55.52,32.9L56.57,31.79L58.67,20.05L59.71,24.99L60.76,24.45L61.81,27.51L62.86,31.98L63.9,31.53L64.95,21L66,25.19L67.05,33.76L68.1,55.78L73.33,132.46L74.38,137.14L75.43,137.17L76.48,132.81L77.52,119.27L78.57,85.14L80.67,44.01L81.71,44.85L83.81,37.45L84.86,38.63L85.9,40.93L86.95,46.41L88,48.53L89.05,48.31L90.1,38.3L91.14,41.63L92.19,47.98L93.24,63.92L96.38,106.97L97.43,117.32L99.52,131.12L100.57,129.81L101.62,125.3L102.67,112.45L104.76,43.45L105.81,29.9L107.9,24.32L108.95,20.68L110,23.02L111.05,29.27L113.14,43.71L114.19,43.32L115.24,31.97L116.29,36L117.33,42.83L118.38,64.95L123.62,139.47L124.67,146.98L126.76,155.01L127.81,153.75L128.86,148.34L129.9,134.02L133.05,88.59L134.1,79.91L135.14,80.41L136.19,87.53L138.29,95.49L139.33,89.57L140.38,76.54L141.43,76.72L143.52,105.15L144.57,119.12L145.62,123.95L146.67,135.97L148.76,163.6L149.81,169.31L151.9,171.21L152.95,175.07L154,178.66L155.05,168.95L159.24,100.66L160.29,99.19L162.38,108.98L163.43,110.43L164.48,106.26L165.52,92.91L166.57,86.92L167.62,93.82L169.71,113.26L170.76,113.7L173.9,147.28L174.95,150.04L176,147.95L177.05,141.52L178.1,121.84L179.14,79.51L181.24,33.83L182.29,31.01L183.33,33.94L184.38,28.82L185.43,30.36L186.48,30.38L188.57,37.11L189.62,35.24L190.67,19.35L191.71,23.71L192.76,33.72L193.81,52.36L198,120.02L199.05,128.78L200.1,132.35L201.14,131.72L202.19,126.98L203.24,111L206.38,31.38L207.43,32.88L209.52,22.04L210.57,25.98L211.62,28.28L212.67,33.69L214.76,35.97L215.81,26.54L216.86,29.99L217.9,37.89L224.19,132.54L225.24,137.33L226.29,136.92L227.33,127.87L228.38,112.54L229.43,77.5L231.52,34.29L232.57,34.09L234.67,29.26L235.71,30.09L236.76,30.94L237.81,37.46L238.86,40.57L239.9,38.5L240.95,23.43L242,27.48L243.05,36.25L244.1,58.61L249.33,128.73L250.38,134.52L251.43,134.11L252.48,125.83L253.52,111.77L254.57,76.35L256.67,31.57L257.71,33.38L258.76,31.01L259.81,26.38L261.9,28.6L262.95,32.89L264,38.77L265.05,40.18L266.1,26.27L267.14,25.83L268.19,34.15L269.24,51.35L273.43,116.19L274.48,127.36L275.52,133.74L276.57,134.35L277.62,129.02L278.67,116.54L280.76,50.31L281.81,39.8L282.86,37.34L283.9,39.43L284.95,39.4L286,44.41L288.1,56.24L289.14,57.88L290.19,59.13L291.24,44.96L292.29,45.29L293.33,53.77L296.48,98.09L297.52,113.98L299.62,137.74L300.67,142.56L302.76,150.21L303.81,151.32L304.86,148.2L305.9,134.44L308,97.67L309.05,90.67L310.1,87.86L311.14,94.17L313.24,115.24L314.29,114.09L315.33,106.72L316.38,86.13L317.43,82.67L318.48,91.5L320.57,124.05L321.62,127.5L325.81,163.6L326.86,166.71L328.95,171.26L330,174.77L331.05,166.73L332.1,150.39L334.19,122.91L335.24,115.19L336.29,115.68L337.33,123.22L339.43,135.09L340.48,127.18L342.57,93.84L343.62,99.64L345.71,121.49L346.76,117.53L349.9,145.9L350.95,150.18L352,149.37L353.05,142.81L354.1,123.44L355.14,81.3L356.19,47.71L357.24,39.93L360.38,32.83L361.43,38.28L362.48,39.46L363.52,45.65L364.57,50.71L365.62,49.81L366.67,34.71L367.71,31.28L368.76,36.71L369.81,52.31L374,110.53L375.05,117.2L377.14,126.96L378.19,123.39L379.24,108.22L380.29,71.41L382.38,30.26L383.43,26.69L385.52,23.15L386.57,23.91L388.67,28.16L389.71,31.6L390.76,35.05L391.81,21.08L392.86,19.75L393.9,25.9L398.1,92.61L399.14,104.23L401.24,117.97L402.29,119.91L403.33,118.51L404.38,102.5L406.48,35.41L407.52,26.61L409.62,20.04L410.67,19.59L411.71,21.54L412.76,25.71L415.9,35.83L416.95,22.28L418,23.95L419.05,31L423.24,93.23L424.29,105.32L426.38,121.62L427.43,121.7L428.48,118.9L429.52,106.27L431.62,42.41L432.67,32.35L435.81,25.01L436.86,28.03L437.9,29.58L438.95,33.57L441.05,37.2L442.1,28.89L443.14,28.5L444.19,35.79L448.38,98.58L449.43,110.11L451.52,123.27L452.57,126.95L453.62,123.23L454.67,108.64L456.76,46.29L457.81,34.86L459.9,25.05L460.95,26.03L462,28.12L463.05,35.16L465.14,46.23L466.19,48.09L467.24,33.63L468.29,31.97L469.33,39.29L470.38,60.37L474.57,112.22L475.62,123.33L477.71,134.23L478.76,135.48L479.81,136.72L480.86,133.81L485.05,76.49L486.1,74.23L487.14,77.7L488.19,88.49L490.29,97.36L491.33,96.7L492.38,81.48L493.43,78.3L501.81,164.06L502.86,165.92L503.9,164.84L504.95,167.14L506,170.84L507.05,160.41L511.24,109.67L512.29,109.7L514.38,126.53L515.43,129.6L516.48,126.72L517.52,108.93L518.57,100.95L519.62,105L521.71,123.06L522.76,121.54L525.9,154.45L526.95,156.65L528,153.63L528,273.95L524.86,322.21L523.81,335.56L521.71,345.79L520.67,348.51L519.62,345.84L518.57,338.84L516.48,321.73L515.43,282.37L513.33,209.74L512.29,207.43L509.14,248.13L508.1,265.55L507.05,267.45L506,256.01L503.9,203.87L502.86,174.35L501.81,164.06L500.76,158.98L499.71,162.51L498.67,167.75L497.62,195.1L496.57,219.08L495.52,231.02L494.48,233.24L488.19,311.24L487.14,324.96L485.05,347.31L484,347.62L482.95,345.4L481.9,341.1L478.76,315.96L477.71,297.12L475.62,250.82L474.57,248.3L473.52,255.76L472.48,262.11L470.38,282.36L469.33,287.25L468.29,278.38L467.24,264.53L464.1,160.77L463.05,137.83L462,135.67L460.95,153.67L457.81,309.65L456.76,336.37L455.71,349.42L454.67,358.43L452.57,368.86L451.52,371.28L450.48,372.29L449.43,371.23L446.29,362.31L445.24,360.3L442.1,363.37L441.05,361.62L436.86,265.49L435.81,261.38L433.71,303.95L432.67,343.66L431.62,364.23L430.57,370.93L429.52,373.75L428.48,372.19L421.14,339.29L420.1,334L419.05,330.98L418,330.88L415.9,338.96L414.86,327.94L412.76,278.48L411.71,259.01L410.67,253.47L409.62,262.32L407.52,305.57L406.48,314.45L403.33,309.41L402.29,305.99L394.95,242.96L393.9,233.84L391.81,225.58L390.76,210.48L388.67,69.36L387.62,25.93L386.57,23.91L385.52,23.15L382.38,151.59L381.33,183.16L379.24,211.48L378.19,224.07L374,293.29L372.95,311.53L370.86,335.46L369.81,336.92L367.71,319.29L366.67,306.79L363.52,162.99L362.48,129.08L361.43,118.12L360.38,134.32L358.29,230.49L357.24,281.58L356.19,301.43L355.14,301L353.05,292.54L352,292.08L344.67,347.25L343.62,353.95L341.52,362.87L340.48,360.45L338.38,266.35L337.33,235.65L336.29,225.37L335.24,235.29L332.1,361.19L331.05,379.39L330,378.89L328.95,376.97L323.71,355.81L322.67,351.33L319.52,344.48L318.48,343.87L316.38,340.85L315.33,328.17L313.24,199.7L312.19,157.08L311.14,138.7L310.1,146.49L306.95,278.75L305.9,305.05L303.81,312.44L302.76,313.04L301.71,311.68L300.67,312.54L298.57,322.66L297.52,332.84L295.43,349.01L294.38,353.5L291.24,364.33L290.19,362.65L288.1,269.93L287.05,236.46L286,217.39L284.95,208.46L282.86,270.85L281.81,305.62L280.76,313.85L279.71,308.86L275.52,275.91L274.48,262.86L271.33,182.71L270.29,148.2L269.24,133.64L268.19,137.27L265.05,40.18L264,38.77L262.95,32.89L261.9,28.6L259.81,26.38L258.76,31.01L256.67,54.95L255.62,55.62L254.57,76.35L253.52,111.77L252.48,125.83L251.43,134.11L250.38,134.52L249.33,128.73L244.1,58.61L243.05,36.25L242,27.48L240.95,23.43L239.9,38.5L238.86,40.57L237.81,37.46L236.76,30.94L235.71,30.09L234.67,29.26L232.57,34.09L231.52,34.29L230.48,59.88L229.43,90.56L227.33,127.87L226.29,136.92L225.24,137.33L224.19,132.54L217.9,37.89L216.86,29.99L215.81,26.54L214.76,35.97L212.67,33.69L211.62,28.28L210.57,25.98L209.52,22.04L207.43,76.3L206.38,102.15L205.33,95.4L204.29,78.47L203.24,111L202.19,126.98L201.14,131.72L200.1,132.35L199.05,128.78L198,120.02L195.9,84.78L194.86,71.16L191.71,23.71L190.67,19.35L189.62,35.24L188.57,37.11L186.48,30.38L185.43,30.36L184.38,28.82L183.33,33.94L182.29,31.01L181.24,33.83L179.14,79.51L178.1,121.84L177.05,141.52L176,147.95L174.95,150.04L173.9,147.28L170.76,113.7L169.71,113.26L167.62,93.82L166.57,86.92L165.52,92.91L164.48,106.26L163.43,110.43L162.38,108.98L160.29,99.19L159.24,100.66L155.05,168.95L154,178.66L151.9,171.21L150.86,170.7L149.81,180.64L148.76,193.74L142.48,87.29L141.43,76.72L140.38,76.54L139.33,89.57L138.29,95.49L137.24,92.9L135.14,80.41L134.1,79.91L133.05,88.59L132,100.69L126.76,218.88L125.71,234.55L123.62,249.61L122.57,252.48L119.43,208.75L118.38,187.8L115.24,125.07L114.19,103.5L110,36.68L108.95,39.27L105.81,130.82L104.76,135.25L103.71,135.35L102.67,130.56L101.62,136.46L100.57,168.55L97.43,259.24L96.38,282.51L93.24,317.07L92.19,320.95L90.1,335.41L89.05,346.05L86.95,318.63L85.9,313.03L84.86,317.5L83.81,323.29L80.67,365.81L79.62,360.9L75.43,326.49L74.38,312.99L71.24,258.63L70.19,227.8L68.1,168.55L67.05,136.36L64.95,93.49L63.9,83.75L61.81,29.48L60.76,24.45L59.71,24.99L58.67,20.05L56.57,31.79L55.52,32.9L53.43,75.41L52.38,109.27L51.33,123.25L50.29,130.47L49.24,133.57L48.19,130.16L41.9,34.51L40.86,26.47L39.81,24.06L38.76,32.36L37.71,36.77L36.67,35.96L35.62,31L34.57,29.32L33.52,44.42L32.48,31.03L31.43,32.88L30.38,34.42L28.29,76.62L27.24,113.62L26.19,128.38L25.14,136.56L24.1,139.34L23.05,136.56L17.81,64.11L16.76,49.35L13.62,101.61L12.57,112.64L11.52,111.78L10.48,122.19L8.38,196.07L7.33,257.48L5.24,341.85L4.19,347.75L2.1,341.36L1.05,336.42L0,334.4Z" style="fill: rgb(184, 247, 255); fill-opacity: 0.5; stroke-width: 0;"/></g></g><g class="errorbars"/><g class="lines"><path class="js-line" d="M0,334.4L1.05,336.42L2.1,341.36L4.19,347.75L5.24,341.85L7.33,257.48L8.38,196.07L10.48,122.19L11.52,111.78L12.57,112.64L13.62,101.61L16.76,49.35L17.81,64.11L23.05,136.56L24.1,139.34L25.14,136.56L26.19,128.38L27.24,113.62L28.29,76.62L30.38,34.42L31.43,32.88L32.48,31.03L33.52,44.42L34.57,29.32L35.62,31L36.67,35.96L37.71,36.77L38.76,32.36L39.81,24.06L40.86,26.47L41.9,34.51L48.19,130.16L49.24,133.57L50.29,130.47L51.33,123.25L52.38,109.27L53.43,75.41L55.52,32.9L56.57,31.79L58.67,20.05L59.71,24.99L60.76,24.45L61.81,29.48L63.9,83.75L64.95,93.49L67.05,136.36L68.1,168.55L70.19,227.8L71.24,258.63L74.38,312.99L75.43,326.49L79.62,360.9L80.67,365.81L83.81,323.29L84.86,317.5L85.9,313.03L86.95,318.63L89.05,346.05L90.1,335.41L92.19,320.95L93.24,317.07L96.38,282.51L97.43,259.24L100.57,168.55L101.62,136.46L102.67,130.56L103.71,135.35L104.76,135.25L105.81,130.82L108.95,39.27L110,36.68L114.19,103.5L115.24,125.07L118.38,187.8L119.43,208.75L122.57,252.48L123.62,249.61L125.71,234.55L126.76,218.88L132,100.69L133.05,88.59L134.1,79.91L135.14,80.41L137.24,92.9L138.29,95.49L139.33,89.57L140.38,76.54L141.43,76.72L142.48,87.29L148.76,193.74L149.81,180.64L150.86,170.7L151.9,171.21L154,178.66L155.05,168.95L159.24,100.66L160.29,99.19L162.38,108.98L163.43,110.43L164.48,106.26L165.52,92.91L166.57,86.92L167.62,93.82L169.71,113.26L170.76,113.7L173.9,147.28L174.95,150.04L176,147.95L177.05,141.52L178.1,121.84L179.14,79.51L181.24,33.83L182.29,31.01L183.33,33.94L184.38,28.82L185.43,30.36L186.48,30.38L188.57,37.11L189.62,35.24L190.67,19.35L191.71,23.71L194.86,71.16L195.9,84.78L198,120.02L199.05,128.78L200.1,132.35L201.14,131.72L202.19,126.98L203.24,111L204.29,78.47L205.33,95.4L206.38,102.15L207.43,76.3L209.52,22.04L210.57,25.98L211.62,28.28L212.67,33.69L214.76,35.97L215.81,26.54L216.86,29.99L217.9,37.89L224.19,132.54L225.24,137.33L226.29,136.92L227.33,127.87L229.43,90.56L230.48,59.88L231.52,34.29L232.57,34.09L234.67,29.26L235.71,30.09L236.76,30.94L237.81,37.46L238.86,40.57L239.9,38.5L240.95,23.43L242,27.48L243.05,36.25L244.1,58.61L249.33,128.73L250.38,134.52L251.43,134.11L252.48,125.83L253.52,111.77L254.57,76.35L255.62,55.62L256.67,54.95L258.76,31.01L259.81,26.38L261.9,28.6L262.95,32.89L264,38.77L265.05,40.18L268.19,137.27L269.24,133.64L270.29,148.2L271.33,182.71L274.48,262.86L275.52,275.91L279.71,308.86L280.76,313.85L281.81,305.62L282.86,270.85L284.95,208.46L286,217.39L287.05,236.46L288.1,269.93L290.19,362.65L291.24,364.33L294.38,353.5L295.43,349.01L297.52,332.84L298.57,322.66L300.67,312.54L301.71,311.68L302.76,313.04L303.81,312.44L305.9,305.05L306.95,278.75L310.1,146.49L311.14,138.7L312.19,157.08L313.24,199.7L315.33,328.17L316.38,340.85L318.48,343.87L319.52,344.48L322.67,351.33L323.71,355.81L328.95,376.97L330,378.89L331.05,379.39L332.1,361.19L335.24,235.29L336.29,225.37L337.33,235.65L338.38,266.35L340.48,360.45L341.52,362.87L343.62,353.95L344.67,347.25L352,292.08L353.05,292.54L355.14,301L356.19,301.43L357.24,281.58L358.29,230.49L360.38,134.32L361.43,118.12L362.48,129.08L363.52,162.99L366.67,306.79L367.71,319.29L369.81,336.92L370.86,335.46L372.95,311.53L374,293.29L378.19,224.07L379.24,211.48L381.33,183.16L382.38,151.59L385.52,23.15L386.57,23.91L387.62,25.93L388.67,69.36L390.76,210.48L391.81,225.58L393.9,233.84L394.95,242.96L402.29,305.99L403.33,309.41L406.48,314.45L407.52,305.57L409.62,262.32L410.67,253.47L411.71,259.01L412.76,278.48L414.86,327.94L415.9,338.96L418,330.88L419.05,330.98L420.1,334L421.14,339.29L428.48,372.19L429.52,373.75L430.57,370.93L431.62,364.23L432.67,343.66L433.71,303.95L435.81,261.38L436.86,265.49L441.05,361.62L442.1,363.37L445.24,360.3L446.29,362.31L449.43,371.23L450.48,372.29L451.52,371.28L452.57,368.86L454.67,358.43L455.71,349.42L456.76,336.37L457.81,309.65L460.95,153.67L462,135.67L463.05,137.83L464.1,160.77L467.24,264.53L468.29,278.38L469.33,287.25L470.38,282.36L472.48,262.11L473.52,255.76L474.57,248.3L475.62,250.82L477.71,297.12L478.76,315.96L481.9,341.1L482.95,345.4L484,347.62L485.05,347.31L487.14,324.96L488.19,311.24L494.48,233.24L495.52,231.02L496.57,219.08L497.62,195.1L498.67,167.75L499.71,162.51L500.76,158.98L501.81,164.06L502.86,174.35L503.9,203.87L506,256.01L507.05,267.45L508.1,265.55L509.14,248.13L512.29,207.43L513.33,209.74L515.43,282.37L516.48,321.73L518.57,338.84L519.62,345.84L520.67,348.51L521.71,345.79L523.81,335.56L524.86,322.21L528,273.95" style="vector-effect: non-scaling-stroke; fill: none; stroke: rgb(111, 231, 219); stroke-opacity: 1; stroke-width: 0.5px; opacity: 1;"/></g><g class="points"/><g class="text"/></g><g class="trace scatter tracef09822" style="stroke-miterlimit: 2;"><g class="fills"><g><path class="js-fill" d="M0,172.85L1.05,163.6L2.1,142.08L4.19,66.59L5.24,53.54L6.29,52.15L7.33,46.24L8.38,41.93L9.43,44.35L10.48,44.51L11.52,46.8L12.57,49.58L13.62,45.69L14.67,34.08L15.71,37.53L19.9,91.43L20.95,109.22L23.05,136.56L24.1,139.34L25.14,136.56L26.19,128.38L27.24,113.62L28.29,76.62L30.38,34.42L31.43,32.88L33.52,29.34L34.57,28.87L35.62,31L36.67,35.96L37.71,36.77L38.76,32.36L39.81,24.06L40.86,26.47L41.9,34.51L42.95,51.64L48.19,130.16L49.24,133.57L50.29,130.47L51.33,123.25L52.38,109.27L53.43,75.41L55.52,32.9L56.57,31.79L58.67,20.05L59.71,24.99L60.76,24.45L61.81,27.51L62.86,31.98L63.9,31.53L64.95,21L66,25.19L67.05,33.76L68.1,55.78L73.33,132.46L74.38,137.14L75.43,137.17L76.48,132.81L77.52,119.27L78.57,85.14L80.67,44.01L81.71,44.85L83.81,37.45L84.86,38.63L85.9,40.93L86.95,46.41L88,48.53L89.05,48.31L90.1,38.3L91.14,41.63L92.19,47.98L93.24,63.92L96.38,106.97L97.43,117.32L99.52,131.12L100.57,129.81L101.62,125.3L102.67,112.45L104.76,43.45L105.81,29.9L107.9,24.32L108.95,20.68L110,23.02L111.05,29.27L113.14,43.71L114.19,43.32L115.24,31.97L116.29,36L117.33,42.83L118.38,64.95L123.62,139.47L124.67,146.98L126.76,155.01L127.81,153.75L128.86,148.34L129.9,134.02L133.05,88.59L134.1,79.91L135.14,80.41L136.19,87.53L138.29,95.49L139.33,89.57L140.38,76.54L141.43,76.72L143.52,105.15L144.57,119.12L145.62,123.95L146.67,135.97L148.76,163.6L149.81,169.31L151.9,171.21L152.95,175.07L154,178.66L155.05,168.95L159.24,100.66L160.29,99.19L162.38,108.98L163.43,110.43L164.48,106.26L165.52,92.91L166.57,86.92L167.62,93.82L169.71,113.26L170.76,113.7L173.9,147.28L174.95,150.04L176,147.95L177.05,141.52L178.1,121.84L179.14,79.51L181.24,33.83L182.29,31.01L183.33,33.94L184.38,28.82L185.43,30.36L186.48,30.38L188.57,37.11L189.62,35.24L190.67,19.35L191.71,23.71L192.76,33.72L193.81,52.36L198,120.02L199.05,128.78L200.1,132.35L201.14,131.72L202.19,126.98L203.24,111L206.38,31.38L207.43,32.88L209.52,22.04L210.57,25.98L211.62,28.28L212.67,33.69L214.76,35.97L215.81,26.54L216.86,29.99L217.9,37.89L224.19,132.54L225.24,137.33L226.29,136.92L227.33,127.87L228.38,112.54L229.43,77.5L231.52,34.29L232.57,34.09L234.67,29.26L235.71,30.09L236.76,30.94L237.81,37.46L238.86,40.57L239.9,38.5L240.95,23.43L242,27.48L243.05,36.25L244.1,58.61L249.33,128.73L250.38,134.52L251.43,134.11L252.48,125.83L253.52,111.77L254.57,76.35L256.67,31.57L257.71,33.38L258.76,31.01L259.81,26.38L261.9,28.6L262.95,32.89L264,38.77L265.05,40.18L266.1,26.27L267.14,25.83L268.19,34.15L269.24,51.35L273.43,116.19L274.48,127.36L275.52,133.74L276.57,134.35L277.62,129.02L278.67,116.54L280.76,50.31L281.81,39.8L282.86,37.34L283.9,39.43L284.95,39.4L286,44.41L288.1,56.24L289.14,57.88L290.19,59.13L291.24,44.96L292.29,45.29L293.33,53.77L296.48,98.09L297.52,113.98L299.62,137.74L300.67,142.56L302.76,150.21L303.81,151.32L304.86,148.2L305.9,134.44L308,97.67L309.05,90.67L310.1,87.86L311.14,94.17L313.24,115.24L314.29,114.09L315.33,106.72L316.38,86.13L317.43,82.67L318.48,91.5L320.57,124.05L321.62,127.5L325.81,163.6L326.86,166.71L328.95,171.26L330,174.77L331.05,166.73L332.1,150.39L334.19,122.91L335.24,115.19L336.29,115.68L337.33,123.22L339.43,135.09L340.48,127.18L342.57,93.84L343.62,99.64L345.71,121.49L346.76,117.53L349.9,145.9L350.95,150.18L352,149.37L353.05,142.81L354.1,123.44L355.14,81.3L356.19,47.71L357.24,39.93L360.38,32.83L361.43,38.28L362.48,39.46L363.52,45.65L364.57,50.71L365.62,49.81L366.67,34.71L367.71,31.28L368.76,36.71L369.81,52.31L374,110.53L375.05,117.2L377.14,126.96L378.19,123.39L379.24,108.22L380.29,71.41L382.38,30.26L383.43,26.69L385.52,23.15L386.57,23.91L388.67,28.16L389.71,31.6L390.76,35.05L391.81,21.08L392.86,19.75L393.9,25.9L398.1,92.61L399.14,104.23L401.24,117.97L402.29,119.91L403.33,118.51L404.38,102.5L406.48,35.41L407.52,26.61L409.62,20.04L410.67,19.59L411.71,21.54L412.76,25.71L415.9,35.83L416.95,22.28L418,23.95L419.05,31L423.24,93.23L424.29,105.32L426.38,121.62L427.43,121.7L428.48,118.9L429.52,106.27L431.62,42.41L432.67,32.35L435.81,25.01L436.86,28.03L437.9,29.58L438.95,33.57L441.05,37.2L442.1,28.89L443.14,28.5L444.19,35.79L448.38,98.58L449.43,110.11L451.52,123.27L452.57,126.95L453.62,123.23L454.67,108.64L456.76,46.29L457.81,34.86L459.9,25.05L460.95,26.03L462,28.12L463.05,35.16L465.14,46.23L466.19,48.09L467.24,33.63L468.29,31.97L469.33,39.29L470.38,60.37L474.57,112.22L475.62,123.33L477.71,134.23L478.76,135.48L479.81,136.72L480.86,133.81L485.05,76.49L486.1,74.23L487.14,77.7L488.19,88.49L490.29,97.36L491.33,96.7L492.38,81.48L493.43,78.3L501.81,164.06L502.86,165.92L503.9,164.84L504.95,167.14L506,170.84L507.05,160.41L511.24,109.67L512.29,109.7L514.38,126.53L515.43,129.6L516.48,126.72L517.52,108.93L518.57,100.95L519.62,105L521.71,123.06L522.76,121.54L525.9,154.45L526.95,156.65L528,153.63L528,153.63L526.95,156.65L525.9,154.45L522.76,121.54L521.71,123.06L519.62,105L518.57,100.95L517.52,108.93L516.48,126.72L515.43,129.6L514.38,126.53L512.29,109.7L511.24,109.67L507.05,160.41L506,170.84L504.95,167.14L503.9,164.84L502.86,165.92L501.81,164.06L493.43,78.3L492.38,81.48L491.33,96.7L490.29,97.36L488.19,88.49L487.14,77.7L486.1,74.23L485.05,76.49L480.86,133.81L479.81,136.72L478.76,135.48L477.71,134.23L475.62,123.33L474.57,112.22L470.38,60.37L469.33,39.29L468.29,31.97L467.24,33.63L466.19,48.09L465.14,46.23L463.05,35.16L462,28.12L460.95,26.03L459.9,25.05L457.81,34.86L456.76,46.29L454.67,108.64L453.62,123.23L452.57,126.95L451.52,123.27L449.43,110.11L448.38,98.58L444.19,35.79L443.14,28.5L442.1,28.89L441.05,37.2L438.95,33.57L437.9,29.58L436.86,28.03L435.81,25.01L432.67,32.35L431.62,42.41L429.52,106.27L428.48,118.9L427.43,121.7L426.38,121.62L424.29,105.32L423.24,93.23L419.05,31L418,23.95L416.95,22.28L415.9,35.83L412.76,25.71L411.71,21.54L410.67,19.59L409.62,20.04L407.52,26.61L406.48,35.41L404.38,102.5L403.33,118.51L402.29,119.91L401.24,117.97L399.14,104.23L398.1,92.61L393.9,25.9L392.86,19.75L391.81,21.08L390.76,35.05L389.71,31.6L388.67,28.16L386.57,23.91L385.52,23.15L383.43,26.69L382.38,30.26L380.29,71.41L379.24,108.22L378.19,123.39L377.14,126.96L375.05,117.2L374,110.53L369.81,52.31L368.76,36.71L367.71,31.28L366.67,34.71L365.62,49.81L364.57,50.71L363.52,45.65L362.48,39.46L361.43,38.28L360.38,32.83L357.24,39.93L356.19,47.71L355.14,81.3L354.1,123.44L353.05,142.81L352,149.37L350.95,150.18L349.9,145.9L346.76,117.53L345.71,121.49L343.62,99.64L342.57,93.84L340.48,127.18L339.43,135.09L337.33,123.22L336.29,115.68L335.24,115.19L334.19,122.91L332.1,150.39L331.05,166.73L330,174.77L328.95,171.26L326.86,166.71L325.81,163.6L321.62,127.5L320.57,124.05L318.48,91.5L317.43,82.67L316.38,86.13L315.33,106.72L314.29,114.09L313.24,115.24L311.14,94.17L310.1,87.86L309.05,90.67L308,97.67L305.9,134.44L304.86,148.2L303.81,151.32L302.76,150.21L300.67,142.56L299.62,137.74L297.52,113.98L296.48,98.09L293.33,53.77L292.29,45.29L291.24,44.96L290.19,59.13L289.14,57.88L288.1,56.24L286,44.41L284.95,39.4L283.9,39.43L282.86,37.34L281.81,39.8L280.76,50.31L278.67,116.54L277.62,129.02L276.57,134.35L275.52,133.74L274.48,127.36L273.43,116.19L269.24,51.35L268.19,34.15L267.14,25.83L266.1,26.27L265.05,40.18L264,38.77L262.95,32.89L261.9,28.6L259.81,26.38L258.76,31.01L257.71,33.38L256.67,31.57L254.57,76.35L253.52,111.77L252.48,125.83L251.43,134.11L250.38,134.52L249.33,128.73L244.1,58.61L243.05,36.25L242,27.48L240.95,23.43L239.9,38.5L238.86,40.57L237.81,37.46L236.76,30.94L235.71,30.09L234.67,29.26L232.57,34.09L231.52,34.29L229.43,77.5L228.38,112.54L227.33,127.87L226.29,136.92L225.24,137.33L224.19,132.54L217.9,37.89L216.86,29.99L215.81,26.54L214.76,35.97L212.67,33.69L211.62,28.28L210.57,25.98L209.52,22.04L207.43,32.88L206.38,31.38L203.24,111L202.19,126.98L201.14,131.72L200.1,132.35L199.05,128.78L198,120.02L193.81,52.36L192.76,33.72L191.71,23.71L190.67,19.35L189.62,35.24L188.57,37.11L186.48,30.38L185.43,30.36L184.38,28.82L183.33,33.94L182.29,31.01L181.24,33.83L179.14,79.51L178.1,121.84L177.05,141.52L176,147.95L174.95,150.04L173.9,147.28L170.76,113.7L169.71,113.26L167.62,93.82L166.57,86.92L165.52,92.91L164.48,106.26L163.43,110.43L162.38,108.98L160.29,99.19L159.24,100.66L155.05,168.95L154,178.66L152.95,175.07L151.9,171.21L149.81,169.31L148.76,163.6L146.67,135.97L145.62,123.95L144.57,119.12L143.52,105.15L141.43,76.72L140.38,76.54L139.33,89.57L138.29,95.49L136.19,87.53L135.14,80.41L134.1,79.91L133.05,88.59L129.9,134.02L128.86,148.34L127.81,153.75L126.76,155.01L124.67,146.98L123.62,139.47L118.38,64.95L117.33,42.83L116.29,36L115.24,31.97L114.19,43.32L113.14,43.71L111.05,29.27L110,23.02L108.95,20.68L107.9,24.32L105.81,29.9L104.76,43.45L102.67,112.45L101.62,125.3L100.57,129.81L99.52,131.12L97.43,117.32L96.38,106.97L93.24,63.92L92.19,47.98L91.14,41.63L90.1,38.3L89.05,48.31L88,48.53L86.95,46.41L85.9,40.93L84.86,38.63L83.81,37.45L81.71,44.85L80.67,44.01L78.57,85.14L77.52,119.27L76.48,132.81L75.43,137.17L74.38,137.14L73.33,132.46L68.1,55.78L67.05,33.76L66,25.19L64.95,21L63.9,31.53L62.86,31.98L61.81,27.51L60.76,24.45L59.71,24.99L58.67,20.05L56.57,31.79L55.52,32.9L53.43,75.41L52.38,109.27L51.33,123.25L50.29,130.47L49.24,133.57L48.19,130.16L42.95,51.64L41.9,34.51L40.86,26.47L39.81,24.06L38.76,32.36L37.71,36.77L36.67,35.96L35.62,31L34.57,28.87L33.52,29.34L31.43,32.88L30.38,34.42L28.29,76.62L27.24,113.62L26.19,128.38L25.14,136.56L24.1,139.34L23.05,136.56L20.95,109.22L19.9,91.43L15.71,37.53L14.67,34.08L13.62,45.69L12.57,49.58L11.52,46.8L10.48,44.51L9.43,44.35L8.38,41.93L7.33,46.24L6.29,52.15L5.24,53.54L4.19,66.59L2.1,142.08L1.05,163.6L0,172.85Z" style="fill: rgb(199, 255, 255); fill-opacity: 0.5; stroke-width: 0;"/></g></g><g class="errorbars"/><g class="lines"><path class="js-line" d="M0,172.85L1.05,163.6L2.1,142.08L4.19,66.59L5.24,53.54L6.29,52.15L7.33,46.24L8.38,41.93L9.43,44.35L10.48,44.51L11.52,46.8L12.57,49.58L13.62,45.69L14.67,34.08L15.71,37.53L19.9,91.43L20.95,109.22L23.05,136.56L24.1,139.34L25.14,136.56L26.19,128.38L27.24,113.62L28.29,76.62L30.38,34.42L31.43,32.88L33.52,29.34L34.57,28.87L35.62,31L36.67,35.96L37.71,36.77L38.76,32.36L39.81,24.06L40.86,26.47L41.9,34.51L42.95,51.64L48.19,130.16L49.24,133.57L50.29,130.47L51.33,123.25L52.38,109.27L53.43,75.41L55.52,32.9L56.57,31.79L58.67,20.05L59.71,24.99L60.76,24.45L61.81,27.51L62.86,31.98L63.9,31.53L64.95,21L66,25.19L67.05,33.76L68.1,55.78L73.33,132.46L74.38,137.14L75.43,137.17L76.48,132.81L77.52,119.27L78.57,85.14L80.67,44.01L81.71,44.85L83.81,37.45L84.86,38.63L85.9,40.93L86.95,46.41L88,48.53L89.05,48.31L90.1,38.3L91.14,41.63L92.19,47.98L93.24,63.92L96.38,106.97L97.43,117.32L99.52,131.12L100.57,129.81L101.62,125.3L102.67,112.45L104.76,43.45L105.81,29.9L107.9,24.32L108.95,20.68L110,23.02L111.05,29.27L113.14,43.71L114.19,43.32L115.24,31.97L116.29,36L117.33,42.83L118.38,64.95L123.62,139.47L124.67,146.98L126.76,155.01L127.81,153.75L128.86,148.34L129.9,134.02L133.05,88.59L134.1,79.91L135.14,80.41L136.19,87.53L138.29,95.49L139.33,89.57L140.38,76.54L141.43,76.72L143.52,105.15L144.57,119.12L145.62,123.95L146.67,135.97L148.76,163.6L149.81,169.31L151.9,171.21L152.95,175.07L154,178.66L155.05,168.95L159.24,100.66L160.29,99.19L162.38,108.98L163.43,110.43L164.48,106.26L165.52,92.91L166.57,86.92L167.62,93.82L169.71,113.26L170.76,113.7L173.9,147.28L174.95,150.04L176,147.95L177.05,141.52L178.1,121.84L179.14,79.51L181.24,33.83L182.29,31.01L183.33,33.94L184.38,28.82L185.43,30.36L186.48,30.38L188.57,37.11L189.62,35.24L190.67,19.35L191.71,23.71L192.76,33.72L193.81,52.36L198,120.02L199.05,128.78L200.1,132.35L201.14,131.72L202.19,126.98L203.24,111L206.38,31.38L207.43,32.88L209.52,22.04L210.57,25.98L211.62,28.28L212.67,33.69L214.76,35.97L215.81,26.54L216.86,29.99L217.9,37.89L224.19,132.54L225.24,137.33L226.29,136.92L227.33,127.87L228.38,112.54L229.43,77.5L231.52,34.29L232.57,34.09L234.67,29.26L235.71,30.09L236.76,30.94L237.81,37.46L238.86,40.57L239.9,38.5L240.95,23.43L242,27.48L243.05,36.25L244.1,58.61L249.33,128.73L250.38,134.52L251.43,134.11L252.48,125.83L253.52,111.77L254.57,76.35L256.67,31.57L257.71,33.38L258.76,31.01L259.81,26.38L261.9,28.6L262.95,32.89L264,38.77L265.05,40.18L266.1,26.27L267.14,25.83L268.19,34.15L269.24,51.35L273.43,116.19L274.48,127.36L275.52,133.74L276.57,134.35L277.62,129.02L278.67,116.54L280.76,50.31L281.81,39.8L282.86,37.34L283.9,39.43L284.95,39.4L286,44.41L288.1,56.24L289.14,57.88L290.19,59.13L291.24,44.96L292.29,45.29L293.33,53.77L296.48,98.09L297.52,113.98L299.62,137.74L300.67,142.56L302.76,150.21L303.81,151.32L304.86,148.2L305.9,134.44L308,97.67L309.05,90.67L310.1,87.86L311.14,94.17L313.24,115.24L314.29,114.09L315.33,106.72L316.38,86.13L317.43,82.67L318.48,91.5L320.57,124.05L321.62,127.5L325.81,163.6L326.86,166.71L328.95,171.26L330,174.77L331.05,166.73L332.1,150.39L334.19,122.91L335.24,115.19L336.29,115.68L337.33,123.22L339.43,135.09L340.48,127.18L342.57,93.84L343.62,99.64L345.71,121.49L346.76,117.53L349.9,145.9L350.95,150.18L352,149.37L353.05,142.81L354.1,123.44L355.14,81.3L356.19,47.71L357.24,39.93L360.38,32.83L361.43,38.28L362.48,39.46L363.52,45.65L364.57,50.71L365.62,49.81L366.67,34.71L367.71,31.28L368.76,36.71L369.81,52.31L374,110.53L375.05,117.2L377.14,126.96L378.19,123.39L379.24,108.22L380.29,71.41L382.38,30.26L383.43,26.69L385.52,23.15L386.57,23.91L388.67,28.16L389.71,31.6L390.76,35.05L391.81,21.08L392.86,19.75L393.9,25.9L398.1,92.61L399.14,104.23L401.24,117.97L402.29,119.91L403.33,118.51L404.38,102.5L406.48,35.41L407.52,26.61L409.62,20.04L410.67,19.59L411.71,21.54L412.76,25.71L415.9,35.83L416.95,22.28L418,23.95L419.05,31L423.24,93.23L424.29,105.32L426.38,121.62L427.43,121.7L428.48,118.9L429.52,106.27L431.62,42.41L432.67,32.35L435.81,25.01L436.86,28.03L437.9,29.58L438.95,33.57L441.05,37.2L442.1,28.89L443.14,28.5L444.19,35.79L448.38,98.58L449.43,110.11L451.52,123.27L452.57,126.95L453.62,123.23L454.67,108.64L456.76,46.29L457.81,34.86L459.9,25.05L460.95,26.03L462,28.12L463.05,35.16L465.14,46.23L466.19,48.09L467.24,33.63L468.29,31.97L469.33,39.29L470.38,60.37L474.57,112.22L475.62,123.33L477.71,134.23L478.76,135.48L479.81,136.72L480.86,133.81L485.05,76.49L486.1,74.23L487.14,77.7L488.19,88.49L490.29,97.36L491.33,96.7L492.38,81.48L493.43,78.3L501.81,164.06L502.86,165.92L503.9,164.84L504.95,167.14L506,170.84L507.05,160.41L511.24,109.67L512.29,109.7L514.38,126.53L515.43,129.6L516.48,126.72L517.52,108.93L518.57,100.95L519.62,105L521.71,123.06L522.76,121.54L525.9,154.45L526.95,156.65L528,153.63" style="vector-effect: non-scaling-stroke; fill: none; stroke: rgb(184, 247, 255); stroke-opacity: 1; stroke-width: 0.5px; opacity: 1;"/></g><g class="points"/><g class="text"/></g><g class="trace scatter trace63989e" style="stroke-miterlimit: 2;"><g class="fills"/><g class="errorbars"/><g class="lines"><path class="js-line" d="M0,172.85L1.05,163.6L2.1,142.08L4.19,66.59L5.24,53.54L6.29,52.15L7.33,46.24L8.38,41.93L9.43,44.35L10.48,44.51L11.52,46.8L12.57,49.58L13.62,45.69L14.67,34.08L15.71,37.53L19.9,91.43L20.95,109.22L23.05,136.56L24.1,139.34L25.14,136.56L26.19,128.38L27.24,113.62L28.29,76.62L30.38,34.42L31.43,32.88L33.52,29.34L34.57,28.87L35.62,31L36.67,35.96L37.71,36.77L38.76,32.36L39.81,24.06L40.86,26.47L41.9,34.51L42.95,51.64L48.19,130.16L49.24,133.57L50.29,130.47L51.33,123.25L52.38,109.27L53.43,75.41L55.52,32.9L56.57,31.79L58.67,20.05L59.71,24.99L60.76,24.45L61.81,27.51L62.86,31.98L63.9,31.53L64.95,21L66,25.19L67.05,33.76L68.1,55.78L73.33,132.46L74.38,137.14L75.43,137.17L76.48,132.81L77.52,119.27L78.57,85.14L80.67,44.01L81.71,44.85L83.81,37.45L84.86,38.63L85.9,40.93L86.95,46.41L88,48.53L89.05,48.31L90.1,38.3L91.14,41.63L92.19,47.98L93.24,63.92L96.38,106.97L97.43,117.32L99.52,131.12L100.57,129.81L101.62,125.3L102.67,112.45L104.76,43.45L105.81,29.9L107.9,24.32L108.95,20.68L110,23.02L111.05,29.27L113.14,43.71L114.19,43.32L115.24,31.97L116.29,36L117.33,42.83L118.38,64.95L123.62,139.47L124.67,146.98L126.76,155.01L127.81,153.75L128.86,148.34L129.9,134.02L133.05,88.59L134.1,79.91L135.14,80.41L136.19,87.53L138.29,95.49L139.33,89.57L140.38,76.54L141.43,76.72L143.52,105.15L144.57,119.12L145.62,123.95L146.67,135.97L148.76,163.6L149.81,169.31L151.9,171.21L152.95,175.07L154,178.66L155.05,168.95L159.24,100.66L160.29,99.19L162.38,108.98L163.43,110.43L164.48,106.26L165.52,92.91L166.57,86.92L167.62,93.82L169.71,113.26L170.76,113.7L173.9,147.28L174.95,150.04L176,147.95L177.05,141.52L178.1,121.84L179.14,79.51L181.24,33.83L182.29,31.01L183.33,33.94L184.38,28.82L185.43,30.36L186.48,30.38L188.57,37.11L189.62,35.24L190.67,19.35L191.71,23.71L192.76,33.72L193.81,52.36L198,120.02L199.05,128.78L200.1,132.35L201.14,131.72L202.19,126.98L203.24,111L206.38,31.38L207.43,32.88L209.52,22.04L210.57,25.98L211.62,28.28L212.67,33.69L214.76,35.97L215.81,26.54L216.86,29.99L217.9,37.89L224.19,132.54L225.24,137.33L226.29,136.92L227.33,127.87L228.38,112.54L229.43,77.5L231.52,34.29L232.57,34.09L234.67,29.26L235.71,30.09L236.76,30.94L237.81,37.46L238.86,40.57L239.9,38.5L240.95,23.43L242,27.48L243.05,36.25L244.1,58.61L249.33,128.73L250.38,134.52L251.43,134.11L252.48,125.83L253.52,111.77L254.57,76.35L256.67,31.57L257.71,33.38L258.76,31.01L259.81,26.38L261.9,28.6L262.95,32.89L264,38.77L265.05,40.18L266.1,26.27L267.14,25.83L268.19,34.15L269.24,51.35L273.43,116.19L274.48,127.36L275.52,133.74L276.57,134.35L277.62,129.02L278.67,116.54L280.76,50.31L281.81,39.8L282.86,37.34L283.9,39.43L284.95,39.4L286,44.41L288.1,56.24L289.14,57.88L290.19,59.13L291.24,44.96L292.29,45.29L293.33,53.77L296.48,98.09L297.52,113.98L299.62,137.74L300.67,142.56L302.76,150.21L303.81,151.32L304.86,148.2L305.9,134.44L308,97.67L309.05,90.67L310.1,87.86L311.14,94.17L313.24,115.24L314.29,114.09L315.33,106.72L316.38,86.13L317.43,82.67L318.48,91.5L320.57,124.05L321.62,127.5L325.81,163.6L326.86,166.71L328.95,171.26L330,174.77L331.05,166.73L332.1,150.39L334.19,122.91L335.24,115.19L336.29,115.68L337.33,123.22L339.43,135.09L340.48,127.18L342.57,93.84L343.62,99.64L345.71,121.49L346.76,117.53L349.9,145.9L350.95,150.18L352,149.37L353.05,142.81L354.1,123.44L355.14,81.3L356.19,47.71L357.24,39.93L360.38,32.83L361.43,38.28L362.48,39.46L363.52,45.65L364.57,50.71L365.62,49.81L366.67,34.71L367.71,31.28L368.76,36.71L369.81,52.31L374,110.53L375.05,117.2L377.14,126.96L378.19,123.39L379.24,108.22L380.29,71.41L382.38,30.26L383.43,26.69L385.52,23.15L386.57,23.91L388.67,28.16L389.71,31.6L390.76,35.05L391.81,21.08L392.86,19.75L393.9,25.9L398.1,92.61L399.14,104.23L401.24,117.97L402.29,119.91L403.33,118.51L404.38,102.5L406.48,35.41L407.52,26.61L409.62,20.04L410.67,19.59L411.71,21.54L412.76,25.71L415.9,35.83L416.95,22.28L418,23.95L419.05,31L423.24,93.23L424.29,105.32L426.38,121.62L427.43,121.7L428.48,118.9L429.52,106.27L431.62,42.41L432.67,32.35L435.81,25.01L436.86,28.03L437.9,29.58L438.95,33.57L441.05,37.2L442.1,28.89L443.14,28.5L444.19,35.79L448.38,98.58L449.43,110.11L451.52,123.27L452.57,126.95L453.62,123.23L454.67,108.64L456.76,46.29L457.81,34.86L459.9,25.05L460.95,26.03L462,28.12L463.05,35.16L465.14,46.23L466.19,48.09L467.24,33.63L468.29,31.97L469.33,39.29L470.38,60.37L474.57,112.22L475.62,123.33L477.71,134.23L478.76,135.48L479.81,136.72L480.86,133.81L485.05,76.49L486.1,74.23L487.14,77.7L488.19,88.49L490.29,97.36L491.33,96.7L492.38,81.48L493.43,78.3L501.81,164.06L502.86,165.92L503.9,164.84L504.95,167.14L506,170.84L507.05,160.41L511.24,109.67L512.29,109.7L514.38,126.53L515.43,129.6L516.48,126.72L517.52,108.93L518.57,100.95L519.62,105L521.71,123.06L522.76,121.54L525.9,154.45L526.95,156.65L528,153.63" style="vector-effect: non-scaling-stroke; fill: none; stroke: rgb(199, 255, 255); stroke-opacity: 1; stroke-width: 0.5px; opacity: 1;"/></g><g class="points"/><g class="text"/></g></g></g><g class="overplot"/><path class="xlines-above crisp" d="M0,0" style="fill: none;"/><path class="ylines-above crisp" d="M0,0" style="fill: none;"/><g class="overlines-above"/><g class="xaxislayer-above"><g class="xtick"><text text-anchor="middle" x="0" y="460" transform="translate(68,0)" style="font-family: 'Open Sans', verdana, arial, sans-serif; font-size: 12px; fill: rgb(42, 63, 95); fill-opacity: 1; white-space: pre;">0</text></g><g class="xtick"><text text-anchor="middle" x="0" y="460" transform="translate(172.76,0)" style="font-family: 'Open Sans', verdana, arial, sans-serif; font-size: 12px; fill: rgb(42, 63, 95); fill-opacity: 1; white-space: pre;">100</text></g><g class="xtick"><text text-anchor="middle" x="0" y="460" transform="translate(277.52,0)" style="font-family: 'Open Sans', verdana, arial, sans-serif; font-size: 12px; fill: rgb(42, 63, 95); fill-opacity: 1; white-space: pre;">200</text></g><g class="xtick"><text text-anchor="middle" x="0" y="460" transform="translate(382.29,0)" style="font-family: 'Open Sans', verdana, arial, sans-serif; font-size: 12px; fill: rgb(42, 63, 95); fill-opacity: 1; white-space: pre;">300</text></g><g class="xtick"><text text-anchor="middle" x="0" y="460" transform="translate(487.05,0)" style="font-family: 'Open Sans', verdana, arial, sans-serif; font-size: 12px; fill: rgb(42, 63, 95); fill-opacity: 1; white-space: pre;">400</text></g><g class="xtick"><text text-anchor="middle" x="0" y="460" transform="translate(591.81,0)" style="font-family: 'Open Sans', verdana, arial, sans-serif; font-size: 12px; fill: rgb(42, 63, 95); fill-opacity: 1; white-space: pre;">500</text></g></g><g class="yaxislayer-above"><g class="ytick"><text text-anchor="end" x="67" y="4.199999999999999" transform="translate(0,447)" style="font-family: 'Open Sans', verdana, arial, sans-serif; font-size: 12px; fill: rgb(42, 63, 95); fill-opacity: 1; white-space: pre;">0</text></g><g class="ytick"><text text-anchor="end" x="67" y="4.199999999999999" transform="translate(0,372.61)" style="font-family: 'Open Sans', verdana, arial, sans-serif; font-size: 12px; fill: rgb(42, 63, 95); fill-opacity: 1; white-space: pre;">20k</text></g><g class="ytick"><text text-anchor="end" x="67" y="4.199999999999999" transform="translate(0,298.21000000000004)" style="font-family: 'Open Sans', verdana, arial, sans-serif; font-size: 12px; fill: rgb(42, 63, 95); fill-opacity: 1; white-space: pre;">40k</text></g><g class="ytick"><text text-anchor="end" x="67" y="4.199999999999999" transform="translate(0,223.82)" style="font-family: 'Open Sans', verdana, arial, sans-serif; font-size: 12px; fill: rgb(42, 63, 95); fill-opacity: 1; white-space: pre;">60k</text></g><g class="ytick"><text text-anchor="end" x="67" y="4.199999999999999" transform="translate(0,149.43)" style="font-family: 'Open Sans', verdana, arial, sans-serif; font-size: 12px; fill: rgb(42, 63, 95); fill-opacity: 1; white-space: pre;">80k</text></g><g class="ytick"><text text-anchor="end" x="67" y="4.199999999999999" transform="translate(0,75.03)" style="font-family: 'Open Sans', verdana, arial, sans-serif; font-size: 12px; fill: rgb(42, 63, 95); fill-opacity: 1; white-space: pre;">100k</text></g></g><g class="overaxes-above"/></g></g><g class="polarlayer"/><g class="ternarylayer"/><g class="geolayer"/><g class="funnelarealayer"/><g class="pielayer"/><g class="treemaplayer"/><g class="sunburstlayer"/><g class="glimages"/><defs id="topdefs-b22e59"><g class="clips"/><clipPath id="legendb22e59"><rect width="81" height="86" x="0" y="0"/></clipPath></defs><g class="layer-above"><g class="imagelayer"/><g class="shapelayer"/></g><g class="infolayer"><g class="legend" pointer-events="all" transform="translate(606.5600000000001,60)"><rect class="bg" shape-rendering="crispEdges" width="81" height="86" x="0" y="0" style="stroke: rgb(68, 68, 68); stroke-opacity: 1; fill: rgb(255, 255, 255); fill-opacity: 1; stroke-width: 0px;"/><g class="scrollbox" transform="" clip-path="url('#legendb22e59')"><g class="groups"><g class="traces" transform="translate(0,14.5)" style="opacity: 1;"><text class="legendtext" text-anchor="start" x="40" y="4.680000000000001" style="font-family: 'Open Sans', verdana, arial, sans-serif; font-size: 12px; fill: rgb(42, 63, 95); fill-opacity: 1; white-space: pre;">Hydro</text><g class="layers"><g class="legendfill"><path class="js-fill" d="M5,-2h30v6h-30z" style="stroke-width: 0; fill: rgb(199, 255, 255); fill-opacity: 0.5;"/></g><g class="legendlines"><path class="js-line" d="M5,-2h30" style="fill: none; stroke: rgb(199, 255, 255); stroke-opacity: 1; stroke-width: 0.5px;"/></g><g class="legendsymbols"><g class="legendpoints"/></g></g><rect class="legendtoggle" x="0" y="-9.5" width="75.953125" height="19" style="fill: rgb(0, 0, 0); fill-opacity: 0;"/></g><g class="traces" transform="translate(0,33.5)" style="opacity: 1;"><text class="legendtext" text-anchor="start" x="40" y="4.680000000000001" style="font-family: 'Open Sans', verdana, arial, sans-serif; font-size: 12px; fill: rgb(42, 63, 95); fill-opacity: 1; white-space: pre;">Gas</text><g class="layers"><g class="legendfill"><path class="js-fill" d="M5,-2h30v6h-30z" style="stroke-width: 0; fill: rgb(184, 247, 255); fill-opacity: 0.5;"/></g><g class="legendlines"><path class="js-line" d="M5,-2h30" style="fill: none; stroke: rgb(184, 247, 255); stroke-opacity: 1; stroke-width: 0.5px;"/></g><g class="legendsymbols"><g class="legendpoints"/></g></g><rect class="legendtoggle" x="0" y="-9.5" width="75.953125" height="19" style="fill: rgb(0, 0, 0); fill-opacity: 0;"/></g><g class="traces" transform="translate(0,52.5)" style="opacity: 1;"><text class="legendtext" text-anchor="start" x="40" y="4.680000000000001" style="font-family: 'Open Sans', verdana, arial, sans-serif; font-size: 12px; fill: rgb(42, 63, 95); fill-opacity: 1; white-space: pre;">PV</text><g class="layers"><g class="legendfill"><path class="js-fill" d="M5,-2h30v6h-30z" style="stroke-width: 0; fill: rgb(111, 231, 219); fill-opacity: 0.5;"/></g><g class="legendlines"><path class="js-line" d="M5,-2h30" style="fill: none; stroke: rgb(111, 231, 219); stroke-opacity: 1; stroke-width: 0.5px;"/></g><g class="legendsymbols"><g class="legendpoints"/></g></g><rect class="legendtoggle" x="0" y="-9.5" width="75.953125" height="19" style="fill: rgb(0, 0, 0); fill-opacity: 0;"/></g><g class="traces" transform="translate(0,71.5)" style="opacity: 1;"><text class="legendtext" text-anchor="start" x="40" y="4.680000000000001" style="font-family: 'Open Sans', verdana, arial, sans-serif; font-size: 12px; fill: rgb(42, 63, 95); fill-opacity: 1; white-space: pre;">Wind</text><g class="layers"><g class="legendfill"><path class="js-fill" d="M5,-2h30v6h-30z" style="stroke-width: 0; fill: rgb(131, 90, 241); fill-opacity: 0.5;"/></g><g class="legendlines"><path class="js-line" d="M5,-2h30" style="fill: none; stroke: rgb(131, 90, 241); stroke-opacity: 1; stroke-width: 0.5px;"/></g><g class="legendsymbols"><g class="legendpoints"/></g></g><rect class="legendtoggle" x="0" y="-9.5" width="75.953125" height="19" style="fill: rgb(0, 0, 0); fill-opacity: 0;"/></g></g></g><rect class="scrollbar" rx="20" ry="3" width="0" height="0" x="0" y="0" style="fill: rgb(128, 139, 164); fill-opacity: 1;"/></g><g class="g-gtitle"><text class="gtitle" x="35" y="30" text-anchor="start" dy="0em" style="font-family: 'Open Sans', verdana, arial, sans-serif; font-size: 17px; fill: rgb(42, 63, 95); opacity: 1; font-weight: normal; white-space: pre;">Energy production in Germany between hour 147 and 651</text></g><g class="g-xtitle"><text class="xtitle" x="332" y="487.8" text-anchor="middle" style="font-family: 'Open Sans', verdana, arial, sans-serif; font-size: 14px; fill: rgb(42, 63, 95); opacity: 1; font-weight: normal; white-space: pre;">Hours</text></g><g class="g-ytitle" transform="translate(1.7998046875,0)"><text class="ytitle" transform="rotate(-90,12.200000000000003,253.5)" x="12.200000000000003" y="253.5" text-anchor="middle" style="font-family: 'Open Sans', verdana, arial, sans-serif; font-size: 14px; fill: rgb(42, 63, 95); opacity: 1; font-weight: normal; white-space: pre;">MWh</text></g></g></svg>