<svg class="main-svg" xmlns="http://www.w3.org/2000/svg" xmlns:xlink="http://www.w3.org/1999/xlink" width="700" height="500" style="" viewBox="0 0 700 500"><rect x="0" y="0" width="700" height="500" style="fill: rgb(255, 255, 255); fill-opacity: 1;"/><defs id="defs-49e21a"><g class="clips"><clipPath id="clip49e21axyplot" class="plotclip"><rect width="521" height="388"/></clipPath><clipPath class="axesclip" id="clip49e21ax"><rect x="68" y="0" width="521" height="500"/></clipPath><clipPath class="axesclip" id="clip49e21ay"><rect x="0" y="60" width="700" height="388"/></clipPath><clipPath class="axesclip" id="clip49e21axy"><rect x="68" y="60" width="521" height="388"/></clipPath></g><g class="gradients"/></defs><g class="bglayer"><rect class="bg" x="68" y="60" width="521" height="388" style="fill: rgb(229, 236, 246); fill-opacity: 1; stroke-width: 0;"/></g><g class="layer-below"><g class="imagelayer"/><g class="shapelayer"/></g><g class="cartesianlayer"><g class="subplot xy"><g class="layer-subplot"><g class="shapelayer"/><g class="imagelayer"/></g><g class="gridlayer"><g class="x"><path class="xgrid crisp" transform="translate(171.37,0)" d="M0,60v388" style="stroke: rgb(255, 255, 255); stroke-opacity: 1; stroke-width: 1px;"/><path class="xgrid crisp" transform="translate(274.75,0)" d="M0,60v388" style="stroke: rgb(255, 255, 255); stroke-opacity: 1; stroke-width: 1px;"/><path class="xgrid crisp" transform="translate(378.12,0)" d="M0,60v388" style="stroke: rgb(255, 255, 255); stroke-opacity: 1; stroke-width: 1px;"/><path class="xgrid crisp" transform="translate(481.49,0)" d="M0,60v388" style="stroke: rgb(255, 255, 255); stroke-opacity: 1; stroke-width: 1px;"/><path class="xgrid crisp" transform="translate(584.87,0)" d="M0,60v388" style="stroke: rgb(255, 255, 255); stroke-opacity: 1; stroke-width: 1px;"/></g><g class="y"><path class="ygrid crisp" transform="translate(0,387.22)" d="M68,0h521" style="stroke: rgb(255, 255, 255); stroke-opacity: 1; stroke-width: 1px;"/><path class="ygrid crisp" transform="translate(0,326.44)" d="M68,0h521" style="stroke: rgb(255, 255, 255); stroke-opacity: 1; stroke-width: 1px;"/><path class="ygrid crisp" transform="translate(0,265.65999999999997)" d="M68,0h521" style="stroke: rgb(255, 255, 255); stroke-opacity: 1; stroke-width: 1px;"/><path class="ygrid crisp" transform="translate(0,204.87)" d="M68,0h521" style="stroke: rgb(255, 255, 255); stroke-opacity: 1; stroke-width: 1px;"/><path class="ygrid crisp" transform="translate(0,144.09)" d="M68,0h521" style="stroke: rgb(255, 255, 255); stroke-opacity: 1; stroke-width: 1px;"/><path class="ygrid crisp" transform="translate(0,83.31)" d="M68,0h521" style="stroke: rgb(255, 255, 255); stroke-opacity: 1; stroke-width: 1px;"/></g></g><g class="zerolinelayer"><path class="xzl zl crisp" transform="translate(68,0)" d="M0,60v388" style="stroke: rgb(255, 255, 255); stroke-opacity: 1; stroke-width: 2px;"/><path class="yzl zl crisp" transform="translate(0,448)" d="M68,0h521" style="stroke: rgb(255, 255, 255); stroke-opacity: 1; stroke-width: 2px;"/></g><path class="xlines-below"/><path class="ylines-below"/><g class="overlines-below"/><g class="xaxislayer-below"/><g class="yaxislayer-below"/><g class="overaxes-below"/><g class="plot" transform="translate(68,60)" clip-path="url('#clip49e21axyplot')"><g class="scatterlayer mlayer"><g class="trace scatter trace7351fd" style="stroke-miterlimit: 2;"><g class="fills"><g><path class="js-fill" d="M521,388L0,388L0,365.16L1.03,366.03L2.07,368.18L4.13,370.95L5.17,368.96L6.2,361.26L7.24,347.15L10.34,294.33L11.37,283.71L14.47,255.07L15.51,244.81L18.61,200.06L19.64,190.35L20.67,191.35L21.71,303.05L23.78,307.06L24.81,306.15L25.84,203.28L26.88,298.66L28.94,276.77L29.98,272.77L32.05,271.67L33.08,309.9L34.11,245.33L35.15,271.66L37.21,273.54L38.25,272.1L39.28,269.39L40.32,270.18L41.35,272.8L42.38,214.13L43.42,284.23L44.45,289.59L47.55,304.06L48.59,305.18L49.62,304.16L50.65,301.8L51.69,297.23L52.72,286.17L53.75,214.33L54.79,214.68L55.82,217.04L56.86,221.31L59.96,236.63L60.99,270.52L62.02,249.23L63.06,256.32L65.13,267.87L66.16,279.14L71.33,341.61L72.36,350.6L77.53,373.93L78.56,376.67L80.63,381.41L81.66,382.55L82.7,382.73L83.73,381.37L88.9,365.59L89.93,361.72L93.04,353.54L94.07,347.67L95.1,342.62L96.14,332.51L99.24,293.12L100.27,279.18L101.31,276.62L102.34,278.7L104.41,278.51L105.44,274.74L108.54,256.97L109.58,258.53L110.61,306.34L111.64,258.11L114.74,281.92L115.78,292.88L119.91,325.09L120.95,329.58L121.98,328.33L123.01,324.61L124.05,321.79L125.08,314.98L126.12,304.19L127.15,310L128.18,284.3L129.22,299.14L130.25,261.13L131.28,257.7L132.32,287.64L133.35,350.23L134.38,247.63L135.42,245.01L136.45,239.89L137.49,228.64L138.52,286.54L139.55,286.6L141.62,295.89L142.65,300.46L143.69,302.03L144.72,291.72L145.76,311.31L146.79,304.06L147.82,298.37L148.86,317.31L149.89,282.31L150.92,318.74L151.96,319.91L152.99,316.74L157.13,294.42L158.16,293.94L159.19,193.23L160.23,297.14L161.26,300.05L162.3,296.25L164.36,289.93L165.4,292.19L166.43,199.62L167.46,298.54L168.5,298.68L169.53,302.41L171.6,309.66L172.63,310.56L173.67,309.88L174.7,307.78L175.73,301.34L176.77,287.51L178.84,272.58L179.87,271.66L180.9,272.62L181.94,270.94L184,271.45L185.04,273.07L186.07,273.65L187.11,273.04L188.14,267.85L189.17,269.27L190.21,272.54L191.24,278.64L195.38,300.75L196.41,303.61L197.44,304.78L198.48,304.57L199.51,303.02L200.54,297.8L203.64,271.78L204.68,324.63L205.71,270.57L206.75,388L208.81,388L209.85,272.53L211.91,273.28L212.95,270.2L213.98,271.33L215.02,273.91L221.22,304.84L222.25,306.41L223.29,306.27L224.32,303.31L225.35,298.3L226.39,259.25L227.42,276.11L228.45,272.73L229.49,272.67L230.52,271.85L231.56,388L232.59,388L233.62,388L234.66,216.54L235.69,274.78L236.72,274.11L237.76,269.18L238.79,270.51L239.83,273.37L240.86,228.4L241.89,285.93L242.93,290.42L244.99,300.99L246.03,303.6L247.06,305.49L248.1,305.35L250.16,298.05L251.2,286.48L253.26,271.84L254.3,272.43L255.33,372.31L256.37,388L257.4,266.69L258.43,242.38L259.47,272.28L260.5,235.03L261.53,236.1L262.57,253.34L263.6,274.06L264.63,279.53L265.67,277.96L266.7,284.28L270.84,334.08L271.87,339.75L276.01,354.06L277.04,356.23L279.11,355.57L280.14,357.94L284.28,377.48L285.31,378.68L286.34,378.88L287.38,378.15L290.48,373.45L291.51,371.5L293.58,364.48L294.61,360.06L296.68,355.66L297.71,355.29L299.78,355.62L300.82,354.32L303.92,348.83L304.95,348.55L305.98,348.92L307.02,350.28L312.19,367.96L313.22,368.96L316.32,370.39L317.36,371.26L319.42,374.46L320.46,376.51L324.59,383.65L325.63,384.48L327.69,384.5L328.73,383.91L331.83,381.52L332.86,380.3L338.03,375.9L339.06,373.65L343.2,360.06L344.23,355.9L347.33,346.78L348.37,346.97L350.43,350.65L351.47,350.93L353.54,351.79L354.57,350.74L357.67,344.41L358.7,343.71L360.77,348.44L361.81,353.16L364.91,366.25L365.94,365.62L368.01,355.22L369.04,347.3L373.18,317.24L374.21,311.77L378.35,288.51L379.38,286.86L380.41,287.35L381.45,290.61L385.58,315.53L386.62,317.89L388.68,321.48L389.72,325.44L396.95,352.81L397.99,354.3L402.12,357.8L403.15,360.23L406.26,370.93L407.29,372.27L408.32,372.11L409.36,370.67L412.46,363.62L413.49,363.67L415.56,367.28L416.59,369.51L420.73,377.3L421.76,379.71L423.83,382.25L424.86,381.02L427.96,371.06L429,370.85L433.13,377.13L434.17,377.58L437.27,377.3L438.3,376.58L439.34,376.4L440.37,377.28L443.47,381.15L444.5,381.61L446.57,380.12L447.61,378.37L449.67,371.68L450.71,366.01L452.77,349.47L453.81,333.17L455.88,316.86L456.91,313.65L457.94,315.18L458.98,318.22L463.11,344.68L464.14,342.55L466.21,333.76L467.25,331L468.28,327.76L469.31,328.85L471.38,348.96L472.41,357.15L475.52,368.07L476.55,370.41L478.62,376.45L479.65,376.82L481.72,366.01L482.75,358.02L485.85,332.47L486.89,328.07L487.92,321.22L488.95,320.26L489.99,315.07L491.02,304.65L492.06,292.77L493.09,290.5L495.16,287.24L496.19,295.64L499.29,331.11L500.33,336.08L501.36,339.14L502.39,339.84L504.46,344.61L505.49,347.69L507.56,351.92L508.6,356.99L511.7,367.08L512.73,370.12L513.76,371.28L514.8,370.1L516.87,365.66L517.9,359.86L521,338.9" style="fill: rgb(248, 3, 252); fill-opacity: 0.5; stroke-width: 0;"/></g><g><path class="js-fill" d="M0,365.16L1.03,366.03L2.07,368.18L4.13,370.95L5.17,366.88L7.24,290.97L8.27,246.52L9.3,217.44L10.34,216.5L11.37,228.1L12.4,275.68L16.54,228.07L17.57,210.37L19.64,190.35L20.67,191.35L21.71,303.05L22.74,306.16L23.78,307.06L24.81,306.15L25.84,203.28L26.88,298.66L28.94,276.77L29.98,272.77L33.08,271.11L34.11,245.33L35.15,271.66L36.18,273.28L37.21,273.54L38.25,272.1L39.28,269.39L40.32,270.18L41.35,272.8L42.38,214.13L43.42,284.23L44.45,289.59L47.55,304.06L48.59,305.18L49.62,304.16L50.65,301.8L51.69,297.23L52.72,286.17L53.75,214.33L54.79,214.68L56.86,186.38L57.89,226.56L59.96,236.63L60.99,270.52L62.02,242.88L63.06,256.32L65.13,267.87L66.16,279.14L71.33,341.61L72.36,350.6L77.53,373.93L78.56,376.67L79.6,376.62L80.63,350.71L82.7,301.03L83.73,295.46L84.77,295.84L85.8,312.78L87.87,369.88L88.9,365.59L90.97,359.31L92,357.63L95.1,342.62L96.14,332.51L99.24,293.12L100.27,279.18L101.31,276.62L102.34,278.7L103.37,278.66L104.41,272.05L107.51,177.94L108.54,179.91L109.58,258.53L110.61,274.46L111.64,258.11L112.68,264.9L119.91,325.09L120.95,329.58L121.98,328.33L123.01,324.61L124.05,321.79L125.08,314.98L126.12,304.19L127.15,310L128.18,284.3L129.22,299.14L130.25,261.13L131.28,257.7L132.32,287.64L133.35,287.8L135.42,202.96L136.45,239.89L137.49,228.64L138.52,286.54L139.55,286.6L140.59,290.05L142.65,300.46L143.69,302.03L144.72,291.72L145.76,311.31L147.82,298.37L148.86,317.31L149.89,282.31L150.92,318.74L151.96,319.91L152.99,316.74L157.13,294.42L158.16,293.94L159.19,175.9L160.23,297.14L161.26,297.61L162.3,296.25L164.36,289.93L165.4,292.19L166.43,199.62L167.46,298.54L168.5,298.68L169.53,302.41L171.6,309.66L172.63,310.56L173.67,309.88L174.7,307.78L175.73,301.34L176.77,287.51L178.84,272.58L179.87,271.66L180.9,272.62L181.94,270.94L184,271.45L185.04,273.07L186.07,273.65L187.11,273.04L188.14,267.85L189.17,269.27L190.21,272.54L191.24,278.64L195.38,300.75L196.41,303.61L197.44,304.78L198.48,304.57L199.51,303.02L200.54,297.8L203.64,271.78L204.68,272.27L206.75,268.73L207.78,270.02L208.81,270.77L209.85,272.53L211.91,273.28L212.95,270.2L213.98,271.33L215.02,273.91L221.22,304.84L222.25,306.41L223.29,306.27L224.32,303.31L225.35,298.3L226.39,259.25L227.42,276.11L228.45,272.73L229.49,272.67L230.52,271.85L231.56,271.09L232.59,271.36L233.62,271.64L234.66,216.54L235.69,274.78L236.72,274.11L237.76,269.18L238.79,270.51L239.83,273.37L240.86,228.4L241.89,285.93L242.93,290.42L244.99,300.99L246.03,303.6L247.06,305.49L248.1,305.35L250.16,298.05L251.2,286.48L253.26,271.84L254.3,272.43L255.33,271.66L256.37,269.15L257.4,137.11L258.43,118.29L259.47,272.28L260.5,235.03L261.53,233.86L262.57,253.34L263.6,274.06L264.63,279.53L265.67,277.96L266.7,284.28L270.84,334.08L271.87,339.75L276.01,354.06L277.04,356.23L278.07,343.84L279.11,289.84L281.17,169.58L282.21,167.33L283.24,185.02L284.28,230.41L286.34,373.59L287.38,378.15L290.48,373.45L291.51,371.5L293.58,364.48L294.61,360.06L296.68,355.66L297.71,355.29L299.78,355.62L300.82,354.32L301.85,352.37L302.88,315.75L305.98,110.45L307.02,94.52L308.05,114.31L309.09,169.43L311.15,353.48L312.19,367.96L314.25,369.27L315.29,369.53L318.39,372.51L319.42,374.46L324.59,383.65L325.63,384.48L326.66,384.7L327.69,356.39L330.79,161.97L331.83,149.1L332.86,168.62L333.89,219.52L335.96,371.19L337,377.52L339.06,373.65L340.1,370.74L347.33,346.78L348.37,346.97L350.43,350.65L351.47,350.58L352.5,318.38L353.54,235.93L355.6,92.73L356.64,73.85L357.67,94.81L358.7,150.39L360.77,334.81L361.81,353.16L364.91,366.25L365.94,365.62L368.01,355.22L369.04,347.3L373.18,317.24L374.21,311.77L376.28,299.47L377.31,265.9L381.45,19.4L382.48,40.43L384.55,202.02L385.58,300.23L386.62,317.89L387.65,319.49L388.68,321.48L389.72,325.44L396.95,352.81L397.99,354.3L401.09,356.49L402.12,338.94L405.22,229.94L406.26,230.42L408.32,300.39L409.36,340.32L410.39,365.25L411.42,365.13L412.46,363.62L413.49,363.67L415.56,367.28L416.59,369.51L420.73,377.3L421.76,379.71L423.83,382.25L424.86,381.02L425.9,378.11L426.93,355.89L430.03,230.53L431.07,231.95L433.13,295.08L434.17,343.63L435.2,375.02L436.23,377.74L439.34,376.4L440.37,377.28L443.47,381.15L444.5,381.61L446.57,380.12L447.61,378.37L449.67,371.68L450.71,366.01L451.74,341.23L452.77,283.94L454.84,192.28L455.88,178.19L456.91,190.12L457.94,222.4L460.01,320.69L461.04,334.81L463.11,344.68L464.14,342.55L466.21,333.76L467.25,331L468.28,327.76L469.31,328.85L471.38,348.96L472.41,357.15L475.52,368.07L476.55,368.68L478.62,355.71L479.65,340.52L481.72,326.21L482.75,326.35L484.82,336.35L485.85,332.47L487.92,321.22L488.95,320.26L489.99,315.07L491.02,304.65L492.06,292.77L493.09,290.5L495.16,287.24L496.19,295.64L499.29,331.11L500.33,336.08L501.36,324.96L502.39,295.51L505.49,210.24L506.53,209.43L508.6,304.33L509.63,355.44L511.7,367.08L512.73,370.12L513.76,371.28L514.8,370.1L516.87,365.66L517.9,359.86L521,338.9L521,338.9L517.9,359.86L516.87,365.66L514.8,370.1L513.76,371.28L512.73,370.12L511.7,367.08L508.6,356.99L507.56,351.92L505.49,347.69L504.46,344.61L502.39,339.84L501.36,339.14L500.33,336.08L499.29,331.11L496.19,295.64L495.16,287.24L493.09,290.5L492.06,292.77L491.02,304.65L489.99,315.07L488.95,320.26L487.92,321.22L486.89,328.07L485.85,332.47L482.75,358.02L481.72,366.01L479.65,376.82L478.62,376.45L476.55,370.41L475.52,368.07L472.41,357.15L471.38,348.96L469.31,328.85L468.28,327.76L467.25,331L466.21,333.76L464.14,342.55L463.11,344.68L458.98,318.22L457.94,315.18L456.91,313.65L455.88,316.86L453.81,333.17L452.77,349.47L450.71,366.01L449.67,371.68L447.61,378.37L446.57,380.12L444.5,381.61L443.47,381.15L440.37,377.28L439.34,376.4L438.3,376.58L437.27,377.3L434.17,377.58L433.13,377.13L429,370.85L427.96,371.06L424.86,381.02L423.83,382.25L421.76,379.71L420.73,377.3L416.59,369.51L415.56,367.28L413.49,363.67L412.46,363.62L409.36,370.67L408.32,372.11L407.29,372.27L406.26,370.93L403.15,360.23L402.12,357.8L397.99,354.3L396.95,352.81L389.72,325.44L388.68,321.48L386.62,317.89L385.58,315.53L381.45,290.61L380.41,287.35L379.38,286.86L378.35,288.51L374.21,311.77L373.18,317.24L369.04,347.3L368.01,355.22L365.94,365.62L364.91,366.25L361.81,353.16L360.77,348.44L358.7,343.71L357.67,344.41L354.57,350.74L353.54,351.79L351.47,350.93L350.43,350.65L348.37,346.97L347.33,346.78L344.23,355.9L343.2,360.06L339.06,373.65L338.03,375.9L332.86,380.3L331.83,381.52L328.73,383.91L327.69,384.5L325.63,384.48L324.59,383.65L320.46,376.51L319.42,374.46L317.36,371.26L316.32,370.39L313.22,368.96L312.19,367.96L307.02,350.28L305.98,348.92L304.95,348.55L303.92,348.83L300.82,354.32L299.78,355.62L297.71,355.29L296.68,355.66L294.61,360.06L293.58,364.48L291.51,371.5L290.48,373.45L287.38,378.15L286.34,378.88L285.31,378.68L284.28,377.48L280.14,357.94L279.11,355.57L277.04,356.23L276.01,354.06L271.87,339.75L270.84,334.08L266.7,284.28L265.67,277.96L264.63,279.53L263.6,274.06L262.57,253.34L261.53,236.1L260.5,235.03L259.47,272.28L258.43,242.38L257.4,266.69L256.37,388L255.33,372.31L254.3,272.43L253.26,271.84L251.2,286.48L250.16,298.05L248.1,305.35L247.06,305.49L246.03,303.6L244.99,300.99L242.93,290.42L241.89,285.93L240.86,228.4L239.83,273.37L238.79,270.51L237.76,269.18L236.72,274.11L235.69,274.78L234.66,216.54L233.62,388L232.59,388L231.56,388L230.52,271.85L229.49,272.67L228.45,272.73L227.42,276.11L226.39,259.25L225.35,298.3L224.32,303.31L223.29,306.27L222.25,306.41L221.22,304.84L215.02,273.91L213.98,271.33L212.95,270.2L211.91,273.28L209.85,272.53L208.81,388L206.75,388L205.71,270.57L204.68,324.63L203.64,271.78L200.54,297.8L199.51,303.02L198.48,304.57L197.44,304.78L196.41,303.61L195.38,300.75L191.24,278.64L190.21,272.54L189.17,269.27L188.14,267.85L187.11,273.04L186.07,273.65L185.04,273.07L184,271.45L181.94,270.94L180.9,272.62L179.87,271.66L178.84,272.58L176.77,287.51L175.73,301.34L174.7,307.78L173.67,309.88L172.63,310.56L171.6,309.66L169.53,302.41L168.5,298.68L167.46,298.54L166.43,199.62L165.4,292.19L164.36,289.93L162.3,296.25L161.26,300.05L160.23,297.14L159.19,193.23L158.16,293.94L157.13,294.42L152.99,316.74L151.96,319.91L150.92,318.74L149.89,282.31L148.86,317.31L147.82,298.37L146.79,304.06L145.76,311.31L144.72,291.72L143.69,302.03L142.65,300.46L141.62,295.89L139.55,286.6L138.52,286.54L137.49,228.64L136.45,239.89L135.42,245.01L134.38,247.63L133.35,350.23L132.32,287.64L131.28,257.7L130.25,261.13L129.22,299.14L128.18,284.3L127.15,310L126.12,304.19L125.08,314.98L124.05,321.79L123.01,324.61L121.98,328.33L120.95,329.58L119.91,325.09L115.78,292.88L114.74,281.92L111.64,258.11L110.61,306.34L109.58,258.53L108.54,256.97L105.44,274.74L104.41,278.51L102.34,278.7L101.31,276.62L100.27,279.18L99.24,293.12L96.14,332.51L95.1,342.62L94.07,347.67L93.04,353.54L89.93,361.72L88.9,365.59L83.73,381.37L82.7,382.73L81.66,382.55L80.63,381.41L78.56,376.67L77.53,373.93L72.36,350.6L71.33,341.61L66.16,279.14L65.13,267.87L63.06,256.32L62.02,249.23L60.99,270.52L59.96,236.63L56.86,221.31L55.82,217.04L54.79,214.68L53.75,214.33L52.72,286.17L51.69,297.23L50.65,301.8L49.62,304.16L48.59,305.18L47.55,304.06L44.45,289.59L43.42,284.23L42.38,214.13L41.35,272.8L40.32,270.18L39.28,269.39L38.25,272.1L37.21,273.54L35.15,271.66L34.11,245.33L33.08,309.9L32.05,271.67L29.98,272.77L28.94,276.77L26.88,298.66L25.84,203.28L24.81,306.15L23.78,307.06L21.71,303.05L20.67,191.35L19.64,190.35L18.61,200.06L15.51,244.81L14.47,255.07L11.37,283.71L10.34,294.33L7.24,347.15L6.2,361.26L5.17,368.96L4.13,370.95L2.07,368.18L1.03,366.03L0,365.16Z" style="fill: rgb(245, 236, 66); fill-opacity: 0.5; stroke-width: 0;"/></g></g><g class="errorbars"/><g class="lines"><path class="js-line" d="M0,365.16L1.03,366.03L2.07,368.18L4.13,370.95L5.17,368.96L6.2,361.26L7.24,347.15L10.34,294.33L11.37,283.71L14.47,255.07L15.51,244.81L18.61,200.06L19.64,190.35L20.67,191.35L21.71,303.05L23.78,307.06L24.81,306.15L25.84,203.28L26.88,298.66L28.94,276.77L29.98,272.77L32.05,271.67L33.08,309.9L34.11,245.33L35.15,271.66L37.21,273.54L38.25,272.1L39.28,269.39L40.32,270.18L41.35,272.8L42.38,214.13L43.42,284.23L44.45,289.59L47.55,304.06L48.59,305.18L49.62,304.16L50.65,301.8L51.69,297.23L52.72,286.17L53.75,214.33L54.79,214.68L55.82,217.04L56.86,221.31L59.96,236.63L60.99,270.52L62.02,249.23L63.06,256.32L65.13,267.87L66.16,279.14L71.33,341.61L72.36,350.6L77.53,373.93L78.56,376.67L80.63,381.41L81.66,382.55L82.7,382.73L83.73,381.37L88.9,365.59L89.93,361.72L93.04,353.54L94.07,347.67L95.1,342.62L96.14,332.51L99.24,293.12L100.27,279.18L101.31,276.62L102.34,278.7L104.41,278.51L105.44,274.74L108.54,256.97L109.58,258.53L110.61,306.34L111.64,258.11L114.74,281.92L115.78,292.88L119.91,325.09L120.95,329.58L121.98,328.33L123.01,324.61L124.05,321.79L125.08,314.98L126.12,304.19L127.15,310L128.18,284.3L129.22,299.14L130.25,261.13L131.28,257.7L132.32,287.64L133.35,350.23L134.38,247.63L135.42,245.01L136.45,239.89L137.49,228.64L138.52,286.54L139.55,286.6L141.62,295.89L142.65,300.46L143.69,302.03L144.72,291.72L145.76,311.31L146.79,304.06L147.82,298.37L148.86,317.31L149.89,282.31L150.92,318.74L151.96,319.91L152.99,316.74L157.13,294.42L158.16,293.94L159.19,193.23L160.23,297.14L161.26,300.05L162.3,296.25L164.36,289.93L165.4,292.19L166.43,199.62L167.46,298.54L168.5,298.68L169.53,302.41L171.6,309.66L172.63,310.56L173.67,309.88L174.7,307.78L175.73,301.34L176.77,287.51L178.84,272.58L179.87,271.66L180.9,272.62L181.94,270.94L184,271.45L185.04,273.07L186.07,273.65L187.11,273.04L188.14,267.85L189.17,269.27L190.21,272.54L191.24,278.64L195.38,300.75L196.41,303.61L197.44,304.78L198.48,304.57L199.51,303.02L200.54,297.8L203.64,271.78L204.68,324.63L205.71,270.57L206.75,388L208.81,388L209.85,272.53L211.91,273.28L212.95,270.2L213.98,271.33L215.02,273.91L221.22,304.84L222.25,306.41L223.29,306.27L224.32,303.31L225.35,298.3L226.39,259.25L227.42,276.11L228.45,272.73L229.49,272.67L230.52,271.85L231.56,388L232.59,388L233.62,388L234.66,216.54L235.69,274.78L236.72,274.11L237.76,269.18L238.79,270.51L239.83,273.37L240.86,228.4L241.89,285.93L242.93,290.42L244.99,300.99L246.03,303.6L247.06,305.49L248.1,305.35L250.16,298.05L251.2,286.48L253.26,271.84L254.3,272.43L255.33,372.31L256.37,388L257.4,266.69L258.43,242.38L259.47,272.28L260.5,235.03L261.53,236.1L262.57,253.34L263.6,274.06L264.63,279.53L265.67,277.96L266.7,284.28L270.84,334.08L271.87,339.75L276.01,354.06L277.04,356.23L279.11,355.57L280.14,357.94L284.28,377.48L285.31,378.68L286.34,378.88L287.38,378.15L290.48,373.45L291.51,371.5L293.58,364.48L294.61,360.06L296.68,355.66L297.71,355.29L299.78,355.62L300.82,354.32L303.92,348.83L304.95,348.55L305.98,348.92L307.02,350.28L312.19,367.96L313.22,368.96L316.32,370.39L317.36,371.26L319.42,374.46L320.46,376.51L324.59,383.65L325.63,384.48L327.69,384.5L328.73,383.91L331.83,381.52L332.86,380.3L338.03,375.9L339.06,373.65L343.2,360.06L344.23,355.9L347.33,346.78L348.37,346.97L350.43,350.65L351.47,350.93L353.54,351.79L354.57,350.74L357.67,344.41L358.7,343.71L360.77,348.44L361.81,353.16L364.91,366.25L365.94,365.62L368.01,355.22L369.04,347.3L373.18,317.24L374.21,311.77L378.35,288.51L379.38,286.86L380.41,287.35L381.45,290.61L385.58,315.53L386.62,317.89L388.68,321.48L389.72,325.44L396.95,352.81L397.99,354.3L402.12,357.8L403.15,360.23L406.26,370.93L407.29,372.27L408.32,372.11L409.36,370.67L412.46,363.62L413.49,363.67L415.56,367.28L416.59,369.51L420.73,377.3L421.76,379.71L423.83,382.25L424.86,381.02L427.96,371.06L429,370.85L433.13,377.13L434.17,377.58L437.27,377.3L438.3,376.58L439.34,376.4L440.37,377.28L443.47,381.15L444.5,381.61L446.57,380.12L447.61,378.37L449.67,371.68L450.71,366.01L452.77,349.47L453.81,333.17L455.88,316.86L456.91,313.65L457.94,315.18L458.98,318.22L463.11,344.68L464.14,342.55L466.21,333.76L467.25,331L468.28,327.76L469.31,328.85L471.38,348.96L472.41,357.15L475.52,368.07L476.55,370.41L478.62,376.45L479.65,376.82L481.72,366.01L482.75,358.02L485.85,332.47L486.89,328.07L487.92,321.22L488.95,320.26L489.99,315.07L491.02,304.65L492.06,292.77L493.09,290.5L495.16,287.24L496.19,295.64L499.29,331.11L500.33,336.08L501.36,339.14L502.39,339.84L504.46,344.61L505.49,347.69L507.56,351.92L508.6,356.99L511.7,367.08L512.73,370.12L513.76,371.28L514.8,370.1L516.87,365.66L517.9,359.86L521,338.9" style="vector-effect: non-scaling-stroke; fill: none; stroke: rgb(248, 3, 252); stroke-opacity: 1; stroke-width: 0.5px; opacity: 1;"/></g><g class="points"/><g class="text"/></g><g class="trace scatter trace33ecde" style="stroke-miterlimit: 2;"><g class="fills"><g><path class="js-fill" d="M0,365.16L1.03,366.03L2.07,368.18L4.13,370.95L5.17,320.99L7.24,286.05L8.27,246.52L9.3,217.44L10.34,216.5L11.37,228.1L12.4,275.68L16.54,228.07L17.57,210.37L19.64,190.35L20.67,191.35L21.71,303.05L22.74,306.16L23.78,307.06L24.81,306.15L25.84,203.28L26.88,298.66L28.94,276.77L29.98,272.77L33.08,271.11L34.11,245.33L35.15,271.66L36.18,273.28L37.21,273.54L38.25,272.1L39.28,269.39L40.32,270.18L41.35,272.8L42.38,214.13L43.42,284.23L44.45,289.59L47.55,304.06L48.59,305.18L49.62,304.16L50.65,301.8L51.69,297.23L52.72,286.17L53.75,214.33L54.79,214.68L56.86,186.38L57.89,226.56L59.96,236.63L60.99,270.52L62.02,242.88L63.06,256.32L65.13,267.87L66.16,279.14L67.19,279.75L68.23,303.28L69.26,318.86L70.29,297.27L71.33,341.61L72.36,350.6L73.39,309.96L74.43,361.72L75.46,366.1L76.5,352.35L77.53,373.93L78.56,376.67L79.6,330.73L80.63,350.71L82.7,301.03L83.73,295.46L84.77,274.9L85.8,276.69L86.83,302.37L87.87,369.88L90.97,359.31L92,327.73L94.07,301.78L95.1,301.73L96.14,302.35L97.17,304.47L98.2,304.93L99.24,293.12L100.27,279.18L101.31,276.62L102.34,278.7L103.37,278.66L104.41,272.05L105.44,241.19L107.51,177.94L108.54,179.91L109.58,258.53L110.61,274.46L111.64,258.11L112.68,264.9L119.91,325.09L120.95,329.58L121.98,328.33L123.01,324.61L124.05,321.79L125.08,314.98L126.12,304.19L127.15,310L128.18,284.3L129.22,299.14L130.25,261.13L131.28,257.7L132.32,287.64L133.35,287.8L135.42,202.96L136.45,239.89L137.49,228.64L138.52,286.54L139.55,286.6L140.59,290.05L142.65,300.46L143.69,302.03L144.72,291.72L145.76,311.31L147.82,298.37L148.86,317.31L149.89,282.31L150.92,318.74L151.96,319.91L152.99,316.74L157.13,294.42L158.16,293.94L159.19,175.9L160.23,297.14L161.26,297.61L162.3,296.25L164.36,289.93L165.4,292.19L166.43,199.62L167.46,298.54L168.5,298.68L169.53,302.41L171.6,309.66L172.63,310.56L173.67,309.88L174.7,307.78L175.73,301.34L176.77,287.51L178.84,272.58L179.87,271.66L180.9,272.62L181.94,270.94L184,271.45L185.04,273.07L186.07,273.65L187.11,273.04L188.14,267.85L189.17,269.27L190.21,272.54L191.24,278.64L195.38,300.75L196.41,303.61L197.44,304.78L198.48,304.57L199.51,303.02L200.54,297.8L203.64,271.78L204.68,272.27L206.75,268.73L207.78,270.02L208.81,270.77L209.85,272.53L211.91,273.28L212.95,270.2L213.98,271.33L215.02,273.91L221.22,304.84L222.25,306.41L223.29,306.27L224.32,303.31L225.35,298.3L226.39,259.25L227.42,276.11L228.45,272.73L229.49,272.67L230.52,271.85L231.56,271.09L232.59,271.36L233.62,271.64L234.66,216.54L235.69,274.78L236.72,274.11L237.76,269.18L238.79,270.51L239.83,273.37L240.86,228.4L241.89,285.93L242.93,290.42L244.99,300.99L246.03,303.6L247.06,305.49L248.1,305.35L250.16,298.05L251.2,286.48L253.26,271.84L254.3,272.43L255.33,271.66L256.37,269.15L257.4,137.11L258.43,118.29L259.47,272.28L260.5,235.03L261.53,233.86L262.57,253.34L263.6,274.06L264.63,272.69L267.74,288.9L268.77,312.77L270.84,334.08L271.87,305.23L272.9,343.82L273.94,347.39L277.04,356.23L278.07,297.94L279.11,289.84L280.14,211.99L281.17,169.58L282.21,167.33L283.24,185.02L284.28,230.41L285.31,280.44L286.34,373.59L287.38,332.26L288.41,376.8L289.44,375.22L290.48,327.56L291.51,371.5L292.55,368.66L293.58,323.52L294.61,360.06L295.65,356.64L296.68,309.77L297.71,355.29L298.75,355.88L299.78,355.62L300.82,309.96L301.85,352.37L302.88,299L305.98,110.45L307.02,94.52L308.05,114.31L309.09,169.43L311.15,353.48L312.19,367.96L313.22,368.96L314.25,323.38L315.29,323.64L316.32,370.39L318.39,372.51L319.42,328.56L320.46,376.51L321.49,332.57L322.52,380.19L323.56,336.15L324.59,383.65L325.63,384.48L326.66,384.7L327.69,310.67L328.73,287.22L329.76,209.69L330.79,161.97L331.83,149.1L332.86,168.62L333.89,219.52L335.96,371.19L337,331.62L338.03,375.9L339.06,373.65L340.1,324.84L341.13,367.34L343.2,360.06L344.23,310.01L345.27,352.49L346.3,310.6L347.33,346.78L348.37,346.97L349.4,303.2L350.43,350.65L351.47,350.58L352.5,318.38L355.6,92.73L356.64,73.85L357.67,94.81L358.7,150.39L360.77,334.81L361.81,353.16L363.87,362.88L364.91,320.36L365.94,365.62L366.97,361.81L370.08,338.9L371.11,301.97L372.14,323.17L373.18,301.85L374.21,311.77L375.24,306.01L377.31,265.9L378.35,195.43L380.41,51.83L381.45,19.4L382.48,40.43L383.51,104.7L385.58,272.98L386.62,272L388.68,275.59L389.72,279.55L396.95,306.92L397.99,308.41L401.09,310.6L402.12,293.05L405.22,218.9L406.26,184.53L407.29,257.74L408.32,271.32L410.39,319.36L411.42,319.24L412.46,317.73L413.49,317.77L415.56,321.38L416.59,323.62L420.73,331.41L421.76,333.81L423.83,336.35L424.86,335.13L425.9,332.22L426.93,310L430.03,184.64L431.07,186.05L433.13,249.18L434.17,297.73L435.2,329.13L436.23,331.84L439.34,330.51L440.37,331.38L443.47,335.26L444.5,335.72L446.57,334.23L447.61,332.48L449.67,325.78L450.71,320.12L453.81,229.36L454.84,192.28L455.88,178.19L456.91,190.12L458.98,276.63L460.01,277.24L462.08,294.93L463.11,298.78L464.14,296.66L465.18,291.52L466.21,288.57L467.25,293.57L470.35,304.36L471.38,305.39L474.48,319.66L475.52,322.17L476.55,322.79L477.58,317.85L478.62,309.81L479.65,294.63L480.68,286.92L481.72,290.45L483.79,293.34L484.82,293.13L485.85,288.15L486.89,287.11L487.92,290.56L488.95,320.26L489.99,299.16L491.02,300.76L493.09,290.5L494.12,288.97L495.16,287.24L496.19,295.64L498.26,316.15L499.29,317.36L500.33,313.95L501.36,324.96L505.49,210.24L506.53,209.43L508.6,304.33L509.63,309.55L511.7,321.19L512.73,370.12L513.76,325.39L514.8,370.1L515.83,321.67L516.87,319.77L518.93,312L519.97,312.72L521,338.9L521,338.9L517.9,359.86L516.87,365.66L514.8,370.1L513.76,371.28L512.73,370.12L511.7,367.08L509.63,355.44L508.6,304.33L506.53,209.43L505.49,210.24L502.39,295.51L501.36,324.96L500.33,336.08L499.29,331.11L496.19,295.64L495.16,287.24L493.09,290.5L492.06,292.77L491.02,304.65L489.99,315.07L488.95,320.26L487.92,321.22L485.85,332.47L484.82,336.35L482.75,326.35L481.72,326.21L479.65,340.52L478.62,355.71L476.55,368.68L475.52,368.07L472.41,357.15L471.38,348.96L469.31,328.85L468.28,327.76L467.25,331L466.21,333.76L464.14,342.55L463.11,344.68L461.04,334.81L460.01,320.69L457.94,222.4L456.91,190.12L455.88,178.19L454.84,192.28L452.77,283.94L451.74,341.23L450.71,366.01L449.67,371.68L447.61,378.37L446.57,380.12L444.5,381.61L443.47,381.15L440.37,377.28L439.34,376.4L436.23,377.74L435.2,375.02L434.17,343.63L433.13,295.08L431.07,231.95L430.03,230.53L426.93,355.89L425.9,378.11L424.86,381.02L423.83,382.25L421.76,379.71L420.73,377.3L416.59,369.51L415.56,367.28L413.49,363.67L412.46,363.62L411.42,365.13L410.39,365.25L409.36,340.32L408.32,300.39L406.26,230.42L405.22,229.94L402.12,338.94L401.09,356.49L397.99,354.3L396.95,352.81L389.72,325.44L388.68,321.48L387.65,319.49L386.62,317.89L385.58,300.23L384.55,202.02L382.48,40.43L381.45,19.4L377.31,265.9L376.28,299.47L374.21,311.77L373.18,317.24L369.04,347.3L368.01,355.22L365.94,365.62L364.91,366.25L361.81,353.16L360.77,334.81L358.7,150.39L357.67,94.81L356.64,73.85L355.6,92.73L353.54,235.93L352.5,318.38L351.47,350.58L350.43,350.65L348.37,346.97L347.33,346.78L340.1,370.74L339.06,373.65L337,377.52L335.96,371.19L333.89,219.52L332.86,168.62L331.83,149.1L330.79,161.97L327.69,356.39L326.66,384.7L325.63,384.48L324.59,383.65L319.42,374.46L318.39,372.51L315.29,369.53L314.25,369.27L312.19,367.96L311.15,353.48L309.09,169.43L308.05,114.31L307.02,94.52L305.98,110.45L302.88,315.75L301.85,352.37L300.82,354.32L299.78,355.62L297.71,355.29L296.68,355.66L294.61,360.06L293.58,364.48L291.51,371.5L290.48,373.45L287.38,378.15L286.34,373.59L284.28,230.41L283.24,185.02L282.21,167.33L281.17,169.58L279.11,289.84L278.07,343.84L277.04,356.23L276.01,354.06L271.87,339.75L270.84,334.08L266.7,284.28L265.67,277.96L264.63,279.53L263.6,274.06L262.57,253.34L261.53,233.86L260.5,235.03L259.47,272.28L258.43,118.29L257.4,137.11L256.37,269.15L255.33,271.66L254.3,272.43L253.26,271.84L251.2,286.48L250.16,298.05L248.1,305.35L247.06,305.49L246.03,303.6L244.99,300.99L242.93,290.42L241.89,285.93L240.86,228.4L239.83,273.37L238.79,270.51L237.76,269.18L236.72,274.11L235.69,274.78L234.66,216.54L233.62,271.64L232.59,271.36L231.56,271.09L230.52,271.85L229.49,272.67L228.45,272.73L227.42,276.11L226.39,259.25L225.35,298.3L224.32,303.31L223.29,306.27L222.25,306.41L221.22,304.84L215.02,273.91L213.98,271.33L212.95,270.2L211.91,273.28L209.85,272.53L208.81,270.77L207.78,270.02L206.75,268.73L204.68,272.27L203.64,271.78L200.54,297.8L199.51,303.02L198.48,304.57L197.44,304.78L196.41,303.61L195.38,300.75L191.24,278.64L190.21,272.54L189.17,269.27L188.14,267.85L187.11,273.04L186.07,273.65L185.04,273.07L184,271.45L181.94,270.94L180.9,272.62L179.87,271.66L178.84,272.58L176.77,287.51L175.73,301.34L174.7,307.78L173.67,309.88L172.63,310.56L171.6,309.66L169.53,302.41L168.5,298.68L167.46,298.54L166.43,199.62L165.4,292.19L164.36,289.93L162.3,296.25L161.26,297.61L160.23,297.14L159.19,175.9L158.16,293.94L157.13,294.42L152.99,316.74L151.96,319.91L150.92,318.74L149.89,282.31L148.86,317.31L147.82,298.37L145.76,311.31L144.72,291.72L143.69,302.03L142.65,300.46L140.59,290.05L139.55,286.6L138.52,286.54L137.49,228.64L136.45,239.89L135.42,202.96L133.35,287.8L132.32,287.64L131.28,257.7L130.25,261.13L129.22,299.14L128.18,284.3L127.15,310L126.12,304.19L125.08,314.98L124.05,321.79L123.01,324.61L121.98,328.33L120.95,329.58L119.91,325.09L112.68,264.9L111.64,258.11L110.61,274.46L109.58,258.53L108.54,179.91L107.51,177.94L104.41,272.05L103.37,278.66L102.34,278.7L101.31,276.62L100.27,279.18L99.24,293.12L96.14,332.51L95.1,342.62L92,357.63L90.97,359.31L88.9,365.59L87.87,369.88L85.8,312.78L84.77,295.84L83.73,295.46L82.7,301.03L80.63,350.71L79.6,376.62L78.56,376.67L77.53,373.93L72.36,350.6L71.33,341.61L66.16,279.14L65.13,267.87L63.06,256.32L62.02,242.88L60.99,270.52L59.96,236.63L57.89,226.56L56.86,186.38L54.79,214.68L53.75,214.33L52.72,286.17L51.69,297.23L50.65,301.8L49.62,304.16L48.59,305.18L47.55,304.06L44.45,289.59L43.42,284.23L42.38,214.13L41.35,272.8L40.32,270.18L39.28,269.39L38.25,272.1L37.21,273.54L36.18,273.28L35.15,271.66L34.11,245.33L33.08,271.11L29.98,272.77L28.94,276.77L26.88,298.66L25.84,203.28L24.81,306.15L23.78,307.06L22.74,306.16L21.71,303.05L20.67,191.35L19.64,190.35L17.57,210.37L16.54,228.07L12.4,275.68L11.37,228.1L10.34,216.5L9.3,217.44L8.27,246.52L7.24,290.97L5.17,366.88L4.13,370.95L2.07,368.18L1.03,366.03L0,365.16Z" style="fill: rgb(245, 66, 66); fill-opacity: 0.5; stroke-width: 0;"/></g></g><g class="errorbars"/><g class="lines"><path class="js-line" d="M0,365.16L1.03,366.03L2.07,368.18L4.13,370.95L5.17,366.88L7.24,290.97L8.27,246.52L9.3,217.44L10.34,216.5L11.37,228.1L12.4,275.68L16.54,228.07L17.57,210.37L19.64,190.35L20.67,191.35L21.71,303.05L22.74,306.16L23.78,307.06L24.81,306.15L25.84,203.28L26.88,298.66L28.94,276.77L29.98,272.77L33.08,271.11L34.11,245.33L35.15,271.66L36.18,273.28L37.21,273.54L38.25,272.1L39.28,269.39L40.32,270.18L41.35,272.8L42.38,214.13L43.42,284.23L44.45,289.59L47.55,304.06L48.59,305.18L49.62,304.16L50.65,301.8L51.69,297.23L52.72,286.17L53.75,214.33L54.79,214.68L56.86,186.38L57.89,226.56L59.96,236.63L60.99,270.52L62.02,242.88L63.06,256.32L65.13,267.87L66.16,279.14L71.33,341.61L72.36,350.6L77.53,373.93L78.56,376.67L79.6,376.62L80.63,350.71L82.7,301.03L83.73,295.46L84.77,295.84L85.8,312.78L87.87,369.88L88.9,365.59L90.97,359.31L92,357.63L95.1,342.62L96.14,332.51L99.24,293.12L100.27,279.18L101.31,276.62L102.34,278.7L103.37,278.66L104.41,272.05L107.51,177.94L108.54,179.91L109.58,258.53L110.61,274.46L111.64,258.11L112.68,264.9L119.91,325.09L120.95,329.58L121.98,328.33L123.01,324.61L124.05,321.79L125.08,314.98L126.12,304.19L127.15,310L128.18,284.3L129.22,299.14L130.25,261.13L131.28,257.7L132.32,287.64L133.35,287.8L135.42,202.96L136.45,239.89L137.49,228.64L138.52,286.54L139.55,286.6L140.59,290.05L142.65,300.46L143.69,302.03L144.72,291.72L145.76,311.31L147.82,298.37L148.86,317.31L149.89,282.31L150.92,318.74L151.96,319.91L152.99,316.74L157.13,294.42L158.16,293.94L159.19,175.9L160.23,297.14L161.26,297.61L162.3,296.25L164.36,289.93L165.4,292.19L166.43,199.62L167.46,298.54L168.5,298.68L169.53,302.41L171.6,309.66L172.63,310.56L173.67,309.88L174.7,307.78L175.73,301.34L176.77,287.51L178.84,272.58L179.87,271.66L180.9,272.62L181.94,270.94L184,271.45L185.04,273.07L186.07,273.65L187.11,273.04L188.14,267.85L189.17,269.27L190.21,272.54L191.24,278.64L195.38,300.75L196.41,303.61L197.44,304.78L198.48,304.57L199.51,303.02L200.54,297.8L203.64,271.78L204.68,272.27L206.75,268.73L207.78,270.02L208.81,270.77L209.85,272.53L211.91,273.28L212.95,270.2L213.98,271.33L215.02,273.91L221.22,304.84L222.25,306.41L223.29,306.27L224.32,303.31L225.35,298.3L226.39,259.25L227.42,276.11L228.45,272.73L229.49,272.67L230.52,271.85L231.56,271.09L232.59,271.36L233.62,271.64L234.66,216.54L235.69,274.78L236.72,274.11L237.76,269.18L238.79,270.51L239.83,273.37L240.86,228.4L241.89,285.93L242.93,290.42L244.99,300.99L246.03,303.6L247.06,305.49L248.1,305.35L250.16,298.05L251.2,286.48L253.26,271.84L254.3,272.43L255.33,271.66L256.37,269.15L257.4,137.11L258.43,118.29L259.47,272.28L260.5,235.03L261.53,233.86L262.57,253.34L263.6,274.06L264.63,279.53L265.67,277.96L266.7,284.28L270.84,334.08L271.87,339.75L276.01,354.06L277.04,356.23L278.07,343.84L279.11,289.84L281.17,169.58L282.21,167.33L283.24,185.02L284.28,230.41L286.34,373.59L287.38,378.15L290.48,373.45L291.51,371.5L293.58,364.48L294.61,360.06L296.68,355.66L297.71,355.29L299.78,355.62L300.82,354.32L301.85,352.37L302.88,315.75L305.98,110.45L307.02,94.52L308.05,114.31L309.09,169.43L311.15,353.48L312.19,367.96L314.25,369.27L315.29,369.53L318.39,372.51L319.42,374.46L324.59,383.65L325.63,384.48L326.66,384.7L327.69,356.39L330.79,161.97L331.83,149.1L332.86,168.62L333.89,219.52L335.96,371.19L337,377.52L339.06,373.65L340.1,370.74L347.33,346.78L348.37,346.97L350.43,350.65L351.47,350.58L352.5,318.38L353.54,235.93L355.6,92.73L356.64,73.85L357.67,94.81L358.7,150.39L360.77,334.81L361.81,353.16L364.91,366.25L365.94,365.62L368.01,355.22L369.04,347.3L373.18,317.24L374.21,311.77L376.28,299.47L377.31,265.9L381.45,19.4L382.48,40.43L384.55,202.02L385.58,300.23L386.62,317.89L387.65,319.49L388.68,321.48L389.72,325.44L396.95,352.81L397.99,354.3L401.09,356.49L402.12,338.94L405.22,229.94L406.26,230.42L408.32,300.39L409.36,340.32L410.39,365.25L411.42,365.13L412.46,363.62L413.49,363.67L415.56,367.28L416.59,369.51L420.73,377.3L421.76,379.71L423.83,382.25L424.86,381.02L425.9,378.11L426.93,355.89L430.03,230.53L431.07,231.95L433.13,295.08L434.17,343.63L435.2,375.02L436.23,377.74L439.34,376.4L440.37,377.28L443.47,381.15L444.5,381.61L446.57,380.12L447.61,378.37L449.67,371.68L450.71,366.01L451.74,341.23L452.77,283.94L454.84,192.28L455.88,178.19L456.91,190.12L457.94,222.4L460.01,320.69L461.04,334.81L463.11,344.68L464.14,342.55L466.21,333.76L467.25,331L468.28,327.76L469.31,328.85L471.38,348.96L472.41,357.15L475.52,368.07L476.55,368.68L478.62,355.71L479.65,340.52L481.72,326.21L482.75,326.35L484.82,336.35L485.85,332.47L487.92,321.22L488.95,320.26L489.99,315.07L491.02,304.65L492.06,292.77L493.09,290.5L495.16,287.24L496.19,295.64L499.29,331.11L500.33,336.08L501.36,324.96L502.39,295.51L505.49,210.24L506.53,209.43L508.6,304.33L509.63,355.44L511.7,367.08L512.73,370.12L513.76,371.28L514.8,370.1L516.87,365.66L517.9,359.86L521,338.9" style="vector-effect: non-scaling-stroke; fill: none; stroke: rgb(245, 236, 66); stroke-opacity: 1; stroke-width: 0.5px; opacity: 1;"/></g><g class="points"/><g class="text"/></g><g class="trace scatter tracee2b4e5" style="stroke-miterlimit: 2;"><g class="fills"><g><path class="js-fill" d="M0,365.16L1.03,366.03L2.07,368.18L4.13,370.95L5.17,320.99L7.24,286.05L8.27,246.52L9.3,217.44L10.34,216.5L11.37,228.1L12.4,275.68L16.54,228.07L17.57,210.37L19.64,190.35L20.67,191.35L21.71,303.05L22.74,306.16L23.78,307.06L24.81,306.15L25.84,203.28L26.88,298.66L28.94,276.77L29.98,272.77L33.08,271.11L34.11,245.33L35.15,271.66L36.18,273.28L37.21,273.54L38.25,272.1L39.28,269.39L40.32,270.18L41.35,272.8L42.38,214.13L43.42,284.23L44.45,289.59L47.55,304.06L48.59,305.18L49.62,304.16L50.65,301.8L51.69,297.23L52.72,286.17L53.75,214.33L54.79,214.68L56.86,186.38L57.89,226.56L59.96,236.63L60.99,270.52L62.02,242.88L63.06,256.32L65.13,267.87L66.16,279.14L67.19,279.75L68.23,303.28L69.26,318.86L70.29,297.27L71.33,341.61L72.36,350.6L73.39,309.96L74.43,361.72L75.46,366.1L76.5,352.35L77.53,373.93L78.56,376.67L79.6,330.73L80.63,350.71L82.7,301.03L83.73,295.46L84.77,274.9L85.8,276.69L86.83,302.37L87.87,369.88L90.97,359.31L92,327.73L94.07,301.78L95.1,301.73L96.14,302.35L97.17,304.47L98.2,304.93L99.24,293.12L100.27,279.18L101.31,276.62L102.34,278.7L103.37,278.66L104.41,272.05L105.44,241.19L107.51,177.94L108.54,179.91L109.58,258.53L110.61,274.46L111.64,258.11L112.68,264.9L119.91,325.09L120.95,329.58L121.98,328.33L123.01,324.61L124.05,321.79L125.08,314.98L126.12,304.19L127.15,310L128.18,284.3L129.22,299.14L130.25,261.13L131.28,257.7L132.32,287.64L133.35,287.8L135.42,202.96L136.45,239.89L137.49,228.64L138.52,286.54L139.55,286.6L140.59,290.05L142.65,300.46L143.69,302.03L144.72,291.72L145.76,311.31L147.82,298.37L148.86,317.31L149.89,282.31L150.92,318.74L151.96,319.91L152.99,316.74L157.13,294.42L158.16,293.94L159.19,175.9L160.23,297.14L161.26,297.61L162.3,296.25L164.36,289.93L165.4,292.19L166.43,199.62L167.46,298.54L168.5,298.68L169.53,302.41L171.6,309.66L172.63,310.56L173.67,309.88L174.7,307.78L175.73,301.34L176.77,287.51L178.84,272.58L179.87,271.66L180.9,272.62L181.94,270.94L184,271.45L185.04,273.07L186.07,273.65L187.11,273.04L188.14,267.85L189.17,269.27L190.21,272.54L191.24,278.64L195.38,300.75L196.41,303.61L197.44,304.78L198.48,304.57L199.51,303.02L200.54,297.8L203.64,271.78L204.68,272.27L206.75,268.73L207.78,270.02L208.81,270.77L209.85,272.53L211.91,273.28L212.95,270.2L213.98,271.33L215.02,273.91L221.22,304.84L222.25,306.41L223.29,306.27L224.32,303.31L225.35,298.3L226.39,259.25L227.42,276.11L228.45,272.73L229.49,272.67L230.52,271.85L231.56,271.09L232.59,271.36L233.62,271.64L234.66,216.54L235.69,274.78L236.72,274.11L237.76,269.18L238.79,270.51L239.83,273.37L240.86,228.4L241.89,285.93L242.93,290.42L244.99,300.99L246.03,303.6L247.06,305.49L248.1,305.35L250.16,298.05L251.2,286.48L253.26,271.84L254.3,272.43L255.33,271.66L256.37,269.15L257.4,137.11L258.43,118.29L259.47,272.28L260.5,235.03L261.53,233.86L262.57,253.34L263.6,274.06L264.63,272.69L267.74,288.9L268.77,312.77L270.84,334.08L271.87,305.23L272.9,343.82L273.94,347.39L277.04,356.23L278.07,297.94L279.11,289.84L280.14,211.99L281.17,169.58L282.21,167.33L283.24,185.02L284.28,230.41L285.31,280.44L286.34,373.59L287.38,332.26L288.41,376.8L289.44,375.22L290.48,327.56L291.51,371.5L292.55,368.66L293.58,323.52L294.61,360.06L295.65,356.64L296.68,309.77L297.71,355.29L298.75,355.88L299.78,355.62L300.82,309.96L301.85,352.37L302.88,299L305.98,110.45L307.02,94.52L308.05,114.31L309.09,169.43L311.15,353.48L312.19,367.96L313.22,368.96L314.25,323.38L315.29,323.64L316.32,370.39L318.39,372.51L319.42,328.56L320.46,376.51L321.49,332.57L322.52,380.19L323.56,336.15L324.59,383.65L325.63,384.48L326.66,384.7L327.69,310.67L328.73,287.22L329.76,209.69L330.79,161.97L331.83,149.1L332.86,168.62L333.89,219.52L335.96,371.19L337,331.62L338.03,375.9L339.06,373.65L340.1,324.84L341.13,367.34L343.2,360.06L344.23,310.01L345.27,352.49L346.3,310.6L347.33,346.78L348.37,346.97L349.4,303.2L350.43,350.65L351.47,350.58L352.5,318.38L355.6,92.73L356.64,73.85L357.67,94.81L358.7,150.39L360.77,334.81L361.81,353.16L363.87,362.88L364.91,320.36L365.94,365.62L366.97,361.81L370.08,338.9L371.11,301.97L372.14,323.17L373.18,301.85L374.21,311.77L375.24,306.01L377.31,265.9L378.35,195.43L380.41,51.83L381.45,19.4L382.48,40.43L383.51,104.7L385.58,272.98L386.62,272L388.68,275.59L389.72,279.55L396.95,306.92L397.99,308.41L401.09,310.6L402.12,293.05L405.22,218.9L406.26,184.53L407.29,257.74L408.32,271.32L410.39,319.36L411.42,319.24L412.46,317.73L413.49,317.77L415.56,321.38L416.59,323.62L420.73,331.41L421.76,333.81L423.83,336.35L424.86,335.13L425.9,332.22L426.93,310L430.03,184.64L431.07,186.05L433.13,249.18L434.17,297.73L435.2,329.13L436.23,331.84L439.34,330.51L440.37,331.38L443.47,335.26L444.5,335.72L446.57,334.23L447.61,332.48L449.67,325.78L450.71,320.12L453.81,229.36L454.84,192.28L455.88,178.19L456.91,190.12L458.98,276.63L460.01,277.24L462.08,294.93L463.11,298.78L464.14,296.66L465.18,291.52L466.21,288.57L467.25,293.57L470.35,304.36L471.38,305.39L474.48,319.66L475.52,322.17L476.55,322.79L477.58,317.85L478.62,309.81L479.65,294.63L480.68,286.92L481.72,290.45L483.79,293.34L484.82,293.13L485.85,288.15L486.89,287.11L487.92,290.56L488.95,320.26L489.99,299.16L491.02,300.76L493.09,290.5L494.12,288.97L495.16,287.24L496.19,295.64L498.26,316.15L499.29,317.36L500.33,313.95L501.36,324.96L505.49,210.24L506.53,209.43L508.6,304.33L509.63,309.55L511.7,321.19L512.73,370.12L513.76,325.39L514.8,370.1L515.83,321.67L516.87,319.77L518.93,312L519.97,312.72L521,338.9L521,338.9L519.97,312.72L518.93,312L516.87,319.77L515.83,321.67L514.8,370.1L513.76,325.39L512.73,370.12L511.7,321.19L509.63,309.55L508.6,304.33L506.53,209.43L505.49,210.24L501.36,324.96L500.33,313.95L499.29,317.36L498.26,316.15L496.19,295.64L495.16,287.24L494.12,288.97L493.09,290.5L491.02,300.76L489.99,299.16L488.95,320.26L487.92,290.56L486.89,287.11L485.85,288.15L484.82,293.13L483.79,293.34L481.72,290.45L480.68,286.92L479.65,294.63L478.62,309.81L477.58,317.85L476.55,322.79L475.52,322.17L474.48,319.66L471.38,305.39L470.35,304.36L467.25,293.57L466.21,288.57L465.18,291.52L464.14,296.66L463.11,298.78L462.08,294.93L460.01,277.24L458.98,276.63L456.91,190.12L455.88,178.19L454.84,192.28L453.81,229.36L450.71,320.12L449.67,325.78L447.61,332.48L446.57,334.23L444.5,335.72L443.47,335.26L440.37,331.38L439.34,330.51L436.23,331.84L435.2,329.13L434.17,297.73L433.13,249.18L431.07,186.05L430.03,184.64L426.93,310L425.9,332.22L424.86,335.13L423.83,336.35L421.76,333.81L420.73,331.41L416.59,323.62L415.56,321.38L413.49,317.77L412.46,317.73L411.42,319.24L410.39,319.36L408.32,271.32L407.29,257.74L406.26,184.53L405.22,218.9L402.12,293.05L401.09,310.6L397.99,308.41L396.95,306.92L389.72,279.55L388.68,275.59L386.62,272L385.58,272.98L383.51,104.7L382.48,40.43L381.45,19.4L380.41,51.83L378.35,195.43L377.31,265.9L375.24,306.01L374.21,311.77L373.18,301.85L372.14,323.17L371.11,301.97L370.08,338.9L366.97,361.81L365.94,365.62L364.91,320.36L363.87,362.88L361.81,353.16L360.77,334.81L358.7,150.39L357.67,94.81L356.64,73.85L355.6,92.73L352.5,318.38L351.47,350.58L350.43,350.65L349.4,303.2L348.37,346.97L347.33,346.78L346.3,310.6L345.27,352.49L344.23,310.01L343.2,360.06L341.13,367.34L340.1,324.84L339.06,373.65L338.03,375.9L337,331.62L335.96,371.19L333.89,219.52L332.86,168.62L331.83,149.1L330.79,161.97L329.76,209.69L328.73,287.22L327.69,310.67L326.66,384.7L325.63,384.48L324.59,383.65L323.56,336.15L322.52,380.19L321.49,332.57L320.46,376.51L319.42,328.56L318.39,372.51L316.32,370.39L315.29,323.64L314.25,323.38L313.22,368.96L312.19,367.96L311.15,353.48L309.09,169.43L308.05,114.31L307.02,94.52L305.98,110.45L302.88,299L301.85,352.37L300.82,309.96L299.78,355.62L298.75,355.88L297.71,355.29L296.68,309.77L295.65,356.64L294.61,360.06L293.58,323.52L292.55,368.66L291.51,371.5L290.48,327.56L289.44,375.22L288.41,376.8L287.38,332.26L286.34,373.59L285.31,280.44L284.28,230.41L283.24,185.02L282.21,167.33L281.17,169.58L280.14,211.99L279.11,289.84L278.07,297.94L277.04,356.23L273.94,347.39L272.9,343.82L271.87,305.23L270.84,334.08L268.77,312.77L267.74,288.9L264.63,272.69L263.6,274.06L262.57,253.34L261.53,233.86L260.5,235.03L259.47,272.28L258.43,118.29L257.4,137.11L256.37,269.15L255.33,271.66L254.3,272.43L253.26,271.84L251.2,286.48L250.16,298.05L248.1,305.35L247.06,305.49L246.03,303.6L244.99,300.99L242.93,290.42L241.89,285.93L240.86,228.4L239.83,273.37L238.79,270.51L237.76,269.18L236.72,274.11L235.69,274.78L234.66,216.54L233.62,271.64L232.59,271.36L231.56,271.09L230.52,271.85L229.49,272.67L228.45,272.73L227.42,276.11L226.39,259.25L225.35,298.3L224.32,303.31L223.29,306.27L222.25,306.41L221.22,304.84L215.02,273.91L213.98,271.33L212.95,270.2L211.91,273.28L209.85,272.53L208.81,270.77L207.78,270.02L206.75,268.73L204.68,272.27L203.64,271.78L200.54,297.8L199.51,303.02L198.48,304.57L197.44,304.78L196.41,303.61L195.38,300.75L191.24,278.64L190.21,272.54L189.17,269.27L188.14,267.85L187.11,273.04L186.07,273.65L185.04,273.07L184,271.45L181.94,270.94L180.9,272.62L179.87,271.66L178.84,272.58L176.77,287.51L175.73,301.34L174.7,307.78L173.67,309.88L172.63,310.56L171.6,309.66L169.53,302.41L168.5,298.68L167.46,298.54L166.43,199.62L165.4,292.19L164.36,289.93L162.3,296.25L161.26,297.61L160.23,297.14L159.19,175.9L158.16,293.94L157.13,294.42L152.99,316.74L151.96,319.91L150.92,318.74L149.89,282.31L148.86,317.31L147.82,298.37L145.76,311.31L144.72,291.72L143.69,302.03L142.65,300.46L140.59,290.05L139.55,286.6L138.52,286.54L137.49,228.64L136.45,239.89L135.42,202.96L133.35,287.8L132.32,287.64L131.28,257.7L130.25,261.13L129.22,299.14L128.18,284.3L127.15,310L126.12,304.19L125.08,314.98L124.05,321.79L123.01,324.61L121.98,328.33L120.95,329.58L119.91,325.09L112.68,264.9L111.64,258.11L110.61,274.46L109.58,258.53L108.54,179.91L107.51,177.94L105.44,241.19L104.41,272.05L103.37,278.66L102.34,278.7L101.31,276.62L100.27,279.18L99.24,293.12L98.2,304.93L97.17,304.47L96.14,302.35L95.1,301.73L94.07,301.78L92,327.73L90.97,359.31L87.87,369.88L86.83,302.37L85.8,276.69L84.77,274.9L83.73,295.46L82.7,301.03L80.63,350.71L79.6,330.73L78.56,376.67L77.53,373.93L76.5,352.35L75.46,366.1L74.43,361.72L73.39,309.96L72.36,350.6L71.33,341.61L70.29,297.27L69.26,318.86L68.23,303.28L67.19,279.75L66.16,279.14L65.13,267.87L63.06,256.32L62.02,242.88L60.99,270.52L59.96,236.63L57.89,226.56L56.86,186.38L54.79,214.68L53.75,214.33L52.72,286.17L51.69,297.23L50.65,301.8L49.62,304.16L48.59,305.18L47.55,304.06L44.45,289.59L43.42,284.23L42.38,214.13L41.35,272.8L40.32,270.18L39.28,269.39L38.25,272.1L37.21,273.54L36.18,273.28L35.15,271.66L34.11,245.33L33.08,271.11L29.98,272.77L28.94,276.77L26.88,298.66L25.84,203.28L24.81,306.15L23.78,307.06L22.74,306.16L21.71,303.05L20.67,191.35L19.64,190.35L17.57,210.37L16.54,228.07L12.4,275.68L11.37,228.1L10.34,216.5L9.3,217.44L8.27,246.52L7.24,286.05L5.17,320.99L4.13,370.95L2.07,368.18L1.03,366.03L0,365.16Z" style="fill: rgb(66, 108, 245); fill-opacity: 0.5; stroke-width: 0;"/></g></g><g class="errorbars"/><g class="lines"><path class="js-line" d="M0,365.16L1.03,366.03L2.07,368.18L4.13,370.95L5.17,320.99L7.24,286.05L8.27,246.52L9.3,217.44L10.34,216.5L11.37,228.1L12.4,275.68L16.54,228.07L17.57,210.37L19.64,190.35L20.67,191.35L21.71,303.05L22.74,306.16L23.78,307.06L24.81,306.15L25.84,203.28L26.88,298.66L28.94,276.77L29.98,272.77L33.08,271.11L34.11,245.33L35.15,271.66L36.18,273.28L37.21,273.54L38.25,272.1L39.28,269.39L40.32,270.18L41.35,272.8L42.38,214.13L43.42,284.23L44.45,289.59L47.55,304.06L48.59,305.18L49.62,304.16L50.65,301.8L51.69,297.23L52.72,286.17L53.75,214.33L54.79,214.68L56.86,186.38L57.89,226.56L59.96,236.63L60.99,270.52L62.02,242.88L63.06,256.32L65.13,267.87L66.16,279.14L67.19,279.75L68.23,303.28L69.26,318.86L70.29,297.27L71.33,341.61L72.36,350.6L73.39,309.96L74.43,361.72L75.46,366.1L76.5,352.35L77.53,373.93L78.56,376.67L79.6,330.73L80.63,350.71L82.7,301.03L83.73,295.46L84.77,274.9L85.8,276.69L86.83,302.37L87.87,369.88L90.97,359.31L92,327.73L94.07,301.78L95.1,301.73L96.14,302.35L97.17,304.47L98.2,304.93L99.24,293.12L100.27,279.18L101.31,276.62L102.34,278.7L103.37,278.66L104.41,272.05L105.44,241.19L107.51,177.94L108.54,179.91L109.58,258.53L110.61,274.46L111.64,258.11L112.68,264.9L119.91,325.09L120.95,329.58L121.98,328.33L123.01,324.61L124.05,321.79L125.08,314.98L126.12,304.19L127.15,310L128.18,284.3L129.22,299.14L130.25,261.13L131.28,257.7L132.32,287.64L133.35,287.8L135.42,202.96L136.45,239.89L137.49,228.64L138.52,286.54L139.55,286.6L140.59,290.05L142.65,300.46L143.69,302.03L144.72,291.72L145.76,311.31L147.82,298.37L148.86,317.31L149.89,282.31L150.92,318.74L151.96,319.91L152.99,316.74L157.13,294.42L158.16,293.94L159.19,175.9L160.23,297.14L161.26,297.61L162.3,296.25L164.36,289.93L165.4,292.19L166.43,199.62L167.46,298.54L168.5,298.68L169.53,302.41L171.6,309.66L172.63,310.56L173.67,309.88L174.7,307.78L175.73,301.34L176.77,287.51L178.84,272.58L179.87,271.66L180.9,272.62L181.94,270.94L184,271.45L185.04,273.07L186.07,273.65L187.11,273.04L188.14,267.85L189.17,269.27L190.21,272.54L191.24,278.64L195.38,300.75L196.41,303.61L197.44,304.78L198.48,304.57L199.51,303.02L200.54,297.8L203.64,271.78L204.68,272.27L206.75,268.73L207.78,270.02L208.81,270.77L209.85,272.53L211.91,273.28L212.95,270.2L213.98,271.33L215.02,273.91L221.22,304.84L222.25,306.41L223.29,306.27L224.32,303.31L225.35,298.3L226.39,259.25L227.42,276.11L228.45,272.73L229.49,272.67L230.52,271.85L231.56,271.09L232.59,271.36L233.62,271.64L234.66,216.54L235.69,274.78L236.72,274.11L237.76,269.18L238.79,270.51L239.83,273.37L240.86,228.4L241.89,285.93L242.93,290.42L244.99,300.99L246.03,303.6L247.06,305.49L248.1,305.35L250.16,298.05L251.2,286.48L253.26,271.84L254.3,272.43L255.33,271.66L256.37,269.15L257.4,137.11L258.43,118.29L259.47,272.28L260.5,235.03L261.53,233.86L262.57,253.34L263.6,274.06L264.63,272.69L267.74,288.9L268.77,312.77L270.84,334.08L271.87,305.23L272.9,343.82L273.94,347.39L277.04,356.23L278.07,297.94L279.11,289.84L280.14,211.99L281.17,169.58L282.21,167.33L283.24,185.02L284.28,230.41L285.31,280.44L286.34,373.59L287.38,332.26L288.41,376.8L289.44,375.22L290.48,327.56L291.51,371.5L292.55,368.66L293.58,323.52L294.61,360.06L295.65,356.64L296.68,309.77L297.71,355.29L298.75,355.88L299.78,355.62L300.82,309.96L301.85,352.37L302.88,299L305.98,110.45L307.02,94.52L308.05,114.31L309.09,169.43L311.15,353.48L312.19,367.96L313.22,368.96L314.25,323.38L315.29,323.64L316.32,370.39L318.39,372.51L319.42,328.56L320.46,376.51L321.49,332.57L322.52,380.19L323.56,336.15L324.59,383.65L325.63,384.48L326.66,384.7L327.69,310.67L328.73,287.22L329.76,209.69L330.79,161.97L331.83,149.1L332.86,168.62L333.89,219.52L335.96,371.19L337,331.62L338.03,375.9L339.06,373.65L340.1,324.84L341.13,367.34L343.2,360.06L344.23,310.01L345.27,352.49L346.3,310.6L347.33,346.78L348.37,346.97L349.4,303.2L350.43,350.65L351.47,350.58L352.5,318.38L355.6,92.73L356.64,73.85L357.67,94.81L358.7,150.39L360.77,334.81L361.81,353.16L363.87,362.88L364.91,320.36L365.94,365.62L366.97,361.81L370.08,338.9L371.11,301.97L372.14,323.17L373.18,301.85L374.21,311.77L375.24,306.01L377.31,265.9L378.35,195.43L380.41,51.83L381.45,19.4L382.48,40.43L383.51,104.7L385.58,272.98L386.62,272L388.68,275.59L389.72,279.55L396.95,306.92L397.99,308.41L401.09,310.6L402.12,293.05L405.22,218.9L406.26,184.53L407.29,257.74L408.32,271.32L410.39,319.36L411.42,319.24L412.46,317.73L413.49,317.77L415.56,321.38L416.59,323.62L420.73,331.41L421.76,333.81L423.83,336.35L424.86,335.13L425.9,332.22L426.93,310L430.03,184.64L431.07,186.05L433.13,249.18L434.17,297.73L435.2,329.13L436.23,331.84L439.34,330.51L440.37,331.38L443.47,335.26L444.5,335.72L446.57,334.23L447.61,332.48L449.67,325.78L450.71,320.12L453.81,229.36L454.84,192.28L455.88,178.19L456.91,190.12L458.98,276.63L460.01,277.24L462.08,294.93L463.11,298.78L464.14,296.66L465.18,291.52L466.21,288.57L467.25,293.57L470.35,304.36L471.38,305.39L474.48,319.66L475.52,322.17L476.55,322.79L477.58,317.85L478.62,309.81L479.65,294.63L480.68,286.92L481.72,290.45L483.79,293.34L484.82,293.13L485.85,288.15L486.89,287.11L487.92,290.56L488.95,320.26L489.99,299.16L491.02,300.76L493.09,290.5L494.12,288.97L495.16,287.24L496.19,295.64L498.26,316.15L499.29,317.36L500.33,313.95L501.36,324.96L505.49,210.24L506.53,209.43L508.6,304.33L509.63,309.55L511.7,321.19L512.73,370.12L513.76,325.39L514.8,370.1L515.83,321.67L516.87,319.77L518.93,312L519.97,312.72L521,338.9" style="vector-effect: non-scaling-stroke; fill: none; stroke: rgb(245, 66, 66); stroke-opacity: 1; stroke-width: 0.5px; opacity: 1;"/></g><g class="points"/><g class="text"/></g><g class="trace scatter trace449c78" style="stroke-miterlimit: 2;"><g class="fills"><g><path class="js-fill" d="M0,318.01L1.03,314.99L2.07,307.96L4.13,283.29L5.17,279.02L6.2,278.57L7.24,276.64L9.3,217.44L10.34,216.5L11.37,228.1L12.4,275.68L16.54,228.07L17.57,210.37L19.64,190.35L20.67,191.35L21.71,303.05L22.74,306.16L23.78,307.06L24.81,306.15L25.84,203.28L26.88,298.66L28.94,276.77L29.98,272.77L33.08,271.11L34.11,245.33L35.15,271.66L36.18,273.28L37.21,273.54L38.25,272.1L39.28,269.39L40.32,270.18L41.35,272.8L42.38,214.13L43.42,284.23L44.45,289.59L47.55,304.06L48.59,305.18L49.62,304.16L50.65,301.8L51.69,297.23L52.72,286.17L53.75,214.33L54.79,214.68L56.86,186.38L57.89,226.56L59.96,236.63L60.99,270.52L62.02,242.88L63.06,256.32L65.13,267.87L66.16,272.56L70.29,297.27L71.33,301.38L73.39,306.34L74.43,306.35L75.46,304.93L76.5,300.5L78.56,280.33L79.6,275.91L80.63,276.18L81.66,274.5L82.7,273.77L83.73,274.15L84.77,274.9L85.8,276.69L87.87,277.31L88.9,274.04L90.97,277.2L92,282.42L95.1,296.48L96.14,299.87L98.2,304.37L99.24,293.12L100.27,279.18L101.31,276.62L102.34,278.7L103.37,275.72L104.41,271.3L105.44,241.19L107.51,177.94L108.54,179.91L109.58,258.53L110.61,274.46L111.64,258.11L112.68,264.9L113.71,271.97L114.74,273.29L115.78,275.52L116.81,282.75L121.98,307.1L123.01,309.56L125.08,312.18L126.12,304.19L127.15,310L128.18,284.3L129.22,299.14L130.25,261.13L131.28,257.7L132.32,287.64L133.35,287.8L134.38,247.63L135.42,202.96L136.45,239.89L137.49,228.64L138.52,286.54L139.55,286.6L140.59,290.05L142.65,300.46L143.69,302.03L144.72,291.72L145.76,311.31L147.82,298.37L148.86,317.31L149.89,282.31L150.92,318.74L151.96,319.91L152.99,316.74L157.13,294.42L158.16,293.94L159.19,175.9L160.23,297.14L161.26,297.61L162.3,296.25L164.36,289.93L165.4,292.19L166.43,199.62L167.46,298.54L168.5,298.68L169.53,302.41L171.6,309.66L172.63,310.56L173.67,309.88L174.7,307.78L175.73,301.34L176.77,287.51L178.84,272.58L179.87,271.66L180.9,272.62L181.94,270.94L184,271.45L185.04,273.07L186.07,273.65L187.11,273.04L188.14,267.85L189.17,269.27L190.21,272.54L191.24,278.64L195.38,300.75L196.41,303.61L197.44,304.78L198.48,304.57L199.51,303.02L200.54,297.8L203.64,271.78L204.68,272.27L206.75,268.73L207.78,270.02L208.81,270.77L209.85,272.53L211.91,273.28L212.95,270.2L213.98,271.33L215.02,273.91L221.22,304.84L222.25,306.41L223.29,306.27L224.32,303.31L225.35,298.3L226.39,259.25L227.42,276.11L228.45,272.73L229.49,272.67L230.52,271.85L231.56,271.09L232.59,271.36L233.62,271.64L234.66,216.54L235.69,274.78L236.72,274.11L237.76,269.18L238.79,270.51L239.83,273.37L240.86,228.4L241.89,285.93L242.93,290.42L244.99,300.99L246.03,303.6L247.06,305.49L248.1,305.35L250.16,298.05L251.2,286.48L253.26,271.84L254.3,272.43L255.33,271.66L256.37,269.15L257.4,137.11L258.43,118.29L259.47,272.28L260.5,235.03L261.53,233.86L262.57,253.34L263.6,269.97L264.63,272.69L270.84,303.15L271.87,305.23L272.9,305.43L273.94,303.69L274.97,299.61L276.01,288.21L278.07,274.53L279.11,273.73L281.17,169.58L282.21,167.33L283.24,185.02L284.28,230.41L285.31,280.44L286.34,280.85L287.38,276.22L288.41,276.33L289.44,279.1L290.48,285.26L295.65,306.54L296.68,308.12L298.75,310.61L299.78,310.98L300.82,309.96L301.85,305.46L302.88,299L303.92,232.01L305.98,110.45L307.02,94.52L308.05,114.31L309.09,169.43L311.15,296.4L312.19,289.67L313.22,288.54L314.25,291.43L316.32,302.06L317.36,303.19L321.49,314.99L322.52,316.01L325.63,318.64L326.66,316.01L327.69,310.67L328.73,287.22L330.79,161.97L331.83,149.1L332.86,168.62L333.89,219.52L334.93,298.9L335.96,303.09L338.03,292.19L339.06,294.09L341.13,301.23L342.16,299.94L345.27,309.21L346.3,310.6L347.33,310.34L348.37,308.2L349.4,301.87L350.43,288.1L351.47,277.12L352.5,274.57L353.54,235.93L354.57,142.67L356.64,73.85L357.67,94.81L360.77,277.8L361.81,272.87L362.84,271.75L363.87,273.52L369.04,297.65L370.08,299.83L372.14,303.02L373.18,301.85L374.21,296.89L375.24,284.86L377.31,265.9L378.35,195.43L380.41,51.83L381.45,19.4L382.48,40.43L383.51,104.7L385.58,272.98L386.62,268.41L387.65,267.98L388.68,269.99L392.82,291.79L393.85,295.59L395.92,300.08L396.95,300.71L397.99,300.26L399.02,295.02L401.09,273.1L402.12,270.22L403.15,269.1L404.19,254.45L406.26,184.53L407.29,257.74L408.32,271.32L409.36,272.73L410.39,273.24L411.42,268.8L412.46,269.35L413.49,271.66L418.66,295.94L419.69,299.11L420.73,301.27L421.76,301.3L422.8,300.38L423.83,296.25L425.9,275.38L426.93,272.1L427.96,255.37L429,204.27L430.03,184.64L431.07,186.05L434.17,273.13L435.2,273.68L436.23,270.97L437.27,270.84L438.3,273.22L439.34,279.19L444.5,300.11L445.54,301.81L446.57,303.01L447.61,301.8L448.64,297.03L449.67,285.65L451.74,272.92L452.77,271.27L454.84,192.28L455.88,178.19L456.91,190.12L457.94,222.4L458.98,276.63L460.01,277.24L461.04,272.52L462.08,271.97L463.11,274.36L464.14,281.25L468.28,298.2L469.31,301.83L471.38,305.39L472.41,305.8L473.45,306.21L474.48,305.26L478.62,286.52L479.65,285.79L480.68,286.92L481.72,290.45L483.79,293.34L484.82,293.13L485.85,288.15L486.89,287.11L491.02,300.76L492.06,292.77L495.16,287.24L496.19,295.64L498.26,316.15L499.29,317.36L501.36,310.11L502.39,295.51L505.49,210.24L506.53,209.43L508.6,303.88L509.63,302.94L511.7,294.51L512.73,295.84L514.8,301.74L515.83,301.24L518.93,312L519.97,312.72L521,311.73L521,338.9L519.97,312.72L518.93,312L516.87,319.77L515.83,321.67L514.8,370.1L513.76,325.39L512.73,370.12L511.7,321.19L509.63,309.55L508.6,304.33L506.53,209.43L505.49,210.24L501.36,324.96L500.33,313.95L499.29,317.36L498.26,316.15L496.19,295.64L495.16,287.24L494.12,288.97L493.09,290.5L491.02,300.76L489.99,299.16L488.95,320.26L487.92,290.56L486.89,287.11L485.85,288.15L484.82,293.13L483.79,293.34L481.72,290.45L480.68,286.92L479.65,294.63L478.62,309.81L477.58,317.85L476.55,322.79L475.52,322.17L474.48,319.66L471.38,305.39L470.35,304.36L467.25,293.57L466.21,288.57L465.18,291.52L464.14,296.66L463.11,298.78L462.08,294.93L460.01,277.24L458.98,276.63L456.91,190.12L455.88,178.19L454.84,192.28L453.81,229.36L450.71,320.12L449.67,325.78L447.61,332.48L446.57,334.23L444.5,335.72L443.47,335.26L440.37,331.38L439.34,330.51L436.23,331.84L435.2,329.13L434.17,297.73L433.13,249.18L431.07,186.05L430.03,184.64L426.93,310L425.9,332.22L424.86,335.13L423.83,336.35L421.76,333.81L420.73,331.41L416.59,323.62L415.56,321.38L413.49,317.77L412.46,317.73L411.42,319.24L410.39,319.36L408.32,271.32L407.29,257.74L406.26,184.53L405.22,218.9L402.12,293.05L401.09,310.6L397.99,308.41L396.95,306.92L389.72,279.55L388.68,275.59L386.62,272L385.58,272.98L383.51,104.7L382.48,40.43L381.45,19.4L380.41,51.83L378.35,195.43L377.31,265.9L375.24,306.01L374.21,311.77L373.18,301.85L372.14,323.17L371.11,301.97L370.08,338.9L366.97,361.81L365.94,365.62L364.91,320.36L363.87,362.88L361.81,353.16L360.77,334.81L358.7,150.39L357.67,94.81L356.64,73.85L355.6,92.73L352.5,318.38L351.47,350.58L350.43,350.65L349.4,303.2L348.37,346.97L347.33,346.78L346.3,310.6L345.27,352.49L344.23,310.01L343.2,360.06L341.13,367.34L340.1,324.84L339.06,373.65L338.03,375.9L337,331.62L335.96,371.19L333.89,219.52L332.86,168.62L331.83,149.1L330.79,161.97L329.76,209.69L328.73,287.22L327.69,310.67L326.66,384.7L325.63,384.48L324.59,383.65L323.56,336.15L322.52,380.19L321.49,332.57L320.46,376.51L319.42,328.56L318.39,372.51L316.32,370.39L315.29,323.64L314.25,323.38L313.22,368.96L312.19,367.96L311.15,353.48L309.09,169.43L308.05,114.31L307.02,94.52L305.98,110.45L302.88,299L301.85,352.37L300.82,309.96L299.78,355.62L298.75,355.88L297.71,355.29L296.68,309.77L295.65,356.64L294.61,360.06L293.58,323.52L292.55,368.66L291.51,371.5L290.48,327.56L289.44,375.22L288.41,376.8L287.38,332.26L286.34,373.59L285.31,280.44L284.28,230.41L283.24,185.02L282.21,167.33L281.17,169.58L280.14,211.99L279.11,289.84L278.07,297.94L277.04,356.23L273.94,347.39L272.9,343.82L271.87,305.23L270.84,334.08L268.77,312.77L267.74,288.9L264.63,272.69L263.6,274.06L262.57,253.34L261.53,233.86L260.5,235.03L259.47,272.28L258.43,118.29L257.4,137.11L256.37,269.15L255.33,271.66L254.3,272.43L253.26,271.84L251.2,286.48L250.16,298.05L248.1,305.35L247.06,305.49L246.03,303.6L244.99,300.99L242.93,290.42L241.89,285.93L240.86,228.4L239.83,273.37L238.79,270.51L237.76,269.18L236.72,274.11L235.69,274.78L234.66,216.54L233.62,271.64L232.59,271.36L231.56,271.09L230.52,271.85L229.49,272.67L228.45,272.73L227.42,276.11L226.39,259.25L225.35,298.3L224.32,303.31L223.29,306.27L222.25,306.41L221.22,304.84L215.02,273.91L213.98,271.33L212.95,270.2L211.91,273.28L209.85,272.53L208.81,270.77L207.78,270.02L206.75,268.73L204.68,272.27L203.64,271.78L200.54,297.8L199.51,303.02L198.48,304.57L197.44,304.78L196.41,303.61L195.38,300.75L191.24,278.64L190.21,272.54L189.17,269.27L188.14,267.85L187.11,273.04L186.07,273.65L185.04,273.07L184,271.45L181.94,270.94L180.9,272.62L179.87,271.66L178.84,272.58L176.77,287.51L175.73,301.34L174.7,307.78L173.67,309.88L172.63,310.56L171.6,309.66L169.53,302.41L168.5,298.68L167.46,298.54L166.43,199.62L165.4,292.19L164.36,289.93L162.3,296.25L161.26,297.61L160.23,297.14L159.19,175.9L158.16,293.94L157.13,294.42L152.99,316.74L151.96,319.91L150.92,318.74L149.89,282.31L148.86,317.31L147.82,298.37L145.76,311.31L144.72,291.72L143.69,302.03L142.65,300.46L140.59,290.05L139.55,286.6L138.52,286.54L137.49,228.64L136.45,239.89L135.42,202.96L133.35,287.8L132.32,287.64L131.28,257.7L130.25,261.13L129.22,299.14L128.18,284.3L127.15,310L126.12,304.19L125.08,314.98L124.05,321.79L123.01,324.61L121.98,328.33L120.95,329.58L119.91,325.09L112.68,264.9L111.64,258.11L110.61,274.46L109.58,258.53L108.54,179.91L107.51,177.94L105.44,241.19L104.41,272.05L103.37,278.66L102.34,278.7L101.31,276.62L100.27,279.18L99.24,293.12L98.2,304.93L97.17,304.47L96.14,302.35L95.1,301.73L94.07,301.78L92,327.73L90.97,359.31L87.87,369.88L86.83,302.37L85.8,276.69L84.77,274.9L83.73,295.46L82.7,301.03L80.63,350.71L79.6,330.73L78.56,376.67L77.53,373.93L76.5,352.35L75.46,366.1L74.43,361.72L73.39,309.96L72.36,350.6L71.33,341.61L70.29,297.27L69.26,318.86L68.23,303.28L67.19,279.75L66.16,279.14L65.13,267.87L63.06,256.32L62.02,242.88L60.99,270.52L59.96,236.63L57.89,226.56L56.86,186.38L54.79,214.68L53.75,214.33L52.72,286.17L51.69,297.23L50.65,301.8L49.62,304.16L48.59,305.18L47.55,304.06L44.45,289.59L43.42,284.23L42.38,214.13L41.35,272.8L40.32,270.18L39.28,269.39L38.25,272.1L37.21,273.54L36.18,273.28L35.15,271.66L34.11,245.33L33.08,271.11L29.98,272.77L28.94,276.77L26.88,298.66L25.84,203.28L24.81,306.15L23.78,307.06L22.74,306.16L21.71,303.05L20.67,191.35L19.64,190.35L17.57,210.37L16.54,228.07L12.4,275.68L11.37,228.1L10.34,216.5L9.3,217.44L8.27,246.52L7.24,286.05L5.17,320.99L4.13,370.95L2.07,368.18L1.03,366.03L0,365.16Z" style="fill: rgb(32, 58, 95); fill-opacity: 0.5; stroke-width: 0;"/></g></g><g class="errorbars"/><g class="lines"><path class="js-line" d="M0,365.16L1.03,366.03L2.07,368.18L4.13,370.95L5.17,320.99L7.24,286.05L8.27,246.52L9.3,217.44L10.34,216.5L11.37,228.1L12.4,275.68L16.54,228.07L17.57,210.37L19.64,190.35L20.67,191.35L21.71,303.05L22.74,306.16L23.78,307.06L24.81,306.15L25.84,203.28L26.88,298.66L28.94,276.77L29.98,272.77L33.08,271.11L34.11,245.33L35.15,271.66L36.18,273.28L37.21,273.54L38.25,272.1L39.28,269.39L40.32,270.18L41.35,272.8L42.38,214.13L43.42,284.23L44.45,289.59L47.55,304.06L48.59,305.18L49.62,304.16L50.65,301.8L51.69,297.23L52.72,286.17L53.75,214.33L54.79,214.68L56.86,186.38L57.89,226.56L59.96,236.63L60.99,270.52L62.02,242.88L63.06,256.32L65.13,267.87L66.16,279.14L67.19,279.75L68.23,303.28L69.26,318.86L70.29,297.27L71.33,341.61L72.36,350.6L73.39,309.96L74.43,361.72L75.46,366.1L76.5,352.35L77.53,373.93L78.56,376.67L79.6,330.73L80.63,350.71L82.7,301.03L83.73,295.46L84.77,274.9L85.8,276.69L86.83,302.37L87.87,369.88L90.97,359.31L92,327.73L94.07,301.78L95.1,301.73L96.14,302.35L97.17,304.47L98.2,304.93L99.24,293.12L100.27,279.18L101.31,276.62L102.34,278.7L103.37,278.66L104.41,272.05L105.44,241.19L107.51,177.94L108.54,179.91L109.58,258.53L110.61,274.46L111.64,258.11L112.68,264.9L119.91,325.09L120.95,329.58L121.98,328.33L123.01,324.61L124.05,321.79L125.08,314.98L126.12,304.19L127.15,310L128.18,284.3L129.22,299.14L130.25,261.13L131.28,257.7L132.32,287.64L133.35,287.8L135.42,202.96L136.45,239.89L137.49,228.64L138.52,286.54L139.55,286.6L140.59,290.05L142.65,300.46L143.69,302.03L144.72,291.72L145.76,311.31L147.82,298.37L148.86,317.31L149.89,282.31L150.92,318.74L151.96,319.91L152.99,316.74L157.13,294.42L158.16,293.94L159.19,175.9L160.23,297.14L161.26,297.61L162.3,296.25L164.36,289.93L165.4,292.19L166.43,199.62L167.46,298.54L168.5,298.68L169.53,302.41L171.6,309.66L172.63,310.56L173.67,309.88L174.7,307.78L175.73,301.34L176.77,287.51L178.84,272.58L179.87,271.66L180.9,272.62L181.94,270.94L184,271.45L185.04,273.07L186.07,273.65L187.11,273.04L188.14,267.85L189.17,269.27L190.21,272.54L191.24,278.64L195.38,300.75L196.41,303.61L197.44,304.78L198.48,304.57L199.51,303.02L200.54,297.8L203.64,271.78L204.68,272.27L206.75,268.73L207.78,270.02L208.81,270.77L209.85,272.53L211.91,273.28L212.95,270.2L213.98,271.33L215.02,273.91L221.22,304.84L222.25,306.41L223.29,306.27L224.32,303.31L225.35,298.3L226.39,259.25L227.42,276.11L228.45,272.73L229.49,272.67L230.52,271.85L231.56,271.09L232.59,271.36L233.62,271.64L234.66,216.54L235.69,274.78L236.72,274.11L237.76,269.18L238.79,270.51L239.83,273.37L240.86,228.4L241.89,285.93L242.93,290.42L244.99,300.99L246.03,303.6L247.06,305.49L248.1,305.35L250.16,298.05L251.2,286.48L253.26,271.84L254.3,272.43L255.33,271.66L256.37,269.15L257.4,137.11L258.43,118.29L259.47,272.28L260.5,235.03L261.53,233.86L262.57,253.34L263.6,274.06L264.63,272.69L267.74,288.9L268.77,312.77L270.84,334.08L271.87,305.23L272.9,343.82L273.94,347.39L277.04,356.23L278.07,297.94L279.11,289.84L280.14,211.99L281.17,169.58L282.21,167.33L283.24,185.02L284.28,230.41L285.31,280.44L286.34,373.59L287.38,332.26L288.41,376.8L289.44,375.22L290.48,327.56L291.51,371.5L292.55,368.66L293.58,323.52L294.61,360.06L295.65,356.64L296.68,309.77L297.71,355.29L298.75,355.88L299.78,355.62L300.82,309.96L301.85,352.37L302.88,299L305.98,110.45L307.02,94.52L308.05,114.31L309.09,169.43L311.15,353.48L312.19,367.96L313.22,368.96L314.25,323.38L315.29,323.64L316.32,370.39L318.39,372.51L319.42,328.56L320.46,376.51L321.49,332.57L322.52,380.19L323.56,336.15L324.59,383.65L325.63,384.48L326.66,384.7L327.69,310.67L328.73,287.22L329.76,209.69L330.79,161.97L331.83,149.1L332.86,168.62L333.89,219.52L335.96,371.19L337,331.62L338.03,375.9L339.06,373.65L340.1,324.84L341.13,367.34L343.2,360.06L344.23,310.01L345.27,352.49L346.3,310.6L347.33,346.78L348.37,346.97L349.4,303.2L350.43,350.65L351.47,350.58L352.5,318.38L355.6,92.73L356.64,73.85L357.67,94.81L358.7,150.39L360.77,334.81L361.81,353.16L363.87,362.88L364.91,320.36L365.94,365.62L366.97,361.81L370.08,338.9L371.11,301.97L372.14,323.17L373.18,301.85L374.21,311.77L375.24,306.01L377.31,265.9L378.35,195.43L380.41,51.83L381.45,19.4L382.48,40.43L383.51,104.7L385.58,272.98L386.62,272L388.68,275.59L389.72,279.55L396.95,306.92L397.99,308.41L401.09,310.6L402.12,293.05L405.22,218.9L406.26,184.53L407.29,257.74L408.32,271.32L410.39,319.36L411.42,319.24L412.46,317.73L413.49,317.77L415.56,321.38L416.59,323.62L420.73,331.41L421.76,333.81L423.83,336.35L424.86,335.13L425.9,332.22L426.93,310L430.03,184.64L431.07,186.05L433.13,249.18L434.17,297.73L435.2,329.13L436.23,331.84L439.34,330.51L440.37,331.38L443.47,335.26L444.5,335.72L446.57,334.23L447.61,332.48L449.67,325.78L450.71,320.12L453.81,229.36L454.84,192.28L455.88,178.19L456.91,190.12L458.98,276.63L460.01,277.24L462.08,294.93L463.11,298.78L464.14,296.66L465.18,291.52L466.21,288.57L467.25,293.57L470.35,304.36L471.38,305.39L474.48,319.66L475.52,322.17L476.55,322.79L477.58,317.85L478.62,309.81L479.65,294.63L480.68,286.92L481.72,290.45L483.79,293.34L484.82,293.13L485.85,288.15L486.89,287.11L487.92,290.56L488.95,320.26L489.99,299.16L491.02,300.76L493.09,290.5L494.12,288.97L495.16,287.24L496.19,295.64L498.26,316.15L499.29,317.36L500.33,313.95L501.36,324.96L505.49,210.24L506.53,209.43L508.6,304.33L509.63,309.55L511.7,321.19L512.73,370.12L513.76,325.39L514.8,370.1L515.83,321.67L516.87,319.77L518.93,312L519.97,312.72L521,338.9" style="vector-effect: non-scaling-stroke; fill: none; stroke: rgb(66, 108, 245); stroke-opacity: 1; stroke-width: 0.5px; opacity: 1;"/></g><g class="points"/><g class="text"/></g><g class="trace scatter tracefa461f" style="stroke-miterlimit: 2;"><g class="fills"/><g class="errorbars"/><g class="lines"><path class="js-line" d="M0,318.01L1.03,314.99L2.07,307.96L4.13,283.29L5.17,279.02L6.2,278.57L7.24,276.64L9.3,217.44L10.34,216.5L11.37,228.1L12.4,275.68L16.54,228.07L17.57,210.37L19.64,190.35L20.67,191.35L21.71,303.05L22.74,306.16L23.78,307.06L24.81,306.15L25.84,203.28L26.88,298.66L28.94,276.77L29.98,272.77L33.08,271.11L34.11,245.33L35.15,271.66L36.18,273.28L37.21,273.54L38.25,272.1L39.28,269.39L40.32,270.18L41.35,272.8L42.38,214.13L43.42,284.23L44.45,289.59L47.55,304.06L48.59,305.18L49.62,304.16L50.65,301.8L51.69,297.23L52.72,286.17L53.75,214.33L54.79,214.68L56.86,186.38L57.89,226.56L59.96,236.63L60.99,270.52L62.02,242.88L63.06,256.32L65.13,267.87L66.16,272.56L70.29,297.27L71.33,301.38L73.39,306.34L74.43,306.35L75.46,304.93L76.5,300.5L78.56,280.33L79.6,275.91L80.63,276.18L81.66,274.5L82.7,273.77L83.73,274.15L84.77,274.9L85.8,276.69L87.87,277.31L88.9,274.04L90.97,277.2L92,282.42L95.1,296.48L96.14,299.87L98.2,304.37L99.24,293.12L100.27,279.18L101.31,276.62L102.34,278.7L103.37,275.72L104.41,271.3L105.44,241.19L107.51,177.94L108.54,179.91L109.58,258.53L110.61,274.46L111.64,258.11L112.68,264.9L113.71,271.97L114.74,273.29L115.78,275.52L116.81,282.75L121.98,307.1L123.01,309.56L125.08,312.18L126.12,304.19L127.15,310L128.18,284.3L129.22,299.14L130.25,261.13L131.28,257.7L132.32,287.64L133.35,287.8L134.38,247.63L135.42,202.96L136.45,239.89L137.49,228.64L138.52,286.54L139.55,286.6L140.59,290.05L142.65,300.46L143.69,302.03L144.72,291.72L145.76,311.31L147.82,298.37L148.86,317.31L149.89,282.31L150.92,318.74L151.96,319.91L152.99,316.74L157.13,294.42L158.16,293.94L159.19,175.9L160.23,297.14L161.26,297.61L162.3,296.25L164.36,289.93L165.4,292.19L166.43,199.62L167.46,298.54L168.5,298.68L169.53,302.41L171.6,309.66L172.63,310.56L173.67,309.88L174.7,307.78L175.73,301.34L176.77,287.51L178.84,272.58L179.87,271.66L180.9,272.62L181.94,270.94L184,271.45L185.04,273.07L186.07,273.65L187.11,273.04L188.14,267.85L189.17,269.27L190.21,272.54L191.24,278.64L195.38,300.75L196.41,303.61L197.44,304.78L198.48,304.57L199.51,303.02L200.54,297.8L203.64,271.78L204.68,272.27L206.75,268.73L207.78,270.02L208.81,270.77L209.85,272.53L211.91,273.28L212.95,270.2L213.98,271.33L215.02,273.91L221.22,304.84L222.25,306.41L223.29,306.27L224.32,303.31L225.35,298.3L226.39,259.25L227.42,276.11L228.45,272.73L229.49,272.67L230.52,271.85L231.56,271.09L232.59,271.36L233.62,271.64L234.66,216.54L235.69,274.78L236.72,274.11L237.76,269.18L238.79,270.51L239.83,273.37L240.86,228.4L241.89,285.93L242.93,290.42L244.99,300.99L246.03,303.6L247.06,305.49L248.1,305.35L250.16,298.05L251.2,286.48L253.26,271.84L254.3,272.43L255.33,271.66L256.37,269.15L257.4,137.11L258.43,118.29L259.47,272.28L260.5,235.03L261.53,233.86L262.57,253.34L263.6,269.97L264.63,272.69L270.84,303.15L271.87,305.23L272.9,305.43L273.94,303.69L274.97,299.61L276.01,288.21L278.07,274.53L279.11,273.73L281.17,169.58L282.21,167.33L283.24,185.02L284.28,230.41L285.31,280.44L286.34,280.85L287.38,276.22L288.41,276.33L289.44,279.1L290.48,285.26L295.65,306.54L296.68,308.12L298.75,310.61L299.78,310.98L300.82,309.96L301.85,305.46L302.88,299L303.92,232.01L305.98,110.45L307.02,94.52L308.05,114.31L309.09,169.43L311.15,296.4L312.19,289.67L313.22,288.54L314.25,291.43L316.32,302.06L317.36,303.19L321.49,314.99L322.52,316.01L325.63,318.64L326.66,316.01L327.69,310.67L328.73,287.22L330.79,161.97L331.83,149.1L332.86,168.62L333.89,219.52L334.93,298.9L335.96,303.09L338.03,292.19L339.06,294.09L341.13,301.23L342.16,299.94L345.27,309.21L346.3,310.6L347.33,310.34L348.37,308.2L349.4,301.87L350.43,288.1L351.47,277.12L352.5,274.57L353.54,235.93L354.57,142.67L356.64,73.85L357.67,94.81L360.77,277.8L361.81,272.87L362.84,271.75L363.87,273.52L369.04,297.65L370.08,299.83L372.14,303.02L373.18,301.85L374.21,296.89L375.24,284.86L377.31,265.9L378.35,195.43L380.41,51.83L381.45,19.4L382.48,40.43L383.51,104.7L385.58,272.98L386.62,268.41L387.65,267.98L388.68,269.99L392.82,291.79L393.85,295.59L395.92,300.08L396.95,300.71L397.99,300.26L399.02,295.02L401.09,273.1L402.12,270.22L403.15,269.1L404.19,254.45L406.26,184.53L407.29,257.74L408.32,271.32L409.36,272.73L410.39,273.24L411.42,268.8L412.46,269.35L413.49,271.66L418.66,295.94L419.69,299.11L420.73,301.27L421.76,301.3L422.8,300.38L423.83,296.25L425.9,275.38L426.93,272.1L427.96,255.37L429,204.27L430.03,184.64L431.07,186.05L434.17,273.13L435.2,273.68L436.23,270.97L437.27,270.84L438.3,273.22L439.34,279.19L444.5,300.11L445.54,301.81L446.57,303.01L447.61,301.8L448.64,297.03L449.67,285.65L451.74,272.92L452.77,271.27L454.84,192.28L455.88,178.19L456.91,190.12L457.94,222.4L458.98,276.63L460.01,277.24L461.04,272.52L462.08,271.97L463.11,274.36L464.14,281.25L468.28,298.2L469.31,301.83L471.38,305.39L472.41,305.8L473.45,306.21L474.48,305.26L478.62,286.52L479.65,285.79L480.68,286.92L481.72,290.45L483.79,293.34L484.82,293.13L485.85,288.15L486.89,287.11L491.02,300.76L492.06,292.77L495.16,287.24L496.19,295.64L498.26,316.15L499.29,317.36L501.36,310.11L502.39,295.51L505.49,210.24L506.53,209.43L508.6,303.88L509.63,302.94L511.7,294.51L512.73,295.84L514.8,301.74L515.83,301.24L518.93,312L519.97,312.72L521,311.73" style="vector-effect: non-scaling-stroke; fill: none; stroke: rgb(32, 58, 95); stroke-opacity: 1; stroke-width: 0.5px; opacity: 1;"/></g><g class="points"/><g class="text"/></g><g class="trace scatter tracec4996c" style="stroke-miterlimit: 2; opacity: 1;"><g class="fills"/><g class="errorbars"/><g class="lines"><path class="js-line" d="M0,318.01L1.03,314.99L2.07,307.96L4.13,283.29L5.17,279.02L6.2,278.57L7.24,276.64L8.27,275.23L9.3,276.02L11.37,276.82L12.4,277.73L13.44,276.46L14.47,272.66L15.51,273.79L16.54,277.65L22.74,306.16L23.78,307.06L24.81,306.15L25.84,303.48L26.88,298.66L27.91,286.57L29.98,272.77L31.01,272.27L34.11,270.96L35.15,271.66L37.21,273.54L38.25,272.1L39.28,269.39L40.32,270.18L41.35,272.8L42.38,278.4L47.55,304.06L48.59,305.18L49.62,304.16L50.65,301.8L51.69,297.23L52.72,286.17L54.79,272.28L55.82,271.91L57.89,268.08L58.92,269.69L59.96,269.52L60.99,270.52L62.02,271.98L63.06,271.83L64.09,268.39L65.13,269.76L66.16,272.56L67.19,279.75L72.36,304.82L73.39,306.34L74.43,306.35L75.46,304.93L76.5,300.5L77.53,289.35L79.6,275.91L80.63,276.18L82.7,273.77L83.73,274.15L84.77,274.9L85.8,276.69L87.87,277.31L88.9,274.04L90.97,277.2L92,282.42L95.1,296.48L96.14,299.87L98.2,304.37L99.24,303.95L100.27,302.47L101.31,298.27L103.37,275.72L104.41,271.3L106.47,269.47L107.51,268.28L108.54,269.05L109.58,271.09L111.64,275.81L112.68,275.68L113.71,271.97L114.74,273.29L115.78,275.52L116.81,282.75L121.98,307.1L123.01,309.56L125.08,312.18L126.12,311.77L127.15,310L128.18,305.32L131.28,290.48L132.32,287.64L133.35,287.8L134.38,290.13L136.45,292.73L137.49,290.8L138.52,286.54L139.55,286.6L141.62,295.89L142.65,300.46L143.69,302.03L144.72,305.96L146.79,314.99L147.82,316.86L150.92,318.74L151.96,319.91L154.03,311.24L155.06,304.35L157.13,294.42L158.16,293.94L161.26,297.61L162.3,296.25L164.36,289.93L165.4,292.19L167.46,298.54L168.5,298.68L171.6,309.66L172.63,310.56L173.67,309.88L174.7,307.78L175.73,301.34L176.77,287.51L178.84,272.58L179.87,271.66L180.9,272.62L181.94,270.94L184,271.45L185.04,273.07L186.07,273.65L187.11,273.04L188.14,267.85L189.17,269.27L190.21,272.54L191.24,278.64L195.38,300.75L196.41,303.61L197.44,304.78L198.48,304.57L199.51,303.02L200.54,297.8L203.64,271.78L204.68,272.27L206.75,268.73L207.78,270.02L208.81,270.77L209.85,272.53L211.91,273.28L212.95,270.2L213.98,271.33L215.02,273.91L221.22,304.84L222.25,306.41L223.29,306.27L224.32,303.31L225.35,298.3L226.39,286.85L228.45,272.73L229.49,272.67L231.56,271.09L232.59,271.36L233.62,271.64L234.66,273.77L235.69,274.78L236.72,274.11L237.76,269.18L238.79,270.51L239.83,273.37L240.86,280.68L246.03,303.6L247.06,305.49L248.1,305.35L249.13,302.65L250.16,298.05L251.2,286.48L253.26,271.84L254.3,272.43L256.37,270.14L257.4,270.6L258.43,270.87L259.47,272.28L261.53,274.66L262.57,270.11L263.6,269.97L264.63,272.69L270.84,303.15L271.87,305.23L272.9,305.43L273.94,303.69L274.97,299.61L276.01,288.21L278.07,274.53L279.11,273.73L281.17,274.4L282.21,276.04L284.28,279.9L285.31,280.44L286.34,280.85L287.38,276.22L288.41,276.33L289.44,279.1L292.55,293.58L293.58,298.78L295.65,306.54L296.68,308.12L298.75,310.61L299.78,310.98L300.82,309.96L301.85,305.46L303.92,293.45L304.95,291.16L305.98,290.24L307.02,292.3L309.09,299.19L310.12,298.81L311.15,296.4L312.19,289.67L313.22,288.54L314.25,291.43L316.32,302.06L317.36,303.19L321.49,314.99L322.52,316.01L325.63,318.64L326.66,316.01L329.76,301.69L330.79,299.17L331.83,299.33L332.86,301.79L334.93,305.68L335.96,303.09L338.03,292.19L339.06,294.09L341.13,301.23L342.16,299.94L345.27,309.21L346.3,310.6L347.33,310.34L348.37,308.2L349.4,301.87L350.43,288.1L351.47,277.12L352.5,274.57L355.6,272.25L356.64,274.03L357.67,274.42L358.7,276.44L359.74,278.1L360.77,277.8L361.81,272.87L362.84,271.75L363.87,273.52L364.91,278.62L369.04,297.65L370.08,299.83L372.14,303.02L373.18,301.85L374.21,296.89L375.24,284.86L377.31,271.41L378.35,270.25L381.45,269.34L382.48,270L385.58,272.98L386.62,268.41L387.65,267.98L388.68,269.99L392.82,291.79L393.85,295.59L395.92,300.08L396.95,300.71L397.99,300.26L399.02,295.02L401.09,273.1L402.12,270.22L405.22,267.93L406.26,268.56L410.39,273.24L411.42,268.8L412.46,269.35L413.49,271.66L418.66,295.94L419.69,299.11L420.73,301.27L421.76,301.3L422.8,300.38L423.83,296.25L425.9,275.38L426.93,272.1L430.03,269.7L431.07,270.69L433.13,272.49L434.17,273.13L435.2,273.68L436.23,270.97L437.27,270.84L438.3,273.22L442.44,293.74L443.47,297.51L445.54,301.81L446.57,303.01L447.61,301.8L448.64,297.03L450.71,276.65L451.74,272.92L453.81,269.71L454.84,270.03L455.88,270.72L456.91,273.02L460.01,277.24L461.04,272.52L462.08,271.97L463.11,274.36L465.18,286.14L466.21,288.57L469.31,301.83L470.35,304.36L472.41,305.8L473.45,306.21L474.48,305.26L475.52,300.3L478.62,286.52L479.65,285.79L480.68,286.92L481.72,290.45L483.79,293.34L484.82,293.13L485.85,288.15L486.89,287.11L495.16,315.14L496.19,315.75L497.22,315.4L498.26,316.15L499.29,317.36L500.33,313.95L504.46,297.37L505.49,297.38L507.56,302.87L508.6,303.88L509.63,302.94L510.66,297.12L511.7,294.51L512.73,295.84L514.8,301.74L515.83,301.24L518.93,312L519.97,312.72L521,311.73" style="vector-effect: non-scaling-stroke; fill: none; stroke: rgb(0, 0, 0); stroke-opacity: 1; stroke-width: 1px; opacity: 1;"/></g><g class="points"/><g class="text"/></g></g></g><g class="overplot"/><path class="xlines-above crisp" d="M0,0" style="fill: none;"/><path class="ylines-above crisp" d="M0,0" style="fill: none;"/><g class="overlines-above"/><g class="xaxislayer-above"><g class="xtick"><text text-anchor="middle" x="0" y="461" transform="translate(68,0)" style="font-family: 'Open Sans', verdana, arial, sans-serif; font-size: 12px; fill: rgb(42, 63, 95); fill-opacity: 1; white-space: pre;">0</text></g><g class="xtick"><text text-anchor="middle" x="0" y="461" transform="translate(171.37,0)" style="font-family: 'Open Sans', verdana, arial, sans-serif; font-size: 12px; fill: rgb(42, 63, 95); fill-opacity: 1; white-space: pre;">100</text></g><g class="xtick"><text text-anchor="middle" x="0" y="461" transform="translate(274.75,0)" style="font-family: 'Open Sans', verdana, arial, sans-serif; font-size: 12px; fill: rgb(42, 63, 95); fill-opacity: 1; white-space: pre;">200</text></g><g class="xtick"><text text-anchor="middle" x="0" y="461" transform="translate(378.12,0)" style="font-family: 'Open Sans', verdana, arial, sans-serif; font-size: 12px; fill: rgb(42, 63, 95); fill-opacity: 1; white-space: pre;">300</text></g><g class="xtick"><text text-anchor="middle" x="0" y="461" transform="translate(481.49,0)" style="font-family: 'Open Sans', verdana, arial, sans-serif; font-size: 12px; fill: rgb(42, 63, 95); fill-opacity: 1; white-space: pre;">400</text></g><g class="xtick"><text text-anchor="middle" x="0" y="461" transform="translate(584.87,0)" style="font-family: 'Open Sans', verdana, arial, sans-serif; font-size: 12px; fill: rgb(42, 63, 95); fill-opacity: 1; white-space: pre;">500</text></g></g><g class="yaxislayer-above"><g class="ytick"><text text-anchor="end" x="67" y="4.199999999999999" transform="translate(0,448)" style="font-family: 'Open Sans', verdana, arial, sans-serif; font-size: 12px; fill: rgb(42, 63, 95); fill-opacity: 1; white-space: pre;">0</text></g><g class="ytick"><text text-anchor="end" x="67" y="4.199999999999999" transform="translate(0,387.22)" style="font-family: 'Open Sans', verdana, arial, sans-serif; font-size: 12px; fill: rgb(42, 63, 95); fill-opacity: 1; white-space: pre;">50k</text></g><g class="ytick"><text text-anchor="end" x="67" y="4.199999999999999" transform="translate(0,326.44)" style="font-family: 'Open Sans', verdana, arial, sans-serif; font-size: 12px; fill: rgb(42, 63, 95); fill-opacity: 1; white-space: pre;">100k</text></g><g class="ytick"><text text-anchor="end" x="67" y="4.199999999999999" transform="translate(0,265.65999999999997)" style="font-family: 'Open Sans', verdana, arial, sans-serif; font-size: 12px; fill: rgb(42, 63, 95); fill-opacity: 1; white-space: pre;">150k</text></g><g class="ytick"><text text-anchor="end" x="67" y="4.199999999999999" transform="translate(0,204.87)" style="font-family: 'Open Sans', verdana, arial, sans-serif; font-size: 12px; fill: rgb(42, 63, 95); fill-opacity: 1; white-space: pre;">200k</text></g><g class="ytick"><text text-anchor="end" x="67" y="4.199999999999999" transform="translate(0,144.09)" style="font-family: 'Open Sans', verdana, arial, sans-serif; font-size: 12px; fill: rgb(42, 63, 95); fill-opacity: 1; white-space: pre;">250k</text></g><g class="ytick"><text text-anchor="end" x="67" y="4.199999999999999" transform="translate(0,83.31)" style="font-family: 'Open Sans', verdana, arial, sans-serif; font-size: 12px; fill: rgb(42, 63, 95); fill-opacity: 1; white-space: pre;">300k</text></g></g><g class="overaxes-above"/></g></g><g class="polarlayer"/><g class="ternarylayer"/><g class="geolayer"/><g class="funnelarealayer"/><g class="pielayer"/><g class="treemaplayer"/><g class="sunburstlayer"/><g class="glimages"/><defs id="topdefs-49e21a"><g class="clips"/><clipPath id="legend49e21a"><rect width="89" height="124" x="0" y="0"/></clipPath></defs><g class="layer-above"><g class="imagelayer"/><g class="shapelayer"/></g><g class="infolayer"><g class="legend" pointer-events="all" transform="translate(599.42,60)"><rect class="bg" shape-rendering="crispEdges" width="89" height="124" x="0" y="0" style="stroke: rgb(68, 68, 68); stroke-opacity: 1; fill: rgb(255, 255, 255); fill-opacity: 1; stroke-width: 0px;"/><g class="scrollbox" transform="" clip-path="url('#legend49e21a')"><g class="groups"><g class="traces" transform="translate(0,14.5)" style="opacity: 1;"><text class="legendtext" text-anchor="start" x="40" y="4.680000000000001" style="font-family: 'Open Sans', verdana, arial, sans-serif; font-size: 12px; fill: rgb(42, 63, 95); fill-opacity: 1; white-space: pre;">load</text><g class="layers" style="opacity: 1;"><g class="legendfill"/><g class="legendlines"><path class="js-line" d="M5,0h30" style="fill: none; stroke: rgb(0, 0, 0); stroke-opacity: 1; stroke-width: 1px;"/></g><g class="legendsymbols"><g class="legendpoints"/></g></g><rect class="legendtoggle" x="0" y="-9.5" width="83.515625" height="19" style="fill: rgb(0, 0, 0); fill-opacity: 0;"/></g><g class="traces" transform="translate(0,33.5)" style="opacity: 1;"><text class="legendtext" text-anchor="start" x="40" y="4.680000000000001" style="font-family: 'Open Sans', verdana, arial, sans-serif; font-size: 12px; fill: rgb(42, 63, 95); fill-opacity: 1; white-space: pre;">battery</text><g class="layers"><g class="legendfill"><path class="js-fill" d="M5,-2h30v6h-30z" style="stroke-width: 0; fill: rgb(32, 58, 95); fill-opacity: 0.5;"/></g><g class="legendlines"><path class="js-line" d="M5,-2h30" style="fill: none; stroke: rgb(32, 58, 95); stroke-opacity: 1; stroke-width: 0.5px;"/></g><g class="legendsymbols"><g class="legendpoints"/></g></g><rect class="legendtoggle" x="0" y="-9.5" width="83.515625" height="19" style="fill: rgb(0, 0, 0); fill-opacity: 0;"/></g><g class="traces" transform="translate(0,52.5)" style="opacity: 1;"><text class="legendtext" text-anchor="start" x="40" y="4.680000000000001" style="font-family: 'Open Sans', verdana, arial, sans-serif; font-size: 12px; fill: rgb(42, 63, 95); fill-opacity: 1; white-space: pre;">Hydro</text><g class="layers"><g class="legendfill"><path class="js-fill" d="M5,-2h30v6h-30z" style="stroke-width: 0; fill: rgb(66, 108, 245); fill-opacity: 0.5;"/></g><g class="legendlines"><path class="js-line" d="M5,-2h30" style="fill: none; stroke: rgb(66, 108, 245); stroke-opacity: 1; stroke-width: 0.5px;"/></g><g class="legendsymbols"><g class="legendpoints"/></g></g><rect class="legendtoggle" x="0" y="-9.5" width="83.515625" height="19" style="fill: rgb(0, 0, 0); fill-opacity: 0;"/></g><g class="traces" transform="translate(0,71.5)" style="opacity: 1;"><text class="legendtext" text-anchor="start" x="40" y="4.680000000000001" style="font-family: 'Open Sans', verdana, arial, sans-serif; font-size: 12px; fill: rgb(42, 63, 95); fill-opacity: 1; white-space: pre;">Gas</text><g class="layers"><g class="legendfill"><path class="js-fill" d="M5,-2h30v6h-30z" style="stroke-width: 0; fill: rgb(245, 66, 66); fill-opacity: 0.5;"/></g><g class="legendlines"><path class="js-line" d="M5,-2h30" style="fill: none; stroke: rgb(245, 66, 66); stroke-opacity: 1; stroke-width: 0.5px;"/></g><g class="legendsymbols"><g class="legendpoints"/></g></g><rect class="legendtoggle" x="0" y="-9.5" width="83.515625" height="19" style="fill: rgb(0, 0, 0); fill-opacity: 0;"/></g><g class="traces" transform="translate(0,90.5)" style="opacity: 1;"><text class="legendtext" text-anchor="start" x="40" y="4.680000000000001" style="font-family: 'Open Sans', verdana, arial, sans-serif; font-size: 12px; fill: rgb(42, 63, 95); fill-opacity: 1; white-space: pre;">PV</text><g class="layers"><g class="legendfill"><path class="js-fill" d="M5,-2h30v6h-30z" style="stroke-width: 0; fill: rgb(245, 236, 66); fill-opacity: 0.5;"/></g><g class="legendlines"><path class="js-line" d="M5,-2h30" style="fill: none; stroke: rgb(245, 236, 66); stroke-opacity: 1; stroke-width: 0.5px;"/></g><g class="legendsymbols"><g class="legendpoints"/></g></g><rect class="legendtoggle" x="0" y="-9.5" width="83.515625" height="19" style="fill: rgb(0, 0, 0); fill-opacity: 0;"/></g><g class="traces" transform="translate(0,109.5)" style="opacity: 1;"><text class="legendtext" text-anchor="start" x="40" y="4.680000000000001" style="font-family: 'Open Sans', verdana, arial, sans-serif; font-size: 12px; fill: rgb(42, 63, 95); fill-opacity: 1; white-space: pre;">Wind</text><g class="layers"><g class="legendfill"><path class="js-fill" d="M5,-2h30v6h-30z" style="stroke-width: 0; fill: rgb(248, 3, 252); fill-opacity: 0.5;"/></g><g class="legendlines"><path class="js-line" d="M5,-2h30" style="fill: none; stroke: rgb(248, 3, 252); stroke-opacity: 1; stroke-width: 0.5px;"/></g><g class="legendsymbols"><g class="legendpoints"/></g></g><rect class="legendtoggle" x="0" y="-9.5" width="83.515625" height="19" style="fill: rgb(0, 0, 0); fill-opacity: 0;"/></g></g></g><rect class="scrollbar" rx="20" ry="3" width="0" height="0" x="0" y="0" style="fill: rgb(128, 139, 164); fill-opacity: 1;"/></g><g class="g-gtitle"><text class="gtitle" x="35" y="30" text-anchor="start" dy="0em" style="font-family: 'Open Sans', verdana, arial, sans-serif; font-size: 17px; fill: rgb(42, 63, 95); opacity: 1; font-weight: normal; white-space: pre;">Energy production in Germany between hour 147 and 651</text></g><g class="g-xtitle"><text class="xtitle" x="328.5" y="488.3" text-anchor="middle" style="font-family: 'Open Sans', verdana, arial, sans-serif; font-size: 14px; fill: rgb(42, 63, 95); opacity: 1; font-weight: normal; white-space: pre;">Hours</text></g><g class="g-ytitle" transform="translate(1.7998046875,0)"><text class="ytitle" transform="rotate(-90,12.200000000000003,254)" x="12.200000000000003" y="254" text-anchor="middle" style="font-family: 'Open Sans', verdana, arial, sans-serif; font-size: 14px; fill: rgb(42, 63, 95); opacity: 1; font-weight: normal; white-space: pre;">MWh</text></g></g></svg>