<svg class="main-svg" xmlns="http://www.w3.org/2000/svg" xmlns:xlink="http://www.w3.org/1999/xlink" width="700" height="500" style="" viewBox="0 0 700 500"><rect x="0" y="0" width="700" height="500" style="fill: rgb(255, 255, 255); fill-opacity: 1;"/><defs id="defs-75fb6b"><g class="clips"><clipPath id="clip75fb6bxyplot" class="plotclip"><rect width="528" height="388"/></clipPath><clipPath class="axesclip" id="clip75fb6bx"><rect x="68" y="0" width="528" height="500"/></clipPath><clipPath class="axesclip" id="clip75fb6by"><rect x="0" y="60" width="700" height="388"/></clipPath><clipPath class="axesclip" id="clip75fb6bxy"><rect x="68" y="60" width="528" height="388"/></clipPath></g><g class="gradients"/></defs><g class="bglayer"><rect class="bg" x="68" y="60" width="528" height="388" style="fill: rgb(229, 236, 246); fill-opacity: 1; stroke-width: 0;"/></g><g class="layer-below"><g class="imagelayer"/><g class="shapelayer"/></g><g class="cartesianlayer"><g class="subplot xy"><g class="layer-subplot"><g class="shapelayer"/><g class="imagelayer"/></g><g class="gridlayer"><g class="x"><path class="xgrid crisp" transform="translate(172.76,0)" d="M0,60v388" style="stroke: rgb(255, 255, 255); stroke-opacity: 1; stroke-width: 1px;"/><path class="xgrid crisp" transform="translate(277.52,0)" d="M0,60v388" style="stroke: rgb(255, 255, 255); stroke-opacity: 1; stroke-width: 1px;"/><path class="xgrid crisp" transform="translate(382.29,0)" d="M0,60v388" style="stroke: rgb(255, 255, 255); stroke-opacity: 1; stroke-width: 1px;"/><path class="xgrid crisp" transform="translate(487.05,0)" d="M0,60v388" style="stroke: rgb(255, 255, 255); stroke-opacity: 1; stroke-width: 1px;"/><path class="xgrid crisp" transform="translate(591.81,0)" d="M0,60v388" style="stroke: rgb(255, 255, 255); stroke-opacity: 1; stroke-width: 1px;"/></g><g class="y"><path class="ygrid crisp" transform="translate(0,373.41)" d="M68,0h528" style="stroke: rgb(255, 255, 255); stroke-opacity: 1; stroke-width: 1px;"/><path class="ygrid crisp" transform="translate(0,298.83000000000004)" d="M68,0h528" style="stroke: rgb(255, 255, 255); stroke-opacity: 1; stroke-width: 1px;"/><path class="ygrid crisp" transform="translate(0,224.24)" d="M68,0h528" style="stroke: rgb(255, 255, 255); stroke-opacity: 1; stroke-width: 1px;"/><path class="ygrid crisp" transform="translate(0,149.66)" d="M68,0h528" style="stroke: rgb(255, 255, 255); stroke-opacity: 1; stroke-width: 1px;"/><path class="ygrid crisp" transform="translate(0,75.07)" d="M68,0h528" style="stroke: rgb(255, 255, 255); stroke-opacity: 1; stroke-width: 1px;"/></g></g><g class="zerolinelayer"><path class="xzl zl crisp" transform="translate(68,0)" d="M0,60v388" style="stroke: rgb(255, 255, 255); stroke-opacity: 1; stroke-width: 2px;"/><path class="yzl zl crisp" transform="translate(0,448)" d="M68,0h528" style="stroke: rgb(255, 255, 255); stroke-opacity: 1; stroke-width: 2px;"/></g><path class="xlines-below"/><path class="ylines-below"/><g class="overlines-below"/><g class="xaxislayer-below"/><g class="yaxislayer-below"/><g class="overaxes-below"/><g class="plot" transform="translate(68,60)" clip-path="url('#clip75fb6bxyplot')"><g class="scatterlayer mlayer"><g class="trace scatter trace767672" style="stroke-miterlimit: 2;"><g class="fills"><g><path class="js-fill" d="M528,388L0,388L0,335.27L1.05,337.29L2.1,342.24L4.19,348.65L5.24,344.06L6.29,326.28L7.33,293.7L10.48,171.77L11.52,147.27L14.67,81.15L15.71,57.46L16.76,49.48L17.81,64.28L23.05,136.92L24.1,139.7L25.14,136.91L26.19,128.71L27.24,113.91L28.29,76.82L30.38,34.51L31.43,32.96L32.48,44.53L33.52,69.08L34.57,58.67L35.62,34.78L37.71,36.86L38.76,32.44L39.81,24.12L40.86,26.54L41.9,34.6L42.95,51.78L48.19,130.5L49.24,133.92L50.29,130.81L51.33,123.57L52.38,109.55L53.43,75.6L55.52,33.43L56.57,31.87L58.67,20.1L59.71,29.43L61.81,46.45L62.86,67.66L67.05,136.71L68.1,168.99L70.19,228.39L71.24,259.3L74.38,313.8L75.43,327.34L79.62,361.84L80.67,368.65L82.76,375.42L83.81,375.83L84.86,372.7L85.9,366.18L90.1,336.28L91.14,327.34L94.29,308.45L95.33,294.91L96.38,283.24L97.43,259.91L100.57,168.99L101.62,136.81L102.67,130.9L103.71,135.7L105.81,135.25L106.86,126.56L110,85.54L111.05,89.13L112.1,81.3L113.14,88.17L116.29,143.13L117.33,168.43L121.52,242.78L122.57,253.14L123.62,250.26L124.67,241.67L125.71,235.16L126.76,219.45L132,100.95L133.05,88.81L134.1,86.86L135.14,80.95L137.24,93.14L138.29,95.74L139.33,90L140.38,76.74L141.43,76.92L142.48,87.52L148.76,194.24L149.81,181.11L150.86,171.14L151.9,171.65L154,179.13L155.05,169.39L159.24,100.92L160.29,99.45L163.43,112.26L164.48,106.53L166.57,87.14L167.62,94.07L169.71,113.55L170.76,114L173.9,147.66L174.95,150.43L176,148.33L177.05,141.89L178.1,122.16L179.14,79.72L181.24,33.92L182.29,31.09L183.33,34.03L184.38,28.89L185.43,30.43L186.48,30.45L188.57,37.2L189.62,35.66L190.67,19.4L191.71,23.77L194.86,71.34L195.9,85L198,120.33L199.05,129.12L200.1,132.69L201.14,132.06L202.19,127.3L203.24,111.29L204.29,78.67L205.33,95.65L206.38,108.88L207.43,109.64L208.48,107.77L209.52,113.88L210.57,119.28L211.62,105.04L212.67,48.92L213.71,35.39L214.76,36.06L215.81,26.61L216.86,30.07L217.9,37.99L224.19,132.88L225.24,137.69L226.29,137.27L227.33,128.2L229.43,90.8L230.48,60.04L231.52,35.19L232.57,34.18L234.67,29.33L235.71,30.17L236.76,31.02L237.81,37.56L238.86,40.68L239.9,38.6L240.95,23.49L242,27.55L243.05,36.34L244.1,58.76L249.33,129.06L250.38,134.87L251.43,134.46L252.48,126.15L253.52,112.06L254.57,76.55L255.62,55.79L256.67,68.12L257.71,79.63L258.76,78.32L264,38.87L265.05,41.7L268.19,137.62L269.24,133.98L270.29,148.58L271.33,183.18L274.48,263.54L275.52,276.62L279.71,309.66L280.76,314.66L282.86,313.14L283.9,318.6L288.1,363.7L289.14,366.48L290.19,366.94L291.24,365.27L294.38,354.41L295.43,349.92L297.52,333.7L298.57,323.5L300.67,313.35L301.71,312.49L302.76,313.85L303.81,313.24L305.9,305.87L306.95,301.48L308,297.59L309.05,296.93L310.1,297.79L311.14,300.92L316.38,341.73L317.43,344.06L319.52,345.37L320.57,347.34L322.67,352.24L323.71,356.73L328.95,377.95L330,379.87L331.05,380.37L332.1,379.92L335.24,375.52L336.29,373.05L338.38,368.25L339.43,367.14L341.52,363.81L342.57,360.07L344.67,348.15L345.71,340.32L352,292.84L353.05,293.29L355.14,301.78L356.19,302.44L358.29,304.41L359.33,301.98L362.48,287.38L363.52,285.77L364.57,289.71L365.62,296.68L369.81,337.79L370.86,336.33L372.95,312.34L374,294.05L378.19,224.65L379.24,212.02L383.43,158.33L384.48,154.54L385.52,155.65L386.57,163.18L390.76,220.71L391.81,226.16L393.9,234.45L394.95,243.59L402.29,306.78L403.33,310.21L406.48,315.27L407.52,318.3L409.62,332.24L410.67,341.38L412.76,351.68L413.81,351.33L414.86,348L415.9,341.48L418,331.73L419.05,331.83L420.1,334.86L421.14,340.17L428.48,373.15L429.52,374.72L430.57,371.89L431.62,365.17L433.71,348.9L434.76,348.4L438.95,362.9L440,363.96L442.1,364.31L443.14,363.3L445.24,361.23L446.29,363.25L449.43,372.19L450.48,373.25L451.52,372.24L452.57,369.82L454.67,359.36L455.71,350.32L457.81,321.93L458.86,299.05L460.95,236.37L462,223.79L463.05,216.37L464.1,219.9L465.14,226.92L466.19,241.42L468.29,279.1L469.33,287.99L470.38,283.09L471.43,271.22L474.57,248.94L475.62,251.47L477.71,297.89L478.76,316.78L481.9,341.99L482.95,347.39L485.05,361.33L486.1,362.19L488.19,337.24L489.24,318.8L492.38,259.8L493.43,249.65L494.48,233.84L495.52,231.62L496.57,219.65L497.62,195.61L498.67,168.18L499.71,162.93L500.76,159.39L501.81,164.49L502.86,174.8L503.9,204.39L506,256.67L507.05,268.14L508.1,275.21L509.14,276.83L511.24,287.84L512.29,294.96L514.38,304.71L515.43,316.43L518.57,339.71L519.62,346.73L520.67,349.41L521.71,346.68L523.81,336.43L524.86,323.04L528,274.65" style="fill: rgb(248, 3, 252); fill-opacity: 0.5; stroke-width: 0;"/></g><g><path class="js-fill" d="M0,335.27L1.05,337.29L2.1,342.24L4.19,348.65L5.24,342.74L7.33,258.15L8.38,196.57L10.48,122.51L11.52,112.07L12.57,112.93L13.62,101.88L16.76,49.48L17.81,64.28L23.05,136.92L24.1,139.7L25.14,136.91L26.19,128.71L27.24,113.91L28.29,76.82L30.38,34.51L31.43,32.96L32.48,31.11L33.52,44.53L34.57,29.4L35.62,31.08L36.67,36.05L37.71,36.86L38.76,32.44L39.81,24.12L40.86,26.54L41.9,34.6L48.19,130.5L49.24,133.92L50.29,130.81L51.33,123.57L52.38,109.55L53.43,75.6L55.52,32.98L56.57,31.87L58.67,20.1L59.71,25.06L60.76,24.51L61.81,29.56L63.9,83.96L64.95,93.73L67.05,136.71L68.1,168.99L70.19,228.39L71.24,259.3L74.38,313.8L75.43,327.34L79.62,361.84L80.67,366.76L83.81,324.13L84.86,318.32L85.9,313.84L86.95,319.46L89.05,346.95L90.1,336.28L92.19,321.78L93.24,317.89L96.38,283.24L97.43,259.91L100.57,168.99L101.62,136.81L102.67,130.9L103.71,135.7L104.76,135.6L105.81,131.16L108.95,39.37L110,36.77L114.19,103.76L115.24,125.4L118.38,188.28L119.43,209.29L122.57,253.14L123.62,250.26L125.71,235.16L126.76,219.45L132,100.95L133.05,88.81L134.1,80.11L135.14,80.62L137.24,93.14L138.29,95.74L139.33,89.8L140.38,76.74L141.43,76.92L142.48,87.52L148.76,194.24L149.81,181.11L150.86,171.14L151.9,171.65L154,179.13L155.05,169.39L159.24,100.92L160.29,99.45L162.38,109.26L163.43,110.71L164.48,106.53L165.52,93.15L166.57,87.14L167.62,94.07L169.71,113.55L170.76,114L173.9,147.66L174.95,150.43L176,148.33L177.05,141.89L178.1,122.16L179.14,79.72L181.24,33.92L182.29,31.09L183.33,34.03L184.38,28.89L185.43,30.43L186.48,30.45L188.57,37.2L189.62,35.34L190.67,19.4L191.71,23.77L194.86,71.34L195.9,85L198,120.33L199.05,129.12L200.1,132.69L201.14,132.06L202.19,127.3L203.24,111.29L204.29,78.67L205.33,95.65L206.38,102.41L207.43,76.5L209.52,22.1L210.57,26.05L211.62,28.35L212.67,33.77L214.76,36.06L215.81,26.61L216.86,30.07L217.9,37.99L224.19,132.88L225.24,137.69L226.29,137.27L227.33,128.2L229.43,90.8L230.48,60.04L231.52,34.38L232.57,34.18L234.67,29.33L235.71,30.17L236.76,31.02L237.81,37.56L238.86,40.68L239.9,38.6L240.95,23.49L242,27.55L243.05,36.34L244.1,58.76L249.33,129.06L250.38,134.87L251.43,134.46L252.48,126.15L253.52,112.06L254.57,76.55L255.62,55.76L256.67,55.09L258.76,31.09L259.81,26.44L261.9,28.67L262.95,32.98L264,38.87L265.05,40.29L268.19,137.62L269.24,133.98L270.29,148.58L271.33,183.18L274.48,263.54L275.52,276.62L279.71,309.66L280.76,314.66L281.81,306.41L282.86,271.54L284.95,209L286,217.95L287.05,237.07L288.1,270.63L290.19,363.59L291.24,365.27L294.38,354.41L295.43,349.92L297.52,333.7L298.57,323.5L300.67,313.35L301.71,312.49L302.76,313.85L303.81,313.24L305.9,305.84L306.95,279.47L310.1,146.87L311.14,139.06L312.19,157.49L313.24,200.21L315.33,329.02L316.38,341.73L318.48,344.76L319.52,345.37L322.67,352.24L323.71,356.73L328.95,377.95L330,379.87L331.05,380.37L332.1,362.13L335.24,235.9L336.29,225.96L337.33,236.26L338.38,267.04L340.48,361.38L341.52,363.81L343.62,354.87L344.67,348.15L352,292.84L353.05,293.29L355.14,301.78L356.19,302.21L357.24,282.31L358.29,231.08L360.38,134.66L361.43,118.43L362.48,129.42L363.52,163.42L366.67,307.59L367.71,320.11L369.81,337.79L370.86,336.33L372.95,312.34L374,294.05L378.19,224.65L379.24,212.02L381.33,183.64L382.38,151.98L385.52,23.21L386.57,23.97L387.62,26L388.67,69.54L390.76,211.03L391.81,226.16L393.9,234.45L394.95,243.59L402.29,306.78L403.33,310.21L406.48,315.27L407.52,306.36L409.62,263L410.67,254.13L411.71,259.68L412.76,279.2L414.86,328.79L415.9,339.84L418,331.73L419.05,331.83L420.1,334.86L421.14,340.17L428.48,373.15L429.52,374.72L430.57,371.89L431.62,365.17L432.67,344.55L433.71,304.73L435.81,262.06L436.86,266.18L441.05,362.56L442.1,364.31L445.24,361.23L446.29,363.25L449.43,372.19L450.48,373.25L451.52,372.24L452.57,369.82L454.67,359.36L455.71,350.32L456.76,337.24L457.81,310.45L460.95,154.07L462,136.02L463.05,138.19L464.1,161.19L467.24,265.21L468.29,279.1L469.33,287.99L470.38,283.09L472.48,262.78L473.52,256.42L474.57,248.94L475.62,251.47L477.71,297.89L478.76,316.78L481.9,341.99L482.95,346.3L484,348.52L485.05,348.2L487.14,325.8L488.19,312.05L494.48,233.84L495.52,231.62L496.57,219.65L497.62,195.61L498.67,168.18L499.71,162.93L500.76,159.39L501.81,164.49L502.86,174.8L503.9,204.39L506,256.67L507.05,268.14L508.1,266.23L509.14,248.77L512.29,207.97L513.33,210.28L515.43,283.1L516.48,322.56L518.57,339.71L519.62,346.73L520.67,349.41L521.71,346.68L523.81,336.43L524.86,323.04L528,274.65L528,274.65L524.86,323.04L523.81,336.43L521.71,346.68L520.67,349.41L519.62,346.73L518.57,339.71L515.43,316.43L514.38,304.71L512.29,294.96L511.24,287.84L509.14,276.83L508.1,275.21L507.05,268.14L506,256.67L503.9,204.39L502.86,174.8L501.81,164.49L500.76,159.39L499.71,162.93L498.67,168.18L497.62,195.61L496.57,219.65L495.52,231.62L494.48,233.84L493.43,249.65L492.38,259.8L489.24,318.8L488.19,337.24L486.1,362.19L485.05,361.33L482.95,347.39L481.9,341.99L478.76,316.78L477.71,297.89L475.62,251.47L474.57,248.94L471.43,271.22L470.38,283.09L469.33,287.99L468.29,279.1L466.19,241.42L465.14,226.92L464.1,219.9L463.05,216.37L462,223.79L460.95,236.37L458.86,299.05L457.81,321.93L455.71,350.32L454.67,359.36L452.57,369.82L451.52,372.24L450.48,373.25L449.43,372.19L446.29,363.25L445.24,361.23L443.14,363.3L442.1,364.31L440,363.96L438.95,362.9L434.76,348.4L433.71,348.9L431.62,365.17L430.57,371.89L429.52,374.72L428.48,373.15L421.14,340.17L420.1,334.86L419.05,331.83L418,331.73L415.9,341.48L414.86,348L413.81,351.33L412.76,351.68L410.67,341.38L409.62,332.24L407.52,318.3L406.48,315.27L403.33,310.21L402.29,306.78L394.95,243.59L393.9,234.45L391.81,226.16L390.76,220.71L386.57,163.18L385.52,155.65L384.48,154.54L383.43,158.33L379.24,212.02L378.19,224.65L374,294.05L372.95,312.34L370.86,336.33L369.81,337.79L365.62,296.68L364.57,289.71L363.52,285.77L362.48,287.38L359.33,301.98L358.29,304.41L356.19,302.44L355.14,301.78L353.05,293.29L352,292.84L345.71,340.32L344.67,348.15L342.57,360.07L341.52,363.81L339.43,367.14L338.38,368.25L336.29,373.05L335.24,375.52L332.1,379.92L331.05,380.37L330,379.87L328.95,377.95L323.71,356.73L322.67,352.24L320.57,347.34L319.52,345.37L317.43,344.06L316.38,341.73L311.14,300.92L310.1,297.79L309.05,296.93L308,297.59L306.95,301.48L305.9,305.87L303.81,313.24L302.76,313.85L301.71,312.49L300.67,313.35L298.57,323.5L297.52,333.7L295.43,349.92L294.38,354.41L291.24,365.27L290.19,366.94L289.14,366.48L288.1,363.7L283.9,318.6L282.86,313.14L280.76,314.66L279.71,309.66L275.52,276.62L274.48,263.54L271.33,183.18L270.29,148.58L269.24,133.98L268.19,137.62L265.05,41.7L264,38.87L258.76,78.32L257.71,79.63L256.67,68.12L255.62,55.79L254.57,76.55L253.52,112.06L252.48,126.15L251.43,134.46L250.38,134.87L249.33,129.06L244.1,58.76L243.05,36.34L242,27.55L240.95,23.49L239.9,38.6L238.86,40.68L237.81,37.56L236.76,31.02L235.71,30.17L234.67,29.33L232.57,34.18L231.52,35.19L230.48,60.04L229.43,90.8L227.33,128.2L226.29,137.27L225.24,137.69L224.19,132.88L217.9,37.99L216.86,30.07L215.81,26.61L214.76,36.06L213.71,35.39L212.67,48.92L211.62,105.04L210.57,119.28L209.52,113.88L208.48,107.77L207.43,109.64L206.38,108.88L205.33,95.65L204.29,78.67L203.24,111.29L202.19,127.3L201.14,132.06L200.1,132.69L199.05,129.12L198,120.33L195.9,85L194.86,71.34L191.71,23.77L190.67,19.4L189.62,35.66L188.57,37.2L186.48,30.45L185.43,30.43L184.38,28.89L183.33,34.03L182.29,31.09L181.24,33.92L179.14,79.72L178.1,122.16L177.05,141.89L176,148.33L174.95,150.43L173.9,147.66L170.76,114L169.71,113.55L167.62,94.07L166.57,87.14L164.48,106.53L163.43,112.26L160.29,99.45L159.24,100.92L155.05,169.39L154,179.13L151.9,171.65L150.86,171.14L149.81,181.11L148.76,194.24L142.48,87.52L141.43,76.92L140.38,76.74L139.33,90L138.29,95.74L137.24,93.14L135.14,80.95L134.1,86.86L133.05,88.81L132,100.95L126.76,219.45L125.71,235.16L124.67,241.67L123.62,250.26L122.57,253.14L121.52,242.78L117.33,168.43L116.29,143.13L113.14,88.17L112.1,81.3L111.05,89.13L110,85.54L106.86,126.56L105.81,135.25L103.71,135.7L102.67,130.9L101.62,136.81L100.57,168.99L97.43,259.91L96.38,283.24L95.33,294.91L94.29,308.45L91.14,327.34L90.1,336.28L85.9,366.18L84.86,372.7L83.81,375.83L82.76,375.42L80.67,368.65L79.62,361.84L75.43,327.34L74.38,313.8L71.24,259.3L70.19,228.39L68.1,168.99L67.05,136.71L62.86,67.66L61.81,46.45L59.71,29.43L58.67,20.1L56.57,31.87L55.52,33.43L53.43,75.6L52.38,109.55L51.33,123.57L50.29,130.81L49.24,133.92L48.19,130.5L42.95,51.78L41.9,34.6L40.86,26.54L39.81,24.12L38.76,32.44L37.71,36.86L35.62,34.78L34.57,58.67L33.52,69.08L32.48,44.53L31.43,32.96L30.38,34.51L28.29,76.82L27.24,113.91L26.19,128.71L25.14,136.91L24.1,139.7L23.05,136.92L17.81,64.28L16.76,49.48L15.71,57.46L14.67,81.15L11.52,147.27L10.48,171.77L7.33,293.7L6.29,326.28L5.24,344.06L4.19,348.65L2.1,342.24L1.05,337.29L0,335.27Z" style="fill: rgb(245, 236, 66); fill-opacity: 0.5; stroke-width: 0;"/></g></g><g class="errorbars"/><g class="lines"><path class="js-line" d="M0,335.27L1.05,337.29L2.1,342.24L4.19,348.65L5.24,344.06L6.29,326.28L7.33,293.7L10.48,171.77L11.52,147.27L14.67,81.15L15.71,57.46L16.76,49.48L17.81,64.28L23.05,136.92L24.1,139.7L25.14,136.91L26.19,128.71L27.24,113.91L28.29,76.82L30.38,34.51L31.43,32.96L32.48,44.53L33.52,69.08L34.57,58.67L35.62,34.78L37.71,36.86L38.76,32.44L39.81,24.12L40.86,26.54L41.9,34.6L42.95,51.78L48.19,130.5L49.24,133.92L50.29,130.81L51.33,123.57L52.38,109.55L53.43,75.6L55.52,33.43L56.57,31.87L58.67,20.1L59.71,29.43L61.81,46.45L62.86,67.66L67.05,136.71L68.1,168.99L70.19,228.39L71.24,259.3L74.38,313.8L75.43,327.34L79.62,361.84L80.67,368.65L82.76,375.42L83.81,375.83L84.86,372.7L85.9,366.18L90.1,336.28L91.14,327.34L94.29,308.45L95.33,294.91L96.38,283.24L97.43,259.91L100.57,168.99L101.62,136.81L102.67,130.9L103.71,135.7L105.81,135.25L106.86,126.56L110,85.54L111.05,89.13L112.1,81.3L113.14,88.17L116.29,143.13L117.33,168.43L121.52,242.78L122.57,253.14L123.62,250.26L124.67,241.67L125.71,235.16L126.76,219.45L132,100.95L133.05,88.81L134.1,86.86L135.14,80.95L137.24,93.14L138.29,95.74L139.33,90L140.38,76.74L141.43,76.92L142.48,87.52L148.76,194.24L149.81,181.11L150.86,171.14L151.9,171.65L154,179.13L155.05,169.39L159.24,100.92L160.29,99.45L163.43,112.26L164.48,106.53L166.57,87.14L167.62,94.07L169.71,113.55L170.76,114L173.9,147.66L174.95,150.43L176,148.33L177.05,141.89L178.1,122.16L179.14,79.72L181.24,33.92L182.29,31.09L183.33,34.03L184.38,28.89L185.43,30.43L186.48,30.45L188.57,37.2L189.62,35.66L190.67,19.4L191.71,23.77L194.86,71.34L195.9,85L198,120.33L199.05,129.12L200.1,132.69L201.14,132.06L202.19,127.3L203.24,111.29L204.29,78.67L205.33,95.65L206.38,108.88L207.43,109.64L208.48,107.77L209.52,113.88L210.57,119.28L211.62,105.04L212.67,48.92L213.71,35.39L214.76,36.06L215.81,26.61L216.86,30.07L217.9,37.99L224.19,132.88L225.24,137.69L226.29,137.27L227.33,128.2L229.43,90.8L230.48,60.04L231.52,35.19L232.57,34.18L234.67,29.33L235.71,30.17L236.76,31.02L237.81,37.56L238.86,40.68L239.9,38.6L240.95,23.49L242,27.55L243.05,36.34L244.1,58.76L249.33,129.06L250.38,134.87L251.43,134.46L252.48,126.15L253.52,112.06L254.57,76.55L255.62,55.79L256.67,68.12L257.71,79.63L258.76,78.32L264,38.87L265.05,41.7L268.19,137.62L269.24,133.98L270.29,148.58L271.33,183.18L274.48,263.54L275.52,276.62L279.71,309.66L280.76,314.66L282.86,313.14L283.9,318.6L288.1,363.7L289.14,366.48L290.19,366.94L291.24,365.27L294.38,354.41L295.43,349.92L297.52,333.7L298.57,323.5L300.67,313.35L301.71,312.49L302.76,313.85L303.81,313.24L305.9,305.87L306.95,301.48L308,297.59L309.05,296.93L310.1,297.79L311.14,300.92L316.38,341.73L317.43,344.06L319.52,345.37L320.57,347.34L322.67,352.24L323.71,356.73L328.95,377.95L330,379.87L331.05,380.37L332.1,379.92L335.24,375.52L336.29,373.05L338.38,368.25L339.43,367.14L341.52,363.81L342.57,360.07L344.67,348.15L345.71,340.32L352,292.84L353.05,293.29L355.14,301.78L356.19,302.44L358.29,304.41L359.33,301.98L362.48,287.38L363.52,285.77L364.57,289.71L365.62,296.68L369.81,337.79L370.86,336.33L372.95,312.34L374,294.05L378.19,224.65L379.24,212.02L383.43,158.33L384.48,154.54L385.52,155.65L386.57,163.18L390.76,220.71L391.81,226.16L393.9,234.45L394.95,243.59L402.29,306.78L403.33,310.21L406.48,315.27L407.52,318.3L409.62,332.24L410.67,341.38L412.76,351.68L413.81,351.33L414.86,348L415.9,341.48L418,331.73L419.05,331.83L420.1,334.86L421.14,340.17L428.48,373.15L429.52,374.72L430.57,371.89L431.62,365.17L433.71,348.9L434.76,348.4L438.95,362.9L440,363.96L442.1,364.31L443.14,363.3L445.24,361.23L446.29,363.25L449.43,372.19L450.48,373.25L451.52,372.24L452.57,369.82L454.67,359.36L455.71,350.32L457.81,321.93L458.86,299.05L460.95,236.37L462,223.79L463.05,216.37L464.1,219.9L465.14,226.92L466.19,241.42L468.29,279.1L469.33,287.99L470.38,283.09L471.43,271.22L474.57,248.94L475.62,251.47L477.71,297.89L478.76,316.78L481.9,341.99L482.95,347.39L485.05,361.33L486.1,362.19L488.19,337.24L489.24,318.8L492.38,259.8L493.43,249.65L494.48,233.84L495.52,231.62L496.57,219.65L497.62,195.61L498.67,168.18L499.71,162.93L500.76,159.39L501.81,164.49L502.86,174.8L503.9,204.39L506,256.67L507.05,268.14L508.1,275.21L509.14,276.83L511.24,287.84L512.29,294.96L514.38,304.71L515.43,316.43L518.57,339.71L519.62,346.73L520.67,349.41L521.71,346.68L523.81,336.43L524.86,323.04L528,274.65" style="vector-effect: non-scaling-stroke; fill: none; stroke: rgb(248, 3, 252); stroke-opacity: 1; stroke-width: 0.5px; opacity: 1;"/></g><g class="points"/><g class="text"/></g><g class="trace scatter trace0be850" style="stroke-miterlimit: 2;"><g class="fills"><g><path class="js-fill" d="M0,173.29L1.05,164.02L2.1,142.45L4.19,66.76L5.24,53.68L6.29,52.28L7.33,46.36L8.38,42.04L9.43,44.46L10.48,44.62L11.52,46.92L12.57,49.71L13.62,45.81L14.67,34.17L15.71,37.62L19.9,91.67L20.95,109.51L23.05,136.92L24.1,139.7L25.14,136.91L26.19,128.71L27.24,113.91L28.29,76.82L30.38,34.51L31.43,32.96L34.57,28.94L35.62,31.08L36.67,36.05L37.71,36.86L38.76,32.44L39.81,24.12L40.86,26.54L41.9,34.6L48.19,130.5L49.24,133.92L50.29,130.81L51.33,123.57L52.38,109.55L53.43,75.6L55.52,32.98L56.57,31.87L58.67,20.1L59.71,25.06L60.76,24.51L61.81,27.58L62.86,32.06L63.9,31.61L64.95,21.06L66,25.25L67.05,33.84L68.1,55.93L73.33,132.81L74.38,137.49L75.43,137.53L76.48,133.16L77.52,119.58L78.57,85.36L80.67,44.12L81.71,44.97L83.81,37.55L84.86,38.73L85.9,41.03L86.95,46.53L88,48.66L89.05,48.44L90.1,38.4L91.14,41.74L92.19,48.1L93.24,64.09L96.38,107.24L97.43,117.62L99.52,131.45L100.57,130.15L101.62,125.62L102.67,112.74L104.76,43.56L105.81,29.98L107.9,24.38L108.95,20.73L110,23.07L111.05,29.34L113.14,43.82L114.19,43.43L115.24,32.05L116.29,36.09L117.33,42.94L118.38,65.12L123.62,139.83L124.67,147.36L126.76,155.41L127.81,154.14L128.86,148.72L129.9,134.37L133.05,88.81L134.1,80.11L135.14,80.62L136.19,87.75L138.29,95.74L139.33,89.8L140.38,76.74L141.43,76.92L143.52,105.42L144.57,119.43L145.62,124.27L146.67,136.32L148.76,164.02L149.81,169.74L151.9,171.65L152.95,175.52L154,179.13L155.05,169.39L159.24,100.92L160.29,99.45L162.38,109.26L163.43,110.71L164.48,106.53L165.52,93.15L166.57,87.14L167.62,94.07L169.71,113.55L170.76,114L173.9,147.66L174.95,150.43L176,148.33L177.05,141.89L178.1,122.16L179.14,79.72L181.24,33.92L182.29,31.09L183.33,34.03L184.38,28.89L185.43,30.43L186.48,30.45L188.57,37.2L189.62,35.34L190.67,19.4L191.71,23.77L192.76,33.8L193.81,52.49L198,120.33L199.05,129.12L200.1,132.69L201.14,132.06L202.19,127.3L203.24,111.29L206.38,31.46L207.43,32.97L209.52,22.1L210.57,26.05L211.62,28.35L212.67,33.77L214.76,36.06L215.81,26.61L216.86,30.07L217.9,37.99L224.19,132.88L225.24,137.69L226.29,137.27L227.33,128.2L228.38,112.83L229.43,77.7L231.52,34.38L232.57,34.18L234.67,29.33L235.71,30.17L236.76,31.02L237.81,37.56L238.86,40.68L239.9,38.6L240.95,23.49L242,27.55L243.05,36.34L244.1,58.76L249.33,129.06L250.38,134.87L251.43,134.46L252.48,126.15L253.52,112.06L254.57,76.55L256.67,31.66L257.71,33.46L258.76,31.09L259.81,26.44L261.9,28.67L262.95,32.98L264,38.87L265.05,40.29L266.1,26.34L267.14,25.9L268.19,34.24L269.24,51.48L273.43,116.49L274.48,127.69L275.52,134.09L276.57,134.69L277.62,129.35L278.67,116.84L280.76,50.44L281.81,39.9L282.86,37.44L283.9,39.53L284.95,39.5L286,44.53L288.1,56.39L289.14,58.03L290.19,59.29L291.24,45.08L292.29,45.41L293.33,53.91L296.48,98.35L297.52,114.28L299.62,138.1L300.67,142.93L302.76,150.59L303.81,151.71L304.86,148.58L305.9,134.78L308,97.92L309.05,90.9L310.1,88.09L311.14,94.41L313.24,115.54L314.29,114.38L315.33,107L316.38,86.36L317.43,82.89L318.48,91.73L320.57,124.37L321.62,127.83L325.81,164.02L326.86,167.15L328.95,171.7L330,175.22L331.05,167.16L332.1,150.78L334.19,123.23L335.24,115.48L336.29,115.98L337.33,123.54L339.43,135.44L340.48,127.51L342.57,94.08L343.62,99.9L345.71,121.8L346.76,117.84L349.9,146.28L350.95,150.56L352,149.76L353.05,143.18L354.1,123.76L355.14,81.51L356.19,47.83L357.24,40.03L360.38,32.91L361.43,38.38L362.48,39.56L363.52,45.77L364.57,50.84L365.62,49.94L366.67,34.8L367.71,31.36L368.76,36.81L369.81,52.45L374,110.82L375.05,117.5L377.14,127.29L378.19,123.71L379.24,108.5L380.29,71.59L382.38,30.34L383.43,26.76L385.52,23.21L386.57,23.97L388.67,28.23L389.71,31.69L390.76,35.14L391.81,21.14L392.86,19.8L393.9,25.96L398.1,92.85L399.14,104.5L401.24,118.27L402.29,120.22L403.33,118.82L404.38,102.76L406.48,35.5L407.52,26.68L409.62,20.09L410.67,19.64L411.71,21.6L412.76,25.78L415.9,35.93L416.95,22.33L418,24.02L419.05,31.08L423.24,93.47L424.29,105.59L426.38,121.94L427.43,122.01L428.48,119.2L429.52,106.54L431.62,42.52L432.67,32.43L435.81,25.08L436.86,28.1L437.9,29.66L438.95,33.65L441.05,37.29L442.1,28.97L443.14,28.57L444.19,35.88L448.38,98.84L449.43,110.4L451.52,123.59L452.57,127.27L453.62,123.55L454.67,108.92L456.76,46.41L457.81,34.95L459.9,25.12L460.95,26.1L462,28.19L463.05,35.25L465.14,46.35L466.19,48.22L467.24,33.72L468.29,32.05L469.33,39.39L470.38,60.53L474.57,112.51L475.62,123.65L477.71,134.58L478.76,135.83L479.81,137.08L480.86,134.16L485.05,76.69L486.1,74.43L487.14,77.9L488.19,88.72L490.29,97.61L491.33,96.95L492.38,81.69L493.43,78.5L501.81,164.49L502.86,166.35L503.9,165.27L504.95,167.57L506,171.28L507.05,160.83L511.24,109.95L512.29,109.99L514.38,126.85L515.43,129.94L516.48,127.05L517.52,109.21L518.57,101.21L519.62,105.27L521.71,123.38L522.76,121.85L525.9,154.85L526.95,157.05L528,154.03L528,274.65L524.86,323.04L523.81,336.43L521.71,346.68L520.67,349.41L519.62,346.73L518.57,339.71L516.48,322.56L515.43,283.1L513.33,210.28L512.29,207.97L509.14,248.77L508.1,266.23L507.05,268.14L506,256.67L503.9,204.39L502.86,174.8L501.81,164.49L500.76,159.39L499.71,162.93L498.67,168.18L497.62,195.61L496.57,219.65L495.52,231.62L494.48,233.84L488.19,312.05L487.14,325.8L485.05,348.2L484,348.52L482.95,346.3L481.9,341.99L478.76,316.78L477.71,297.89L475.62,251.47L474.57,248.94L473.52,256.42L472.48,262.78L470.38,283.09L469.33,287.99L468.29,279.1L467.24,265.21L464.1,161.19L463.05,138.19L462,136.02L460.95,154.07L457.81,310.45L456.76,337.24L455.71,350.32L454.67,359.36L452.57,369.82L451.52,372.24L450.48,373.25L449.43,372.19L446.29,363.25L445.24,361.23L442.1,364.31L441.05,362.56L436.86,266.18L435.81,262.06L433.71,304.73L432.67,344.55L431.62,365.17L430.57,371.89L429.52,374.72L428.48,373.15L421.14,340.17L420.1,334.86L419.05,331.83L418,331.73L415.9,339.84L414.86,328.79L412.76,279.2L411.71,259.68L410.67,254.13L409.62,263L407.52,306.36L406.48,315.27L403.33,310.21L402.29,306.78L394.95,243.59L393.9,234.45L391.81,226.16L390.76,211.03L388.67,69.54L387.62,26L386.57,23.97L385.52,23.21L382.38,151.98L381.33,183.64L379.24,212.02L378.19,224.65L374,294.05L372.95,312.34L370.86,336.33L369.81,337.79L367.71,320.11L366.67,307.59L363.52,163.42L362.48,129.42L361.43,118.43L360.38,134.66L358.29,231.08L357.24,282.31L356.19,302.21L355.14,301.78L353.05,293.29L352,292.84L344.67,348.15L343.62,354.87L341.52,363.81L340.48,361.38L338.38,267.04L337.33,236.26L336.29,225.96L335.24,235.9L332.1,362.13L331.05,380.37L330,379.87L328.95,377.95L323.71,356.73L322.67,352.24L319.52,345.37L318.48,344.76L316.38,341.73L315.33,329.02L313.24,200.21L312.19,157.49L311.14,139.06L310.1,146.87L306.95,279.47L305.9,305.84L303.81,313.24L302.76,313.85L301.71,312.49L300.67,313.35L298.57,323.5L297.52,333.7L295.43,349.92L294.38,354.41L291.24,365.27L290.19,363.59L288.1,270.63L287.05,237.07L286,217.95L284.95,209L282.86,271.54L281.81,306.41L280.76,314.66L279.71,309.66L275.52,276.62L274.48,263.54L271.33,183.18L270.29,148.58L269.24,133.98L268.19,137.62L265.05,40.29L264,38.87L262.95,32.98L261.9,28.67L259.81,26.44L258.76,31.09L256.67,55.09L255.62,55.76L254.57,76.55L253.52,112.06L252.48,126.15L251.43,134.46L250.38,134.87L249.33,129.06L244.1,58.76L243.05,36.34L242,27.55L240.95,23.49L239.9,38.6L238.86,40.68L237.81,37.56L236.76,31.02L235.71,30.17L234.67,29.33L232.57,34.18L231.52,34.38L230.48,60.04L229.43,90.8L227.33,128.2L226.29,137.27L225.24,137.69L224.19,132.88L217.9,37.99L216.86,30.07L215.81,26.61L214.76,36.06L212.67,33.77L211.62,28.35L210.57,26.05L209.52,22.1L207.43,76.5L206.38,102.41L205.33,95.65L204.29,78.67L203.24,111.29L202.19,127.3L201.14,132.06L200.1,132.69L199.05,129.12L198,120.33L195.9,85L194.86,71.34L191.71,23.77L190.67,19.4L189.62,35.34L188.57,37.2L186.48,30.45L185.43,30.43L184.38,28.89L183.33,34.03L182.29,31.09L181.24,33.92L179.14,79.72L178.1,122.16L177.05,141.89L176,148.33L174.95,150.43L173.9,147.66L170.76,114L169.71,113.55L167.62,94.07L166.57,87.14L165.52,93.15L164.48,106.53L163.43,110.71L162.38,109.26L160.29,99.45L159.24,100.92L155.05,169.39L154,179.13L151.9,171.65L150.86,171.14L149.81,181.11L148.76,194.24L142.48,87.52L141.43,76.92L140.38,76.74L139.33,89.8L138.29,95.74L137.24,93.14L135.14,80.62L134.1,80.11L133.05,88.81L132,100.95L126.76,219.45L125.71,235.16L123.62,250.26L122.57,253.14L119.43,209.29L118.38,188.28L115.24,125.4L114.19,103.76L110,36.77L108.95,39.37L105.81,131.16L104.76,135.6L103.71,135.7L102.67,130.9L101.62,136.81L100.57,168.99L97.43,259.91L96.38,283.24L93.24,317.89L92.19,321.78L90.1,336.28L89.05,346.95L86.95,319.46L85.9,313.84L84.86,318.32L83.81,324.13L80.67,366.76L79.62,361.84L75.43,327.34L74.38,313.8L71.24,259.3L70.19,228.39L68.1,168.99L67.05,136.71L64.95,93.73L63.9,83.96L61.81,29.56L60.76,24.51L59.71,25.06L58.67,20.1L56.57,31.87L55.52,32.98L53.43,75.6L52.38,109.55L51.33,123.57L50.29,130.81L49.24,133.92L48.19,130.5L41.9,34.6L40.86,26.54L39.81,24.12L38.76,32.44L37.71,36.86L36.67,36.05L35.62,31.08L34.57,29.4L33.52,44.53L32.48,31.11L31.43,32.96L30.38,34.51L28.29,76.82L27.24,113.91L26.19,128.71L25.14,136.91L24.1,139.7L23.05,136.92L17.81,64.28L16.76,49.48L13.62,101.88L12.57,112.93L11.52,112.07L10.48,122.51L8.38,196.57L7.33,258.15L5.24,342.74L4.19,348.65L2.1,342.24L1.05,337.29L0,335.27Z" style="fill: rgb(245, 66, 66); fill-opacity: 0.5; stroke-width: 0;"/></g></g><g class="errorbars"/><g class="lines"><path class="js-line" d="M0,335.27L1.05,337.29L2.1,342.24L4.19,348.65L5.24,342.74L7.33,258.15L8.38,196.57L10.48,122.51L11.52,112.07L12.57,112.93L13.62,101.88L16.76,49.48L17.81,64.28L23.05,136.92L24.1,139.7L25.14,136.91L26.19,128.71L27.24,113.91L28.29,76.82L30.38,34.51L31.43,32.96L32.48,31.11L33.52,44.53L34.57,29.4L35.62,31.08L36.67,36.05L37.71,36.86L38.76,32.44L39.81,24.12L40.86,26.54L41.9,34.6L48.19,130.5L49.24,133.92L50.29,130.81L51.33,123.57L52.38,109.55L53.43,75.6L55.52,32.98L56.57,31.87L58.67,20.1L59.71,25.06L60.76,24.51L61.81,29.56L63.9,83.96L64.95,93.73L67.05,136.71L68.1,168.99L70.19,228.39L71.24,259.3L74.38,313.8L75.43,327.34L79.62,361.84L80.67,366.76L83.81,324.13L84.86,318.32L85.9,313.84L86.95,319.46L89.05,346.95L90.1,336.28L92.19,321.78L93.24,317.89L96.38,283.24L97.43,259.91L100.57,168.99L101.62,136.81L102.67,130.9L103.71,135.7L104.76,135.6L105.81,131.16L108.95,39.37L110,36.77L114.19,103.76L115.24,125.4L118.38,188.28L119.43,209.29L122.57,253.14L123.62,250.26L125.71,235.16L126.76,219.45L132,100.95L133.05,88.81L134.1,80.11L135.14,80.62L137.24,93.14L138.29,95.74L139.33,89.8L140.38,76.74L141.43,76.92L142.48,87.52L148.76,194.24L149.81,181.11L150.86,171.14L151.9,171.65L154,179.13L155.05,169.39L159.24,100.92L160.29,99.45L162.38,109.26L163.43,110.71L164.48,106.53L165.52,93.15L166.57,87.14L167.62,94.07L169.71,113.55L170.76,114L173.9,147.66L174.95,150.43L176,148.33L177.05,141.89L178.1,122.16L179.14,79.72L181.24,33.92L182.29,31.09L183.33,34.03L184.38,28.89L185.43,30.43L186.48,30.45L188.57,37.2L189.62,35.34L190.67,19.4L191.71,23.77L194.86,71.34L195.9,85L198,120.33L199.05,129.12L200.1,132.69L201.14,132.06L202.19,127.3L203.24,111.29L204.29,78.67L205.33,95.65L206.38,102.41L207.43,76.5L209.52,22.1L210.57,26.05L211.62,28.35L212.67,33.77L214.76,36.06L215.81,26.61L216.86,30.07L217.9,37.99L224.19,132.88L225.24,137.69L226.29,137.27L227.33,128.2L229.43,90.8L230.48,60.04L231.52,34.38L232.57,34.18L234.67,29.33L235.71,30.17L236.76,31.02L237.81,37.56L238.86,40.68L239.9,38.6L240.95,23.49L242,27.55L243.05,36.34L244.1,58.76L249.33,129.06L250.38,134.87L251.43,134.46L252.48,126.15L253.52,112.06L254.57,76.55L255.62,55.76L256.67,55.09L258.76,31.09L259.81,26.44L261.9,28.67L262.95,32.98L264,38.87L265.05,40.29L268.19,137.62L269.24,133.98L270.29,148.58L271.33,183.18L274.48,263.54L275.52,276.62L279.71,309.66L280.76,314.66L281.81,306.41L282.86,271.54L284.95,209L286,217.95L287.05,237.07L288.1,270.63L290.19,363.59L291.24,365.27L294.38,354.41L295.43,349.92L297.52,333.7L298.57,323.5L300.67,313.35L301.71,312.49L302.76,313.85L303.81,313.24L305.9,305.84L306.95,279.47L310.1,146.87L311.14,139.06L312.19,157.49L313.24,200.21L315.33,329.02L316.38,341.73L318.48,344.76L319.52,345.37L322.67,352.24L323.71,356.73L328.95,377.95L330,379.87L331.05,380.37L332.1,362.13L335.24,235.9L336.29,225.96L337.33,236.26L338.38,267.04L340.48,361.38L341.52,363.81L343.62,354.87L344.67,348.15L352,292.84L353.05,293.29L355.14,301.78L356.19,302.21L357.24,282.31L358.29,231.08L360.38,134.66L361.43,118.43L362.48,129.42L363.52,163.42L366.67,307.59L367.71,320.11L369.81,337.79L370.86,336.33L372.95,312.34L374,294.05L378.19,224.65L379.24,212.02L381.33,183.64L382.38,151.98L385.52,23.21L386.57,23.97L387.62,26L388.67,69.54L390.76,211.03L391.81,226.16L393.9,234.45L394.95,243.59L402.29,306.78L403.33,310.21L406.48,315.27L407.52,306.36L409.62,263L410.67,254.13L411.71,259.68L412.76,279.2L414.86,328.79L415.9,339.84L418,331.73L419.05,331.83L420.1,334.86L421.14,340.17L428.48,373.15L429.52,374.72L430.57,371.89L431.62,365.17L432.67,344.55L433.71,304.73L435.81,262.06L436.86,266.18L441.05,362.56L442.1,364.31L445.24,361.23L446.29,363.25L449.43,372.19L450.48,373.25L451.52,372.24L452.57,369.82L454.67,359.36L455.71,350.32L456.76,337.24L457.81,310.45L460.95,154.07L462,136.02L463.05,138.19L464.1,161.19L467.24,265.21L468.29,279.1L469.33,287.99L470.38,283.09L472.48,262.78L473.52,256.42L474.57,248.94L475.62,251.47L477.71,297.89L478.76,316.78L481.9,341.99L482.95,346.3L484,348.52L485.05,348.2L487.14,325.8L488.19,312.05L494.48,233.84L495.52,231.62L496.57,219.65L497.62,195.61L498.67,168.18L499.71,162.93L500.76,159.39L501.81,164.49L502.86,174.8L503.9,204.39L506,256.67L507.05,268.14L508.1,266.23L509.14,248.77L512.29,207.97L513.33,210.28L515.43,283.1L516.48,322.56L518.57,339.71L519.62,346.73L520.67,349.41L521.71,346.68L523.81,336.43L524.86,323.04L528,274.65" style="vector-effect: non-scaling-stroke; fill: none; stroke: rgb(245, 236, 66); stroke-opacity: 1; stroke-width: 0.5px; opacity: 1;"/></g><g class="points"/><g class="text"/></g><g class="trace scatter trace156ae5" style="stroke-miterlimit: 2;"><g class="fills"><g><path class="js-fill" d="M0,173.29L1.05,164.02L2.1,142.45L4.19,66.76L5.24,53.68L6.29,52.28L7.33,46.36L8.38,42.04L9.43,44.46L10.48,44.62L11.52,46.92L12.57,49.71L13.62,45.81L14.67,34.17L15.71,37.62L19.9,91.67L20.95,109.51L23.05,136.92L24.1,139.7L25.14,136.91L26.19,128.71L27.24,113.91L28.29,76.82L30.38,34.51L31.43,32.96L34.57,28.94L35.62,31.08L36.67,36.05L37.71,36.86L38.76,32.44L39.81,24.12L40.86,26.54L41.9,34.6L48.19,130.5L49.24,133.92L50.29,130.81L51.33,123.57L52.38,109.55L53.43,75.6L55.52,32.98L56.57,31.87L58.67,20.1L59.71,25.06L60.76,24.51L61.81,27.58L62.86,32.06L63.9,31.61L64.95,21.06L66,25.25L67.05,33.84L68.1,55.93L73.33,132.81L74.38,137.49L75.43,137.53L76.48,133.16L77.52,119.58L78.57,85.36L80.67,44.12L81.71,44.97L83.81,37.55L84.86,38.73L85.9,41.03L86.95,46.53L88,48.66L89.05,48.44L90.1,38.4L91.14,41.74L92.19,48.1L93.24,64.09L96.38,107.24L97.43,117.62L99.52,131.45L100.57,130.15L101.62,125.62L102.67,112.74L104.76,43.56L105.81,29.98L107.9,24.38L108.95,20.73L110,23.07L111.05,29.34L113.14,43.82L114.19,43.43L115.24,32.05L116.29,36.09L117.33,42.94L118.38,65.12L123.62,139.83L124.67,147.36L126.76,155.41L127.81,154.14L128.86,148.72L129.9,134.37L133.05,88.81L134.1,80.11L135.14,80.62L136.19,87.75L138.29,95.74L139.33,89.8L140.38,76.74L141.43,76.92L143.52,105.42L144.57,119.43L145.62,124.27L146.67,136.32L148.76,164.02L149.81,169.74L151.9,171.65L152.95,175.52L154,179.13L155.05,169.39L159.24,100.92L160.29,99.45L162.38,109.26L163.43,110.71L164.48,106.53L165.52,93.15L166.57,87.14L167.62,94.07L169.71,113.55L170.76,114L173.9,147.66L174.95,150.43L176,148.33L177.05,141.89L178.1,122.16L179.14,79.72L181.24,33.92L182.29,31.09L183.33,34.03L184.38,28.89L185.43,30.43L186.48,30.45L188.57,37.2L189.62,35.34L190.67,19.4L191.71,23.77L192.76,33.8L193.81,52.49L198,120.33L199.05,129.12L200.1,132.69L201.14,132.06L202.19,127.3L203.24,111.29L206.38,31.46L207.43,32.97L209.52,22.1L210.57,26.05L211.62,28.35L212.67,33.77L214.76,36.06L215.81,26.61L216.86,30.07L217.9,37.99L224.19,132.88L225.24,137.69L226.29,137.27L227.33,128.2L228.38,112.83L229.43,77.7L231.52,34.38L232.57,34.18L234.67,29.33L235.71,30.17L236.76,31.02L237.81,37.56L238.86,40.68L239.9,38.6L240.95,23.49L242,27.55L243.05,36.34L244.1,58.76L249.33,129.06L250.38,134.87L251.43,134.46L252.48,126.15L253.52,112.06L254.57,76.55L256.67,31.66L257.71,33.46L258.76,31.09L259.81,26.44L261.9,28.67L262.95,32.98L264,38.87L265.05,40.29L266.1,26.34L267.14,25.9L268.19,34.24L269.24,51.48L273.43,116.49L274.48,127.69L275.52,134.09L276.57,134.69L277.62,129.35L278.67,116.84L280.76,50.44L281.81,39.9L282.86,37.44L283.9,39.53L284.95,39.5L286,44.53L288.1,56.39L289.14,58.03L290.19,59.29L291.24,45.08L292.29,45.41L293.33,53.91L296.48,98.35L297.52,114.28L299.62,138.1L300.67,142.93L302.76,150.59L303.81,151.71L304.86,148.58L305.9,134.78L308,97.92L309.05,90.9L310.1,88.09L311.14,94.41L313.24,115.54L314.29,114.38L315.33,107L316.38,86.36L317.43,82.89L318.48,91.73L320.57,124.37L321.62,127.83L325.81,164.02L326.86,167.15L328.95,171.7L330,175.22L331.05,167.16L332.1,150.78L334.19,123.23L335.24,115.48L336.29,115.98L337.33,123.54L339.43,135.44L340.48,127.51L342.57,94.08L343.62,99.9L345.71,121.8L346.76,117.84L349.9,146.28L350.95,150.56L352,149.76L353.05,143.18L354.1,123.76L355.14,81.51L356.19,47.83L357.24,40.03L360.38,32.91L361.43,38.38L362.48,39.56L363.52,45.77L364.57,50.84L365.62,49.94L366.67,34.8L367.71,31.36L368.76,36.81L369.81,52.45L374,110.82L375.05,117.5L377.14,127.29L378.19,123.71L379.24,108.5L380.29,71.59L382.38,30.34L383.43,26.76L385.52,23.21L386.57,23.97L388.67,28.23L389.71,31.69L390.76,35.14L391.81,21.14L392.86,19.8L393.9,25.96L398.1,92.85L399.14,104.5L401.24,118.27L402.29,120.22L403.33,118.82L404.38,102.76L406.48,35.5L407.52,26.68L409.62,20.09L410.67,19.64L411.71,21.6L412.76,25.78L415.9,35.93L416.95,22.33L418,24.02L419.05,31.08L423.24,93.47L424.29,105.59L426.38,121.94L427.43,122.01L428.48,119.2L429.52,106.54L431.62,42.52L432.67,32.43L435.81,25.08L436.86,28.1L437.9,29.66L438.95,33.65L441.05,37.29L442.1,28.97L443.14,28.57L444.19,35.88L448.38,98.84L449.43,110.4L451.52,123.59L452.57,127.27L453.62,123.55L454.67,108.92L456.76,46.41L457.81,34.95L459.9,25.12L460.95,26.1L462,28.19L463.05,35.25L465.14,46.35L466.19,48.22L467.24,33.72L468.29,32.05L469.33,39.39L470.38,60.53L474.57,112.51L475.62,123.65L477.71,134.58L478.76,135.83L479.81,137.08L480.86,134.16L485.05,76.69L486.1,74.43L487.14,77.9L488.19,88.72L490.29,97.61L491.33,96.95L492.38,81.69L493.43,78.5L501.81,164.49L502.86,166.35L503.9,165.27L504.95,167.57L506,171.28L507.05,160.83L511.24,109.95L512.29,109.99L514.38,126.85L515.43,129.94L516.48,127.05L517.52,109.21L518.57,101.21L519.62,105.27L521.71,123.38L522.76,121.85L525.9,154.85L526.95,157.05L528,154.03L528,154.03L526.95,157.05L525.9,154.85L522.76,121.85L521.71,123.38L519.62,105.27L518.57,101.21L517.52,109.21L516.48,127.05L515.43,129.94L514.38,126.85L512.29,109.99L511.24,109.95L507.05,160.83L506,171.28L504.95,167.57L503.9,165.27L502.86,166.35L501.81,164.49L493.43,78.5L492.38,81.69L491.33,96.95L490.29,97.61L488.19,88.72L487.14,77.9L486.1,74.43L485.05,76.69L480.86,134.16L479.81,137.08L478.76,135.83L477.71,134.58L475.62,123.65L474.57,112.51L470.38,60.53L469.33,39.39L468.29,32.05L467.24,33.72L466.19,48.22L465.14,46.35L463.05,35.25L462,28.19L460.95,26.1L459.9,25.12L457.81,34.95L456.76,46.41L454.67,108.92L453.62,123.55L452.57,127.27L451.52,123.59L449.43,110.4L448.38,98.84L444.19,35.88L443.14,28.57L442.1,28.97L441.05,37.29L438.95,33.65L437.9,29.66L436.86,28.1L435.81,25.08L432.67,32.43L431.62,42.52L429.52,106.54L428.48,119.2L427.43,122.01L426.38,121.94L424.29,105.59L423.24,93.47L419.05,31.08L418,24.02L416.95,22.33L415.9,35.93L412.76,25.78L411.71,21.6L410.67,19.64L409.62,20.09L407.52,26.68L406.48,35.5L404.38,102.76L403.33,118.82L402.29,120.22L401.24,118.27L399.14,104.5L398.1,92.85L393.9,25.96L392.86,19.8L391.81,21.14L390.76,35.14L389.71,31.69L388.67,28.23L386.57,23.97L385.52,23.21L383.43,26.76L382.38,30.34L380.29,71.59L379.24,108.5L378.19,123.71L377.14,127.29L375.05,117.5L374,110.82L369.81,52.45L368.76,36.81L367.71,31.36L366.67,34.8L365.62,49.94L364.57,50.84L363.52,45.77L362.48,39.56L361.43,38.38L360.38,32.91L357.24,40.03L356.19,47.83L355.14,81.51L354.1,123.76L353.05,143.18L352,149.76L350.95,150.56L349.9,146.28L346.76,117.84L345.71,121.8L343.62,99.9L342.57,94.08L340.48,127.51L339.43,135.44L337.33,123.54L336.29,115.98L335.24,115.48L334.19,123.23L332.1,150.78L331.05,167.16L330,175.22L328.95,171.7L326.86,167.15L325.81,164.02L321.62,127.83L320.57,124.37L318.48,91.73L317.43,82.89L316.38,86.36L315.33,107L314.29,114.38L313.24,115.54L311.14,94.41L310.1,88.09L309.05,90.9L308,97.92L305.9,134.78L304.86,148.58L303.81,151.71L302.76,150.59L300.67,142.93L299.62,138.1L297.52,114.28L296.48,98.35L293.33,53.91L292.29,45.41L291.24,45.08L290.19,59.29L289.14,58.03L288.1,56.39L286,44.53L284.95,39.5L283.9,39.53L282.86,37.44L281.81,39.9L280.76,50.44L278.67,116.84L277.62,129.35L276.57,134.69L275.52,134.09L274.48,127.69L273.43,116.49L269.24,51.48L268.19,34.24L267.14,25.9L266.1,26.34L265.05,40.29L264,38.87L262.95,32.98L261.9,28.67L259.81,26.44L258.76,31.09L257.71,33.46L256.67,31.66L254.57,76.55L253.52,112.06L252.48,126.15L251.43,134.46L250.38,134.87L249.33,129.06L244.1,58.76L243.05,36.34L242,27.55L240.95,23.49L239.9,38.6L238.86,40.68L237.81,37.56L236.76,31.02L235.71,30.17L234.67,29.33L232.57,34.18L231.52,34.38L229.43,77.7L228.38,112.83L227.33,128.2L226.29,137.27L225.24,137.69L224.19,132.88L217.9,37.99L216.86,30.07L215.81,26.61L214.76,36.06L212.67,33.77L211.62,28.35L210.57,26.05L209.52,22.1L207.43,32.97L206.38,31.46L203.24,111.29L202.19,127.3L201.14,132.06L200.1,132.69L199.05,129.12L198,120.33L193.81,52.49L192.76,33.8L191.71,23.77L190.67,19.4L189.62,35.34L188.57,37.2L186.48,30.45L185.43,30.43L184.38,28.89L183.33,34.03L182.29,31.09L181.24,33.92L179.14,79.72L178.1,122.16L177.05,141.89L176,148.33L174.95,150.43L173.9,147.66L170.76,114L169.71,113.55L167.62,94.07L166.57,87.14L165.52,93.15L164.48,106.53L163.43,110.71L162.38,109.26L160.29,99.45L159.24,100.92L155.05,169.39L154,179.13L152.95,175.52L151.9,171.65L149.81,169.74L148.76,164.02L146.67,136.32L145.62,124.27L144.57,119.43L143.52,105.42L141.43,76.92L140.38,76.74L139.33,89.8L138.29,95.74L136.19,87.75L135.14,80.62L134.1,80.11L133.05,88.81L129.9,134.37L128.86,148.72L127.81,154.14L126.76,155.41L124.67,147.36L123.62,139.83L118.38,65.12L117.33,42.94L116.29,36.09L115.24,32.05L114.19,43.43L113.14,43.82L111.05,29.34L110,23.07L108.95,20.73L107.9,24.38L105.81,29.98L104.76,43.56L102.67,112.74L101.62,125.62L100.57,130.15L99.52,131.45L97.43,117.62L96.38,107.24L93.24,64.09L92.19,48.1L91.14,41.74L90.1,38.4L89.05,48.44L88,48.66L86.95,46.53L85.9,41.03L84.86,38.73L83.81,37.55L81.71,44.97L80.67,44.12L78.57,85.36L77.52,119.58L76.48,133.16L75.43,137.53L74.38,137.49L73.33,132.81L68.1,55.93L67.05,33.84L66,25.25L64.95,21.06L63.9,31.61L62.86,32.06L61.81,27.58L60.76,24.51L59.71,25.06L58.67,20.1L56.57,31.87L55.52,32.98L53.43,75.6L52.38,109.55L51.33,123.57L50.29,130.81L49.24,133.92L48.19,130.5L41.9,34.6L40.86,26.54L39.81,24.12L38.76,32.44L37.71,36.86L36.67,36.05L35.62,31.08L34.57,28.94L31.43,32.96L30.38,34.51L28.29,76.82L27.24,113.91L26.19,128.71L25.14,136.91L24.1,139.7L23.05,136.92L20.95,109.51L19.9,91.67L15.71,37.62L14.67,34.17L13.62,45.81L12.57,49.71L11.52,46.92L10.48,44.62L9.43,44.46L8.38,42.04L7.33,46.36L6.29,52.28L5.24,53.68L4.19,66.76L2.1,142.45L1.05,164.02L0,173.29Z" style="fill: rgb(66, 108, 245); fill-opacity: 0.5; stroke-width: 0;"/></g></g><g class="errorbars"/><g class="lines"><path class="js-line" d="M0,173.29L1.05,164.02L2.1,142.45L4.19,66.76L5.24,53.68L6.29,52.28L7.33,46.36L8.38,42.04L9.43,44.46L10.48,44.62L11.52,46.92L12.57,49.71L13.62,45.81L14.67,34.17L15.71,37.62L19.9,91.67L20.95,109.51L23.05,136.92L24.1,139.7L25.14,136.91L26.19,128.71L27.24,113.91L28.29,76.82L30.38,34.51L31.43,32.96L34.57,28.94L35.62,31.08L36.67,36.05L37.71,36.86L38.76,32.44L39.81,24.12L40.86,26.54L41.9,34.6L48.19,130.5L49.24,133.92L50.29,130.81L51.33,123.57L52.38,109.55L53.43,75.6L55.52,32.98L56.57,31.87L58.67,20.1L59.71,25.06L60.76,24.51L61.81,27.58L62.86,32.06L63.9,31.61L64.95,21.06L66,25.25L67.05,33.84L68.1,55.93L73.33,132.81L74.38,137.49L75.43,137.53L76.48,133.16L77.52,119.58L78.57,85.36L80.67,44.12L81.71,44.97L83.81,37.55L84.86,38.73L85.9,41.03L86.95,46.53L88,48.66L89.05,48.44L90.1,38.4L91.14,41.74L92.19,48.1L93.24,64.09L96.38,107.24L97.43,117.62L99.52,131.45L100.57,130.15L101.62,125.62L102.67,112.74L104.76,43.56L105.81,29.98L107.9,24.38L108.95,20.73L110,23.07L111.05,29.34L113.14,43.82L114.19,43.43L115.24,32.05L116.29,36.09L117.33,42.94L118.38,65.12L123.62,139.83L124.67,147.36L126.76,155.41L127.81,154.14L128.86,148.72L129.9,134.37L133.05,88.81L134.1,80.11L135.14,80.62L136.19,87.75L138.29,95.74L139.33,89.8L140.38,76.74L141.43,76.92L143.52,105.42L144.57,119.43L145.62,124.27L146.67,136.32L148.76,164.02L149.81,169.74L151.9,171.65L152.95,175.52L154,179.13L155.05,169.39L159.24,100.92L160.29,99.45L162.38,109.26L163.43,110.71L164.48,106.53L165.52,93.15L166.57,87.14L167.62,94.07L169.71,113.55L170.76,114L173.9,147.66L174.95,150.43L176,148.33L177.05,141.89L178.1,122.16L179.14,79.72L181.24,33.92L182.29,31.09L183.33,34.03L184.38,28.89L185.43,30.43L186.48,30.45L188.57,37.2L189.62,35.34L190.67,19.4L191.71,23.77L192.76,33.8L193.81,52.49L198,120.33L199.05,129.12L200.1,132.69L201.14,132.06L202.19,127.3L203.24,111.29L206.38,31.46L207.43,32.97L209.52,22.1L210.57,26.05L211.62,28.35L212.67,33.77L214.76,36.06L215.81,26.61L216.86,30.07L217.9,37.99L224.19,132.88L225.24,137.69L226.29,137.27L227.33,128.2L228.38,112.83L229.43,77.7L231.52,34.38L232.57,34.18L234.67,29.33L235.71,30.17L236.76,31.02L237.81,37.56L238.86,40.68L239.9,38.6L240.95,23.49L242,27.55L243.05,36.34L244.1,58.76L249.33,129.06L250.38,134.87L251.43,134.46L252.48,126.15L253.52,112.06L254.57,76.55L256.67,31.66L257.71,33.46L258.76,31.09L259.81,26.44L261.9,28.67L262.95,32.98L264,38.87L265.05,40.29L266.1,26.34L267.14,25.9L268.19,34.24L269.24,51.48L273.43,116.49L274.48,127.69L275.52,134.09L276.57,134.69L277.62,129.35L278.67,116.84L280.76,50.44L281.81,39.9L282.86,37.44L283.9,39.53L284.95,39.5L286,44.53L288.1,56.39L289.14,58.03L290.19,59.29L291.24,45.08L292.29,45.41L293.33,53.91L296.48,98.35L297.52,114.28L299.62,138.1L300.67,142.93L302.76,150.59L303.81,151.71L304.86,148.58L305.9,134.78L308,97.92L309.05,90.9L310.1,88.09L311.14,94.41L313.24,115.54L314.29,114.38L315.33,107L316.38,86.36L317.43,82.89L318.48,91.73L320.57,124.37L321.62,127.83L325.81,164.02L326.86,167.15L328.95,171.7L330,175.22L331.05,167.16L332.1,150.78L334.19,123.23L335.24,115.48L336.29,115.98L337.33,123.54L339.43,135.44L340.48,127.51L342.57,94.08L343.62,99.9L345.71,121.8L346.76,117.84L349.9,146.28L350.95,150.56L352,149.76L353.05,143.18L354.1,123.76L355.14,81.51L356.19,47.83L357.24,40.03L360.38,32.91L361.43,38.38L362.48,39.56L363.52,45.77L364.57,50.84L365.62,49.94L366.67,34.8L367.71,31.36L368.76,36.81L369.81,52.45L374,110.82L375.05,117.5L377.14,127.29L378.19,123.71L379.24,108.5L380.29,71.59L382.38,30.34L383.43,26.76L385.52,23.21L386.57,23.97L388.67,28.23L389.71,31.69L390.76,35.14L391.81,21.14L392.86,19.8L393.9,25.96L398.1,92.85L399.14,104.5L401.24,118.27L402.29,120.22L403.33,118.82L404.38,102.76L406.48,35.5L407.52,26.68L409.62,20.09L410.67,19.64L411.71,21.6L412.76,25.78L415.9,35.93L416.95,22.33L418,24.02L419.05,31.08L423.24,93.47L424.29,105.59L426.38,121.94L427.43,122.01L428.48,119.2L429.52,106.54L431.62,42.52L432.67,32.43L435.81,25.08L436.86,28.1L437.9,29.66L438.95,33.65L441.05,37.29L442.1,28.97L443.14,28.57L444.19,35.88L448.38,98.84L449.43,110.4L451.52,123.59L452.57,127.27L453.62,123.55L454.67,108.92L456.76,46.41L457.81,34.95L459.9,25.12L460.95,26.1L462,28.19L463.05,35.25L465.14,46.35L466.19,48.22L467.24,33.72L468.29,32.05L469.33,39.39L470.38,60.53L474.57,112.51L475.62,123.65L477.71,134.58L478.76,135.83L479.81,137.08L480.86,134.16L485.05,76.69L486.1,74.43L487.14,77.9L488.19,88.72L490.29,97.61L491.33,96.95L492.38,81.69L493.43,78.5L501.81,164.49L502.86,166.35L503.9,165.27L504.95,167.57L506,171.28L507.05,160.83L511.24,109.95L512.29,109.99L514.38,126.85L515.43,129.94L516.48,127.05L517.52,109.21L518.57,101.21L519.62,105.27L521.71,123.38L522.76,121.85L525.9,154.85L526.95,157.05L528,154.03" style="vector-effect: non-scaling-stroke; fill: none; stroke: rgb(245, 66, 66); stroke-opacity: 1; stroke-width: 0.5px; opacity: 1;"/></g><g class="points"/><g class="text"/></g><g class="trace scatter traced1cccb" style="stroke-miterlimit: 2;"><g class="fills"/><g class="errorbars"/><g class="lines"><path class="js-line" d="M0,173.29L1.05,164.02L2.1,142.45L4.19,66.76L5.24,53.68L6.29,52.28L7.33,46.36L8.38,42.04L9.43,44.46L10.48,44.62L11.52,46.92L12.57,49.71L13.62,45.81L14.67,34.17L15.71,37.62L19.9,91.67L20.95,109.51L23.05,136.92L24.1,139.7L25.14,136.91L26.19,128.71L27.24,113.91L28.29,76.82L30.38,34.51L31.43,32.96L34.57,28.94L35.62,31.08L36.67,36.05L37.71,36.86L38.76,32.44L39.81,24.12L40.86,26.54L41.9,34.6L48.19,130.5L49.24,133.92L50.29,130.81L51.33,123.57L52.38,109.55L53.43,75.6L55.52,32.98L56.57,31.87L58.67,20.1L59.71,25.06L60.76,24.51L61.81,27.58L62.86,32.06L63.9,31.61L64.95,21.06L66,25.25L67.05,33.84L68.1,55.93L73.33,132.81L74.38,137.49L75.43,137.53L76.48,133.16L77.52,119.58L78.57,85.36L80.67,44.12L81.71,44.97L83.81,37.55L84.86,38.73L85.9,41.03L86.95,46.53L88,48.66L89.05,48.44L90.1,38.4L91.14,41.74L92.19,48.1L93.24,64.09L96.38,107.24L97.43,117.62L99.52,131.45L100.57,130.15L101.62,125.62L102.67,112.74L104.76,43.56L105.81,29.98L107.9,24.38L108.95,20.73L110,23.07L111.05,29.34L113.14,43.82L114.19,43.43L115.24,32.05L116.29,36.09L117.33,42.94L118.38,65.12L123.62,139.83L124.67,147.36L126.76,155.41L127.81,154.14L128.86,148.72L129.9,134.37L133.05,88.81L134.1,80.11L135.14,80.62L136.19,87.75L138.29,95.74L139.33,89.8L140.38,76.74L141.43,76.92L143.52,105.42L144.57,119.43L145.62,124.27L146.67,136.32L148.76,164.02L149.81,169.74L151.9,171.65L152.95,175.52L154,179.13L155.05,169.39L159.24,100.92L160.29,99.45L162.38,109.26L163.43,110.71L164.48,106.53L165.52,93.15L166.57,87.14L167.62,94.07L169.71,113.55L170.76,114L173.9,147.66L174.95,150.43L176,148.33L177.05,141.89L178.1,122.16L179.14,79.72L181.24,33.92L182.29,31.09L183.33,34.03L184.38,28.89L185.43,30.43L186.48,30.45L188.57,37.2L189.62,35.34L190.67,19.4L191.71,23.77L192.76,33.8L193.81,52.49L198,120.33L199.05,129.12L200.1,132.69L201.14,132.06L202.19,127.3L203.24,111.29L206.38,31.46L207.43,32.97L209.52,22.1L210.57,26.05L211.62,28.35L212.67,33.77L214.76,36.06L215.81,26.61L216.86,30.07L217.9,37.99L224.19,132.88L225.24,137.69L226.29,137.27L227.33,128.2L228.38,112.83L229.43,77.7L231.52,34.38L232.57,34.18L234.67,29.33L235.71,30.17L236.76,31.02L237.81,37.56L238.86,40.68L239.9,38.6L240.95,23.49L242,27.55L243.05,36.34L244.1,58.76L249.33,129.06L250.38,134.87L251.43,134.46L252.48,126.15L253.52,112.06L254.57,76.55L256.67,31.66L257.71,33.46L258.76,31.09L259.81,26.44L261.9,28.67L262.95,32.98L264,38.87L265.05,40.29L266.1,26.34L267.14,25.9L268.19,34.24L269.24,51.48L273.43,116.49L274.48,127.69L275.52,134.09L276.57,134.69L277.62,129.35L278.67,116.84L280.76,50.44L281.81,39.9L282.86,37.44L283.9,39.53L284.95,39.5L286,44.53L288.1,56.39L289.14,58.03L290.19,59.29L291.24,45.08L292.29,45.41L293.33,53.91L296.48,98.35L297.52,114.28L299.62,138.1L300.67,142.93L302.76,150.59L303.81,151.71L304.86,148.58L305.9,134.78L308,97.92L309.05,90.9L310.1,88.09L311.14,94.41L313.24,115.54L314.29,114.38L315.33,107L316.38,86.36L317.43,82.89L318.48,91.73L320.57,124.37L321.62,127.83L325.81,164.02L326.86,167.15L328.95,171.7L330,175.22L331.05,167.16L332.1,150.78L334.19,123.23L335.24,115.48L336.29,115.98L337.33,123.54L339.43,135.44L340.48,127.51L342.57,94.08L343.62,99.9L345.71,121.8L346.76,117.84L349.9,146.28L350.95,150.56L352,149.76L353.05,143.18L354.1,123.76L355.14,81.51L356.19,47.83L357.24,40.03L360.38,32.91L361.43,38.38L362.48,39.56L363.52,45.77L364.57,50.84L365.62,49.94L366.67,34.8L367.71,31.36L368.76,36.81L369.81,52.45L374,110.82L375.05,117.5L377.14,127.29L378.19,123.71L379.24,108.5L380.29,71.59L382.38,30.34L383.43,26.76L385.52,23.21L386.57,23.97L388.67,28.23L389.71,31.69L390.76,35.14L391.81,21.14L392.86,19.8L393.9,25.96L398.1,92.85L399.14,104.5L401.24,118.27L402.29,120.22L403.33,118.82L404.38,102.76L406.48,35.5L407.52,26.68L409.62,20.09L410.67,19.64L411.71,21.6L412.76,25.78L415.9,35.93L416.95,22.33L418,24.02L419.05,31.08L423.24,93.47L424.29,105.59L426.38,121.94L427.43,122.01L428.48,119.2L429.52,106.54L431.62,42.52L432.67,32.43L435.81,25.08L436.86,28.1L437.9,29.66L438.95,33.65L441.05,37.29L442.1,28.97L443.14,28.57L444.19,35.88L448.38,98.84L449.43,110.4L451.52,123.59L452.57,127.27L453.62,123.55L454.67,108.92L456.76,46.41L457.81,34.95L459.9,25.12L460.95,26.1L462,28.19L463.05,35.25L465.14,46.35L466.19,48.22L467.24,33.72L468.29,32.05L469.33,39.39L470.38,60.53L474.57,112.51L475.62,123.65L477.71,134.58L478.76,135.83L479.81,137.08L480.86,134.16L485.05,76.69L486.1,74.43L487.14,77.9L488.19,88.72L490.29,97.61L491.33,96.95L492.38,81.69L493.43,78.5L501.81,164.49L502.86,166.35L503.9,165.27L504.95,167.57L506,171.28L507.05,160.83L511.24,109.95L512.29,109.99L514.38,126.85L515.43,129.94L516.48,127.05L517.52,109.21L518.57,101.21L519.62,105.27L521.71,123.38L522.76,121.85L525.9,154.85L526.95,157.05L528,154.03" style="vector-effect: non-scaling-stroke; fill: none; stroke: rgb(66, 108, 245); stroke-opacity: 1; stroke-width: 0.5px; opacity: 1;"/></g><g class="points"/><g class="text"/></g><g class="trace scatter tracec0f004" style="stroke-miterlimit: 2; opacity: 1;"><g class="fills"/><g class="errorbars"/><g class="lines"><path class="js-line" d="M0,173.29L1.05,164.02L2.1,142.45L4.19,66.76L5.24,53.68L6.29,52.28L7.33,46.36L8.38,42.04L9.43,44.46L10.48,44.62L11.52,46.92L12.57,49.71L13.62,45.81L14.67,34.17L15.71,37.62L19.9,91.67L20.95,109.51L23.05,136.92L24.1,139.7L25.14,136.91L26.19,128.71L27.24,113.91L28.29,76.82L30.38,34.51L31.43,32.96L34.57,28.94L35.62,31.08L36.67,36.05L37.71,36.86L38.76,32.44L39.81,24.12L40.86,26.54L41.9,34.6L48.19,130.5L49.24,133.92L50.29,130.81L51.33,123.57L52.38,109.55L53.43,75.6L55.52,32.98L56.57,31.87L58.67,20.1L59.71,25.06L60.76,24.51L61.81,27.58L62.86,32.06L63.9,31.61L64.95,21.06L66,25.25L67.05,33.84L68.1,55.93L73.33,132.81L74.38,137.49L75.43,137.53L76.48,133.16L77.52,119.58L78.57,85.36L80.67,44.12L81.71,44.97L83.81,37.55L84.86,38.73L85.9,41.03L86.95,46.53L88,48.66L89.05,48.44L90.1,38.4L91.14,41.74L92.19,48.1L93.24,64.09L96.38,107.24L97.43,117.62L99.52,131.45L100.57,130.15L101.62,125.62L102.67,112.74L104.76,43.56L105.81,29.98L107.9,24.38L108.95,20.73L110,23.07L111.05,29.34L113.14,43.82L114.19,43.43L115.24,32.05L116.29,36.09L117.33,42.94L118.38,65.12L123.62,139.83L124.67,147.36L126.76,155.41L127.81,154.14L128.86,148.72L129.9,134.37L133.05,88.81L134.1,80.11L135.14,80.62L136.19,87.75L138.29,95.74L139.33,89.8L140.38,76.74L141.43,76.92L143.52,105.42L144.57,119.43L145.62,124.27L146.67,136.32L148.76,164.02L149.81,169.74L151.9,171.65L152.95,175.52L154,179.13L155.05,169.39L159.24,100.92L160.29,99.45L162.38,109.26L163.43,110.71L164.48,106.53L165.52,93.15L166.57,87.14L167.62,94.07L169.71,113.55L170.76,114L173.9,147.66L174.95,150.43L176,148.33L177.05,141.89L178.1,122.16L179.14,79.72L181.24,33.92L182.29,31.09L183.33,34.03L184.38,28.89L185.43,30.43L186.48,30.45L188.57,37.2L189.62,35.34L190.67,19.4L191.71,23.77L192.76,33.8L193.81,52.49L198,120.33L199.05,129.12L200.1,132.69L201.14,132.06L202.19,127.3L203.24,111.29L206.38,31.46L207.43,32.97L209.52,22.1L210.57,26.05L211.62,28.35L212.67,33.77L214.76,36.06L215.81,26.61L216.86,30.07L217.9,37.99L224.19,132.88L225.24,137.69L226.29,137.27L227.33,128.2L228.38,112.83L229.43,77.7L231.52,34.38L232.57,34.18L234.67,29.33L235.71,30.17L236.76,31.02L237.81,37.56L238.86,40.68L239.9,38.6L240.95,23.49L242,27.55L243.05,36.34L244.1,58.76L249.33,129.06L250.38,134.87L251.43,134.46L252.48,126.15L253.52,112.06L254.57,76.55L256.67,31.66L257.71,33.46L258.76,31.09L259.81,26.44L261.9,28.67L262.95,32.98L264,38.87L265.05,40.29L266.1,26.34L267.14,25.9L268.19,34.24L269.24,51.48L273.43,116.49L274.48,127.69L275.52,134.09L276.57,134.69L277.62,129.35L278.67,116.84L280.76,50.44L281.81,39.9L282.86,37.44L283.9,39.53L284.95,39.5L286,44.53L288.1,56.39L289.14,58.03L290.19,59.29L291.24,45.08L292.29,45.41L293.33,53.91L296.48,98.35L297.52,114.28L299.62,138.1L300.67,142.93L302.76,150.59L303.81,151.71L304.86,148.58L305.9,134.78L308,97.92L309.05,90.9L310.1,88.09L311.14,94.41L313.24,115.54L314.29,114.38L315.33,107L316.38,86.36L317.43,82.89L318.48,91.73L320.57,124.37L321.62,127.83L325.81,164.02L326.86,167.15L328.95,171.7L330,175.22L331.05,167.16L332.1,150.78L334.19,123.23L335.24,115.48L336.29,115.98L337.33,123.54L339.43,135.44L340.48,127.51L342.57,94.08L343.62,99.9L345.71,121.8L346.76,117.84L349.9,146.28L350.95,150.56L352,149.76L353.05,143.18L354.1,123.76L355.14,81.51L356.19,47.83L357.24,40.03L360.38,32.91L361.43,38.38L362.48,39.56L363.52,45.77L364.57,50.84L365.62,49.94L366.67,34.8L367.71,31.36L368.76,36.81L369.81,52.45L374,110.82L375.05,117.5L377.14,127.29L378.19,123.71L379.24,108.5L380.29,71.59L382.38,30.34L383.43,26.76L385.52,23.21L386.57,23.97L388.67,28.23L389.71,31.69L390.76,35.14L391.81,21.14L392.86,19.8L393.9,25.96L398.1,92.85L399.14,104.5L401.24,118.27L402.29,120.22L403.33,118.82L404.38,102.76L406.48,35.5L407.52,26.68L409.62,20.09L410.67,19.64L411.71,21.6L412.76,25.78L415.9,35.93L416.95,22.33L418,24.02L419.05,31.08L423.24,93.47L424.29,105.59L426.38,121.94L427.43,122.01L428.48,119.2L429.52,106.54L431.62,42.52L432.67,32.43L435.81,25.08L436.86,28.1L437.9,29.66L438.95,33.65L441.05,37.29L442.1,28.97L443.14,28.57L444.19,35.88L448.38,98.84L449.43,110.4L451.52,123.59L452.57,127.27L453.62,123.55L454.67,108.92L456.76,46.41L457.81,34.95L459.9,25.12L460.95,26.1L462,28.19L463.05,35.25L465.14,46.35L466.19,48.22L467.24,33.72L468.29,32.05L469.33,39.39L470.38,60.53L474.57,112.51L475.62,123.65L477.71,134.58L478.76,135.83L479.81,137.08L480.86,134.16L485.05,76.69L486.1,74.43L487.14,77.9L488.19,88.72L490.29,97.61L491.33,96.95L492.38,81.69L493.43,78.5L501.81,164.49L502.86,166.35L503.9,165.27L504.95,167.57L506,171.28L507.05,160.83L511.24,109.95L512.29,109.99L514.38,126.85L515.43,129.94L516.48,127.05L517.52,109.21L518.57,101.21L519.62,105.27L521.71,123.38L522.76,121.85L525.9,154.85L526.95,157.05L528,154.03" style="vector-effect: non-scaling-stroke; fill: none; stroke: rgb(0, 0, 0); stroke-opacity: 1; stroke-width: 3px; opacity: 1;"/></g><g class="points"/><g class="text"/></g></g></g><g class="overplot"/><path class="xlines-above crisp" d="M0,0" style="fill: none;"/><path class="ylines-above crisp" d="M0,0" style="fill: none;"/><g class="overlines-above"/><g class="xaxislayer-above"><g class="xtick"><text text-anchor="middle" x="0" y="461" transform="translate(68,0)" style="font-family: 'Open Sans', verdana, arial, sans-serif; font-size: 12px; fill: rgb(42, 63, 95); fill-opacity: 1; white-space: pre;">0</text></g><g class="xtick"><text text-anchor="middle" x="0" y="461" transform="translate(172.76,0)" style="font-family: 'Open Sans', verdana, arial, sans-serif; font-size: 12px; fill: rgb(42, 63, 95); fill-opacity: 1; white-space: pre;">100</text></g><g class="xtick"><text text-anchor="middle" x="0" y="461" transform="translate(277.52,0)" style="font-family: 'Open Sans', verdana, arial, sans-serif; font-size: 12px; fill: rgb(42, 63, 95); fill-opacity: 1; white-space: pre;">200</text></g><g class="xtick"><text text-anchor="middle" x="0" y="461" transform="translate(382.29,0)" style="font-family: 'Open Sans', verdana, arial, sans-serif; font-size: 12px; fill: rgb(42, 63, 95); fill-opacity: 1; white-space: pre;">300</text></g><g class="xtick"><text text-anchor="middle" x="0" y="461" transform="translate(487.05,0)" style="font-family: 'Open Sans', verdana, arial, sans-serif; font-size: 12px; fill: rgb(42, 63, 95); fill-opacity: 1; white-space: pre;">400</text></g><g class="xtick"><text text-anchor="middle" x="0" y="461" transform="translate(591.81,0)" style="font-family: 'Open Sans', verdana, arial, sans-serif; font-size: 12px; fill: rgb(42, 63, 95); fill-opacity: 1; white-space: pre;">500</text></g></g><g class="yaxislayer-above"><g class="ytick"><text text-anchor="end" x="67" y="4.199999999999999" transform="translate(0,448)" style="font-family: 'Open Sans', verdana, arial, sans-serif; font-size: 12px; fill: rgb(42, 63, 95); fill-opacity: 1; white-space: pre;">0</text></g><g class="ytick"><text text-anchor="end" x="67" y="4.199999999999999" transform="translate(0,373.41)" style="font-family: 'Open Sans', verdana, arial, sans-serif; font-size: 12px; fill: rgb(42, 63, 95); fill-opacity: 1; white-space: pre;">20k</text></g><g class="ytick"><text text-anchor="end" x="67" y="4.199999999999999" transform="translate(0,298.83000000000004)" style="font-family: 'Open Sans', verdana, arial, sans-serif; font-size: 12px; fill: rgb(42, 63, 95); fill-opacity: 1; white-space: pre;">40k</text></g><g class="ytick"><text text-anchor="end" x="67" y="4.199999999999999" transform="translate(0,224.24)" style="font-family: 'Open Sans', verdana, arial, sans-serif; font-size: 12px; fill: rgb(42, 63, 95); fill-opacity: 1; white-space: pre;">60k</text></g><g class="ytick"><text text-anchor="end" x="67" y="4.199999999999999" transform="translate(0,149.66)" style="font-family: 'Open Sans', verdana, arial, sans-serif; font-size: 12px; fill: rgb(42, 63, 95); fill-opacity: 1; white-space: pre;">80k</text></g><g class="ytick"><text text-anchor="end" x="67" y="4.199999999999999" transform="translate(0,75.07)" style="font-family: 'Open Sans', verdana, arial, sans-serif; font-size: 12px; fill: rgb(42, 63, 95); fill-opacity: 1; white-space: pre;">100k</text></g></g><g class="overaxes-above"/></g></g><g class="polarlayer"/><g class="ternarylayer"/><g class="geolayer"/><g class="funnelarealayer"/><g class="pielayer"/><g class="treemaplayer"/><g class="sunburstlayer"/><g class="glimages"/><defs id="topdefs-75fb6b"><g class="clips"/><clipPath id="legend75fb6b"><rect width="81" height="105" x="0" y="0"/></clipPath></defs><g class="layer-above"><g class="imagelayer"/><g class="shapelayer"/></g><g class="infolayer"><g class="legend" pointer-events="all" transform="translate(606.5600000000001,60)"><rect class="bg" shape-rendering="crispEdges" width="81" height="105" x="0" y="0" style="stroke: rgb(68, 68, 68); stroke-opacity: 1; fill: rgb(255, 255, 255); fill-opacity: 1; stroke-width: 0px;"/><g class="scrollbox" transform="" clip-path="url('#legend75fb6b')"><g class="groups"><g class="traces" transform="translate(0,14.5)" style="opacity: 1;"><text class="legendtext" text-anchor="start" x="40" y="4.680000000000001" style="font-family: 'Open Sans', verdana, arial, sans-serif; font-size: 12px; fill: rgb(42, 63, 95); fill-opacity: 1; white-space: pre;">load</text><g class="layers" style="opacity: 1;"><g class="legendfill"/><g class="legendlines"><path class="js-line" d="M5,0h30" style="fill: none; stroke: rgb(0, 0, 0); stroke-opacity: 1; stroke-width: 3px;"/></g><g class="legendsymbols"><g class="legendpoints"/></g></g><rect class="legendtoggle" x="0" y="-9.5" width="76" height="19" style="fill: rgb(0, 0, 0); fill-opacity: 0;"/></g><g class="traces" transform="translate(0,33.5)" style="opacity: 1;"><text class="legendtext" text-anchor="start" x="40" y="4.680000000000001" style="font-family: 'Open Sans', verdana, arial, sans-serif; font-size: 12px; fill: rgb(42, 63, 95); fill-opacity: 1; white-space: pre;">Hydro</text><g class="layers"><g class="legendfill"><path class="js-fill" d="M5,-2h30v6h-30z" style="stroke-width: 0; fill: rgb(66, 108, 245); fill-opacity: 0.5;"/></g><g class="legendlines"><path class="js-line" d="M5,-2h30" style="fill: none; stroke: rgb(66, 108, 245); stroke-opacity: 1; stroke-width: 0.5px;"/></g><g class="legendsymbols"><g class="legendpoints"/></g></g><rect class="legendtoggle" x="0" y="-9.5" width="76" height="19" style="fill: rgb(0, 0, 0); fill-opacity: 0;"/></g><g class="traces" transform="translate(0,52.5)" style="opacity: 1;"><text class="legendtext" text-anchor="start" x="40" y="4.680000000000001" style="font-family: 'Open Sans', verdana, arial, sans-serif; font-size: 12px; fill: rgb(42, 63, 95); fill-opacity: 1; white-space: pre;">Gas</text><g class="layers"><g class="legendfill"><path class="js-fill" d="M5,-2h30v6h-30z" style="stroke-width: 0; fill: rgb(245, 66, 66); fill-opacity: 0.5;"/></g><g class="legendlines"><path class="js-line" d="M5,-2h30" style="fill: none; stroke: rgb(245, 66, 66); stroke-opacity: 1; stroke-width: 0.5px;"/></g><g class="legendsymbols"><g class="legendpoints"/></g></g><rect class="legendtoggle" x="0" y="-9.5" width="76" height="19" style="fill: rgb(0, 0, 0); fill-opacity: 0;"/></g><g class="traces" transform="translate(0,71.5)" style="opacity: 1;"><text class="legendtext" text-anchor="start" x="40" y="4.680000000000001" style="font-family: 'Open Sans', verdana, arial, sans-serif; font-size: 12px; fill: rgb(42, 63, 95); fill-opacity: 1; white-space: pre;">PV</text><g class="layers"><g class="legendfill"><path class="js-fill" d="M5,-2h30v6h-30z" style="stroke-width: 0; fill: rgb(245, 236, 66); fill-opacity: 0.5;"/></g><g class="legendlines"><path class="js-line" d="M5,-2h30" style="fill: none; stroke: rgb(245, 236, 66); stroke-opacity: 1; stroke-width: 0.5px;"/></g><g class="legendsymbols"><g class="legendpoints"/></g></g><rect class="legendtoggle" x="0" y="-9.5" width="76" height="19" style="fill: rgb(0, 0, 0); fill-opacity: 0;"/></g><g class="traces" transform="translate(0,90.5)" style="opacity: 1;"><text class="legendtext" text-anchor="start" x="40" y="4.680000000000001" style="font-family: 'Open Sans', verdana, arial, sans-serif; font-size: 12px; fill: rgb(42, 63, 95); fill-opacity: 1; white-space: pre;">Wind</text><g class="layers"><g class="legendfill"><path class="js-fill" d="M5,-2h30v6h-30z" style="stroke-width: 0; fill: rgb(248, 3, 252); fill-opacity: 0.5;"/></g><g class="legendlines"><path class="js-line" d="M5,-2h30" style="fill: none; stroke: rgb(248, 3, 252); stroke-opacity: 1; stroke-width: 0.5px;"/></g><g class="legendsymbols"><g class="legendpoints"/></g></g><rect class="legendtoggle" x="0" y="-9.5" width="76" height="19" style="fill: rgb(0, 0, 0); fill-opacity: 0;"/></g></g></g><rect class="scrollbar" rx="20" ry="3" width="0" height="0" x="0" y="0" style="fill: rgb(128, 139, 164); fill-opacity: 1;"/></g><g class="g-gtitle"><text class="gtitle" x="35" y="30" text-anchor="start" dy="0em" style="font-family: 'Open Sans', verdana, arial, sans-serif; font-size: 17px; fill: rgb(42, 63, 95); opacity: 1; font-weight: normal; white-space: pre;">Energy production in Germany between hour 147 and 651</text></g><g class="g-xtitle"><text class="xtitle" x="332" y="488.3" text-anchor="middle" style="font-family: 'Open Sans', verdana, arial, sans-serif; font-size: 14px; fill: rgb(42, 63, 95); opacity: 1; font-weight: normal; white-space: pre;">Hours</text></g><g class="g-ytitle" transform="translate(1.7998046875,0)"><text class="ytitle" transform="rotate(-90,12.200000000000003,254)" x="12.200000000000003" y="254" text-anchor="middle" style="font-family: 'Open Sans', verdana, arial, sans-serif; font-size: 14px; fill: rgb(42, 63, 95); opacity: 1; font-weight: normal; white-space: pre;">MWh</text></g></g></svg>