<svg class="main-svg" xmlns="http://www.w3.org/2000/svg" xmlns:xlink="http://www.w3.org/1999/xlink" width="700" height="500" style="" viewBox="0 0 700 500"><rect x="0" y="0" width="700" height="500" style="fill: rgb(255, 255, 255); fill-opacity: 1;"/><defs id="defs-8093a3"><g class="clips"><clipPath id="clip8093a3xyplot" class="plotclip"><rect width="521" height="388"/></clipPath><clipPath class="axesclip" id="clip8093a3x"><rect x="68" y="0" width="521" height="500"/></clipPath><clipPath class="axesclip" id="clip8093a3y"><rect x="0" y="60" width="700" height="388"/></clipPath><clipPath class="axesclip" id="clip8093a3xy"><rect x="68" y="60" width="521" height="388"/></clipPath></g><g class="gradients"/></defs><g class="bglayer"><rect class="bg" x="68" y="60" width="521" height="388" style="fill: rgb(229, 236, 246); fill-opacity: 1; stroke-width: 0;"/></g><g class="layer-below"><g class="imagelayer"/><g class="shapelayer"/></g><g class="cartesianlayer"><g class="subplot xy"><g class="layer-subplot"><g class="shapelayer"/><g class="imagelayer"/></g><g class="gridlayer"><g class="x"><path class="xgrid crisp" transform="translate(171.37,0)" d="M0,60v388" style="stroke: rgb(255, 255, 255); stroke-opacity: 1; stroke-width: 1px;"/><path class="xgrid crisp" transform="translate(274.75,0)" d="M0,60v388" style="stroke: rgb(255, 255, 255); stroke-opacity: 1; stroke-width: 1px;"/><path class="xgrid crisp" transform="translate(378.12,0)" d="M0,60v388" style="stroke: rgb(255, 255, 255); stroke-opacity: 1; stroke-width: 1px;"/><path class="xgrid crisp" transform="translate(481.49,0)" d="M0,60v388" style="stroke: rgb(255, 255, 255); stroke-opacity: 1; stroke-width: 1px;"/><path class="xgrid crisp" transform="translate(584.87,0)" d="M0,60v388" style="stroke: rgb(255, 255, 255); stroke-opacity: 1; stroke-width: 1px;"/></g><g class="y"><path class="ygrid crisp" transform="translate(0,401.11)" d="M68,0h521" style="stroke: rgb(255, 255, 255); stroke-opacity: 1; stroke-width: 1px;"/><path class="ygrid crisp" transform="translate(0,354.22)" d="M68,0h521" style="stroke: rgb(255, 255, 255); stroke-opacity: 1; stroke-width: 1px;"/><path class="ygrid crisp" transform="translate(0,307.32)" d="M68,0h521" style="stroke: rgb(255, 255, 255); stroke-opacity: 1; stroke-width: 1px;"/><path class="ygrid crisp" transform="translate(0,260.43)" d="M68,0h521" style="stroke: rgb(255, 255, 255); stroke-opacity: 1; stroke-width: 1px;"/><path class="ygrid crisp" transform="translate(0,213.54)" d="M68,0h521" style="stroke: rgb(255, 255, 255); stroke-opacity: 1; stroke-width: 1px;"/><path class="ygrid crisp" transform="translate(0,166.65)" d="M68,0h521" style="stroke: rgb(255, 255, 255); stroke-opacity: 1; stroke-width: 1px;"/><path class="ygrid crisp" transform="translate(0,119.75)" d="M68,0h521" style="stroke: rgb(255, 255, 255); stroke-opacity: 1; stroke-width: 1px;"/><path class="ygrid crisp" transform="translate(0,72.86)" d="M68,0h521" style="stroke: rgb(255, 255, 255); stroke-opacity: 1; stroke-width: 1px;"/></g></g><g class="zerolinelayer"><path class="xzl zl crisp" transform="translate(68,0)" d="M0,60v388" style="stroke: rgb(255, 255, 255); stroke-opacity: 1; stroke-width: 2px;"/><path class="yzl zl crisp" transform="translate(0,448)" d="M68,0h521" style="stroke: rgb(255, 255, 255); stroke-opacity: 1; stroke-width: 2px;"/></g><path class="xlines-below"/><path class="ylines-below"/><g class="overlines-below"/><g class="xaxislayer-below"/><g class="yaxislayer-below"/><g class="overaxes-below"/><g class="plot" transform="translate(68,60)" clip-path="url('#clip8093a3xyplot')"><g class="scatterlayer mlayer"><g class="trace scatter trace96b5f0" style="stroke-miterlimit: 2;"><g class="fills"><g><path class="js-fill" d="M521,388L0,388L0,347.63L1.03,349.18L2.07,352.97L4.13,357.88L5.17,354.36L6.2,340.75L7.24,315.81L10.34,222.48L11.37,203.73L14.47,165.55L15.51,167.72L19.64,201.69L20.67,212.91L22.74,230.14L23.78,231.89L24.81,230.14L25.84,224.98L26.88,215.68L27.91,52.4L28.94,173.46L29.98,165.76L32.05,163.62L33.08,143.87L34.11,162.26L35.15,163.61L36.18,166.73L37.21,102.59L38.25,164.46L39.28,159.23L40.32,160.75L41.35,165.82L47.55,226.11L48.59,228.26L49.62,226.3L50.65,221.75L51.69,212.94L52.72,78.03L53.75,81.12L54.79,165.32L55.82,85.92L56.86,133.56L57.89,131.2L58.92,113.52L60.99,126.55L62.02,142.79L66.16,195.65L67.19,220.35L69.26,265.82L70.29,289.48L73.39,331.2L74.43,341.56L78.56,367.97L79.6,373.19L81.66,378.37L82.7,378.68L83.73,376.28L84.77,371.3L88.9,348.41L89.93,341.56L93.04,327.1L94.07,316.74L95.1,307.81L96.14,289.95L99.24,220.35L100.27,195.72L101.31,191.2L102.34,194.87L104.41,194.52L105.44,187.87L108.54,156.48L109.58,159.22L110.61,153.23L111.64,158.49L114.74,200.56L115.78,219.93L119.91,276.84L120.95,284.77L121.98,282.56L123.01,275.99L124.05,271L125.08,258.98L126.12,240.97L127.15,237.57L130.25,207.53L131.28,157.75L132.32,194.43L133.35,194.75L135.42,202.62L136.45,216L138.52,192.31L139.55,192.43L141.62,210.34L142.65,219.15L143.69,222.19L144.72,229.77L145.76,240.08L146.79,239.68L147.82,250.78L148.86,251.66L149.89,251.98L150.92,254.41L151.96,256.68L152.99,250.56L157.13,207.51L158.16,206.59L159.19,209.81L160.23,102.79L161.26,215.44L162.3,211.04L164.36,198.85L165.4,203.2L167.46,215.46L168.5,215.73L171.6,236.9L172.63,238.64L173.67,237.32L174.7,233.27L175.73,220.86L176.77,194.18L178.84,164.32L179.87,162.24L180.9,164.23L181.94,162.23L184,163.21L185.04,166.34L186.07,167.45L187.11,166.65L188.14,156.26L189.17,159.01L190.21,165.32L191.24,177.07L195.38,219.71L196.41,225.24L197.44,227.49L198.48,96.63L199.51,224.1L200.54,214.03L202.61,164.21L203.64,174.34L204.68,174.92L205.71,173.49L207.78,182.31L208.81,171.4L209.85,165.3L210.88,166.32L211.91,166.74L212.95,160.79L213.98,162.97L215.02,167.95L221.22,227.61L222.25,230.63L223.29,230.37L224.32,224.66L225.35,215L226.39,192.91L228.45,165.68L229.49,116.27L230.52,163.98L231.56,162.51L233.62,163.56L234.66,167.68L235.69,169.64L236.72,168.33L237.76,158.83L238.79,161.38L239.83,166.91L240.86,181.01L246.03,225.21L247.06,228.86L248.1,228.6L249.13,223.38L250.16,112.56L251.2,192.19L252.23,133.71L253.26,163.97L254.3,165.1L255.33,150.95L256.37,145.11L257.4,161.57L258.43,130.69L259.47,164.8L260.5,117.7L261.53,119.59L264.63,196.34L265.67,193.56L266.7,204.73L267.74,231.22L270.84,292.73L271.87,302.75L276.01,328.03L277.04,331.86L279.11,330.7L280.14,334.88L284.28,369.4L285.31,371.53L286.34,371.88L287.38,370.6L290.48,362.29L291.51,358.85L293.58,346.44L294.61,338.63L296.68,330.85L297.71,330.2L298.75,331.24L299.78,330.78L301.85,325.13L302.88,321.77L303.92,318.79L304.95,318.29L305.98,318.95L307.02,321.34L312.19,352.58L313.22,354.36L315.29,355.37L316.32,356.88L318.39,360.63L319.42,364.07L324.59,380.31L325.63,381.78L327.69,381.81L328.73,380.77L330.79,378.45L331.83,376.56L333.89,372.88L334.93,372.03L337,369.48L338.03,366.62L340.1,357.49L341.13,351.5L347.33,315.16L348.37,315.5L350.43,322L351.47,322.5L353.54,324.01L354.57,322.15L357.67,310.98L358.7,309.74L359.74,312.76L360.77,318.1L364.91,349.57L365.94,348.45L368.01,330.08L369.04,316.08L373.18,262.96L374.21,253.29L378.35,212.19L379.38,209.29L380.41,210.14L381.45,215.91L385.58,259.94L386.62,264.12L388.68,270.46L389.72,277.46L396.95,325.83L397.99,328.46L402.12,334.64L403.15,338.94L406.26,357.84L407.29,360.2L408.32,359.93L409.36,357.38L412.46,344.93L413.49,345.01L415.56,351.39L416.59,355.33L420.73,369.09L421.76,373.35L423.83,377.83L424.86,375.67L427.96,358.07L429,357.69L433.13,368.78L434.17,369.6L436.23,369.87L437.27,369.09L439.34,367.51L440.37,369.05L443.47,375.9L444.5,376.71L445.54,375.94L446.57,374.08L448.64,366.08L449.67,359.16L451.74,337.43L452.77,319.91L454.84,271.93L455.88,262.3L456.91,256.62L457.94,259.33L458.98,264.7L460.01,275.8L462.08,304.64L463.11,311.44L464.14,307.69L465.18,298.61L468.28,281.56L469.31,283.49L471.38,319.02L472.41,333.48L475.52,352.78L476.55,356.91L478.62,367.59L479.65,368.24L481.72,349.14L482.75,335.03L485.85,289.87L486.89,282.1L487.92,270L488.95,268.3L489.99,259.13L491.02,240.73L492.06,219.73L493.09,215.71L495.16,209.95L496.19,224.8L499.29,287.47L500.33,296.25L501.36,301.66L502.39,302.9L504.46,311.33L505.49,316.78L507.56,324.24L508.6,333.21L511.7,351.04L512.73,356.41L513.76,358.46L514.8,356.37L516.87,348.52L517.9,338.28L521,301.24" style="fill: rgb(255, 255, 255); fill-opacity: 0.5; stroke-width: 0;"/></g><g><path class="js-fill" d="M0,347.63L1.03,349.18L2.07,352.97L4.13,357.88L5.17,352.85L7.24,275.11L8.27,222.1L9.3,179.24L10.34,171.38L11.37,173.56L12.4,171.45L13.44,172.87L14.47,165.55L15.51,167.72L16.54,175.17L22.74,230.14L23.78,231.89L24.81,230.14L25.84,224.98L26.88,215.68L27.91,52.4L28.94,173.46L29.98,165.76L32.05,163.62L33.08,143.87L34.11,162.26L35.15,163.61L36.18,166.73L37.21,102.59L38.25,164.46L39.28,159.23L40.32,160.75L41.35,165.82L47.55,226.11L48.59,228.26L49.62,226.3L50.65,221.75L51.69,212.94L52.72,78.03L53.75,81.12L54.79,164.8L55.82,85.92L56.86,133.56L57.89,131.2L58.92,73.96L60.99,107.22L62.02,136.35L64.09,162.74L65.13,175.73L72.36,321.92L73.39,331.2L76.5,357.42L77.53,363.14L79.6,371.02L80.63,354.11L82.7,319.49L83.73,314.04L84.77,311.37L85.8,320.47L87.87,356.47L88.9,348.41L90.97,337.31L92,334.33L95.1,307.81L96.14,289.95L99.24,220.35L100.27,195.72L101.31,191.2L102.34,194.87L103.37,194.8L104.41,189.85L107.51,101.61L108.54,100.64L118.88,265.78L119.91,276.84L120.95,284.77L121.98,282.56L124.05,271L125.08,258.98L126.12,240.97L127.15,237.57L130.25,207.53L131.28,157.75L132.32,194.43L133.35,194.75L135.42,202.62L136.45,204.25L137.49,200.52L138.52,192.31L139.55,192.43L140.59,199.09L142.65,219.15L143.69,222.19L145.76,240.08L146.79,239.68L147.82,250.78L148.86,251.66L149.89,251.98L150.92,254.41L151.96,256.68L152.99,250.56L157.13,207.51L158.16,206.59L159.19,209.81L160.23,102.79L161.26,213.67L162.3,211.04L164.36,198.85L165.4,203.2L167.46,215.46L168.5,215.73L171.6,236.9L172.63,238.64L173.67,237.32L174.7,233.27L175.73,220.86L176.77,194.18L178.84,164.32L179.87,162.24L180.9,164.23L181.94,162.23L184,163.21L185.04,166.34L186.07,167.45L187.11,166.28L188.14,156.26L189.17,159.01L190.21,165.32L191.24,177.07L195.38,219.71L196.41,225.24L197.44,227.49L198.48,96.63L199.51,224.1L200.54,214.03L202.61,164.21L203.64,166.94L206.75,157.96L207.78,160.44L208.81,161.89L209.85,165.3L211.91,166.74L212.95,160.79L213.98,162.97L215.02,167.95L221.22,227.61L222.25,230.63L223.29,230.37L224.32,224.66L225.35,215L226.39,192.91L228.45,165.68L229.49,116.27L230.52,163.98L231.56,162.51L233.62,163.56L234.66,167.68L235.69,169.64L236.72,168.33L237.76,158.83L238.79,161.38L239.83,166.91L240.86,181.01L246.03,225.21L247.06,228.86L248.1,228.6L249.13,223.38L250.16,112.56L251.2,192.19L252.23,133.67L253.26,163.97L254.3,165.1L255.33,150.95L256.37,145.11L257.4,161.57L258.43,130.69L259.47,164.8L260.5,117.7L261.53,117.97L264.63,196.34L265.67,193.56L266.7,204.73L267.74,231.22L270.84,292.73L271.87,302.75L276.01,328.03L277.04,331.86L278.07,322.63L279.11,283.07L281.17,204.38L282.21,209.2L283.24,226.95L284.28,262.84L286.34,368.05L287.38,370.6L290.48,362.29L291.51,358.85L293.58,346.44L294.61,338.63L296.68,330.85L297.71,330.2L298.75,331.24L299.78,330.78L301.85,325.1L302.88,296.57L305.98,146.16L307.02,136.03L308.05,154.05L309.09,198.86L311.15,339.88L312.19,352.58L314.25,354.9L315.29,355.37L318.39,360.63L319.42,364.07L324.59,380.31L325.63,381.78L326.66,382.16L327.69,361.44L330.79,218.59L331.83,208.15L332.86,221.02L333.89,257L335.96,365.88L337,369.48L339.06,362.64L340.1,357.49L347.33,315.16L348.37,315.5L350.43,322L351.47,322.25L352.5,299.21L353.54,240.07L355.6,132.7L356.64,116.36L357.67,130.13L358.7,169.67L360.77,308.22L361.81,326.45L364.91,349.57L365.94,348.45L368.01,330.08L369.04,316.08L373.18,262.96L374.21,253.29L376.28,231.56L377.31,200.77L380.41,39.5L381.45,19.4L382.48,41.3L383.51,96.14L385.58,248.86L386.62,264.12L388.68,270.46L389.72,277.46L396.95,325.83L397.99,328.46L401.09,332.32L402.12,320.98L405.22,252.42L406.26,256.03L408.32,307.96L409.36,335.39L410.39,350.51L411.42,347.6L412.46,344.93L413.49,345.01L415.56,351.39L416.59,355.33L420.73,369.09L421.76,373.35L423.83,377.83L424.86,375.67L425.9,370.52L426.93,350.34L429,270.24L430.03,257.55L431.07,260.58L432.1,282.61L435.2,367.88L436.23,369.87L439.34,367.51L440.37,369.05L443.47,375.9L444.5,376.71L445.54,375.94L446.57,374.08L448.64,366.08L449.67,359.16L450.71,349.14L451.74,324.28L454.84,177.71L455.88,161.82L456.91,167.11L457.94,192.1L461.04,294.01L462.08,304.64L463.11,311.44L464.14,307.69L466.21,292.15L467.25,287.28L468.28,281.56L469.31,283.49L471.38,319.02L472.41,333.48L475.52,352.78L476.55,355.66L477.58,355.41L478.62,352.56L483.79,304.16L484.82,299.28L487.92,270L488.95,268.3L489.99,259.13L491.02,240.73L492.06,219.73L493.09,215.71L495.16,209.95L496.19,224.8L499.29,287.47L500.33,296.25L501.36,291.39L502.39,270.78L505.49,217.18L506.53,218.36L508.6,295.05L509.63,336.51L511.7,351.04L512.73,356.41L513.76,358.46L514.8,356.37L516.87,348.52L517.9,338.28L521,301.24L521,301.24L517.9,338.28L516.87,348.52L514.8,356.37L513.76,358.46L512.73,356.41L511.7,351.04L508.6,333.21L507.56,324.24L505.49,316.78L504.46,311.33L502.39,302.9L501.36,301.66L500.33,296.25L499.29,287.47L496.19,224.8L495.16,209.95L493.09,215.71L492.06,219.73L491.02,240.73L489.99,259.13L488.95,268.3L487.92,270L486.89,282.1L485.85,289.87L482.75,335.03L481.72,349.14L479.65,368.24L478.62,367.59L476.55,356.91L475.52,352.78L472.41,333.48L471.38,319.02L469.31,283.49L468.28,281.56L465.18,298.61L464.14,307.69L463.11,311.44L462.08,304.64L460.01,275.8L458.98,264.7L457.94,259.33L456.91,256.62L455.88,262.3L454.84,271.93L452.77,319.91L451.74,337.43L449.67,359.16L448.64,366.08L446.57,374.08L445.54,375.94L444.5,376.71L443.47,375.9L440.37,369.05L439.34,367.51L437.27,369.09L436.23,369.87L434.17,369.6L433.13,368.78L429,357.69L427.96,358.07L424.86,375.67L423.83,377.83L421.76,373.35L420.73,369.09L416.59,355.33L415.56,351.39L413.49,345.01L412.46,344.93L409.36,357.38L408.32,359.93L407.29,360.2L406.26,357.84L403.15,338.94L402.12,334.64L397.99,328.46L396.95,325.83L389.72,277.46L388.68,270.46L386.62,264.12L385.58,259.94L381.45,215.91L380.41,210.14L379.38,209.29L378.35,212.19L374.21,253.29L373.18,262.96L369.04,316.08L368.01,330.08L365.94,348.45L364.91,349.57L360.77,318.1L359.74,312.76L358.7,309.74L357.67,310.98L354.57,322.15L353.54,324.01L351.47,322.5L350.43,322L348.37,315.5L347.33,315.16L341.13,351.5L340.1,357.49L338.03,366.62L337,369.48L334.93,372.03L333.89,372.88L331.83,376.56L330.79,378.45L328.73,380.77L327.69,381.81L325.63,381.78L324.59,380.31L319.42,364.07L318.39,360.63L316.32,356.88L315.29,355.37L313.22,354.36L312.19,352.58L307.02,321.34L305.98,318.95L304.95,318.29L303.92,318.79L302.88,321.77L301.85,325.13L299.78,330.78L298.75,331.24L297.71,330.2L296.68,330.85L294.61,338.63L293.58,346.44L291.51,358.85L290.48,362.29L287.38,370.6L286.34,371.88L285.31,371.53L284.28,369.4L280.14,334.88L279.11,330.7L277.04,331.86L276.01,328.03L271.87,302.75L270.84,292.73L267.74,231.22L266.7,204.73L265.67,193.56L264.63,196.34L261.53,119.59L260.5,117.7L259.47,164.8L258.43,130.69L257.4,161.57L256.37,145.11L255.33,150.95L254.3,165.1L253.26,163.97L252.23,133.71L251.2,192.19L250.16,112.56L249.13,223.38L248.1,228.6L247.06,228.86L246.03,225.21L240.86,181.01L239.83,166.91L238.79,161.38L237.76,158.83L236.72,168.33L235.69,169.64L234.66,167.68L233.62,163.56L231.56,162.51L230.52,163.98L229.49,116.27L228.45,165.68L226.39,192.91L225.35,215L224.32,224.66L223.29,230.37L222.25,230.63L221.22,227.61L215.02,167.95L213.98,162.97L212.95,160.79L211.91,166.74L210.88,166.32L209.85,165.3L208.81,171.4L207.78,182.31L205.71,173.49L204.68,174.92L203.64,174.34L202.61,164.21L200.54,214.03L199.51,224.1L198.48,96.63L197.44,227.49L196.41,225.24L195.38,219.71L191.24,177.07L190.21,165.32L189.17,159.01L188.14,156.26L187.11,166.65L186.07,167.45L185.04,166.34L184,163.21L181.94,162.23L180.9,164.23L179.87,162.24L178.84,164.32L176.77,194.18L175.73,220.86L174.7,233.27L173.67,237.32L172.63,238.64L171.6,236.9L168.5,215.73L167.46,215.46L165.4,203.2L164.36,198.85L162.3,211.04L161.26,215.44L160.23,102.79L159.19,209.81L158.16,206.59L157.13,207.51L152.99,250.56L151.96,256.68L150.92,254.41L149.89,251.98L148.86,251.66L147.82,250.78L146.79,239.68L145.76,240.08L144.72,229.77L143.69,222.19L142.65,219.15L141.62,210.34L139.55,192.43L138.52,192.31L136.45,216L135.42,202.62L133.35,194.75L132.32,194.43L131.28,157.75L130.25,207.53L127.15,237.57L126.12,240.97L125.08,258.98L124.05,271L123.01,275.99L121.98,282.56L120.95,284.77L119.91,276.84L115.78,219.93L114.74,200.56L111.64,158.49L110.61,153.23L109.58,159.22L108.54,156.48L105.44,187.87L104.41,194.52L102.34,194.87L101.31,191.2L100.27,195.72L99.24,220.35L96.14,289.95L95.1,307.81L94.07,316.74L93.04,327.1L89.93,341.56L88.9,348.41L84.77,371.3L83.73,376.28L82.7,378.68L81.66,378.37L79.6,373.19L78.56,367.97L74.43,341.56L73.39,331.2L70.29,289.48L69.26,265.82L67.19,220.35L66.16,195.65L62.02,142.79L60.99,126.55L58.92,113.52L57.89,131.2L56.86,133.56L55.82,85.92L54.79,165.32L53.75,81.12L52.72,78.03L51.69,212.94L50.65,221.75L49.62,226.3L48.59,228.26L47.55,226.11L41.35,165.82L40.32,160.75L39.28,159.23L38.25,164.46L37.21,102.59L36.18,166.73L35.15,163.61L34.11,162.26L33.08,143.87L32.05,163.62L29.98,165.76L28.94,173.46L27.91,52.4L26.88,215.68L25.84,224.98L24.81,230.14L23.78,231.89L22.74,230.14L20.67,212.91L19.64,201.69L15.51,167.72L14.47,165.55L11.37,203.73L10.34,222.48L7.24,315.81L6.2,340.75L5.17,354.36L4.13,357.88L2.07,352.97L1.03,349.18L0,347.63Z" style="fill: rgb(245, 236, 66); fill-opacity: 0.5; stroke-width: 0;"/></g></g><g class="errorbars"/><g class="lines"><path class="js-line" d="M0,347.63L1.03,349.18L2.07,352.97L4.13,357.88L5.17,354.36L6.2,340.75L7.24,315.81L10.34,222.48L11.37,203.73L14.47,165.55L15.51,167.72L19.64,201.69L20.67,212.91L22.74,230.14L23.78,231.89L24.81,230.14L25.84,224.98L26.88,215.68L27.91,52.4L28.94,173.46L29.98,165.76L32.05,163.62L33.08,143.87L34.11,162.26L35.15,163.61L36.18,166.73L37.21,102.59L38.25,164.46L39.28,159.23L40.32,160.75L41.35,165.82L47.55,226.11L48.59,228.26L49.62,226.3L50.65,221.75L51.69,212.94L52.72,78.03L53.75,81.12L54.79,165.32L55.82,85.92L56.86,133.56L57.89,131.2L58.92,113.52L60.99,126.55L62.02,142.79L66.16,195.65L67.19,220.35L69.26,265.82L70.29,289.48L73.39,331.2L74.43,341.56L78.56,367.97L79.6,373.19L81.66,378.37L82.7,378.68L83.73,376.28L84.77,371.3L88.9,348.41L89.93,341.56L93.04,327.1L94.07,316.74L95.1,307.81L96.14,289.95L99.24,220.35L100.27,195.72L101.31,191.2L102.34,194.87L104.41,194.52L105.44,187.87L108.54,156.48L109.58,159.22L110.61,153.23L111.64,158.49L114.74,200.56L115.78,219.93L119.91,276.84L120.95,284.77L121.98,282.56L123.01,275.99L124.05,271L125.08,258.98L126.12,240.97L127.15,237.57L130.25,207.53L131.28,157.75L132.32,194.43L133.35,194.75L135.42,202.62L136.45,216L138.52,192.31L139.55,192.43L141.62,210.34L142.65,219.15L143.69,222.19L144.72,229.77L145.76,240.08L146.79,239.68L147.82,250.78L148.86,251.66L149.89,251.98L150.92,254.41L151.96,256.68L152.99,250.56L157.13,207.51L158.16,206.59L159.19,209.81L160.23,102.79L161.26,215.44L162.3,211.04L164.36,198.85L165.4,203.2L167.46,215.46L168.5,215.73L171.6,236.9L172.63,238.64L173.67,237.32L174.7,233.27L175.73,220.86L176.77,194.18L178.84,164.32L179.87,162.24L180.9,164.23L181.94,162.23L184,163.21L185.04,166.34L186.07,167.45L187.11,166.65L188.14,156.26L189.17,159.01L190.21,165.32L191.24,177.07L195.38,219.71L196.41,225.24L197.44,227.49L198.48,96.63L199.51,224.1L200.54,214.03L202.61,164.21L203.64,174.34L204.68,174.92L205.71,173.49L207.78,182.31L208.81,171.4L209.85,165.3L210.88,166.32L211.91,166.74L212.95,160.79L213.98,162.97L215.02,167.95L221.22,227.61L222.25,230.63L223.29,230.37L224.32,224.66L225.35,215L226.39,192.91L228.45,165.68L229.49,116.27L230.52,163.98L231.56,162.51L233.62,163.56L234.66,167.68L235.69,169.64L236.72,168.33L237.76,158.83L238.79,161.38L239.83,166.91L240.86,181.01L246.03,225.21L247.06,228.86L248.1,228.6L249.13,223.38L250.16,112.56L251.2,192.19L252.23,133.71L253.26,163.97L254.3,165.1L255.33,150.95L256.37,145.11L257.4,161.57L258.43,130.69L259.47,164.8L260.5,117.7L261.53,119.59L264.63,196.34L265.67,193.56L266.7,204.73L267.74,231.22L270.84,292.73L271.87,302.75L276.01,328.03L277.04,331.86L279.11,330.7L280.14,334.88L284.28,369.4L285.31,371.53L286.34,371.88L287.38,370.6L290.48,362.29L291.51,358.85L293.58,346.44L294.61,338.63L296.68,330.85L297.71,330.2L298.75,331.24L299.78,330.78L301.85,325.13L302.88,321.77L303.92,318.79L304.95,318.29L305.98,318.95L307.02,321.34L312.19,352.58L313.22,354.36L315.29,355.37L316.32,356.88L318.39,360.63L319.42,364.07L324.59,380.31L325.63,381.78L327.69,381.81L328.73,380.77L330.79,378.45L331.83,376.56L333.89,372.88L334.93,372.03L337,369.48L338.03,366.62L340.1,357.49L341.13,351.5L347.33,315.16L348.37,315.5L350.43,322L351.47,322.5L353.54,324.01L354.57,322.15L357.67,310.98L358.7,309.74L359.74,312.76L360.77,318.1L364.91,349.57L365.94,348.45L368.01,330.08L369.04,316.08L373.18,262.96L374.21,253.29L378.35,212.19L379.38,209.29L380.41,210.14L381.45,215.91L385.58,259.94L386.62,264.12L388.68,270.46L389.72,277.46L396.95,325.83L397.99,328.46L402.12,334.64L403.15,338.94L406.26,357.84L407.29,360.2L408.32,359.93L409.36,357.38L412.46,344.93L413.49,345.01L415.56,351.39L416.59,355.33L420.73,369.09L421.76,373.35L423.83,377.83L424.86,375.67L427.96,358.07L429,357.69L433.13,368.78L434.17,369.6L436.23,369.87L437.27,369.09L439.34,367.51L440.37,369.05L443.47,375.9L444.5,376.71L445.54,375.94L446.57,374.08L448.64,366.08L449.67,359.16L451.74,337.43L452.77,319.91L454.84,271.93L455.88,262.3L456.91,256.62L457.94,259.33L458.98,264.7L460.01,275.8L462.08,304.64L463.11,311.44L464.14,307.69L465.18,298.61L468.28,281.56L469.31,283.49L471.38,319.02L472.41,333.48L475.52,352.78L476.55,356.91L478.62,367.59L479.65,368.24L481.72,349.14L482.75,335.03L485.85,289.87L486.89,282.1L487.92,270L488.95,268.3L489.99,259.13L491.02,240.73L492.06,219.73L493.09,215.71L495.16,209.95L496.19,224.8L499.29,287.47L500.33,296.25L501.36,301.66L502.39,302.9L504.46,311.33L505.49,316.78L507.56,324.24L508.6,333.21L511.7,351.04L512.73,356.41L513.76,358.46L514.8,356.37L516.87,348.52L517.9,338.28L521,301.24" style="vector-effect: non-scaling-stroke; fill: none; stroke: rgb(255, 255, 255); stroke-opacity: 1; stroke-width: 0.5px; opacity: 1;"/></g><g class="points"/><g class="text"/></g><g class="trace scatter trace52d4cb" style="stroke-miterlimit: 2;"><g class="fills"><g><path class="js-fill" d="M0,347.63L1.03,349.18L2.07,352.97L4.13,357.88L5.17,352.85L7.24,275.11L8.27,222.1L9.3,179.24L10.34,171.38L11.37,173.56L12.4,171.45L13.44,172.87L14.47,165.55L15.51,167.72L16.54,175.17L22.74,230.14L23.78,231.89L24.81,230.14L25.84,224.98L26.88,215.68L27.91,52.4L28.94,173.46L29.98,165.76L32.05,163.62L33.08,143.87L34.11,162.26L35.15,163.61L36.18,166.73L37.21,102.59L38.25,164.46L39.28,159.23L40.32,160.75L41.35,165.82L47.55,226.11L48.59,228.26L49.62,226.3L50.65,221.75L51.69,212.94L52.72,78.03L53.75,81.12L54.79,164.8L55.82,85.92L56.86,133.56L57.89,131.2L58.92,73.96L60.99,107.22L62.02,136.35L64.09,160.72L65.13,175.73L69.26,226.01L70.29,237.34L72.36,253.73L73.39,258.28L74.43,260.86L75.46,259.02L77.53,238.21L78.56,243.04L79.6,246.09L80.63,229.19L82.7,194.56L83.73,189.11L84.77,186.44L85.8,195.54L87.87,231.54L88.9,223.48L90.97,212.38L92,209.41L94.07,205.88L95.1,214.83L98.2,227.71L99.24,220.35L100.27,195.72L101.31,191.2L102.34,194.87L103.37,189.48L105.44,163.56L106.47,129.33L107.51,101.61L108.54,100.64L118.88,265.78L119.91,276.84L120.95,284.77L121.98,272.69L123.01,263.15L124.05,262.49L125.08,258.98L126.12,240.97L127.15,237.57L128.18,228.54L130.25,207.53L131.28,157.75L132.32,194.43L133.35,194.75L135.42,202.62L136.45,204.25L137.49,200.52L138.52,192.31L139.55,192.43L140.59,199.09L142.65,219.15L143.69,222.19L145.76,240.08L146.79,239.68L147.82,250.78L148.86,251.66L149.89,251.98L150.92,254.41L151.96,256.68L152.99,250.56L157.13,207.51L158.16,206.59L159.19,209.81L160.23,102.79L161.26,213.67L162.3,211.04L164.36,198.85L165.4,203.2L167.46,215.46L168.5,215.73L171.6,236.9L172.63,238.64L173.67,237.32L174.7,233.27L175.73,220.86L176.77,194.18L178.84,164.32L179.87,162.24L180.9,164.23L181.94,162.23L184,163.21L185.04,166.34L186.07,167.45L187.11,166.28L188.14,156.26L189.17,159.01L190.21,165.32L191.24,177.07L195.38,219.71L196.41,225.24L197.44,227.49L198.48,96.63L199.51,224.1L200.54,214.03L202.61,164.21L203.64,166.94L206.75,157.96L207.78,160.44L208.81,161.89L209.85,165.3L211.91,166.74L212.95,160.79L213.98,162.97L215.02,167.95L221.22,227.61L222.25,230.63L223.29,230.37L224.32,224.66L225.35,215L226.39,192.91L228.45,165.68L229.49,116.27L230.52,163.98L231.56,162.51L233.62,163.56L234.66,167.68L235.69,169.64L236.72,168.33L237.76,158.83L238.79,161.38L239.83,166.91L240.86,181.01L246.03,225.21L247.06,228.86L248.1,228.6L249.13,223.38L250.16,112.56L251.2,192.19L252.23,133.67L253.26,163.97L254.3,165.1L255.33,150.95L256.37,145.11L257.4,161.57L258.43,130.69L259.47,164.8L260.5,117.7L261.53,117.97L264.63,196.34L265.67,193.56L266.7,204.73L267.74,231.22L270.84,292.73L271.87,302.75L276.01,328.03L277.04,331.86L278.07,322.63L279.11,283.07L281.17,204.38L282.21,209.2L283.24,226.95L284.28,262.84L286.34,345.92L287.38,370.6L289.44,240.49L290.48,237.36L292.55,228.89L293.58,232.79L297.71,284.02L298.75,301.55L299.78,327.98L300.82,328.5L301.85,325.1L302.88,296.57L305.98,146.16L307.02,136.03L308.05,154.05L309.09,198.86L311.15,339.88L312.19,352.58L314.25,354.9L315.29,355.37L316.32,328.07L317.36,358.42L319.42,364.07L320.46,349.61L321.49,371.14L322.52,374.2L325.63,381.78L326.66,354.25L327.69,361.44L328.73,310.71L330.79,218.59L331.83,208.15L332.86,221.02L333.89,257L335.96,365.88L337,369.48L338.03,285.06L339.06,362.64L340.1,357.49L341.13,325.74L342.16,345.28L343.2,288.03L344.23,331.28L345.27,325.25L347.33,274.47L348.37,270.83L350.43,222.15L351.47,197.32L353.54,169.11L354.57,166.98L356.64,116.36L357.67,130.13L359.74,236.51L360.77,308.22L361.81,269.62L362.84,285.8L363.87,282.37L364.91,287.28L369.04,316.08L370.08,301.24L374.21,253.29L375.24,243.13L376.28,231.56L377.31,200.77L380.41,39.5L381.45,19.4L382.48,41.3L383.51,96.14L385.58,248.86L386.62,264.12L388.68,270.46L389.72,277.46L396.95,325.46L397.99,328.46L401.09,332.32L402.12,289.87L403.15,264.5L404.19,262.51L405.22,252.42L406.26,256.03L408.32,307.96L409.36,271.49L410.39,272.47L411.42,347.6L412.46,264.98L413.49,268.7L414.53,279.68L415.56,251.46L416.59,244.69L417.63,245.3L418.66,243.95L419.69,260.99L421.76,373.35L422.8,319.69L423.83,316.15L424.86,294.9L426.93,256.25L427.96,221.57L431.07,161.73L432.1,162.71L435.2,242.95L436.23,244.94L437.27,244.96L438.3,274.6L440.37,296.33L441.4,302.02L443.47,318.96L444.5,323.77L446.57,329.22L447.61,326.85L448.64,317.65L449.67,295.7L451.74,271.14L452.77,267.96L454.84,177.71L455.88,161.82L456.91,167.11L457.94,192.1L461.04,294.01L462.08,304.64L463.11,311.44L464.14,307.69L466.21,292.15L467.25,287.28L468.28,281.56L469.31,283.49L471.38,319.02L472.41,333.48L475.52,352.78L476.55,355.66L477.58,355.41L478.62,352.56L483.79,304.16L484.82,299.28L487.92,270L488.95,268.3L489.99,259.13L491.02,240.73L492.06,219.73L493.09,215.71L495.16,209.95L496.19,224.8L499.29,287.47L500.33,296.25L501.36,291.39L502.39,270.78L505.49,217.18L506.53,218.36L508.6,295.05L509.63,336.51L511.7,351.04L512.73,356.41L513.76,358.46L514.8,356.37L516.87,348.52L517.9,338.28L521,301.24L521,301.24L517.9,338.28L516.87,348.52L514.8,356.37L513.76,358.46L512.73,356.41L511.7,351.04L509.63,336.51L508.6,295.05L506.53,218.36L505.49,217.18L502.39,270.78L501.36,291.39L500.33,296.25L499.29,287.47L496.19,224.8L495.16,209.95L493.09,215.71L492.06,219.73L491.02,240.73L489.99,259.13L488.95,268.3L487.92,270L484.82,299.28L483.79,304.16L478.62,352.56L477.58,355.41L476.55,355.66L475.52,352.78L472.41,333.48L471.38,319.02L469.31,283.49L468.28,281.56L467.25,287.28L466.21,292.15L464.14,307.69L463.11,311.44L462.08,304.64L461.04,294.01L457.94,192.1L456.91,167.11L455.88,161.82L454.84,177.71L451.74,324.28L450.71,349.14L449.67,359.16L448.64,366.08L446.57,374.08L445.54,375.94L444.5,376.71L443.47,375.9L440.37,369.05L439.34,367.51L436.23,369.87L435.2,367.88L432.1,282.61L431.07,260.58L430.03,257.55L429,270.24L426.93,350.34L425.9,370.52L424.86,375.67L423.83,377.83L421.76,373.35L420.73,369.09L416.59,355.33L415.56,351.39L413.49,345.01L412.46,344.93L411.42,347.6L410.39,350.51L409.36,335.39L408.32,307.96L406.26,256.03L405.22,252.42L402.12,320.98L401.09,332.32L397.99,328.46L396.95,325.83L389.72,277.46L388.68,270.46L386.62,264.12L385.58,248.86L383.51,96.14L382.48,41.3L381.45,19.4L380.41,39.5L377.31,200.77L376.28,231.56L374.21,253.29L373.18,262.96L369.04,316.08L368.01,330.08L365.94,348.45L364.91,349.57L361.81,326.45L360.77,308.22L358.7,169.67L357.67,130.13L356.64,116.36L355.6,132.7L353.54,240.07L352.5,299.21L351.47,322.25L350.43,322L348.37,315.5L347.33,315.16L340.1,357.49L339.06,362.64L337,369.48L335.96,365.88L333.89,257L332.86,221.02L331.83,208.15L330.79,218.59L327.69,361.44L326.66,382.16L325.63,381.78L324.59,380.31L319.42,364.07L318.39,360.63L315.29,355.37L314.25,354.9L312.19,352.58L311.15,339.88L309.09,198.86L308.05,154.05L307.02,136.03L305.98,146.16L302.88,296.57L301.85,325.1L299.78,330.78L298.75,331.24L297.71,330.2L296.68,330.85L294.61,338.63L293.58,346.44L291.51,358.85L290.48,362.29L287.38,370.6L286.34,368.05L284.28,262.84L283.24,226.95L282.21,209.2L281.17,204.38L279.11,283.07L278.07,322.63L277.04,331.86L276.01,328.03L271.87,302.75L270.84,292.73L267.74,231.22L266.7,204.73L265.67,193.56L264.63,196.34L261.53,117.97L260.5,117.7L259.47,164.8L258.43,130.69L257.4,161.57L256.37,145.11L255.33,150.95L254.3,165.1L253.26,163.97L252.23,133.67L251.2,192.19L250.16,112.56L249.13,223.38L248.1,228.6L247.06,228.86L246.03,225.21L240.86,181.01L239.83,166.91L238.79,161.38L237.76,158.83L236.72,168.33L235.69,169.64L234.66,167.68L233.62,163.56L231.56,162.51L230.52,163.98L229.49,116.27L228.45,165.68L226.39,192.91L225.35,215L224.32,224.66L223.29,230.37L222.25,230.63L221.22,227.61L215.02,167.95L213.98,162.97L212.95,160.79L211.91,166.74L209.85,165.3L208.81,161.89L207.78,160.44L206.75,157.96L203.64,166.94L202.61,164.21L200.54,214.03L199.51,224.1L198.48,96.63L197.44,227.49L196.41,225.24L195.38,219.71L191.24,177.07L190.21,165.32L189.17,159.01L188.14,156.26L187.11,166.28L186.07,167.45L185.04,166.34L184,163.21L181.94,162.23L180.9,164.23L179.87,162.24L178.84,164.32L176.77,194.18L175.73,220.86L174.7,233.27L173.67,237.32L172.63,238.64L171.6,236.9L168.5,215.73L167.46,215.46L165.4,203.2L164.36,198.85L162.3,211.04L161.26,213.67L160.23,102.79L159.19,209.81L158.16,206.59L157.13,207.51L152.99,250.56L151.96,256.68L150.92,254.41L149.89,251.98L148.86,251.66L147.82,250.78L146.79,239.68L145.76,240.08L143.69,222.19L142.65,219.15L140.59,199.09L139.55,192.43L138.52,192.31L137.49,200.52L136.45,204.25L135.42,202.62L133.35,194.75L132.32,194.43L131.28,157.75L130.25,207.53L127.15,237.57L126.12,240.97L125.08,258.98L124.05,271L121.98,282.56L120.95,284.77L119.91,276.84L118.88,265.78L108.54,100.64L107.51,101.61L104.41,189.85L103.37,194.8L102.34,194.87L101.31,191.2L100.27,195.72L99.24,220.35L96.14,289.95L95.1,307.81L92,334.33L90.97,337.31L88.9,348.41L87.87,356.47L85.8,320.47L84.77,311.37L83.73,314.04L82.7,319.49L80.63,354.11L79.6,371.02L77.53,363.14L76.5,357.42L73.39,331.2L72.36,321.92L65.13,175.73L64.09,162.74L62.02,136.35L60.99,107.22L58.92,73.96L57.89,131.2L56.86,133.56L55.82,85.92L54.79,164.8L53.75,81.12L52.72,78.03L51.69,212.94L50.65,221.75L49.62,226.3L48.59,228.26L47.55,226.11L41.35,165.82L40.32,160.75L39.28,159.23L38.25,164.46L37.21,102.59L36.18,166.73L35.15,163.61L34.11,162.26L33.08,143.87L32.05,163.62L29.98,165.76L28.94,173.46L27.91,52.4L26.88,215.68L25.84,224.98L24.81,230.14L23.78,231.89L22.74,230.14L16.54,175.17L15.51,167.72L14.47,165.55L13.44,172.87L12.4,171.45L11.37,173.56L10.34,171.38L9.3,179.24L8.27,222.1L7.24,275.11L5.17,352.85L4.13,357.88L2.07,352.97L1.03,349.18L0,347.63Z" style="fill: rgb(245, 66, 66); fill-opacity: 0.5; stroke-width: 0;"/></g></g><g class="errorbars"/><g class="lines"><path class="js-line" d="M0,347.63L1.03,349.18L2.07,352.97L4.13,357.88L5.17,352.85L7.24,275.11L8.27,222.1L9.3,179.24L10.34,171.38L11.37,173.56L12.4,171.45L13.44,172.87L14.47,165.55L15.51,167.72L16.54,175.17L22.74,230.14L23.78,231.89L24.81,230.14L25.84,224.98L26.88,215.68L27.91,52.4L28.94,173.46L29.98,165.76L32.05,163.62L33.08,143.87L34.11,162.26L35.15,163.61L36.18,166.73L37.21,102.59L38.25,164.46L39.28,159.23L40.32,160.75L41.35,165.82L47.55,226.11L48.59,228.26L49.62,226.3L50.65,221.75L51.69,212.94L52.72,78.03L53.75,81.12L54.79,164.8L55.82,85.92L56.86,133.56L57.89,131.2L58.92,73.96L60.99,107.22L62.02,136.35L64.09,162.74L65.13,175.73L72.36,321.92L73.39,331.2L76.5,357.42L77.53,363.14L79.6,371.02L80.63,354.11L82.7,319.49L83.73,314.04L84.77,311.37L85.8,320.47L87.87,356.47L88.9,348.41L90.97,337.31L92,334.33L95.1,307.81L96.14,289.95L99.24,220.35L100.27,195.72L101.31,191.2L102.34,194.87L103.37,194.8L104.41,189.85L107.51,101.61L108.54,100.64L118.88,265.78L119.91,276.84L120.95,284.77L121.98,282.56L124.05,271L125.08,258.98L126.12,240.97L127.15,237.57L130.25,207.53L131.28,157.75L132.32,194.43L133.35,194.75L135.42,202.62L136.45,204.25L137.49,200.52L138.52,192.31L139.55,192.43L140.59,199.09L142.65,219.15L143.69,222.19L145.76,240.08L146.79,239.68L147.82,250.78L148.86,251.66L149.89,251.98L150.92,254.41L151.96,256.68L152.99,250.56L157.13,207.51L158.16,206.59L159.19,209.81L160.23,102.79L161.26,213.67L162.3,211.04L164.36,198.85L165.4,203.2L167.46,215.46L168.5,215.73L171.6,236.9L172.63,238.64L173.67,237.32L174.7,233.27L175.73,220.86L176.77,194.18L178.84,164.32L179.87,162.24L180.9,164.23L181.94,162.23L184,163.21L185.04,166.34L186.07,167.45L187.11,166.28L188.14,156.26L189.17,159.01L190.21,165.32L191.24,177.07L195.38,219.71L196.41,225.24L197.44,227.49L198.48,96.63L199.51,224.1L200.54,214.03L202.61,164.21L203.64,166.94L206.75,157.96L207.78,160.44L208.81,161.89L209.85,165.3L211.91,166.74L212.95,160.79L213.98,162.97L215.02,167.95L221.22,227.61L222.25,230.63L223.29,230.37L224.32,224.66L225.35,215L226.39,192.91L228.45,165.68L229.49,116.27L230.52,163.98L231.56,162.51L233.62,163.56L234.66,167.68L235.69,169.64L236.72,168.33L237.76,158.83L238.79,161.38L239.83,166.91L240.86,181.01L246.03,225.21L247.06,228.86L248.1,228.6L249.13,223.38L250.16,112.56L251.2,192.19L252.23,133.67L253.26,163.97L254.3,165.1L255.33,150.95L256.37,145.11L257.4,161.57L258.43,130.69L259.47,164.8L260.5,117.7L261.53,117.97L264.63,196.34L265.67,193.56L266.7,204.73L267.74,231.22L270.84,292.73L271.87,302.75L276.01,328.03L277.04,331.86L278.07,322.63L279.11,283.07L281.17,204.38L282.21,209.2L283.24,226.95L284.28,262.84L286.34,368.05L287.38,370.6L290.48,362.29L291.51,358.85L293.58,346.44L294.61,338.63L296.68,330.85L297.71,330.2L298.75,331.24L299.78,330.78L301.85,325.1L302.88,296.57L305.98,146.16L307.02,136.03L308.05,154.05L309.09,198.86L311.15,339.88L312.19,352.58L314.25,354.9L315.29,355.37L318.39,360.63L319.42,364.07L324.59,380.31L325.63,381.78L326.66,382.16L327.69,361.44L330.79,218.59L331.83,208.15L332.86,221.02L333.89,257L335.96,365.88L337,369.48L339.06,362.64L340.1,357.49L347.33,315.16L348.37,315.5L350.43,322L351.47,322.25L352.5,299.21L353.54,240.07L355.6,132.7L356.64,116.36L357.67,130.13L358.7,169.67L360.77,308.22L361.81,326.45L364.91,349.57L365.94,348.45L368.01,330.08L369.04,316.08L373.18,262.96L374.21,253.29L376.28,231.56L377.31,200.77L380.41,39.5L381.45,19.4L382.48,41.3L383.51,96.14L385.58,248.86L386.62,264.12L388.68,270.46L389.72,277.46L396.95,325.83L397.99,328.46L401.09,332.32L402.12,320.98L405.22,252.42L406.26,256.03L408.32,307.96L409.36,335.39L410.39,350.51L411.42,347.6L412.46,344.93L413.49,345.01L415.56,351.39L416.59,355.33L420.73,369.09L421.76,373.35L423.83,377.83L424.86,375.67L425.9,370.52L426.93,350.34L429,270.24L430.03,257.55L431.07,260.58L432.1,282.61L435.2,367.88L436.23,369.87L439.34,367.51L440.37,369.05L443.47,375.9L444.5,376.71L445.54,375.94L446.57,374.08L448.64,366.08L449.67,359.16L450.71,349.14L451.74,324.28L454.84,177.71L455.88,161.82L456.91,167.11L457.94,192.1L461.04,294.01L462.08,304.64L463.11,311.44L464.14,307.69L466.21,292.15L467.25,287.28L468.28,281.56L469.31,283.49L471.38,319.02L472.41,333.48L475.52,352.78L476.55,355.66L477.58,355.41L478.62,352.56L483.79,304.16L484.82,299.28L487.92,270L488.95,268.3L489.99,259.13L491.02,240.73L492.06,219.73L493.09,215.71L495.16,209.95L496.19,224.8L499.29,287.47L500.33,296.25L501.36,291.39L502.39,270.78L505.49,217.18L506.53,218.36L508.6,295.05L509.63,336.51L511.7,351.04L512.73,356.41L513.76,358.46L514.8,356.37L516.87,348.52L517.9,338.28L521,301.24" style="vector-effect: non-scaling-stroke; fill: none; stroke: rgb(245, 236, 66); stroke-opacity: 1; stroke-width: 0.5px; opacity: 1;"/></g><g class="points"/><g class="text"/></g><g class="trace scatter traceaaac55" style="stroke-miterlimit: 2;"><g class="fills"><g><path class="js-fill" d="M0,347.63L1.03,349.18L2.07,352.97L4.13,357.88L5.17,352.85L7.24,275.11L8.27,222.1L9.3,179.24L10.34,171.38L11.37,173.56L12.4,171.45L13.44,172.87L14.47,165.55L15.51,167.72L16.54,175.17L22.74,230.14L23.78,231.89L24.81,230.14L25.84,224.98L26.88,215.68L27.91,52.4L28.94,173.46L29.98,165.76L32.05,163.62L33.08,143.87L34.11,162.26L35.15,163.61L36.18,166.73L37.21,102.59L38.25,164.46L39.28,159.23L40.32,160.75L41.35,165.82L47.55,226.11L48.59,228.26L49.62,226.3L50.65,221.75L51.69,212.94L52.72,78.03L53.75,81.12L54.79,164.8L55.82,85.92L56.86,133.56L57.89,131.2L58.92,73.96L60.99,107.22L62.02,136.35L64.09,160.72L65.13,175.73L69.26,226.01L70.29,237.34L72.36,253.73L73.39,258.28L74.43,260.86L75.46,259.02L77.53,238.21L78.56,243.04L79.6,246.09L80.63,229.19L82.7,194.56L83.73,189.11L84.77,186.44L85.8,195.54L87.87,231.54L88.9,223.48L90.97,212.38L92,209.41L94.07,205.88L95.1,214.83L98.2,227.71L99.24,220.35L100.27,195.72L101.31,191.2L102.34,194.87L103.37,189.48L105.44,163.56L106.47,129.33L107.51,101.61L108.54,100.64L118.88,265.78L119.91,276.84L120.95,284.77L121.98,272.69L123.01,263.15L124.05,262.49L125.08,258.98L126.12,240.97L127.15,237.57L128.18,228.54L130.25,207.53L131.28,157.75L132.32,194.43L133.35,194.75L135.42,202.62L136.45,204.25L137.49,200.52L138.52,192.31L139.55,192.43L140.59,199.09L142.65,219.15L143.69,222.19L145.76,240.08L146.79,239.68L147.82,250.78L148.86,251.66L149.89,251.98L150.92,254.41L151.96,256.68L152.99,250.56L157.13,207.51L158.16,206.59L159.19,209.81L160.23,102.79L161.26,213.67L162.3,211.04L164.36,198.85L165.4,203.2L167.46,215.46L168.5,215.73L171.6,236.9L172.63,238.64L173.67,237.32L174.7,233.27L175.73,220.86L176.77,194.18L178.84,164.32L179.87,162.24L180.9,164.23L181.94,162.23L184,163.21L185.04,166.34L186.07,167.45L187.11,166.28L188.14,156.26L189.17,159.01L190.21,165.32L191.24,177.07L195.38,219.71L196.41,225.24L197.44,227.49L198.48,96.63L199.51,224.1L200.54,214.03L202.61,164.21L203.64,166.94L206.75,157.96L207.78,160.44L208.81,161.89L209.85,165.3L211.91,166.74L212.95,160.79L213.98,162.97L215.02,167.95L221.22,227.61L222.25,230.63L223.29,230.37L224.32,224.66L225.35,215L226.39,192.91L228.45,165.68L229.49,116.27L230.52,163.98L231.56,162.51L233.62,163.56L234.66,167.68L235.69,169.64L236.72,168.33L237.76,158.83L238.79,161.38L239.83,166.91L240.86,181.01L246.03,225.21L247.06,228.86L248.1,228.6L249.13,223.38L250.16,112.56L251.2,192.19L252.23,133.67L253.26,163.97L254.3,165.1L255.33,150.95L256.37,145.11L257.4,161.57L258.43,130.69L259.47,164.8L260.5,117.7L261.53,117.97L264.63,196.34L265.67,193.56L266.7,204.73L267.74,231.22L270.84,292.73L271.87,302.75L276.01,328.03L277.04,331.86L278.07,322.63L279.11,283.07L281.17,204.38L282.21,209.2L283.24,226.95L284.28,262.84L286.34,345.92L287.38,370.6L289.44,240.49L290.48,237.36L292.55,228.89L293.58,232.79L297.71,284.02L298.75,301.55L299.78,327.98L300.82,328.5L301.85,325.1L302.88,296.57L305.98,146.16L307.02,136.03L308.05,154.05L309.09,198.86L311.15,339.88L312.19,352.58L314.25,354.9L315.29,355.37L316.32,328.07L317.36,358.42L319.42,364.07L320.46,349.61L321.49,371.14L322.52,374.2L325.63,381.78L326.66,354.25L327.69,361.44L328.73,310.71L330.79,218.59L331.83,208.15L332.86,221.02L333.89,257L335.96,365.88L337,369.48L338.03,285.06L339.06,362.64L340.1,357.49L341.13,325.74L342.16,345.28L343.2,288.03L344.23,331.28L345.27,325.25L347.33,274.47L348.37,270.83L350.43,222.15L351.47,197.32L353.54,169.11L354.57,166.98L356.64,116.36L357.67,130.13L359.74,236.51L360.77,308.22L361.81,269.62L362.84,285.8L363.87,282.37L364.91,287.28L369.04,316.08L370.08,301.24L374.21,253.29L375.24,243.13L376.28,231.56L377.31,200.77L380.41,39.5L381.45,19.4L382.48,41.3L383.51,96.14L385.58,248.86L386.62,264.12L388.68,270.46L389.72,277.46L396.95,325.46L397.99,328.46L401.09,332.32L402.12,289.87L403.15,264.5L404.19,262.51L405.22,252.42L406.26,256.03L408.32,307.96L409.36,271.49L410.39,272.47L411.42,347.6L412.46,264.98L413.49,268.7L414.53,279.68L415.56,251.46L416.59,244.69L417.63,245.3L418.66,243.95L419.69,260.99L421.76,373.35L422.8,319.69L423.83,316.15L424.86,294.9L426.93,256.25L427.96,221.57L431.07,161.73L432.1,162.71L435.2,242.95L436.23,244.94L437.27,244.96L438.3,274.6L440.37,296.33L441.4,302.02L443.47,318.96L444.5,323.77L446.57,329.22L447.61,326.85L448.64,317.65L449.67,295.7L451.74,271.14L452.77,267.96L454.84,177.71L455.88,161.82L456.91,167.11L457.94,192.1L461.04,294.01L462.08,304.64L463.11,311.44L464.14,307.69L466.21,292.15L467.25,287.28L468.28,281.56L469.31,283.49L471.38,319.02L472.41,333.48L475.52,352.78L476.55,355.66L477.58,355.41L478.62,352.56L483.79,304.16L484.82,299.28L487.92,270L488.95,268.3L489.99,259.13L491.02,240.73L492.06,219.73L493.09,215.71L495.16,209.95L496.19,224.8L499.29,287.47L500.33,296.25L501.36,291.39L502.39,270.78L505.49,217.18L506.53,218.36L508.6,295.05L509.63,336.51L511.7,351.04L512.73,356.41L513.76,358.46L514.8,356.37L516.87,348.52L517.9,338.28L521,301.24L521,301.24L517.9,338.28L516.87,348.52L514.8,356.37L513.76,358.46L512.73,356.41L511.7,351.04L509.63,336.51L508.6,295.05L506.53,218.36L505.49,217.18L502.39,270.78L501.36,291.39L500.33,296.25L499.29,287.47L496.19,224.8L495.16,209.95L493.09,215.71L492.06,219.73L491.02,240.73L489.99,259.13L488.95,268.3L487.92,270L484.82,299.28L483.79,304.16L478.62,352.56L477.58,355.41L476.55,355.66L475.52,352.78L472.41,333.48L471.38,319.02L469.31,283.49L468.28,281.56L467.25,287.28L466.21,292.15L464.14,307.69L463.11,311.44L462.08,304.64L461.04,294.01L457.94,192.1L456.91,167.11L455.88,161.82L454.84,177.71L452.77,267.96L451.74,271.14L449.67,295.7L448.64,317.65L447.61,326.85L446.57,329.22L444.5,323.77L443.47,318.96L441.4,302.02L440.37,296.33L438.3,274.6L437.27,244.96L436.23,244.94L435.2,242.95L432.1,162.71L431.07,161.73L427.96,221.57L426.93,256.25L424.86,294.9L423.83,316.15L422.8,319.69L421.76,373.35L419.69,260.99L418.66,243.95L417.63,245.3L416.59,244.69L415.56,251.46L414.53,279.68L413.49,268.7L412.46,264.98L411.42,347.6L410.39,272.47L409.36,271.49L408.32,307.96L406.26,256.03L405.22,252.42L404.19,262.51L403.15,264.5L402.12,289.87L401.09,332.32L397.99,328.46L396.95,325.46L389.72,277.46L388.68,270.46L386.62,264.12L385.58,248.86L383.51,96.14L382.48,41.3L381.45,19.4L380.41,39.5L377.31,200.77L376.28,231.56L375.24,243.13L374.21,253.29L370.08,301.24L369.04,316.08L364.91,287.28L363.87,282.37L362.84,285.8L361.81,269.62L360.77,308.22L359.74,236.51L357.67,130.13L356.64,116.36L354.57,166.98L353.54,169.11L351.47,197.32L350.43,222.15L348.37,270.83L347.33,274.47L345.27,325.25L344.23,331.28L343.2,288.03L342.16,345.28L341.13,325.74L340.1,357.49L339.06,362.64L338.03,285.06L337,369.48L335.96,365.88L333.89,257L332.86,221.02L331.83,208.15L330.79,218.59L328.73,310.71L327.69,361.44L326.66,354.25L325.63,381.78L322.52,374.2L321.49,371.14L320.46,349.61L319.42,364.07L317.36,358.42L316.32,328.07L315.29,355.37L314.25,354.9L312.19,352.58L311.15,339.88L309.09,198.86L308.05,154.05L307.02,136.03L305.98,146.16L302.88,296.57L301.85,325.1L300.82,328.5L299.78,327.98L298.75,301.55L297.71,284.02L293.58,232.79L292.55,228.89L290.48,237.36L289.44,240.49L287.38,370.6L286.34,345.92L284.28,262.84L283.24,226.95L282.21,209.2L281.17,204.38L279.11,283.07L278.07,322.63L277.04,331.86L276.01,328.03L271.87,302.75L270.84,292.73L267.74,231.22L266.7,204.73L265.67,193.56L264.63,196.34L261.53,117.97L260.5,117.7L259.47,164.8L258.43,130.69L257.4,161.57L256.37,145.11L255.33,150.95L254.3,165.1L253.26,163.97L252.23,133.67L251.2,192.19L250.16,112.56L249.13,223.38L248.1,228.6L247.06,228.86L246.03,225.21L240.86,181.01L239.83,166.91L238.79,161.38L237.76,158.83L236.72,168.33L235.69,169.64L234.66,167.68L233.62,163.56L231.56,162.51L230.52,163.98L229.49,116.27L228.45,165.68L226.39,192.91L225.35,215L224.32,224.66L223.29,230.37L222.25,230.63L221.22,227.61L215.02,167.95L213.98,162.97L212.95,160.79L211.91,166.74L209.85,165.3L208.81,161.89L207.78,160.44L206.75,157.96L203.64,166.94L202.61,164.21L200.54,214.03L199.51,224.1L198.48,96.63L197.44,227.49L196.41,225.24L195.38,219.71L191.24,177.07L190.21,165.32L189.17,159.01L188.14,156.26L187.11,166.28L186.07,167.45L185.04,166.34L184,163.21L181.94,162.23L180.9,164.23L179.87,162.24L178.84,164.32L176.77,194.18L175.73,220.86L174.7,233.27L173.67,237.32L172.63,238.64L171.6,236.9L168.5,215.73L167.46,215.46L165.4,203.2L164.36,198.85L162.3,211.04L161.26,213.67L160.23,102.79L159.19,209.81L158.16,206.59L157.13,207.51L152.99,250.56L151.96,256.68L150.92,254.41L149.89,251.98L148.86,251.66L147.82,250.78L146.79,239.68L145.76,240.08L143.69,222.19L142.65,219.15L140.59,199.09L139.55,192.43L138.52,192.31L137.49,200.52L136.45,204.25L135.42,202.62L133.35,194.75L132.32,194.43L131.28,157.75L130.25,207.53L128.18,228.54L127.15,237.57L126.12,240.97L125.08,258.98L124.05,262.49L123.01,263.15L121.98,272.69L120.95,284.77L119.91,276.84L118.88,265.78L108.54,100.64L107.51,101.61L106.47,129.33L105.44,163.56L103.37,189.48L102.34,194.87L101.31,191.2L100.27,195.72L99.24,220.35L98.2,227.71L95.1,214.83L94.07,205.88L92,209.41L90.97,212.38L88.9,223.48L87.87,231.54L85.8,195.54L84.77,186.44L83.73,189.11L82.7,194.56L80.63,229.19L79.6,246.09L78.56,243.04L77.53,238.21L75.46,259.02L74.43,260.86L73.39,258.28L72.36,253.73L70.29,237.34L69.26,226.01L65.13,175.73L64.09,160.72L62.02,136.35L60.99,107.22L58.92,73.96L57.89,131.2L56.86,133.56L55.82,85.92L54.79,164.8L53.75,81.12L52.72,78.03L51.69,212.94L50.65,221.75L49.62,226.3L48.59,228.26L47.55,226.11L41.35,165.82L40.32,160.75L39.28,159.23L38.25,164.46L37.21,102.59L36.18,166.73L35.15,163.61L34.11,162.26L33.08,143.87L32.05,163.62L29.98,165.76L28.94,173.46L27.91,52.4L26.88,215.68L25.84,224.98L24.81,230.14L23.78,231.89L22.74,230.14L16.54,175.17L15.51,167.72L14.47,165.55L13.44,172.87L12.4,171.45L11.37,173.56L10.34,171.38L9.3,179.24L8.27,222.1L7.24,275.11L5.17,352.85L4.13,357.88L2.07,352.97L1.03,349.18L0,347.63Z" style="fill: rgb(66, 108, 245); fill-opacity: 0.5; stroke-width: 0;"/></g></g><g class="errorbars"/><g class="lines"><path class="js-line" d="M0,347.63L1.03,349.18L2.07,352.97L4.13,357.88L5.17,352.85L7.24,275.11L8.27,222.1L9.3,179.24L10.34,171.38L11.37,173.56L12.4,171.45L13.44,172.87L14.47,165.55L15.51,167.72L16.54,175.17L22.74,230.14L23.78,231.89L24.81,230.14L25.84,224.98L26.88,215.68L27.91,52.4L28.94,173.46L29.98,165.76L32.05,163.62L33.08,143.87L34.11,162.26L35.15,163.61L36.18,166.73L37.21,102.59L38.25,164.46L39.28,159.23L40.32,160.75L41.35,165.82L47.55,226.11L48.59,228.26L49.62,226.3L50.65,221.75L51.69,212.94L52.72,78.03L53.75,81.12L54.79,164.8L55.82,85.92L56.86,133.56L57.89,131.2L58.92,73.96L60.99,107.22L62.02,136.35L64.09,160.72L65.13,175.73L69.26,226.01L70.29,237.34L72.36,253.73L73.39,258.28L74.43,260.86L75.46,259.02L77.53,238.21L78.56,243.04L79.6,246.09L80.63,229.19L82.7,194.56L83.73,189.11L84.77,186.44L85.8,195.54L87.87,231.54L88.9,223.48L90.97,212.38L92,209.41L94.07,205.88L95.1,214.83L98.2,227.71L99.24,220.35L100.27,195.72L101.31,191.2L102.34,194.87L103.37,189.48L105.44,163.56L106.47,129.33L107.51,101.61L108.54,100.64L118.88,265.78L119.91,276.84L120.95,284.77L121.98,272.69L123.01,263.15L124.05,262.49L125.08,258.98L126.12,240.97L127.15,237.57L128.18,228.54L130.25,207.53L131.28,157.75L132.32,194.43L133.35,194.75L135.42,202.62L136.45,204.25L137.49,200.52L138.52,192.31L139.55,192.43L140.59,199.09L142.65,219.15L143.69,222.19L145.76,240.08L146.79,239.68L147.82,250.78L148.86,251.66L149.89,251.98L150.92,254.41L151.96,256.68L152.99,250.56L157.13,207.51L158.16,206.59L159.19,209.81L160.23,102.79L161.26,213.67L162.3,211.04L164.36,198.85L165.4,203.2L167.46,215.46L168.5,215.73L171.6,236.9L172.63,238.64L173.67,237.32L174.7,233.27L175.73,220.86L176.77,194.18L178.84,164.32L179.87,162.24L180.9,164.23L181.94,162.23L184,163.21L185.04,166.34L186.07,167.45L187.11,166.28L188.14,156.26L189.17,159.01L190.21,165.32L191.24,177.07L195.38,219.71L196.41,225.24L197.44,227.49L198.48,96.63L199.51,224.1L200.54,214.03L202.61,164.21L203.64,166.94L206.75,157.96L207.78,160.44L208.81,161.89L209.85,165.3L211.91,166.74L212.95,160.79L213.98,162.97L215.02,167.95L221.22,227.61L222.25,230.63L223.29,230.37L224.32,224.66L225.35,215L226.39,192.91L228.45,165.68L229.49,116.27L230.52,163.98L231.56,162.51L233.62,163.56L234.66,167.68L235.69,169.64L236.72,168.33L237.76,158.83L238.79,161.38L239.83,166.91L240.86,181.01L246.03,225.21L247.06,228.86L248.1,228.6L249.13,223.38L250.16,112.56L251.2,192.19L252.23,133.67L253.26,163.97L254.3,165.1L255.33,150.95L256.37,145.11L257.4,161.57L258.43,130.69L259.47,164.8L260.5,117.7L261.53,117.97L264.63,196.34L265.67,193.56L266.7,204.73L267.74,231.22L270.84,292.73L271.87,302.75L276.01,328.03L277.04,331.86L278.07,322.63L279.11,283.07L281.17,204.38L282.21,209.2L283.24,226.95L284.28,262.84L286.34,345.92L287.38,370.6L289.44,240.49L290.48,237.36L292.55,228.89L293.58,232.79L297.71,284.02L298.75,301.55L299.78,327.98L300.82,328.5L301.85,325.1L302.88,296.57L305.98,146.16L307.02,136.03L308.05,154.05L309.09,198.86L311.15,339.88L312.19,352.58L314.25,354.9L315.29,355.37L316.32,328.07L317.36,358.42L319.42,364.07L320.46,349.61L321.49,371.14L322.52,374.2L325.63,381.78L326.66,354.25L327.69,361.44L328.73,310.71L330.79,218.59L331.83,208.15L332.86,221.02L333.89,257L335.96,365.88L337,369.48L338.03,285.06L339.06,362.64L340.1,357.49L341.13,325.74L342.16,345.28L343.2,288.03L344.23,331.28L345.27,325.25L347.33,274.47L348.37,270.83L350.43,222.15L351.47,197.32L353.54,169.11L354.57,166.98L356.64,116.36L357.67,130.13L359.74,236.51L360.77,308.22L361.81,269.62L362.84,285.8L363.87,282.37L364.91,287.28L369.04,316.08L370.08,301.24L374.21,253.29L375.24,243.13L376.28,231.56L377.31,200.77L380.41,39.5L381.45,19.4L382.48,41.3L383.51,96.14L385.58,248.86L386.62,264.12L388.68,270.46L389.72,277.46L396.95,325.46L397.99,328.46L401.09,332.32L402.12,289.87L403.15,264.5L404.19,262.51L405.22,252.42L406.26,256.03L408.32,307.96L409.36,271.49L410.39,272.47L411.42,347.6L412.46,264.98L413.49,268.7L414.53,279.68L415.56,251.46L416.59,244.69L417.63,245.3L418.66,243.95L419.69,260.99L421.76,373.35L422.8,319.69L423.83,316.15L424.86,294.9L426.93,256.25L427.96,221.57L431.07,161.73L432.1,162.71L435.2,242.95L436.23,244.94L437.27,244.96L438.3,274.6L440.37,296.33L441.4,302.02L443.47,318.96L444.5,323.77L446.57,329.22L447.61,326.85L448.64,317.65L449.67,295.7L451.74,271.14L452.77,267.96L454.84,177.71L455.88,161.82L456.91,167.11L457.94,192.1L461.04,294.01L462.08,304.64L463.11,311.44L464.14,307.69L466.21,292.15L467.25,287.28L468.28,281.56L469.31,283.49L471.38,319.02L472.41,333.48L475.52,352.78L476.55,355.66L477.58,355.41L478.62,352.56L483.79,304.16L484.82,299.28L487.92,270L488.95,268.3L489.99,259.13L491.02,240.73L492.06,219.73L493.09,215.71L495.16,209.95L496.19,224.8L499.29,287.47L500.33,296.25L501.36,291.39L502.39,270.78L505.49,217.18L506.53,218.36L508.6,295.05L509.63,336.51L511.7,351.04L512.73,356.41L513.76,358.46L514.8,356.37L516.87,348.52L517.9,338.28L521,301.24" style="vector-effect: non-scaling-stroke; fill: none; stroke: rgb(245, 66, 66); stroke-opacity: 1; stroke-width: 0.5px; opacity: 1;"/></g><g class="points"/><g class="text"/></g><g class="trace scatter traceafacc7" style="stroke-miterlimit: 2;"><g class="fills"><g><path class="js-fill" d="M0,347.63L1.03,349.18L2.07,339.44L4.13,291.86L5.17,283.63L6.2,282.75L7.24,275.11L9.3,179.24L10.34,171.38L11.37,173.56L12.4,171.45L13.44,172.87L14.47,165.55L15.51,167.72L16.54,175.17L22.74,230.14L23.78,231.89L24.81,230.14L25.84,224.98L26.88,215.68L27.91,52.4L28.94,173.46L29.98,165.76L32.05,163.62L33.08,143.87L34.11,162.26L35.15,163.61L36.18,166.73L37.21,102.59L38.25,164.46L39.28,159.23L40.32,160.75L41.35,165.82L47.55,226.11L48.59,228.26L49.62,226.3L50.65,221.75L51.69,212.94L52.72,78.03L53.75,81.12L54.79,164.8L55.82,85.92L56.86,133.56L57.89,131.2L58.92,73.96L60.99,107.22L62.02,136.35L63.06,155.25L64.09,160.17L68.23,219.02L69.26,226.01L72.36,253.73L73.39,258.28L74.43,260.86L75.46,259.02L76.5,248.27L77.53,226.62L79.6,176.98L80.63,172.34L82.7,167.67L83.73,168.42L84.77,169.86L85.8,173.32L86.83,174.66L87.87,174.52L88.9,167.47L89.93,170.31L90.97,174.31L92,184.74L96.14,218.74L97.17,225.35L98.2,227.43L99.24,220.35L100.27,195.72L101.31,191.2L102.34,185.1L103.37,172.17L104.41,163.63L105.44,162.45L107.51,101.61L108.54,100.64L113.71,182.8L114.74,184.89L115.78,191.2L116.81,202.75L117.85,202.66L118.88,215.03L119.91,218.29L120.95,230.45L123.01,250.58L124.05,256.53L125.08,258.98L126.12,240.97L127.15,237.57L128.18,228.54L130.25,207.53L131.28,157.75L132.32,194.43L133.35,194.75L135.42,202.62L136.45,204.25L137.49,200.52L138.52,192.31L139.55,192.43L140.59,199.09L142.65,219.15L143.69,222.19L145.76,240.08L146.79,239.68L147.82,250.78L148.86,251.66L149.89,251.98L150.92,254.41L151.96,256.68L152.99,250.56L157.13,207.51L158.16,206.59L159.19,209.81L160.23,102.79L161.26,213.67L162.3,211.04L164.36,198.85L165.4,203.2L167.46,215.46L168.5,215.73L171.6,236.9L172.63,238.64L173.67,237.32L174.7,233.27L175.73,220.86L176.77,194.18L178.84,164.32L179.87,162.24L180.9,164.23L181.94,162.23L184,163.21L185.04,166.34L186.07,167.45L187.11,166.28L188.14,156.26L189.17,159.01L190.21,165.32L191.24,177.07L195.38,219.71L196.41,225.24L197.44,227.49L198.48,96.63L199.51,224.1L200.54,214.03L202.61,164.21L203.64,166.94L206.75,157.96L207.78,160.44L208.81,161.89L209.85,165.3L211.91,166.74L212.95,160.79L213.98,162.97L215.02,167.95L221.22,227.61L222.25,230.63L223.29,230.37L224.32,224.66L225.35,215L226.39,192.91L228.45,165.68L229.49,116.27L230.52,163.98L231.56,162.51L233.62,163.56L234.66,167.68L235.69,169.64L236.72,168.33L237.76,158.83L238.79,161.38L239.83,166.91L240.86,181.01L246.03,225.21L247.06,228.86L248.1,228.6L249.13,223.38L250.16,112.56L251.2,192.19L252.23,133.67L253.26,163.97L254.3,165.1L255.33,150.95L256.37,145.11L257.4,161.57L258.43,130.69L259.47,164.8L260.5,117.7L261.53,117.97L264.63,196.34L265.67,193.56L266.7,204.73L267.74,231.22L270.84,292.73L271.87,302.75L274.97,322.08L276.01,301.36L278.07,274.25L279.11,272.7L281.17,204.38L282.21,209.2L284.28,243.51L285.31,230.21L287.38,192.89L288.41,236.82L289.44,179.91L290.48,204.58L291.51,218.39L292.55,221.54L293.58,229.31L294.61,243.29L297.71,283.85L298.75,301.47L299.78,327.94L300.82,328.5L301.85,325.1L302.88,296.57L305.98,146.16L307.02,136.03L308.05,154.05L309.09,198.86L311.15,316.43L312.19,303.45L313.22,301.27L314.25,306.83L316.32,328.07L317.36,330.25L321.49,353L322.52,354.97L325.63,359.32L326.66,354.25L327.69,343.96L328.73,310.71L330.79,218.59L331.83,208.15L332.86,221.02L333.89,257L335.96,312.51L337,269.52L338.03,272.12L339.06,288.99L340.1,319.85L341.13,325.74L342.16,289.63L343.2,288.03L344.23,274.71L345.27,291.04L346.3,271.92L347.33,274.47L348.37,270.83L349.4,252.37L351.47,192.65L352.5,177.44L353.54,168.07L354.57,166.48L356.64,116.36L357.67,130.13L359.74,212.46L360.77,220.31L361.81,227.97L362.84,266.07L366.97,298.78L368.01,309.55L369.04,316.08L370.08,301.24L374.21,253.29L375.24,243.13L376.28,231.56L377.31,200.77L380.41,39.5L381.45,19.4L382.48,41.3L383.51,96.14L385.58,248.86L386.62,263.17L387.65,262.33L388.68,266.21L390.75,284.61L391.78,291.26L396.95,325.46L397.99,324.58L399.02,314.49L400.05,292.14L402.12,266.66L403.15,264.5L404.19,262.51L405.22,252.42L406.26,256.03L407.29,266.09L410.39,272.47L411.42,263.92L412.46,264.98L413.49,268.7L414.53,279.68L415.56,251.46L416.59,244.69L417.63,245.3L418.66,243.95L419.69,260.99L421.76,321.55L422.8,319.69L423.83,316.15L424.86,294.9L426.93,256.25L427.96,221.57L431.07,161.73L432.1,162.71L434.17,166.45L435.2,167.51L436.23,171.21L437.27,210.04L439.34,283.23L440.37,292.61L444.5,323.59L445.54,326.86L446.57,329.18L447.61,326.83L448.64,317.64L449.67,295.7L451.74,271.14L452.77,267.96L454.84,177.71L455.88,161.82L456.91,167.11L457.94,192.1L460.01,273.03L461.04,271.08L462.08,270.03L463.11,274.65L465.18,297.37L466.21,292.15L468.28,281.56L469.31,283.49L471.38,319.02L472.41,333.48L473.45,336.06L474.48,334.23L479.65,283.69L480.68,287.06L482.75,309.28L483.79,304.16L484.82,299.28L485.85,289.87L487.92,270L488.95,268.3L489.99,259.13L491.02,240.73L492.06,219.73L493.09,215.71L495.16,209.95L496.19,224.8L499.29,287.47L500.33,296.25L501.36,291.39L502.39,270.78L505.49,217.18L506.53,218.36L507.56,239.49L508.6,232.58L510.66,230.37L511.7,247.48L513.76,319.85L514.8,327.45L515.83,326.49L516.87,335.32L517.9,338.28L518.93,326.33L521,301.24L521,301.24L517.9,338.28L516.87,348.52L514.8,356.37L513.76,358.46L512.73,356.41L511.7,351.04L509.63,336.51L508.6,295.05L506.53,218.36L505.49,217.18L502.39,270.78L501.36,291.39L500.33,296.25L499.29,287.47L496.19,224.8L495.16,209.95L493.09,215.71L492.06,219.73L491.02,240.73L489.99,259.13L488.95,268.3L487.92,270L484.82,299.28L483.79,304.16L478.62,352.56L477.58,355.41L476.55,355.66L475.52,352.78L472.41,333.48L471.38,319.02L469.31,283.49L468.28,281.56L467.25,287.28L466.21,292.15L464.14,307.69L463.11,311.44L462.08,304.64L461.04,294.01L457.94,192.1L456.91,167.11L455.88,161.82L454.84,177.71L452.77,267.96L451.74,271.14L449.67,295.7L448.64,317.65L447.61,326.85L446.57,329.22L444.5,323.77L443.47,318.96L441.4,302.02L440.37,296.33L438.3,274.6L437.27,244.96L436.23,244.94L435.2,242.95L432.1,162.71L431.07,161.73L427.96,221.57L426.93,256.25L424.86,294.9L423.83,316.15L422.8,319.69L421.76,373.35L419.69,260.99L418.66,243.95L417.63,245.3L416.59,244.69L415.56,251.46L414.53,279.68L413.49,268.7L412.46,264.98L411.42,347.6L410.39,272.47L409.36,271.49L408.32,307.96L406.26,256.03L405.22,252.42L404.19,262.51L403.15,264.5L402.12,289.87L401.09,332.32L397.99,328.46L396.95,325.46L389.72,277.46L388.68,270.46L386.62,264.12L385.58,248.86L383.51,96.14L382.48,41.3L381.45,19.4L380.41,39.5L377.31,200.77L376.28,231.56L375.24,243.13L374.21,253.29L370.08,301.24L369.04,316.08L364.91,287.28L363.87,282.37L362.84,285.8L361.81,269.62L360.77,308.22L359.74,236.51L357.67,130.13L356.64,116.36L354.57,166.98L353.54,169.11L351.47,197.32L350.43,222.15L348.37,270.83L347.33,274.47L345.27,325.25L344.23,331.28L343.2,288.03L342.16,345.28L341.13,325.74L340.1,357.49L339.06,362.64L338.03,285.06L337,369.48L335.96,365.88L333.89,257L332.86,221.02L331.83,208.15L330.79,218.59L328.73,310.71L327.69,361.44L326.66,354.25L325.63,381.78L322.52,374.2L321.49,371.14L320.46,349.61L319.42,364.07L317.36,358.42L316.32,328.07L315.29,355.37L314.25,354.9L312.19,352.58L311.15,339.88L309.09,198.86L308.05,154.05L307.02,136.03L305.98,146.16L302.88,296.57L301.85,325.1L300.82,328.5L299.78,327.98L298.75,301.55L297.71,284.02L293.58,232.79L292.55,228.89L290.48,237.36L289.44,240.49L287.38,370.6L286.34,345.92L284.28,262.84L283.24,226.95L282.21,209.2L281.17,204.38L279.11,283.07L278.07,322.63L277.04,331.86L276.01,328.03L271.87,302.75L270.84,292.73L267.74,231.22L266.7,204.73L265.67,193.56L264.63,196.34L261.53,117.97L260.5,117.7L259.47,164.8L258.43,130.69L257.4,161.57L256.37,145.11L255.33,150.95L254.3,165.1L253.26,163.97L252.23,133.67L251.2,192.19L250.16,112.56L249.13,223.38L248.1,228.6L247.06,228.86L246.03,225.21L240.86,181.01L239.83,166.91L238.79,161.38L237.76,158.83L236.72,168.33L235.69,169.64L234.66,167.68L233.62,163.56L231.56,162.51L230.52,163.98L229.49,116.27L228.45,165.68L226.39,192.91L225.35,215L224.32,224.66L223.29,230.37L222.25,230.63L221.22,227.61L215.02,167.95L213.98,162.97L212.95,160.79L211.91,166.74L209.85,165.3L208.81,161.89L207.78,160.44L206.75,157.96L203.64,166.94L202.61,164.21L200.54,214.03L199.51,224.1L198.48,96.63L197.44,227.49L196.41,225.24L195.38,219.71L191.24,177.07L190.21,165.32L189.17,159.01L188.14,156.26L187.11,166.28L186.07,167.45L185.04,166.34L184,163.21L181.94,162.23L180.9,164.23L179.87,162.24L178.84,164.32L176.77,194.18L175.73,220.86L174.7,233.27L173.67,237.32L172.63,238.64L171.6,236.9L168.5,215.73L167.46,215.46L165.4,203.2L164.36,198.85L162.3,211.04L161.26,213.67L160.23,102.79L159.19,209.81L158.16,206.59L157.13,207.51L152.99,250.56L151.96,256.68L150.92,254.41L149.89,251.98L148.86,251.66L147.82,250.78L146.79,239.68L145.76,240.08L143.69,222.19L142.65,219.15L140.59,199.09L139.55,192.43L138.52,192.31L137.49,200.52L136.45,204.25L135.42,202.62L133.35,194.75L132.32,194.43L131.28,157.75L130.25,207.53L128.18,228.54L127.15,237.57L126.12,240.97L125.08,258.98L124.05,262.49L123.01,263.15L121.98,272.69L120.95,284.77L119.91,276.84L118.88,265.78L108.54,100.64L107.51,101.61L106.47,129.33L105.44,163.56L103.37,189.48L102.34,194.87L101.31,191.2L100.27,195.72L99.24,220.35L98.2,227.71L95.1,214.83L94.07,205.88L92,209.41L90.97,212.38L88.9,223.48L87.87,231.54L85.8,195.54L84.77,186.44L83.73,189.11L82.7,194.56L80.63,229.19L79.6,246.09L78.56,243.04L77.53,238.21L75.46,259.02L74.43,260.86L73.39,258.28L72.36,253.73L70.29,237.34L69.26,226.01L65.13,175.73L64.09,160.72L62.02,136.35L60.99,107.22L58.92,73.96L57.89,131.2L56.86,133.56L55.82,85.92L54.79,164.8L53.75,81.12L52.72,78.03L51.69,212.94L50.65,221.75L49.62,226.3L48.59,228.26L47.55,226.11L41.35,165.82L40.32,160.75L39.28,159.23L38.25,164.46L37.21,102.59L36.18,166.73L35.15,163.61L34.11,162.26L33.08,143.87L32.05,163.62L29.98,165.76L28.94,173.46L27.91,52.4L26.88,215.68L25.84,224.98L24.81,230.14L23.78,231.89L22.74,230.14L16.54,175.17L15.51,167.72L14.47,165.55L13.44,172.87L12.4,171.45L11.37,173.56L10.34,171.38L9.3,179.24L8.27,222.1L7.24,275.11L5.17,352.85L4.13,357.88L2.07,352.97L1.03,349.18L0,347.63Z" style="fill: rgb(66, 108, 245); fill-opacity: 0.5; stroke-width: 0;"/></g></g><g class="errorbars"/><g class="lines"><path class="js-line" d="M0,347.63L1.03,349.18L2.07,352.97L4.13,357.88L5.17,352.85L7.24,275.11L8.27,222.1L9.3,179.24L10.34,171.38L11.37,173.56L12.4,171.45L13.44,172.87L14.47,165.55L15.51,167.72L16.54,175.17L22.74,230.14L23.78,231.89L24.81,230.14L25.84,224.98L26.88,215.68L27.91,52.4L28.94,173.46L29.98,165.76L32.05,163.62L33.08,143.87L34.11,162.26L35.15,163.61L36.18,166.73L37.21,102.59L38.25,164.46L39.28,159.23L40.32,160.75L41.35,165.82L47.55,226.11L48.59,228.26L49.62,226.3L50.65,221.75L51.69,212.94L52.72,78.03L53.75,81.12L54.79,164.8L55.82,85.92L56.86,133.56L57.89,131.2L58.92,73.96L60.99,107.22L62.02,136.35L64.09,160.72L65.13,175.73L69.26,226.01L70.29,237.34L72.36,253.73L73.39,258.28L74.43,260.86L75.46,259.02L77.53,238.21L78.56,243.04L79.6,246.09L80.63,229.19L82.7,194.56L83.73,189.11L84.77,186.44L85.8,195.54L87.87,231.54L88.9,223.48L90.97,212.38L92,209.41L94.07,205.88L95.1,214.83L98.2,227.71L99.24,220.35L100.27,195.72L101.31,191.2L102.34,194.87L103.37,189.48L105.44,163.56L106.47,129.33L107.51,101.61L108.54,100.64L118.88,265.78L119.91,276.84L120.95,284.77L121.98,272.69L123.01,263.15L124.05,262.49L125.08,258.98L126.12,240.97L127.15,237.57L128.18,228.54L130.25,207.53L131.28,157.75L132.32,194.43L133.35,194.75L135.42,202.62L136.45,204.25L137.49,200.52L138.52,192.31L139.55,192.43L140.59,199.09L142.65,219.15L143.69,222.19L145.76,240.08L146.79,239.68L147.82,250.78L148.86,251.66L149.89,251.98L150.92,254.41L151.96,256.68L152.99,250.56L157.13,207.51L158.16,206.59L159.19,209.81L160.23,102.79L161.26,213.67L162.3,211.04L164.36,198.85L165.4,203.2L167.46,215.46L168.5,215.73L171.6,236.9L172.63,238.64L173.67,237.32L174.7,233.27L175.73,220.86L176.77,194.18L178.84,164.32L179.87,162.24L180.9,164.23L181.94,162.23L184,163.21L185.04,166.34L186.07,167.45L187.11,166.28L188.14,156.26L189.17,159.01L190.21,165.32L191.24,177.07L195.38,219.71L196.41,225.24L197.44,227.49L198.48,96.63L199.51,224.1L200.54,214.03L202.61,164.21L203.64,166.94L206.75,157.96L207.78,160.44L208.81,161.89L209.85,165.3L211.91,166.74L212.95,160.79L213.98,162.97L215.02,167.95L221.22,227.61L222.25,230.63L223.29,230.37L224.32,224.66L225.35,215L226.39,192.91L228.45,165.68L229.49,116.27L230.52,163.98L231.56,162.51L233.62,163.56L234.66,167.68L235.69,169.64L236.72,168.33L237.76,158.83L238.79,161.38L239.83,166.91L240.86,181.01L246.03,225.21L247.06,228.86L248.1,228.6L249.13,223.38L250.16,112.56L251.2,192.19L252.23,133.67L253.26,163.97L254.3,165.1L255.33,150.95L256.37,145.11L257.4,161.57L258.43,130.69L259.47,164.8L260.5,117.7L261.53,117.97L264.63,196.34L265.67,193.56L266.7,204.73L267.74,231.22L270.84,292.73L271.87,302.75L276.01,328.03L277.04,331.86L278.07,322.63L279.11,283.07L281.17,204.38L282.21,209.2L283.24,226.95L284.28,262.84L286.34,345.92L287.38,370.6L289.44,240.49L290.48,237.36L292.55,228.89L293.58,232.79L297.71,284.02L298.75,301.55L299.78,327.98L300.82,328.5L301.85,325.1L302.88,296.57L305.98,146.16L307.02,136.03L308.05,154.05L309.09,198.86L311.15,339.88L312.19,352.58L314.25,354.9L315.29,355.37L316.32,328.07L317.36,358.42L319.42,364.07L320.46,349.61L321.49,371.14L322.52,374.2L325.63,381.78L326.66,354.25L327.69,361.44L328.73,310.71L330.79,218.59L331.83,208.15L332.86,221.02L333.89,257L335.96,365.88L337,369.48L338.03,285.06L339.06,362.64L340.1,357.49L341.13,325.74L342.16,345.28L343.2,288.03L344.23,331.28L345.27,325.25L347.33,274.47L348.37,270.83L350.43,222.15L351.47,197.32L353.54,169.11L354.57,166.98L356.64,116.36L357.67,130.13L359.74,236.51L360.77,308.22L361.81,269.62L362.84,285.8L363.87,282.37L364.91,287.28L369.04,316.08L370.08,301.24L374.21,253.29L375.24,243.13L376.28,231.56L377.31,200.77L380.41,39.5L381.45,19.4L382.48,41.3L383.51,96.14L385.58,248.86L386.62,264.12L388.68,270.46L389.72,277.46L396.95,325.46L397.99,328.46L401.09,332.32L402.12,289.87L403.15,264.5L404.19,262.51L405.22,252.42L406.26,256.03L408.32,307.96L409.36,271.49L410.39,272.47L411.42,347.6L412.46,264.98L413.49,268.7L414.53,279.68L415.56,251.46L416.59,244.69L417.63,245.3L418.66,243.95L419.69,260.99L421.76,373.35L422.8,319.69L423.83,316.15L424.86,294.9L426.93,256.25L427.96,221.57L431.07,161.73L432.1,162.71L435.2,242.95L436.23,244.94L437.27,244.96L438.3,274.6L440.37,296.33L441.4,302.02L443.47,318.96L444.5,323.77L446.57,329.22L447.61,326.85L448.64,317.65L449.67,295.7L451.74,271.14L452.77,267.96L454.84,177.71L455.88,161.82L456.91,167.11L457.94,192.1L461.04,294.01L462.08,304.64L463.11,311.44L464.14,307.69L466.21,292.15L467.25,287.28L468.28,281.56L469.31,283.49L471.38,319.02L472.41,333.48L475.52,352.78L476.55,355.66L477.58,355.41L478.62,352.56L483.79,304.16L484.82,299.28L487.92,270L488.95,268.3L489.99,259.13L491.02,240.73L492.06,219.73L493.09,215.71L495.16,209.95L496.19,224.8L499.29,287.47L500.33,296.25L501.36,291.39L502.39,270.78L505.49,217.18L506.53,218.36L508.6,295.05L509.63,336.51L511.7,351.04L512.73,356.41L513.76,358.46L514.8,356.37L516.87,348.52L517.9,338.28L521,301.24" style="vector-effect: non-scaling-stroke; fill: none; stroke: rgb(66, 108, 245); stroke-opacity: 1; stroke-width: 0.5px; opacity: 1;"/></g><g class="points"/><g class="text"/></g><g class="trace scatter trace72448e" style="stroke-miterlimit: 2;"><g class="fills"/><g class="errorbars"/><g class="lines"><path class="js-line" d="M0,347.63L1.03,349.18L2.07,339.44L4.13,291.86L5.17,283.63L6.2,282.75L7.24,275.11L9.3,179.24L10.34,171.38L11.37,173.56L12.4,171.45L13.44,172.87L14.47,165.55L15.51,167.72L16.54,175.17L22.74,230.14L23.78,231.89L24.81,230.14L25.84,224.98L26.88,215.68L27.91,52.4L28.94,173.46L29.98,165.76L32.05,163.62L33.08,143.87L34.11,162.26L35.15,163.61L36.18,166.73L37.21,102.59L38.25,164.46L39.28,159.23L40.32,160.75L41.35,165.82L47.55,226.11L48.59,228.26L49.62,226.3L50.65,221.75L51.69,212.94L52.72,78.03L53.75,81.12L54.79,164.8L55.82,85.92L56.86,133.56L57.89,131.2L58.92,73.96L60.99,107.22L62.02,136.35L63.06,155.25L64.09,160.17L68.23,219.02L69.26,226.01L72.36,253.73L73.39,258.28L74.43,260.86L75.46,259.02L76.5,248.27L77.53,226.62L79.6,176.98L80.63,172.34L82.7,167.67L83.73,168.42L84.77,169.86L85.8,173.32L86.83,174.66L87.87,174.52L88.9,167.47L89.93,170.31L90.97,174.31L92,184.74L96.14,218.74L97.17,225.35L98.2,227.43L99.24,220.35L100.27,195.72L101.31,191.2L102.34,185.1L103.37,172.17L104.41,163.63L105.44,162.45L107.51,101.61L108.54,100.64L113.71,182.8L114.74,184.89L115.78,191.2L116.81,202.75L117.85,202.66L118.88,215.03L119.91,218.29L120.95,230.45L123.01,250.58L124.05,256.53L125.08,258.98L126.12,240.97L127.15,237.57L128.18,228.54L130.25,207.53L131.28,157.75L132.32,194.43L133.35,194.75L135.42,202.62L136.45,204.25L137.49,200.52L138.52,192.31L139.55,192.43L140.59,199.09L142.65,219.15L143.69,222.19L145.76,240.08L146.79,239.68L147.82,250.78L148.86,251.66L149.89,251.98L150.92,254.41L151.96,256.68L152.99,250.56L157.13,207.51L158.16,206.59L159.19,209.81L160.23,102.79L161.26,213.67L162.3,211.04L164.36,198.85L165.4,203.2L167.46,215.46L168.5,215.73L171.6,236.9L172.63,238.64L173.67,237.32L174.7,233.27L175.73,220.86L176.77,194.18L178.84,164.32L179.87,162.24L180.9,164.23L181.94,162.23L184,163.21L185.04,166.34L186.07,167.45L187.11,166.28L188.14,156.26L189.17,159.01L190.21,165.32L191.24,177.07L195.38,219.71L196.41,225.24L197.44,227.49L198.48,96.63L199.51,224.1L200.54,214.03L202.61,164.21L203.64,166.94L206.75,157.96L207.78,160.44L208.81,161.89L209.85,165.3L211.91,166.74L212.95,160.79L213.98,162.97L215.02,167.95L221.22,227.61L222.25,230.63L223.29,230.37L224.32,224.66L225.35,215L226.39,192.91L228.45,165.68L229.49,116.27L230.52,163.98L231.56,162.51L233.62,163.56L234.66,167.68L235.69,169.64L236.72,168.33L237.76,158.83L238.79,161.38L239.83,166.91L240.86,181.01L246.03,225.21L247.06,228.86L248.1,228.6L249.13,223.38L250.16,112.56L251.2,192.19L252.23,133.67L253.26,163.97L254.3,165.1L255.33,150.95L256.37,145.11L257.4,161.57L258.43,130.69L259.47,164.8L260.5,117.7L261.53,117.97L264.63,196.34L265.67,193.56L266.7,204.73L267.74,231.22L270.84,292.73L271.87,302.75L274.97,322.08L276.01,301.36L278.07,274.25L279.11,272.7L281.17,204.38L282.21,209.2L284.28,243.51L285.31,230.21L287.38,192.89L288.41,236.82L289.44,179.91L290.48,204.58L291.51,218.39L292.55,221.54L293.58,229.31L294.61,243.29L297.71,283.85L298.75,301.47L299.78,327.94L300.82,328.5L301.85,325.1L302.88,296.57L305.98,146.16L307.02,136.03L308.05,154.05L309.09,198.86L311.15,316.43L312.19,303.45L313.22,301.27L314.25,306.83L316.32,328.07L317.36,330.25L321.49,353L322.52,354.97L325.63,359.32L326.66,354.25L327.69,343.96L328.73,310.71L330.79,218.59L331.83,208.15L332.86,221.02L333.89,257L335.96,312.51L337,269.52L338.03,272.12L339.06,288.99L340.1,319.85L341.13,325.74L342.16,289.63L343.2,288.03L344.23,274.71L345.27,291.04L346.3,271.92L347.33,274.47L348.37,270.83L349.4,252.37L351.47,192.65L352.5,177.44L353.54,168.07L354.57,166.48L356.64,116.36L357.67,130.13L359.74,212.46L360.77,220.31L361.81,227.97L362.84,266.07L366.97,298.78L368.01,309.55L369.04,316.08L370.08,301.24L374.21,253.29L375.24,243.13L376.28,231.56L377.31,200.77L380.41,39.5L381.45,19.4L382.48,41.3L383.51,96.14L385.58,248.86L386.62,263.17L387.65,262.33L388.68,266.21L390.75,284.61L391.78,291.26L396.95,325.46L397.99,324.58L399.02,314.49L400.05,292.14L402.12,266.66L403.15,264.5L404.19,262.51L405.22,252.42L406.26,256.03L407.29,266.09L410.39,272.47L411.42,263.92L412.46,264.98L413.49,268.7L414.53,279.68L415.56,251.46L416.59,244.69L417.63,245.3L418.66,243.95L419.69,260.99L421.76,321.55L422.8,319.69L423.83,316.15L424.86,294.9L426.93,256.25L427.96,221.57L431.07,161.73L432.1,162.71L434.17,166.45L435.2,167.51L436.23,171.21L437.27,210.04L439.34,283.23L440.37,292.61L444.5,323.59L445.54,326.86L446.57,329.18L447.61,326.83L448.64,317.64L449.67,295.7L451.74,271.14L452.77,267.96L454.84,177.71L455.88,161.82L456.91,167.11L457.94,192.1L460.01,273.03L461.04,271.08L462.08,270.03L463.11,274.65L465.18,297.37L466.21,292.15L468.28,281.56L469.31,283.49L471.38,319.02L472.41,333.48L473.45,336.06L474.48,334.23L479.65,283.69L480.68,287.06L482.75,309.28L483.79,304.16L484.82,299.28L485.85,289.87L487.92,270L488.95,268.3L489.99,259.13L491.02,240.73L492.06,219.73L493.09,215.71L495.16,209.95L496.19,224.8L499.29,287.47L500.33,296.25L501.36,291.39L502.39,270.78L505.49,217.18L506.53,218.36L507.56,239.49L508.6,232.58L510.66,230.37L511.7,247.48L513.76,319.85L514.8,327.45L515.83,326.49L516.87,335.32L517.9,338.28L518.93,326.33L521,301.24" style="vector-effect: non-scaling-stroke; fill: none; stroke: rgb(66, 108, 245); stroke-opacity: 1; stroke-width: 0.5px; opacity: 1;"/></g><g class="points"/><g class="text"/></g><g class="trace scatter trace86d319" style="stroke-miterlimit: 2; opacity: 1;"><g class="fills"/><g class="errorbars"/><g class="lines"><path class="js-line" d="M0,253.01L1.03,247.18L2.07,233.62L4.13,186.04L5.17,177.81L6.2,176.94L7.24,173.21L8.27,170.5L9.3,172.02L10.34,172.12L11.37,173.56L12.4,175.32L13.44,172.87L14.47,165.55L15.51,167.72L19.64,201.69L20.67,212.91L22.74,230.14L23.78,231.89L24.81,230.14L25.84,224.98L26.88,215.68L27.91,192.36L29.98,165.76L31.01,164.79L34.11,162.26L35.15,163.61L36.18,166.73L37.21,167.24L38.25,164.46L39.28,159.23L40.32,160.75L41.35,165.82L47.55,226.11L48.59,228.26L49.62,226.3L50.65,221.75L51.69,212.94L52.72,191.6L54.79,164.8L55.82,164.1L57.89,156.7L58.92,159.82L59.96,159.48L60.99,161.41L62.02,164.22L63.06,163.94L64.09,157.3L65.13,159.94L66.16,165.34L67.19,179.22L72.36,227.56L73.39,230.51L74.43,230.53L75.46,227.78L76.5,219.24L77.53,197.73L79.6,171.8L80.63,172.34L82.7,167.67L83.73,168.42L84.77,169.86L85.8,173.32L86.83,174.66L87.87,174.52L88.9,168.21L89.93,170.31L90.97,174.31L92,184.36L95.1,211.49L96.14,218.01L98.2,226.71L99.24,225.89L100.27,223.04L101.31,214.94L103.37,171.45L104.41,162.91L106.47,159.39L107.51,157.1L108.54,158.57L109.58,162.51L111.64,171.61L112.68,171.37L113.71,164.22L114.74,166.76L115.78,171.06L116.81,185.01L121.98,231.97L123.01,236.71L125.08,241.77L126.12,240.97L127.15,237.57L128.18,228.54L131.28,199.9L132.32,194.43L133.35,194.75L134.38,199.23L136.45,204.25L137.49,200.52L138.52,192.31L139.55,192.43L141.62,210.34L142.65,219.15L143.69,222.19L144.72,229.77L146.79,247.19L147.82,250.78L149.89,251.98L150.92,254.41L151.96,256.68L152.99,250.56L157.13,207.51L158.16,206.59L160.23,212.76L161.26,213.67L162.3,211.04L163.33,202.63L164.36,198.85L165.4,203.2L167.46,215.46L168.5,215.73L171.6,236.9L172.63,238.64L173.67,237.32L174.7,233.27L175.73,220.86L176.77,194.18L178.84,165.39L179.87,163.61L180.9,165.46L181.94,162.23L184,163.21L185.04,166.34L186.07,167.45L187.11,166.28L188.14,156.26L189.17,159.01L190.21,165.32L191.24,177.07L195.38,219.71L196.41,225.24L197.44,227.49L198.48,227.09L199.51,224.1L200.54,214.03L203.64,163.84L204.68,164.79L206.75,157.96L207.78,160.44L208.81,161.89L209.85,165.3L211.91,166.74L212.95,160.79L213.98,162.97L215.02,167.95L221.22,227.61L222.25,230.63L223.29,230.37L224.32,224.66L225.35,215L226.39,192.91L228.45,165.68L229.49,165.55L231.56,162.51L232.59,163.03L233.62,163.56L234.66,167.68L235.69,169.64L236.72,168.33L237.76,158.83L238.79,161.38L239.83,166.91L240.86,181.01L246.03,225.21L247.06,228.86L248.1,228.6L249.13,223.38L250.16,214.51L251.2,192.19L253.26,163.97L254.3,165.1L255.33,163.61L256.37,160.69L258.43,162.09L259.47,164.8L260.5,168.5L261.53,169.39L262.57,160.62L263.6,160.35L264.63,165.59L265.67,176.43L269.8,217.3L270.84,224.34L271.87,228.36L272.9,228.75L273.94,225.39L274.97,217.52L277.04,175.77L278.07,169.15L279.11,167.6L280.14,168.92L281.17,168.9L282.21,172.06L284.28,179.51L285.31,180.55L286.34,181.34L287.38,172.41L288.41,172.61L289.44,177.96L292.55,205.89L293.58,215.91L295.65,230.89L296.68,233.92L298.75,238.74L299.78,239.44L300.82,237.48L301.85,228.8L303.92,205.63L304.95,201.22L305.98,199.45L307.02,203.42L309.09,216.7L310.12,215.98L311.15,211.34L312.19,198.36L313.22,196.17L314.25,201.74L316.32,222.25L317.36,224.43L321.49,247.18L322.52,249.15L324.59,252.01L325.63,254.22L326.66,249.16L327.69,238.86L329.76,221.54L330.79,216.67L331.83,216.98L332.86,221.73L334.93,229.22L335.96,224.23L338.03,203.21L339.06,206.87L341.13,220.64L342.16,218.15L345.27,236.03L346.3,238.72L347.33,238.22L348.37,234.08L349.4,221.87L350.43,195.31L351.47,174.13L352.5,169.23L355.6,164.76L356.64,168.19L357.67,168.93L358.7,172.84L359.74,176.03L360.77,175.46L361.81,165.94L362.84,163.78L363.87,167.21L364.91,177.04L369.04,213.74L370.08,217.94L372.14,224.09L373.18,221.84L374.21,212.28L375.24,189.08L377.31,163.14L378.35,160.89L380.41,158.66L381.45,159.13L384.55,163.98L385.58,166.15L386.62,157.35L387.65,156.51L388.68,160.39L389.72,172.62L393.85,209.77L394.88,215.88L396.95,219.64L397.99,218.77L399.02,208.67L400.05,186.32L402.12,160.84L403.15,158.68L404.19,156.69L405.22,156.41L406.26,157.64L407.29,160.27L410.39,166.65L411.42,158.11L412.46,159.16L413.49,163.61L418.66,210.45L419.69,216.55L420.73,220.73L421.76,220.77L422.8,219.01L423.83,211.05L425.9,170.79L426.93,164.45L430.03,159.83L431.07,161.73L432.1,162.71L433.13,165.22L435.2,167.51L436.23,162.27L437.27,162.03L438.3,166.62L442.44,206.2L443.47,213.47L445.54,221.77L446.57,224.08L447.61,221.74L448.64,212.54L450.71,173.24L451.74,166.04L453.81,159.85L454.84,160.47L455.88,161.79L456.91,166.23L458.98,173.2L460.01,174.38L461.04,165.26L462.08,164.21L463.11,168.83L464.14,182.12L468.28,214.8L469.31,221.8L471.38,228.67L472.41,229.46L473.45,230.24L474.48,228.41L478.62,192.28L479.65,190.86L480.68,193.04L481.72,199.84L483.79,205.43L484.82,205.01L485.85,195.42L486.89,193.42L495.16,247.48L496.19,248.65L497.22,247.97L498.26,249.42L499.29,251.75L500.33,245.18L504.46,213.19L505.49,213.21L507.56,223.82L508.6,225.76L509.63,223.94L510.66,212.73L511.7,207.69L512.73,210.25L514.8,221.63L515.83,220.67L518.93,241.42L519.97,242.8L521,240.9" style="vector-effect: non-scaling-stroke; fill: none; stroke: rgb(0, 0, 0); stroke-opacity: 1; stroke-width: 3px; opacity: 1;"/></g><g class="points"/><g class="text"/></g></g></g><g class="overplot"/><path class="xlines-above crisp" d="M0,0" style="fill: none;"/><path class="ylines-above crisp" d="M0,0" style="fill: none;"/><g class="overlines-above"/><g class="xaxislayer-above"><g class="xtick"><text text-anchor="middle" x="0" y="461" transform="translate(68,0)" style="font-family: 'Open Sans', verdana, arial, sans-serif; font-size: 12px; fill: rgb(42, 63, 95); fill-opacity: 1; white-space: pre;">0</text></g><g class="xtick"><text text-anchor="middle" x="0" y="461" transform="translate(171.37,0)" style="font-family: 'Open Sans', verdana, arial, sans-serif; font-size: 12px; fill: rgb(42, 63, 95); fill-opacity: 1; white-space: pre;">100</text></g><g class="xtick"><text text-anchor="middle" x="0" y="461" transform="translate(274.75,0)" style="font-family: 'Open Sans', verdana, arial, sans-serif; font-size: 12px; fill: rgb(42, 63, 95); fill-opacity: 1; white-space: pre;">200</text></g><g class="xtick"><text text-anchor="middle" x="0" y="461" transform="translate(378.12,0)" style="font-family: 'Open Sans', verdana, arial, sans-serif; font-size: 12px; fill: rgb(42, 63, 95); fill-opacity: 1; white-space: pre;">300</text></g><g class="xtick"><text text-anchor="middle" x="0" y="461" transform="translate(481.49,0)" style="font-family: 'Open Sans', verdana, arial, sans-serif; font-size: 12px; fill: rgb(42, 63, 95); fill-opacity: 1; white-space: pre;">400</text></g><g class="xtick"><text text-anchor="middle" x="0" y="461" transform="translate(584.87,0)" style="font-family: 'Open Sans', verdana, arial, sans-serif; font-size: 12px; fill: rgb(42, 63, 95); fill-opacity: 1; white-space: pre;">500</text></g></g><g class="yaxislayer-above"><g class="ytick"><text text-anchor="end" x="67" y="4.199999999999999" transform="translate(0,448)" style="font-family: 'Open Sans', verdana, arial, sans-serif; font-size: 12px; fill: rgb(42, 63, 95); fill-opacity: 1; white-space: pre;">0</text></g><g class="ytick"><text text-anchor="end" x="67" y="4.199999999999999" transform="translate(0,401.11)" style="font-family: 'Open Sans', verdana, arial, sans-serif; font-size: 12px; fill: rgb(42, 63, 95); fill-opacity: 1; white-space: pre;">20k</text></g><g class="ytick"><text text-anchor="end" x="67" y="4.199999999999999" transform="translate(0,354.22)" style="font-family: 'Open Sans', verdana, arial, sans-serif; font-size: 12px; fill: rgb(42, 63, 95); fill-opacity: 1; white-space: pre;">40k</text></g><g class="ytick"><text text-anchor="end" x="67" y="4.199999999999999" transform="translate(0,307.32)" style="font-family: 'Open Sans', verdana, arial, sans-serif; font-size: 12px; fill: rgb(42, 63, 95); fill-opacity: 1; white-space: pre;">60k</text></g><g class="ytick"><text text-anchor="end" x="67" y="4.199999999999999" transform="translate(0,260.43)" style="font-family: 'Open Sans', verdana, arial, sans-serif; font-size: 12px; fill: rgb(42, 63, 95); fill-opacity: 1; white-space: pre;">80k</text></g><g class="ytick"><text text-anchor="end" x="67" y="4.199999999999999" transform="translate(0,213.54)" style="font-family: 'Open Sans', verdana, arial, sans-serif; font-size: 12px; fill: rgb(42, 63, 95); fill-opacity: 1; white-space: pre;">100k</text></g><g class="ytick"><text text-anchor="end" x="67" y="4.199999999999999" transform="translate(0,166.65)" style="font-family: 'Open Sans', verdana, arial, sans-serif; font-size: 12px; fill: rgb(42, 63, 95); fill-opacity: 1; white-space: pre;">120k</text></g><g class="ytick"><text text-anchor="end" x="67" y="4.199999999999999" transform="translate(0,119.75)" style="font-family: 'Open Sans', verdana, arial, sans-serif; font-size: 12px; fill: rgb(42, 63, 95); fill-opacity: 1; white-space: pre;">140k</text></g><g class="ytick"><text text-anchor="end" x="67" y="4.199999999999999" transform="translate(0,72.86)" style="font-family: 'Open Sans', verdana, arial, sans-serif; font-size: 12px; fill: rgb(42, 63, 95); fill-opacity: 1; white-space: pre;">160k</text></g></g><g class="overaxes-above"/></g></g><g class="polarlayer"/><g class="ternarylayer"/><g class="geolayer"/><g class="funnelarealayer"/><g class="pielayer"/><g class="treemaplayer"/><g class="sunburstlayer"/><g class="glimages"/><defs id="topdefs-8093a3"><g class="clips"/><clipPath id="legend8093a3"><rect width="89" height="124" x="0" y="0"/></clipPath></defs><g class="layer-above"><g class="imagelayer"/><g class="shapelayer"/></g><g class="infolayer"><g class="legend" pointer-events="all" transform="translate(599.42,60)"><rect class="bg" shape-rendering="crispEdges" width="89" height="124" x="0" y="0" style="stroke: rgb(68, 68, 68); stroke-opacity: 1; fill: rgb(255, 255, 255); fill-opacity: 1; stroke-width: 0px;"/><g class="scrollbox" transform="" clip-path="url('#legend8093a3')"><g class="groups"><g class="traces" transform="translate(0,14.5)" style="opacity: 1;"><text class="legendtext" text-anchor="start" x="40" y="4.680000000000001" style="font-family: 'Open Sans', verdana, arial, sans-serif; font-size: 12px; fill: rgb(42, 63, 95); fill-opacity: 1; white-space: pre;">load</text><g class="layers" style="opacity: 1;"><g class="legendfill"/><g class="legendlines"><path class="js-line" d="M5,0h30" style="fill: none; stroke: rgb(0, 0, 0); stroke-opacity: 1; stroke-width: 3px;"/></g><g class="legendsymbols"><g class="legendpoints"/></g></g><rect class="legendtoggle" x="0" y="-9.5" width="83.515625" height="19" style="fill: rgb(0, 0, 0); fill-opacity: 0;"/></g><g class="traces" transform="translate(0,33.5)" style="opacity: 1;"><text class="legendtext" text-anchor="start" x="40" y="4.680000000000001" style="font-family: 'Open Sans', verdana, arial, sans-serif; font-size: 12px; fill: rgb(42, 63, 95); fill-opacity: 1; white-space: pre;">battery</text><g class="layers"><g class="legendfill"><path class="js-fill" d="M5,-2h30v6h-30z" style="stroke-width: 0; fill: rgb(66, 108, 245); fill-opacity: 0.5;"/></g><g class="legendlines"><path class="js-line" d="M5,-2h30" style="fill: none; stroke: rgb(66, 108, 245); stroke-opacity: 1; stroke-width: 0.5px;"/></g><g class="legendsymbols"><g class="legendpoints"/></g></g><rect class="legendtoggle" x="0" y="-9.5" width="83.515625" height="19" style="fill: rgb(0, 0, 0); fill-opacity: 0;"/></g><g class="traces" transform="translate(0,52.5)" style="opacity: 1;"><text class="legendtext" text-anchor="start" x="40" y="4.680000000000001" style="font-family: 'Open Sans', verdana, arial, sans-serif; font-size: 12px; fill: rgb(42, 63, 95); fill-opacity: 1; white-space: pre;">hydro</text><g class="layers"><g class="legendfill"><path class="js-fill" d="M5,-2h30v6h-30z" style="stroke-width: 0; fill: rgb(66, 108, 245); fill-opacity: 0.5;"/></g><g class="legendlines"><path class="js-line" d="M5,-2h30" style="fill: none; stroke: rgb(66, 108, 245); stroke-opacity: 1; stroke-width: 0.5px;"/></g><g class="legendsymbols"><g class="legendpoints"/></g></g><rect class="legendtoggle" x="0" y="-9.5" width="83.515625" height="19" style="fill: rgb(0, 0, 0); fill-opacity: 0;"/></g><g class="traces" transform="translate(0,71.5)" style="opacity: 1;"><text class="legendtext" text-anchor="start" x="40" y="4.680000000000001" style="font-family: 'Open Sans', verdana, arial, sans-serif; font-size: 12px; fill: rgb(42, 63, 95); fill-opacity: 1; white-space: pre;">Gas</text><g class="layers"><g class="legendfill"><path class="js-fill" d="M5,-2h30v6h-30z" style="stroke-width: 0; fill: rgb(245, 66, 66); fill-opacity: 0.5;"/></g><g class="legendlines"><path class="js-line" d="M5,-2h30" style="fill: none; stroke: rgb(245, 66, 66); stroke-opacity: 1; stroke-width: 0.5px;"/></g><g class="legendsymbols"><g class="legendpoints"/></g></g><rect class="legendtoggle" x="0" y="-9.5" width="83.515625" height="19" style="fill: rgb(0, 0, 0); fill-opacity: 0;"/></g><g class="traces" transform="translate(0,90.5)" style="opacity: 1;"><text class="legendtext" text-anchor="start" x="40" y="4.680000000000001" style="font-family: 'Open Sans', verdana, arial, sans-serif; font-size: 12px; fill: rgb(42, 63, 95); fill-opacity: 1; white-space: pre;">PV</text><g class="layers"><g class="legendfill"><path class="js-fill" d="M5,-2h30v6h-30z" style="stroke-width: 0; fill: rgb(245, 236, 66); fill-opacity: 0.5;"/></g><g class="legendlines"><path class="js-line" d="M5,-2h30" style="fill: none; stroke: rgb(245, 236, 66); stroke-opacity: 1; stroke-width: 0.5px;"/></g><g class="legendsymbols"><g class="legendpoints"/></g></g><rect class="legendtoggle" x="0" y="-9.5" width="83.515625" height="19" style="fill: rgb(0, 0, 0); fill-opacity: 0;"/></g><g class="traces" transform="translate(0,109.5)" style="opacity: 1;"><text class="legendtext" text-anchor="start" x="40" y="4.680000000000001" style="font-family: 'Open Sans', verdana, arial, sans-serif; font-size: 12px; fill: rgb(42, 63, 95); fill-opacity: 1; white-space: pre;">Wind</text><g class="layers"><g class="legendfill"><path class="js-fill" d="M5,-2h30v6h-30z" style="stroke-width: 0; fill: rgb(255, 255, 255); fill-opacity: 0.5;"/></g><g class="legendlines"><path class="js-line" d="M5,-2h30" style="fill: none; stroke: rgb(255, 255, 255); stroke-opacity: 1; stroke-width: 0.5px;"/></g><g class="legendsymbols"><g class="legendpoints"/></g></g><rect class="legendtoggle" x="0" y="-9.5" width="83.515625" height="19" style="fill: rgb(0, 0, 0); fill-opacity: 0;"/></g></g></g><rect class="scrollbar" rx="20" ry="3" width="0" height="0" x="0" y="0" style="fill: rgb(128, 139, 164); fill-opacity: 1;"/></g><g class="g-gtitle"><text class="gtitle" x="35" y="30" text-anchor="start" dy="0em" style="font-family: 'Open Sans', verdana, arial, sans-serif; font-size: 17px; fill: rgb(42, 63, 95); opacity: 1; font-weight: normal; white-space: pre;">Energy production in Germany between hour 147 and 651</text></g><g class="g-xtitle"><text class="xtitle" x="328.5" y="488.3" text-anchor="middle" style="font-family: 'Open Sans', verdana, arial, sans-serif; font-size: 14px; fill: rgb(42, 63, 95); opacity: 1; font-weight: normal; white-space: pre;">Hours</text></g><g class="g-ytitle" transform="translate(1.7998046875,0)"><text class="ytitle" transform="rotate(-90,12.200000000000003,254)" x="12.200000000000003" y="254" text-anchor="middle" style="font-family: 'Open Sans', verdana, arial, sans-serif; font-size: 14px; fill: rgb(42, 63, 95); opacity: 1; font-weight: normal; white-space: pre;">MWh</text></g></g></svg>