<svg class="main-svg" xmlns="http://www.w3.org/2000/svg" xmlns:xlink="http://www.w3.org/1999/xlink" width="700" height="500" style="" viewBox="0 0 700 500"><rect x="0" y="0" width="700" height="500" style="fill: rgb(255, 255, 255); fill-opacity: 1;"/><defs id="defs-97906d"><g class="clips"><clipPath id="clip97906dxyplot" class="plotclip"><rect width="425" height="388"/></clipPath><clipPath class="axesclip" id="clip97906dx"><rect x="68" y="0" width="425" height="500"/></clipPath><clipPath class="axesclip" id="clip97906dy"><rect x="0" y="60" width="700" height="388"/></clipPath><clipPath class="axesclip" id="clip97906dxy"><rect x="68" y="60" width="425" height="388"/></clipPath></g><g class="gradients"/></defs><g class="bglayer"><rect class="bg" x="68" y="60" width="425" height="388" style="fill: rgb(229, 236, 246); fill-opacity: 1; stroke-width: 0;"/></g><g class="layer-below"><g class="imagelayer"/><g class="shapelayer"/></g><g class="cartesianlayer"><g class="subplot xy"><g class="layer-subplot"><g class="shapelayer"/><g class="imagelayer"/></g><g class="gridlayer"><g class="x"><path class="xgrid crisp" transform="translate(152.32999999999998,0)" d="M0,60v388" style="stroke: rgb(255, 255, 255); stroke-opacity: 1; stroke-width: 1px;"/><path class="xgrid crisp" transform="translate(236.65,0)" d="M0,60v388" style="stroke: rgb(255, 255, 255); stroke-opacity: 1; stroke-width: 1px;"/><path class="xgrid crisp" transform="translate(320.98,0)" d="M0,60v388" style="stroke: rgb(255, 255, 255); stroke-opacity: 1; stroke-width: 1px;"/><path class="xgrid crisp" transform="translate(405.3,0)" d="M0,60v388" style="stroke: rgb(255, 255, 255); stroke-opacity: 1; stroke-width: 1px;"/><path class="xgrid crisp" transform="translate(489.63,0)" d="M0,60v388" style="stroke: rgb(255, 255, 255); stroke-opacity: 1; stroke-width: 1px;"/></g><g class="y"><path class="ygrid crisp" transform="translate(0,353.07)" d="M68,0h425" style="stroke: rgb(255, 255, 255); stroke-opacity: 1; stroke-width: 1px;"/><path class="ygrid crisp" transform="translate(0,258.15)" d="M68,0h425" style="stroke: rgb(255, 255, 255); stroke-opacity: 1; stroke-width: 1px;"/><path class="ygrid crisp" transform="translate(0,163.22)" d="M68,0h425" style="stroke: rgb(255, 255, 255); stroke-opacity: 1; stroke-width: 1px;"/><path class="ygrid crisp" transform="translate(0,68.28999999999999)" d="M68,0h425" style="stroke: rgb(255, 255, 255); stroke-opacity: 1; stroke-width: 1px;"/></g></g><g class="zerolinelayer"><path class="xzl zl crisp" transform="translate(68,0)" d="M0,60v388" style="stroke: rgb(255, 255, 255); stroke-opacity: 1; stroke-width: 2px;"/><path class="yzl zl crisp" transform="translate(0,448)" d="M68,0h425" style="stroke: rgb(255, 255, 255); stroke-opacity: 1; stroke-width: 2px;"/></g><path class="xlines-below"/><path class="ylines-below"/><g class="overlines-below"/><g class="xaxislayer-below"/><g class="yaxislayer-below"/><g class="overaxes-below"/><g class="plot" transform="translate(68,60)" clip-path="url('#clip97906dxyplot')"><g class="scatterlayer mlayer"><g class="trace scatter trace6a46bc" style="stroke-miterlimit: 2;"><g class="fills"><g><path class="js-fill" d="M425,388L0,388L0,355.31L0.84,356.57L1.69,359.63L3.37,363.61L4.22,360.76L5.9,329.55L6.75,300.99L8.43,253.97L9.28,238.79L11.81,207.87L12.65,209.63L16.02,237.14L16.87,246.22L18.55,260.18L19.39,261.59L20.24,260.17L21.08,256L21.92,248.47L22.77,116.25L23.61,214.28L24.45,208.04L26.14,206.31L26.98,190.32L27.83,205.21L28.67,206.3L29.51,208.83L30.36,173.6L31.2,206.99L32.04,202.75L32.89,203.99L33.73,208.09L38.79,256.91L39.63,258.65L40.48,257.07L41.32,253.38L42.16,246.25L43.01,137L43.85,139.51L44.69,207.68L45.54,143.39L46.38,188.44L47.22,186.53L48.07,165.74L49.75,176.29L50.6,189.44L53.97,232.24L54.81,252.25L59.87,342.01L60.71,350.4L64.09,371.78L64.93,376.01L66.62,380.2L67.46,380.45L68.3,378.51L69.15,374.47L75.89,338.69L76.74,330.3L77.58,323.07L78.42,308.6L82.64,228.64L83.48,231.62L85.17,231.33L86.01,225.95L88.54,200.53L89.38,202.75L90.23,197.9L91.07,202.16L93.6,236.22L94.44,251.9L98.66,304.41L99.5,302.62L102.03,283.52L102.88,268.95L103.72,266.19L104.56,258.88L105.41,238.88L106.25,241.87L107.09,201.56L107.94,231.26L108.78,231.52L109.62,235.15L111.31,239.21L112.15,236.37L113,229.54L113.84,229.63L114.68,235.03L115.53,190.07L116.37,251.27L117.21,253.74L118.06,250.24L118.9,268.23L119.74,267.9L120.59,276.89L122.27,277.86L123.12,279.83L123.96,281.66L124.8,276.71L128.17,241.85L129.02,241.1L131.55,248.27L132.39,244.71L134.08,234.84L134.92,238.36L136.61,248.28L137.45,248.51L139.98,265.65L140.82,267.06L141.67,265.99L142.51,262.71L143.35,252.66L144.2,231.06L145.88,206.87L146.73,206.3L147.57,207.8L148.41,205.18L150.1,205.98L150.94,208.51L151.79,209.41L152.63,208.76L153.47,200.35L154.32,202.58L156,217.2L156.85,226.79L160.22,256.21L161.06,258.03L161.9,152.06L162.75,255.28L163.59,247.13L164.43,230.52L165.28,206.79L166.12,214.99L166.96,215.46L167.81,214.3L169.49,221.44L170.34,212.61L171.18,207.67L172.02,208.49L172.87,208.83L173.71,204.02L174.55,205.78L175.4,209.81L180.46,258.12L181.3,260.57L182.14,260.36L182.99,255.74L183.83,247.92L184.67,230.03L186.36,207.97L187.2,207.87L188.89,205.41L189.73,205.83L190.58,206.26L191.42,142.67L192.26,211.18L193.11,210.13L193.95,202.43L194.79,204.5L195.63,208.98L196.48,220.39L200.69,256.18L201.54,259.14L202.38,258.93L203.22,254.7L204.07,164.96L204.91,229.44L205.75,182.09L206.6,206.59L207.44,207.51L208.28,196.05L209.13,203.94L209.97,204.65L210.81,179.64L211.66,207.26L212.5,169.13L213.34,170.66L215.87,232.81L216.72,230.55L217.56,239.6L218.4,261.05L220.93,310.86L221.78,318.97L225.15,339.44L225.99,342.54L227.68,341.6L228.52,344.98L231.89,372.94L232.74,374.66L233.58,374.94L234.42,373.91L237.8,364.39L238.64,360.32L241.17,343.14L242.01,341.73L242.86,341.19L243.7,342.04L244.54,341.66L245.39,339.82L247.92,331.96L248.76,331.55L249.6,332.08L250.45,334.02L254.66,359.32L255.51,360.76L258.04,362.8L258.88,364.05L260.57,368.62L261.41,371.56L264.78,381.77L265.63,382.96L267.31,382.99L268.15,382.15L270.68,378.73L271.53,376.98L275.74,370.69L276.59,367.46L279.96,348.02L280.8,342.07L283.33,329.02L284.18,329.3L285.86,334.56L286.71,334.96L288.39,336.19L289.24,334.68L291.77,325.63L292.61,324.63L294.3,331.4L295.14,338.16L297.67,356.88L298.51,355.97L300.2,341.1L301.04,329.77L305.26,278.92L306.1,270.69L308.63,245.64L309.47,243.29L310.32,243.98L311.16,248.65L314.53,284.31L315.38,287.69L317.06,292.82L317.91,298.49L323.81,337.66L324.65,339.79L328.03,344.79L328.87,348.27L332.24,365.49L333.09,365.27L334.77,359.17L335.62,355.28L336.46,353.12L337.3,353.19L338.99,358.35L339.83,361.54L343.2,372.69L344.05,376.13L345.73,379.77L346.58,378.01L349.11,363.77L349.95,363.45L354.17,373.1L355.01,373.29L356.7,372.69L357.54,371.66L358.38,371.41L359.23,372.66L361.76,378.2L362.6,378.86L364.29,376.73L365.13,374.22L366.82,364.64L367.66,356.54L369.35,332.87L370.19,309.54L371.88,286.22L372.72,281.62L373.56,283.81L374.4,288.16L377.78,326.01L378.62,322.97L381.15,306.44L381.99,301.81L382.84,303.37L383.68,314.21L385.37,343.86L386.21,350.4L388.74,362.83L389.58,367.4L391.27,372L392.11,366.33L394.64,330.55L395.49,317.59L398.02,292.45L398.86,291.07L399.7,283.65L400.55,268.75L402.23,248.49L403.08,246.3L403.92,243.83L404.76,255.85L408.13,313.71L408.98,318.09L409.82,319.09L410.66,321.78L414.88,343.64L415.72,349.71L419.1,364.08L419.94,362.39L421.63,356.03L422.47,347.74L425,317.74" style="fill: rgb(248, 3, 252); fill-opacity: 0.5; stroke-width: 0;"/></g><g><path class="js-fill" d="M0,355.31L0.84,356.57L1.69,359.63L3.37,363.61L4.22,359.54L5.9,296.59L6.75,253.66L8.43,212.6L9.28,214.36L10.12,212.65L10.96,213.8L11.81,207.87L12.65,209.63L16.02,237.14L16.87,246.22L18.55,260.18L19.39,261.59L20.24,260.17L21.08,256L21.92,248.47L22.77,116.25L23.61,214.28L24.45,208.04L26.14,206.31L26.98,190.32L27.83,205.21L28.67,206.3L29.51,208.83L30.36,173.6L31.2,206.99L32.04,202.75L32.89,203.99L33.73,208.09L38.79,256.91L39.63,258.65L40.48,257.07L41.32,253.38L42.16,246.25L43.01,137L43.85,139.51L44.69,207.27L45.54,143.39L46.38,188.44L47.22,186.53L48.07,133.71L48.91,145.04L49.75,176.29L50.6,184.22L51.44,199.53L53.13,216.12L53.97,232.24L58.18,321.63L59.03,334.49L63.24,367.87L64.09,371.78L64.93,374.25L65.77,360.56L67.46,332.53L68.3,328.11L69.15,325.95L69.99,333.32L71.68,362.47L72.52,355.94L74.21,346.96L75.05,344.54L77.58,323.07L78.42,308.6L82.64,228.64L83.48,231.62L84.33,231.55L85.17,227.55L87.7,156.09L88.54,155.31L96.97,289.04L97.82,297.99L98.66,304.41L99.5,302.62L102.03,283.52L102.88,268.95L103.72,266.19L104.56,258.88L105.41,238.88L106.25,241.87L107.09,201.56L107.94,231.26L108.78,231.52L109.62,235.15L111.31,239.21L112.15,236.19L113,229.54L113.84,229.63L114.68,235.03L115.53,190.07L116.37,251.27L117.21,253.74L118.06,250.24L118.9,268.23L119.74,267.9L120.59,276.89L122.27,277.86L123.12,279.83L123.96,281.66L124.8,276.71L128.17,241.85L129.02,241.1L131.55,246.84L132.39,244.71L134.08,234.84L134.92,238.36L136.61,248.28L137.45,248.51L139.98,265.65L140.82,267.06L141.67,265.99L142.51,262.71L143.35,252.66L144.2,231.06L145.88,206.87L146.73,206.3L147.57,207.8L148.41,205.18L150.1,205.98L150.94,208.51L151.79,209.41L152.63,208.46L153.47,200.35L154.32,202.58L156,217.2L156.85,226.79L160.22,256.21L161.06,258.03L161.9,152.06L162.75,255.28L163.59,247.13L164.43,230.52L165.28,206.79L166.12,209L168.65,201.72L169.49,203.73L170.34,204.91L171.18,207.67L172.87,208.83L173.71,204.02L174.55,205.78L175.4,209.81L180.46,258.12L181.3,260.57L182.14,260.36L182.99,255.74L183.83,247.92L184.67,230.03L186.36,207.97L187.2,207.87L188.89,205.41L189.73,205.83L190.58,206.26L191.42,142.67L192.26,211.18L193.11,210.13L193.95,202.43L194.79,204.5L195.63,208.98L196.48,220.39L200.69,256.18L201.54,259.14L202.38,258.93L203.22,254.7L204.07,164.96L204.91,229.44L205.75,182.06L206.6,206.59L207.44,207.51L208.28,196.05L209.13,203.94L209.97,204.65L210.81,179.64L211.66,207.26L212.5,169.13L213.34,169.35L215.87,232.81L216.72,230.55L217.56,239.6L218.4,261.05L220.93,310.86L221.78,318.97L225.15,339.44L225.99,342.54L226.84,335.07L227.68,303.04L229.37,239.31L230.21,243.22L231.05,257.59L231.89,286.66L233.58,371.84L234.42,373.91L237.8,364.39L238.64,360.32L241.17,343.14L242.01,341.73L242.86,341.19L243.7,342.04L244.54,341.66L245.39,339.82L246.23,337.06L247.07,313.97L249.6,192.17L250.45,183.97L251.29,198.56L252.13,234.84L254.66,359.32L255.51,360.76L258.04,362.8L258.88,364.05L260.57,368.62L261.41,371.56L264.78,381.77L265.63,382.96L266.47,383.27L267.31,366.5L269.84,250.82L270.68,242.37L271.53,252.79L272.37,281.93L274.06,370.08L274.9,373L276.59,367.46L277.43,363.3L283.33,329.02L284.18,329.3L285.86,334.56L286.71,334.76L287.55,316.1L288.39,268.21L290.08,181.28L290.92,168.04L291.77,179.19L292.61,211.21L295.14,338.16L295.98,345.92L297.67,356.88L298.51,355.97L300.2,341.1L301.04,329.77L305.26,278.92L306.1,270.69L306.94,261.33L307.79,236.39L311.16,89.53L312,107.26L315.38,287.69L316.22,289.97L317.06,292.82L317.91,298.49L323.81,337.66L324.65,339.79L327.18,342.92L328.03,333.73L330.56,278.22L331.4,281.14L334.77,357.64L335.62,355.28L336.46,353.12L337.3,353.19L338.99,358.35L339.83,361.54L343.2,372.69L344.05,376.13L345.73,379.77L346.58,378.01L347.42,373.85L348.26,357.51L350.79,282.37L351.64,284.83L355.01,371.7L355.85,373.32L358.38,371.41L359.23,372.66L361.76,378.2L362.6,378.86L364.29,376.73L365.13,374.22L366.82,364.64L367.66,356.54L368.5,336.4L369.35,294.42L371.03,217.72L371.88,204.85L372.72,209.14L373.56,229.38L376.09,311.89L376.93,320.5L377.78,326.01L378.62,322.97L381.15,306.44L381.99,301.81L382.84,303.37L383.68,314.21L385.37,343.86L386.21,350.4L387.9,359.48L388.74,361.81L389.58,361.61L390.43,359.3L394.64,320.11L395.49,316.16L399.7,283.65L400.55,268.75L402.23,248.49L403.08,246.3L403.92,243.83L404.76,255.85L408.13,313.71L408.98,309.77L412.35,249.68L413.19,250.63L414.88,312.74L415.72,346.31L417.41,358.07L418.25,362.42L419.1,364.08L419.94,362.39L421.63,356.03L422.47,347.74L425,317.74L425,317.74L422.47,347.74L421.63,356.03L419.94,362.39L419.1,364.08L415.72,349.71L414.88,343.64L410.66,321.78L409.82,319.09L408.98,318.09L408.13,313.71L404.76,255.85L403.92,243.83L403.08,246.3L402.23,248.49L400.55,268.75L399.7,283.65L398.86,291.07L398.02,292.45L395.49,317.59L394.64,330.55L392.11,366.33L391.27,372L389.58,367.4L388.74,362.83L386.21,350.4L385.37,343.86L383.68,314.21L382.84,303.37L381.99,301.81L381.15,306.44L378.62,322.97L377.78,326.01L374.4,288.16L373.56,283.81L372.72,281.62L371.88,286.22L370.19,309.54L369.35,332.87L367.66,356.54L366.82,364.64L365.13,374.22L364.29,376.73L362.6,378.86L361.76,378.2L359.23,372.66L358.38,371.41L357.54,371.66L356.7,372.69L355.01,373.29L354.17,373.1L349.95,363.45L349.11,363.77L346.58,378.01L345.73,379.77L344.05,376.13L343.2,372.69L339.83,361.54L338.99,358.35L337.3,353.19L336.46,353.12L335.62,355.28L334.77,359.17L333.09,365.27L332.24,365.49L328.87,348.27L328.03,344.79L324.65,339.79L323.81,337.66L317.91,298.49L317.06,292.82L315.38,287.69L314.53,284.31L311.16,248.65L310.32,243.98L309.47,243.29L308.63,245.64L306.1,270.69L305.26,278.92L301.04,329.77L300.2,341.1L298.51,355.97L297.67,356.88L295.14,338.16L294.3,331.4L292.61,324.63L291.77,325.63L289.24,334.68L288.39,336.19L286.71,334.96L285.86,334.56L284.18,329.3L283.33,329.02L280.8,342.07L279.96,348.02L276.59,367.46L275.74,370.69L271.53,376.98L270.68,378.73L268.15,382.15L267.31,382.99L265.63,382.96L264.78,381.77L261.41,371.56L260.57,368.62L258.88,364.05L258.04,362.8L255.51,360.76L254.66,359.32L250.45,334.02L249.6,332.08L248.76,331.55L247.92,331.96L245.39,339.82L244.54,341.66L243.7,342.04L242.86,341.19L242.01,341.73L241.17,343.14L238.64,360.32L237.8,364.39L234.42,373.91L233.58,374.94L232.74,374.66L231.89,372.94L228.52,344.98L227.68,341.6L225.99,342.54L225.15,339.44L221.78,318.97L220.93,310.86L218.4,261.05L217.56,239.6L216.72,230.55L215.87,232.81L213.34,170.66L212.5,169.13L211.66,207.26L210.81,179.64L209.97,204.65L209.13,203.94L208.28,196.05L207.44,207.51L206.6,206.59L205.75,182.09L204.91,229.44L204.07,164.96L203.22,254.7L202.38,258.93L201.54,259.14L200.69,256.18L196.48,220.39L195.63,208.98L194.79,204.5L193.95,202.43L193.11,210.13L192.26,211.18L191.42,142.67L190.58,206.26L189.73,205.83L188.89,205.41L187.2,207.87L186.36,207.97L184.67,230.03L183.83,247.92L182.99,255.74L182.14,260.36L181.3,260.57L180.46,258.12L175.4,209.81L174.55,205.78L173.71,204.02L172.87,208.83L172.02,208.49L171.18,207.67L170.34,212.61L169.49,221.44L167.81,214.3L166.96,215.46L166.12,214.99L165.28,206.79L164.43,230.52L163.59,247.13L162.75,255.28L161.9,152.06L161.06,258.03L160.22,256.21L156.85,226.79L156,217.2L154.32,202.58L153.47,200.35L152.63,208.76L151.79,209.41L150.94,208.51L150.1,205.98L148.41,205.18L147.57,207.8L146.73,206.3L145.88,206.87L144.2,231.06L143.35,252.66L142.51,262.71L141.67,265.99L140.82,267.06L139.98,265.65L137.45,248.51L136.61,248.28L134.92,238.36L134.08,234.84L132.39,244.71L131.55,248.27L129.02,241.1L128.17,241.85L124.8,276.71L123.96,281.66L123.12,279.83L122.27,277.86L120.59,276.89L119.74,267.9L118.9,268.23L118.06,250.24L117.21,253.74L116.37,251.27L115.53,190.07L114.68,235.03L113.84,229.63L113,229.54L112.15,236.37L111.31,239.21L109.62,235.15L108.78,231.52L107.94,231.26L107.09,201.56L106.25,241.87L105.41,238.88L104.56,258.88L103.72,266.19L102.88,268.95L102.03,283.52L99.5,302.62L98.66,304.41L94.44,251.9L93.6,236.22L91.07,202.16L90.23,197.9L89.38,202.75L88.54,200.53L86.01,225.95L85.17,231.33L83.48,231.62L82.64,228.64L78.42,308.6L77.58,323.07L76.74,330.3L75.89,338.69L69.15,374.47L68.3,378.51L67.46,380.45L66.62,380.2L64.93,376.01L64.09,371.78L60.71,350.4L59.87,342.01L54.81,252.25L53.97,232.24L50.6,189.44L49.75,176.29L48.07,165.74L47.22,186.53L46.38,188.44L45.54,143.39L44.69,207.68L43.85,139.51L43.01,137L42.16,246.25L41.32,253.38L40.48,257.07L39.63,258.65L38.79,256.91L33.73,208.09L32.89,203.99L32.04,202.75L31.2,206.99L30.36,173.6L29.51,208.83L28.67,206.3L27.83,205.21L26.98,190.32L26.14,206.31L24.45,208.04L23.61,214.28L22.77,116.25L21.92,248.47L21.08,256L20.24,260.17L19.39,261.59L18.55,260.18L16.87,246.22L16.02,237.14L12.65,209.63L11.81,207.87L9.28,238.79L8.43,253.97L6.75,300.99L5.9,329.55L4.22,360.76L3.37,363.61L1.69,359.63L0.84,356.57L0,355.31Z" style="fill: rgb(245, 236, 66); fill-opacity: 0.5; stroke-width: 0;"/></g></g><g class="errorbars"/><g class="lines"><path class="js-line" d="M0,355.31L0.84,356.57L1.69,359.63L3.37,363.61L4.22,360.76L5.9,329.55L6.75,300.99L8.43,253.97L9.28,238.79L11.81,207.87L12.65,209.63L16.02,237.14L16.87,246.22L18.55,260.18L19.39,261.59L20.24,260.17L21.08,256L21.92,248.47L22.77,116.25L23.61,214.28L24.45,208.04L26.14,206.31L26.98,190.32L27.83,205.21L28.67,206.3L29.51,208.83L30.36,173.6L31.2,206.99L32.04,202.75L32.89,203.99L33.73,208.09L38.79,256.91L39.63,258.65L40.48,257.07L41.32,253.38L42.16,246.25L43.01,137L43.85,139.51L44.69,207.68L45.54,143.39L46.38,188.44L47.22,186.53L48.07,165.74L49.75,176.29L50.6,189.44L53.97,232.24L54.81,252.25L59.87,342.01L60.71,350.4L64.09,371.78L64.93,376.01L66.62,380.2L67.46,380.45L68.3,378.51L69.15,374.47L75.89,338.69L76.74,330.3L77.58,323.07L78.42,308.6L82.64,228.64L83.48,231.62L85.17,231.33L86.01,225.95L88.54,200.53L89.38,202.75L90.23,197.9L91.07,202.16L93.6,236.22L94.44,251.9L98.66,304.41L99.5,302.62L102.03,283.52L102.88,268.95L103.72,266.19L104.56,258.88L105.41,238.88L106.25,241.87L107.09,201.56L107.94,231.26L108.78,231.52L109.62,235.15L111.31,239.21L112.15,236.37L113,229.54L113.84,229.63L114.68,235.03L115.53,190.07L116.37,251.27L117.21,253.74L118.06,250.24L118.9,268.23L119.74,267.9L120.59,276.89L122.27,277.86L123.12,279.83L123.96,281.66L124.8,276.71L128.17,241.85L129.02,241.1L131.55,248.27L132.39,244.71L134.08,234.84L134.92,238.36L136.61,248.28L137.45,248.51L139.98,265.65L140.82,267.06L141.67,265.99L142.51,262.71L143.35,252.66L144.2,231.06L145.88,206.87L146.73,206.3L147.57,207.8L148.41,205.18L150.1,205.98L150.94,208.51L151.79,209.41L152.63,208.76L153.47,200.35L154.32,202.58L156,217.2L156.85,226.79L160.22,256.21L161.06,258.03L161.9,152.06L162.75,255.28L163.59,247.13L164.43,230.52L165.28,206.79L166.12,214.99L166.96,215.46L167.81,214.3L169.49,221.44L170.34,212.61L171.18,207.67L172.02,208.49L172.87,208.83L173.71,204.02L174.55,205.78L175.4,209.81L180.46,258.12L181.3,260.57L182.14,260.36L182.99,255.74L183.83,247.92L184.67,230.03L186.36,207.97L187.2,207.87L188.89,205.41L189.73,205.83L190.58,206.26L191.42,142.67L192.26,211.18L193.11,210.13L193.95,202.43L194.79,204.5L195.63,208.98L196.48,220.39L200.69,256.18L201.54,259.14L202.38,258.93L203.22,254.7L204.07,164.96L204.91,229.44L205.75,182.09L206.6,206.59L207.44,207.51L208.28,196.05L209.13,203.94L209.97,204.65L210.81,179.64L211.66,207.26L212.5,169.13L213.34,170.66L215.87,232.81L216.72,230.55L217.56,239.6L218.4,261.05L220.93,310.86L221.78,318.97L225.15,339.44L225.99,342.54L227.68,341.6L228.52,344.98L231.89,372.94L232.74,374.66L233.58,374.94L234.42,373.91L237.8,364.39L238.64,360.32L241.17,343.14L242.01,341.73L242.86,341.19L243.7,342.04L244.54,341.66L245.39,339.82L247.92,331.96L248.76,331.55L249.6,332.08L250.45,334.02L254.66,359.32L255.51,360.76L258.04,362.8L258.88,364.05L260.57,368.62L261.41,371.56L264.78,381.77L265.63,382.96L267.31,382.99L268.15,382.15L270.68,378.73L271.53,376.98L275.74,370.69L276.59,367.46L279.96,348.02L280.8,342.07L283.33,329.02L284.18,329.3L285.86,334.56L286.71,334.96L288.39,336.19L289.24,334.68L291.77,325.63L292.61,324.63L294.3,331.4L295.14,338.16L297.67,356.88L298.51,355.97L300.2,341.1L301.04,329.77L305.26,278.92L306.1,270.69L308.63,245.64L309.47,243.29L310.32,243.98L311.16,248.65L314.53,284.31L315.38,287.69L317.06,292.82L317.91,298.49L323.81,337.66L324.65,339.79L328.03,344.79L328.87,348.27L332.24,365.49L333.09,365.27L334.77,359.17L335.62,355.28L336.46,353.12L337.3,353.19L338.99,358.35L339.83,361.54L343.2,372.69L344.05,376.13L345.73,379.77L346.58,378.01L349.11,363.77L349.95,363.45L354.17,373.1L355.01,373.29L356.7,372.69L357.54,371.66L358.38,371.41L359.23,372.66L361.76,378.2L362.6,378.86L364.29,376.73L365.13,374.22L366.82,364.64L367.66,356.54L369.35,332.87L370.19,309.54L371.88,286.22L372.72,281.62L373.56,283.81L374.4,288.16L377.78,326.01L378.62,322.97L381.15,306.44L381.99,301.81L382.84,303.37L383.68,314.21L385.37,343.86L386.21,350.4L388.74,362.83L389.58,367.4L391.27,372L392.11,366.33L394.64,330.55L395.49,317.59L398.02,292.45L398.86,291.07L399.7,283.65L400.55,268.75L402.23,248.49L403.08,246.3L403.92,243.83L404.76,255.85L408.13,313.71L408.98,318.09L409.82,319.09L410.66,321.78L414.88,343.64L415.72,349.71L419.1,364.08L419.94,362.39L421.63,356.03L422.47,347.74L425,317.74" style="vector-effect: non-scaling-stroke; fill: none; stroke: rgb(248, 3, 252); stroke-opacity: 1; stroke-width: 0.5px; opacity: 1;"/></g><g class="points"/><g class="text"/></g><g class="trace scatter trace94b9e2" style="stroke-miterlimit: 2;"><g class="fills"><g><path class="js-fill" d="M0,355.31L0.84,356.57L1.69,359.63L3.37,363.61L4.22,359.54L5.9,296.59L6.75,253.66L8.43,212.6L9.28,214.36L10.12,212.65L10.96,213.8L11.81,207.87L12.65,209.63L16.02,237.14L16.87,246.22L18.55,260.18L19.39,261.59L20.24,260.17L21.08,256L21.92,248.47L22.77,116.25L23.61,214.28L24.45,208.04L26.14,206.31L26.98,190.32L27.83,205.21L28.67,206.3L29.51,208.83L30.36,173.6L31.2,206.99L32.04,202.75L32.89,203.99L33.73,208.09L38.79,256.91L39.63,258.65L40.48,257.07L41.32,253.38L42.16,246.25L43.01,137L43.85,139.51L44.69,207.27L45.54,143.39L46.38,188.44L47.22,186.53L48.07,133.71L48.91,145.04L49.75,176.29L50.6,184.22L51.44,199.53L52.28,203.96L53.13,216.12L57.34,266.44L58.18,273.57L59.87,282.96L60.71,285.05L61.56,283.56L62.4,274.85L63.24,266.71L64.09,270.62L64.93,273.09L65.77,259.4L67.46,231.36L68.3,226.95L69.15,224.79L69.99,232.16L71.68,261.31L72.52,254.78L74.21,245.79L75.05,243.38L75.89,237.53L76.74,240.48L79.27,256.77L80.11,258.21L80.95,252.25L81.8,232.3L82.64,228.64L83.48,231.62L84.33,227.25L85.17,212.96L86.01,206.26L86.86,178.54L87.7,156.09L88.54,155.31L96.97,289.04L97.82,297.99L98.66,304.41L99.5,294.63L100.35,286.9L101.19,286.37L102.03,283.52L102.88,268.95L103.72,266.19L104.56,258.88L105.41,238.88L106.25,241.87L107.09,201.56L107.94,231.26L108.78,231.52L109.62,235.15L111.31,239.21L112.15,236.19L113,229.54L113.84,229.63L114.68,235.03L115.53,190.07L116.37,251.27L117.21,253.74L118.06,250.24L118.9,268.23L119.74,267.9L120.59,276.89L122.27,277.86L123.12,279.83L123.96,281.66L124.8,276.71L128.17,241.85L129.02,241.1L131.55,246.84L132.39,244.71L134.08,234.84L134.92,238.36L136.61,248.28L137.45,248.51L139.98,265.65L140.82,267.06L141.67,265.99L142.51,262.71L143.35,252.66L144.2,231.06L145.88,206.87L146.73,206.3L147.57,207.8L148.41,205.18L150.1,205.98L150.94,208.51L151.79,209.41L152.63,208.46L153.47,200.35L154.32,202.58L156,217.2L156.85,226.79L160.22,256.21L161.06,258.03L161.9,152.06L162.75,255.28L163.59,247.13L164.43,230.52L165.28,206.79L166.12,209L168.65,201.72L169.49,203.73L170.34,204.91L171.18,207.67L172.87,208.83L173.71,204.02L174.55,205.78L175.4,209.81L180.46,258.12L181.3,260.57L182.14,260.36L182.99,255.74L183.83,247.92L184.67,230.03L186.36,207.97L187.2,207.87L188.89,205.41L189.73,205.83L190.58,206.26L191.42,142.67L192.26,211.18L193.11,210.13L193.95,202.43L194.79,204.5L195.63,208.98L196.48,220.39L200.69,256.18L201.54,259.14L202.38,258.93L203.22,254.7L204.07,164.96L204.91,229.44L205.75,182.06L206.6,206.59L207.44,207.51L208.28,196.05L209.13,203.94L209.97,204.65L210.81,179.64L211.66,207.26L212.5,169.13L213.34,169.35L215.87,232.81L216.72,230.55L217.56,239.6L218.4,261.05L220.93,310.86L221.78,318.97L225.15,339.44L225.99,342.54L226.84,335.07L227.68,296.6L229.37,239.31L230.21,243.22L231.05,257.59L231.89,286.66L233.58,371.84L234.42,373.91L236.11,268.56L236.95,266.02L238.64,259.16L239.48,262.32L243.7,318L244.54,339.4L245.39,339.82L246.23,337.06L247.07,313.97L247.92,263.42L249.6,192.17L250.45,183.97L251.29,198.56L252.13,234.84L254.66,359.32L255.51,360.76L257.19,361.58L258.04,339.47L258.88,364.05L259.72,365.83L260.57,368.62L261.41,356.91L263.1,376.82L263.94,379.48L265.63,382.96L266.47,360.67L267.31,366.5L268.15,325.42L269.84,250.82L270.68,242.37L271.53,252.79L272.37,281.93L274.06,370.08L274.9,332.29L275.74,316.25L276.59,367.46L277.43,363.3L278.27,321.68L279.12,353.4L279.96,307.05L280.8,342.07L281.65,337.19L282.49,332.99L283.33,312.9L285.02,286.15L285.86,245.73L288.39,210.76L289.24,209.03L290.92,168.04L291.77,179.19L293.45,265.34L294.3,323.4L295.14,292.14L295.98,305.24L296.83,302.47L297.67,306.45L301.04,329.77L301.88,317.74L305.26,278.92L306.1,270.69L306.94,261.33L307.79,236.39L311.16,89.53L312,107.26L315.38,287.69L316.22,289.97L317.06,292.82L317.91,298.49L323.81,337.66L324.65,339.79L325.5,340.98L326.34,335.55L327.18,342.92L328.03,289.74L328.87,310.54L329.71,286.39L330.56,278.22L331.4,281.14L333.09,323.19L333.93,293.66L334.77,294.45L335.62,355.28L336.46,288.39L337.3,291.4L338.14,280.96L338.99,284.91L339.83,271.95L340.67,272.45L341.52,271.36L342.36,285.16L344.05,376.13L344.89,329.29L345.73,325.63L346.58,312.61L350.79,204.16L351.64,204.78L352.48,225.03L353.32,223.14L355.01,270.54L355.85,272.16L356.7,272.17L357.54,296.18L359.23,313.77L360.07,318.38L362.6,335.99L363.44,338.57L364.29,340.4L365.13,338.49L365.97,331.03L366.82,313.26L368.5,293.37L369.35,290.8L371.03,217.72L371.88,204.85L372.72,209.14L373.56,229.38L376.09,311.89L376.93,320.5L377.78,326.01L378.62,322.97L381.15,306.44L381.99,301.81L382.84,303.37L383.68,314.21L385.37,343.86L386.21,350.4L387.9,359.48L388.74,361.81L389.58,361.61L390.43,359.3L394.64,320.11L395.49,316.16L399.7,283.65L400.55,268.75L402.23,248.49L403.08,246.3L403.92,243.83L404.76,255.85L408.13,313.71L408.98,309.77L412.35,249.68L413.19,250.63L414.88,312.74L415.72,346.31L417.41,358.07L418.25,362.42L419.1,364.08L419.94,362.39L421.63,356.03L422.47,347.74L425,317.74L425,317.74L422.47,347.74L421.63,356.03L419.94,362.39L419.1,364.08L418.25,362.42L417.41,358.07L415.72,346.31L414.88,312.74L413.19,250.63L412.35,249.68L408.98,309.77L408.13,313.71L404.76,255.85L403.92,243.83L403.08,246.3L402.23,248.49L400.55,268.75L399.7,283.65L395.49,316.16L394.64,320.11L390.43,359.3L389.58,361.61L388.74,361.81L387.9,359.48L386.21,350.4L385.37,343.86L383.68,314.21L382.84,303.37L381.99,301.81L381.15,306.44L378.62,322.97L377.78,326.01L376.93,320.5L376.09,311.89L373.56,229.38L372.72,209.14L371.88,204.85L371.03,217.72L369.35,294.42L368.5,336.4L367.66,356.54L366.82,364.64L365.13,374.22L364.29,376.73L362.6,378.86L361.76,378.2L359.23,372.66L358.38,371.41L355.85,373.32L355.01,371.7L351.64,284.83L350.79,282.37L348.26,357.51L347.42,373.85L346.58,378.01L345.73,379.77L344.05,376.13L343.2,372.69L339.83,361.54L338.99,358.35L337.3,353.19L336.46,353.12L335.62,355.28L334.77,357.64L331.4,281.14L330.56,278.22L328.03,333.73L327.18,342.92L324.65,339.79L323.81,337.66L317.91,298.49L317.06,292.82L316.22,289.97L315.38,287.69L312,107.26L311.16,89.53L307.79,236.39L306.94,261.33L306.1,270.69L305.26,278.92L301.04,329.77L300.2,341.1L298.51,355.97L297.67,356.88L295.98,345.92L295.14,338.16L292.61,211.21L291.77,179.19L290.92,168.04L290.08,181.28L288.39,268.21L287.55,316.1L286.71,334.76L285.86,334.56L284.18,329.3L283.33,329.02L277.43,363.3L276.59,367.46L274.9,373L274.06,370.08L272.37,281.93L271.53,252.79L270.68,242.37L269.84,250.82L267.31,366.5L266.47,383.27L265.63,382.96L264.78,381.77L261.41,371.56L260.57,368.62L258.88,364.05L258.04,362.8L255.51,360.76L254.66,359.32L252.13,234.84L251.29,198.56L250.45,183.97L249.6,192.17L247.07,313.97L246.23,337.06L245.39,339.82L244.54,341.66L243.7,342.04L242.86,341.19L242.01,341.73L241.17,343.14L238.64,360.32L237.8,364.39L234.42,373.91L233.58,371.84L231.89,286.66L231.05,257.59L230.21,243.22L229.37,239.31L227.68,303.04L226.84,335.07L225.99,342.54L225.15,339.44L221.78,318.97L220.93,310.86L218.4,261.05L217.56,239.6L216.72,230.55L215.87,232.81L213.34,169.35L212.5,169.13L211.66,207.26L210.81,179.64L209.97,204.65L209.13,203.94L208.28,196.05L207.44,207.51L206.6,206.59L205.75,182.06L204.91,229.44L204.07,164.96L203.22,254.7L202.38,258.93L201.54,259.14L200.69,256.18L196.48,220.39L195.63,208.98L194.79,204.5L193.95,202.43L193.11,210.13L192.26,211.18L191.42,142.67L190.58,206.26L189.73,205.83L188.89,205.41L187.2,207.87L186.36,207.97L184.67,230.03L183.83,247.92L182.99,255.74L182.14,260.36L181.3,260.57L180.46,258.12L175.4,209.81L174.55,205.78L173.71,204.02L172.87,208.83L171.18,207.67L170.34,204.91L169.49,203.73L168.65,201.72L166.12,209L165.28,206.79L164.43,230.52L163.59,247.13L162.75,255.28L161.9,152.06L161.06,258.03L160.22,256.21L156.85,226.79L156,217.2L154.32,202.58L153.47,200.35L152.63,208.46L151.79,209.41L150.94,208.51L150.1,205.98L148.41,205.18L147.57,207.8L146.73,206.3L145.88,206.87L144.2,231.06L143.35,252.66L142.51,262.71L141.67,265.99L140.82,267.06L139.98,265.65L137.45,248.51L136.61,248.28L134.92,238.36L134.08,234.84L132.39,244.71L131.55,246.84L129.02,241.1L128.17,241.85L124.8,276.71L123.96,281.66L123.12,279.83L122.27,277.86L120.59,276.89L119.74,267.9L118.9,268.23L118.06,250.24L117.21,253.74L116.37,251.27L115.53,190.07L114.68,235.03L113.84,229.63L113,229.54L112.15,236.19L111.31,239.21L109.62,235.15L108.78,231.52L107.94,231.26L107.09,201.56L106.25,241.87L105.41,238.88L104.56,258.88L103.72,266.19L102.88,268.95L102.03,283.52L99.5,302.62L98.66,304.41L97.82,297.99L96.97,289.04L88.54,155.31L87.7,156.09L85.17,227.55L84.33,231.55L83.48,231.62L82.64,228.64L78.42,308.6L77.58,323.07L75.05,344.54L74.21,346.96L72.52,355.94L71.68,362.47L69.99,333.32L69.15,325.95L68.3,328.11L67.46,332.53L65.77,360.56L64.93,374.25L64.09,371.78L63.24,367.87L59.03,334.49L58.18,321.63L53.97,232.24L53.13,216.12L51.44,199.53L50.6,184.22L49.75,176.29L48.91,145.04L48.07,133.71L47.22,186.53L46.38,188.44L45.54,143.39L44.69,207.27L43.85,139.51L43.01,137L42.16,246.25L41.32,253.38L40.48,257.07L39.63,258.65L38.79,256.91L33.73,208.09L32.89,203.99L32.04,202.75L31.2,206.99L30.36,173.6L29.51,208.83L28.67,206.3L27.83,205.21L26.98,190.32L26.14,206.31L24.45,208.04L23.61,214.28L22.77,116.25L21.92,248.47L21.08,256L20.24,260.17L19.39,261.59L18.55,260.18L16.87,246.22L16.02,237.14L12.65,209.63L11.81,207.87L10.96,213.8L10.12,212.65L9.28,214.36L8.43,212.6L6.75,253.66L5.9,296.59L4.22,359.54L3.37,363.61L1.69,359.63L0.84,356.57L0,355.31Z" style="fill: rgb(245, 66, 66); fill-opacity: 0.5; stroke-width: 0;"/></g></g><g class="errorbars"/><g class="lines"><path class="js-line" d="M0,355.31L0.84,356.57L1.69,359.63L3.37,363.61L4.22,359.54L5.9,296.59L6.75,253.66L8.43,212.6L9.28,214.36L10.12,212.65L10.96,213.8L11.81,207.87L12.65,209.63L16.02,237.14L16.87,246.22L18.55,260.18L19.39,261.59L20.24,260.17L21.08,256L21.92,248.47L22.77,116.25L23.61,214.28L24.45,208.04L26.14,206.31L26.98,190.32L27.83,205.21L28.67,206.3L29.51,208.83L30.36,173.6L31.2,206.99L32.04,202.75L32.89,203.99L33.73,208.09L38.79,256.91L39.63,258.65L40.48,257.07L41.32,253.38L42.16,246.25L43.01,137L43.85,139.51L44.69,207.27L45.54,143.39L46.38,188.44L47.22,186.53L48.07,133.71L48.91,145.04L49.75,176.29L50.6,184.22L51.44,199.53L53.13,216.12L53.97,232.24L58.18,321.63L59.03,334.49L63.24,367.87L64.09,371.78L64.93,374.25L65.77,360.56L67.46,332.53L68.3,328.11L69.15,325.95L69.99,333.32L71.68,362.47L72.52,355.94L74.21,346.96L75.05,344.54L77.58,323.07L78.42,308.6L82.64,228.64L83.48,231.62L84.33,231.55L85.17,227.55L87.7,156.09L88.54,155.31L96.97,289.04L97.82,297.99L98.66,304.41L99.5,302.62L102.03,283.52L102.88,268.95L103.72,266.19L104.56,258.88L105.41,238.88L106.25,241.87L107.09,201.56L107.94,231.26L108.78,231.52L109.62,235.15L111.31,239.21L112.15,236.19L113,229.54L113.84,229.63L114.68,235.03L115.53,190.07L116.37,251.27L117.21,253.74L118.06,250.24L118.9,268.23L119.74,267.9L120.59,276.89L122.27,277.86L123.12,279.83L123.96,281.66L124.8,276.71L128.17,241.85L129.02,241.1L131.55,246.84L132.39,244.71L134.08,234.84L134.92,238.36L136.61,248.28L137.45,248.51L139.98,265.65L140.82,267.06L141.67,265.99L142.51,262.71L143.35,252.66L144.2,231.06L145.88,206.87L146.73,206.3L147.57,207.8L148.41,205.18L150.1,205.98L150.94,208.51L151.79,209.41L152.63,208.46L153.47,200.35L154.32,202.58L156,217.2L156.85,226.79L160.22,256.21L161.06,258.03L161.9,152.06L162.75,255.28L163.59,247.13L164.43,230.52L165.28,206.79L166.12,209L168.65,201.72L169.49,203.73L170.34,204.91L171.18,207.67L172.87,208.83L173.71,204.02L174.55,205.78L175.4,209.81L180.46,258.12L181.3,260.57L182.14,260.36L182.99,255.74L183.83,247.92L184.67,230.03L186.36,207.97L187.2,207.87L188.89,205.41L189.73,205.83L190.58,206.26L191.42,142.67L192.26,211.18L193.11,210.13L193.95,202.43L194.79,204.5L195.63,208.98L196.48,220.39L200.69,256.18L201.54,259.14L202.38,258.93L203.22,254.7L204.07,164.96L204.91,229.44L205.75,182.06L206.6,206.59L207.44,207.51L208.28,196.05L209.13,203.94L209.97,204.65L210.81,179.64L211.66,207.26L212.5,169.13L213.34,169.35L215.87,232.81L216.72,230.55L217.56,239.6L218.4,261.05L220.93,310.86L221.78,318.97L225.15,339.44L225.99,342.54L226.84,335.07L227.68,303.04L229.37,239.31L230.21,243.22L231.05,257.59L231.89,286.66L233.58,371.84L234.42,373.91L237.8,364.39L238.64,360.32L241.17,343.14L242.01,341.73L242.86,341.19L243.7,342.04L244.54,341.66L245.39,339.82L246.23,337.06L247.07,313.97L249.6,192.17L250.45,183.97L251.29,198.56L252.13,234.84L254.66,359.32L255.51,360.76L258.04,362.8L258.88,364.05L260.57,368.62L261.41,371.56L264.78,381.77L265.63,382.96L266.47,383.27L267.31,366.5L269.84,250.82L270.68,242.37L271.53,252.79L272.37,281.93L274.06,370.08L274.9,373L276.59,367.46L277.43,363.3L283.33,329.02L284.18,329.3L285.86,334.56L286.71,334.76L287.55,316.1L288.39,268.21L290.08,181.28L290.92,168.04L291.77,179.19L292.61,211.21L295.14,338.16L295.98,345.92L297.67,356.88L298.51,355.97L300.2,341.1L301.04,329.77L305.26,278.92L306.1,270.69L306.94,261.33L307.79,236.39L311.16,89.53L312,107.26L315.38,287.69L316.22,289.97L317.06,292.82L317.91,298.49L323.81,337.66L324.65,339.79L327.18,342.92L328.03,333.73L330.56,278.22L331.4,281.14L334.77,357.64L335.62,355.28L336.46,353.12L337.3,353.19L338.99,358.35L339.83,361.54L343.2,372.69L344.05,376.13L345.73,379.77L346.58,378.01L347.42,373.85L348.26,357.51L350.79,282.37L351.64,284.83L355.01,371.7L355.85,373.32L358.38,371.41L359.23,372.66L361.76,378.2L362.6,378.86L364.29,376.73L365.13,374.22L366.82,364.64L367.66,356.54L368.5,336.4L369.35,294.42L371.03,217.72L371.88,204.85L372.72,209.14L373.56,229.38L376.09,311.89L376.93,320.5L377.78,326.01L378.62,322.97L381.15,306.44L381.99,301.81L382.84,303.37L383.68,314.21L385.37,343.86L386.21,350.4L387.9,359.48L388.74,361.81L389.58,361.61L390.43,359.3L394.64,320.11L395.49,316.16L399.7,283.65L400.55,268.75L402.23,248.49L403.08,246.3L403.92,243.83L404.76,255.85L408.13,313.71L408.98,309.77L412.35,249.68L413.19,250.63L414.88,312.74L415.72,346.31L417.41,358.07L418.25,362.42L419.1,364.08L419.94,362.39L421.63,356.03L422.47,347.74L425,317.74" style="vector-effect: non-scaling-stroke; fill: none; stroke: rgb(245, 236, 66); stroke-opacity: 1; stroke-width: 0.5px; opacity: 1;"/></g><g class="points"/><g class="text"/></g><g class="trace scatter trace9c27f1" style="stroke-miterlimit: 2;"><g class="fills"><g><path class="js-fill" d="M0,355.31L0.84,356.57L1.69,359.63L3.37,363.61L4.22,359.54L5.9,296.59L6.75,253.66L8.43,212.6L9.28,214.36L10.12,212.65L10.96,213.8L11.81,207.87L12.65,209.63L16.02,237.14L16.87,246.22L18.55,260.18L19.39,261.59L20.24,260.17L21.08,256L21.92,248.47L22.77,116.25L23.61,214.28L24.45,208.04L26.14,206.31L26.98,190.32L27.83,205.21L28.67,206.3L29.51,208.83L30.36,173.6L31.2,206.99L32.04,202.75L32.89,203.99L33.73,208.09L38.79,256.91L39.63,258.65L40.48,257.07L41.32,253.38L42.16,246.25L43.01,137L43.85,139.51L44.69,207.27L45.54,143.39L46.38,188.44L47.22,186.53L48.07,133.71L48.91,145.04L49.75,176.29L50.6,184.22L51.44,199.53L52.28,203.96L53.13,216.12L57.34,266.44L58.18,273.57L59.87,282.96L60.71,285.05L61.56,283.56L62.4,274.85L63.24,266.71L64.09,270.62L64.93,273.09L65.77,259.4L67.46,231.36L68.3,226.95L69.15,224.79L69.99,232.16L71.68,261.31L72.52,254.78L74.21,245.79L75.05,243.38L75.89,237.53L76.74,240.48L79.27,256.77L80.11,258.21L80.95,252.25L81.8,232.3L82.64,228.64L83.48,231.62L84.33,227.25L85.17,212.96L86.01,206.26L86.86,178.54L87.7,156.09L88.54,155.31L96.97,289.04L97.82,297.99L98.66,304.41L99.5,294.63L100.35,286.9L101.19,286.37L102.03,283.52L102.88,268.95L103.72,266.19L104.56,258.88L105.41,238.88L106.25,241.87L107.09,201.56L107.94,231.26L108.78,231.52L109.62,235.15L111.31,239.21L112.15,236.19L113,229.54L113.84,229.63L114.68,235.03L115.53,190.07L116.37,251.27L117.21,253.74L118.06,250.24L118.9,268.23L119.74,267.9L120.59,276.89L122.27,277.86L123.12,279.83L123.96,281.66L124.8,276.71L128.17,241.85L129.02,241.1L131.55,246.84L132.39,244.71L134.08,234.84L134.92,238.36L136.61,248.28L137.45,248.51L139.98,265.65L140.82,267.06L141.67,265.99L142.51,262.71L143.35,252.66L144.2,231.06L145.88,206.87L146.73,206.3L147.57,207.8L148.41,205.18L150.1,205.98L150.94,208.51L151.79,209.41L152.63,208.46L153.47,200.35L154.32,202.58L156,217.2L156.85,226.79L160.22,256.21L161.06,258.03L161.9,152.06L162.75,255.28L163.59,247.13L164.43,230.52L165.28,206.79L166.12,209L168.65,201.72L169.49,203.73L170.34,204.91L171.18,207.67L172.87,208.83L173.71,204.02L174.55,205.78L175.4,209.81L180.46,258.12L181.3,260.57L182.14,260.36L182.99,255.74L183.83,247.92L184.67,230.03L186.36,207.97L187.2,207.87L188.89,205.41L189.73,205.83L190.58,206.26L191.42,142.67L192.26,211.18L193.11,210.13L193.95,202.43L194.79,204.5L195.63,208.98L196.48,220.39L200.69,256.18L201.54,259.14L202.38,258.93L203.22,254.7L204.07,164.96L204.91,229.44L205.75,182.06L206.6,206.59L207.44,207.51L208.28,196.05L209.13,203.94L209.97,204.65L210.81,179.64L211.66,207.26L212.5,169.13L213.34,169.35L215.87,232.81L216.72,230.55L217.56,239.6L218.4,261.05L220.93,310.86L221.78,318.97L225.15,339.44L225.99,342.54L226.84,335.07L227.68,296.6L229.37,239.31L230.21,243.22L231.05,257.59L231.89,286.66L233.58,371.84L234.42,373.91L236.11,268.56L236.95,266.02L238.64,259.16L239.48,262.32L243.7,318L244.54,339.4L245.39,339.82L246.23,337.06L247.07,313.97L247.92,263.42L249.6,192.17L250.45,183.97L251.29,198.56L252.13,234.84L254.66,359.32L255.51,360.76L257.19,361.58L258.04,339.47L258.88,364.05L259.72,365.83L260.57,368.62L261.41,356.91L263.1,376.82L263.94,379.48L265.63,382.96L266.47,360.67L267.31,366.5L268.15,325.42L269.84,250.82L270.68,242.37L271.53,252.79L272.37,281.93L274.06,370.08L274.9,332.29L275.74,316.25L276.59,367.46L277.43,363.3L278.27,321.68L279.12,353.4L279.96,307.05L280.8,342.07L281.65,337.19L282.49,332.99L283.33,312.9L285.02,286.15L285.86,245.73L288.39,210.76L289.24,209.03L290.92,168.04L291.77,179.19L293.45,265.34L294.3,323.4L295.14,292.14L295.98,305.24L296.83,302.47L297.67,306.45L301.04,329.77L301.88,317.74L305.26,278.92L306.1,270.69L306.94,261.33L307.79,236.39L311.16,89.53L312,107.26L315.38,287.69L316.22,289.97L317.06,292.82L317.91,298.49L323.81,337.66L324.65,339.79L325.5,340.98L326.34,335.55L327.18,342.92L328.03,289.74L328.87,310.54L329.71,286.39L330.56,278.22L331.4,281.14L333.09,323.19L333.93,293.66L334.77,294.45L335.62,355.28L336.46,288.39L337.3,291.4L338.14,280.96L338.99,284.91L339.83,271.95L340.67,272.45L341.52,271.36L342.36,285.16L344.05,376.13L344.89,329.29L345.73,325.63L346.58,312.61L350.79,204.16L351.64,204.78L352.48,225.03L353.32,223.14L355.01,270.54L355.85,272.16L356.7,272.17L357.54,296.18L359.23,313.77L360.07,318.38L362.6,335.99L363.44,338.57L364.29,340.4L365.13,338.49L365.97,331.03L366.82,313.26L368.5,293.37L369.35,290.8L371.03,217.72L371.88,204.85L372.72,209.14L373.56,229.38L376.09,311.89L376.93,320.5L377.78,326.01L378.62,322.97L381.15,306.44L381.99,301.81L382.84,303.37L383.68,314.21L385.37,343.86L386.21,350.4L387.9,359.48L388.74,361.81L389.58,361.61L390.43,359.3L394.64,320.11L395.49,316.16L399.7,283.65L400.55,268.75L402.23,248.49L403.08,246.3L403.92,243.83L404.76,255.85L408.13,313.71L408.98,309.77L412.35,249.68L413.19,250.63L414.88,312.74L415.72,346.31L417.41,358.07L418.25,362.42L419.1,364.08L419.94,362.39L421.63,356.03L422.47,347.74L425,317.74L425,317.74L422.47,347.74L421.63,356.03L419.94,362.39L419.1,364.08L418.25,362.42L417.41,358.07L415.72,346.31L414.88,312.74L413.19,250.63L412.35,249.68L408.98,309.77L408.13,313.71L404.76,255.85L403.92,243.83L403.08,246.3L402.23,248.49L400.55,268.75L399.7,283.65L395.49,316.16L394.64,320.11L390.43,359.3L389.58,361.61L388.74,361.81L387.9,359.48L386.21,350.4L385.37,343.86L383.68,314.21L382.84,303.37L381.99,301.81L381.15,306.44L378.62,322.97L377.78,326.01L376.93,320.5L376.09,311.89L373.56,229.38L372.72,209.14L371.88,204.85L371.03,217.72L369.35,290.8L368.5,293.37L366.82,313.26L365.97,331.03L365.13,338.49L364.29,340.4L363.44,338.57L362.6,335.99L360.07,318.38L359.23,313.77L357.54,296.18L356.7,272.17L355.85,272.16L355.01,270.54L353.32,223.14L352.48,225.03L351.64,204.78L350.79,204.16L346.58,312.61L345.73,325.63L344.89,329.29L344.05,376.13L342.36,285.16L341.52,271.36L340.67,272.45L339.83,271.95L338.99,284.91L338.14,280.96L337.3,291.4L336.46,288.39L335.62,355.28L334.77,294.45L333.93,293.66L333.09,323.19L331.4,281.14L330.56,278.22L329.71,286.39L328.87,310.54L328.03,289.74L327.18,342.92L326.34,335.55L325.5,340.98L324.65,339.79L323.81,337.66L317.91,298.49L317.06,292.82L316.22,289.97L315.38,287.69L312,107.26L311.16,89.53L307.79,236.39L306.94,261.33L306.1,270.69L305.26,278.92L301.88,317.74L301.04,329.77L297.67,306.45L296.83,302.47L295.98,305.24L295.14,292.14L294.3,323.4L293.45,265.34L291.77,179.19L290.92,168.04L289.24,209.03L288.39,210.76L285.86,245.73L285.02,286.15L283.33,312.9L282.49,332.99L281.65,337.19L280.8,342.07L279.96,307.05L279.12,353.4L278.27,321.68L277.43,363.3L276.59,367.46L275.74,316.25L274.9,332.29L274.06,370.08L272.37,281.93L271.53,252.79L270.68,242.37L269.84,250.82L268.15,325.42L267.31,366.5L266.47,360.67L265.63,382.96L263.94,379.48L263.1,376.82L261.41,356.91L260.57,368.62L259.72,365.83L258.88,364.05L258.04,339.47L257.19,361.58L255.51,360.76L254.66,359.32L252.13,234.84L251.29,198.56L250.45,183.97L249.6,192.17L247.92,263.42L247.07,313.97L246.23,337.06L245.39,339.82L244.54,339.4L243.7,318L239.48,262.32L238.64,259.16L236.95,266.02L236.11,268.56L234.42,373.91L233.58,371.84L231.89,286.66L231.05,257.59L230.21,243.22L229.37,239.31L227.68,296.6L226.84,335.07L225.99,342.54L225.15,339.44L221.78,318.97L220.93,310.86L218.4,261.05L217.56,239.6L216.72,230.55L215.87,232.81L213.34,169.35L212.5,169.13L211.66,207.26L210.81,179.64L209.97,204.65L209.13,203.94L208.28,196.05L207.44,207.51L206.6,206.59L205.75,182.06L204.91,229.44L204.07,164.96L203.22,254.7L202.38,258.93L201.54,259.14L200.69,256.18L196.48,220.39L195.63,208.98L194.79,204.5L193.95,202.43L193.11,210.13L192.26,211.18L191.42,142.67L190.58,206.26L189.73,205.83L188.89,205.41L187.2,207.87L186.36,207.97L184.67,230.03L183.83,247.92L182.99,255.74L182.14,260.36L181.3,260.57L180.46,258.12L175.4,209.81L174.55,205.78L173.71,204.02L172.87,208.83L171.18,207.67L170.34,204.91L169.49,203.73L168.65,201.72L166.12,209L165.28,206.79L164.43,230.52L163.59,247.13L162.75,255.28L161.9,152.06L161.06,258.03L160.22,256.21L156.85,226.79L156,217.2L154.32,202.58L153.47,200.35L152.63,208.46L151.79,209.41L150.94,208.51L150.1,205.98L148.41,205.18L147.57,207.8L146.73,206.3L145.88,206.87L144.2,231.06L143.35,252.66L142.51,262.71L141.67,265.99L140.82,267.06L139.98,265.65L137.45,248.51L136.61,248.28L134.92,238.36L134.08,234.84L132.39,244.71L131.55,246.84L129.02,241.1L128.17,241.85L124.8,276.71L123.96,281.66L123.12,279.83L122.27,277.86L120.59,276.89L119.74,267.9L118.9,268.23L118.06,250.24L117.21,253.74L116.37,251.27L115.53,190.07L114.68,235.03L113.84,229.63L113,229.54L112.15,236.19L111.31,239.21L109.62,235.15L108.78,231.52L107.94,231.26L107.09,201.56L106.25,241.87L105.41,238.88L104.56,258.88L103.72,266.19L102.88,268.95L102.03,283.52L101.19,286.37L100.35,286.9L99.5,294.63L98.66,304.41L97.82,297.99L96.97,289.04L88.54,155.31L87.7,156.09L86.86,178.54L86.01,206.26L85.17,212.96L84.33,227.25L83.48,231.62L82.64,228.64L81.8,232.3L80.95,252.25L80.11,258.21L79.27,256.77L76.74,240.48L75.89,237.53L75.05,243.38L74.21,245.79L72.52,254.78L71.68,261.31L69.99,232.16L69.15,224.79L68.3,226.95L67.46,231.36L65.77,259.4L64.93,273.09L64.09,270.62L63.24,266.71L62.4,274.85L61.56,283.56L60.71,285.05L59.87,282.96L58.18,273.57L57.34,266.44L53.13,216.12L52.28,203.96L51.44,199.53L50.6,184.22L49.75,176.29L48.91,145.04L48.07,133.71L47.22,186.53L46.38,188.44L45.54,143.39L44.69,207.27L43.85,139.51L43.01,137L42.16,246.25L41.32,253.38L40.48,257.07L39.63,258.65L38.79,256.91L33.73,208.09L32.89,203.99L32.04,202.75L31.2,206.99L30.36,173.6L29.51,208.83L28.67,206.3L27.83,205.21L26.98,190.32L26.14,206.31L24.45,208.04L23.61,214.28L22.77,116.25L21.92,248.47L21.08,256L20.24,260.17L19.39,261.59L18.55,260.18L16.87,246.22L16.02,237.14L12.65,209.63L11.81,207.87L10.96,213.8L10.12,212.65L9.28,214.36L8.43,212.6L6.75,253.66L5.9,296.59L4.22,359.54L3.37,363.61L1.69,359.63L0.84,356.57L0,355.31Z" style="fill: rgb(66, 108, 245); fill-opacity: 0.5; stroke-width: 0;"/></g></g><g class="errorbars"/><g class="lines"><path class="js-line" d="M0,355.31L0.84,356.57L1.69,359.63L3.37,363.61L4.22,359.54L5.9,296.59L6.75,253.66L8.43,212.6L9.28,214.36L10.12,212.65L10.96,213.8L11.81,207.87L12.65,209.63L16.02,237.14L16.87,246.22L18.55,260.18L19.39,261.59L20.24,260.17L21.08,256L21.92,248.47L22.77,116.25L23.61,214.28L24.45,208.04L26.14,206.31L26.98,190.32L27.83,205.21L28.67,206.3L29.51,208.83L30.36,173.6L31.2,206.99L32.04,202.75L32.89,203.99L33.73,208.09L38.79,256.91L39.63,258.65L40.48,257.07L41.32,253.38L42.16,246.25L43.01,137L43.85,139.51L44.69,207.27L45.54,143.39L46.38,188.44L47.22,186.53L48.07,133.71L48.91,145.04L49.75,176.29L50.6,184.22L51.44,199.53L52.28,203.96L53.13,216.12L57.34,266.44L58.18,273.57L59.87,282.96L60.71,285.05L61.56,283.56L62.4,274.85L63.24,266.71L64.09,270.62L64.93,273.09L65.77,259.4L67.46,231.36L68.3,226.95L69.15,224.79L69.99,232.16L71.68,261.31L72.52,254.78L74.21,245.79L75.05,243.38L75.89,237.53L76.74,240.48L79.27,256.77L80.11,258.21L80.95,252.25L81.8,232.3L82.64,228.64L83.48,231.62L84.33,227.25L85.17,212.96L86.01,206.26L86.86,178.54L87.7,156.09L88.54,155.31L96.97,289.04L97.82,297.99L98.66,304.41L99.5,294.63L100.35,286.9L101.19,286.37L102.03,283.52L102.88,268.95L103.72,266.19L104.56,258.88L105.41,238.88L106.25,241.87L107.09,201.56L107.94,231.26L108.78,231.52L109.62,235.15L111.31,239.21L112.15,236.19L113,229.54L113.84,229.63L114.68,235.03L115.53,190.07L116.37,251.27L117.21,253.74L118.06,250.24L118.9,268.23L119.74,267.9L120.59,276.89L122.27,277.86L123.12,279.83L123.96,281.66L124.8,276.71L128.17,241.85L129.02,241.1L131.55,246.84L132.39,244.71L134.08,234.84L134.92,238.36L136.61,248.28L137.45,248.51L139.98,265.65L140.82,267.06L141.67,265.99L142.51,262.71L143.35,252.66L144.2,231.06L145.88,206.87L146.73,206.3L147.57,207.8L148.41,205.18L150.1,205.98L150.94,208.51L151.79,209.41L152.63,208.46L153.47,200.35L154.32,202.58L156,217.2L156.85,226.79L160.22,256.21L161.06,258.03L161.9,152.06L162.75,255.28L163.59,247.13L164.43,230.52L165.28,206.79L166.12,209L168.65,201.72L169.49,203.73L170.34,204.91L171.18,207.67L172.87,208.83L173.71,204.02L174.55,205.78L175.4,209.81L180.46,258.12L181.3,260.57L182.14,260.36L182.99,255.74L183.83,247.92L184.67,230.03L186.36,207.97L187.2,207.87L188.89,205.41L189.73,205.83L190.58,206.26L191.42,142.67L192.26,211.18L193.11,210.13L193.95,202.43L194.79,204.5L195.63,208.98L196.48,220.39L200.69,256.18L201.54,259.14L202.38,258.93L203.22,254.7L204.07,164.96L204.91,229.44L205.75,182.06L206.6,206.59L207.44,207.51L208.28,196.05L209.13,203.94L209.97,204.65L210.81,179.64L211.66,207.26L212.5,169.13L213.34,169.35L215.87,232.81L216.72,230.55L217.56,239.6L218.4,261.05L220.93,310.86L221.78,318.97L225.15,339.44L225.99,342.54L226.84,335.07L227.68,296.6L229.37,239.31L230.21,243.22L231.05,257.59L231.89,286.66L233.58,371.84L234.42,373.91L236.11,268.56L236.95,266.02L238.64,259.16L239.48,262.32L243.7,318L244.54,339.4L245.39,339.82L246.23,337.06L247.07,313.97L247.92,263.42L249.6,192.17L250.45,183.97L251.29,198.56L252.13,234.84L254.66,359.32L255.51,360.76L257.19,361.58L258.04,339.47L258.88,364.05L259.72,365.83L260.57,368.62L261.41,356.91L263.1,376.82L263.94,379.48L265.63,382.96L266.47,360.67L267.31,366.5L268.15,325.42L269.84,250.82L270.68,242.37L271.53,252.79L272.37,281.93L274.06,370.08L274.9,332.29L275.74,316.25L276.59,367.46L277.43,363.3L278.27,321.68L279.12,353.4L279.96,307.05L280.8,342.07L281.65,337.19L282.49,332.99L283.33,312.9L285.02,286.15L285.86,245.73L288.39,210.76L289.24,209.03L290.92,168.04L291.77,179.19L293.45,265.34L294.3,323.4L295.14,292.14L295.98,305.24L296.83,302.47L297.67,306.45L301.04,329.77L301.88,317.74L305.26,278.92L306.1,270.69L306.94,261.33L307.79,236.39L311.16,89.53L312,107.26L315.38,287.69L316.22,289.97L317.06,292.82L317.91,298.49L323.81,337.66L324.65,339.79L325.5,340.98L326.34,335.55L327.18,342.92L328.03,289.74L328.87,310.54L329.71,286.39L330.56,278.22L331.4,281.14L333.09,323.19L333.93,293.66L334.77,294.45L335.62,355.28L336.46,288.39L337.3,291.4L338.14,280.96L338.99,284.91L339.83,271.95L340.67,272.45L341.52,271.36L342.36,285.16L344.05,376.13L344.89,329.29L345.73,325.63L346.58,312.61L350.79,204.16L351.64,204.78L352.48,225.03L353.32,223.14L355.01,270.54L355.85,272.16L356.7,272.17L357.54,296.18L359.23,313.77L360.07,318.38L362.6,335.99L363.44,338.57L364.29,340.4L365.13,338.49L365.97,331.03L366.82,313.26L368.5,293.37L369.35,290.8L371.03,217.72L371.88,204.85L372.72,209.14L373.56,229.38L376.09,311.89L376.93,320.5L377.78,326.01L378.62,322.97L381.15,306.44L381.99,301.81L382.84,303.37L383.68,314.21L385.37,343.86L386.21,350.4L387.9,359.48L388.74,361.81L389.58,361.61L390.43,359.3L394.64,320.11L395.49,316.16L399.7,283.65L400.55,268.75L402.23,248.49L403.08,246.3L403.92,243.83L404.76,255.85L408.13,313.71L408.98,309.77L412.35,249.68L413.19,250.63L414.88,312.74L415.72,346.31L417.41,358.07L418.25,362.42L419.1,364.08L419.94,362.39L421.63,356.03L422.47,347.74L425,317.74" style="vector-effect: non-scaling-stroke; fill: none; stroke: rgb(245, 66, 66); stroke-opacity: 1; stroke-width: 0.5px; opacity: 1;"/></g><g class="points"/><g class="text"/></g><g class="trace scatter traceb2a764" style="stroke-miterlimit: 2;"><g class="fills"><g><path class="js-fill" d="M0,355.31L0.84,356.57L1.69,348.68L3.37,310.15L4.22,303.49L5.06,302.78L5.9,296.59L7.59,218.96L8.43,212.6L9.28,214.36L10.12,212.65L10.96,213.8L11.81,207.87L12.65,209.63L13.49,215.66L18.55,260.18L19.39,261.59L20.24,260.17L21.08,256L21.92,248.47L22.77,116.25L23.61,214.28L24.45,208.04L26.14,206.31L26.98,190.32L27.83,205.21L28.67,206.3L29.51,208.83L30.36,173.6L31.2,206.99L32.04,202.75L32.89,203.99L33.73,208.09L38.79,256.91L39.63,258.65L40.48,257.07L41.32,253.38L42.16,246.25L43.01,137L43.85,139.51L44.69,207.27L45.54,143.39L46.38,188.44L47.22,186.53L48.07,133.71L48.91,145.04L49.75,176.29L50.6,184.22L51.44,199.53L52.28,203.51L53.13,216.12L57.34,266.44L58.18,273.57L59.87,282.96L60.71,285.05L61.56,283.56L62.4,274.85L64.93,217.13L65.77,213.37L67.46,209.59L68.3,210.19L69.15,211.36L69.99,214.16L71.68,215.13L72.52,209.43L74.21,214.96L75.05,223.41L76.74,236L77.58,245.65L80.11,257.98L80.95,252.25L82.64,228.64L83.48,223.7L85.17,206.32L86.01,205.36L87.7,156.09L88.54,155.31L92.76,221.84L93.6,223.53L94.44,225.25L95.29,238L96.97,242.34L97.82,250.58L99.5,273.15L100.35,276.73L102.03,283.52L102.88,268.95L103.72,266.19L104.56,258.88L105.41,238.88L106.25,241.87L107.09,201.56L107.94,231.26L108.78,231.52L109.62,235.15L111.31,239.21L112.15,236.19L113,229.54L113.84,229.63L114.68,235.03L115.53,190.07L116.37,251.27L117.21,253.74L118.06,250.24L118.9,268.23L119.74,267.9L120.59,276.89L122.27,277.86L123.12,279.83L123.96,281.66L124.8,276.71L128.17,241.85L129.02,241.1L131.55,246.84L132.39,244.71L134.08,234.84L134.92,238.36L136.61,248.28L137.45,248.51L139.98,265.65L140.82,267.06L141.67,265.99L142.51,262.71L143.35,252.66L144.2,231.06L145.88,206.87L146.73,206.3L147.57,207.8L148.41,205.18L150.1,205.98L150.94,208.51L151.79,209.41L152.63,208.46L153.47,200.35L154.32,202.58L156,217.2L156.85,226.79L160.22,256.21L161.06,258.03L161.9,152.06L162.75,255.28L163.59,247.13L164.43,230.52L165.28,206.79L166.12,209L168.65,201.72L169.49,203.73L170.34,204.91L171.18,207.67L172.87,208.83L173.71,204.02L174.55,205.78L175.4,209.81L180.46,258.12L181.3,260.57L182.14,260.36L182.99,255.74L183.83,247.92L184.67,230.03L186.36,207.97L187.2,207.87L188.89,205.41L189.73,205.83L190.58,206.26L191.42,142.67L192.26,211.18L193.11,210.13L193.95,202.43L194.79,204.5L195.63,208.98L196.48,220.39L200.69,256.18L201.54,259.14L202.38,258.93L203.22,254.7L204.07,164.96L204.91,229.44L205.75,182.06L206.6,206.59L207.44,207.51L208.28,196.05L209.13,203.94L209.97,204.65L210.81,179.64L211.66,207.26L212.5,169.13L213.34,169.35L215.87,232.81L216.72,230.55L217.56,239.6L218.4,261.05L220.93,310.86L221.78,318.97L224.31,334.62L225.15,317.84L226.84,295.89L227.68,289.46L229.37,239.31L230.21,243.22L231.89,271L232.74,260.23L235.27,220.11L236.11,238.23L237.8,256.43L238.64,255.94L239.48,260.8L240.33,271.43L243.7,317.96L244.54,339.38L245.39,339.82L246.23,337.06L247.07,313.97L247.92,263.42L249.6,192.17L250.45,183.97L251.29,198.56L252.13,234.84L253.82,330.05L254.66,319.54L255.51,317.77L256.35,322.28L258.04,339.47L258.88,341.24L262.25,359.66L263.1,361.25L265.63,364.78L266.47,360.67L267.31,352.33L268.15,325.42L269.84,250.82L270.68,242.37L271.53,252.79L272.37,281.93L273.21,300.04L274.06,296.42L274.9,292.06L275.74,316.25L276.59,307.83L277.43,317.66L278.27,321.68L279.12,308.34L279.96,307.05L280.8,329.66L281.65,293.66L282.49,309.82L285.02,278.18L285.86,245.73L288.39,209.91L289.24,208.63L290.92,168.04L291.77,179.19L294.3,252.21L295.14,258.42L296.83,294.9L297.67,302.86L301.04,329.77L301.88,317.74L305.26,278.92L306.1,270.69L306.94,261.33L307.79,236.39L311.16,89.53L312,107.26L315.38,286.92L316.22,286.24L317.06,289.38L317.91,298.49L323.81,337.36L324.65,336.65L325.5,328.48L326.34,310.37L328.03,289.74L328.87,288L329.71,286.39L330.56,278.22L331.4,281.14L332.24,289.28L334.77,294.45L335.62,287.53L336.46,288.39L337.3,291.4L338.14,280.96L338.99,284.91L339.83,271.95L340.67,272.45L341.52,271.36L342.36,285.16L344.05,332.35L344.89,329.29L345.73,325.63L346.58,312.61L350.79,204.16L351.64,204.78L352.48,225.03L353.32,207.61L355.01,209.46L355.85,212.46L358.38,303.17L359.23,310.76L362.6,335.84L363.44,338.49L364.29,340.37L365.13,338.47L365.97,331.03L366.82,313.26L368.5,293.37L369.35,290.8L371.03,217.72L371.88,204.85L372.72,209.14L373.56,229.38L375.25,294.91L376.09,293.32L376.93,292.48L377.78,296.21L379.46,314.61L380.31,310.39L381.99,301.81L382.84,303.37L386.21,345.94L387.05,344.46L391.27,303.54L392.11,306.26L393.8,324.26L394.64,320.11L395.49,316.16L396.33,308.54L399.7,283.65L400.55,268.75L402.23,248.49L403.08,246.3L403.92,243.83L404.76,255.85L408.13,313.71L408.98,309.77L412.35,249.68L413.19,250.63L414.04,267.75L414.88,262.15L416.57,260.36L417.41,274.38L419.1,332.82L419.94,338.97L420.78,338.19L421.63,345.34L422.47,347.74L423.31,338.06L425,317.74L425,317.74L422.47,347.74L421.63,356.03L419.94,362.39L419.1,364.08L418.25,362.42L417.41,358.07L415.72,346.31L414.88,312.74L413.19,250.63L412.35,249.68L408.98,309.77L408.13,313.71L404.76,255.85L403.92,243.83L403.08,246.3L402.23,248.49L400.55,268.75L399.7,283.65L395.49,316.16L394.64,320.11L390.43,359.3L389.58,361.61L388.74,361.81L387.9,359.48L386.21,350.4L385.37,343.86L383.68,314.21L382.84,303.37L381.99,301.81L381.15,306.44L378.62,322.97L377.78,326.01L376.93,320.5L376.09,311.89L373.56,229.38L372.72,209.14L371.88,204.85L371.03,217.72L369.35,290.8L368.5,293.37L366.82,313.26L365.97,331.03L365.13,338.49L364.29,340.4L363.44,338.57L362.6,335.99L360.07,318.38L359.23,313.77L357.54,296.18L356.7,272.17L355.85,272.16L355.01,270.54L353.32,223.14L352.48,225.03L351.64,204.78L350.79,204.16L346.58,312.61L345.73,325.63L344.89,329.29L344.05,376.13L342.36,285.16L341.52,271.36L340.67,272.45L339.83,271.95L338.99,284.91L338.14,280.96L337.3,291.4L336.46,288.39L335.62,355.28L334.77,294.45L333.93,293.66L333.09,323.19L331.4,281.14L330.56,278.22L329.71,286.39L328.87,310.54L328.03,289.74L327.18,342.92L326.34,335.55L325.5,340.98L324.65,339.79L323.81,337.66L317.91,298.49L317.06,292.82L316.22,289.97L315.38,287.69L312,107.26L311.16,89.53L307.79,236.39L306.94,261.33L306.1,270.69L305.26,278.92L301.88,317.74L301.04,329.77L297.67,306.45L296.83,302.47L295.98,305.24L295.14,292.14L294.3,323.4L293.45,265.34L291.77,179.19L290.92,168.04L289.24,209.03L288.39,210.76L285.86,245.73L285.02,286.15L283.33,312.9L282.49,332.99L281.65,337.19L280.8,342.07L279.96,307.05L279.12,353.4L278.27,321.68L277.43,363.3L276.59,367.46L275.74,316.25L274.9,332.29L274.06,370.08L272.37,281.93L271.53,252.79L270.68,242.37L269.84,250.82L268.15,325.42L267.31,366.5L266.47,360.67L265.63,382.96L263.94,379.48L263.1,376.82L261.41,356.91L260.57,368.62L259.72,365.83L258.88,364.05L258.04,339.47L257.19,361.58L255.51,360.76L254.66,359.32L252.13,234.84L251.29,198.56L250.45,183.97L249.6,192.17L247.92,263.42L247.07,313.97L246.23,337.06L245.39,339.82L244.54,339.4L243.7,318L239.48,262.32L238.64,259.16L236.95,266.02L236.11,268.56L234.42,373.91L233.58,371.84L231.89,286.66L231.05,257.59L230.21,243.22L229.37,239.31L227.68,296.6L226.84,335.07L225.99,342.54L225.15,339.44L221.78,318.97L220.93,310.86L218.4,261.05L217.56,239.6L216.72,230.55L215.87,232.81L213.34,169.35L212.5,169.13L211.66,207.26L210.81,179.64L209.97,204.65L209.13,203.94L208.28,196.05L207.44,207.51L206.6,206.59L205.75,182.06L204.91,229.44L204.07,164.96L203.22,254.7L202.38,258.93L201.54,259.14L200.69,256.18L196.48,220.39L195.63,208.98L194.79,204.5L193.95,202.43L193.11,210.13L192.26,211.18L191.42,142.67L190.58,206.26L189.73,205.83L188.89,205.41L187.2,207.87L186.36,207.97L184.67,230.03L183.83,247.92L182.99,255.74L182.14,260.36L181.3,260.57L180.46,258.12L175.4,209.81L174.55,205.78L173.71,204.02L172.87,208.83L171.18,207.67L170.34,204.91L169.49,203.73L168.65,201.72L166.12,209L165.28,206.79L164.43,230.52L163.59,247.13L162.75,255.28L161.9,152.06L161.06,258.03L160.22,256.21L156.85,226.79L156,217.2L154.32,202.58L153.47,200.35L152.63,208.46L151.79,209.41L150.94,208.51L150.1,205.98L148.41,205.18L147.57,207.8L146.73,206.3L145.88,206.87L144.2,231.06L143.35,252.66L142.51,262.71L141.67,265.99L140.82,267.06L139.98,265.65L137.45,248.51L136.61,248.28L134.92,238.36L134.08,234.84L132.39,244.71L131.55,246.84L129.02,241.1L128.17,241.85L124.8,276.71L123.96,281.66L123.12,279.83L122.27,277.86L120.59,276.89L119.74,267.9L118.9,268.23L118.06,250.24L117.21,253.74L116.37,251.27L115.53,190.07L114.68,235.03L113.84,229.63L113,229.54L112.15,236.19L111.31,239.21L109.62,235.15L108.78,231.52L107.94,231.26L107.09,201.56L106.25,241.87L105.41,238.88L104.56,258.88L103.72,266.19L102.88,268.95L102.03,283.52L101.19,286.37L100.35,286.9L99.5,294.63L98.66,304.41L97.82,297.99L96.97,289.04L88.54,155.31L87.7,156.09L86.86,178.54L86.01,206.26L85.17,212.96L84.33,227.25L83.48,231.62L82.64,228.64L81.8,232.3L80.95,252.25L80.11,258.21L79.27,256.77L76.74,240.48L75.89,237.53L75.05,243.38L74.21,245.79L72.52,254.78L71.68,261.31L69.99,232.16L69.15,224.79L68.3,226.95L67.46,231.36L65.77,259.4L64.93,273.09L64.09,270.62L63.24,266.71L62.4,274.85L61.56,283.56L60.71,285.05L59.87,282.96L58.18,273.57L57.34,266.44L53.13,216.12L52.28,203.96L51.44,199.53L50.6,184.22L49.75,176.29L48.91,145.04L48.07,133.71L47.22,186.53L46.38,188.44L45.54,143.39L44.69,207.27L43.85,139.51L43.01,137L42.16,246.25L41.32,253.38L40.48,257.07L39.63,258.65L38.79,256.91L33.73,208.09L32.89,203.99L32.04,202.75L31.2,206.99L30.36,173.6L29.51,208.83L28.67,206.3L27.83,205.21L26.98,190.32L26.14,206.31L24.45,208.04L23.61,214.28L22.77,116.25L21.92,248.47L21.08,256L20.24,260.17L19.39,261.59L18.55,260.18L16.87,246.22L16.02,237.14L12.65,209.63L11.81,207.87L10.96,213.8L10.12,212.65L9.28,214.36L8.43,212.6L6.75,253.66L5.9,296.59L4.22,359.54L3.37,363.61L1.69,359.63L0.84,356.57L0,355.31Z" style="fill: rgb(32, 58, 95); fill-opacity: 0.5; stroke-width: 0;"/></g></g><g class="errorbars"/><g class="lines"><path class="js-line" d="M0,355.31L0.84,356.57L1.69,359.63L3.37,363.61L4.22,359.54L5.9,296.59L6.75,253.66L8.43,212.6L9.28,214.36L10.12,212.65L10.96,213.8L11.81,207.87L12.65,209.63L16.02,237.14L16.87,246.22L18.55,260.18L19.39,261.59L20.24,260.17L21.08,256L21.92,248.47L22.77,116.25L23.61,214.28L24.45,208.04L26.14,206.31L26.98,190.32L27.83,205.21L28.67,206.3L29.51,208.83L30.36,173.6L31.2,206.99L32.04,202.75L32.89,203.99L33.73,208.09L38.79,256.91L39.63,258.65L40.48,257.07L41.32,253.38L42.16,246.25L43.01,137L43.85,139.51L44.69,207.27L45.54,143.39L46.38,188.44L47.22,186.53L48.07,133.71L48.91,145.04L49.75,176.29L50.6,184.22L51.44,199.53L52.28,203.96L53.13,216.12L57.34,266.44L58.18,273.57L59.87,282.96L60.71,285.05L61.56,283.56L62.4,274.85L63.24,266.71L64.09,270.62L64.93,273.09L65.77,259.4L67.46,231.36L68.3,226.95L69.15,224.79L69.99,232.16L71.68,261.31L72.52,254.78L74.21,245.79L75.05,243.38L75.89,237.53L76.74,240.48L79.27,256.77L80.11,258.21L80.95,252.25L81.8,232.3L82.64,228.64L83.48,231.62L84.33,227.25L85.17,212.96L86.01,206.26L86.86,178.54L87.7,156.09L88.54,155.31L96.97,289.04L97.82,297.99L98.66,304.41L99.5,294.63L100.35,286.9L101.19,286.37L102.03,283.52L102.88,268.95L103.72,266.19L104.56,258.88L105.41,238.88L106.25,241.87L107.09,201.56L107.94,231.26L108.78,231.52L109.62,235.15L111.31,239.21L112.15,236.19L113,229.54L113.84,229.63L114.68,235.03L115.53,190.07L116.37,251.27L117.21,253.74L118.06,250.24L118.9,268.23L119.74,267.9L120.59,276.89L122.27,277.86L123.12,279.83L123.96,281.66L124.8,276.71L128.17,241.85L129.02,241.1L131.55,246.84L132.39,244.71L134.08,234.84L134.92,238.36L136.61,248.28L137.45,248.51L139.98,265.65L140.82,267.06L141.67,265.99L142.51,262.71L143.35,252.66L144.2,231.06L145.88,206.87L146.73,206.3L147.57,207.8L148.41,205.18L150.1,205.98L150.94,208.51L151.79,209.41L152.63,208.46L153.47,200.35L154.32,202.58L156,217.2L156.85,226.79L160.22,256.21L161.06,258.03L161.9,152.06L162.75,255.28L163.59,247.13L164.43,230.52L165.28,206.79L166.12,209L168.65,201.72L169.49,203.73L170.34,204.91L171.18,207.67L172.87,208.83L173.71,204.02L174.55,205.78L175.4,209.81L180.46,258.12L181.3,260.57L182.14,260.36L182.99,255.74L183.83,247.92L184.67,230.03L186.36,207.97L187.2,207.87L188.89,205.41L189.73,205.83L190.58,206.26L191.42,142.67L192.26,211.18L193.11,210.13L193.95,202.43L194.79,204.5L195.63,208.98L196.48,220.39L200.69,256.18L201.54,259.14L202.38,258.93L203.22,254.7L204.07,164.96L204.91,229.44L205.75,182.06L206.6,206.59L207.44,207.51L208.28,196.05L209.13,203.94L209.97,204.65L210.81,179.64L211.66,207.26L212.5,169.13L213.34,169.35L215.87,232.81L216.72,230.55L217.56,239.6L218.4,261.05L220.93,310.86L221.78,318.97L225.15,339.44L225.99,342.54L226.84,335.07L227.68,296.6L229.37,239.31L230.21,243.22L231.05,257.59L231.89,286.66L233.58,371.84L234.42,373.91L236.11,268.56L236.95,266.02L238.64,259.16L239.48,262.32L243.7,318L244.54,339.4L245.39,339.82L246.23,337.06L247.07,313.97L247.92,263.42L249.6,192.17L250.45,183.97L251.29,198.56L252.13,234.84L254.66,359.32L255.51,360.76L257.19,361.58L258.04,339.47L258.88,364.05L259.72,365.83L260.57,368.62L261.41,356.91L263.1,376.82L263.94,379.48L265.63,382.96L266.47,360.67L267.31,366.5L268.15,325.42L269.84,250.82L270.68,242.37L271.53,252.79L272.37,281.93L274.06,370.08L274.9,332.29L275.74,316.25L276.59,367.46L277.43,363.3L278.27,321.68L279.12,353.4L279.96,307.05L280.8,342.07L281.65,337.19L282.49,332.99L283.33,312.9L285.02,286.15L285.86,245.73L288.39,210.76L289.24,209.03L290.92,168.04L291.77,179.19L293.45,265.34L294.3,323.4L295.14,292.14L295.98,305.24L296.83,302.47L297.67,306.45L301.04,329.77L301.88,317.74L305.26,278.92L306.1,270.69L306.94,261.33L307.79,236.39L311.16,89.53L312,107.26L315.38,287.69L316.22,289.97L317.06,292.82L317.91,298.49L323.81,337.66L324.65,339.79L325.5,340.98L326.34,335.55L327.18,342.92L328.03,289.74L328.87,310.54L329.71,286.39L330.56,278.22L331.4,281.14L333.09,323.19L333.93,293.66L334.77,294.45L335.62,355.28L336.46,288.39L337.3,291.4L338.14,280.96L338.99,284.91L339.83,271.95L340.67,272.45L341.52,271.36L342.36,285.16L344.05,376.13L344.89,329.29L345.73,325.63L346.58,312.61L350.79,204.16L351.64,204.78L352.48,225.03L353.32,223.14L355.01,270.54L355.85,272.16L356.7,272.17L357.54,296.18L359.23,313.77L360.07,318.38L362.6,335.99L363.44,338.57L364.29,340.4L365.13,338.49L365.97,331.03L366.82,313.26L368.5,293.37L369.35,290.8L371.03,217.72L371.88,204.85L372.72,209.14L373.56,229.38L376.09,311.89L376.93,320.5L377.78,326.01L378.62,322.97L381.15,306.44L381.99,301.81L382.84,303.37L383.68,314.21L385.37,343.86L386.21,350.4L387.9,359.48L388.74,361.81L389.58,361.61L390.43,359.3L394.64,320.11L395.49,316.16L399.7,283.65L400.55,268.75L402.23,248.49L403.08,246.3L403.92,243.83L404.76,255.85L408.13,313.71L408.98,309.77L412.35,249.68L413.19,250.63L414.88,312.74L415.72,346.31L417.41,358.07L418.25,362.42L419.1,364.08L419.94,362.39L421.63,356.03L422.47,347.74L425,317.74" style="vector-effect: non-scaling-stroke; fill: none; stroke: rgb(66, 108, 245); stroke-opacity: 1; stroke-width: 0.5px; opacity: 1;"/></g><g class="points"/><g class="text"/></g><g class="trace scatter trace288965" style="stroke-miterlimit: 2;"><g class="fills"><g><path class="js-fill" d="M0,268.48L0.84,269.73L1.69,261.24L3.37,222.71L4.22,216.05L5.06,215.34L5.9,212.39L6.75,211.02L7.59,212.99L8.43,212.6L9.28,214.36L10.12,212.65L10.96,213.8L11.81,207.87L12.65,209.63L16.02,237.14L16.87,246.22L18.55,260.18L19.39,261.59L20.24,260.17L21.08,256L21.92,248.47L22.77,116.25L23.61,214.28L24.45,208.04L26.14,206.31L26.98,190.32L27.83,205.21L28.67,206.3L29.51,208.83L30.36,173.6L31.2,206.99L32.04,202.75L32.89,203.99L33.73,208.09L38.79,256.91L39.63,258.65L40.48,257.07L41.32,253.38L42.16,246.25L43.01,137L43.85,139.51L44.69,207.27L45.54,143.39L46.38,188.44L47.22,186.53L48.07,133.71L48.91,145.04L49.75,176.29L52.28,201.15L53.13,202.56L53.97,207.3L54.81,218.5L59.03,257.65L59.87,260.01L60.71,259.99L61.56,257.75L62.4,250.87L63.24,233.45L64.93,212.85L65.77,213.37L67.46,209.59L68.3,210.19L69.15,211.36L69.99,214.16L71.68,215.13L72.52,209.43L74.21,214.96L75.05,223.1L76.74,236L77.58,245.06L80.11,257.38L80.95,251.65L82.64,228.05L83.48,223.1L85.17,205.72L86.01,204.65L87.7,144.08L88.54,138.74L91.07,181.19L91.91,195.97L93.6,208.55L94.44,212.07L97.82,246.93L98.66,255.44L101.19,268.18L102.03,269.31L102.88,268.95L103.72,266.19L104.56,258.88L105.41,238.88L106.25,241.87L107.09,201.56L107.94,231.26L108.78,231.52L111.31,239.21L112.15,236.19L113,229.54L113.84,229.63L114.68,235.03L115.53,190.07L116.37,251.27L117.21,253.74L118.06,250.24L118.9,268.23L119.74,267.9L120.59,276.89L122.27,277.86L123.12,279.83L123.96,281.66L124.8,276.71L128.17,241.85L129.02,241.1L131.55,246.84L132.39,244.71L134.08,234.84L134.92,238.36L136.61,248.28L137.45,248.51L139.98,265.65L140.82,267.06L141.67,265.99L142.51,262.71L143.35,252.66L144.2,231.06L145.88,206.87L146.73,206.3L147.57,207.8L148.41,205.18L150.1,205.98L150.94,208.51L151.79,209.41L152.63,208.46L153.47,200.35L154.32,202.58L156,217.2L156.85,226.79L160.22,256.21L161.06,258.03L161.9,152.06L162.75,255.28L163.59,247.13L164.43,230.52L165.28,206.79L166.12,206.44L166.96,206.66L167.81,204.6L168.65,201.72L169.49,203.73L170.34,204.91L171.18,207.67L172.87,208.83L173.71,204.02L174.55,205.78L175.4,209.81L180.46,258.12L181.3,260.57L182.14,260.36L182.99,255.74L183.83,247.92L184.67,230.03L186.36,207.97L187.2,207.87L188.89,205.41L189.73,205.83L190.58,206.26L191.42,142.67L192.26,211.18L193.11,210.13L193.95,202.43L194.79,204.5L195.63,208.98L196.48,220.39L200.69,256.18L201.54,259.14L202.38,258.93L203.22,254.7L204.07,164.96L204.91,229.44L205.75,182.06L206.6,206.59L207.44,207.51L208.28,196.05L209.13,203.94L209.97,204.65L210.81,179.64L211.66,207.26L212.5,169.13L213.34,169.35L215.03,203.23L215.87,207.4L220.93,254.35L221.78,257.51L222.62,257.7L223.46,254.83L224.31,248.23L225.15,230.41L226.84,209.05L227.68,207.9L229.37,174.9L230.21,182.27L231.89,218.12L232.74,219.2L233.58,220.08L234.42,212.91L235.27,213.46L236.11,217.5L239.48,248.4L240.33,256.15L242.86,265.5L243.7,266.1L244.54,266.24L245.39,264L247.07,247.06L247.92,176.58L248.76,216.69L249.6,192.17L250.45,97.13L251.29,111.72L253.82,243.21L254.66,232.7L255.51,230.93L256.35,235.44L258.04,252.04L258.88,253.8L262.25,272.23L263.1,273.82L264.78,276.14L265.63,277.94L266.47,273.84L267.31,265.5L269.84,174.55L270.68,183.54L273.21,258.6L274.06,254.55L275.74,236.78L276.59,239.97L278.27,251.07L279.12,249.28L281.65,264.36L282.49,266.25L283.33,266.12L284.18,262.76L285.02,252.97L285.86,231.69L287.55,210.72L288.39,209.32L289.24,208.03L290.08,172.3L290.92,152.24L291.77,159.41L293.45,215.75L294.3,215.16L295.98,204.75L296.83,207.47L301.88,248.85L302.73,252.57L303.57,254.46L304.41,252.77L305.26,245.03L306.1,226.02L308.63,191.03L309.47,142.6L310.32,105.8L311.16,19.4L313.69,206.45L314.53,187.9L315.38,199.49L316.22,198.81L317.06,201.94L317.91,211.06L319.59,222.23L320.44,227.77L323.81,249.93L324.65,249.22L325.5,241.04L326.34,222.94L328.03,202.31L328.87,200.56L329.71,198.95L330.56,190.78L331.4,193.71L332.24,201.85L334.77,207.02L335.62,200.1L336.46,200.95L337.3,204.56L341.52,243.67L342.36,248.44L343.2,251.12L344.05,250.96L344.89,249.56L345.73,243.06L348.26,205.7L349.11,204.71L350.79,203.22L351.64,204.78L352.48,205.18L353.32,207.61L355.01,209.46L355.85,205.07L356.7,204.23L357.54,207.23L361.76,244.94L362.6,249L364.29,253.53L365.13,251.63L365.97,244.19L366.82,226.42L368.5,206.53L369.35,203.96L371.03,130.88L371.88,160.7L372.72,122.3L373.56,142.54L375.25,208.07L376.09,205.89L376.93,205.04L377.78,208.78L379.46,227.18L380.31,231.13L381.15,230.9L381.99,246.65L382.84,216.54L383.68,227.37L384.52,254.91L385.37,257.02L386.21,258.51L387.05,257.02L390.43,227.8L391.27,226.83L392.11,228.58L392.96,233.99L394.64,238.54L395.49,229.32L396.33,230.5L397.17,228.97L398.86,243.8L399.7,219.01L400.55,251.41L401.39,251.15L402.23,169.05L403.08,245.7L403.92,160.48L404.76,171.65L405.61,273.6L406.45,275.43L407.29,224.54L408.13,238.86L408.98,265.46L409.82,256.92L411.51,241.14L412.35,246.4L413.19,228.9L414.04,254.79L414.88,256.51L415.72,255.03L417.41,241.34L418.25,242.78L419.94,251.54L420.78,250.76L422.47,263.71L423.31,255.79L424.16,269.24L425,230.91L425,317.74L423.31,338.06L422.47,347.74L421.63,345.34L420.78,338.19L419.94,338.97L419.1,332.82L417.41,274.38L416.57,260.36L414.88,262.15L414.04,267.75L413.19,250.63L412.35,249.68L408.98,309.77L408.13,313.71L404.76,255.85L403.92,243.83L403.08,246.3L402.23,248.49L400.55,268.75L399.7,283.65L396.33,308.54L395.49,316.16L394.64,320.11L393.8,324.26L392.11,306.26L391.27,303.54L387.05,344.46L386.21,345.94L382.84,303.37L381.99,301.81L380.31,310.39L379.46,314.61L377.78,296.21L376.93,292.48L376.09,293.32L375.25,294.91L373.56,229.38L372.72,209.14L371.88,204.85L371.03,217.72L369.35,290.8L368.5,293.37L366.82,313.26L365.97,331.03L365.13,338.47L364.29,340.37L363.44,338.49L362.6,335.84L359.23,310.76L358.38,303.17L355.85,212.46L355.01,209.46L353.32,207.61L352.48,225.03L351.64,204.78L350.79,204.16L346.58,312.61L345.73,325.63L344.89,329.29L344.05,332.35L342.36,285.16L341.52,271.36L340.67,272.45L339.83,271.95L338.99,284.91L338.14,280.96L337.3,291.4L336.46,288.39L335.62,287.53L334.77,294.45L332.24,289.28L331.4,281.14L330.56,278.22L329.71,286.39L328.87,288L328.03,289.74L326.34,310.37L325.5,328.48L324.65,336.65L323.81,337.36L317.91,298.49L317.06,289.38L316.22,286.24L315.38,286.92L312,107.26L311.16,89.53L307.79,236.39L306.94,261.33L306.1,270.69L305.26,278.92L301.88,317.74L301.04,329.77L297.67,302.86L296.83,294.9L295.14,258.42L294.3,252.21L291.77,179.19L290.92,168.04L289.24,208.63L288.39,209.91L285.86,245.73L285.02,278.18L282.49,309.82L281.65,293.66L280.8,329.66L279.96,307.05L279.12,308.34L278.27,321.68L277.43,317.66L276.59,307.83L275.74,316.25L274.9,292.06L274.06,296.42L273.21,300.04L272.37,281.93L271.53,252.79L270.68,242.37L269.84,250.82L268.15,325.42L267.31,352.33L266.47,360.67L265.63,364.78L263.1,361.25L262.25,359.66L258.88,341.24L258.04,339.47L256.35,322.28L255.51,317.77L254.66,319.54L253.82,330.05L252.13,234.84L251.29,198.56L250.45,183.97L249.6,192.17L247.92,263.42L247.07,313.97L246.23,337.06L245.39,339.82L244.54,339.38L243.7,317.96L240.33,271.43L239.48,260.8L238.64,255.94L237.8,256.43L236.11,238.23L235.27,220.11L232.74,260.23L231.89,271L230.21,243.22L229.37,239.31L227.68,289.46L226.84,295.89L225.15,317.84L224.31,334.62L221.78,318.97L220.93,310.86L218.4,261.05L217.56,239.6L216.72,230.55L215.87,232.81L213.34,169.35L212.5,169.13L211.66,207.26L210.81,179.64L209.97,204.65L209.13,203.94L208.28,196.05L207.44,207.51L206.6,206.59L205.75,182.06L204.91,229.44L204.07,164.96L203.22,254.7L202.38,258.93L201.54,259.14L200.69,256.18L196.48,220.39L195.63,208.98L194.79,204.5L193.95,202.43L193.11,210.13L192.26,211.18L191.42,142.67L190.58,206.26L189.73,205.83L188.89,205.41L187.2,207.87L186.36,207.97L184.67,230.03L183.83,247.92L182.99,255.74L182.14,260.36L181.3,260.57L180.46,258.12L175.4,209.81L174.55,205.78L173.71,204.02L172.87,208.83L171.18,207.67L170.34,204.91L169.49,203.73L168.65,201.72L166.12,209L165.28,206.79L164.43,230.52L163.59,247.13L162.75,255.28L161.9,152.06L161.06,258.03L160.22,256.21L156.85,226.79L156,217.2L154.32,202.58L153.47,200.35L152.63,208.46L151.79,209.41L150.94,208.51L150.1,205.98L148.41,205.18L147.57,207.8L146.73,206.3L145.88,206.87L144.2,231.06L143.35,252.66L142.51,262.71L141.67,265.99L140.82,267.06L139.98,265.65L137.45,248.51L136.61,248.28L134.92,238.36L134.08,234.84L132.39,244.71L131.55,246.84L129.02,241.1L128.17,241.85L124.8,276.71L123.96,281.66L123.12,279.83L122.27,277.86L120.59,276.89L119.74,267.9L118.9,268.23L118.06,250.24L117.21,253.74L116.37,251.27L115.53,190.07L114.68,235.03L113.84,229.63L113,229.54L112.15,236.19L111.31,239.21L109.62,235.15L108.78,231.52L107.94,231.26L107.09,201.56L106.25,241.87L105.41,238.88L104.56,258.88L103.72,266.19L102.88,268.95L102.03,283.52L100.35,276.73L99.5,273.15L97.82,250.58L96.97,242.34L95.29,238L94.44,225.25L93.6,223.53L92.76,221.84L88.54,155.31L87.7,156.09L86.01,205.36L85.17,206.32L83.48,223.7L82.64,228.64L80.95,252.25L80.11,257.98L77.58,245.65L76.74,236L75.05,223.41L74.21,214.96L72.52,209.43L71.68,215.13L69.99,214.16L69.15,211.36L68.3,210.19L67.46,209.59L65.77,213.37L64.93,217.13L62.4,274.85L61.56,283.56L60.71,285.05L59.87,282.96L58.18,273.57L57.34,266.44L53.13,216.12L52.28,203.51L51.44,199.53L50.6,184.22L49.75,176.29L48.91,145.04L48.07,133.71L47.22,186.53L46.38,188.44L45.54,143.39L44.69,207.27L43.85,139.51L43.01,137L42.16,246.25L41.32,253.38L40.48,257.07L39.63,258.65L38.79,256.91L33.73,208.09L32.89,203.99L32.04,202.75L31.2,206.99L30.36,173.6L29.51,208.83L28.67,206.3L27.83,205.21L26.98,190.32L26.14,206.31L24.45,208.04L23.61,214.28L22.77,116.25L21.92,248.47L21.08,256L20.24,260.17L19.39,261.59L18.55,260.18L13.49,215.66L12.65,209.63L11.81,207.87L10.96,213.8L10.12,212.65L9.28,214.36L8.43,212.6L7.59,218.96L5.9,296.59L5.06,302.78L4.22,303.49L3.37,310.15L1.69,348.68L0.84,356.57L0,355.31Z" style="fill: rgb(0, 255, 217); fill-opacity: 0.5; stroke-width: 0;"/></g></g><g class="errorbars"/><g class="lines"><path class="js-line" d="M0,355.31L0.84,356.57L1.69,348.68L3.37,310.15L4.22,303.49L5.06,302.78L5.9,296.59L7.59,218.96L8.43,212.6L9.28,214.36L10.12,212.65L10.96,213.8L11.81,207.87L12.65,209.63L13.49,215.66L18.55,260.18L19.39,261.59L20.24,260.17L21.08,256L21.92,248.47L22.77,116.25L23.61,214.28L24.45,208.04L26.14,206.31L26.98,190.32L27.83,205.21L28.67,206.3L29.51,208.83L30.36,173.6L31.2,206.99L32.04,202.75L32.89,203.99L33.73,208.09L38.79,256.91L39.63,258.65L40.48,257.07L41.32,253.38L42.16,246.25L43.01,137L43.85,139.51L44.69,207.27L45.54,143.39L46.38,188.44L47.22,186.53L48.07,133.71L48.91,145.04L49.75,176.29L50.6,184.22L51.44,199.53L52.28,203.51L53.13,216.12L57.34,266.44L58.18,273.57L59.87,282.96L60.71,285.05L61.56,283.56L62.4,274.85L64.93,217.13L65.77,213.37L67.46,209.59L68.3,210.19L69.15,211.36L69.99,214.16L71.68,215.13L72.52,209.43L74.21,214.96L75.05,223.41L76.74,236L77.58,245.65L80.11,257.98L80.95,252.25L82.64,228.64L83.48,223.7L85.17,206.32L86.01,205.36L87.7,156.09L88.54,155.31L92.76,221.84L93.6,223.53L94.44,225.25L95.29,238L96.97,242.34L97.82,250.58L99.5,273.15L100.35,276.73L102.03,283.52L102.88,268.95L103.72,266.19L104.56,258.88L105.41,238.88L106.25,241.87L107.09,201.56L107.94,231.26L108.78,231.52L109.62,235.15L111.31,239.21L112.15,236.19L113,229.54L113.84,229.63L114.68,235.03L115.53,190.07L116.37,251.27L117.21,253.74L118.06,250.24L118.9,268.23L119.74,267.9L120.59,276.89L122.27,277.86L123.12,279.83L123.96,281.66L124.8,276.71L128.17,241.85L129.02,241.1L131.55,246.84L132.39,244.71L134.08,234.84L134.92,238.36L136.61,248.28L137.45,248.51L139.98,265.65L140.82,267.06L141.67,265.99L142.51,262.71L143.35,252.66L144.2,231.06L145.88,206.87L146.73,206.3L147.57,207.8L148.41,205.18L150.1,205.98L150.94,208.51L151.79,209.41L152.63,208.46L153.47,200.35L154.32,202.58L156,217.2L156.85,226.79L160.22,256.21L161.06,258.03L161.9,152.06L162.75,255.28L163.59,247.13L164.43,230.52L165.28,206.79L166.12,209L168.65,201.72L169.49,203.73L170.34,204.91L171.18,207.67L172.87,208.83L173.71,204.02L174.55,205.78L175.4,209.81L180.46,258.12L181.3,260.57L182.14,260.36L182.99,255.74L183.83,247.92L184.67,230.03L186.36,207.97L187.2,207.87L188.89,205.41L189.73,205.83L190.58,206.26L191.42,142.67L192.26,211.18L193.11,210.13L193.95,202.43L194.79,204.5L195.63,208.98L196.48,220.39L200.69,256.18L201.54,259.14L202.38,258.93L203.22,254.7L204.07,164.96L204.91,229.44L205.75,182.06L206.6,206.59L207.44,207.51L208.28,196.05L209.13,203.94L209.97,204.65L210.81,179.64L211.66,207.26L212.5,169.13L213.34,169.35L215.87,232.81L216.72,230.55L217.56,239.6L218.4,261.05L220.93,310.86L221.78,318.97L224.31,334.62L225.15,317.84L226.84,295.89L227.68,289.46L229.37,239.31L230.21,243.22L231.89,271L232.74,260.23L235.27,220.11L236.11,238.23L237.8,256.43L238.64,255.94L239.48,260.8L240.33,271.43L243.7,317.96L244.54,339.38L245.39,339.82L246.23,337.06L247.07,313.97L247.92,263.42L249.6,192.17L250.45,183.97L251.29,198.56L252.13,234.84L253.82,330.05L254.66,319.54L255.51,317.77L256.35,322.28L258.04,339.47L258.88,341.24L262.25,359.66L263.1,361.25L265.63,364.78L266.47,360.67L267.31,352.33L268.15,325.42L269.84,250.82L270.68,242.37L271.53,252.79L272.37,281.93L273.21,300.04L274.06,296.42L274.9,292.06L275.74,316.25L276.59,307.83L277.43,317.66L278.27,321.68L279.12,308.34L279.96,307.05L280.8,329.66L281.65,293.66L282.49,309.82L285.02,278.18L285.86,245.73L288.39,209.91L289.24,208.63L290.92,168.04L291.77,179.19L294.3,252.21L295.14,258.42L296.83,294.9L297.67,302.86L301.04,329.77L301.88,317.74L305.26,278.92L306.1,270.69L306.94,261.33L307.79,236.39L311.16,89.53L312,107.26L315.38,286.92L316.22,286.24L317.06,289.38L317.91,298.49L323.81,337.36L324.65,336.65L325.5,328.48L326.34,310.37L328.03,289.74L328.87,288L329.71,286.39L330.56,278.22L331.4,281.14L332.24,289.28L334.77,294.45L335.62,287.53L336.46,288.39L337.3,291.4L338.14,280.96L338.99,284.91L339.83,271.95L340.67,272.45L341.52,271.36L342.36,285.16L344.05,332.35L344.89,329.29L345.73,325.63L346.58,312.61L350.79,204.16L351.64,204.78L352.48,225.03L353.32,207.61L355.01,209.46L355.85,212.46L358.38,303.17L359.23,310.76L362.6,335.84L363.44,338.49L364.29,340.37L365.13,338.47L365.97,331.03L366.82,313.26L368.5,293.37L369.35,290.8L371.03,217.72L371.88,204.85L372.72,209.14L373.56,229.38L375.25,294.91L376.09,293.32L376.93,292.48L377.78,296.21L379.46,314.61L380.31,310.39L381.99,301.81L382.84,303.37L386.21,345.94L387.05,344.46L391.27,303.54L392.11,306.26L393.8,324.26L394.64,320.11L395.49,316.16L396.33,308.54L399.7,283.65L400.55,268.75L402.23,248.49L403.08,246.3L403.92,243.83L404.76,255.85L408.13,313.71L408.98,309.77L412.35,249.68L413.19,250.63L414.04,267.75L414.88,262.15L416.57,260.36L417.41,274.38L419.1,332.82L419.94,338.97L420.78,338.19L421.63,345.34L422.47,347.74L423.31,338.06L425,317.74" style="vector-effect: non-scaling-stroke; fill: none; stroke: rgb(32, 58, 95); stroke-opacity: 1; stroke-width: 0.5px; opacity: 1;"/></g><g class="points"/><g class="text"/></g><g class="trace scatter tracee4f567" style="stroke-miterlimit: 2;"><g class="fills"/><g class="errorbars"/><g class="lines"><path class="js-line" d="M0,268.48L0.84,269.73L1.69,261.24L3.37,222.71L4.22,216.05L5.06,215.34L5.9,212.39L6.75,211.02L7.59,212.99L8.43,212.6L9.28,214.36L10.12,212.65L10.96,213.8L11.81,207.87L12.65,209.63L16.02,237.14L16.87,246.22L18.55,260.18L19.39,261.59L20.24,260.17L21.08,256L21.92,248.47L22.77,116.25L23.61,214.28L24.45,208.04L26.14,206.31L26.98,190.32L27.83,205.21L28.67,206.3L29.51,208.83L30.36,173.6L31.2,206.99L32.04,202.75L32.89,203.99L33.73,208.09L38.79,256.91L39.63,258.65L40.48,257.07L41.32,253.38L42.16,246.25L43.01,137L43.85,139.51L44.69,207.27L45.54,143.39L46.38,188.44L47.22,186.53L48.07,133.71L48.91,145.04L49.75,176.29L52.28,201.15L53.13,202.56L53.97,207.3L54.81,218.5L59.03,257.65L59.87,260.01L60.71,259.99L61.56,257.75L62.4,250.87L63.24,233.45L64.93,212.85L65.77,213.37L67.46,209.59L68.3,210.19L69.15,211.36L69.99,214.16L71.68,215.13L72.52,209.43L74.21,214.96L75.05,223.1L76.74,236L77.58,245.06L80.11,257.38L80.95,251.65L82.64,228.05L83.48,223.1L85.17,205.72L86.01,204.65L87.7,144.08L88.54,138.74L91.07,181.19L91.91,195.97L93.6,208.55L94.44,212.07L97.82,246.93L98.66,255.44L101.19,268.18L102.03,269.31L102.88,268.95L103.72,266.19L104.56,258.88L105.41,238.88L106.25,241.87L107.09,201.56L107.94,231.26L108.78,231.52L111.31,239.21L112.15,236.19L113,229.54L113.84,229.63L114.68,235.03L115.53,190.07L116.37,251.27L117.21,253.74L118.06,250.24L118.9,268.23L119.74,267.9L120.59,276.89L122.27,277.86L123.12,279.83L123.96,281.66L124.8,276.71L128.17,241.85L129.02,241.1L131.55,246.84L132.39,244.71L134.08,234.84L134.92,238.36L136.61,248.28L137.45,248.51L139.98,265.65L140.82,267.06L141.67,265.99L142.51,262.71L143.35,252.66L144.2,231.06L145.88,206.87L146.73,206.3L147.57,207.8L148.41,205.18L150.1,205.98L150.94,208.51L151.79,209.41L152.63,208.46L153.47,200.35L154.32,202.58L156,217.2L156.85,226.79L160.22,256.21L161.06,258.03L161.9,152.06L162.75,255.28L163.59,247.13L164.43,230.52L165.28,206.79L166.12,206.44L166.96,206.66L167.81,204.6L168.65,201.72L169.49,203.73L170.34,204.91L171.18,207.67L172.87,208.83L173.71,204.02L174.55,205.78L175.4,209.81L180.46,258.12L181.3,260.57L182.14,260.36L182.99,255.74L183.83,247.92L184.67,230.03L186.36,207.97L187.2,207.87L188.89,205.41L189.73,205.83L190.58,206.26L191.42,142.67L192.26,211.18L193.11,210.13L193.95,202.43L194.79,204.5L195.63,208.98L196.48,220.39L200.69,256.18L201.54,259.14L202.38,258.93L203.22,254.7L204.07,164.96L204.91,229.44L205.75,182.06L206.6,206.59L207.44,207.51L208.28,196.05L209.13,203.94L209.97,204.65L210.81,179.64L211.66,207.26L212.5,169.13L213.34,169.35L215.03,203.23L215.87,207.4L220.93,254.35L221.78,257.51L222.62,257.7L223.46,254.83L224.31,248.23L225.15,230.41L226.84,209.05L227.68,207.9L229.37,174.9L230.21,182.27L231.89,218.12L232.74,219.2L233.58,220.08L234.42,212.91L235.27,213.46L236.11,217.5L239.48,248.4L240.33,256.15L242.86,265.5L243.7,266.1L244.54,266.24L245.39,264L247.07,247.06L247.92,176.58L248.76,216.69L249.6,192.17L250.45,97.13L251.29,111.72L253.82,243.21L254.66,232.7L255.51,230.93L256.35,235.44L258.04,252.04L258.88,253.8L262.25,272.23L263.1,273.82L264.78,276.14L265.63,277.94L266.47,273.84L267.31,265.5L269.84,174.55L270.68,183.54L273.21,258.6L274.06,254.55L275.74,236.78L276.59,239.97L278.27,251.07L279.12,249.28L281.65,264.36L282.49,266.25L283.33,266.12L284.18,262.76L285.02,252.97L285.86,231.69L287.55,210.72L288.39,209.32L289.24,208.03L290.08,172.3L290.92,152.24L291.77,159.41L293.45,215.75L294.3,215.16L295.98,204.75L296.83,207.47L301.88,248.85L302.73,252.57L303.57,254.46L304.41,252.77L305.26,245.03L306.1,226.02L308.63,191.03L309.47,142.6L310.32,105.8L311.16,19.4L313.69,206.45L314.53,187.9L315.38,199.49L316.22,198.81L317.06,201.94L317.91,211.06L319.59,222.23L320.44,227.77L323.81,249.93L324.65,249.22L325.5,241.04L326.34,222.94L328.03,202.31L328.87,200.56L329.71,198.95L330.56,190.78L331.4,193.71L332.24,201.85L334.77,207.02L335.62,200.1L336.46,200.95L337.3,204.56L341.52,243.67L342.36,248.44L343.2,251.12L344.05,250.96L344.89,249.56L345.73,243.06L348.26,205.7L349.11,204.71L350.79,203.22L351.64,204.78L352.48,205.18L353.32,207.61L355.01,209.46L355.85,205.07L356.7,204.23L357.54,207.23L361.76,244.94L362.6,249L364.29,253.53L365.13,251.63L365.97,244.19L366.82,226.42L368.5,206.53L369.35,203.96L371.03,130.88L371.88,160.7L372.72,122.3L373.56,142.54L375.25,208.07L376.09,205.89L376.93,205.04L377.78,208.78L379.46,227.18L380.31,231.13L381.15,230.9L381.99,246.65L382.84,216.54L383.68,227.37L384.52,254.91L385.37,257.02L386.21,258.51L387.05,257.02L390.43,227.8L391.27,226.83L392.11,228.58L392.96,233.99L394.64,238.54L395.49,229.32L396.33,230.5L397.17,228.97L398.86,243.8L399.7,219.01L400.55,251.41L401.39,251.15L402.23,169.05L403.08,245.7L403.92,160.48L404.76,171.65L405.61,273.6L406.45,275.43L407.29,224.54L408.13,238.86L408.98,265.46L409.82,256.92L411.51,241.14L412.35,246.4L413.19,228.9L414.04,254.79L414.88,256.51L415.72,255.03L417.41,241.34L418.25,242.78L419.94,251.54L420.78,250.76L422.47,263.71L423.31,255.79L424.16,269.24L425,230.91" style="vector-effect: non-scaling-stroke; fill: none; stroke: rgb(0, 255, 217); stroke-opacity: 1; stroke-width: 0.5px; opacity: 1;"/></g><g class="points"/><g class="text"/></g><g class="trace scatter trace1ae22e" style="stroke-miterlimit: 2; opacity: 1;"><g class="fills"/><g class="errorbars"/><g class="lines"><path class="js-line" d="M0,278.7L0.84,273.97L1.69,262.99L3.37,224.46L4.22,217.8L5.06,217.09L5.9,214.08L6.75,211.88L7.59,213.11L8.43,213.19L9.28,214.36L10.12,215.78L10.96,213.8L11.81,207.87L12.65,209.63L16.02,237.14L16.87,246.22L18.55,260.18L19.39,261.59L20.24,260.17L21.08,256L21.92,248.47L22.77,229.58L24.45,208.04L25.3,207.26L27.83,205.21L28.67,206.3L30.36,209.24L31.2,206.99L32.04,202.75L32.89,203.99L33.73,208.09L34.57,216.83L38.79,256.91L39.63,258.65L40.48,257.07L41.32,253.38L42.16,246.25L43.01,228.96L44.69,207.27L45.54,206.7L47.22,200.71L48.07,203.23L48.91,202.95L49.75,204.52L50.6,206.8L51.44,206.57L52.28,201.19L53.13,203.33L53.97,207.7L54.81,218.95L59.03,258.08L59.87,260.47L60.71,260.49L61.56,258.26L62.4,251.35L63.24,233.93L64.93,212.94L65.77,213.37L67.46,209.59L68.3,210.19L69.15,211.36L69.99,214.16L71.68,215.13L72.52,210.02L74.21,214.96L75.05,223.1L78.42,250.35L79.27,255.71L80.11,257.4L80.95,256.73L81.8,254.43L82.64,247.87L85.17,205.74L86.01,204.66L87.7,201.03L88.54,202.22L91.07,212.78L91.91,212.58L92.76,206.79L93.6,208.85L94.44,212.34L95.29,223.63L99.5,261.66L100.35,265.49L102.03,269.59L102.88,268.95L103.72,266.19L104.56,258.88L107.09,235.69L107.94,231.26L108.78,231.52L109.62,235.15L111.31,239.21L112.15,236.19L113,229.54L113.84,229.63L115.53,244.14L116.37,251.27L117.21,253.74L118.06,259.87L119.74,273.98L120.59,276.89L122.27,277.86L123.12,279.83L123.96,281.66L124.8,276.71L128.17,241.85L129.02,241.1L131.55,246.84L132.39,244.71L134.08,234.84L134.92,238.36L136.61,248.28L137.45,248.51L139.98,265.65L140.82,267.06L141.67,265.99L142.51,262.71L143.35,252.66L144.2,231.06L145.88,207.74L146.73,206.3L147.57,207.8L148.41,205.18L150.1,205.98L150.94,208.51L151.79,209.41L152.63,208.46L153.47,200.35L154.32,202.58L156,217.2L156.85,226.79L160.22,256.21L161.06,258.03L161.9,257.71L162.75,255.28L163.59,247.13L164.43,230.52L166.12,206.49L166.96,207.26L168.65,201.72L169.49,203.73L170.34,204.91L171.18,207.67L172.87,208.83L173.71,204.02L174.55,205.78L175.4,209.81L180.46,258.12L181.3,260.57L182.14,260.36L182.99,255.74L183.83,247.92L184.67,230.03L186.36,207.97L187.2,207.87L188.89,205.41L189.73,205.83L190.58,206.26L191.42,209.6L192.26,211.18L193.11,210.13L193.95,202.43L194.79,204.5L195.63,208.98L196.48,220.39L200.69,256.18L201.54,259.14L202.38,258.93L203.22,254.7L204.07,247.52L204.91,229.44L206.6,206.59L207.44,207.51L209.13,203.94L209.97,204.65L210.81,205.07L211.66,207.26L213.34,210.98L214.19,203.88L215.03,203.66L215.87,207.91L220.93,255.48L221.78,258.74L222.62,259.04L223.46,256.33L224.31,249.96L225.15,232.16L226.84,210.79L227.68,209.53L229.37,210.58L230.21,213.14L231.89,219.18L232.74,220.02L233.58,220.66L234.42,213.42L235.27,213.59L236.11,217.92L239.48,248.65L240.33,256.45L242.86,266.27L243.7,267.14L244.54,267.71L245.39,266.12L248.76,236.75L249.6,235.32L251.29,244.56L252.13,249.29L252.98,248.71L253.82,244.95L255.51,232.67L256.35,237.17L258.04,253.79L258.88,255.55L262.25,273.97L263.1,275.57L264.78,277.89L265.63,279.68L266.47,275.57L267.31,267.23L269,253.21L269.84,249.27L270.68,249.52L271.53,253.37L273.21,259.43L274.06,255.39L275.74,238.37L276.59,241.33L278.27,252.48L279.12,250.46L281.65,264.94L282.49,267.13L283.33,266.72L284.18,263.37L285.02,253.48L285.86,231.97L287.55,210.85L288.39,209.33L290.08,207.23L290.92,210.01L291.77,210.61L292.61,213.77L293.45,216.36L294.3,215.9L295.98,206.44L296.83,209.21L301.88,250.29L302.73,253.64L303.57,255.28L304.41,253.45L305.26,245.71L306.1,226.92L307.79,205.92L308.63,204.1L310.32,202.29L311.16,202.68L313.69,206.6L314.53,208.36L315.38,201.23L316.22,200.56L317.06,203.69L317.91,213.6L321.28,243.68L322.12,248.63L323.81,251.67L324.65,250.96L325.5,242.79L326.34,224.69L328.03,204.06L328.87,202.31L330.56,200.47L331.4,201.47L334.77,208.76L335.62,201.84L336.46,202.7L337.3,206.3L341.52,244.23L342.36,249.17L343.2,252.55L344.05,252.59L344.89,251.16L345.73,244.71L348.26,206.99L349.11,205.57L350.79,203.24L351.64,204.78L352.48,205.57L353.32,207.61L355.01,209.46L355.85,205.22L356.7,205.02L357.54,208.74L360.91,240.79L361.76,246.68L364.29,255.27L365.13,253.37L365.97,245.92L366.82,228.16L368.5,208.27L369.35,205.69L370.19,203.26L371.03,203.76L371.88,204.83L372.72,208.42L375.25,215.02L376.09,207.64L376.93,206.79L377.78,210.53L379.46,228.92L380.31,232.72L383.68,257.37L384.52,258.99L386.21,260.26L387.05,258.77L390.43,229.52L391.27,228.36L392.11,230.13L392.96,235.64L394.64,240.17L395.49,239.83L397.17,230.44L398.02,235.82L399.7,249.25L400.55,251.75L403.08,270.27L403.92,274.21L404.76,275.16L405.61,274.61L407.29,277.67L408.13,272.35L411.51,246.45L412.35,246.47L414.04,255.05L414.88,256.62L415.72,255.15L416.57,246.07L417.41,242L418.25,244.07L419.94,253.28L420.78,252.51L423.31,269.3L424.16,270.43L425,268.89" style="vector-effect: non-scaling-stroke; fill: none; stroke: rgb(0, 0, 0); stroke-opacity: 1; stroke-width: 3px; opacity: 1;"/></g><g class="points"/><g class="text"/></g></g></g><g class="overplot"/><path class="xlines-above crisp" d="M0,0" style="fill: none;"/><path class="ylines-above crisp" d="M0,0" style="fill: none;"/><g class="overlines-above"/><g class="xaxislayer-above"><g class="xtick"><text text-anchor="middle" x="0" y="461" transform="translate(68,0)" style="font-family: 'Open Sans', verdana, arial, sans-serif; font-size: 12px; fill: rgb(42, 63, 95); fill-opacity: 1; white-space: pre;">0</text></g><g class="xtick"><text text-anchor="middle" x="0" y="461" transform="translate(152.32999999999998,0)" style="font-family: 'Open Sans', verdana, arial, sans-serif; font-size: 12px; fill: rgb(42, 63, 95); fill-opacity: 1; white-space: pre;">100</text></g><g class="xtick"><text text-anchor="middle" x="0" y="461" transform="translate(236.65,0)" style="font-family: 'Open Sans', verdana, arial, sans-serif; font-size: 12px; fill: rgb(42, 63, 95); fill-opacity: 1; white-space: pre;">200</text></g><g class="xtick"><text text-anchor="middle" x="0" y="461" transform="translate(320.98,0)" style="font-family: 'Open Sans', verdana, arial, sans-serif; font-size: 12px; fill: rgb(42, 63, 95); fill-opacity: 1; white-space: pre;">300</text></g><g class="xtick"><text text-anchor="middle" x="0" y="461" transform="translate(405.3,0)" style="font-family: 'Open Sans', verdana, arial, sans-serif; font-size: 12px; fill: rgb(42, 63, 95); fill-opacity: 1; white-space: pre;">400</text></g><g class="xtick"><text text-anchor="middle" x="0" y="461" transform="translate(489.63,0)" style="font-family: 'Open Sans', verdana, arial, sans-serif; font-size: 12px; fill: rgb(42, 63, 95); fill-opacity: 1; white-space: pre;">500</text></g></g><g class="yaxislayer-above"><g class="ytick"><text text-anchor="end" x="67" y="4.199999999999999" transform="translate(0,448)" style="font-family: 'Open Sans', verdana, arial, sans-serif; font-size: 12px; fill: rgb(42, 63, 95); fill-opacity: 1; white-space: pre;">0</text></g><g class="ytick"><text text-anchor="end" x="67" y="4.199999999999999" transform="translate(0,353.07)" style="font-family: 'Open Sans', verdana, arial, sans-serif; font-size: 12px; fill: rgb(42, 63, 95); fill-opacity: 1; white-space: pre;">50k</text></g><g class="ytick"><text text-anchor="end" x="67" y="4.199999999999999" transform="translate(0,258.15)" style="font-family: 'Open Sans', verdana, arial, sans-serif; font-size: 12px; fill: rgb(42, 63, 95); fill-opacity: 1; white-space: pre;">100k</text></g><g class="ytick"><text text-anchor="end" x="67" y="4.199999999999999" transform="translate(0,163.22)" style="font-family: 'Open Sans', verdana, arial, sans-serif; font-size: 12px; fill: rgb(42, 63, 95); fill-opacity: 1; white-space: pre;">150k</text></g><g class="ytick"><text text-anchor="end" x="67" y="4.199999999999999" transform="translate(0,68.28999999999999)" style="font-family: 'Open Sans', verdana, arial, sans-serif; font-size: 12px; fill: rgb(42, 63, 95); fill-opacity: 1; white-space: pre;">200k</text></g></g><g class="overaxes-above"/></g></g><g class="polarlayer"/><g class="ternarylayer"/><g class="geolayer"/><g class="funnelarealayer"/><g class="pielayer"/><g class="treemaplayer"/><g class="sunburstlayer"/><g class="glimages"/><defs id="topdefs-97906d"><g class="clips"/><clipPath id="legend97906d"><rect width="186" height="143" x="0" y="0"/></clipPath></defs><g class="layer-above"><g class="imagelayer"/><g class="shapelayer"/></g><g class="infolayer"><g class="legend" pointer-events="all" transform="translate(501.5,60)"><rect class="bg" shape-rendering="crispEdges" width="186" height="143" x="0" y="0" style="stroke: rgb(68, 68, 68); stroke-opacity: 1; fill: rgb(255, 255, 255); fill-opacity: 1; stroke-width: 0px;"/><g class="scrollbox" transform="" clip-path="url('#legend97906d')"><g class="groups"><g class="traces" transform="translate(0,14.5)" style="opacity: 1;"><text class="legendtext" text-anchor="start" x="40" y="4.680000000000001" style="font-family: 'Open Sans', verdana, arial, sans-serif; font-size: 12px; fill: rgb(42, 63, 95); fill-opacity: 1; white-space: pre;">load</text><g class="layers" style="opacity: 1;"><g class="legendfill"/><g class="legendlines"><path class="js-line" d="M5,0h30" style="fill: none; stroke: rgb(0, 0, 0); stroke-opacity: 1; stroke-width: 3px;"/></g><g class="legendsymbols"><g class="legendpoints"/></g></g><rect class="legendtoggle" x="0" y="-9.5" width="180.9375" height="19" style="fill: rgb(0, 0, 0); fill-opacity: 0;"/></g><g class="traces" transform="translate(0,33.5)" style="opacity: 1;"><text class="legendtext" text-anchor="start" x="40" y="4.680000000000001" style="font-family: 'Open Sans', verdana, arial, sans-serif; font-size: 12px; fill: rgb(42, 63, 95); fill-opacity: 1; white-space: pre;"> Imported transmission</text><g class="layers"><g class="legendfill"><path class="js-fill" d="M5,-2h30v6h-30z" style="stroke-width: 0; fill: rgb(0, 255, 217); fill-opacity: 0.5;"/></g><g class="legendlines"><path class="js-line" d="M5,-2h30" style="fill: none; stroke: rgb(0, 255, 217); stroke-opacity: 1; stroke-width: 0.5px;"/></g><g class="legendsymbols"><g class="legendpoints"/></g></g><rect class="legendtoggle" x="0" y="-9.5" width="180.9375" height="19" style="fill: rgb(0, 0, 0); fill-opacity: 0;"/></g><g class="traces" transform="translate(0,52.5)" style="opacity: 1;"><text class="legendtext" text-anchor="start" x="40" y="4.680000000000001" style="font-family: 'Open Sans', verdana, arial, sans-serif; font-size: 12px; fill: rgb(42, 63, 95); fill-opacity: 1; white-space: pre;">battery</text><g class="layers"><g class="legendfill"><path class="js-fill" d="M5,-2h30v6h-30z" style="stroke-width: 0; fill: rgb(32, 58, 95); fill-opacity: 0.5;"/></g><g class="legendlines"><path class="js-line" d="M5,-2h30" style="fill: none; stroke: rgb(32, 58, 95); stroke-opacity: 1; stroke-width: 0.5px;"/></g><g class="legendsymbols"><g class="legendpoints"/></g></g><rect class="legendtoggle" x="0" y="-9.5" width="180.9375" height="19" style="fill: rgb(0, 0, 0); fill-opacity: 0;"/></g><g class="traces" transform="translate(0,71.5)" style="opacity: 1;"><text class="legendtext" text-anchor="start" x="40" y="4.680000000000001" style="font-family: 'Open Sans', verdana, arial, sans-serif; font-size: 12px; fill: rgb(42, 63, 95); fill-opacity: 1; white-space: pre;">hydro</text><g class="layers"><g class="legendfill"><path class="js-fill" d="M5,-2h30v6h-30z" style="stroke-width: 0; fill: rgb(66, 108, 245); fill-opacity: 0.5;"/></g><g class="legendlines"><path class="js-line" d="M5,-2h30" style="fill: none; stroke: rgb(66, 108, 245); stroke-opacity: 1; stroke-width: 0.5px;"/></g><g class="legendsymbols"><g class="legendpoints"/></g></g><rect class="legendtoggle" x="0" y="-9.5" width="180.9375" height="19" style="fill: rgb(0, 0, 0); fill-opacity: 0;"/></g><g class="traces" transform="translate(0,90.5)" style="opacity: 1;"><text class="legendtext" text-anchor="start" x="40" y="4.680000000000001" style="font-family: 'Open Sans', verdana, arial, sans-serif; font-size: 12px; fill: rgb(42, 63, 95); fill-opacity: 1; white-space: pre;">Gas</text><g class="layers"><g class="legendfill"><path class="js-fill" d="M5,-2h30v6h-30z" style="stroke-width: 0; fill: rgb(245, 66, 66); fill-opacity: 0.5;"/></g><g class="legendlines"><path class="js-line" d="M5,-2h30" style="fill: none; stroke: rgb(245, 66, 66); stroke-opacity: 1; stroke-width: 0.5px;"/></g><g class="legendsymbols"><g class="legendpoints"/></g></g><rect class="legendtoggle" x="0" y="-9.5" width="180.9375" height="19" style="fill: rgb(0, 0, 0); fill-opacity: 0;"/></g><g class="traces" transform="translate(0,109.5)" style="opacity: 1;"><text class="legendtext" text-anchor="start" x="40" y="4.680000000000001" style="font-family: 'Open Sans', verdana, arial, sans-serif; font-size: 12px; fill: rgb(42, 63, 95); fill-opacity: 1; white-space: pre;">PV</text><g class="layers"><g class="legendfill"><path class="js-fill" d="M5,-2h30v6h-30z" style="stroke-width: 0; fill: rgb(245, 236, 66); fill-opacity: 0.5;"/></g><g class="legendlines"><path class="js-line" d="M5,-2h30" style="fill: none; stroke: rgb(245, 236, 66); stroke-opacity: 1; stroke-width: 0.5px;"/></g><g class="legendsymbols"><g class="legendpoints"/></g></g><rect class="legendtoggle" x="0" y="-9.5" width="180.9375" height="19" style="fill: rgb(0, 0, 0); fill-opacity: 0;"/></g><g class="traces" transform="translate(0,128.5)" style="opacity: 1;"><text class="legendtext" text-anchor="start" x="40" y="4.680000000000001" style="font-family: 'Open Sans', verdana, arial, sans-serif; font-size: 12px; fill: rgb(42, 63, 95); fill-opacity: 1; white-space: pre;">Wind</text><g class="layers"><g class="legendfill"><path class="js-fill" d="M5,-2h30v6h-30z" style="stroke-width: 0; fill: rgb(248, 3, 252); fill-opacity: 0.5;"/></g><g class="legendlines"><path class="js-line" d="M5,-2h30" style="fill: none; stroke: rgb(248, 3, 252); stroke-opacity: 1; stroke-width: 0.5px;"/></g><g class="legendsymbols"><g class="legendpoints"/></g></g><rect class="legendtoggle" x="0" y="-9.5" width="180.9375" height="19" style="fill: rgb(0, 0, 0); fill-opacity: 0;"/></g></g></g><rect class="scrollbar" rx="20" ry="3" width="0" height="0" x="0" y="0" style="fill: rgb(128, 139, 164); fill-opacity: 1;"/></g><g class="g-gtitle"><text class="gtitle" x="35" y="30" text-anchor="start" dy="0em" style="font-family: 'Open Sans', verdana, arial, sans-serif; font-size: 17px; fill: rgb(42, 63, 95); opacity: 1; font-weight: normal; white-space: pre;">Energy production in Germany between hour 147 and 651</text></g><g class="g-xtitle"><text class="xtitle" x="280.5" y="488.3" text-anchor="middle" style="font-family: 'Open Sans', verdana, arial, sans-serif; font-size: 14px; fill: rgb(42, 63, 95); opacity: 1; font-weight: normal; white-space: pre;">Hours</text></g><g class="g-ytitle" transform="translate(1.7998046875,0)"><text class="ytitle" transform="rotate(-90,12.200000000000003,254)" x="12.200000000000003" y="254" text-anchor="middle" style="font-family: 'Open Sans', verdana, arial, sans-serif; font-size: 14px; fill: rgb(42, 63, 95); opacity: 1; font-weight: normal; white-space: pre;">MWh</text></g></g></svg>