<?xml version="1.0" encoding="utf-8"?>
<svg xmlns="http://www.w3.org/2000/svg" xmlns:xlink="http://www.w3.org/1999/xlink" width="600" height="400" viewBox="0 0 2400 1600">
<defs>
  <clipPath id="clip960">
    <rect x="0" y="0" width="2400" height="1600"/>
  </clipPath>
</defs>
<path clip-path="url(#clip960)" d="M0 1600 L2400 1600 L2400 0 L0 0  Z" fill="#ffffff" fill-rule="evenodd" fill-opacity="1"/>
<defs>
  <clipPath id="clip961">
    <rect x="480" y="0" width="1681" height="1600"/>
  </clipPath>
</defs>
<path clip-path="url(#clip960)" d="M369.703 1423.18 L2352.76 1423.18 L2352.76 183.952 L369.703 183.952  Z" fill="#ffffff" fill-rule="evenodd" fill-opacity="1"/>
<defs>
  <clipPath id="clip962">
    <rect x="369" y="183" width="1984" height="1240"/>
  </clipPath>
</defs>
<polyline clip-path="url(#clip962)" style="stroke:#000000; stroke-linecap:round; stroke-linejoin:round; stroke-width:2; stroke-opacity:0.1; fill:none" points="730.905,1423.18 730.905,183.952 "/>
<polyline clip-path="url(#clip962)" style="stroke:#000000; stroke-linecap:round; stroke-linejoin:round; stroke-width:2; stroke-opacity:0.1; fill:none" points="1361.23,1423.18 1361.23,183.952 "/>
<polyline clip-path="url(#clip962)" style="stroke:#000000; stroke-linecap:round; stroke-linejoin:round; stroke-width:2; stroke-opacity:0.1; fill:none" points="1991.55,1423.18 1991.55,183.952 "/>
<polyline clip-path="url(#clip960)" style="stroke:#000000; stroke-linecap:round; stroke-linejoin:round; stroke-width:4; stroke-opacity:1; fill:none" points="369.703,1423.18 2352.76,1423.18 "/>
<polyline clip-path="url(#clip960)" style="stroke:#000000; stroke-linecap:round; stroke-linejoin:round; stroke-width:4; stroke-opacity:1; fill:none" points="730.905,1423.18 730.905,1404.28 "/>
<polyline clip-path="url(#clip960)" style="stroke:#000000; stroke-linecap:round; stroke-linejoin:round; stroke-width:4; stroke-opacity:1; fill:none" points="1361.23,1423.18 1361.23,1404.28 "/>
<polyline clip-path="url(#clip960)" style="stroke:#000000; stroke-linecap:round; stroke-linejoin:round; stroke-width:4; stroke-opacity:1; fill:none" points="1991.55,1423.18 1991.55,1404.28 "/>
<path clip-path="url(#clip960)" d="M545.339 1480.65 L545.339 1471.37 L537.7 1471.37 L537.7 1467.52 L549.968 1467.52 L549.968 1482.36 Q547.26 1484.28 543.996 1485.28 Q540.732 1486.25 537.029 1486.25 Q528.927 1486.25 524.343 1481.53 Q519.783 1476.78 519.783 1468.33 Q519.783 1459.86 524.343 1455.14 Q528.927 1450.39 537.029 1450.39 Q540.408 1450.39 543.441 1451.23 Q546.496 1452.06 549.065 1453.68 L549.065 1458.66 Q546.473 1456.46 543.556 1455.35 Q540.64 1454.24 537.422 1454.24 Q531.079 1454.24 527.885 1457.78 Q524.714 1461.32 524.714 1468.33 Q524.714 1475.33 527.885 1478.87 Q531.079 1482.41 537.422 1482.41 Q539.899 1482.41 541.843 1481.99 Q543.788 1481.55 545.339 1480.65 Z" fill="#000000" fill-rule="nonzero" fill-opacity="1" /><path clip-path="url(#clip960)" d="M580.501 1471.55 L580.501 1473.64 L560.917 1473.64 Q561.195 1478.03 563.556 1480.35 Q565.94 1482.64 570.176 1482.64 Q572.63 1482.64 574.922 1482.04 Q577.237 1481.44 579.505 1480.23 L579.505 1484.26 Q577.213 1485.23 574.806 1485.74 Q572.399 1486.25 569.922 1486.25 Q563.718 1486.25 560.084 1482.64 Q556.473 1479.03 556.473 1472.87 Q556.473 1466.51 559.899 1462.78 Q563.348 1459.03 569.181 1459.03 Q574.413 1459.03 577.445 1462.41 Q580.501 1465.77 580.501 1471.55 M576.241 1470.3 Q576.195 1466.81 574.274 1464.72 Q572.376 1462.64 569.227 1462.64 Q565.663 1462.64 563.51 1464.65 Q561.38 1466.67 561.056 1470.33 L576.241 1470.3 Z" fill="#000000" fill-rule="nonzero" fill-opacity="1" /><path clip-path="url(#clip960)" d="M602.514 1463.64 Q601.797 1463.22 600.94 1463.03 Q600.107 1462.83 599.088 1462.83 Q595.477 1462.83 593.533 1465.19 Q591.612 1467.52 591.612 1471.92 L591.612 1485.58 L587.329 1485.58 L587.329 1459.65 L591.612 1459.65 L591.612 1463.68 Q592.954 1461.32 595.107 1460.19 Q597.26 1459.03 600.338 1459.03 Q600.778 1459.03 601.311 1459.1 Q601.843 1459.14 602.491 1459.26 L602.514 1463.64 Z" fill="#000000" fill-rule="nonzero" fill-opacity="1" /><path clip-path="url(#clip960)" d="M626.334 1464.63 Q627.931 1461.76 630.153 1460.39 Q632.375 1459.03 635.384 1459.03 Q639.435 1459.03 641.634 1461.88 Q643.833 1464.7 643.833 1469.93 L643.833 1485.58 L639.551 1485.58 L639.551 1470.07 Q639.551 1466.34 638.232 1464.54 Q636.912 1462.73 634.204 1462.73 Q630.894 1462.73 628.972 1464.93 Q627.051 1467.13 627.051 1470.93 L627.051 1485.58 L622.769 1485.58 L622.769 1470.07 Q622.769 1466.32 621.449 1464.54 Q620.13 1462.73 617.375 1462.73 Q614.111 1462.73 612.19 1464.95 Q610.269 1467.15 610.269 1470.93 L610.269 1485.58 L605.986 1485.58 L605.986 1459.65 L610.269 1459.65 L610.269 1463.68 Q611.727 1461.3 613.764 1460.16 Q615.801 1459.03 618.602 1459.03 Q621.426 1459.03 623.394 1460.46 Q625.385 1461.9 626.334 1464.63 Z" fill="#000000" fill-rule="nonzero" fill-opacity="1" /><path clip-path="url(#clip960)" d="M664.111 1472.55 Q658.949 1472.55 656.958 1473.73 Q654.968 1474.91 654.968 1477.76 Q654.968 1480.02 656.449 1481.37 Q657.954 1482.69 660.523 1482.69 Q664.065 1482.69 666.194 1480.19 Q668.347 1477.66 668.347 1473.5 L668.347 1472.55 L664.111 1472.55 M672.606 1470.79 L672.606 1485.58 L668.347 1485.58 L668.347 1481.64 Q666.889 1484.01 664.713 1485.14 Q662.537 1486.25 659.389 1486.25 Q655.408 1486.25 653.046 1484.03 Q650.708 1481.78 650.708 1478.03 Q650.708 1473.66 653.625 1471.44 Q656.565 1469.21 662.375 1469.21 L668.347 1469.21 L668.347 1468.8 Q668.347 1465.86 666.403 1464.26 Q664.482 1462.64 660.986 1462.64 Q658.764 1462.64 656.658 1463.17 Q654.551 1463.7 652.607 1464.77 L652.607 1460.83 Q654.945 1459.93 657.144 1459.49 Q659.343 1459.03 661.426 1459.03 Q667.051 1459.03 669.829 1461.95 Q672.606 1464.86 672.606 1470.79 Z" fill="#000000" fill-rule="nonzero" fill-opacity="1" /><path clip-path="url(#clip960)" d="M702.93 1469.93 L702.93 1485.58 L698.671 1485.58 L698.671 1470.07 Q698.671 1466.39 697.236 1464.56 Q695.801 1462.73 692.93 1462.73 Q689.481 1462.73 687.491 1464.93 Q685.5 1467.13 685.5 1470.93 L685.5 1485.58 L681.218 1485.58 L681.218 1459.65 L685.5 1459.65 L685.5 1463.68 Q687.028 1461.34 689.088 1460.19 Q691.171 1459.03 693.88 1459.03 Q698.347 1459.03 700.639 1461.81 Q702.93 1464.56 702.93 1469.93 Z" fill="#000000" fill-rule="nonzero" fill-opacity="1" /><path clip-path="url(#clip960)" d="M722.213 1487.99 Q720.407 1492.62 718.694 1494.03 Q716.981 1495.44 714.111 1495.44 L710.708 1495.44 L710.708 1491.88 L713.208 1491.88 Q714.967 1491.88 715.94 1491.04 Q716.912 1490.21 718.092 1487.11 L718.856 1485.16 L708.37 1459.65 L712.884 1459.65 L720.986 1479.93 L729.088 1459.65 L733.602 1459.65 L722.213 1487.99 Z" fill="#000000" fill-rule="nonzero" fill-opacity="1" /><path clip-path="url(#clip960)" d="M759.18 1493.45 L759.18 1496.76 L734.551 1496.76 L734.551 1493.45 L759.18 1493.45 Z" fill="#000000" fill-rule="nonzero" fill-opacity="1" /><path clip-path="url(#clip960)" d="M784.087 1452.15 L784.087 1456.71 Q781.425 1455.44 779.064 1454.82 Q776.703 1454.19 774.504 1454.19 Q770.685 1454.19 768.601 1455.67 Q766.541 1457.15 766.541 1459.89 Q766.541 1462.18 767.907 1463.36 Q769.296 1464.52 773.138 1465.23 L775.962 1465.81 Q781.194 1466.81 783.671 1469.33 Q786.171 1471.83 786.171 1476.04 Q786.171 1481.07 782.791 1483.66 Q779.435 1486.25 772.93 1486.25 Q770.476 1486.25 767.699 1485.7 Q764.944 1485.14 761.981 1484.05 L761.981 1479.24 Q764.828 1480.83 767.56 1481.64 Q770.291 1482.45 772.93 1482.45 Q776.935 1482.45 779.111 1480.88 Q781.286 1479.31 781.286 1476.39 Q781.286 1473.84 779.712 1472.41 Q778.161 1470.97 774.597 1470.26 L771.749 1469.7 Q766.518 1468.66 764.18 1466.44 Q761.842 1464.21 761.842 1460.26 Q761.842 1455.67 765.06 1453.03 Q768.3 1450.39 773.972 1450.39 Q776.402 1450.39 778.925 1450.83 Q781.449 1451.27 784.087 1452.15 Z" fill="#000000" fill-rule="nonzero" fill-opacity="1" /><path clip-path="url(#clip960)" d="M790.8 1459.65 L795.06 1459.65 L800.384 1479.89 L805.684 1459.65 L810.708 1459.65 L816.032 1479.89 L821.333 1459.65 L825.592 1459.65 L818.809 1485.58 L813.786 1485.58 L808.208 1464.33 L802.606 1485.58 L797.583 1485.58 L790.8 1459.65 Z" fill="#000000" fill-rule="nonzero" fill-opacity="1" /><path clip-path="url(#clip960)" d="M854.226 1471.55 L854.226 1473.64 L834.643 1473.64 Q834.92 1478.03 837.282 1480.35 Q839.666 1482.64 843.902 1482.64 Q846.356 1482.64 848.647 1482.04 Q850.962 1481.44 853.231 1480.23 L853.231 1484.26 Q850.939 1485.23 848.531 1485.74 Q846.124 1486.25 843.647 1486.25 Q837.444 1486.25 833.809 1482.64 Q830.198 1479.03 830.198 1472.87 Q830.198 1466.51 833.624 1462.78 Q837.073 1459.03 842.907 1459.03 Q848.138 1459.03 851.17 1462.41 Q854.226 1465.77 854.226 1471.55 M849.967 1470.3 Q849.92 1466.81 847.999 1464.72 Q846.101 1462.64 842.953 1462.64 Q839.388 1462.64 837.235 1464.65 Q835.106 1466.67 834.782 1470.33 L849.967 1470.3 Z" fill="#000000" fill-rule="nonzero" fill-opacity="1" /><path clip-path="url(#clip960)" d="M878.277 1463.59 L878.277 1449.56 L882.536 1449.56 L882.536 1485.58 L878.277 1485.58 L878.277 1481.69 Q876.934 1484.01 874.874 1485.14 Q872.837 1486.25 869.967 1486.25 Q865.267 1486.25 862.305 1482.5 Q859.365 1478.75 859.365 1472.64 Q859.365 1466.53 862.305 1462.78 Q865.267 1459.03 869.967 1459.03 Q872.837 1459.03 874.874 1460.16 Q876.934 1461.27 878.277 1463.59 M863.763 1472.64 Q863.763 1477.34 865.684 1480.02 Q867.629 1482.69 871.008 1482.69 Q874.388 1482.69 876.332 1480.02 Q878.277 1477.34 878.277 1472.64 Q878.277 1467.94 876.332 1465.28 Q874.388 1462.59 871.008 1462.59 Q867.629 1462.59 865.684 1465.28 Q863.763 1467.94 863.763 1472.64 Z" fill="#000000" fill-rule="nonzero" fill-opacity="1" /><path clip-path="url(#clip960)" d="M913.485 1471.55 L913.485 1473.64 L893.902 1473.64 Q894.179 1478.03 896.54 1480.35 Q898.925 1482.64 903.161 1482.64 Q905.615 1482.64 907.906 1482.04 Q910.221 1481.44 912.489 1480.23 L912.489 1484.26 Q910.198 1485.23 907.79 1485.74 Q905.383 1486.25 902.906 1486.25 Q896.703 1486.25 893.068 1482.64 Q889.457 1479.03 889.457 1472.87 Q889.457 1466.51 892.883 1462.78 Q896.332 1459.03 902.165 1459.03 Q907.397 1459.03 910.429 1462.41 Q913.485 1465.77 913.485 1471.55 M909.226 1470.3 Q909.179 1466.81 907.258 1464.72 Q905.36 1462.64 902.212 1462.64 Q898.647 1462.64 896.494 1464.65 Q894.365 1466.67 894.04 1470.33 L909.226 1470.3 Z" fill="#000000" fill-rule="nonzero" fill-opacity="1" /><path clip-path="url(#clip960)" d="M942.026 1469.93 L942.026 1485.58 L937.767 1485.58 L937.767 1470.07 Q937.767 1466.39 936.332 1464.56 Q934.897 1462.73 932.026 1462.73 Q928.577 1462.73 926.587 1464.93 Q924.596 1467.13 924.596 1470.93 L924.596 1485.58 L920.313 1485.58 L920.313 1459.65 L924.596 1459.65 L924.596 1463.68 Q926.124 1461.34 928.184 1460.19 Q930.267 1459.03 932.975 1459.03 Q937.443 1459.03 939.735 1461.81 Q942.026 1464.56 942.026 1469.93 Z" fill="#000000" fill-rule="nonzero" fill-opacity="1" /><path clip-path="url(#clip960)" d="M1158.44 1480.65 L1158.44 1471.37 L1150.8 1471.37 L1150.8 1467.52 L1163.07 1467.52 L1163.07 1482.36 Q1160.36 1484.28 1157.1 1485.28 Q1153.83 1486.25 1150.13 1486.25 Q1142.03 1486.25 1137.45 1481.53 Q1132.89 1476.78 1132.89 1468.33 Q1132.89 1459.86 1137.45 1455.14 Q1142.03 1450.39 1150.13 1450.39 Q1153.51 1450.39 1156.54 1451.23 Q1159.6 1452.06 1162.17 1453.68 L1162.17 1458.66 Q1159.58 1456.46 1156.66 1455.35 Q1153.74 1454.24 1150.52 1454.24 Q1144.18 1454.24 1140.99 1457.78 Q1137.82 1461.32 1137.82 1468.33 Q1137.82 1475.33 1140.99 1478.87 Q1144.18 1482.41 1150.52 1482.41 Q1153 1482.41 1154.95 1481.99 Q1156.89 1481.55 1158.44 1480.65 Z" fill="#000000" fill-rule="nonzero" fill-opacity="1" /><path clip-path="url(#clip960)" d="M1193.6 1471.55 L1193.6 1473.64 L1174.02 1473.64 Q1174.3 1478.03 1176.66 1480.35 Q1179.04 1482.64 1183.28 1482.64 Q1185.73 1482.64 1188.02 1482.04 Q1190.34 1481.44 1192.61 1480.23 L1192.61 1484.26 Q1190.32 1485.23 1187.91 1485.74 Q1185.5 1486.25 1183.02 1486.25 Q1176.82 1486.25 1173.19 1482.64 Q1169.58 1479.03 1169.58 1472.87 Q1169.58 1466.51 1173 1462.78 Q1176.45 1459.03 1182.28 1459.03 Q1187.52 1459.03 1190.55 1462.41 Q1193.6 1465.77 1193.6 1471.55 M1189.34 1470.3 Q1189.3 1466.81 1187.38 1464.72 Q1185.48 1462.64 1182.33 1462.64 Q1178.77 1462.64 1176.61 1464.65 Q1174.48 1466.67 1174.16 1470.33 L1189.34 1470.3 Z" fill="#000000" fill-rule="nonzero" fill-opacity="1" /><path clip-path="url(#clip960)" d="M1215.62 1463.64 Q1214.9 1463.22 1214.04 1463.03 Q1213.21 1462.83 1212.19 1462.83 Q1208.58 1462.83 1206.64 1465.19 Q1204.71 1467.52 1204.71 1471.92 L1204.71 1485.58 L1200.43 1485.58 L1200.43 1459.65 L1204.71 1459.65 L1204.71 1463.68 Q1206.06 1461.32 1208.21 1460.19 Q1210.36 1459.03 1213.44 1459.03 Q1213.88 1459.03 1214.41 1459.1 Q1214.95 1459.14 1215.59 1459.26 L1215.62 1463.64 Z" fill="#000000" fill-rule="nonzero" fill-opacity="1" /><path clip-path="url(#clip960)" d="M1239.44 1464.63 Q1241.03 1461.76 1243.26 1460.39 Q1245.48 1459.03 1248.49 1459.03 Q1252.54 1459.03 1254.74 1461.88 Q1256.94 1464.7 1256.94 1469.93 L1256.94 1485.58 L1252.65 1485.58 L1252.65 1470.07 Q1252.65 1466.34 1251.33 1464.54 Q1250.01 1462.73 1247.31 1462.73 Q1244 1462.73 1242.08 1464.93 Q1240.15 1467.13 1240.15 1470.93 L1240.15 1485.58 L1235.87 1485.58 L1235.87 1470.07 Q1235.87 1466.32 1234.55 1464.54 Q1233.23 1462.73 1230.48 1462.73 Q1227.21 1462.73 1225.29 1464.95 Q1223.37 1467.15 1223.37 1470.93 L1223.37 1485.58 L1219.09 1485.58 L1219.09 1459.65 L1223.37 1459.65 L1223.37 1463.68 Q1224.83 1461.3 1226.87 1460.16 Q1228.9 1459.03 1231.7 1459.03 Q1234.53 1459.03 1236.5 1460.46 Q1238.49 1461.9 1239.44 1464.63 Z" fill="#000000" fill-rule="nonzero" fill-opacity="1" /><path clip-path="url(#clip960)" d="M1277.21 1472.55 Q1272.05 1472.55 1270.06 1473.73 Q1268.07 1474.91 1268.07 1477.76 Q1268.07 1480.02 1269.55 1481.37 Q1271.06 1482.69 1273.63 1482.69 Q1277.17 1482.69 1279.3 1480.19 Q1281.45 1477.66 1281.45 1473.5 L1281.45 1472.55 L1277.21 1472.55 M1285.71 1470.79 L1285.71 1485.58 L1281.45 1485.58 L1281.45 1481.64 Q1279.99 1484.01 1277.82 1485.14 Q1275.64 1486.25 1272.49 1486.25 Q1268.51 1486.25 1266.15 1484.03 Q1263.81 1481.78 1263.81 1478.03 Q1263.81 1473.66 1266.73 1471.44 Q1269.67 1469.21 1275.48 1469.21 L1281.45 1469.21 L1281.45 1468.8 Q1281.45 1465.86 1279.51 1464.26 Q1277.58 1462.64 1274.09 1462.64 Q1271.87 1462.64 1269.76 1463.17 Q1267.65 1463.7 1265.71 1464.77 L1265.71 1460.83 Q1268.05 1459.93 1270.25 1459.49 Q1272.45 1459.03 1274.53 1459.03 Q1280.15 1459.03 1282.93 1461.95 Q1285.71 1464.86 1285.71 1470.79 Z" fill="#000000" fill-rule="nonzero" fill-opacity="1" /><path clip-path="url(#clip960)" d="M1316.03 1469.93 L1316.03 1485.58 L1311.77 1485.58 L1311.77 1470.07 Q1311.77 1466.39 1310.34 1464.56 Q1308.9 1462.73 1306.03 1462.73 Q1302.58 1462.73 1300.59 1464.93 Q1298.6 1467.13 1298.6 1470.93 L1298.6 1485.58 L1294.32 1485.58 L1294.32 1459.65 L1298.6 1459.65 L1298.6 1463.68 Q1300.13 1461.34 1302.19 1460.19 Q1304.27 1459.03 1306.98 1459.03 Q1311.45 1459.03 1313.74 1461.81 Q1316.03 1464.56 1316.03 1469.93 Z" fill="#000000" fill-rule="nonzero" fill-opacity="1" /><path clip-path="url(#clip960)" d="M1335.32 1487.99 Q1333.51 1492.62 1331.8 1494.03 Q1330.08 1495.44 1327.21 1495.44 L1323.81 1495.44 L1323.81 1491.88 L1326.31 1491.88 Q1328.07 1491.88 1329.04 1491.04 Q1330.01 1490.21 1331.2 1487.11 L1331.96 1485.16 L1321.47 1459.65 L1325.99 1459.65 L1334.09 1479.93 L1342.19 1459.65 L1346.7 1459.65 L1335.32 1487.99 Z" fill="#000000" fill-rule="nonzero" fill-opacity="1" /><path clip-path="url(#clip960)" d="M1372.28 1493.45 L1372.28 1496.76 L1347.65 1496.76 L1347.65 1493.45 L1372.28 1493.45 Z" fill="#000000" fill-rule="nonzero" fill-opacity="1" /><path clip-path="url(#clip960)" d="M1381.15 1454.86 L1381.15 1481.74 L1386.8 1481.74 Q1393.95 1481.74 1397.26 1478.5 Q1400.59 1475.26 1400.59 1468.27 Q1400.59 1461.32 1397.26 1458.1 Q1393.95 1454.86 1386.8 1454.86 L1381.15 1454.86 M1376.47 1451.02 L1386.08 1451.02 Q1396.13 1451.02 1400.82 1455.21 Q1405.52 1459.38 1405.52 1468.27 Q1405.52 1477.2 1400.8 1481.39 Q1396.08 1485.58 1386.08 1485.58 L1376.47 1485.58 L1376.47 1451.02 Z" fill="#000000" fill-rule="nonzero" fill-opacity="1" /><path clip-path="url(#clip960)" d="M1434.97 1471.55 L1434.97 1473.64 L1415.38 1473.64 Q1415.66 1478.03 1418.02 1480.35 Q1420.41 1482.64 1424.64 1482.64 Q1427.1 1482.64 1429.39 1482.04 Q1431.7 1481.44 1433.97 1480.23 L1433.97 1484.26 Q1431.68 1485.23 1429.27 1485.74 Q1426.87 1486.25 1424.39 1486.25 Q1418.19 1486.25 1414.55 1482.64 Q1410.94 1479.03 1410.94 1472.87 Q1410.94 1466.51 1414.37 1462.78 Q1417.82 1459.03 1423.65 1459.03 Q1428.88 1459.03 1431.91 1462.41 Q1434.97 1465.77 1434.97 1471.55 M1430.71 1470.3 Q1430.66 1466.81 1428.74 1464.72 Q1426.84 1462.64 1423.69 1462.64 Q1420.13 1462.64 1417.98 1464.65 Q1415.85 1466.67 1415.52 1470.33 L1430.71 1470.3 Z" fill="#000000" fill-rule="nonzero" fill-opacity="1" /><path clip-path="url(#clip960)" d="M1463.51 1469.93 L1463.51 1485.58 L1459.25 1485.58 L1459.25 1470.07 Q1459.25 1466.39 1457.81 1464.56 Q1456.38 1462.73 1453.51 1462.73 Q1450.06 1462.73 1448.07 1464.93 Q1446.08 1467.13 1446.08 1470.93 L1446.08 1485.58 L1441.8 1485.58 L1441.8 1459.65 L1446.08 1459.65 L1446.08 1463.68 Q1447.61 1461.34 1449.67 1460.19 Q1451.75 1459.03 1454.46 1459.03 Q1458.93 1459.03 1461.22 1461.81 Q1463.51 1464.56 1463.51 1469.93 Z" fill="#000000" fill-rule="nonzero" fill-opacity="1" /><path clip-path="url(#clip960)" d="M1492.19 1464.63 Q1493.79 1461.76 1496.01 1460.39 Q1498.23 1459.03 1501.24 1459.03 Q1505.29 1459.03 1507.49 1461.88 Q1509.69 1464.7 1509.69 1469.93 L1509.69 1485.58 L1505.41 1485.58 L1505.41 1470.07 Q1505.41 1466.34 1504.09 1464.54 Q1502.77 1462.73 1500.06 1462.73 Q1496.75 1462.73 1494.83 1464.93 Q1492.91 1467.13 1492.91 1470.93 L1492.91 1485.58 L1488.62 1485.58 L1488.62 1470.07 Q1488.62 1466.32 1487.31 1464.54 Q1485.99 1462.73 1483.23 1462.73 Q1479.97 1462.73 1478.05 1464.95 Q1476.12 1467.15 1476.12 1470.93 L1476.12 1485.58 L1471.84 1485.58 L1471.84 1459.65 L1476.12 1459.65 L1476.12 1463.68 Q1477.58 1461.3 1479.62 1460.16 Q1481.66 1459.03 1484.46 1459.03 Q1487.28 1459.03 1489.25 1460.46 Q1491.24 1461.9 1492.19 1464.63 Z" fill="#000000" fill-rule="nonzero" fill-opacity="1" /><path clip-path="url(#clip960)" d="M1529.97 1472.55 Q1524.81 1472.55 1522.81 1473.73 Q1520.82 1474.91 1520.82 1477.76 Q1520.82 1480.02 1522.31 1481.37 Q1523.81 1482.69 1526.38 1482.69 Q1529.92 1482.69 1532.05 1480.19 Q1534.2 1477.66 1534.2 1473.5 L1534.2 1472.55 L1529.97 1472.55 M1538.46 1470.79 L1538.46 1485.58 L1534.2 1485.58 L1534.2 1481.64 Q1532.74 1484.01 1530.57 1485.14 Q1528.39 1486.25 1525.24 1486.25 Q1521.26 1486.25 1518.9 1484.03 Q1516.56 1481.78 1516.56 1478.03 Q1516.56 1473.66 1519.48 1471.44 Q1522.42 1469.21 1528.23 1469.21 L1534.2 1469.21 L1534.2 1468.8 Q1534.2 1465.86 1532.26 1464.26 Q1530.34 1462.64 1526.84 1462.64 Q1524.62 1462.64 1522.51 1463.17 Q1520.41 1463.7 1518.46 1464.77 L1518.46 1460.83 Q1520.8 1459.93 1523 1459.49 Q1525.2 1459.03 1527.28 1459.03 Q1532.91 1459.03 1535.68 1461.95 Q1538.46 1464.86 1538.46 1470.79 Z" fill="#000000" fill-rule="nonzero" fill-opacity="1" /><path clip-path="url(#clip960)" d="M1562.26 1463.64 Q1561.54 1463.22 1560.68 1463.03 Q1559.85 1462.83 1558.83 1462.83 Q1555.22 1462.83 1553.28 1465.19 Q1551.36 1467.52 1551.36 1471.92 L1551.36 1485.58 L1547.07 1485.58 L1547.07 1459.65 L1551.36 1459.65 L1551.36 1463.68 Q1552.7 1461.32 1554.85 1460.19 Q1557 1459.03 1560.08 1459.03 Q1560.52 1459.03 1561.05 1459.1 Q1561.59 1459.14 1562.24 1459.26 L1562.26 1463.64 Z" fill="#000000" fill-rule="nonzero" fill-opacity="1" /><path clip-path="url(#clip960)" d="M1566.56 1449.56 L1570.85 1449.56 L1570.85 1470.83 L1583.55 1459.65 L1588.99 1459.65 L1575.24 1471.78 L1589.57 1485.58 L1584.02 1485.58 L1570.85 1472.92 L1570.85 1485.58 L1566.56 1485.58 L1566.56 1449.56 Z" fill="#000000" fill-rule="nonzero" fill-opacity="1" /><path clip-path="url(#clip960)" d="M1800.97 1452.15 L1800.97 1456.71 Q1798.3 1455.44 1795.94 1454.82 Q1793.58 1454.19 1791.38 1454.19 Q1787.56 1454.19 1785.48 1455.67 Q1783.42 1457.15 1783.42 1459.89 Q1783.42 1462.18 1784.78 1463.36 Q1786.17 1464.52 1790.02 1465.23 L1792.84 1465.81 Q1798.07 1466.81 1800.55 1469.33 Q1803.05 1471.83 1803.05 1476.04 Q1803.05 1481.07 1799.67 1483.66 Q1796.31 1486.25 1789.81 1486.25 Q1787.35 1486.25 1784.58 1485.7 Q1781.82 1485.14 1778.86 1484.05 L1778.86 1479.24 Q1781.71 1480.83 1784.44 1481.64 Q1787.17 1482.45 1789.81 1482.45 Q1793.81 1482.45 1795.99 1480.88 Q1798.16 1479.31 1798.16 1476.39 Q1798.16 1473.84 1796.59 1472.41 Q1795.04 1470.97 1791.47 1470.26 L1788.63 1469.7 Q1783.4 1468.66 1781.06 1466.44 Q1778.72 1464.21 1778.72 1460.26 Q1778.72 1455.67 1781.94 1453.03 Q1785.18 1450.39 1790.85 1450.39 Q1793.28 1450.39 1795.8 1450.83 Q1798.33 1451.27 1800.97 1452.15 Z" fill="#000000" fill-rule="nonzero" fill-opacity="1" /><path clip-path="url(#clip960)" d="M1807.68 1459.65 L1811.94 1459.65 L1817.26 1479.89 L1822.56 1459.65 L1827.59 1459.65 L1832.91 1479.89 L1838.21 1459.65 L1842.47 1459.65 L1835.69 1485.58 L1830.66 1485.58 L1825.09 1464.33 L1819.48 1485.58 L1814.46 1485.58 L1807.68 1459.65 Z" fill="#000000" fill-rule="nonzero" fill-opacity="1" /><path clip-path="url(#clip960)" d="M1871.1 1471.55 L1871.1 1473.64 L1851.52 1473.64 Q1851.8 1478.03 1854.16 1480.35 Q1856.54 1482.64 1860.78 1482.64 Q1863.23 1482.64 1865.53 1482.04 Q1867.84 1481.44 1870.11 1480.23 L1870.11 1484.26 Q1867.82 1485.23 1865.41 1485.74 Q1863 1486.25 1860.53 1486.25 Q1854.32 1486.25 1850.69 1482.64 Q1847.08 1479.03 1847.08 1472.87 Q1847.08 1466.51 1850.5 1462.78 Q1853.95 1459.03 1859.78 1459.03 Q1865.02 1459.03 1868.05 1462.41 Q1871.1 1465.77 1871.1 1471.55 M1866.84 1470.3 Q1866.8 1466.81 1864.88 1464.72 Q1862.98 1462.64 1859.83 1462.64 Q1856.27 1462.64 1854.11 1464.65 Q1851.98 1466.67 1851.66 1470.33 L1866.84 1470.3 Z" fill="#000000" fill-rule="nonzero" fill-opacity="1" /><path clip-path="url(#clip960)" d="M1895.15 1463.59 L1895.15 1449.56 L1899.41 1449.56 L1899.41 1485.58 L1895.15 1485.58 L1895.15 1481.69 Q1893.81 1484.01 1891.75 1485.14 Q1889.71 1486.25 1886.84 1486.25 Q1882.15 1486.25 1879.18 1482.5 Q1876.24 1478.75 1876.24 1472.64 Q1876.24 1466.53 1879.18 1462.78 Q1882.15 1459.03 1886.84 1459.03 Q1889.71 1459.03 1891.75 1460.16 Q1893.81 1461.27 1895.15 1463.59 M1880.64 1472.64 Q1880.64 1477.34 1882.56 1480.02 Q1884.51 1482.69 1887.89 1482.69 Q1891.27 1482.69 1893.21 1480.02 Q1895.15 1477.34 1895.15 1472.64 Q1895.15 1467.94 1893.21 1465.28 Q1891.27 1462.59 1887.89 1462.59 Q1884.51 1462.59 1882.56 1465.28 Q1880.64 1467.94 1880.64 1472.64 Z" fill="#000000" fill-rule="nonzero" fill-opacity="1" /><path clip-path="url(#clip960)" d="M1930.36 1471.55 L1930.36 1473.64 L1910.78 1473.64 Q1911.06 1478.03 1913.42 1480.35 Q1915.8 1482.64 1920.04 1482.64 Q1922.49 1482.64 1924.78 1482.04 Q1927.1 1481.44 1929.37 1480.23 L1929.37 1484.26 Q1927.08 1485.23 1924.67 1485.74 Q1922.26 1486.25 1919.78 1486.25 Q1913.58 1486.25 1909.95 1482.64 Q1906.34 1479.03 1906.34 1472.87 Q1906.34 1466.51 1909.76 1462.78 Q1913.21 1459.03 1919.04 1459.03 Q1924.27 1459.03 1927.31 1462.41 Q1930.36 1465.77 1930.36 1471.55 M1926.1 1470.3 Q1926.06 1466.81 1924.14 1464.72 Q1922.24 1462.64 1919.09 1462.64 Q1915.52 1462.64 1913.37 1464.65 Q1911.24 1466.67 1910.92 1470.33 L1926.1 1470.3 Z" fill="#000000" fill-rule="nonzero" fill-opacity="1" /><path clip-path="url(#clip960)" d="M1958.9 1469.93 L1958.9 1485.58 L1954.65 1485.58 L1954.65 1470.07 Q1954.65 1466.39 1953.21 1464.56 Q1951.77 1462.73 1948.9 1462.73 Q1945.46 1462.73 1943.46 1464.93 Q1941.47 1467.13 1941.47 1470.93 L1941.47 1485.58 L1937.19 1485.58 L1937.19 1459.65 L1941.47 1459.65 L1941.47 1463.68 Q1943 1461.34 1945.06 1460.19 Q1947.15 1459.03 1949.85 1459.03 Q1954.32 1459.03 1956.61 1461.81 Q1958.9 1464.56 1958.9 1469.93 Z" fill="#000000" fill-rule="nonzero" fill-opacity="1" /><path clip-path="url(#clip960)" d="M1987.1 1493.45 L1987.1 1496.76 L1962.47 1496.76 L1962.47 1493.45 L1987.1 1493.45 Z" fill="#000000" fill-rule="nonzero" fill-opacity="1" /><path clip-path="url(#clip960)" d="M1995.96 1454.86 L1995.96 1481.74 L2001.61 1481.74 Q2008.77 1481.74 2012.08 1478.5 Q2015.41 1475.26 2015.41 1468.27 Q2015.41 1461.32 2012.08 1458.1 Q2008.77 1454.86 2001.61 1454.86 L1995.96 1454.86 M1991.29 1451.02 L2000.89 1451.02 Q2010.94 1451.02 2015.64 1455.21 Q2020.34 1459.38 2020.34 1468.27 Q2020.34 1477.2 2015.62 1481.39 Q2010.89 1485.58 2000.89 1485.58 L1991.29 1485.58 L1991.29 1451.02 Z" fill="#000000" fill-rule="nonzero" fill-opacity="1" /><path clip-path="url(#clip960)" d="M2049.78 1471.55 L2049.78 1473.64 L2030.2 1473.64 Q2030.48 1478.03 2032.84 1480.35 Q2035.22 1482.64 2039.46 1482.64 Q2041.91 1482.64 2044.2 1482.04 Q2046.52 1481.44 2048.79 1480.23 L2048.79 1484.26 Q2046.5 1485.23 2044.09 1485.74 Q2041.68 1486.25 2039.2 1486.25 Q2033 1486.25 2029.37 1482.64 Q2025.76 1479.03 2025.76 1472.87 Q2025.76 1466.51 2029.18 1462.78 Q2032.63 1459.03 2038.46 1459.03 Q2043.7 1459.03 2046.73 1462.41 Q2049.78 1465.77 2049.78 1471.55 M2045.52 1470.3 Q2045.48 1466.81 2043.56 1464.72 Q2041.66 1462.64 2038.51 1462.64 Q2034.95 1462.64 2032.79 1464.65 Q2030.66 1466.67 2030.34 1470.33 L2045.52 1470.3 Z" fill="#000000" fill-rule="nonzero" fill-opacity="1" /><path clip-path="url(#clip960)" d="M2078.32 1469.93 L2078.32 1485.58 L2074.07 1485.58 L2074.07 1470.07 Q2074.07 1466.39 2072.63 1464.56 Q2071.2 1462.73 2068.32 1462.73 Q2064.88 1462.73 2062.89 1464.93 Q2060.89 1467.13 2060.89 1470.93 L2060.89 1485.58 L2056.61 1485.58 L2056.61 1459.65 L2060.89 1459.65 L2060.89 1463.68 Q2062.42 1461.34 2064.48 1460.19 Q2066.57 1459.03 2069.27 1459.03 Q2073.74 1459.03 2076.03 1461.81 Q2078.32 1464.56 2078.32 1469.93 Z" fill="#000000" fill-rule="nonzero" fill-opacity="1" /><path clip-path="url(#clip960)" d="M2107.01 1464.63 Q2108.6 1461.76 2110.82 1460.39 Q2113.05 1459.03 2116.06 1459.03 Q2120.11 1459.03 2122.31 1461.88 Q2124.51 1464.7 2124.51 1469.93 L2124.51 1485.58 L2120.22 1485.58 L2120.22 1470.07 Q2120.22 1466.34 2118.9 1464.54 Q2117.58 1462.73 2114.88 1462.73 Q2111.57 1462.73 2109.64 1464.93 Q2107.72 1467.13 2107.72 1470.93 L2107.72 1485.58 L2103.44 1485.58 L2103.44 1470.07 Q2103.44 1466.32 2102.12 1464.54 Q2100.8 1462.73 2098.05 1462.73 Q2094.78 1462.73 2092.86 1464.95 Q2090.94 1467.15 2090.94 1470.93 L2090.94 1485.58 L2086.66 1485.58 L2086.66 1459.65 L2090.94 1459.65 L2090.94 1463.68 Q2092.4 1461.3 2094.44 1460.16 Q2096.47 1459.03 2099.27 1459.03 Q2102.1 1459.03 2104.07 1460.46 Q2106.06 1461.9 2107.01 1464.63 Z" fill="#000000" fill-rule="nonzero" fill-opacity="1" /><path clip-path="url(#clip960)" d="M2144.78 1472.55 Q2139.62 1472.55 2137.63 1473.73 Q2135.64 1474.91 2135.64 1477.76 Q2135.64 1480.02 2137.12 1481.37 Q2138.63 1482.69 2141.19 1482.69 Q2144.74 1482.69 2146.87 1480.19 Q2149.02 1477.66 2149.02 1473.5 L2149.02 1472.55 L2144.78 1472.55 M2153.28 1470.79 L2153.28 1485.58 L2149.02 1485.58 L2149.02 1481.64 Q2147.56 1484.01 2145.38 1485.14 Q2143.21 1486.25 2140.06 1486.25 Q2136.08 1486.25 2133.72 1484.03 Q2131.38 1481.78 2131.38 1478.03 Q2131.38 1473.66 2134.3 1471.44 Q2137.24 1469.21 2143.05 1469.21 L2149.02 1469.21 L2149.02 1468.8 Q2149.02 1465.86 2147.07 1464.26 Q2145.15 1462.64 2141.66 1462.64 Q2139.44 1462.64 2137.33 1463.17 Q2135.22 1463.7 2133.28 1464.77 L2133.28 1460.83 Q2135.62 1459.93 2137.82 1459.49 Q2140.01 1459.03 2142.1 1459.03 Q2147.72 1459.03 2150.5 1461.95 Q2153.28 1464.86 2153.28 1470.79 Z" fill="#000000" fill-rule="nonzero" fill-opacity="1" /><path clip-path="url(#clip960)" d="M2177.07 1463.64 Q2176.36 1463.22 2175.5 1463.03 Q2174.67 1462.83 2173.65 1462.83 Q2170.04 1462.83 2168.09 1465.19 Q2166.17 1467.52 2166.17 1471.92 L2166.17 1485.58 L2161.89 1485.58 L2161.89 1459.65 L2166.17 1459.65 L2166.17 1463.68 Q2167.51 1461.32 2169.67 1460.19 Q2171.82 1459.03 2174.9 1459.03 Q2175.34 1459.03 2175.87 1459.1 Q2176.4 1459.14 2177.05 1459.26 L2177.07 1463.64 Z" fill="#000000" fill-rule="nonzero" fill-opacity="1" /><path clip-path="url(#clip960)" d="M2181.38 1449.56 L2185.66 1449.56 L2185.66 1470.83 L2198.37 1459.65 L2203.81 1459.65 L2190.06 1471.78 L2204.39 1485.58 L2198.83 1485.58 L2185.66 1472.92 L2185.66 1485.58 L2181.38 1485.58 L2181.38 1449.56 Z" fill="#000000" fill-rule="nonzero" fill-opacity="1" /><path clip-path="url(#clip960)" d="M1241.38 1533.76 L1241.38 1539.24 Q1238.9 1537.87 1236.38 1537.2 Q1233.9 1536.5 1231.35 1536.5 Q1225.66 1536.5 1222.51 1540.13 Q1219.35 1543.73 1219.35 1550.25 Q1219.35 1556.78 1222.51 1560.4 Q1225.66 1564 1231.35 1564 Q1233.9 1564 1236.38 1563.33 Q1238.9 1562.63 1241.38 1561.26 L1241.38 1566.68 Q1238.93 1567.82 1236.29 1568.39 Q1233.68 1568.97 1230.72 1568.97 Q1222.66 1568.97 1217.92 1563.91 Q1213.18 1558.85 1213.18 1550.25 Q1213.18 1541.53 1217.95 1536.53 Q1222.76 1531.54 1231.1 1531.54 Q1233.8 1531.54 1236.38 1532.11 Q1238.96 1532.65 1241.38 1533.76 Z" fill="#000000" fill-rule="nonzero" fill-opacity="1" /><path clip-path="url(#clip960)" d="M1265.38 1536.5 Q1260.67 1536.5 1257.93 1540.19 Q1255.19 1543.85 1255.19 1550.25 Q1255.19 1556.65 1257.9 1560.34 Q1260.64 1564 1265.38 1564 Q1270.06 1564 1272.79 1560.31 Q1275.53 1556.62 1275.53 1550.25 Q1275.53 1543.92 1272.79 1540.23 Q1270.06 1536.5 1265.38 1536.5 M1265.38 1531.54 Q1273.02 1531.54 1277.38 1536.5 Q1281.74 1541.47 1281.74 1550.25 Q1281.74 1559 1277.38 1564 Q1273.02 1568.97 1265.38 1568.97 Q1257.71 1568.97 1253.35 1564 Q1249.02 1559 1249.02 1550.25 Q1249.02 1541.47 1253.35 1536.5 Q1257.71 1531.54 1265.38 1531.54 Z" fill="#000000" fill-rule="nonzero" fill-opacity="1" /><path clip-path="url(#clip960)" d="M1290.84 1553.98 L1290.84 1532.4 L1296.7 1532.4 L1296.7 1553.75 Q1296.7 1558.81 1298.67 1561.36 Q1300.64 1563.87 1304.59 1563.87 Q1309.33 1563.87 1312.07 1560.85 Q1314.84 1557.83 1314.84 1552.61 L1314.84 1532.4 L1320.7 1532.4 L1320.7 1568.04 L1314.84 1568.04 L1314.84 1562.57 Q1312.71 1565.82 1309.87 1567.41 Q1307.07 1568.97 1303.35 1568.97 Q1297.21 1568.97 1294.02 1565.15 Q1290.84 1561.33 1290.84 1553.98 M1305.58 1531.54 L1305.58 1531.54 Z" fill="#000000" fill-rule="nonzero" fill-opacity="1" /><path clip-path="url(#clip960)" d="M1362.39 1546.53 L1362.39 1568.04 L1356.53 1568.04 L1356.53 1546.72 Q1356.53 1541.66 1354.56 1539.14 Q1352.59 1536.63 1348.64 1536.63 Q1343.9 1536.63 1341.16 1539.65 Q1338.42 1542.68 1338.42 1547.9 L1338.42 1568.04 L1332.54 1568.04 L1332.54 1532.4 L1338.42 1532.4 L1338.42 1537.93 Q1340.53 1534.72 1343.36 1533.13 Q1346.22 1531.54 1349.95 1531.54 Q1356.09 1531.54 1359.24 1535.36 Q1362.39 1539.14 1362.39 1546.53 Z" fill="#000000" fill-rule="nonzero" fill-opacity="1" /><path clip-path="url(#clip960)" d="M1379.87 1522.27 L1379.87 1532.4 L1391.93 1532.4 L1391.93 1536.95 L1379.87 1536.95 L1379.87 1556.3 Q1379.87 1560.66 1381.04 1561.9 Q1382.25 1563.14 1385.91 1563.14 L1391.93 1563.14 L1391.93 1568.04 L1385.91 1568.04 Q1379.13 1568.04 1376.56 1565.53 Q1373.98 1562.98 1373.98 1556.3 L1373.98 1536.95 L1369.68 1536.95 L1369.68 1532.4 L1373.98 1532.4 L1373.98 1522.27 L1379.87 1522.27 Z" fill="#000000" fill-rule="nonzero" fill-opacity="1" /><path clip-path="url(#clip960)" d="M1420.29 1537.87 Q1419.3 1537.3 1418.12 1537.04 Q1416.98 1536.76 1415.58 1536.76 Q1410.61 1536.76 1407.94 1540 Q1405.3 1543.22 1405.3 1549.27 L1405.3 1568.04 L1399.41 1568.04 L1399.41 1532.4 L1405.3 1532.4 L1405.3 1537.93 Q1407.14 1534.69 1410.1 1533.13 Q1413.06 1531.54 1417.3 1531.54 Q1417.9 1531.54 1418.63 1531.63 Q1419.36 1531.7 1420.26 1531.85 L1420.29 1537.87 Z" fill="#000000" fill-rule="nonzero" fill-opacity="1" /><path clip-path="url(#clip960)" d="M1426.43 1532.4 L1432.29 1532.4 L1432.29 1568.04 L1426.43 1568.04 L1426.43 1532.4 M1426.43 1518.52 L1432.29 1518.52 L1432.29 1525.93 L1426.43 1525.93 L1426.43 1518.52 Z" fill="#000000" fill-rule="nonzero" fill-opacity="1" /><path clip-path="url(#clip960)" d="M1475.03 1548.76 L1475.03 1551.62 L1448.11 1551.62 Q1448.49 1557.67 1451.73 1560.85 Q1455.01 1564 1460.84 1564 Q1464.21 1564 1467.36 1563.17 Q1470.54 1562.35 1473.66 1560.69 L1473.66 1566.23 Q1470.51 1567.57 1467.2 1568.27 Q1463.89 1568.97 1460.49 1568.97 Q1451.96 1568.97 1446.96 1564 Q1441.99 1559.04 1441.99 1550.57 Q1441.99 1541.82 1446.71 1536.69 Q1451.45 1531.54 1459.47 1531.54 Q1466.66 1531.54 1470.83 1536.18 Q1475.03 1540.8 1475.03 1548.76 M1469.18 1547.04 Q1469.11 1542.23 1466.47 1539.37 Q1463.86 1536.5 1459.53 1536.5 Q1454.63 1536.5 1451.67 1539.27 Q1448.74 1542.04 1448.3 1547.07 L1469.18 1547.04 Z" fill="#000000" fill-rule="nonzero" fill-opacity="1" /><path clip-path="url(#clip960)" d="M1507.37 1533.45 L1507.37 1538.98 Q1504.89 1537.71 1502.21 1537.07 Q1499.54 1536.44 1496.68 1536.44 Q1492.32 1536.44 1490.12 1537.77 Q1487.95 1539.11 1487.95 1541.79 Q1487.95 1543.82 1489.51 1545 Q1491.07 1546.15 1495.78 1547.2 L1497.79 1547.64 Q1504.03 1548.98 1506.64 1551.43 Q1509.28 1553.85 1509.28 1558.21 Q1509.28 1563.17 1505.33 1566.07 Q1501.42 1568.97 1494.54 1568.97 Q1491.68 1568.97 1488.56 1568.39 Q1485.47 1567.85 1482.03 1566.74 L1482.03 1560.69 Q1485.28 1562.38 1488.43 1563.24 Q1491.58 1564.07 1494.67 1564.07 Q1498.81 1564.07 1501.04 1562.66 Q1503.26 1561.23 1503.26 1558.65 Q1503.26 1556.27 1501.64 1554.99 Q1500.05 1553.72 1494.61 1552.54 L1492.57 1552.07 Q1487.13 1550.92 1484.71 1548.56 Q1482.29 1546.18 1482.29 1542.04 Q1482.29 1537.01 1485.85 1534.27 Q1489.42 1531.54 1495.98 1531.54 Q1499.22 1531.54 1502.09 1532.01 Q1504.95 1532.49 1507.37 1533.45 Z" fill="#000000" fill-rule="nonzero" fill-opacity="1" /><polyline clip-path="url(#clip962)" style="stroke:#000000; stroke-linecap:round; stroke-linejoin:round; stroke-width:2; stroke-opacity:0.1; fill:none" points="369.703,1388.11 2352.76,1388.11 "/>
<polyline clip-path="url(#clip962)" style="stroke:#000000; stroke-linecap:round; stroke-linejoin:round; stroke-width:2; stroke-opacity:0.1; fill:none" points="369.703,1109.03 2352.76,1109.03 "/>
<polyline clip-path="url(#clip962)" style="stroke:#000000; stroke-linecap:round; stroke-linejoin:round; stroke-width:2; stroke-opacity:0.1; fill:none" points="369.703,829.954 2352.76,829.954 "/>
<polyline clip-path="url(#clip962)" style="stroke:#000000; stroke-linecap:round; stroke-linejoin:round; stroke-width:2; stroke-opacity:0.1; fill:none" points="369.703,550.877 2352.76,550.877 "/>
<polyline clip-path="url(#clip962)" style="stroke:#000000; stroke-linecap:round; stroke-linejoin:round; stroke-width:2; stroke-opacity:0.1; fill:none" points="369.703,271.801 2352.76,271.801 "/>
<polyline clip-path="url(#clip960)" style="stroke:#000000; stroke-linecap:round; stroke-linejoin:round; stroke-width:4; stroke-opacity:1; fill:none" points="369.703,1423.18 369.703,183.952 "/>
<polyline clip-path="url(#clip960)" style="stroke:#000000; stroke-linecap:round; stroke-linejoin:round; stroke-width:4; stroke-opacity:1; fill:none" points="369.703,1388.11 388.601,1388.11 "/>
<polyline clip-path="url(#clip960)" style="stroke:#000000; stroke-linecap:round; stroke-linejoin:round; stroke-width:4; stroke-opacity:1; fill:none" points="369.703,1109.03 388.601,1109.03 "/>
<polyline clip-path="url(#clip960)" style="stroke:#000000; stroke-linecap:round; stroke-linejoin:round; stroke-width:4; stroke-opacity:1; fill:none" points="369.703,829.954 388.601,829.954 "/>
<polyline clip-path="url(#clip960)" style="stroke:#000000; stroke-linecap:round; stroke-linejoin:round; stroke-width:4; stroke-opacity:1; fill:none" points="369.703,550.877 388.601,550.877 "/>
<polyline clip-path="url(#clip960)" style="stroke:#000000; stroke-linecap:round; stroke-linejoin:round; stroke-width:4; stroke-opacity:1; fill:none" points="369.703,271.801 388.601,271.801 "/>
<path clip-path="url(#clip960)" d="M321.759 1373.91 Q318.148 1373.91 316.319 1377.47 Q314.514 1381.01 314.514 1388.14 Q314.514 1395.25 316.319 1398.81 Q318.148 1402.35 321.759 1402.35 Q325.393 1402.35 327.199 1398.81 Q329.028 1395.25 329.028 1388.14 Q329.028 1381.01 327.199 1377.47 Q325.393 1373.91 321.759 1373.91 M321.759 1370.2 Q327.569 1370.2 330.625 1374.81 Q333.703 1379.39 333.703 1388.14 Q333.703 1396.87 330.625 1401.48 Q327.569 1406.06 321.759 1406.06 Q315.949 1406.06 312.87 1401.48 Q309.815 1396.87 309.815 1388.14 Q309.815 1379.39 312.87 1374.81 Q315.949 1370.2 321.759 1370.2 Z" fill="#000000" fill-rule="nonzero" fill-opacity="1" /><path clip-path="url(#clip960)" d="M117.878 1098.2 L136.235 1098.2 L136.235 1102.13 L122.161 1102.13 L122.161 1110.61 Q123.179 1110.26 124.198 1110.1 Q125.216 1109.91 126.235 1109.91 Q132.022 1109.91 135.402 1113.08 Q138.781 1116.25 138.781 1121.67 Q138.781 1127.25 135.309 1130.35 Q131.837 1133.43 125.517 1133.43 Q123.341 1133.43 121.073 1133.06 Q118.828 1132.69 116.42 1131.95 L116.42 1127.25 Q118.503 1128.38 120.726 1128.94 Q122.948 1129.49 125.425 1129.49 Q129.429 1129.49 131.767 1127.39 Q134.105 1125.28 134.105 1121.67 Q134.105 1118.06 131.767 1115.95 Q129.429 1113.85 125.425 1113.85 Q123.55 1113.85 121.675 1114.26 Q119.823 1114.68 117.878 1115.56 L117.878 1098.2 Z" fill="#000000" fill-rule="nonzero" fill-opacity="1" /><path clip-path="url(#clip960)" d="M147.994 1126.88 L152.878 1126.88 L152.878 1132.76 L147.994 1132.76 L147.994 1126.88 Z" fill="#000000" fill-rule="nonzero" fill-opacity="1" /><path clip-path="url(#clip960)" d="M173.063 1101.28 Q169.452 1101.28 167.624 1104.84 Q165.818 1108.38 165.818 1115.51 Q165.818 1122.62 167.624 1126.18 Q169.452 1129.73 173.063 1129.73 Q176.698 1129.73 178.503 1126.18 Q180.332 1122.62 180.332 1115.51 Q180.332 1108.38 178.503 1104.84 Q176.698 1101.28 173.063 1101.28 M173.063 1097.57 Q178.874 1097.57 181.929 1102.18 Q185.008 1106.76 185.008 1115.51 Q185.008 1124.24 181.929 1128.85 Q178.874 1133.43 173.063 1133.43 Q167.253 1133.43 164.175 1128.85 Q161.119 1124.24 161.119 1115.51 Q161.119 1106.76 164.175 1102.18 Q167.253 1097.57 173.063 1097.57 Z" fill="#000000" fill-rule="nonzero" fill-opacity="1" /><path clip-path="url(#clip960)" d="M203.225 1101.28 Q199.614 1101.28 197.785 1104.84 Q195.98 1108.38 195.98 1115.51 Q195.98 1122.62 197.785 1126.18 Q199.614 1129.73 203.225 1129.73 Q206.859 1129.73 208.665 1126.18 Q210.494 1122.62 210.494 1115.51 Q210.494 1108.38 208.665 1104.84 Q206.859 1101.28 203.225 1101.28 M203.225 1097.57 Q209.035 1097.57 212.091 1102.18 Q215.17 1106.76 215.17 1115.51 Q215.17 1124.24 212.091 1128.85 Q209.035 1133.43 203.225 1133.43 Q197.415 1133.43 194.336 1128.85 Q191.281 1124.24 191.281 1115.51 Q191.281 1106.76 194.336 1102.18 Q197.415 1097.57 203.225 1097.57 Z" fill="#000000" fill-rule="nonzero" fill-opacity="1" /><path clip-path="url(#clip960)" d="M251.558 1107.3 L240.98 1117.92 L251.558 1128.5 L248.804 1131.3 L238.179 1120.68 L227.554 1131.3 L224.822 1128.5 L235.378 1117.92 L224.822 1107.3 L227.554 1104.49 L238.179 1115.12 L248.804 1104.49 L251.558 1107.3 Z" fill="#000000" fill-rule="nonzero" fill-opacity="1" /><path clip-path="url(#clip960)" d="M263.919 1128.82 L271.558 1128.82 L271.558 1102.46 L263.248 1104.12 L263.248 1099.86 L271.512 1098.2 L276.188 1098.2 L276.188 1128.82 L283.827 1128.82 L283.827 1132.76 L263.919 1132.76 L263.919 1128.82 Z" fill="#000000" fill-rule="nonzero" fill-opacity="1" /><path clip-path="url(#clip960)" d="M303.271 1101.28 Q299.66 1101.28 297.831 1104.84 Q296.026 1108.38 296.026 1115.51 Q296.026 1122.62 297.831 1126.18 Q299.66 1129.73 303.271 1129.73 Q306.905 1129.73 308.711 1126.18 Q310.539 1122.62 310.539 1115.51 Q310.539 1108.38 308.711 1104.84 Q306.905 1101.28 303.271 1101.28 M303.271 1097.57 Q309.081 1097.57 312.137 1102.18 Q315.215 1106.76 315.215 1115.51 Q315.215 1124.24 312.137 1128.85 Q309.081 1133.43 303.271 1133.43 Q297.461 1133.43 294.382 1128.85 Q291.327 1124.24 291.327 1115.51 Q291.327 1106.76 294.382 1102.18 Q297.461 1097.57 303.271 1097.57 Z" fill="#000000" fill-rule="nonzero" fill-opacity="1" /><path clip-path="url(#clip960)" d="M327.911 1090.21 Q330.638 1090.79 332.161 1092.63 Q333.703 1094.48 333.703 1097.19 Q333.703 1101.34 330.845 1103.62 Q327.986 1105.89 322.72 1105.89 Q320.952 1105.89 319.071 1105.54 Q317.209 1105.2 315.215 1104.5 L315.215 1100.83 Q316.795 1101.76 318.676 1102.23 Q320.557 1102.7 322.607 1102.7 Q326.18 1102.7 328.042 1101.29 Q329.923 1099.87 329.923 1097.19 Q329.923 1094.7 328.174 1093.31 Q326.444 1091.9 323.34 1091.9 L320.068 1091.9 L320.068 1088.78 L323.491 1088.78 Q326.293 1088.78 327.779 1087.67 Q329.265 1086.54 329.265 1084.43 Q329.265 1082.27 327.723 1081.12 Q326.199 1079.96 323.34 1079.96 Q321.779 1079.96 319.993 1080.3 Q318.206 1080.63 316.062 1081.35 L316.062 1077.96 Q318.225 1077.36 320.105 1077.06 Q322.005 1076.76 323.679 1076.76 Q328.005 1076.76 330.525 1078.73 Q333.045 1080.69 333.045 1084.04 Q333.045 1086.37 331.71 1087.99 Q330.374 1089.59 327.911 1090.21 Z" fill="#000000" fill-rule="nonzero" fill-opacity="1" /><path clip-path="url(#clip960)" d="M116.668 849.747 L124.306 849.747 L124.306 823.381 L115.996 825.048 L115.996 820.788 L124.26 819.122 L128.936 819.122 L128.936 849.747 L136.575 849.747 L136.575 853.682 L116.668 853.682 L116.668 849.747 Z" fill="#000000" fill-rule="nonzero" fill-opacity="1" /><path clip-path="url(#clip960)" d="M146.019 847.802 L150.903 847.802 L150.903 853.682 L146.019 853.682 L146.019 847.802 Z" fill="#000000" fill-rule="nonzero" fill-opacity="1" /><path clip-path="url(#clip960)" d="M171.089 822.2 Q167.477 822.2 165.649 825.765 Q163.843 829.307 163.843 836.436 Q163.843 843.543 165.649 847.108 Q167.477 850.649 171.089 850.649 Q174.723 850.649 176.528 847.108 Q178.357 843.543 178.357 836.436 Q178.357 829.307 176.528 825.765 Q174.723 822.2 171.089 822.2 M171.089 818.497 Q176.899 818.497 179.954 823.103 Q183.033 827.686 183.033 836.436 Q183.033 845.163 179.954 849.77 Q176.899 854.353 171.089 854.353 Q165.278 854.353 162.2 849.77 Q159.144 845.163 159.144 836.436 Q159.144 827.686 162.2 823.103 Q165.278 818.497 171.089 818.497 Z" fill="#000000" fill-rule="nonzero" fill-opacity="1" /><path clip-path="url(#clip960)" d="M201.25 822.2 Q197.639 822.2 195.811 825.765 Q194.005 829.307 194.005 836.436 Q194.005 843.543 195.811 847.108 Q197.639 850.649 201.25 850.649 Q204.885 850.649 206.69 847.108 Q208.519 843.543 208.519 836.436 Q208.519 829.307 206.69 825.765 Q204.885 822.2 201.25 822.2 M201.25 818.497 Q207.061 818.497 210.116 823.103 Q213.195 827.686 213.195 836.436 Q213.195 845.163 210.116 849.77 Q207.061 854.353 201.25 854.353 Q195.44 854.353 192.362 849.77 Q189.306 845.163 189.306 836.436 Q189.306 827.686 192.362 823.103 Q195.44 818.497 201.25 818.497 Z" fill="#000000" fill-rule="nonzero" fill-opacity="1" /><path clip-path="url(#clip960)" d="M249.584 828.219 L239.005 838.844 L249.584 849.422 L246.829 852.223 L236.204 841.598 L225.579 852.223 L222.848 849.422 L233.403 838.844 L222.848 828.219 L225.579 825.418 L236.204 836.043 L246.829 825.418 L249.584 828.219 Z" fill="#000000" fill-rule="nonzero" fill-opacity="1" /><path clip-path="url(#clip960)" d="M261.945 849.747 L269.583 849.747 L269.583 823.381 L261.273 825.048 L261.273 820.788 L269.537 819.122 L274.213 819.122 L274.213 849.747 L281.852 849.747 L281.852 853.682 L261.945 853.682 L261.945 849.747 Z" fill="#000000" fill-rule="nonzero" fill-opacity="1" /><path clip-path="url(#clip960)" d="M301.296 822.2 Q297.685 822.2 295.856 825.765 Q294.051 829.307 294.051 836.436 Q294.051 843.543 295.856 847.108 Q297.685 850.649 301.296 850.649 Q304.93 850.649 306.736 847.108 Q308.565 843.543 308.565 836.436 Q308.565 829.307 306.736 825.765 Q304.93 822.2 301.296 822.2 M301.296 818.497 Q307.106 818.497 310.162 823.103 Q313.241 827.686 313.241 836.436 Q313.241 845.163 310.162 849.77 Q307.106 854.353 301.296 854.353 Q295.486 854.353 292.407 849.77 Q289.352 845.163 289.352 836.436 Q289.352 827.686 292.407 823.103 Q295.486 818.497 301.296 818.497 Z" fill="#000000" fill-rule="nonzero" fill-opacity="1" /><path clip-path="url(#clip960)" d="M325.917 801.501 L316.325 816.491 L325.917 816.491 L325.917 801.501 M324.92 798.191 L329.697 798.191 L329.697 816.491 L333.703 816.491 L333.703 819.651 L329.697 819.651 L329.697 826.271 L325.917 826.271 L325.917 819.651 L313.241 819.651 L313.241 815.983 L324.92 798.191 Z" fill="#000000" fill-rule="nonzero" fill-opacity="1" /><path clip-path="url(#clip960)" d="M116.668 570.67 L124.306 570.67 L124.306 544.304 L115.996 545.971 L115.996 541.712 L124.26 540.045 L128.936 540.045 L128.936 570.67 L136.575 570.67 L136.575 574.605 L116.668 574.605 L116.668 570.67 Z" fill="#000000" fill-rule="nonzero" fill-opacity="1" /><path clip-path="url(#clip960)" d="M146.019 568.725 L150.903 568.725 L150.903 574.605 L146.019 574.605 L146.019 568.725 Z" fill="#000000" fill-rule="nonzero" fill-opacity="1" /><path clip-path="url(#clip960)" d="M161.135 540.045 L179.491 540.045 L179.491 543.98 L165.417 543.98 L165.417 552.452 Q166.436 552.105 167.454 551.943 Q168.473 551.758 169.491 551.758 Q175.278 551.758 178.658 554.929 Q182.038 558.1 182.038 563.517 Q182.038 569.096 178.565 572.198 Q175.093 575.276 168.774 575.276 Q166.598 575.276 164.329 574.906 Q162.084 574.536 159.677 573.795 L159.677 569.096 Q161.76 570.23 163.982 570.786 Q166.204 571.341 168.681 571.341 Q172.686 571.341 175.024 569.235 Q177.362 567.128 177.362 563.517 Q177.362 559.906 175.024 557.8 Q172.686 555.693 168.681 555.693 Q166.806 555.693 164.931 556.11 Q163.079 556.526 161.135 557.406 L161.135 540.045 Z" fill="#000000" fill-rule="nonzero" fill-opacity="1" /><path clip-path="url(#clip960)" d="M201.25 543.124 Q197.639 543.124 195.811 546.689 Q194.005 550.23 194.005 557.36 Q194.005 564.466 195.811 568.031 Q197.639 571.573 201.25 571.573 Q204.885 571.573 206.69 568.031 Q208.519 564.466 208.519 557.36 Q208.519 550.23 206.69 546.689 Q204.885 543.124 201.25 543.124 M201.25 539.42 Q207.061 539.42 210.116 544.026 Q213.195 548.61 213.195 557.36 Q213.195 566.087 210.116 570.693 Q207.061 575.276 201.25 575.276 Q195.44 575.276 192.362 570.693 Q189.306 566.087 189.306 557.36 Q189.306 548.61 192.362 544.026 Q195.44 539.42 201.25 539.42 Z" fill="#000000" fill-rule="nonzero" fill-opacity="1" /><path clip-path="url(#clip960)" d="M249.584 549.142 L239.005 559.767 L249.584 570.346 L246.829 573.147 L236.204 562.522 L225.579 573.147 L222.848 570.346 L233.403 559.767 L222.848 549.142 L225.579 546.341 L236.204 556.966 L246.829 546.341 L249.584 549.142 Z" fill="#000000" fill-rule="nonzero" fill-opacity="1" /><path clip-path="url(#clip960)" d="M261.945 570.67 L269.583 570.67 L269.583 544.304 L261.273 545.971 L261.273 541.712 L269.537 540.045 L274.213 540.045 L274.213 570.67 L281.852 570.67 L281.852 574.605 L261.945 574.605 L261.945 570.67 Z" fill="#000000" fill-rule="nonzero" fill-opacity="1" /><path clip-path="url(#clip960)" d="M301.296 543.124 Q297.685 543.124 295.856 546.689 Q294.051 550.23 294.051 557.36 Q294.051 564.466 295.856 568.031 Q297.685 571.573 301.296 571.573 Q304.93 571.573 306.736 568.031 Q308.565 564.466 308.565 557.36 Q308.565 550.23 306.736 546.689 Q304.93 543.124 301.296 543.124 M301.296 539.42 Q307.106 539.42 310.162 544.026 Q313.241 548.61 313.241 557.36 Q313.241 566.087 310.162 570.693 Q307.106 575.276 301.296 575.276 Q295.486 575.276 292.407 570.693 Q289.352 566.087 289.352 557.36 Q289.352 548.61 292.407 544.026 Q295.486 539.42 301.296 539.42 Z" fill="#000000" fill-rule="nonzero" fill-opacity="1" /><path clip-path="url(#clip960)" d="M325.917 522.425 L316.325 537.415 L325.917 537.415 L325.917 522.425 M324.92 519.115 L329.697 519.115 L329.697 537.415 L333.703 537.415 L333.703 540.574 L329.697 540.574 L329.697 547.195 L325.917 547.195 L325.917 540.574 L313.241 540.574 L313.241 536.907 L324.92 519.115 Z" fill="#000000" fill-rule="nonzero" fill-opacity="1" /><path clip-path="url(#clip960)" d="M119.885 291.593 L136.204 291.593 L136.204 295.528 L114.26 295.528 L114.26 291.593 Q116.922 288.839 121.505 284.209 Q126.112 279.556 127.292 278.214 Q129.538 275.691 130.417 273.954 Q131.32 272.195 131.32 270.505 Q131.32 267.751 129.376 266.015 Q127.455 264.279 124.353 264.279 Q122.154 264.279 119.7 265.042 Q117.269 265.806 114.492 267.357 L114.492 262.635 Q117.316 261.501 119.769 260.922 Q122.223 260.343 124.26 260.343 Q129.63 260.343 132.825 263.029 Q136.019 265.714 136.019 270.204 Q136.019 272.334 135.209 274.255 Q134.422 276.153 132.316 278.746 Q131.737 279.417 128.635 282.635 Q125.533 285.829 119.885 291.593 Z" fill="#000000" fill-rule="nonzero" fill-opacity="1" /><path clip-path="url(#clip960)" d="M146.019 289.649 L150.903 289.649 L150.903 295.528 L146.019 295.528 L146.019 289.649 Z" fill="#000000" fill-rule="nonzero" fill-opacity="1" /><path clip-path="url(#clip960)" d="M171.089 264.047 Q167.477 264.047 165.649 267.612 Q163.843 271.154 163.843 278.283 Q163.843 285.39 165.649 288.954 Q167.477 292.496 171.089 292.496 Q174.723 292.496 176.528 288.954 Q178.357 285.39 178.357 278.283 Q178.357 271.154 176.528 267.612 Q174.723 264.047 171.089 264.047 M171.089 260.343 Q176.899 260.343 179.954 264.95 Q183.033 269.533 183.033 278.283 Q183.033 287.01 179.954 291.616 Q176.899 296.2 171.089 296.2 Q165.278 296.2 162.2 291.616 Q159.144 287.01 159.144 278.283 Q159.144 269.533 162.2 264.95 Q165.278 260.343 171.089 260.343 Z" fill="#000000" fill-rule="nonzero" fill-opacity="1" /><path clip-path="url(#clip960)" d="M201.25 264.047 Q197.639 264.047 195.811 267.612 Q194.005 271.154 194.005 278.283 Q194.005 285.39 195.811 288.954 Q197.639 292.496 201.25 292.496 Q204.885 292.496 206.69 288.954 Q208.519 285.39 208.519 278.283 Q208.519 271.154 206.69 267.612 Q204.885 264.047 201.25 264.047 M201.25 260.343 Q207.061 260.343 210.116 264.95 Q213.195 269.533 213.195 278.283 Q213.195 287.01 210.116 291.616 Q207.061 296.2 201.25 296.2 Q195.44 296.2 192.362 291.616 Q189.306 287.01 189.306 278.283 Q189.306 269.533 192.362 264.95 Q195.44 260.343 201.25 260.343 Z" fill="#000000" fill-rule="nonzero" fill-opacity="1" /><path clip-path="url(#clip960)" d="M249.584 270.066 L239.005 280.691 L249.584 291.269 L246.829 294.07 L236.204 283.445 L225.579 294.07 L222.848 291.269 L233.403 280.691 L222.848 270.066 L225.579 267.265 L236.204 277.89 L246.829 267.265 L249.584 270.066 Z" fill="#000000" fill-rule="nonzero" fill-opacity="1" /><path clip-path="url(#clip960)" d="M261.945 291.593 L269.583 291.593 L269.583 265.228 L261.273 266.894 L261.273 262.635 L269.537 260.968 L274.213 260.968 L274.213 291.593 L281.852 291.593 L281.852 295.528 L261.945 295.528 L261.945 291.593 Z" fill="#000000" fill-rule="nonzero" fill-opacity="1" /><path clip-path="url(#clip960)" d="M301.296 264.047 Q297.685 264.047 295.856 267.612 Q294.051 271.154 294.051 278.283 Q294.051 285.39 295.856 288.954 Q297.685 292.496 301.296 292.496 Q304.93 292.496 306.736 288.954 Q308.565 285.39 308.565 278.283 Q308.565 271.154 306.736 267.612 Q304.93 264.047 301.296 264.047 M301.296 260.343 Q307.106 260.343 310.162 264.95 Q313.241 269.533 313.241 278.283 Q313.241 287.01 310.162 291.616 Q307.106 296.2 301.296 296.2 Q295.486 296.2 292.407 291.616 Q289.352 287.01 289.352 278.283 Q289.352 269.533 292.407 264.95 Q295.486 260.343 301.296 260.343 Z" fill="#000000" fill-rule="nonzero" fill-opacity="1" /><path clip-path="url(#clip960)" d="M325.917 243.348 L316.325 258.338 L325.917 258.338 L325.917 243.348 M324.92 240.038 L329.697 240.038 L329.697 258.338 L333.703 258.338 L333.703 261.498 L329.697 261.498 L329.697 268.118 L325.917 268.118 L325.917 261.498 L313.241 261.498 L313.241 257.83 L324.92 240.038 Z" fill="#000000" fill-rule="nonzero" fill-opacity="1" /><path clip-path="url(#clip960)" d="M16.4842 1287.14 L16.4842 1246.94 L21.895 1246.94 L21.895 1263.81 L64.0042 1263.81 L64.0042 1270.27 L21.895 1270.27 L21.895 1287.14 L16.4842 1287.14 Z" fill="#000000" fill-rule="nonzero" fill-opacity="1" /><path clip-path="url(#clip960)" d="M33.8307 1229.91 Q33.2578 1230.9 33.0032 1232.07 Q32.7167 1233.22 32.7167 1234.62 Q32.7167 1239.59 35.9632 1242.26 Q39.1779 1244.9 45.2253 1244.9 L64.0042 1244.9 L64.0042 1250.79 L28.3562 1250.79 L28.3562 1244.9 L33.8944 1244.9 Q30.6479 1243.05 29.0883 1240.09 Q27.4968 1237.13 27.4968 1232.9 Q27.4968 1232.3 27.5923 1231.56 Q27.656 1230.83 27.8151 1229.94 L33.8307 1229.91 Z" fill="#000000" fill-rule="nonzero" fill-opacity="1" /><path clip-path="url(#clip960)" d="M46.0847 1207.57 Q46.0847 1214.66 47.7079 1217.4 Q49.3312 1220.14 53.2461 1220.14 Q56.3653 1220.14 58.2114 1218.1 Q60.0256 1216.03 60.0256 1212.5 Q60.0256 1207.63 56.5881 1204.7 Q53.1188 1201.74 47.3897 1201.74 L46.0847 1201.74 L46.0847 1207.57 M43.6657 1195.88 L64.0042 1195.88 L64.0042 1201.74 L58.5933 1201.74 Q61.8398 1203.75 63.3994 1206.74 Q64.9272 1209.73 64.9272 1214.06 Q64.9272 1219.53 61.8716 1222.78 Q58.7843 1225.99 53.6281 1225.99 Q47.6125 1225.99 44.5569 1221.98 Q41.5014 1217.94 41.5014 1209.95 L41.5014 1201.74 L40.9285 1201.74 Q36.8862 1201.74 34.6901 1204.41 Q32.4621 1207.06 32.4621 1211.86 Q32.4621 1214.92 33.1941 1217.81 Q33.9262 1220.71 35.3903 1223.38 L29.9795 1223.38 Q28.7381 1220.17 28.1334 1217.15 Q27.4968 1214.12 27.4968 1211.26 Q27.4968 1203.52 31.5072 1199.7 Q35.5176 1195.88 43.6657 1195.88 Z" fill="#000000" fill-rule="nonzero" fill-opacity="1" /><path clip-path="url(#clip960)" d="M42.4881 1154.19 L64.0042 1154.19 L64.0042 1160.05 L42.679 1160.05 Q37.6183 1160.05 35.1038 1162.02 Q32.5894 1163.99 32.5894 1167.94 Q32.5894 1172.68 35.6131 1175.42 Q38.6368 1178.16 43.8567 1178.16 L64.0042 1178.16 L64.0042 1184.04 L28.3562 1184.04 L28.3562 1178.16 L33.8944 1178.16 Q30.6797 1176.06 29.0883 1173.22 Q27.4968 1170.36 27.4968 1166.63 Q27.4968 1160.49 31.3163 1157.34 Q35.1038 1154.19 42.4881 1154.19 Z" fill="#000000" fill-rule="nonzero" fill-opacity="1" /><path clip-path="url(#clip960)" d="M29.4065 1119.78 L34.9447 1119.78 Q33.6716 1122.27 33.035 1124.94 Q32.3984 1127.61 32.3984 1130.48 Q32.3984 1134.84 33.7352 1137.03 Q35.072 1139.2 37.7456 1139.2 Q39.7826 1139.2 40.9603 1137.64 Q42.1061 1136.08 43.1565 1131.37 L43.6021 1129.36 Q44.9389 1123.12 47.3897 1120.51 Q49.8086 1117.87 54.1691 1117.87 Q59.1344 1117.87 62.0308 1121.82 Q64.9272 1125.73 64.9272 1132.61 Q64.9272 1135.47 64.3543 1138.59 Q63.8132 1141.68 62.6992 1145.12 L56.6518 1145.12 Q58.3387 1141.87 59.198 1138.72 Q60.0256 1135.57 60.0256 1132.48 Q60.0256 1128.34 58.6251 1126.12 Q57.1929 1123.89 54.6147 1123.89 Q52.2276 1123.89 50.9545 1125.51 Q49.6813 1127.1 48.5037 1132.55 L48.0262 1134.58 Q46.8804 1140.03 44.5251 1142.44 Q42.138 1144.86 38.0002 1144.86 Q32.9713 1144.86 30.2341 1141.3 Q27.4968 1137.73 27.4968 1131.18 Q27.4968 1127.93 27.9743 1125.07 Q28.4517 1122.2 29.4065 1119.78 Z" fill="#000000" fill-rule="nonzero" fill-opacity="1" /><path clip-path="url(#clip960)" d="M35.1993 1080.79 Q31.2526 1078.6 29.3747 1075.54 Q27.4968 1072.49 27.4968 1068.35 Q27.4968 1062.78 31.4117 1059.75 Q35.2948 1056.73 42.4881 1056.73 L64.0042 1056.73 L64.0042 1062.62 L42.679 1062.62 Q37.5546 1062.62 35.072 1064.43 Q32.5894 1066.25 32.5894 1069.97 Q32.5894 1074.52 35.6131 1077.16 Q38.6368 1079.81 43.8567 1079.81 L64.0042 1079.81 L64.0042 1085.69 L42.679 1085.69 Q37.5228 1085.69 35.072 1087.51 Q32.5894 1089.32 32.5894 1093.11 Q32.5894 1097.6 35.6449 1100.24 Q38.6686 1102.88 43.8567 1102.88 L64.0042 1102.88 L64.0042 1108.77 L28.3562 1108.77 L28.3562 1102.88 L33.8944 1102.88 Q30.616 1100.88 29.0564 1098.08 Q27.4968 1095.27 27.4968 1091.42 Q27.4968 1087.54 29.4702 1084.83 Q31.4436 1082.1 35.1993 1080.79 Z" fill="#000000" fill-rule="nonzero" fill-opacity="1" /><path clip-path="url(#clip960)" d="M28.3562 1045.05 L28.3562 1039.19 L64.0042 1039.19 L64.0042 1045.05 L28.3562 1045.05 M14.479 1045.05 L14.479 1039.19 L21.895 1039.19 L21.895 1045.05 L14.479 1045.05 Z" fill="#000000" fill-rule="nonzero" fill-opacity="1" /><path clip-path="url(#clip960)" d="M29.4065 1004.21 L34.9447 1004.21 Q33.6716 1006.7 33.035 1009.37 Q32.3984 1012.04 32.3984 1014.91 Q32.3984 1019.27 33.7352 1021.46 Q35.072 1023.63 37.7456 1023.63 Q39.7826 1023.63 40.9603 1022.07 Q42.1061 1020.51 43.1565 1015.8 L43.6021 1013.79 Q44.9389 1007.56 47.3897 1004.95 Q49.8086 1002.3 54.1691 1002.3 Q59.1344 1002.3 62.0308 1006.25 Q64.9272 1010.16 64.9272 1017.04 Q64.9272 1019.9 64.3543 1023.02 Q63.8132 1026.11 62.6992 1029.55 L56.6518 1029.55 Q58.3387 1026.3 59.198 1023.15 Q60.0256 1020 60.0256 1016.91 Q60.0256 1012.77 58.6251 1010.55 Q57.1929 1008.32 54.6147 1008.32 Q52.2276 1008.32 50.9545 1009.94 Q49.6813 1011.53 48.5037 1016.98 L48.0262 1019.01 Q46.8804 1024.46 44.5251 1026.87 Q42.138 1029.29 38.0002 1029.29 Q32.9713 1029.29 30.2341 1025.73 Q27.4968 1022.16 27.4968 1015.61 Q27.4968 1012.36 27.9743 1009.5 Q28.4517 1006.63 29.4065 1004.21 Z" fill="#000000" fill-rule="nonzero" fill-opacity="1" /><path clip-path="url(#clip960)" d="M29.4065 970.252 L34.9447 970.252 Q33.6716 972.735 33.035 975.408 Q32.3984 978.082 32.3984 980.946 Q32.3984 985.307 33.7352 987.503 Q35.072 989.667 37.7456 989.667 Q39.7826 989.667 40.9603 988.108 Q42.1061 986.548 43.1565 981.838 L43.6021 979.832 Q44.9389 973.594 47.3897 970.984 Q49.8086 968.342 54.1691 968.342 Q59.1344 968.342 62.0308 972.289 Q64.9272 976.204 64.9272 983.079 Q64.9272 985.943 64.3543 989.063 Q63.8132 992.15 62.6992 995.588 L56.6518 995.588 Q58.3387 992.341 59.198 989.19 Q60.0256 986.039 60.0256 982.952 Q60.0256 978.814 58.6251 976.586 Q57.1929 974.358 54.6147 974.358 Q52.2276 974.358 50.9545 975.981 Q49.6813 977.573 48.5037 983.015 L48.0262 985.052 Q46.8804 990.495 44.5251 992.914 Q42.138 995.333 38.0002 995.333 Q32.9713 995.333 30.2341 991.768 Q27.4968 988.203 27.4968 981.647 Q27.4968 978.4 27.9743 975.536 Q28.4517 972.671 29.4065 970.252 Z" fill="#000000" fill-rule="nonzero" fill-opacity="1" /><path clip-path="url(#clip960)" d="M28.3562 959.017 L28.3562 953.16 L64.0042 953.16 L64.0042 959.017 L28.3562 959.017 M14.479 959.017 L14.479 953.16 L21.895 953.16 L21.895 959.017 L14.479 959.017 Z" fill="#000000" fill-rule="nonzero" fill-opacity="1" /><path clip-path="url(#clip960)" d="M32.4621 927.093 Q32.4621 931.803 36.1542 934.54 Q39.8145 937.278 46.212 937.278 Q52.6095 937.278 56.3017 934.572 Q59.9619 931.835 59.9619 927.093 Q59.9619 922.414 56.2698 919.676 Q52.5777 916.939 46.212 916.939 Q39.8781 916.939 36.186 919.676 Q32.4621 922.414 32.4621 927.093 M27.4968 927.093 Q27.4968 919.454 32.4621 915.093 Q37.4273 910.733 46.212 910.733 Q54.9649 910.733 59.9619 915.093 Q64.9272 919.454 64.9272 927.093 Q64.9272 934.763 59.9619 939.124 Q54.9649 943.452 46.212 943.452 Q37.4273 943.452 32.4621 939.124 Q27.4968 934.763 27.4968 927.093 Z" fill="#000000" fill-rule="nonzero" fill-opacity="1" /><path clip-path="url(#clip960)" d="M42.4881 871.393 L64.0042 871.393 L64.0042 877.249 L42.679 877.249 Q37.6183 877.249 35.1038 879.222 Q32.5894 881.196 32.5894 885.143 Q32.5894 889.885 35.6131 892.622 Q38.6368 895.359 43.8567 895.359 L64.0042 895.359 L64.0042 901.248 L28.3562 901.248 L28.3562 895.359 L33.8944 895.359 Q30.6797 893.259 29.0883 890.426 Q27.4968 887.561 27.4968 883.838 Q27.4968 877.695 31.3163 874.544 Q35.1038 871.393 42.4881 871.393 Z" fill="#000000" fill-rule="nonzero" fill-opacity="1" /><path clip-path="url(#clip960)" d="M20.1444 803.152 L26.9239 803.152 Q23.9002 806.399 22.4043 810.091 Q20.9083 813.751 20.9083 817.889 Q20.9083 826.037 25.9054 830.366 Q30.8707 834.694 40.2919 834.694 Q49.6813 834.694 54.6784 830.366 Q59.6436 826.037 59.6436 817.889 Q59.6436 813.751 58.1477 810.091 Q56.6518 806.399 53.6281 803.152 L60.3439 803.152 Q62.6355 806.526 63.7814 810.314 Q64.9272 814.069 64.9272 818.271 Q64.9272 829.061 58.3387 835.267 Q51.7183 841.474 40.2919 841.474 Q28.8336 841.474 22.2451 835.267 Q15.6248 829.061 15.6248 818.271 Q15.6248 814.006 16.7706 810.25 Q17.8846 806.462 20.1444 803.152 Z" fill="#000000" fill-rule="nonzero" fill-opacity="1" /><path clip-path="url(#clip960)" d="M46.0847 777.276 Q46.0847 784.373 47.7079 787.111 Q49.3312 789.848 53.2461 789.848 Q56.3653 789.848 58.2114 787.811 Q60.0256 785.742 60.0256 782.209 Q60.0256 777.339 56.5881 774.411 Q53.1188 771.451 47.3897 771.451 L46.0847 771.451 L46.0847 777.276 M43.6657 765.595 L64.0042 765.595 L64.0042 771.451 L58.5933 771.451 Q61.8398 773.456 63.3994 776.448 Q64.9272 779.44 64.9272 783.769 Q64.9272 789.243 61.8716 792.49 Q58.7843 795.704 53.6281 795.704 Q47.6125 795.704 44.5569 791.694 Q41.5014 787.652 41.5014 779.663 L41.5014 771.451 L40.9285 771.451 Q36.8862 771.451 34.6901 774.125 Q32.4621 776.766 32.4621 781.572 Q32.4621 784.628 33.1941 787.524 Q33.9262 790.421 35.3903 793.094 L29.9795 793.094 Q28.7381 789.88 28.1334 786.856 Q27.4968 783.832 27.4968 780.968 Q27.4968 773.233 31.5072 769.414 Q35.5176 765.595 43.6657 765.595 Z" fill="#000000" fill-rule="nonzero" fill-opacity="1" /><path clip-path="url(#clip960)" d="M58.657 747.866 L77.5631 747.866 L77.5631 753.754 L28.3562 753.754 L28.3562 747.866 L33.7671 747.866 Q30.5842 746.02 29.0564 743.219 Q27.4968 740.386 27.4968 736.471 Q27.4968 729.978 32.6531 725.936 Q37.8093 721.862 46.212 721.862 Q54.6147 721.862 59.771 725.936 Q64.9272 729.978 64.9272 736.471 Q64.9272 740.386 63.3994 743.219 Q61.8398 746.02 58.657 747.866 M46.212 727.941 Q39.7508 727.941 36.0905 730.615 Q32.3984 733.257 32.3984 737.904 Q32.3984 742.551 36.0905 745.224 Q39.7508 747.866 46.212 747.866 Q52.6732 747.866 56.3653 745.224 Q60.0256 742.551 60.0256 737.904 Q60.0256 733.257 56.3653 730.615 Q52.6732 727.941 46.212 727.941 Z" fill="#000000" fill-rule="nonzero" fill-opacity="1" /><path clip-path="url(#clip960)" d="M46.0847 695.954 Q46.0847 703.051 47.7079 705.789 Q49.3312 708.526 53.2461 708.526 Q56.3653 708.526 58.2114 706.489 Q60.0256 704.42 60.0256 700.887 Q60.0256 696.017 56.5881 693.089 Q53.1188 690.129 47.3897 690.129 L46.0847 690.129 L46.0847 695.954 M43.6657 684.273 L64.0042 684.273 L64.0042 690.129 L58.5933 690.129 Q61.8398 692.134 63.3994 695.126 Q64.9272 698.118 64.9272 702.447 Q64.9272 707.921 61.8716 711.168 Q58.7843 714.382 53.6281 714.382 Q47.6125 714.382 44.5569 710.372 Q41.5014 706.33 41.5014 698.341 L41.5014 690.129 L40.9285 690.129 Q36.8862 690.129 34.6901 692.803 Q32.4621 695.444 32.4621 700.251 Q32.4621 703.306 33.1941 706.203 Q33.9262 709.099 35.3903 711.772 L29.9795 711.772 Q28.7381 708.558 28.1334 705.534 Q27.4968 702.51 27.4968 699.646 Q27.4968 691.911 31.5072 688.092 Q35.5176 684.273 43.6657 684.273 Z" fill="#000000" fill-rule="nonzero" fill-opacity="1" /><path clip-path="url(#clip960)" d="M29.7248 646.556 L35.1993 646.556 Q33.8307 649.038 33.1623 651.553 Q32.4621 654.036 32.4621 656.582 Q32.4621 662.279 36.0905 665.43 Q39.6872 668.581 46.212 668.581 Q52.7369 668.581 56.3653 665.43 Q59.9619 662.279 59.9619 656.582 Q59.9619 654.036 59.2935 651.553 Q58.5933 649.038 57.2247 646.556 L62.6355 646.556 Q63.7814 649.007 64.3543 651.648 Q64.9272 654.258 64.9272 657.218 Q64.9272 665.271 59.8664 670.013 Q54.8057 674.756 46.212 674.756 Q37.491 674.756 32.4939 669.982 Q27.4968 665.176 27.4968 656.836 Q27.4968 654.131 28.0697 651.553 Q28.6108 648.975 29.7248 646.556 Z" fill="#000000" fill-rule="nonzero" fill-opacity="1" /><path clip-path="url(#clip960)" d="M28.3562 636.371 L28.3562 630.514 L64.0042 630.514 L64.0042 636.371 L28.3562 636.371 M14.479 636.371 L14.479 630.514 L21.895 630.514 L21.895 636.371 L14.479 636.371 Z" fill="#000000" fill-rule="nonzero" fill-opacity="1" /><path clip-path="url(#clip960)" d="M18.2347 612.467 L28.3562 612.467 L28.3562 600.404 L32.9077 600.404 L32.9077 612.467 L52.2594 612.467 Q56.6199 612.467 57.8613 611.29 Q59.1026 610.08 59.1026 606.42 L59.1026 600.404 L64.0042 600.404 L64.0042 606.42 Q64.0042 613.2 61.4897 615.778 Q58.9434 618.356 52.2594 618.356 L32.9077 618.356 L32.9077 622.653 L28.3562 622.653 L28.3562 618.356 L18.2347 618.356 L18.2347 612.467 Z" fill="#000000" fill-rule="nonzero" fill-opacity="1" /><path clip-path="url(#clip960)" d="M28.3562 592.702 L28.3562 586.846 L64.0042 586.846 L64.0042 592.702 L28.3562 592.702 M14.479 592.702 L14.479 586.846 L21.895 586.846 L21.895 592.702 L14.479 592.702 Z" fill="#000000" fill-rule="nonzero" fill-opacity="1" /><path clip-path="url(#clip960)" d="M44.7161 544.1 L47.5806 544.1 L47.5806 571.027 Q53.6281 570.645 56.8109 567.398 Q59.9619 564.12 59.9619 558.295 Q59.9619 554.921 59.1344 551.77 Q58.3069 548.588 56.6518 545.468 L62.1899 545.468 Q63.5267 548.619 64.227 551.93 Q64.9272 555.24 64.9272 558.645 Q64.9272 567.175 59.9619 572.173 Q54.9967 577.138 46.5303 577.138 Q37.7774 577.138 32.6531 572.427 Q27.4968 567.685 27.4968 559.664 Q27.4968 552.471 32.1438 548.301 Q36.7589 544.1 44.7161 544.1 M42.9973 549.956 Q38.1912 550.02 35.3266 552.662 Q32.4621 555.272 32.4621 559.6 Q32.4621 564.502 35.2312 567.462 Q38.0002 570.39 43.0292 570.836 L42.9973 549.956 Z" fill="#000000" fill-rule="nonzero" fill-opacity="1" /><path clip-path="url(#clip960)" d="M29.4065 511.762 L34.9447 511.762 Q33.6716 514.245 33.035 516.918 Q32.3984 519.592 32.3984 522.456 Q32.3984 526.817 33.7352 529.013 Q35.072 531.177 37.7456 531.177 Q39.7826 531.177 40.9603 529.618 Q42.1061 528.058 43.1565 523.348 L43.6021 521.342 Q44.9389 515.104 47.3897 512.494 Q49.8086 509.852 54.1691 509.852 Q59.1344 509.852 62.0308 513.799 Q64.9272 517.714 64.9272 524.589 Q64.9272 527.453 64.3543 530.573 Q63.8132 533.66 62.6992 537.098 L56.6518 537.098 Q58.3387 533.851 59.198 530.7 Q60.0256 527.549 60.0256 524.462 Q60.0256 520.324 58.6251 518.096 Q57.1929 515.868 54.6147 515.868 Q52.2276 515.868 50.9545 517.491 Q49.6813 519.083 48.5037 524.525 L48.0262 526.562 Q46.8804 532.005 44.5251 534.424 Q42.138 536.843 38.0002 536.843 Q32.9713 536.843 30.2341 533.278 Q27.4968 529.713 27.4968 523.157 Q27.4968 519.91 27.9743 517.046 Q28.4517 514.181 29.4065 511.762 Z" fill="#000000" fill-rule="nonzero" fill-opacity="1" /><path clip-path="url(#clip960)" d="M14.5426 465.738 Q21.8632 470.003 29.0246 472.072 Q36.186 474.141 43.5384 474.141 Q50.8908 474.141 58.1159 472.072 Q65.3091 469.971 72.5979 465.738 L72.5979 470.83 Q65.1182 475.605 57.8931 477.992 Q50.668 480.347 43.5384 480.347 Q36.4406 480.347 29.2474 477.992 Q22.0542 475.637 14.5426 470.83 L14.5426 465.738 Z" fill="#000000" fill-rule="nonzero" fill-opacity="1" /><path clip-path="url(#clip960)" d="M16.4842 454.121 L16.4842 444.54 L48.8219 432.413 L16.4842 420.223 L16.4842 410.643 L64.0042 410.643 L64.0042 416.913 L22.277 416.913 L54.8694 429.167 L54.8694 435.628 L22.277 447.882 L64.0042 447.882 L64.0042 454.121 L16.4842 454.121 Z" fill="#000000" fill-rule="nonzero" fill-opacity="1" /><path clip-path="url(#clip960)" d="M16.4842 402.113 L16.4842 395.62 L56.6518 385.626 L16.4842 375.663 L16.4842 368.438 L56.6518 358.444 L16.4842 348.482 L16.4842 341.957 L64.0042 353.892 L64.0042 361.977 L22.7544 372.003 L64.0042 382.124 L64.0042 390.209 L16.4842 402.113 Z" fill="#000000" fill-rule="nonzero" fill-opacity="1" /><path clip-path="url(#clip960)" d="M14.5426 334.604 L14.5426 329.512 Q22.0542 324.738 29.2474 322.382 Q36.4406 319.995 43.5384 319.995 Q50.668 319.995 57.8931 322.382 Q65.1182 324.738 72.5979 329.512 L72.5979 334.604 Q65.3091 330.371 58.1159 328.302 Q50.8908 326.202 43.5384 326.202 Q36.186 326.202 29.0246 328.302 Q21.8632 330.371 14.5426 334.604 Z" fill="#000000" fill-rule="nonzero" fill-opacity="1" /><path clip-path="url(#clip960)" d="M801.739 33.264 L852.902 33.264 L852.902 40.1505 L831.432 40.1505 L831.432 93.744 L823.209 93.744 L823.209 40.1505 L801.739 40.1505 L801.739 33.264 Z" fill="#000000" fill-rule="nonzero" fill-opacity="1" /><path clip-path="url(#clip960)" d="M874.574 55.3414 Q873.319 54.6123 871.82 54.2882 Q870.361 53.9236 868.579 53.9236 Q862.26 53.9236 858.857 58.0555 Q855.495 62.1469 855.495 69.8437 L855.495 93.744 L848 93.744 L848 48.3739 L855.495 48.3739 L855.495 55.4224 Q857.844 51.2905 861.611 49.3056 Q865.379 47.2801 870.766 47.2801 Q871.536 47.2801 872.468 47.4017 Q873.4 47.4827 874.534 47.6852 L874.574 55.3414 Z" fill="#000000" fill-rule="nonzero" fill-opacity="1" /><path clip-path="url(#clip960)" d="M903.012 70.9374 Q893.978 70.9374 890.494 73.0034 Q887.011 75.0693 887.011 80.0519 Q887.011 84.0218 889.603 86.3714 Q892.236 88.6804 896.733 88.6804 Q902.931 88.6804 906.657 84.3054 Q910.425 79.8899 910.425 72.5983 L910.425 70.9374 L903.012 70.9374 M917.878 67.8587 L917.878 93.744 L910.425 93.744 L910.425 86.8575 Q907.873 90.9894 904.065 92.9743 Q900.257 94.9188 894.748 94.9188 Q887.78 94.9188 883.648 91.0299 Q879.557 87.1005 879.557 80.5381 Q879.557 72.8818 884.661 68.993 Q889.806 65.1041 899.973 65.1041 L910.425 65.1041 L910.425 64.3749 Q910.425 59.2303 907.022 56.4352 Q903.66 53.5995 897.543 53.5995 Q893.654 53.5995 889.968 54.5312 Q886.281 55.463 882.879 57.3264 L882.879 50.4398 Q886.97 48.86 890.818 48.0903 Q894.667 47.2801 898.313 47.2801 Q908.156 47.2801 913.017 52.3843 Q917.878 57.4884 917.878 67.8587 Z" fill="#000000" fill-rule="nonzero" fill-opacity="1" /><path clip-path="url(#clip960)" d="M970.945 66.3599 L970.945 93.744 L963.492 93.744 L963.492 66.6029 Q963.492 60.162 960.98 56.9618 Q958.469 53.7616 953.445 53.7616 Q947.41 53.7616 943.926 57.6099 Q940.442 61.4583 940.442 68.1018 L940.442 93.744 L932.948 93.744 L932.948 48.3739 L940.442 48.3739 L940.442 55.4224 Q943.116 51.331 946.721 49.3056 Q950.367 47.2801 955.106 47.2801 Q962.925 47.2801 966.935 52.1412 Q970.945 56.9618 970.945 66.3599 Z" fill="#000000" fill-rule="nonzero" fill-opacity="1" /><path clip-path="url(#clip960)" d="M1014.74 49.7107 L1014.74 56.7592 Q1011.58 55.1389 1008.17 54.3287 Q1004.77 53.5185 1001.12 53.5185 Q995.575 53.5185 992.78 55.2199 Q990.025 56.9213 990.025 60.324 Q990.025 62.9166 992.01 64.4155 Q993.995 65.8738 999.99 67.2106 L1002.54 67.7777 Q1010.48 69.4791 1013.8 72.5983 Q1017.17 75.677 1017.17 81.2267 Q1017.17 87.5461 1012.14 91.2324 Q1007.16 94.9188 998.41 94.9188 Q994.765 94.9188 990.795 94.1896 Q986.865 93.5009 982.49 92.0831 L982.49 84.3864 Q986.622 86.5334 990.633 87.6271 Q994.643 88.6804 998.572 88.6804 Q1003.84 88.6804 1006.67 86.898 Q1009.51 85.0751 1009.51 81.7938 Q1009.51 78.7557 1007.44 77.1353 Q1005.42 75.5149 998.491 74.0161 L995.899 73.4085 Q988.972 71.9501 985.893 68.9525 Q982.814 65.9143 982.814 60.6481 Q982.814 54.2477 987.351 50.7639 Q991.888 47.2801 1000.23 47.2801 Q1004.37 47.2801 1008.01 47.8878 Q1011.66 48.4954 1014.74 49.7107 Z" fill="#000000" fill-rule="nonzero" fill-opacity="1" /><path clip-path="url(#clip960)" d="M1064.36 57.0833 Q1067.15 52.0602 1071.04 49.6702 Q1074.93 47.2801 1080.2 47.2801 Q1087.29 47.2801 1091.14 52.2627 Q1094.98 57.2048 1094.98 66.3599 L1094.98 93.744 L1087.49 93.744 L1087.49 66.6029 Q1087.49 60.081 1085.18 56.9213 Q1082.87 53.7616 1078.13 53.7616 Q1072.34 53.7616 1068.98 57.6099 Q1065.61 61.4583 1065.61 68.1018 L1065.61 93.744 L1058.12 93.744 L1058.12 66.6029 Q1058.12 60.0405 1055.81 56.9213 Q1053.5 53.7616 1048.68 53.7616 Q1042.97 53.7616 1039.61 57.6504 Q1036.25 61.4988 1036.25 68.1018 L1036.25 93.744 L1028.75 93.744 L1028.75 48.3739 L1036.25 48.3739 L1036.25 55.4224 Q1038.8 51.25 1042.36 49.2651 Q1045.93 47.2801 1050.83 47.2801 Q1055.77 47.2801 1059.21 49.7917 Q1062.7 52.3032 1064.36 57.0833 Z" fill="#000000" fill-rule="nonzero" fill-opacity="1" /><path clip-path="url(#clip960)" d="M1109.85 48.3739 L1117.3 48.3739 L1117.3 93.744 L1109.85 93.744 L1109.85 48.3739 M1109.85 30.7119 L1117.3 30.7119 L1117.3 40.1505 L1109.85 40.1505 L1109.85 30.7119 Z" fill="#000000" fill-rule="nonzero" fill-opacity="1" /><path clip-path="url(#clip960)" d="M1161.82 49.7107 L1161.82 56.7592 Q1158.66 55.1389 1155.26 54.3287 Q1151.86 53.5185 1148.21 53.5185 Q1142.66 53.5185 1139.87 55.2199 Q1137.11 56.9213 1137.11 60.324 Q1137.11 62.9166 1139.1 64.4155 Q1141.08 65.8738 1147.08 67.2106 L1149.63 67.7777 Q1157.57 69.4791 1160.89 72.5983 Q1164.25 75.677 1164.25 81.2267 Q1164.25 87.5461 1159.23 91.2324 Q1154.25 94.9188 1145.5 94.9188 Q1141.85 94.9188 1137.88 94.1896 Q1133.95 93.5009 1129.58 92.0831 L1129.58 84.3864 Q1133.71 86.5334 1137.72 87.6271 Q1141.73 88.6804 1145.66 88.6804 Q1150.93 88.6804 1153.76 86.898 Q1156.6 85.0751 1156.6 81.7938 Q1156.6 78.7557 1154.53 77.1353 Q1152.51 75.5149 1145.58 74.0161 L1142.99 73.4085 Q1136.06 71.9501 1132.98 68.9525 Q1129.9 65.9143 1129.9 60.6481 Q1129.9 54.2477 1134.44 50.7639 Q1138.98 47.2801 1147.32 47.2801 Q1151.45 47.2801 1155.1 47.8878 Q1158.75 48.4954 1161.82 49.7107 Z" fill="#000000" fill-rule="nonzero" fill-opacity="1" /><path clip-path="url(#clip960)" d="M1205.05 49.7107 L1205.05 56.7592 Q1201.89 55.1389 1198.48 54.3287 Q1195.08 53.5185 1191.44 53.5185 Q1185.89 53.5185 1183.09 55.2199 Q1180.34 56.9213 1180.34 60.324 Q1180.34 62.9166 1182.32 64.4155 Q1184.31 65.8738 1190.3 67.2106 L1192.85 67.7777 Q1200.79 69.4791 1204.12 72.5983 Q1207.48 75.677 1207.48 81.2267 Q1207.48 87.5461 1202.45 91.2324 Q1197.47 94.9188 1188.72 94.9188 Q1185.08 94.9188 1181.11 94.1896 Q1177.18 93.5009 1172.8 92.0831 L1172.8 84.3864 Q1176.93 86.5334 1180.94 87.6271 Q1184.95 88.6804 1188.88 88.6804 Q1194.15 88.6804 1196.99 86.898 Q1199.82 85.0751 1199.82 81.7938 Q1199.82 78.7557 1197.76 77.1353 Q1195.73 75.5149 1188.8 74.0161 L1186.21 73.4085 Q1179.28 71.9501 1176.2 68.9525 Q1173.13 65.9143 1173.13 60.6481 Q1173.13 54.2477 1177.66 50.7639 Q1182.2 47.2801 1190.54 47.2801 Q1194.68 47.2801 1198.32 47.8878 Q1201.97 48.4954 1205.05 49.7107 Z" fill="#000000" fill-rule="nonzero" fill-opacity="1" /><path clip-path="url(#clip960)" d="M1219.35 48.3739 L1226.8 48.3739 L1226.8 93.744 L1219.35 93.744 L1219.35 48.3739 M1219.35 30.7119 L1226.8 30.7119 L1226.8 40.1505 L1219.35 40.1505 L1219.35 30.7119 Z" fill="#000000" fill-rule="nonzero" fill-opacity="1" /><path clip-path="url(#clip960)" d="M1259.98 53.5995 Q1253.98 53.5995 1250.5 58.2986 Q1247.01 62.9571 1247.01 71.0994 Q1247.01 79.2418 1250.46 83.9408 Q1253.94 88.5994 1259.98 88.5994 Q1265.93 88.5994 1269.42 83.9003 Q1272.9 79.2013 1272.9 71.0994 Q1272.9 63.0381 1269.42 58.3391 Q1265.93 53.5995 1259.98 53.5995 M1259.98 47.2801 Q1269.7 47.2801 1275.25 53.5995 Q1280.8 59.9189 1280.8 71.0994 Q1280.8 82.2394 1275.25 88.5994 Q1269.7 94.9188 1259.98 94.9188 Q1250.21 94.9188 1244.66 88.5994 Q1239.16 82.2394 1239.16 71.0994 Q1239.16 59.9189 1244.66 53.5995 Q1250.21 47.2801 1259.98 47.2801 Z" fill="#000000" fill-rule="nonzero" fill-opacity="1" /><path clip-path="url(#clip960)" d="M1330.87 66.3599 L1330.87 93.744 L1323.41 93.744 L1323.41 66.6029 Q1323.41 60.162 1320.9 56.9618 Q1318.39 53.7616 1313.37 53.7616 Q1307.33 53.7616 1303.85 57.6099 Q1300.36 61.4583 1300.36 68.1018 L1300.36 93.744 L1292.87 93.744 L1292.87 48.3739 L1300.36 48.3739 L1300.36 55.4224 Q1303.04 51.331 1306.64 49.3056 Q1310.29 47.2801 1315.03 47.2801 Q1322.85 47.2801 1326.86 52.1412 Q1330.87 56.9618 1330.87 66.3599 Z" fill="#000000" fill-rule="nonzero" fill-opacity="1" /><path clip-path="url(#clip960)" d="M1417.72 37.9225 L1417.72 46.551 Q1413.59 42.7026 1408.89 40.7987 Q1404.23 38.8948 1398.96 38.8948 Q1388.59 38.8948 1383.08 45.2547 Q1377.58 51.5741 1377.58 63.5648 Q1377.58 75.5149 1383.08 81.8749 Q1388.59 88.1943 1398.96 88.1943 Q1404.23 88.1943 1408.89 86.2903 Q1413.59 84.3864 1417.72 80.5381 L1417.72 89.0855 Q1413.43 92.0021 1408.6 93.4604 Q1403.82 94.9188 1398.48 94.9188 Q1384.75 94.9188 1376.85 86.5334 Q1368.95 78.1075 1368.95 63.5648 Q1368.95 48.9815 1376.85 40.5961 Q1384.75 32.1703 1398.48 32.1703 Q1403.91 32.1703 1408.69 33.6286 Q1413.51 35.0464 1417.72 37.9225 Z" fill="#000000" fill-rule="nonzero" fill-opacity="1" /><path clip-path="url(#clip960)" d="M1450.65 70.9374 Q1441.62 70.9374 1438.14 73.0034 Q1434.65 75.0693 1434.65 80.0519 Q1434.65 84.0218 1437.24 86.3714 Q1439.88 88.6804 1444.37 88.6804 Q1450.57 88.6804 1454.3 84.3054 Q1458.07 79.8899 1458.07 72.5983 L1458.07 70.9374 L1450.65 70.9374 M1465.52 67.8587 L1465.52 93.744 L1458.07 93.744 L1458.07 86.8575 Q1455.51 90.9894 1451.71 92.9743 Q1447.9 94.9188 1442.39 94.9188 Q1435.42 94.9188 1431.29 91.0299 Q1427.2 87.1005 1427.2 80.5381 Q1427.2 72.8818 1432.3 68.993 Q1437.45 65.1041 1447.62 65.1041 L1458.07 65.1041 L1458.07 64.3749 Q1458.07 59.2303 1454.66 56.4352 Q1451.3 53.5995 1445.18 53.5995 Q1441.3 53.5995 1437.61 54.5312 Q1433.92 55.463 1430.52 57.3264 L1430.52 50.4398 Q1434.61 48.86 1438.46 48.0903 Q1442.31 47.2801 1445.95 47.2801 Q1455.8 47.2801 1460.66 52.3843 Q1465.52 57.4884 1465.52 67.8587 Z" fill="#000000" fill-rule="nonzero" fill-opacity="1" /><path clip-path="url(#clip960)" d="M1488.08 86.9385 L1488.08 111.001 L1480.59 111.001 L1480.59 48.3739 L1488.08 48.3739 L1488.08 55.2604 Q1490.43 51.2095 1494 49.2651 Q1497.6 47.2801 1502.59 47.2801 Q1510.85 47.2801 1515.99 53.8426 Q1521.18 60.4051 1521.18 71.0994 Q1521.18 81.7938 1515.99 88.3563 Q1510.85 94.9188 1502.59 94.9188 Q1497.6 94.9188 1494 92.9743 Q1490.43 90.9894 1488.08 86.9385 M1513.44 71.0994 Q1513.44 62.8761 1510.04 58.2176 Q1506.68 53.5185 1500.76 53.5185 Q1494.85 53.5185 1491.45 58.2176 Q1488.08 62.8761 1488.08 71.0994 Q1488.08 79.3228 1491.45 84.0218 Q1494.85 88.6804 1500.76 88.6804 Q1506.68 88.6804 1510.04 84.0218 Q1513.44 79.3228 1513.44 71.0994 Z" fill="#000000" fill-rule="nonzero" fill-opacity="1" /><path clip-path="url(#clip960)" d="M1554.15 70.9374 Q1545.12 70.9374 1541.64 73.0034 Q1538.15 75.0693 1538.15 80.0519 Q1538.15 84.0218 1540.75 86.3714 Q1543.38 88.6804 1547.88 88.6804 Q1554.07 88.6804 1557.8 84.3054 Q1561.57 79.8899 1561.57 72.5983 L1561.57 70.9374 L1554.15 70.9374 M1569.02 67.8587 L1569.02 93.744 L1561.57 93.744 L1561.57 86.8575 Q1559.02 90.9894 1555.21 92.9743 Q1551.4 94.9188 1545.89 94.9188 Q1538.92 94.9188 1534.79 91.0299 Q1530.7 87.1005 1530.7 80.5381 Q1530.7 72.8818 1535.8 68.993 Q1540.95 65.1041 1551.12 65.1041 L1561.57 65.1041 L1561.57 64.3749 Q1561.57 59.2303 1558.16 56.4352 Q1554.8 53.5995 1548.69 53.5995 Q1544.8 53.5995 1541.11 54.5312 Q1537.42 55.463 1534.02 57.3264 L1534.02 50.4398 Q1538.11 48.86 1541.96 48.0903 Q1545.81 47.2801 1549.45 47.2801 Q1559.3 47.2801 1564.16 52.3843 Q1569.02 57.4884 1569.02 67.8587 Z" fill="#000000" fill-rule="nonzero" fill-opacity="1" /><path clip-path="url(#clip960)" d="M1617.02 50.1158 L1617.02 57.0833 Q1613.86 55.3414 1610.66 54.4907 Q1607.5 53.5995 1604.26 53.5995 Q1597.01 53.5995 1593 58.2176 Q1588.99 62.7951 1588.99 71.0994 Q1588.99 79.4038 1593 84.0218 Q1597.01 88.5994 1604.26 88.5994 Q1607.5 88.5994 1610.66 87.7487 Q1613.86 86.8575 1617.02 85.1156 L1617.02 92.0021 Q1613.9 93.4604 1610.54 94.1896 Q1607.22 94.9188 1603.45 94.9188 Q1593.2 94.9188 1587.17 88.4778 Q1581.13 82.0369 1581.13 71.0994 Q1581.13 60 1587.21 53.64 Q1593.33 47.2801 1603.94 47.2801 Q1607.38 47.2801 1610.66 48.0093 Q1613.95 48.6979 1617.02 50.1158 Z" fill="#000000" fill-rule="nonzero" fill-opacity="1" /><path clip-path="url(#clip960)" d="M1629.99 48.3739 L1637.44 48.3739 L1637.44 93.744 L1629.99 93.744 L1629.99 48.3739 M1629.99 30.7119 L1637.44 30.7119 L1637.44 40.1505 L1629.99 40.1505 L1629.99 30.7119 Z" fill="#000000" fill-rule="nonzero" fill-opacity="1" /><path clip-path="url(#clip960)" d="M1660.41 35.492 L1660.41 48.3739 L1675.76 48.3739 L1675.76 54.1667 L1660.41 54.1667 L1660.41 78.7962 Q1660.41 84.3459 1661.91 85.9258 Q1663.45 87.5056 1668.11 87.5056 L1675.76 87.5056 L1675.76 93.744 L1668.11 93.744 Q1659.48 93.744 1656.2 90.5438 Q1652.92 87.3031 1652.92 78.7962 L1652.92 54.1667 L1647.45 54.1667 L1647.45 48.3739 L1652.92 48.3739 L1652.92 35.492 L1660.41 35.492 Z" fill="#000000" fill-rule="nonzero" fill-opacity="1" /><path clip-path="url(#clip960)" d="M1685.57 48.3739 L1693.02 48.3739 L1693.02 93.744 L1685.57 93.744 L1685.57 48.3739 M1685.57 30.7119 L1693.02 30.7119 L1693.02 40.1505 L1685.57 40.1505 L1685.57 30.7119 Z" fill="#000000" fill-rule="nonzero" fill-opacity="1" /><path clip-path="url(#clip960)" d="M1747.42 69.1955 L1747.42 72.8413 L1713.15 72.8413 Q1713.64 80.5381 1717.77 84.589 Q1721.94 88.5994 1729.36 88.5994 Q1733.65 88.5994 1737.66 87.5461 Q1741.71 86.4929 1745.68 84.3864 L1745.68 91.435 Q1741.67 93.1364 1737.46 94.0276 Q1733.24 94.9188 1728.91 94.9188 Q1718.05 94.9188 1711.69 88.5994 Q1705.37 82.2799 1705.37 71.5045 Q1705.37 60.3645 1711.37 53.8426 Q1717.41 47.2801 1727.61 47.2801 Q1736.77 47.2801 1742.08 53.1944 Q1747.42 59.0683 1747.42 69.1955 M1739.97 67.008 Q1739.89 60.8912 1736.53 57.2454 Q1733.2 53.5995 1727.69 53.5995 Q1721.46 53.5995 1717.69 57.1238 Q1713.96 60.6481 1713.4 67.0485 L1739.97 67.008 Z" fill="#000000" fill-rule="nonzero" fill-opacity="1" /><path clip-path="url(#clip960)" d="M1788.58 49.7107 L1788.58 56.7592 Q1785.42 55.1389 1782.02 54.3287 Q1778.61 53.5185 1774.97 53.5185 Q1769.42 53.5185 1766.62 55.2199 Q1763.87 56.9213 1763.87 60.324 Q1763.87 62.9166 1765.85 64.4155 Q1767.84 65.8738 1773.83 67.2106 L1776.39 67.7777 Q1784.33 69.4791 1787.65 72.5983 Q1791.01 75.677 1791.01 81.2267 Q1791.01 87.5461 1785.99 91.2324 Q1781 94.9188 1772.25 94.9188 Q1768.61 94.9188 1764.64 94.1896 Q1760.71 93.5009 1756.33 92.0831 L1756.33 84.3864 Q1760.47 86.5334 1764.48 87.6271 Q1768.49 88.6804 1772.42 88.6804 Q1777.68 88.6804 1780.52 86.898 Q1783.35 85.0751 1783.35 81.7938 Q1783.35 78.7557 1781.29 77.1353 Q1779.26 75.5149 1772.34 74.0161 L1769.74 73.4085 Q1762.82 71.9501 1759.74 68.9525 Q1756.66 65.9143 1756.66 60.6481 Q1756.66 54.2477 1761.2 50.7639 Q1765.73 47.2801 1774.08 47.2801 Q1778.21 47.2801 1781.86 47.8878 Q1785.5 48.4954 1788.58 49.7107 Z" fill="#000000" fill-rule="nonzero" fill-opacity="1" /><path clip-path="url(#clip960)" d="M1861.82 71.0994 Q1861.82 62.8761 1858.42 58.2176 Q1855.06 53.5185 1849.14 53.5185 Q1843.23 53.5185 1839.82 58.2176 Q1836.46 62.8761 1836.46 71.0994 Q1836.46 79.3228 1839.82 84.0218 Q1843.23 88.6804 1849.14 88.6804 Q1855.06 88.6804 1858.42 84.0218 Q1861.82 79.3228 1861.82 71.0994 M1836.46 55.2604 Q1838.81 51.2095 1842.38 49.2651 Q1845.98 47.2801 1850.96 47.2801 Q1859.23 47.2801 1864.37 53.8426 Q1869.56 60.4051 1869.56 71.0994 Q1869.56 81.7938 1864.37 88.3563 Q1859.23 94.9188 1850.96 94.9188 Q1845.98 94.9188 1842.38 92.9743 Q1838.81 90.9894 1836.46 86.9385 L1836.46 93.744 L1828.97 93.744 L1828.97 30.7119 L1836.46 30.7119 L1836.46 55.2604 Z" fill="#000000" fill-rule="nonzero" fill-opacity="1" /><path clip-path="url(#clip960)" d="M1900.79 97.9569 Q1897.63 106.059 1894.63 108.53 Q1891.63 111.001 1886.61 111.001 L1880.66 111.001 L1880.66 104.762 L1885.03 104.762 Q1888.11 104.762 1889.81 103.304 Q1891.51 101.846 1893.58 96.4176 L1894.92 93.0148 L1876.57 48.3739 L1884.46 48.3739 L1898.64 83.8598 L1912.82 48.3739 L1920.72 48.3739 L1900.79 97.9569 Z" fill="#000000" fill-rule="nonzero" fill-opacity="1" /><path clip-path="url(#clip960)" d="M1037.64 128.643 L1037.64 137.271 Q1033.51 133.423 1028.81 131.519 Q1024.15 129.615 1018.89 129.615 Q1008.52 129.615 1003.01 135.975 Q997.499 142.294 997.499 154.285 Q997.499 166.235 1003.01 172.595 Q1008.52 178.914 1018.89 178.914 Q1024.15 178.914 1028.81 177.01 Q1033.51 175.106 1037.64 171.258 L1037.64 179.805 Q1033.35 182.722 1028.53 184.18 Q1023.75 185.639 1018.4 185.639 Q1004.67 185.639 996.77 177.253 Q988.871 168.828 988.871 154.285 Q988.871 139.702 996.77 131.316 Q1004.67 122.89 1018.4 122.89 Q1023.83 122.89 1028.61 124.349 Q1033.43 125.766 1037.64 128.643 Z" fill="#000000" fill-rule="nonzero" fill-opacity="1" /><path clip-path="url(#clip960)" d="M1067.54 144.32 Q1061.54 144.32 1058.06 149.019 Q1054.58 153.677 1054.58 161.819 Q1054.58 169.962 1058.02 174.661 Q1061.5 179.319 1067.54 179.319 Q1073.49 179.319 1076.98 174.62 Q1080.46 169.921 1080.46 161.819 Q1080.46 153.758 1076.98 149.059 Q1073.49 144.32 1067.54 144.32 M1067.54 138 Q1077.26 138 1082.81 144.32 Q1088.36 150.639 1088.36 161.819 Q1088.36 172.959 1082.81 179.319 Q1077.26 185.639 1067.54 185.639 Q1057.78 185.639 1052.23 179.319 Q1046.72 172.959 1046.72 161.819 Q1046.72 150.639 1052.23 144.32 Q1057.78 138 1067.54 138 Z" fill="#000000" fill-rule="nonzero" fill-opacity="1" /><path clip-path="url(#clip960)" d="M1099.95 166.559 L1099.95 139.094 L1107.4 139.094 L1107.4 166.275 Q1107.4 172.716 1109.91 175.957 Q1112.42 179.157 1117.45 179.157 Q1123.48 179.157 1126.97 175.309 Q1130.49 171.461 1130.49 164.817 L1130.49 139.094 L1137.94 139.094 L1137.94 184.464 L1130.49 184.464 L1130.49 177.496 Q1127.78 181.628 1124.17 183.654 Q1120.61 185.639 1115.87 185.639 Q1108.05 185.639 1104 180.778 Q1099.95 175.917 1099.95 166.559 M1118.7 138 L1118.7 138 Z" fill="#000000" fill-rule="nonzero" fill-opacity="1" /><path clip-path="url(#clip960)" d="M1191.01 157.08 L1191.01 184.464 L1183.56 184.464 L1183.56 157.323 Q1183.56 150.882 1181.05 147.682 Q1178.53 144.482 1173.51 144.482 Q1167.47 144.482 1163.99 148.33 Q1160.51 152.178 1160.51 158.822 L1160.51 184.464 L1153.01 184.464 L1153.01 139.094 L1160.51 139.094 L1160.51 146.142 Q1163.18 142.051 1166.79 140.026 Q1170.43 138 1175.17 138 Q1182.99 138 1187 142.861 Q1191.01 147.682 1191.01 157.08 Z" fill="#000000" fill-rule="nonzero" fill-opacity="1" /><path clip-path="url(#clip960)" d="M1213.25 126.212 L1213.25 139.094 L1228.6 139.094 L1228.6 144.887 L1213.25 144.887 L1213.25 169.516 Q1213.25 175.066 1214.75 176.646 Q1216.29 178.226 1220.95 178.226 L1228.6 178.226 L1228.6 184.464 L1220.95 184.464 Q1212.32 184.464 1209.04 181.264 Q1205.76 178.023 1205.76 169.516 L1205.76 144.887 L1200.29 144.887 L1200.29 139.094 L1205.76 139.094 L1205.76 126.212 L1213.25 126.212 Z" fill="#000000" fill-rule="nonzero" fill-opacity="1" /><path clip-path="url(#clip960)" d="M1264.7 146.061 Q1263.44 145.332 1261.94 145.008 Q1260.48 144.644 1258.7 144.644 Q1252.38 144.644 1248.98 148.776 Q1245.62 152.867 1245.62 160.564 L1245.62 184.464 L1238.12 184.464 L1238.12 139.094 L1245.62 139.094 L1245.62 146.142 Q1247.97 142.011 1251.73 140.026 Q1255.5 138 1260.89 138 Q1261.66 138 1262.59 138.122 Q1263.52 138.203 1264.66 138.405 L1264.7 146.061 Z" fill="#000000" fill-rule="nonzero" fill-opacity="1" /><path clip-path="url(#clip960)" d="M1291.39 188.677 Q1288.23 196.779 1285.23 199.25 Q1282.24 201.721 1277.21 201.721 L1271.26 201.721 L1271.26 195.482 L1275.63 195.482 Q1278.71 195.482 1280.41 194.024 Q1282.12 192.566 1284.18 187.138 L1285.52 183.735 L1267.17 139.094 L1275.07 139.094 L1289.25 174.58 L1303.42 139.094 L1311.32 139.094 L1291.39 188.677 Z" fill="#000000" fill-rule="nonzero" fill-opacity="1" /><path clip-path="url(#clip960)" d="M1355.36 126.212 L1355.36 139.094 L1370.71 139.094 L1370.71 144.887 L1355.36 144.887 L1355.36 169.516 Q1355.36 175.066 1356.85 176.646 Q1358.39 178.226 1363.05 178.226 L1370.71 178.226 L1370.71 184.464 L1363.05 184.464 Q1354.42 184.464 1351.14 181.264 Q1347.86 178.023 1347.86 169.516 L1347.86 144.887 L1342.39 144.887 L1342.39 139.094 L1347.86 139.094 L1347.86 126.212 L1355.36 126.212 Z" fill="#000000" fill-rule="nonzero" fill-opacity="1" /><path clip-path="url(#clip960)" d="M1398.09 144.32 Q1392.1 144.32 1388.61 149.019 Q1385.13 153.677 1385.13 161.819 Q1385.13 169.962 1388.57 174.661 Q1392.06 179.319 1398.09 179.319 Q1404.05 179.319 1407.53 174.62 Q1411.02 169.921 1411.02 161.819 Q1411.02 153.758 1407.53 149.059 Q1404.05 144.32 1398.09 144.32 M1398.09 138 Q1407.82 138 1413.36 144.32 Q1418.91 150.639 1418.91 161.819 Q1418.91 172.959 1413.36 179.319 Q1407.82 185.639 1398.09 185.639 Q1388.33 185.639 1382.78 179.319 Q1377.27 172.959 1377.27 161.819 Q1377.27 150.639 1382.78 144.32 Q1388.33 138 1398.09 138 Z" fill="#000000" fill-rule="nonzero" fill-opacity="1" /><path clip-path="url(#clip960)" d="M1490.29 140.836 L1490.29 147.803 Q1487.13 146.061 1483.93 145.211 Q1480.77 144.32 1477.53 144.32 Q1470.28 144.32 1466.27 148.938 Q1462.26 153.515 1462.26 161.819 Q1462.26 170.124 1466.27 174.742 Q1470.28 179.319 1477.53 179.319 Q1480.77 179.319 1483.93 178.469 Q1487.13 177.577 1490.29 175.836 L1490.29 182.722 Q1487.17 184.18 1483.81 184.91 Q1480.49 185.639 1476.72 185.639 Q1466.47 185.639 1460.44 179.198 Q1454.4 172.757 1454.4 161.819 Q1454.4 150.72 1460.48 144.36 Q1466.59 138 1477.21 138 Q1480.65 138 1483.93 138.729 Q1487.21 139.418 1490.29 140.836 Z" fill="#000000" fill-rule="nonzero" fill-opacity="1" /><path clip-path="url(#clip960)" d="M1520.84 144.32 Q1514.84 144.32 1511.36 149.019 Q1507.87 153.677 1507.87 161.819 Q1507.87 169.962 1511.32 174.661 Q1514.8 179.319 1520.84 179.319 Q1526.79 179.319 1530.27 174.62 Q1533.76 169.921 1533.76 161.819 Q1533.76 153.758 1530.27 149.059 Q1526.79 144.32 1520.84 144.32 M1520.84 138 Q1530.56 138 1536.11 144.32 Q1541.66 150.639 1541.66 161.819 Q1541.66 172.959 1536.11 179.319 Q1530.56 185.639 1520.84 185.639 Q1511.07 185.639 1505.52 179.319 Q1500.01 172.959 1500.01 161.819 Q1500.01 150.639 1505.52 144.32 Q1511.07 138 1520.84 138 Z" fill="#000000" fill-rule="nonzero" fill-opacity="1" /><path clip-path="url(#clip960)" d="M1553.24 166.559 L1553.24 139.094 L1560.7 139.094 L1560.7 166.275 Q1560.7 172.716 1563.21 175.957 Q1565.72 179.157 1570.74 179.157 Q1576.78 179.157 1580.26 175.309 Q1583.79 171.461 1583.79 164.817 L1583.79 139.094 L1591.24 139.094 L1591.24 184.464 L1583.79 184.464 L1583.79 177.496 Q1581.07 181.628 1577.47 183.654 Q1573.9 185.639 1569.16 185.639 Q1561.34 185.639 1557.29 180.778 Q1553.24 175.917 1553.24 166.559 M1572 138 L1572 138 Z" fill="#000000" fill-rule="nonzero" fill-opacity="1" /><path clip-path="url(#clip960)" d="M1644.31 157.08 L1644.31 184.464 L1636.85 184.464 L1636.85 157.323 Q1636.85 150.882 1634.34 147.682 Q1631.83 144.482 1626.81 144.482 Q1620.77 144.482 1617.29 148.33 Q1613.8 152.178 1613.8 158.822 L1613.8 184.464 L1606.31 184.464 L1606.31 139.094 L1613.8 139.094 L1613.8 146.142 Q1616.48 142.051 1620.08 140.026 Q1623.73 138 1628.47 138 Q1636.29 138 1640.3 142.861 Q1644.31 147.682 1644.31 157.08 Z" fill="#000000" fill-rule="nonzero" fill-opacity="1" /><path clip-path="url(#clip960)" d="M1666.55 126.212 L1666.55 139.094 L1681.9 139.094 L1681.9 144.887 L1666.55 144.887 L1666.55 169.516 Q1666.55 175.066 1668.05 176.646 Q1669.58 178.226 1674.24 178.226 L1681.9 178.226 L1681.9 184.464 L1674.24 184.464 Q1665.61 184.464 1662.33 181.264 Q1659.05 178.023 1659.05 169.516 L1659.05 144.887 L1653.58 144.887 L1653.58 139.094 L1659.05 139.094 L1659.05 126.212 L1666.55 126.212 Z" fill="#000000" fill-rule="nonzero" fill-opacity="1" /><path clip-path="url(#clip960)" d="M1717.99 146.061 Q1716.74 145.332 1715.24 145.008 Q1713.78 144.644 1712 144.644 Q1705.68 144.644 1702.28 148.776 Q1698.91 152.867 1698.91 160.564 L1698.91 184.464 L1691.42 184.464 L1691.42 139.094 L1698.91 139.094 L1698.91 146.142 Q1701.26 142.011 1705.03 140.026 Q1708.8 138 1714.18 138 Q1714.95 138 1715.89 138.122 Q1716.82 138.203 1717.95 138.405 L1717.99 146.061 Z" fill="#000000" fill-rule="nonzero" fill-opacity="1" /><path clip-path="url(#clip960)" d="M1744.69 188.677 Q1741.53 196.779 1738.53 199.25 Q1735.53 201.721 1730.51 201.721 L1724.56 201.721 L1724.56 195.482 L1728.93 195.482 Q1732.01 195.482 1733.71 194.024 Q1735.41 192.566 1737.48 187.138 L1738.81 183.735 L1720.46 139.094 L1728.36 139.094 L1742.54 174.58 L1756.72 139.094 L1764.62 139.094 L1744.69 188.677 Z" fill="#000000" fill-rule="nonzero" fill-opacity="1" /><path clip-path="url(#clip962)" d="M478.775 219.025 L478.775 1388.11 L983.035 1388.11 L983.035 219.025 L478.775 219.025 L478.775 219.025  Z" fill="#009af9" fill-rule="evenodd" fill-opacity="1"/>
<polyline clip-path="url(#clip962)" style="stroke:#000000; stroke-linecap:round; stroke-linejoin:round; stroke-width:4; stroke-opacity:1; fill:none" points="478.775,219.025 478.775,1388.11 983.035,1388.11 983.035,219.025 478.775,219.025 "/>
<path clip-path="url(#clip962)" d="M1109.1 1372.96 L1109.1 1388.11 L1613.36 1388.11 L1613.36 1372.96 L1109.1 1372.96 L1109.1 1372.96  Z" fill="#009af9" fill-rule="evenodd" fill-opacity="1"/>
<polyline clip-path="url(#clip962)" style="stroke:#000000; stroke-linecap:round; stroke-linejoin:round; stroke-width:4; stroke-opacity:1; fill:none" points="1109.1,1372.96 1109.1,1388.11 1613.36,1388.11 1613.36,1372.96 1109.1,1372.96 "/>
<path clip-path="url(#clip962)" d="M1739.42 1219.22 L1739.42 1388.11 L2243.68 1388.11 L2243.68 1219.22 L1739.42 1219.22 L1739.42 1219.22  Z" fill="#009af9" fill-rule="evenodd" fill-opacity="1"/>
<polyline clip-path="url(#clip962)" style="stroke:#000000; stroke-linecap:round; stroke-linejoin:round; stroke-width:4; stroke-opacity:1; fill:none" points="1739.42,1219.22 1739.42,1388.11 2243.68,1388.11 2243.68,1219.22 1739.42,1219.22 "/>
<circle clip-path="url(#clip962)" style="fill:#009af9; stroke:none; fill-opacity:0" cx="730.905" cy="219.025" r="2"/>
<circle clip-path="url(#clip962)" style="fill:#009af9; stroke:none; fill-opacity:0" cx="1361.23" cy="1372.96" r="2"/>
<circle clip-path="url(#clip962)" style="fill:#009af9; stroke:none; fill-opacity:0" cx="1991.55" cy="1219.22" r="2"/>
</svg>
