<?xml version="1.0" encoding="utf-8"?>
<svg xmlns="http://www.w3.org/2000/svg" xmlns:xlink="http://www.w3.org/1999/xlink" width="600" height="400" viewBox="0 0 2400 1600">
<defs>
  <clipPath id="clip650">
    <rect x="0" y="0" width="2400" height="1600"/>
  </clipPath>
</defs>
<path clip-path="url(#clip650)" d="M0 1600 L2400 1600 L2400 0 L0 0  Z" fill="#ffffff" fill-rule="evenodd" fill-opacity="1"/>
<defs>
  <clipPath id="clip651">
    <rect x="480" y="0" width="1681" height="1600"/>
  </clipPath>
</defs>
<path clip-path="url(#clip650)" d="M340.699 1423.18 L2352.76 1423.18 L2352.76 183.952 L340.699 183.952  Z" fill="#ffffff" fill-rule="evenodd" fill-opacity="1"/>
<defs>
  <clipPath id="clip652">
    <rect x="340" y="183" width="2013" height="1240"/>
  </clipPath>
</defs>
<polyline clip-path="url(#clip652)" style="stroke:#000000; stroke-linecap:round; stroke-linejoin:round; stroke-width:2; stroke-opacity:0.1; fill:none" points="707.183,1423.18 707.183,183.952 "/>
<polyline clip-path="url(#clip652)" style="stroke:#000000; stroke-linecap:round; stroke-linejoin:round; stroke-width:2; stroke-opacity:0.1; fill:none" points="1346.73,1423.18 1346.73,183.952 "/>
<polyline clip-path="url(#clip652)" style="stroke:#000000; stroke-linecap:round; stroke-linejoin:round; stroke-width:2; stroke-opacity:0.1; fill:none" points="1986.27,1423.18 1986.27,183.952 "/>
<polyline clip-path="url(#clip650)" style="stroke:#000000; stroke-linecap:round; stroke-linejoin:round; stroke-width:4; stroke-opacity:1; fill:none" points="340.699,1423.18 2352.76,1423.18 "/>
<polyline clip-path="url(#clip650)" style="stroke:#000000; stroke-linecap:round; stroke-linejoin:round; stroke-width:4; stroke-opacity:1; fill:none" points="707.183,1423.18 707.183,1404.28 "/>
<polyline clip-path="url(#clip650)" style="stroke:#000000; stroke-linecap:round; stroke-linejoin:round; stroke-width:4; stroke-opacity:1; fill:none" points="1346.73,1423.18 1346.73,1404.28 "/>
<polyline clip-path="url(#clip650)" style="stroke:#000000; stroke-linecap:round; stroke-linejoin:round; stroke-width:4; stroke-opacity:1; fill:none" points="1986.27,1423.18 1986.27,1404.28 "/>
<path clip-path="url(#clip650)" d="M521.617 1480.65 L521.617 1471.37 L513.978 1471.37 L513.978 1467.52 L526.247 1467.52 L526.247 1482.36 Q523.538 1484.28 520.275 1485.28 Q517.011 1486.25 513.307 1486.25 Q505.205 1486.25 500.622 1481.53 Q496.062 1476.78 496.062 1468.33 Q496.062 1459.86 500.622 1455.14 Q505.205 1450.39 513.307 1450.39 Q516.687 1450.39 519.719 1451.23 Q522.775 1452.06 525.344 1453.68 L525.344 1458.66 Q522.751 1456.46 519.835 1455.35 Q516.918 1454.24 513.701 1454.24 Q507.358 1454.24 504.164 1457.78 Q500.992 1461.32 500.992 1468.33 Q500.992 1475.33 504.164 1478.87 Q507.358 1482.41 513.701 1482.41 Q516.177 1482.41 518.122 1481.99 Q520.066 1481.55 521.617 1480.65 Z" fill="#000000" fill-rule="nonzero" fill-opacity="1" /><path clip-path="url(#clip650)" d="M556.779 1471.55 L556.779 1473.64 L537.196 1473.64 Q537.474 1478.03 539.835 1480.35 Q542.219 1482.64 546.455 1482.64 Q548.909 1482.64 551.2 1482.04 Q553.515 1481.44 555.784 1480.23 L555.784 1484.26 Q553.492 1485.23 551.085 1485.74 Q548.677 1486.25 546.2 1486.25 Q539.997 1486.25 536.362 1482.64 Q532.751 1479.03 532.751 1472.87 Q532.751 1466.51 536.177 1462.78 Q539.626 1459.03 545.46 1459.03 Q550.691 1459.03 553.723 1462.41 Q556.779 1465.77 556.779 1471.55 M552.52 1470.3 Q552.473 1466.81 550.552 1464.72 Q548.654 1462.64 545.506 1462.64 Q541.941 1462.64 539.788 1464.65 Q537.659 1466.67 537.335 1470.33 L552.52 1470.3 Z" fill="#000000" fill-rule="nonzero" fill-opacity="1" /><path clip-path="url(#clip650)" d="M578.793 1463.64 Q578.075 1463.22 577.219 1463.03 Q576.385 1462.83 575.367 1462.83 Q571.756 1462.83 569.811 1465.19 Q567.89 1467.52 567.89 1471.92 L567.89 1485.58 L563.608 1485.58 L563.608 1459.65 L567.89 1459.65 L567.89 1463.68 Q569.233 1461.32 571.385 1460.19 Q573.538 1459.03 576.617 1459.03 Q577.057 1459.03 577.589 1459.1 Q578.122 1459.14 578.77 1459.26 L578.793 1463.64 Z" fill="#000000" fill-rule="nonzero" fill-opacity="1" /><path clip-path="url(#clip650)" d="M602.612 1464.63 Q604.209 1461.76 606.432 1460.39 Q608.654 1459.03 611.663 1459.03 Q615.714 1459.03 617.913 1461.88 Q620.112 1464.7 620.112 1469.93 L620.112 1485.58 L615.83 1485.58 L615.83 1470.07 Q615.83 1466.34 614.51 1464.54 Q613.191 1462.73 610.482 1462.73 Q607.172 1462.73 605.251 1464.93 Q603.33 1467.13 603.33 1470.93 L603.33 1485.58 L599.047 1485.58 L599.047 1470.07 Q599.047 1466.32 597.728 1464.54 Q596.408 1462.73 593.654 1462.73 Q590.39 1462.73 588.469 1464.95 Q586.547 1467.15 586.547 1470.93 L586.547 1485.58 L582.265 1485.58 L582.265 1459.65 L586.547 1459.65 L586.547 1463.68 Q588.006 1461.3 590.043 1460.16 Q592.08 1459.03 594.881 1459.03 Q597.705 1459.03 599.672 1460.46 Q601.663 1461.9 602.612 1464.63 Z" fill="#000000" fill-rule="nonzero" fill-opacity="1" /><path clip-path="url(#clip650)" d="M640.39 1472.55 Q635.228 1472.55 633.237 1473.73 Q631.246 1474.91 631.246 1477.76 Q631.246 1480.02 632.728 1481.37 Q634.232 1482.69 636.802 1482.69 Q640.343 1482.69 642.473 1480.19 Q644.626 1477.66 644.626 1473.5 L644.626 1472.55 L640.39 1472.55 M648.885 1470.79 L648.885 1485.58 L644.626 1485.58 L644.626 1481.64 Q643.167 1484.01 640.992 1485.14 Q638.816 1486.25 635.667 1486.25 Q631.686 1486.25 629.325 1484.03 Q626.987 1481.78 626.987 1478.03 Q626.987 1473.66 629.904 1471.44 Q632.843 1469.21 638.654 1469.21 L644.626 1469.21 L644.626 1468.8 Q644.626 1465.86 642.681 1464.26 Q640.76 1462.64 637.265 1462.64 Q635.042 1462.64 632.936 1463.17 Q630.83 1463.7 628.885 1464.77 L628.885 1460.83 Q631.223 1459.93 633.422 1459.49 Q635.621 1459.03 637.705 1459.03 Q643.329 1459.03 646.107 1461.95 Q648.885 1464.86 648.885 1470.79 Z" fill="#000000" fill-rule="nonzero" fill-opacity="1" /><path clip-path="url(#clip650)" d="M679.209 1469.93 L679.209 1485.58 L674.95 1485.58 L674.95 1470.07 Q674.95 1466.39 673.515 1464.56 Q672.079 1462.73 669.209 1462.73 Q665.76 1462.73 663.769 1464.93 Q661.778 1467.13 661.778 1470.93 L661.778 1485.58 L657.496 1485.58 L657.496 1459.65 L661.778 1459.65 L661.778 1463.68 Q663.306 1461.34 665.366 1460.19 Q667.45 1459.03 670.158 1459.03 Q674.626 1459.03 676.917 1461.81 Q679.209 1464.56 679.209 1469.93 Z" fill="#000000" fill-rule="nonzero" fill-opacity="1" /><path clip-path="url(#clip650)" d="M698.491 1487.99 Q696.686 1492.62 694.973 1494.03 Q693.26 1495.44 690.389 1495.44 L686.987 1495.44 L686.987 1491.88 L689.487 1491.88 Q691.246 1491.88 692.218 1491.04 Q693.19 1490.21 694.371 1487.11 L695.135 1485.16 L684.649 1459.65 L689.163 1459.65 L697.264 1479.93 L705.366 1459.65 L709.88 1459.65 L698.491 1487.99 Z" fill="#000000" fill-rule="nonzero" fill-opacity="1" /><path clip-path="url(#clip650)" d="M735.459 1493.45 L735.459 1496.76 L710.829 1496.76 L710.829 1493.45 L735.459 1493.45 Z" fill="#000000" fill-rule="nonzero" fill-opacity="1" /><path clip-path="url(#clip650)" d="M760.366 1452.15 L760.366 1456.71 Q757.704 1455.44 755.343 1454.82 Q752.982 1454.19 750.783 1454.19 Q746.963 1454.19 744.88 1455.67 Q742.82 1457.15 742.82 1459.89 Q742.82 1462.18 744.185 1463.36 Q745.574 1464.52 749.417 1465.23 L752.241 1465.81 Q757.472 1466.81 759.949 1469.33 Q762.449 1471.83 762.449 1476.04 Q762.449 1481.07 759.07 1483.66 Q755.713 1486.25 749.209 1486.25 Q746.755 1486.25 743.977 1485.7 Q741.222 1485.14 738.26 1484.05 L738.26 1479.24 Q741.107 1480.83 743.838 1481.64 Q746.57 1482.45 749.209 1482.45 Q753.213 1482.45 755.389 1480.88 Q757.565 1479.31 757.565 1476.39 Q757.565 1473.84 755.991 1472.41 Q754.44 1470.97 750.875 1470.26 L748.028 1469.7 Q742.797 1468.66 740.459 1466.44 Q738.121 1464.21 738.121 1460.26 Q738.121 1455.67 741.338 1453.03 Q744.579 1450.39 750.25 1450.39 Q752.681 1450.39 755.204 1450.83 Q757.727 1451.27 760.366 1452.15 Z" fill="#000000" fill-rule="nonzero" fill-opacity="1" /><path clip-path="url(#clip650)" d="M767.079 1459.65 L771.338 1459.65 L776.662 1479.89 L781.963 1459.65 L786.986 1459.65 L792.31 1479.89 L797.611 1459.65 L801.87 1459.65 L795.088 1485.58 L790.065 1485.58 L784.486 1464.33 L778.884 1485.58 L773.861 1485.58 L767.079 1459.65 Z" fill="#000000" fill-rule="nonzero" fill-opacity="1" /><path clip-path="url(#clip650)" d="M830.504 1471.55 L830.504 1473.64 L810.921 1473.64 Q811.199 1478.03 813.56 1480.35 Q815.944 1482.64 820.18 1482.64 Q822.634 1482.64 824.926 1482.04 Q827.241 1481.44 829.509 1480.23 L829.509 1484.26 Q827.217 1485.23 824.81 1485.74 Q822.403 1486.25 819.926 1486.25 Q813.722 1486.25 810.088 1482.64 Q806.477 1479.03 806.477 1472.87 Q806.477 1466.51 809.903 1462.78 Q813.352 1459.03 819.185 1459.03 Q824.416 1459.03 827.449 1462.41 Q830.504 1465.77 830.504 1471.55 M826.245 1470.3 Q826.199 1466.81 824.278 1464.72 Q822.379 1462.64 819.231 1462.64 Q815.667 1462.64 813.514 1464.65 Q811.384 1466.67 811.06 1470.33 L826.245 1470.3 Z" fill="#000000" fill-rule="nonzero" fill-opacity="1" /><path clip-path="url(#clip650)" d="M854.555 1463.59 L854.555 1449.56 L858.814 1449.56 L858.814 1485.58 L854.555 1485.58 L854.555 1481.69 Q853.213 1484.01 851.152 1485.14 Q849.115 1486.25 846.245 1486.25 Q841.546 1486.25 838.583 1482.5 Q835.643 1478.75 835.643 1472.64 Q835.643 1466.53 838.583 1462.78 Q841.546 1459.03 846.245 1459.03 Q849.115 1459.03 851.152 1460.16 Q853.213 1461.27 854.555 1463.59 M840.041 1472.64 Q840.041 1477.34 841.963 1480.02 Q843.907 1482.69 847.287 1482.69 Q850.666 1482.69 852.611 1480.02 Q854.555 1477.34 854.555 1472.64 Q854.555 1467.94 852.611 1465.28 Q850.666 1462.59 847.287 1462.59 Q843.907 1462.59 841.963 1465.28 Q840.041 1467.94 840.041 1472.64 Z" fill="#000000" fill-rule="nonzero" fill-opacity="1" /><path clip-path="url(#clip650)" d="M889.763 1471.55 L889.763 1473.64 L870.18 1473.64 Q870.458 1478.03 872.819 1480.35 Q875.203 1482.64 879.439 1482.64 Q881.893 1482.64 884.185 1482.04 Q886.499 1481.44 888.768 1480.23 L888.768 1484.26 Q886.476 1485.23 884.069 1485.74 Q881.662 1486.25 879.185 1486.25 Q872.981 1486.25 869.347 1482.64 Q865.736 1479.03 865.736 1472.87 Q865.736 1466.51 869.162 1462.78 Q872.611 1459.03 878.444 1459.03 Q883.675 1459.03 886.708 1462.41 Q889.763 1465.77 889.763 1471.55 M885.504 1470.3 Q885.458 1466.81 883.537 1464.72 Q881.638 1462.64 878.49 1462.64 Q874.925 1462.64 872.773 1464.65 Q870.643 1466.67 870.319 1470.33 L885.504 1470.3 Z" fill="#000000" fill-rule="nonzero" fill-opacity="1" /><path clip-path="url(#clip650)" d="M918.305 1469.93 L918.305 1485.58 L914.046 1485.58 L914.046 1470.07 Q914.046 1466.39 912.61 1464.56 Q911.175 1462.73 908.305 1462.73 Q904.856 1462.73 902.865 1464.93 Q900.874 1467.13 900.874 1470.93 L900.874 1485.58 L896.592 1485.58 L896.592 1459.65 L900.874 1459.65 L900.874 1463.68 Q902.402 1461.34 904.462 1460.19 Q906.546 1459.03 909.254 1459.03 Q913.722 1459.03 916.013 1461.81 Q918.305 1464.56 918.305 1469.93 Z" fill="#000000" fill-rule="nonzero" fill-opacity="1" /><path clip-path="url(#clip650)" d="M1143.94 1480.65 L1143.94 1471.37 L1136.3 1471.37 L1136.3 1467.52 L1148.57 1467.52 L1148.57 1482.36 Q1145.86 1484.28 1142.6 1485.28 Q1139.33 1486.25 1135.63 1486.25 Q1127.53 1486.25 1122.94 1481.53 Q1118.38 1476.78 1118.38 1468.33 Q1118.38 1459.86 1122.94 1455.14 Q1127.53 1450.39 1135.63 1450.39 Q1139.01 1450.39 1142.04 1451.23 Q1145.1 1452.06 1147.67 1453.68 L1147.67 1458.66 Q1145.07 1456.46 1142.16 1455.35 Q1139.24 1454.24 1136.02 1454.24 Q1129.68 1454.24 1126.49 1457.78 Q1123.31 1461.32 1123.31 1468.33 Q1123.31 1475.33 1126.49 1478.87 Q1129.68 1482.41 1136.02 1482.41 Q1138.5 1482.41 1140.44 1481.99 Q1142.39 1481.55 1143.94 1480.65 Z" fill="#000000" fill-rule="nonzero" fill-opacity="1" /><path clip-path="url(#clip650)" d="M1179.1 1471.55 L1179.1 1473.64 L1159.52 1473.64 Q1159.8 1478.03 1162.16 1480.35 Q1164.54 1482.64 1168.78 1482.64 Q1171.23 1482.64 1173.52 1482.04 Q1175.84 1481.44 1178.11 1480.23 L1178.11 1484.26 Q1175.81 1485.23 1173.41 1485.74 Q1171 1486.25 1168.52 1486.25 Q1162.32 1486.25 1158.68 1482.64 Q1155.07 1479.03 1155.07 1472.87 Q1155.07 1466.51 1158.5 1462.78 Q1161.95 1459.03 1167.78 1459.03 Q1173.01 1459.03 1176.05 1462.41 Q1179.1 1465.77 1179.1 1471.55 M1174.84 1470.3 Q1174.8 1466.81 1172.87 1464.72 Q1170.98 1462.64 1167.83 1462.64 Q1164.26 1462.64 1162.11 1464.65 Q1159.98 1466.67 1159.66 1470.33 L1174.84 1470.3 Z" fill="#000000" fill-rule="nonzero" fill-opacity="1" /><path clip-path="url(#clip650)" d="M1201.11 1463.64 Q1200.4 1463.22 1199.54 1463.03 Q1198.71 1462.83 1197.69 1462.83 Q1194.08 1462.83 1192.13 1465.19 Q1190.21 1467.52 1190.21 1471.92 L1190.21 1485.58 L1185.93 1485.58 L1185.93 1459.65 L1190.21 1459.65 L1190.21 1463.68 Q1191.55 1461.32 1193.71 1460.19 Q1195.86 1459.03 1198.94 1459.03 Q1199.38 1459.03 1199.91 1459.1 Q1200.44 1459.14 1201.09 1459.26 L1201.11 1463.64 Z" fill="#000000" fill-rule="nonzero" fill-opacity="1" /><path clip-path="url(#clip650)" d="M1224.93 1464.63 Q1226.53 1461.76 1228.75 1460.39 Q1230.98 1459.03 1233.98 1459.03 Q1238.04 1459.03 1240.23 1461.88 Q1242.43 1464.7 1242.43 1469.93 L1242.43 1485.58 L1238.15 1485.58 L1238.15 1470.07 Q1238.15 1466.34 1236.83 1464.54 Q1235.51 1462.73 1232.8 1462.73 Q1229.49 1462.73 1227.57 1464.93 Q1225.65 1467.13 1225.65 1470.93 L1225.65 1485.58 L1221.37 1485.58 L1221.37 1470.07 Q1221.37 1466.32 1220.05 1464.54 Q1218.73 1462.73 1215.98 1462.73 Q1212.71 1462.73 1210.79 1464.95 Q1208.87 1467.15 1208.87 1470.93 L1208.87 1485.58 L1204.59 1485.58 L1204.59 1459.65 L1208.87 1459.65 L1208.87 1463.68 Q1210.33 1461.3 1212.36 1460.16 Q1214.4 1459.03 1217.2 1459.03 Q1220.03 1459.03 1221.99 1460.46 Q1223.99 1461.9 1224.93 1464.63 Z" fill="#000000" fill-rule="nonzero" fill-opacity="1" /><path clip-path="url(#clip650)" d="M1262.71 1472.55 Q1257.55 1472.55 1255.56 1473.73 Q1253.57 1474.91 1253.57 1477.76 Q1253.57 1480.02 1255.05 1481.37 Q1256.55 1482.69 1259.12 1482.69 Q1262.67 1482.69 1264.79 1480.19 Q1266.95 1477.66 1266.95 1473.5 L1266.95 1472.55 L1262.71 1472.55 M1271.21 1470.79 L1271.21 1485.58 L1266.95 1485.58 L1266.95 1481.64 Q1265.49 1484.01 1263.31 1485.14 Q1261.14 1486.25 1257.99 1486.25 Q1254.01 1486.25 1251.65 1484.03 Q1249.31 1481.78 1249.31 1478.03 Q1249.31 1473.66 1252.23 1471.44 Q1255.17 1469.21 1260.98 1469.21 L1266.95 1469.21 L1266.95 1468.8 Q1266.95 1465.86 1265 1464.26 Q1263.08 1462.64 1259.59 1462.64 Q1257.36 1462.64 1255.26 1463.17 Q1253.15 1463.7 1251.21 1464.77 L1251.21 1460.83 Q1253.55 1459.93 1255.74 1459.49 Q1257.94 1459.03 1260.03 1459.03 Q1265.65 1459.03 1268.43 1461.95 Q1271.21 1464.86 1271.21 1470.79 Z" fill="#000000" fill-rule="nonzero" fill-opacity="1" /><path clip-path="url(#clip650)" d="M1301.53 1469.93 L1301.53 1485.58 L1297.27 1485.58 L1297.27 1470.07 Q1297.27 1466.39 1295.84 1464.56 Q1294.4 1462.73 1291.53 1462.73 Q1288.08 1462.73 1286.09 1464.93 Q1284.1 1467.13 1284.1 1470.93 L1284.1 1485.58 L1279.82 1485.58 L1279.82 1459.65 L1284.1 1459.65 L1284.1 1463.68 Q1285.63 1461.34 1287.69 1460.19 Q1289.77 1459.03 1292.48 1459.03 Q1296.95 1459.03 1299.24 1461.81 Q1301.53 1464.56 1301.53 1469.93 Z" fill="#000000" fill-rule="nonzero" fill-opacity="1" /><path clip-path="url(#clip650)" d="M1320.81 1487.99 Q1319.01 1492.62 1317.29 1494.03 Q1315.58 1495.44 1312.71 1495.44 L1309.31 1495.44 L1309.31 1491.88 L1311.81 1491.88 Q1313.57 1491.88 1314.54 1491.04 Q1315.51 1490.21 1316.69 1487.11 L1317.46 1485.16 L1306.97 1459.65 L1311.48 1459.65 L1319.59 1479.93 L1327.69 1459.65 L1332.2 1459.65 L1320.81 1487.99 Z" fill="#000000" fill-rule="nonzero" fill-opacity="1" /><path clip-path="url(#clip650)" d="M1357.78 1493.45 L1357.78 1496.76 L1333.15 1496.76 L1333.15 1493.45 L1357.78 1493.45 Z" fill="#000000" fill-rule="nonzero" fill-opacity="1" /><path clip-path="url(#clip650)" d="M1366.65 1454.86 L1366.65 1481.74 L1372.29 1481.74 Q1379.45 1481.74 1382.76 1478.5 Q1386.09 1475.26 1386.09 1468.27 Q1386.09 1461.32 1382.76 1458.1 Q1379.45 1454.86 1372.29 1454.86 L1366.65 1454.86 M1361.97 1451.02 L1371.58 1451.02 Q1381.62 1451.02 1386.32 1455.21 Q1391.02 1459.38 1391.02 1468.27 Q1391.02 1477.2 1386.3 1481.39 Q1381.58 1485.58 1371.58 1485.58 L1361.97 1485.58 L1361.97 1451.02 Z" fill="#000000" fill-rule="nonzero" fill-opacity="1" /><path clip-path="url(#clip650)" d="M1420.47 1471.55 L1420.47 1473.64 L1400.88 1473.64 Q1401.16 1478.03 1403.52 1480.35 Q1405.91 1482.64 1410.14 1482.64 Q1412.6 1482.64 1414.89 1482.04 Q1417.2 1481.44 1419.47 1480.23 L1419.47 1484.26 Q1417.18 1485.23 1414.77 1485.74 Q1412.36 1486.25 1409.89 1486.25 Q1403.68 1486.25 1400.05 1482.64 Q1396.44 1479.03 1396.44 1472.87 Q1396.44 1466.51 1399.86 1462.78 Q1403.31 1459.03 1409.15 1459.03 Q1414.38 1459.03 1417.41 1462.41 Q1420.47 1465.77 1420.47 1471.55 M1416.21 1470.3 Q1416.16 1466.81 1414.24 1464.72 Q1412.34 1462.64 1409.19 1462.64 Q1405.63 1462.64 1403.47 1464.65 Q1401.35 1466.67 1401.02 1470.33 L1416.21 1470.3 Z" fill="#000000" fill-rule="nonzero" fill-opacity="1" /><path clip-path="url(#clip650)" d="M1449.01 1469.93 L1449.01 1485.58 L1444.75 1485.58 L1444.75 1470.07 Q1444.75 1466.39 1443.31 1464.56 Q1441.88 1462.73 1439.01 1462.73 Q1435.56 1462.73 1433.57 1464.93 Q1431.58 1467.13 1431.58 1470.93 L1431.58 1485.58 L1427.29 1485.58 L1427.29 1459.65 L1431.58 1459.65 L1431.58 1463.68 Q1433.1 1461.34 1435.16 1460.19 Q1437.25 1459.03 1439.96 1459.03 Q1444.42 1459.03 1446.72 1461.81 Q1449.01 1464.56 1449.01 1469.93 Z" fill="#000000" fill-rule="nonzero" fill-opacity="1" /><path clip-path="url(#clip650)" d="M1477.69 1464.63 Q1479.28 1461.76 1481.51 1460.39 Q1483.73 1459.03 1486.74 1459.03 Q1490.79 1459.03 1492.99 1461.88 Q1495.19 1464.7 1495.19 1469.93 L1495.19 1485.58 L1490.9 1485.58 L1490.9 1470.07 Q1490.9 1466.34 1489.59 1464.54 Q1488.27 1462.73 1485.56 1462.73 Q1482.25 1462.73 1480.33 1464.93 Q1478.4 1467.13 1478.4 1470.93 L1478.4 1485.58 L1474.12 1485.58 L1474.12 1470.07 Q1474.12 1466.32 1472.8 1464.54 Q1471.48 1462.73 1468.73 1462.73 Q1465.47 1462.73 1463.54 1464.95 Q1461.62 1467.15 1461.62 1470.93 L1461.62 1485.58 L1457.34 1485.58 L1457.34 1459.65 L1461.62 1459.65 L1461.62 1463.68 Q1463.08 1461.3 1465.12 1460.16 Q1467.16 1459.03 1469.96 1459.03 Q1472.78 1459.03 1474.75 1460.46 Q1476.74 1461.9 1477.69 1464.63 Z" fill="#000000" fill-rule="nonzero" fill-opacity="1" /><path clip-path="url(#clip650)" d="M1515.46 1472.55 Q1510.3 1472.55 1508.31 1473.73 Q1506.32 1474.91 1506.32 1477.76 Q1506.32 1480.02 1507.8 1481.37 Q1509.31 1482.69 1511.88 1482.69 Q1515.42 1482.69 1517.55 1480.19 Q1519.7 1477.66 1519.7 1473.5 L1519.7 1472.55 L1515.46 1472.55 M1523.96 1470.79 L1523.96 1485.58 L1519.7 1485.58 L1519.7 1481.64 Q1518.24 1484.01 1516.07 1485.14 Q1513.89 1486.25 1510.74 1486.25 Q1506.76 1486.25 1504.4 1484.03 Q1502.06 1481.78 1502.06 1478.03 Q1502.06 1473.66 1504.98 1471.44 Q1507.92 1469.21 1513.73 1469.21 L1519.7 1469.21 L1519.7 1468.8 Q1519.7 1465.86 1517.76 1464.26 Q1515.84 1462.64 1512.34 1462.64 Q1510.12 1462.64 1508.01 1463.17 Q1505.9 1463.7 1503.96 1464.77 L1503.96 1460.83 Q1506.3 1459.93 1508.5 1459.49 Q1510.7 1459.03 1512.78 1459.03 Q1518.4 1459.03 1521.18 1461.95 Q1523.96 1464.86 1523.96 1470.79 Z" fill="#000000" fill-rule="nonzero" fill-opacity="1" /><path clip-path="url(#clip650)" d="M1547.76 1463.64 Q1547.04 1463.22 1546.18 1463.03 Q1545.35 1462.83 1544.33 1462.83 Q1540.72 1462.83 1538.78 1465.19 Q1536.85 1467.52 1536.85 1471.92 L1536.85 1485.58 L1532.57 1485.58 L1532.57 1459.65 L1536.85 1459.65 L1536.85 1463.68 Q1538.2 1461.32 1540.35 1460.19 Q1542.5 1459.03 1545.58 1459.03 Q1546.02 1459.03 1546.55 1459.1 Q1547.09 1459.14 1547.73 1459.26 L1547.76 1463.64 Z" fill="#000000" fill-rule="nonzero" fill-opacity="1" /><path clip-path="url(#clip650)" d="M1552.06 1449.56 L1556.34 1449.56 L1556.34 1470.83 L1569.05 1459.65 L1574.49 1459.65 L1560.74 1471.78 L1575.07 1485.58 L1569.52 1485.58 L1556.34 1472.92 L1556.34 1485.58 L1552.06 1485.58 L1552.06 1449.56 Z" fill="#000000" fill-rule="nonzero" fill-opacity="1" /><path clip-path="url(#clip650)" d="M1795.68 1452.15 L1795.68 1456.71 Q1793.02 1455.44 1790.66 1454.82 Q1788.3 1454.19 1786.1 1454.19 Q1782.28 1454.19 1780.2 1455.67 Q1778.14 1457.15 1778.14 1459.89 Q1778.14 1462.18 1779.5 1463.36 Q1780.89 1464.52 1784.73 1465.23 L1787.56 1465.81 Q1792.79 1466.81 1795.27 1469.33 Q1797.77 1471.83 1797.77 1476.04 Q1797.77 1481.07 1794.39 1483.66 Q1791.03 1486.25 1784.52 1486.25 Q1782.07 1486.25 1779.29 1485.7 Q1776.54 1485.14 1773.58 1484.05 L1773.58 1479.24 Q1776.42 1480.83 1779.15 1481.64 Q1781.89 1482.45 1784.52 1482.45 Q1788.53 1482.45 1790.71 1480.88 Q1792.88 1479.31 1792.88 1476.39 Q1792.88 1473.84 1791.31 1472.41 Q1789.76 1470.97 1786.19 1470.26 L1783.34 1469.7 Q1778.11 1468.66 1775.77 1466.44 Q1773.44 1464.21 1773.44 1460.26 Q1773.44 1455.67 1776.65 1453.03 Q1779.9 1450.39 1785.57 1450.39 Q1788 1450.39 1790.52 1450.83 Q1793.04 1451.27 1795.68 1452.15 Z" fill="#000000" fill-rule="nonzero" fill-opacity="1" /><path clip-path="url(#clip650)" d="M1802.4 1459.65 L1806.65 1459.65 L1811.98 1479.89 L1817.28 1459.65 L1822.3 1459.65 L1827.63 1479.89 L1832.93 1459.65 L1837.19 1459.65 L1830.4 1485.58 L1825.38 1485.58 L1819.8 1464.33 L1814.2 1485.58 L1809.18 1485.58 L1802.4 1459.65 Z" fill="#000000" fill-rule="nonzero" fill-opacity="1" /><path clip-path="url(#clip650)" d="M1865.82 1471.55 L1865.82 1473.64 L1846.24 1473.64 Q1846.52 1478.03 1848.88 1480.35 Q1851.26 1482.64 1855.5 1482.64 Q1857.95 1482.64 1860.24 1482.04 Q1862.56 1481.44 1864.83 1480.23 L1864.83 1484.26 Q1862.53 1485.23 1860.13 1485.74 Q1857.72 1486.25 1855.24 1486.25 Q1849.04 1486.25 1845.4 1482.64 Q1841.79 1479.03 1841.79 1472.87 Q1841.79 1466.51 1845.22 1462.78 Q1848.67 1459.03 1854.5 1459.03 Q1859.73 1459.03 1862.77 1462.41 Q1865.82 1465.77 1865.82 1471.55 M1861.56 1470.3 Q1861.52 1466.81 1859.59 1464.72 Q1857.7 1462.64 1854.55 1462.64 Q1850.98 1462.64 1848.83 1464.65 Q1846.7 1466.67 1846.38 1470.33 L1861.56 1470.3 Z" fill="#000000" fill-rule="nonzero" fill-opacity="1" /><path clip-path="url(#clip650)" d="M1889.87 1463.59 L1889.87 1449.56 L1894.13 1449.56 L1894.13 1485.58 L1889.87 1485.58 L1889.87 1481.69 Q1888.53 1484.01 1886.47 1485.14 Q1884.43 1486.25 1881.56 1486.25 Q1876.86 1486.25 1873.9 1482.5 Q1870.96 1478.75 1870.96 1472.64 Q1870.96 1466.53 1873.9 1462.78 Q1876.86 1459.03 1881.56 1459.03 Q1884.43 1459.03 1886.47 1460.16 Q1888.53 1461.27 1889.87 1463.59 M1875.36 1472.64 Q1875.36 1477.34 1877.28 1480.02 Q1879.22 1482.69 1882.6 1482.69 Q1885.98 1482.69 1887.93 1480.02 Q1889.87 1477.34 1889.87 1472.64 Q1889.87 1467.94 1887.93 1465.28 Q1885.98 1462.59 1882.6 1462.59 Q1879.22 1462.59 1877.28 1465.28 Q1875.36 1467.94 1875.36 1472.64 Z" fill="#000000" fill-rule="nonzero" fill-opacity="1" /><path clip-path="url(#clip650)" d="M1925.08 1471.55 L1925.08 1473.64 L1905.5 1473.64 Q1905.77 1478.03 1908.14 1480.35 Q1910.52 1482.64 1914.76 1482.64 Q1917.21 1482.64 1919.5 1482.04 Q1921.82 1481.44 1924.08 1480.23 L1924.08 1484.26 Q1921.79 1485.23 1919.39 1485.74 Q1916.98 1486.25 1914.5 1486.25 Q1908.3 1486.25 1904.66 1482.64 Q1901.05 1479.03 1901.05 1472.87 Q1901.05 1466.51 1904.48 1462.78 Q1907.93 1459.03 1913.76 1459.03 Q1918.99 1459.03 1922.02 1462.41 Q1925.08 1465.77 1925.08 1471.55 M1920.82 1470.3 Q1920.77 1466.81 1918.85 1464.72 Q1916.95 1462.64 1913.81 1462.64 Q1910.24 1462.64 1908.09 1464.65 Q1905.96 1466.67 1905.64 1470.33 L1920.82 1470.3 Z" fill="#000000" fill-rule="nonzero" fill-opacity="1" /><path clip-path="url(#clip650)" d="M1953.62 1469.93 L1953.62 1485.58 L1949.36 1485.58 L1949.36 1470.07 Q1949.36 1466.39 1947.93 1464.56 Q1946.49 1462.73 1943.62 1462.73 Q1940.17 1462.73 1938.18 1464.93 Q1936.19 1467.13 1936.19 1470.93 L1936.19 1485.58 L1931.91 1485.58 L1931.91 1459.65 L1936.19 1459.65 L1936.19 1463.68 Q1937.72 1461.34 1939.78 1460.19 Q1941.86 1459.03 1944.57 1459.03 Q1949.04 1459.03 1951.33 1461.81 Q1953.62 1464.56 1953.62 1469.93 Z" fill="#000000" fill-rule="nonzero" fill-opacity="1" /><path clip-path="url(#clip650)" d="M1981.82 1493.45 L1981.82 1496.76 L1957.19 1496.76 L1957.19 1493.45 L1981.82 1493.45 Z" fill="#000000" fill-rule="nonzero" fill-opacity="1" /><path clip-path="url(#clip650)" d="M1990.68 1454.86 L1990.68 1481.74 L1996.33 1481.74 Q2003.48 1481.74 2006.79 1478.5 Q2010.13 1475.26 2010.13 1468.27 Q2010.13 1461.32 2006.79 1458.1 Q2003.48 1454.86 1996.33 1454.86 L1990.68 1454.86 M1986.01 1451.02 L1995.61 1451.02 Q2005.66 1451.02 2010.36 1455.21 Q2015.06 1459.38 2015.06 1468.27 Q2015.06 1477.2 2010.33 1481.39 Q2005.61 1485.58 1995.61 1485.58 L1986.01 1485.58 L1986.01 1451.02 Z" fill="#000000" fill-rule="nonzero" fill-opacity="1" /><path clip-path="url(#clip650)" d="M2044.5 1471.55 L2044.5 1473.64 L2024.92 1473.64 Q2025.19 1478.03 2027.56 1480.35 Q2029.94 1482.64 2034.18 1482.64 Q2036.63 1482.64 2038.92 1482.04 Q2041.24 1481.44 2043.51 1480.23 L2043.51 1484.26 Q2041.21 1485.23 2038.81 1485.74 Q2036.4 1486.25 2033.92 1486.25 Q2027.72 1486.25 2024.08 1482.64 Q2020.47 1479.03 2020.47 1472.87 Q2020.47 1466.51 2023.9 1462.78 Q2027.35 1459.03 2033.18 1459.03 Q2038.41 1459.03 2041.44 1462.41 Q2044.5 1465.77 2044.5 1471.55 M2040.24 1470.3 Q2040.19 1466.81 2038.27 1464.72 Q2036.38 1462.64 2033.23 1462.64 Q2029.66 1462.64 2027.51 1464.65 Q2025.38 1466.67 2025.06 1470.33 L2040.24 1470.3 Z" fill="#000000" fill-rule="nonzero" fill-opacity="1" /><path clip-path="url(#clip650)" d="M2073.04 1469.93 L2073.04 1485.58 L2068.78 1485.58 L2068.78 1470.07 Q2068.78 1466.39 2067.35 1464.56 Q2065.91 1462.73 2063.04 1462.73 Q2059.59 1462.73 2057.6 1464.93 Q2055.61 1467.13 2055.61 1470.93 L2055.61 1485.58 L2051.33 1485.58 L2051.33 1459.65 L2055.61 1459.65 L2055.61 1463.68 Q2057.14 1461.34 2059.2 1460.19 Q2061.28 1459.03 2063.99 1459.03 Q2068.46 1459.03 2070.75 1461.81 Q2073.04 1464.56 2073.04 1469.93 Z" fill="#000000" fill-rule="nonzero" fill-opacity="1" /><path clip-path="url(#clip650)" d="M2101.72 1464.63 Q2103.32 1461.76 2105.54 1460.39 Q2107.76 1459.03 2110.77 1459.03 Q2114.82 1459.03 2117.02 1461.88 Q2119.22 1464.7 2119.22 1469.93 L2119.22 1485.58 L2114.94 1485.58 L2114.94 1470.07 Q2114.94 1466.34 2113.62 1464.54 Q2112.3 1462.73 2109.59 1462.73 Q2106.28 1462.73 2104.36 1464.93 Q2102.44 1467.13 2102.44 1470.93 L2102.44 1485.58 L2098.16 1485.58 L2098.16 1470.07 Q2098.16 1466.32 2096.84 1464.54 Q2095.52 1462.73 2092.76 1462.73 Q2089.5 1462.73 2087.58 1464.95 Q2085.66 1467.15 2085.66 1470.93 L2085.66 1485.58 L2081.38 1485.58 L2081.38 1459.65 L2085.66 1459.65 L2085.66 1463.68 Q2087.12 1461.3 2089.15 1460.16 Q2091.19 1459.03 2093.99 1459.03 Q2096.81 1459.03 2098.78 1460.46 Q2100.77 1461.9 2101.72 1464.63 Z" fill="#000000" fill-rule="nonzero" fill-opacity="1" /><path clip-path="url(#clip650)" d="M2139.5 1472.55 Q2134.34 1472.55 2132.35 1473.73 Q2130.36 1474.91 2130.36 1477.76 Q2130.36 1480.02 2131.84 1481.37 Q2133.34 1482.69 2135.91 1482.69 Q2139.45 1482.69 2141.58 1480.19 Q2143.74 1477.66 2143.74 1473.5 L2143.74 1472.55 L2139.5 1472.55 M2148 1470.79 L2148 1485.58 L2143.74 1485.58 L2143.74 1481.64 Q2142.28 1484.01 2140.1 1485.14 Q2137.93 1486.25 2134.78 1486.25 Q2130.8 1486.25 2128.44 1484.03 Q2126.1 1481.78 2126.1 1478.03 Q2126.1 1473.66 2129.01 1471.44 Q2131.95 1469.21 2137.76 1469.21 L2143.74 1469.21 L2143.74 1468.8 Q2143.74 1465.86 2141.79 1464.26 Q2139.87 1462.64 2136.37 1462.64 Q2134.15 1462.64 2132.05 1463.17 Q2129.94 1463.7 2128 1464.77 L2128 1460.83 Q2130.33 1459.93 2132.53 1459.49 Q2134.73 1459.03 2136.81 1459.03 Q2142.44 1459.03 2145.22 1461.95 Q2148 1464.86 2148 1470.79 Z" fill="#000000" fill-rule="nonzero" fill-opacity="1" /><path clip-path="url(#clip650)" d="M2171.79 1463.64 Q2171.07 1463.22 2170.22 1463.03 Q2169.38 1462.83 2168.37 1462.83 Q2164.75 1462.83 2162.81 1465.19 Q2160.89 1467.52 2160.89 1471.92 L2160.89 1485.58 L2156.61 1485.58 L2156.61 1459.65 L2160.89 1459.65 L2160.89 1463.68 Q2162.23 1461.32 2164.38 1460.19 Q2166.54 1459.03 2169.62 1459.03 Q2170.06 1459.03 2170.59 1459.1 Q2171.12 1459.14 2171.77 1459.26 L2171.79 1463.64 Z" fill="#000000" fill-rule="nonzero" fill-opacity="1" /><path clip-path="url(#clip650)" d="M2176.1 1449.56 L2180.38 1449.56 L2180.38 1470.83 L2193.09 1459.65 L2198.53 1459.65 L2184.78 1471.78 L2199.11 1485.58 L2193.55 1485.58 L2180.38 1472.92 L2180.38 1485.58 L2176.1 1485.58 L2176.1 1449.56 Z" fill="#000000" fill-rule="nonzero" fill-opacity="1" /><path clip-path="url(#clip650)" d="M1226.88 1533.76 L1226.88 1539.24 Q1224.39 1537.87 1221.88 1537.2 Q1219.4 1536.5 1216.85 1536.5 Q1211.15 1536.5 1208 1540.13 Q1204.85 1543.73 1204.85 1550.25 Q1204.85 1556.78 1208 1560.4 Q1211.15 1564 1216.85 1564 Q1219.4 1564 1221.88 1563.33 Q1224.39 1562.63 1226.88 1561.26 L1226.88 1566.68 Q1224.43 1567.82 1221.78 1568.39 Q1219.17 1568.97 1216.21 1568.97 Q1208.16 1568.97 1203.42 1563.91 Q1198.68 1558.85 1198.68 1550.25 Q1198.68 1541.53 1203.45 1536.53 Q1208.26 1531.54 1216.6 1531.54 Q1219.3 1531.54 1221.88 1532.11 Q1224.46 1532.65 1226.88 1533.76 Z" fill="#000000" fill-rule="nonzero" fill-opacity="1" /><path clip-path="url(#clip650)" d="M1250.88 1536.5 Q1246.17 1536.5 1243.43 1540.19 Q1240.69 1543.85 1240.69 1550.25 Q1240.69 1556.65 1243.4 1560.34 Q1246.13 1564 1250.88 1564 Q1255.55 1564 1258.29 1560.31 Q1261.03 1556.62 1261.03 1550.25 Q1261.03 1543.92 1258.29 1540.23 Q1255.55 1536.5 1250.88 1536.5 M1250.88 1531.54 Q1258.51 1531.54 1262.88 1536.5 Q1267.24 1541.47 1267.24 1550.25 Q1267.24 1559 1262.88 1564 Q1258.51 1568.97 1250.88 1568.97 Q1243.21 1568.97 1238.84 1564 Q1234.52 1559 1234.52 1550.25 Q1234.52 1541.47 1238.84 1536.5 Q1243.21 1531.54 1250.88 1531.54 Z" fill="#000000" fill-rule="nonzero" fill-opacity="1" /><path clip-path="url(#clip650)" d="M1276.34 1553.98 L1276.34 1532.4 L1282.2 1532.4 L1282.2 1553.75 Q1282.2 1558.81 1284.17 1561.36 Q1286.14 1563.87 1290.09 1563.87 Q1294.83 1563.87 1297.57 1560.85 Q1300.34 1557.83 1300.34 1552.61 L1300.34 1532.4 L1306.19 1532.4 L1306.19 1568.04 L1300.34 1568.04 L1300.34 1562.57 Q1298.2 1565.82 1295.37 1567.41 Q1292.57 1568.97 1288.85 1568.97 Q1282.7 1568.97 1279.52 1565.15 Q1276.34 1561.33 1276.34 1553.98 M1291.08 1531.54 L1291.08 1531.54 Z" fill="#000000" fill-rule="nonzero" fill-opacity="1" /><path clip-path="url(#clip650)" d="M1347.89 1546.53 L1347.89 1568.04 L1342.03 1568.04 L1342.03 1546.72 Q1342.03 1541.66 1340.06 1539.14 Q1338.09 1536.63 1334.14 1536.63 Q1329.4 1536.63 1326.66 1539.65 Q1323.92 1542.68 1323.92 1547.9 L1323.92 1568.04 L1318.03 1568.04 L1318.03 1532.4 L1323.92 1532.4 L1323.92 1537.93 Q1326.02 1534.72 1328.86 1533.13 Q1331.72 1531.54 1335.44 1531.54 Q1341.59 1531.54 1344.74 1535.36 Q1347.89 1539.14 1347.89 1546.53 Z" fill="#000000" fill-rule="nonzero" fill-opacity="1" /><path clip-path="url(#clip650)" d="M1365.36 1522.27 L1365.36 1532.4 L1377.43 1532.4 L1377.43 1536.95 L1365.36 1536.95 L1365.36 1556.3 Q1365.36 1560.66 1366.54 1561.9 Q1367.75 1563.14 1371.41 1563.14 L1377.43 1563.14 L1377.43 1568.04 L1371.41 1568.04 Q1364.63 1568.04 1362.05 1565.53 Q1359.47 1562.98 1359.47 1556.3 L1359.47 1536.95 L1355.18 1536.95 L1355.18 1532.4 L1359.47 1532.4 L1359.47 1522.27 L1365.36 1522.27 Z" fill="#000000" fill-rule="nonzero" fill-opacity="1" /><path clip-path="url(#clip650)" d="M1405.79 1537.87 Q1404.8 1537.3 1403.62 1537.04 Q1402.48 1536.76 1401.07 1536.76 Q1396.11 1536.76 1393.44 1540 Q1390.79 1543.22 1390.79 1549.27 L1390.79 1568.04 L1384.91 1568.04 L1384.91 1532.4 L1390.79 1532.4 L1390.79 1537.93 Q1392.64 1534.69 1395.6 1533.13 Q1398.56 1531.54 1402.79 1531.54 Q1403.4 1531.54 1404.13 1531.63 Q1404.86 1531.7 1405.75 1531.85 L1405.79 1537.87 Z" fill="#000000" fill-rule="nonzero" fill-opacity="1" /><path clip-path="url(#clip650)" d="M1411.93 1532.4 L1417.78 1532.4 L1417.78 1568.04 L1411.93 1568.04 L1411.93 1532.4 M1411.93 1518.52 L1417.78 1518.52 L1417.78 1525.93 L1411.93 1525.93 L1411.93 1518.52 Z" fill="#000000" fill-rule="nonzero" fill-opacity="1" /><path clip-path="url(#clip650)" d="M1460.53 1548.76 L1460.53 1551.62 L1433.6 1551.62 Q1433.99 1557.67 1437.23 1560.85 Q1440.51 1564 1446.33 1564 Q1449.71 1564 1452.86 1563.17 Q1456.04 1562.35 1459.16 1560.69 L1459.16 1566.23 Q1456.01 1567.57 1452.7 1568.27 Q1449.39 1568.97 1445.98 1568.97 Q1437.45 1568.97 1432.46 1564 Q1427.49 1559.04 1427.49 1550.57 Q1427.49 1541.82 1432.2 1536.69 Q1436.95 1531.54 1444.97 1531.54 Q1452.16 1531.54 1456.33 1536.18 Q1460.53 1540.8 1460.53 1548.76 M1454.67 1547.04 Q1454.61 1542.23 1451.97 1539.37 Q1449.36 1536.5 1445.03 1536.5 Q1440.13 1536.5 1437.17 1539.27 Q1434.24 1542.04 1433.79 1547.07 L1454.67 1547.04 Z" fill="#000000" fill-rule="nonzero" fill-opacity="1" /><path clip-path="url(#clip650)" d="M1492.87 1533.45 L1492.87 1538.98 Q1490.39 1537.71 1487.71 1537.07 Q1485.04 1536.44 1482.17 1536.44 Q1477.81 1536.44 1475.62 1537.77 Q1473.45 1539.11 1473.45 1541.79 Q1473.45 1543.82 1475.01 1545 Q1476.57 1546.15 1481.28 1547.2 L1483.29 1547.64 Q1489.53 1548.98 1492.14 1551.43 Q1494.78 1553.85 1494.78 1558.21 Q1494.78 1563.17 1490.83 1566.07 Q1486.92 1568.97 1480.04 1568.97 Q1477.18 1568.97 1474.06 1568.39 Q1470.97 1567.85 1467.53 1566.74 L1467.53 1560.69 Q1470.78 1562.38 1473.93 1563.24 Q1477.08 1564.07 1480.17 1564.07 Q1484.31 1564.07 1486.53 1562.66 Q1488.76 1561.23 1488.76 1558.65 Q1488.76 1556.27 1487.14 1554.99 Q1485.55 1553.72 1480.1 1552.54 L1478.07 1552.07 Q1472.63 1550.92 1470.21 1548.56 Q1467.79 1546.18 1467.79 1542.04 Q1467.79 1537.01 1471.35 1534.27 Q1474.92 1531.54 1481.47 1531.54 Q1484.72 1531.54 1487.58 1532.01 Q1490.45 1532.49 1492.87 1533.45 Z" fill="#000000" fill-rule="nonzero" fill-opacity="1" /><polyline clip-path="url(#clip652)" style="stroke:#000000; stroke-linecap:round; stroke-linejoin:round; stroke-width:2; stroke-opacity:0.1; fill:none" points="340.699,1388.11 2352.76,1388.11 "/>
<polyline clip-path="url(#clip652)" style="stroke:#000000; stroke-linecap:round; stroke-linejoin:round; stroke-width:2; stroke-opacity:0.1; fill:none" points="340.699,1132.51 2352.76,1132.51 "/>
<polyline clip-path="url(#clip652)" style="stroke:#000000; stroke-linecap:round; stroke-linejoin:round; stroke-width:2; stroke-opacity:0.1; fill:none" points="340.699,876.915 2352.76,876.915 "/>
<polyline clip-path="url(#clip652)" style="stroke:#000000; stroke-linecap:round; stroke-linejoin:round; stroke-width:2; stroke-opacity:0.1; fill:none" points="340.699,621.319 2352.76,621.319 "/>
<polyline clip-path="url(#clip652)" style="stroke:#000000; stroke-linecap:round; stroke-linejoin:round; stroke-width:2; stroke-opacity:0.1; fill:none" points="340.699,365.723 2352.76,365.723 "/>
<polyline clip-path="url(#clip650)" style="stroke:#000000; stroke-linecap:round; stroke-linejoin:round; stroke-width:4; stroke-opacity:1; fill:none" points="340.699,1423.18 340.699,183.952 "/>
<polyline clip-path="url(#clip650)" style="stroke:#000000; stroke-linecap:round; stroke-linejoin:round; stroke-width:4; stroke-opacity:1; fill:none" points="340.699,1388.11 359.597,1388.11 "/>
<polyline clip-path="url(#clip650)" style="stroke:#000000; stroke-linecap:round; stroke-linejoin:round; stroke-width:4; stroke-opacity:1; fill:none" points="340.699,1132.51 359.597,1132.51 "/>
<polyline clip-path="url(#clip650)" style="stroke:#000000; stroke-linecap:round; stroke-linejoin:round; stroke-width:4; stroke-opacity:1; fill:none" points="340.699,876.915 359.597,876.915 "/>
<polyline clip-path="url(#clip650)" style="stroke:#000000; stroke-linecap:round; stroke-linejoin:round; stroke-width:4; stroke-opacity:1; fill:none" points="340.699,621.319 359.597,621.319 "/>
<polyline clip-path="url(#clip650)" style="stroke:#000000; stroke-linecap:round; stroke-linejoin:round; stroke-width:4; stroke-opacity:1; fill:none" points="340.699,365.723 359.597,365.723 "/>
<path clip-path="url(#clip650)" d="M292.755 1373.91 Q289.143 1373.91 287.315 1377.47 Q285.509 1381.01 285.509 1388.14 Q285.509 1395.25 287.315 1398.81 Q289.143 1402.35 292.755 1402.35 Q296.389 1402.35 298.194 1398.81 Q300.023 1395.25 300.023 1388.14 Q300.023 1381.01 298.194 1377.47 Q296.389 1373.91 292.755 1373.91 M292.755 1370.2 Q298.565 1370.2 301.62 1374.81 Q304.699 1379.39 304.699 1388.14 Q304.699 1396.87 301.62 1401.48 Q298.565 1406.06 292.755 1406.06 Q286.944 1406.06 283.866 1401.48 Q280.81 1396.87 280.81 1388.14 Q280.81 1379.39 283.866 1374.81 Q286.944 1370.2 292.755 1370.2 Z" fill="#000000" fill-rule="nonzero" fill-opacity="1" /><path clip-path="url(#clip650)" d="M117.825 1152.3 L125.464 1152.3 L125.464 1125.94 L117.154 1127.6 L117.154 1123.35 L125.418 1121.68 L130.093 1121.68 L130.093 1152.3 L137.732 1152.3 L137.732 1156.24 L117.825 1156.24 L117.825 1152.3 Z" fill="#000000" fill-rule="nonzero" fill-opacity="1" /><path clip-path="url(#clip650)" d="M147.177 1150.36 L152.061 1150.36 L152.061 1156.24 L147.177 1156.24 L147.177 1150.36 Z" fill="#000000" fill-rule="nonzero" fill-opacity="1" /><path clip-path="url(#clip650)" d="M172.246 1124.76 Q168.635 1124.76 166.806 1128.32 Q165.001 1131.86 165.001 1138.99 Q165.001 1146.1 166.806 1149.66 Q168.635 1153.21 172.246 1153.21 Q175.88 1153.21 177.686 1149.66 Q179.514 1146.1 179.514 1138.99 Q179.514 1131.86 177.686 1128.32 Q175.88 1124.76 172.246 1124.76 M172.246 1121.05 Q178.056 1121.05 181.112 1125.66 Q184.19 1130.24 184.19 1138.99 Q184.19 1147.72 181.112 1152.33 Q178.056 1156.91 172.246 1156.91 Q166.436 1156.91 163.357 1152.33 Q160.302 1147.72 160.302 1138.99 Q160.302 1130.24 163.357 1125.66 Q166.436 1121.05 172.246 1121.05 Z" fill="#000000" fill-rule="nonzero" fill-opacity="1" /><path clip-path="url(#clip650)" d="M220.579 1130.78 L210 1141.4 L220.579 1151.98 L217.824 1154.78 L207.199 1144.16 L196.575 1154.78 L193.843 1151.98 L204.399 1141.4 L193.843 1130.78 L196.575 1127.98 L207.199 1138.6 L217.824 1127.98 L220.579 1130.78 Z" fill="#000000" fill-rule="nonzero" fill-opacity="1" /><path clip-path="url(#clip650)" d="M232.94 1152.3 L240.579 1152.3 L240.579 1125.94 L232.269 1127.6 L232.269 1123.35 L240.533 1121.68 L245.209 1121.68 L245.209 1152.3 L252.847 1152.3 L252.847 1156.24 L232.94 1156.24 L232.94 1152.3 Z" fill="#000000" fill-rule="nonzero" fill-opacity="1" /><path clip-path="url(#clip650)" d="M272.292 1124.76 Q268.681 1124.76 266.852 1128.32 Q265.046 1131.86 265.046 1138.99 Q265.046 1146.1 266.852 1149.66 Q268.681 1153.21 272.292 1153.21 Q275.926 1153.21 277.732 1149.66 Q279.56 1146.1 279.56 1138.99 Q279.56 1131.86 277.732 1128.32 Q275.926 1124.76 272.292 1124.76 M272.292 1121.05 Q278.102 1121.05 281.157 1125.66 Q284.236 1130.24 284.236 1138.99 Q284.236 1147.72 281.157 1152.33 Q278.102 1156.91 272.292 1156.91 Q266.482 1156.91 263.403 1152.33 Q260.347 1147.72 260.347 1138.99 Q260.347 1130.24 263.403 1125.66 Q266.482 1121.05 272.292 1121.05 Z" fill="#000000" fill-rule="nonzero" fill-opacity="1" /><path clip-path="url(#clip650)" d="M296.913 1104.06 L287.321 1119.05 L296.913 1119.05 L296.913 1104.06 M295.916 1100.75 L300.693 1100.75 L300.693 1119.05 L304.699 1119.05 L304.699 1122.21 L300.693 1122.21 L300.693 1128.83 L296.913 1128.83 L296.913 1122.21 L284.236 1122.21 L284.236 1118.54 L295.916 1100.75 Z" fill="#000000" fill-rule="nonzero" fill-opacity="1" /><path clip-path="url(#clip650)" d="M121.043 896.708 L137.362 896.708 L137.362 900.643 L115.418 900.643 L115.418 896.708 Q118.08 893.953 122.663 889.324 Q127.269 884.671 128.45 883.328 Q130.695 880.805 131.575 879.069 Q132.478 877.31 132.478 875.62 Q132.478 872.865 130.533 871.129 Q128.612 869.393 125.51 869.393 Q123.311 869.393 120.857 870.157 Q118.427 870.921 115.649 872.472 L115.649 867.75 Q118.473 866.615 120.927 866.037 Q123.38 865.458 125.418 865.458 Q130.788 865.458 133.982 868.143 Q137.177 870.828 137.177 875.319 Q137.177 877.449 136.367 879.37 Q135.579 881.268 133.473 883.861 Q132.894 884.532 129.792 887.75 Q126.691 890.944 121.043 896.708 Z" fill="#000000" fill-rule="nonzero" fill-opacity="1" /><path clip-path="url(#clip650)" d="M147.177 894.763 L152.061 894.763 L152.061 900.643 L147.177 900.643 L147.177 894.763 Z" fill="#000000" fill-rule="nonzero" fill-opacity="1" /><path clip-path="url(#clip650)" d="M172.246 869.162 Q168.635 869.162 166.806 872.726 Q165.001 876.268 165.001 883.398 Q165.001 890.504 166.806 894.069 Q168.635 897.611 172.246 897.611 Q175.88 897.611 177.686 894.069 Q179.514 890.504 179.514 883.398 Q179.514 876.268 177.686 872.726 Q175.88 869.162 172.246 869.162 M172.246 865.458 Q178.056 865.458 181.112 870.064 Q184.19 874.648 184.19 883.398 Q184.19 892.125 181.112 896.731 Q178.056 901.314 172.246 901.314 Q166.436 901.314 163.357 896.731 Q160.302 892.125 160.302 883.398 Q160.302 874.648 163.357 870.064 Q166.436 865.458 172.246 865.458 Z" fill="#000000" fill-rule="nonzero" fill-opacity="1" /><path clip-path="url(#clip650)" d="M220.579 875.18 L210 885.805 L220.579 896.384 L217.824 899.185 L207.199 888.56 L196.575 899.185 L193.843 896.384 L204.399 885.805 L193.843 875.18 L196.575 872.379 L207.199 883.004 L217.824 872.379 L220.579 875.18 Z" fill="#000000" fill-rule="nonzero" fill-opacity="1" /><path clip-path="url(#clip650)" d="M232.94 896.708 L240.579 896.708 L240.579 870.342 L232.269 872.009 L232.269 867.75 L240.533 866.083 L245.209 866.083 L245.209 896.708 L252.847 896.708 L252.847 900.643 L232.94 900.643 L232.94 896.708 Z" fill="#000000" fill-rule="nonzero" fill-opacity="1" /><path clip-path="url(#clip650)" d="M272.292 869.162 Q268.681 869.162 266.852 872.726 Q265.046 876.268 265.046 883.398 Q265.046 890.504 266.852 894.069 Q268.681 897.611 272.292 897.611 Q275.926 897.611 277.732 894.069 Q279.56 890.504 279.56 883.398 Q279.56 876.268 277.732 872.726 Q275.926 869.162 272.292 869.162 M272.292 865.458 Q278.102 865.458 281.157 870.064 Q284.236 874.648 284.236 883.398 Q284.236 892.125 281.157 896.731 Q278.102 901.314 272.292 901.314 Q266.482 901.314 263.403 896.731 Q260.347 892.125 260.347 883.398 Q260.347 874.648 263.403 870.064 Q266.482 865.458 272.292 865.458 Z" fill="#000000" fill-rule="nonzero" fill-opacity="1" /><path clip-path="url(#clip650)" d="M296.913 848.463 L287.321 863.453 L296.913 863.453 L296.913 848.463 M295.916 845.153 L300.693 845.153 L300.693 863.453 L304.699 863.453 L304.699 866.612 L300.693 866.612 L300.693 873.233 L296.913 873.233 L296.913 866.612 L284.236 866.612 L284.236 862.945 L295.916 845.153 Z" fill="#000000" fill-rule="nonzero" fill-opacity="1" /><path clip-path="url(#clip650)" d="M131.181 626.413 Q134.538 627.13 136.413 629.399 Q138.311 631.667 138.311 635.001 Q138.311 640.116 134.792 642.917 Q131.274 645.718 124.793 645.718 Q122.617 645.718 120.302 645.278 Q118.01 644.862 115.556 644.005 L115.556 639.491 Q117.501 640.626 119.816 641.204 Q122.13 641.783 124.654 641.783 Q129.052 641.783 131.343 640.047 Q133.658 638.311 133.658 635.001 Q133.658 631.945 131.505 630.232 Q129.376 628.496 125.556 628.496 L121.529 628.496 L121.529 624.654 L125.742 624.654 Q129.191 624.654 131.019 623.288 Q132.848 621.899 132.848 619.306 Q132.848 616.644 130.95 615.232 Q129.075 613.797 125.556 613.797 Q123.635 613.797 121.436 614.214 Q119.237 614.631 116.598 615.51 L116.598 611.343 Q119.26 610.603 121.575 610.232 Q123.913 609.862 125.973 609.862 Q131.297 609.862 134.399 612.293 Q137.501 614.7 137.501 618.82 Q137.501 621.691 135.857 623.681 Q134.214 625.649 131.181 626.413 Z" fill="#000000" fill-rule="nonzero" fill-opacity="1" /><path clip-path="url(#clip650)" d="M147.177 639.167 L152.061 639.167 L152.061 645.047 L147.177 645.047 L147.177 639.167 Z" fill="#000000" fill-rule="nonzero" fill-opacity="1" /><path clip-path="url(#clip650)" d="M172.246 613.566 Q168.635 613.566 166.806 617.13 Q165.001 620.672 165.001 627.802 Q165.001 634.908 166.806 638.473 Q168.635 642.015 172.246 642.015 Q175.88 642.015 177.686 638.473 Q179.514 634.908 179.514 627.802 Q179.514 620.672 177.686 617.13 Q175.88 613.566 172.246 613.566 M172.246 609.862 Q178.056 609.862 181.112 614.468 Q184.19 619.052 184.19 627.802 Q184.19 636.529 181.112 641.135 Q178.056 645.718 172.246 645.718 Q166.436 645.718 163.357 641.135 Q160.302 636.529 160.302 627.802 Q160.302 619.052 163.357 614.468 Q166.436 609.862 172.246 609.862 Z" fill="#000000" fill-rule="nonzero" fill-opacity="1" /><path clip-path="url(#clip650)" d="M220.579 619.584 L210 630.209 L220.579 640.788 L217.824 643.589 L207.199 632.964 L196.575 643.589 L193.843 640.788 L204.399 630.209 L193.843 619.584 L196.575 616.783 L207.199 627.408 L217.824 616.783 L220.579 619.584 Z" fill="#000000" fill-rule="nonzero" fill-opacity="1" /><path clip-path="url(#clip650)" d="M232.94 641.112 L240.579 641.112 L240.579 614.746 L232.269 616.413 L232.269 612.154 L240.533 610.487 L245.209 610.487 L245.209 641.112 L252.847 641.112 L252.847 645.047 L232.94 645.047 L232.94 641.112 Z" fill="#000000" fill-rule="nonzero" fill-opacity="1" /><path clip-path="url(#clip650)" d="M272.292 613.566 Q268.681 613.566 266.852 617.13 Q265.046 620.672 265.046 627.802 Q265.046 634.908 266.852 638.473 Q268.681 642.015 272.292 642.015 Q275.926 642.015 277.732 638.473 Q279.56 634.908 279.56 627.802 Q279.56 620.672 277.732 617.13 Q275.926 613.566 272.292 613.566 M272.292 609.862 Q278.102 609.862 281.157 614.468 Q284.236 619.052 284.236 627.802 Q284.236 636.529 281.157 641.135 Q278.102 645.718 272.292 645.718 Q266.482 645.718 263.403 641.135 Q260.347 636.529 260.347 627.802 Q260.347 619.052 263.403 614.468 Q266.482 609.862 272.292 609.862 Z" fill="#000000" fill-rule="nonzero" fill-opacity="1" /><path clip-path="url(#clip650)" d="M296.913 592.867 L287.321 607.857 L296.913 607.857 L296.913 592.867 M295.916 589.557 L300.693 589.557 L300.693 607.857 L304.699 607.857 L304.699 611.016 L300.693 611.016 L300.693 617.637 L296.913 617.637 L296.913 611.016 L284.236 611.016 L284.236 607.349 L295.916 589.557 Z" fill="#000000" fill-rule="nonzero" fill-opacity="1" /><path clip-path="url(#clip650)" d="M129.862 358.965 L118.056 377.414 L129.862 377.414 L129.862 358.965 M128.635 354.891 L134.515 354.891 L134.515 377.414 L139.445 377.414 L139.445 381.303 L134.515 381.303 L134.515 389.451 L129.862 389.451 L129.862 381.303 L114.26 381.303 L114.26 376.789 L128.635 354.891 Z" fill="#000000" fill-rule="nonzero" fill-opacity="1" /><path clip-path="url(#clip650)" d="M147.177 383.571 L152.061 383.571 L152.061 389.451 L147.177 389.451 L147.177 383.571 Z" fill="#000000" fill-rule="nonzero" fill-opacity="1" /><path clip-path="url(#clip650)" d="M172.246 357.97 Q168.635 357.97 166.806 361.535 Q165.001 365.076 165.001 372.206 Q165.001 379.312 166.806 382.877 Q168.635 386.419 172.246 386.419 Q175.88 386.419 177.686 382.877 Q179.514 379.312 179.514 372.206 Q179.514 365.076 177.686 361.535 Q175.88 357.97 172.246 357.97 M172.246 354.266 Q178.056 354.266 181.112 358.872 Q184.19 363.456 184.19 372.206 Q184.19 380.933 181.112 385.539 Q178.056 390.122 172.246 390.122 Q166.436 390.122 163.357 385.539 Q160.302 380.933 160.302 372.206 Q160.302 363.456 163.357 358.872 Q166.436 354.266 172.246 354.266 Z" fill="#000000" fill-rule="nonzero" fill-opacity="1" /><path clip-path="url(#clip650)" d="M220.579 363.988 L210 374.613 L220.579 385.192 L217.824 387.993 L207.199 377.368 L196.575 387.993 L193.843 385.192 L204.399 374.613 L193.843 363.988 L196.575 361.187 L207.199 371.812 L217.824 361.187 L220.579 363.988 Z" fill="#000000" fill-rule="nonzero" fill-opacity="1" /><path clip-path="url(#clip650)" d="M232.94 385.516 L240.579 385.516 L240.579 359.15 L232.269 360.817 L232.269 356.558 L240.533 354.891 L245.209 354.891 L245.209 385.516 L252.847 385.516 L252.847 389.451 L232.94 389.451 L232.94 385.516 Z" fill="#000000" fill-rule="nonzero" fill-opacity="1" /><path clip-path="url(#clip650)" d="M272.292 357.97 Q268.681 357.97 266.852 361.535 Q265.046 365.076 265.046 372.206 Q265.046 379.312 266.852 382.877 Q268.681 386.419 272.292 386.419 Q275.926 386.419 277.732 382.877 Q279.56 379.312 279.56 372.206 Q279.56 365.076 277.732 361.535 Q275.926 357.97 272.292 357.97 M272.292 354.266 Q278.102 354.266 281.157 358.872 Q284.236 363.456 284.236 372.206 Q284.236 380.933 281.157 385.539 Q278.102 390.122 272.292 390.122 Q266.482 390.122 263.403 385.539 Q260.347 380.933 260.347 372.206 Q260.347 363.456 263.403 358.872 Q266.482 354.266 272.292 354.266 Z" fill="#000000" fill-rule="nonzero" fill-opacity="1" /><path clip-path="url(#clip650)" d="M296.913 337.271 L287.321 352.261 L296.913 352.261 L296.913 337.271 M295.916 333.961 L300.693 333.961 L300.693 352.261 L304.699 352.261 L304.699 355.42 L300.693 355.42 L300.693 362.041 L296.913 362.041 L296.913 355.42 L284.236 355.42 L284.236 351.753 L295.916 333.961 Z" fill="#000000" fill-rule="nonzero" fill-opacity="1" /><path clip-path="url(#clip650)" d="M16.4842 1287.14 L16.4842 1246.94 L21.895 1246.94 L21.895 1263.81 L64.0042 1263.81 L64.0042 1270.27 L21.895 1270.27 L21.895 1287.14 L16.4842 1287.14 Z" fill="#000000" fill-rule="nonzero" fill-opacity="1" /><path clip-path="url(#clip650)" d="M33.8307 1229.91 Q33.2578 1230.9 33.0032 1232.07 Q32.7167 1233.22 32.7167 1234.62 Q32.7167 1239.59 35.9632 1242.26 Q39.1779 1244.9 45.2253 1244.9 L64.0042 1244.9 L64.0042 1250.79 L28.3562 1250.79 L28.3562 1244.9 L33.8944 1244.9 Q30.6479 1243.05 29.0883 1240.09 Q27.4968 1237.13 27.4968 1232.9 Q27.4968 1232.3 27.5923 1231.56 Q27.656 1230.83 27.8151 1229.94 L33.8307 1229.91 Z" fill="#000000" fill-rule="nonzero" fill-opacity="1" /><path clip-path="url(#clip650)" d="M46.0847 1207.57 Q46.0847 1214.66 47.7079 1217.4 Q49.3312 1220.14 53.2461 1220.14 Q56.3653 1220.14 58.2114 1218.1 Q60.0256 1216.03 60.0256 1212.5 Q60.0256 1207.63 56.5881 1204.7 Q53.1188 1201.74 47.3897 1201.74 L46.0847 1201.74 L46.0847 1207.57 M43.6657 1195.88 L64.0042 1195.88 L64.0042 1201.74 L58.5933 1201.74 Q61.8398 1203.75 63.3994 1206.74 Q64.9272 1209.73 64.9272 1214.06 Q64.9272 1219.53 61.8716 1222.78 Q58.7843 1225.99 53.6281 1225.99 Q47.6125 1225.99 44.5569 1221.98 Q41.5014 1217.94 41.5014 1209.95 L41.5014 1201.74 L40.9285 1201.74 Q36.8862 1201.74 34.6901 1204.41 Q32.4621 1207.06 32.4621 1211.86 Q32.4621 1214.92 33.1941 1217.81 Q33.9262 1220.71 35.3903 1223.38 L29.9795 1223.38 Q28.7381 1220.17 28.1334 1217.15 Q27.4968 1214.12 27.4968 1211.26 Q27.4968 1203.52 31.5072 1199.7 Q35.5176 1195.88 43.6657 1195.88 Z" fill="#000000" fill-rule="nonzero" fill-opacity="1" /><path clip-path="url(#clip650)" d="M42.4881 1154.19 L64.0042 1154.19 L64.0042 1160.05 L42.679 1160.05 Q37.6183 1160.05 35.1038 1162.02 Q32.5894 1163.99 32.5894 1167.94 Q32.5894 1172.68 35.6131 1175.42 Q38.6368 1178.16 43.8567 1178.16 L64.0042 1178.16 L64.0042 1184.04 L28.3562 1184.04 L28.3562 1178.16 L33.8944 1178.16 Q30.6797 1176.06 29.0883 1173.22 Q27.4968 1170.36 27.4968 1166.63 Q27.4968 1160.49 31.3163 1157.34 Q35.1038 1154.19 42.4881 1154.19 Z" fill="#000000" fill-rule="nonzero" fill-opacity="1" /><path clip-path="url(#clip650)" d="M29.4065 1119.78 L34.9447 1119.78 Q33.6716 1122.27 33.035 1124.94 Q32.3984 1127.61 32.3984 1130.48 Q32.3984 1134.84 33.7352 1137.03 Q35.072 1139.2 37.7456 1139.2 Q39.7826 1139.2 40.9603 1137.64 Q42.1061 1136.08 43.1565 1131.37 L43.6021 1129.36 Q44.9389 1123.12 47.3897 1120.51 Q49.8086 1117.87 54.1691 1117.87 Q59.1344 1117.87 62.0308 1121.82 Q64.9272 1125.73 64.9272 1132.61 Q64.9272 1135.47 64.3543 1138.59 Q63.8132 1141.68 62.6992 1145.12 L56.6518 1145.12 Q58.3387 1141.87 59.198 1138.72 Q60.0256 1135.57 60.0256 1132.48 Q60.0256 1128.34 58.6251 1126.12 Q57.1929 1123.89 54.6147 1123.89 Q52.2276 1123.89 50.9545 1125.51 Q49.6813 1127.1 48.5037 1132.55 L48.0262 1134.58 Q46.8804 1140.03 44.5251 1142.44 Q42.138 1144.86 38.0002 1144.86 Q32.9713 1144.86 30.2341 1141.3 Q27.4968 1137.73 27.4968 1131.18 Q27.4968 1127.93 27.9743 1125.07 Q28.4517 1122.2 29.4065 1119.78 Z" fill="#000000" fill-rule="nonzero" fill-opacity="1" /><path clip-path="url(#clip650)" d="M35.1993 1080.79 Q31.2526 1078.6 29.3747 1075.54 Q27.4968 1072.49 27.4968 1068.35 Q27.4968 1062.78 31.4117 1059.75 Q35.2948 1056.73 42.4881 1056.73 L64.0042 1056.73 L64.0042 1062.62 L42.679 1062.62 Q37.5546 1062.62 35.072 1064.43 Q32.5894 1066.25 32.5894 1069.97 Q32.5894 1074.52 35.6131 1077.16 Q38.6368 1079.81 43.8567 1079.81 L64.0042 1079.81 L64.0042 1085.69 L42.679 1085.69 Q37.5228 1085.69 35.072 1087.51 Q32.5894 1089.32 32.5894 1093.11 Q32.5894 1097.6 35.6449 1100.24 Q38.6686 1102.88 43.8567 1102.88 L64.0042 1102.88 L64.0042 1108.77 L28.3562 1108.77 L28.3562 1102.88 L33.8944 1102.88 Q30.616 1100.88 29.0564 1098.08 Q27.4968 1095.27 27.4968 1091.42 Q27.4968 1087.54 29.4702 1084.83 Q31.4436 1082.1 35.1993 1080.79 Z" fill="#000000" fill-rule="nonzero" fill-opacity="1" /><path clip-path="url(#clip650)" d="M28.3562 1045.05 L28.3562 1039.19 L64.0042 1039.19 L64.0042 1045.05 L28.3562 1045.05 M14.479 1045.05 L14.479 1039.19 L21.895 1039.19 L21.895 1045.05 L14.479 1045.05 Z" fill="#000000" fill-rule="nonzero" fill-opacity="1" /><path clip-path="url(#clip650)" d="M29.4065 1004.21 L34.9447 1004.21 Q33.6716 1006.7 33.035 1009.37 Q32.3984 1012.04 32.3984 1014.91 Q32.3984 1019.27 33.7352 1021.46 Q35.072 1023.63 37.7456 1023.63 Q39.7826 1023.63 40.9603 1022.07 Q42.1061 1020.51 43.1565 1015.8 L43.6021 1013.79 Q44.9389 1007.56 47.3897 1004.95 Q49.8086 1002.3 54.1691 1002.3 Q59.1344 1002.3 62.0308 1006.25 Q64.9272 1010.16 64.9272 1017.04 Q64.9272 1019.9 64.3543 1023.02 Q63.8132 1026.11 62.6992 1029.55 L56.6518 1029.55 Q58.3387 1026.3 59.198 1023.15 Q60.0256 1020 60.0256 1016.91 Q60.0256 1012.77 58.6251 1010.55 Q57.1929 1008.32 54.6147 1008.32 Q52.2276 1008.32 50.9545 1009.94 Q49.6813 1011.53 48.5037 1016.98 L48.0262 1019.01 Q46.8804 1024.46 44.5251 1026.87 Q42.138 1029.29 38.0002 1029.29 Q32.9713 1029.29 30.2341 1025.73 Q27.4968 1022.16 27.4968 1015.61 Q27.4968 1012.36 27.9743 1009.5 Q28.4517 1006.63 29.4065 1004.21 Z" fill="#000000" fill-rule="nonzero" fill-opacity="1" /><path clip-path="url(#clip650)" d="M29.4065 970.252 L34.9447 970.252 Q33.6716 972.735 33.035 975.408 Q32.3984 978.082 32.3984 980.946 Q32.3984 985.307 33.7352 987.503 Q35.072 989.667 37.7456 989.667 Q39.7826 989.667 40.9603 988.108 Q42.1061 986.548 43.1565 981.838 L43.6021 979.832 Q44.9389 973.594 47.3897 970.984 Q49.8086 968.342 54.1691 968.342 Q59.1344 968.342 62.0308 972.289 Q64.9272 976.204 64.9272 983.079 Q64.9272 985.943 64.3543 989.063 Q63.8132 992.15 62.6992 995.588 L56.6518 995.588 Q58.3387 992.341 59.198 989.19 Q60.0256 986.039 60.0256 982.952 Q60.0256 978.814 58.6251 976.586 Q57.1929 974.358 54.6147 974.358 Q52.2276 974.358 50.9545 975.981 Q49.6813 977.573 48.5037 983.015 L48.0262 985.052 Q46.8804 990.495 44.5251 992.914 Q42.138 995.333 38.0002 995.333 Q32.9713 995.333 30.2341 991.768 Q27.4968 988.203 27.4968 981.647 Q27.4968 978.4 27.9743 975.536 Q28.4517 972.671 29.4065 970.252 Z" fill="#000000" fill-rule="nonzero" fill-opacity="1" /><path clip-path="url(#clip650)" d="M28.3562 959.017 L28.3562 953.16 L64.0042 953.16 L64.0042 959.017 L28.3562 959.017 M14.479 959.017 L14.479 953.16 L21.895 953.16 L21.895 959.017 L14.479 959.017 Z" fill="#000000" fill-rule="nonzero" fill-opacity="1" /><path clip-path="url(#clip650)" d="M32.4621 927.093 Q32.4621 931.803 36.1542 934.54 Q39.8145 937.278 46.212 937.278 Q52.6095 937.278 56.3017 934.572 Q59.9619 931.835 59.9619 927.093 Q59.9619 922.414 56.2698 919.676 Q52.5777 916.939 46.212 916.939 Q39.8781 916.939 36.186 919.676 Q32.4621 922.414 32.4621 927.093 M27.4968 927.093 Q27.4968 919.454 32.4621 915.093 Q37.4273 910.733 46.212 910.733 Q54.9649 910.733 59.9619 915.093 Q64.9272 919.454 64.9272 927.093 Q64.9272 934.763 59.9619 939.124 Q54.9649 943.452 46.212 943.452 Q37.4273 943.452 32.4621 939.124 Q27.4968 934.763 27.4968 927.093 Z" fill="#000000" fill-rule="nonzero" fill-opacity="1" /><path clip-path="url(#clip650)" d="M42.4881 871.393 L64.0042 871.393 L64.0042 877.249 L42.679 877.249 Q37.6183 877.249 35.1038 879.222 Q32.5894 881.196 32.5894 885.143 Q32.5894 889.885 35.6131 892.622 Q38.6368 895.359 43.8567 895.359 L64.0042 895.359 L64.0042 901.248 L28.3562 901.248 L28.3562 895.359 L33.8944 895.359 Q30.6797 893.259 29.0883 890.426 Q27.4968 887.561 27.4968 883.838 Q27.4968 877.695 31.3163 874.544 Q35.1038 871.393 42.4881 871.393 Z" fill="#000000" fill-rule="nonzero" fill-opacity="1" /><path clip-path="url(#clip650)" d="M20.1444 803.152 L26.9239 803.152 Q23.9002 806.399 22.4043 810.091 Q20.9083 813.751 20.9083 817.889 Q20.9083 826.037 25.9054 830.366 Q30.8707 834.694 40.2919 834.694 Q49.6813 834.694 54.6784 830.366 Q59.6436 826.037 59.6436 817.889 Q59.6436 813.751 58.1477 810.091 Q56.6518 806.399 53.6281 803.152 L60.3439 803.152 Q62.6355 806.526 63.7814 810.314 Q64.9272 814.069 64.9272 818.271 Q64.9272 829.061 58.3387 835.267 Q51.7183 841.474 40.2919 841.474 Q28.8336 841.474 22.2451 835.267 Q15.6248 829.061 15.6248 818.271 Q15.6248 814.006 16.7706 810.25 Q17.8846 806.462 20.1444 803.152 Z" fill="#000000" fill-rule="nonzero" fill-opacity="1" /><path clip-path="url(#clip650)" d="M46.0847 777.276 Q46.0847 784.373 47.7079 787.111 Q49.3312 789.848 53.2461 789.848 Q56.3653 789.848 58.2114 787.811 Q60.0256 785.742 60.0256 782.209 Q60.0256 777.339 56.5881 774.411 Q53.1188 771.451 47.3897 771.451 L46.0847 771.451 L46.0847 777.276 M43.6657 765.595 L64.0042 765.595 L64.0042 771.451 L58.5933 771.451 Q61.8398 773.456 63.3994 776.448 Q64.9272 779.44 64.9272 783.769 Q64.9272 789.243 61.8716 792.49 Q58.7843 795.704 53.6281 795.704 Q47.6125 795.704 44.5569 791.694 Q41.5014 787.652 41.5014 779.663 L41.5014 771.451 L40.9285 771.451 Q36.8862 771.451 34.6901 774.125 Q32.4621 776.766 32.4621 781.572 Q32.4621 784.628 33.1941 787.524 Q33.9262 790.421 35.3903 793.094 L29.9795 793.094 Q28.7381 789.88 28.1334 786.856 Q27.4968 783.832 27.4968 780.968 Q27.4968 773.233 31.5072 769.414 Q35.5176 765.595 43.6657 765.595 Z" fill="#000000" fill-rule="nonzero" fill-opacity="1" /><path clip-path="url(#clip650)" d="M58.657 747.866 L77.5631 747.866 L77.5631 753.754 L28.3562 753.754 L28.3562 747.866 L33.7671 747.866 Q30.5842 746.02 29.0564 743.219 Q27.4968 740.386 27.4968 736.471 Q27.4968 729.978 32.6531 725.936 Q37.8093 721.862 46.212 721.862 Q54.6147 721.862 59.771 725.936 Q64.9272 729.978 64.9272 736.471 Q64.9272 740.386 63.3994 743.219 Q61.8398 746.02 58.657 747.866 M46.212 727.941 Q39.7508 727.941 36.0905 730.615 Q32.3984 733.257 32.3984 737.904 Q32.3984 742.551 36.0905 745.224 Q39.7508 747.866 46.212 747.866 Q52.6732 747.866 56.3653 745.224 Q60.0256 742.551 60.0256 737.904 Q60.0256 733.257 56.3653 730.615 Q52.6732 727.941 46.212 727.941 Z" fill="#000000" fill-rule="nonzero" fill-opacity="1" /><path clip-path="url(#clip650)" d="M46.0847 695.954 Q46.0847 703.051 47.7079 705.789 Q49.3312 708.526 53.2461 708.526 Q56.3653 708.526 58.2114 706.489 Q60.0256 704.42 60.0256 700.887 Q60.0256 696.017 56.5881 693.089 Q53.1188 690.129 47.3897 690.129 L46.0847 690.129 L46.0847 695.954 M43.6657 684.273 L64.0042 684.273 L64.0042 690.129 L58.5933 690.129 Q61.8398 692.134 63.3994 695.126 Q64.9272 698.118 64.9272 702.447 Q64.9272 707.921 61.8716 711.168 Q58.7843 714.382 53.6281 714.382 Q47.6125 714.382 44.5569 710.372 Q41.5014 706.33 41.5014 698.341 L41.5014 690.129 L40.9285 690.129 Q36.8862 690.129 34.6901 692.803 Q32.4621 695.444 32.4621 700.251 Q32.4621 703.306 33.1941 706.203 Q33.9262 709.099 35.3903 711.772 L29.9795 711.772 Q28.7381 708.558 28.1334 705.534 Q27.4968 702.51 27.4968 699.646 Q27.4968 691.911 31.5072 688.092 Q35.5176 684.273 43.6657 684.273 Z" fill="#000000" fill-rule="nonzero" fill-opacity="1" /><path clip-path="url(#clip650)" d="M29.7248 646.556 L35.1993 646.556 Q33.8307 649.038 33.1623 651.553 Q32.4621 654.036 32.4621 656.582 Q32.4621 662.279 36.0905 665.43 Q39.6872 668.581 46.212 668.581 Q52.7369 668.581 56.3653 665.43 Q59.9619 662.279 59.9619 656.582 Q59.9619 654.036 59.2935 651.553 Q58.5933 649.038 57.2247 646.556 L62.6355 646.556 Q63.7814 649.007 64.3543 651.648 Q64.9272 654.258 64.9272 657.218 Q64.9272 665.271 59.8664 670.013 Q54.8057 674.756 46.212 674.756 Q37.491 674.756 32.4939 669.982 Q27.4968 665.176 27.4968 656.836 Q27.4968 654.131 28.0697 651.553 Q28.6108 648.975 29.7248 646.556 Z" fill="#000000" fill-rule="nonzero" fill-opacity="1" /><path clip-path="url(#clip650)" d="M28.3562 636.371 L28.3562 630.514 L64.0042 630.514 L64.0042 636.371 L28.3562 636.371 M14.479 636.371 L14.479 630.514 L21.895 630.514 L21.895 636.371 L14.479 636.371 Z" fill="#000000" fill-rule="nonzero" fill-opacity="1" /><path clip-path="url(#clip650)" d="M18.2347 612.467 L28.3562 612.467 L28.3562 600.404 L32.9077 600.404 L32.9077 612.467 L52.2594 612.467 Q56.6199 612.467 57.8613 611.29 Q59.1026 610.08 59.1026 606.42 L59.1026 600.404 L64.0042 600.404 L64.0042 606.42 Q64.0042 613.2 61.4897 615.778 Q58.9434 618.356 52.2594 618.356 L32.9077 618.356 L32.9077 622.653 L28.3562 622.653 L28.3562 618.356 L18.2347 618.356 L18.2347 612.467 Z" fill="#000000" fill-rule="nonzero" fill-opacity="1" /><path clip-path="url(#clip650)" d="M28.3562 592.702 L28.3562 586.846 L64.0042 586.846 L64.0042 592.702 L28.3562 592.702 M14.479 592.702 L14.479 586.846 L21.895 586.846 L21.895 592.702 L14.479 592.702 Z" fill="#000000" fill-rule="nonzero" fill-opacity="1" /><path clip-path="url(#clip650)" d="M44.7161 544.1 L47.5806 544.1 L47.5806 571.027 Q53.6281 570.645 56.8109 567.398 Q59.9619 564.12 59.9619 558.295 Q59.9619 554.921 59.1344 551.77 Q58.3069 548.588 56.6518 545.468 L62.1899 545.468 Q63.5267 548.619 64.227 551.93 Q64.9272 555.24 64.9272 558.645 Q64.9272 567.175 59.9619 572.173 Q54.9967 577.138 46.5303 577.138 Q37.7774 577.138 32.6531 572.427 Q27.4968 567.685 27.4968 559.664 Q27.4968 552.471 32.1438 548.301 Q36.7589 544.1 44.7161 544.1 M42.9973 549.956 Q38.1912 550.02 35.3266 552.662 Q32.4621 555.272 32.4621 559.6 Q32.4621 564.502 35.2312 567.462 Q38.0002 570.39 43.0292 570.836 L42.9973 549.956 Z" fill="#000000" fill-rule="nonzero" fill-opacity="1" /><path clip-path="url(#clip650)" d="M29.4065 511.762 L34.9447 511.762 Q33.6716 514.245 33.035 516.918 Q32.3984 519.592 32.3984 522.456 Q32.3984 526.817 33.7352 529.013 Q35.072 531.177 37.7456 531.177 Q39.7826 531.177 40.9603 529.618 Q42.1061 528.058 43.1565 523.348 L43.6021 521.342 Q44.9389 515.104 47.3897 512.494 Q49.8086 509.852 54.1691 509.852 Q59.1344 509.852 62.0308 513.799 Q64.9272 517.714 64.9272 524.589 Q64.9272 527.453 64.3543 530.573 Q63.8132 533.66 62.6992 537.098 L56.6518 537.098 Q58.3387 533.851 59.198 530.7 Q60.0256 527.549 60.0256 524.462 Q60.0256 520.324 58.6251 518.096 Q57.1929 515.868 54.6147 515.868 Q52.2276 515.868 50.9545 517.491 Q49.6813 519.083 48.5037 524.525 L48.0262 526.562 Q46.8804 532.005 44.5251 534.424 Q42.138 536.843 38.0002 536.843 Q32.9713 536.843 30.2341 533.278 Q27.4968 529.713 27.4968 523.157 Q27.4968 519.91 27.9743 517.046 Q28.4517 514.181 29.4065 511.762 Z" fill="#000000" fill-rule="nonzero" fill-opacity="1" /><path clip-path="url(#clip650)" d="M14.5426 465.738 Q21.8632 470.003 29.0246 472.072 Q36.186 474.141 43.5384 474.141 Q50.8908 474.141 58.1159 472.072 Q65.3091 469.971 72.5979 465.738 L72.5979 470.83 Q65.1182 475.605 57.8931 477.992 Q50.668 480.347 43.5384 480.347 Q36.4406 480.347 29.2474 477.992 Q22.0542 475.637 14.5426 470.83 L14.5426 465.738 Z" fill="#000000" fill-rule="nonzero" fill-opacity="1" /><path clip-path="url(#clip650)" d="M16.4842 454.121 L16.4842 444.54 L48.8219 432.413 L16.4842 420.223 L16.4842 410.643 L64.0042 410.643 L64.0042 416.913 L22.277 416.913 L54.8694 429.167 L54.8694 435.628 L22.277 447.882 L64.0042 447.882 L64.0042 454.121 L16.4842 454.121 Z" fill="#000000" fill-rule="nonzero" fill-opacity="1" /><path clip-path="url(#clip650)" d="M16.4842 402.113 L16.4842 395.62 L56.6518 385.626 L16.4842 375.663 L16.4842 368.438 L56.6518 358.444 L16.4842 348.482 L16.4842 341.957 L64.0042 353.892 L64.0042 361.977 L22.7544 372.003 L64.0042 382.124 L64.0042 390.209 L16.4842 402.113 Z" fill="#000000" fill-rule="nonzero" fill-opacity="1" /><path clip-path="url(#clip650)" d="M14.5426 334.604 L14.5426 329.512 Q22.0542 324.738 29.2474 322.382 Q36.4406 319.995 43.5384 319.995 Q50.668 319.995 57.8931 322.382 Q65.1182 324.738 72.5979 329.512 L72.5979 334.604 Q65.3091 330.371 58.1159 328.302 Q50.8908 326.202 43.5384 326.202 Q36.186 326.202 29.0246 328.302 Q21.8632 330.371 14.5426 334.604 Z" fill="#000000" fill-rule="nonzero" fill-opacity="1" /><path clip-path="url(#clip650)" d="M787.237 33.264 L838.4 33.264 L838.4 40.1505 L816.93 40.1505 L816.93 93.744 L808.707 93.744 L808.707 40.1505 L787.237 40.1505 L787.237 33.264 Z" fill="#000000" fill-rule="nonzero" fill-opacity="1" /><path clip-path="url(#clip650)" d="M860.072 55.3414 Q858.816 54.6123 857.317 54.2882 Q855.859 53.9236 854.077 53.9236 Q847.757 53.9236 844.355 58.0555 Q840.992 62.1469 840.992 69.8437 L840.992 93.744 L833.498 93.744 L833.498 48.3739 L840.992 48.3739 L840.992 55.4224 Q843.342 51.2905 847.109 49.3056 Q850.876 47.2801 856.264 47.2801 Q857.034 47.2801 857.966 47.4017 Q858.897 47.4827 860.032 47.6852 L860.072 55.3414 Z" fill="#000000" fill-rule="nonzero" fill-opacity="1" /><path clip-path="url(#clip650)" d="M888.509 70.9374 Q879.476 70.9374 875.992 73.0034 Q872.508 75.0693 872.508 80.0519 Q872.508 84.0218 875.101 86.3714 Q877.734 88.6804 882.23 88.6804 Q888.428 88.6804 892.155 84.3054 Q895.923 79.8899 895.923 72.5983 L895.923 70.9374 L888.509 70.9374 M903.376 67.8587 L903.376 93.744 L895.923 93.744 L895.923 86.8575 Q893.37 90.9894 889.563 92.9743 Q885.755 94.9188 880.246 94.9188 Q873.278 94.9188 869.146 91.0299 Q865.055 87.1005 865.055 80.5381 Q865.055 72.8818 870.159 68.993 Q875.303 65.1041 885.471 65.1041 L895.923 65.1041 L895.923 64.3749 Q895.923 59.2303 892.52 56.4352 Q889.158 53.5995 883.041 53.5995 Q879.152 53.5995 875.465 54.5312 Q871.779 55.463 868.376 57.3264 L868.376 50.4398 Q872.468 48.86 876.316 48.0903 Q880.165 47.2801 883.81 47.2801 Q893.654 47.2801 898.515 52.3843 Q903.376 57.4884 903.376 67.8587 Z" fill="#000000" fill-rule="nonzero" fill-opacity="1" /><path clip-path="url(#clip650)" d="M956.443 66.3599 L956.443 93.744 L948.989 93.744 L948.989 66.6029 Q948.989 60.162 946.478 56.9618 Q943.966 53.7616 938.943 53.7616 Q932.907 53.7616 929.424 57.6099 Q925.94 61.4583 925.94 68.1018 L925.94 93.744 L918.446 93.744 L918.446 48.3739 L925.94 48.3739 L925.94 55.4224 Q928.613 51.331 932.219 49.3056 Q935.864 47.2801 940.604 47.2801 Q948.422 47.2801 952.433 52.1412 Q956.443 56.9618 956.443 66.3599 Z" fill="#000000" fill-rule="nonzero" fill-opacity="1" /><path clip-path="url(#clip650)" d="M1000.23 49.7107 L1000.23 56.7592 Q997.074 55.1389 993.671 54.3287 Q990.268 53.5185 986.622 53.5185 Q981.073 53.5185 978.277 55.2199 Q975.523 56.9213 975.523 60.324 Q975.523 62.9166 977.508 64.4155 Q979.493 65.8738 985.488 67.2106 L988.04 67.7777 Q995.98 69.4791 999.302 72.5983 Q1002.66 75.677 1002.66 81.2267 Q1002.66 87.5461 997.641 91.2324 Q992.658 94.9188 983.908 94.9188 Q980.262 94.9188 976.292 94.1896 Q972.363 93.5009 967.988 92.0831 L967.988 84.3864 Q972.12 86.5334 976.13 87.6271 Q980.141 88.6804 984.07 88.6804 Q989.336 88.6804 992.172 86.898 Q995.008 85.0751 995.008 81.7938 Q995.008 78.7557 992.942 77.1353 Q990.916 75.5149 983.989 74.0161 L981.397 73.4085 Q974.47 71.9501 971.391 68.9525 Q968.312 65.9143 968.312 60.6481 Q968.312 54.2477 972.849 50.7639 Q977.386 47.2801 985.731 47.2801 Q989.863 47.2801 993.509 47.8878 Q997.155 48.4954 1000.23 49.7107 Z" fill="#000000" fill-rule="nonzero" fill-opacity="1" /><path clip-path="url(#clip650)" d="M1049.86 57.0833 Q1052.65 52.0602 1056.54 49.6702 Q1060.43 47.2801 1065.7 47.2801 Q1072.79 47.2801 1076.63 52.2627 Q1080.48 57.2048 1080.48 66.3599 L1080.48 93.744 L1072.99 93.744 L1072.99 66.6029 Q1072.99 60.081 1070.68 56.9213 Q1068.37 53.7616 1063.63 53.7616 Q1057.84 53.7616 1054.47 57.6099 Q1051.11 61.4583 1051.11 68.1018 L1051.11 93.744 L1043.62 93.744 L1043.62 66.6029 Q1043.62 60.0405 1041.31 56.9213 Q1039 53.7616 1034.18 53.7616 Q1028.47 53.7616 1025.11 57.6504 Q1021.74 61.4988 1021.74 68.1018 L1021.74 93.744 L1014.25 93.744 L1014.25 48.3739 L1021.74 48.3739 L1021.74 55.4224 Q1024.3 51.25 1027.86 49.2651 Q1031.43 47.2801 1036.33 47.2801 Q1041.27 47.2801 1044.71 49.7917 Q1048.2 52.3032 1049.86 57.0833 Z" fill="#000000" fill-rule="nonzero" fill-opacity="1" /><path clip-path="url(#clip650)" d="M1095.35 48.3739 L1102.8 48.3739 L1102.8 93.744 L1095.35 93.744 L1095.35 48.3739 M1095.35 30.7119 L1102.8 30.7119 L1102.8 40.1505 L1095.35 40.1505 L1095.35 30.7119 Z" fill="#000000" fill-rule="nonzero" fill-opacity="1" /><path clip-path="url(#clip650)" d="M1147.32 49.7107 L1147.32 56.7592 Q1144.16 55.1389 1140.76 54.3287 Q1137.36 53.5185 1133.71 53.5185 Q1128.16 53.5185 1125.37 55.2199 Q1122.61 56.9213 1122.61 60.324 Q1122.61 62.9166 1124.6 64.4155 Q1126.58 65.8738 1132.58 67.2106 L1135.13 67.7777 Q1143.07 69.4791 1146.39 72.5983 Q1149.75 75.677 1149.75 81.2267 Q1149.75 87.5461 1144.73 91.2324 Q1139.75 94.9188 1131 94.9188 Q1127.35 94.9188 1123.38 94.1896 Q1119.45 93.5009 1115.08 92.0831 L1115.08 84.3864 Q1119.21 86.5334 1123.22 87.6271 Q1127.23 88.6804 1131.16 88.6804 Q1136.42 88.6804 1139.26 86.898 Q1142.1 85.0751 1142.1 81.7938 Q1142.1 78.7557 1140.03 77.1353 Q1138 75.5149 1131.08 74.0161 L1128.48 73.4085 Q1121.56 71.9501 1118.48 68.9525 Q1115.4 65.9143 1115.4 60.6481 Q1115.4 54.2477 1119.94 50.7639 Q1124.47 47.2801 1132.82 47.2801 Q1136.95 47.2801 1140.6 47.8878 Q1144.24 48.4954 1147.32 49.7107 Z" fill="#000000" fill-rule="nonzero" fill-opacity="1" /><path clip-path="url(#clip650)" d="M1190.54 49.7107 L1190.54 56.7592 Q1187.39 55.1389 1183.98 54.3287 Q1180.58 53.5185 1176.93 53.5185 Q1171.38 53.5185 1168.59 55.2199 Q1165.83 56.9213 1165.83 60.324 Q1165.83 62.9166 1167.82 64.4155 Q1169.8 65.8738 1175.8 67.2106 L1178.35 67.7777 Q1186.29 69.4791 1189.61 72.5983 Q1192.98 75.677 1192.98 81.2267 Q1192.98 87.5461 1187.95 91.2324 Q1182.97 94.9188 1174.22 94.9188 Q1170.57 94.9188 1166.6 94.1896 Q1162.67 93.5009 1158.3 92.0831 L1158.3 84.3864 Q1162.43 86.5334 1166.44 87.6271 Q1170.45 88.6804 1174.38 88.6804 Q1179.65 88.6804 1182.48 86.898 Q1185.32 85.0751 1185.32 81.7938 Q1185.32 78.7557 1183.25 77.1353 Q1181.23 75.5149 1174.3 74.0161 L1171.71 73.4085 Q1164.78 71.9501 1161.7 68.9525 Q1158.62 65.9143 1158.62 60.6481 Q1158.62 54.2477 1163.16 50.7639 Q1167.7 47.2801 1176.04 47.2801 Q1180.17 47.2801 1183.82 47.8878 Q1187.47 48.4954 1190.54 49.7107 Z" fill="#000000" fill-rule="nonzero" fill-opacity="1" /><path clip-path="url(#clip650)" d="M1204.84 48.3739 L1212.3 48.3739 L1212.3 93.744 L1204.84 93.744 L1204.84 48.3739 M1204.84 30.7119 L1212.3 30.7119 L1212.3 40.1505 L1204.84 40.1505 L1204.84 30.7119 Z" fill="#000000" fill-rule="nonzero" fill-opacity="1" /><path clip-path="url(#clip650)" d="M1245.48 53.5995 Q1239.48 53.5995 1236 58.2986 Q1232.51 62.9571 1232.51 71.0994 Q1232.51 79.2418 1235.96 83.9408 Q1239.44 88.5994 1245.48 88.5994 Q1251.43 88.5994 1254.91 83.9003 Q1258.4 79.2013 1258.4 71.0994 Q1258.4 63.0381 1254.91 58.3391 Q1251.43 53.5995 1245.48 53.5995 M1245.48 47.2801 Q1255.2 47.2801 1260.75 53.5995 Q1266.3 59.9189 1266.3 71.0994 Q1266.3 82.2394 1260.75 88.5994 Q1255.2 94.9188 1245.48 94.9188 Q1235.71 94.9188 1230.16 88.5994 Q1224.65 82.2394 1224.65 71.0994 Q1224.65 59.9189 1230.16 53.5995 Q1235.71 47.2801 1245.48 47.2801 Z" fill="#000000" fill-rule="nonzero" fill-opacity="1" /><path clip-path="url(#clip650)" d="M1316.37 66.3599 L1316.37 93.744 L1308.91 93.744 L1308.91 66.6029 Q1308.91 60.162 1306.4 56.9618 Q1303.89 53.7616 1298.87 53.7616 Q1292.83 53.7616 1289.35 57.6099 Q1285.86 61.4583 1285.86 68.1018 L1285.86 93.744 L1278.37 93.744 L1278.37 48.3739 L1285.86 48.3739 L1285.86 55.4224 Q1288.54 51.331 1292.14 49.3056 Q1295.79 47.2801 1300.53 47.2801 Q1308.35 47.2801 1312.36 52.1412 Q1316.37 56.9618 1316.37 66.3599 Z" fill="#000000" fill-rule="nonzero" fill-opacity="1" /><path clip-path="url(#clip650)" d="M1403.22 37.9225 L1403.22 46.551 Q1399.09 42.7026 1394.39 40.7987 Q1389.73 38.8948 1384.46 38.8948 Q1374.09 38.8948 1368.58 45.2547 Q1363.07 51.5741 1363.07 63.5648 Q1363.07 75.5149 1368.58 81.8749 Q1374.09 88.1943 1384.46 88.1943 Q1389.73 88.1943 1394.39 86.2903 Q1399.09 84.3864 1403.22 80.5381 L1403.22 89.0855 Q1398.92 92.0021 1394.1 93.4604 Q1389.32 94.9188 1383.98 94.9188 Q1370.24 94.9188 1362.34 86.5334 Q1354.44 78.1075 1354.44 63.5648 Q1354.44 48.9815 1362.34 40.5961 Q1370.24 32.1703 1383.98 32.1703 Q1389.4 32.1703 1394.18 33.6286 Q1399 35.0464 1403.22 37.9225 Z" fill="#000000" fill-rule="nonzero" fill-opacity="1" /><path clip-path="url(#clip650)" d="M1436.15 70.9374 Q1427.12 70.9374 1423.63 73.0034 Q1420.15 75.0693 1420.15 80.0519 Q1420.15 84.0218 1422.74 86.3714 Q1425.38 88.6804 1429.87 88.6804 Q1436.07 88.6804 1439.8 84.3054 Q1443.56 79.8899 1443.56 72.5983 L1443.56 70.9374 L1436.15 70.9374 M1451.02 67.8587 L1451.02 93.744 L1443.56 93.744 L1443.56 86.8575 Q1441.01 90.9894 1437.2 92.9743 Q1433.4 94.9188 1427.89 94.9188 Q1420.92 94.9188 1416.79 91.0299 Q1412.7 87.1005 1412.7 80.5381 Q1412.7 72.8818 1417.8 68.993 Q1422.95 65.1041 1433.11 65.1041 L1443.56 65.1041 L1443.56 64.3749 Q1443.56 59.2303 1440.16 56.4352 Q1436.8 53.5995 1430.68 53.5995 Q1426.79 53.5995 1423.11 54.5312 Q1419.42 55.463 1416.02 57.3264 L1416.02 50.4398 Q1420.11 48.86 1423.96 48.0903 Q1427.81 47.2801 1431.45 47.2801 Q1441.3 47.2801 1446.16 52.3843 Q1451.02 57.4884 1451.02 67.8587 Z" fill="#000000" fill-rule="nonzero" fill-opacity="1" /><path clip-path="url(#clip650)" d="M1473.58 86.9385 L1473.58 111.001 L1466.09 111.001 L1466.09 48.3739 L1473.58 48.3739 L1473.58 55.2604 Q1475.93 51.2095 1479.5 49.2651 Q1483.1 47.2801 1488.08 47.2801 Q1496.35 47.2801 1501.49 53.8426 Q1506.68 60.4051 1506.68 71.0994 Q1506.68 81.7938 1501.49 88.3563 Q1496.35 94.9188 1488.08 94.9188 Q1483.1 94.9188 1479.5 92.9743 Q1475.93 90.9894 1473.58 86.9385 M1498.94 71.0994 Q1498.94 62.8761 1495.54 58.2176 Q1492.18 53.5185 1486.26 53.5185 Q1480.35 53.5185 1476.94 58.2176 Q1473.58 62.8761 1473.58 71.0994 Q1473.58 79.3228 1476.94 84.0218 Q1480.35 88.6804 1486.26 88.6804 Q1492.18 88.6804 1495.54 84.0218 Q1498.94 79.3228 1498.94 71.0994 Z" fill="#000000" fill-rule="nonzero" fill-opacity="1" /><path clip-path="url(#clip650)" d="M1539.65 70.9374 Q1530.62 70.9374 1527.13 73.0034 Q1523.65 75.0693 1523.65 80.0519 Q1523.65 84.0218 1526.24 86.3714 Q1528.88 88.6804 1533.37 88.6804 Q1539.57 88.6804 1543.3 84.3054 Q1547.06 79.8899 1547.06 72.5983 L1547.06 70.9374 L1539.65 70.9374 M1554.52 67.8587 L1554.52 93.744 L1547.06 93.744 L1547.06 86.8575 Q1544.51 90.9894 1540.7 92.9743 Q1536.9 94.9188 1531.39 94.9188 Q1524.42 94.9188 1520.29 91.0299 Q1516.2 87.1005 1516.2 80.5381 Q1516.2 72.8818 1521.3 68.993 Q1526.45 65.1041 1536.61 65.1041 L1547.06 65.1041 L1547.06 64.3749 Q1547.06 59.2303 1543.66 56.4352 Q1540.3 53.5995 1534.18 53.5995 Q1530.29 53.5995 1526.61 54.5312 Q1522.92 55.463 1519.52 57.3264 L1519.52 50.4398 Q1523.61 48.86 1527.46 48.0903 Q1531.31 47.2801 1534.95 47.2801 Q1544.8 47.2801 1549.66 52.3843 Q1554.52 57.4884 1554.52 67.8587 Z" fill="#000000" fill-rule="nonzero" fill-opacity="1" /><path clip-path="url(#clip650)" d="M1602.52 50.1158 L1602.52 57.0833 Q1599.36 55.3414 1596.16 54.4907 Q1593 53.5995 1589.76 53.5995 Q1582.51 53.5995 1578.5 58.2176 Q1574.49 62.7951 1574.49 71.0994 Q1574.49 79.4038 1578.5 84.0218 Q1582.51 88.5994 1589.76 88.5994 Q1593 88.5994 1596.16 87.7487 Q1599.36 86.8575 1602.52 85.1156 L1602.52 92.0021 Q1599.4 93.4604 1596.04 94.1896 Q1592.72 94.9188 1588.95 94.9188 Q1578.7 94.9188 1572.67 88.4778 Q1566.63 82.0369 1566.63 71.0994 Q1566.63 60 1572.71 53.64 Q1578.82 47.2801 1589.44 47.2801 Q1592.88 47.2801 1596.16 48.0093 Q1599.44 48.6979 1602.52 50.1158 Z" fill="#000000" fill-rule="nonzero" fill-opacity="1" /><path clip-path="url(#clip650)" d="M1615.48 48.3739 L1622.94 48.3739 L1622.94 93.744 L1615.48 93.744 L1615.48 48.3739 M1615.48 30.7119 L1622.94 30.7119 L1622.94 40.1505 L1615.48 40.1505 L1615.48 30.7119 Z" fill="#000000" fill-rule="nonzero" fill-opacity="1" /><path clip-path="url(#clip650)" d="M1645.91 35.492 L1645.91 48.3739 L1661.26 48.3739 L1661.26 54.1667 L1645.91 54.1667 L1645.91 78.7962 Q1645.91 84.3459 1647.41 85.9258 Q1648.95 87.5056 1653.6 87.5056 L1661.26 87.5056 L1661.26 93.744 L1653.6 93.744 Q1644.98 93.744 1641.69 90.5438 Q1638.41 87.3031 1638.41 78.7962 L1638.41 54.1667 L1632.94 54.1667 L1632.94 48.3739 L1638.41 48.3739 L1638.41 35.492 L1645.91 35.492 Z" fill="#000000" fill-rule="nonzero" fill-opacity="1" /><path clip-path="url(#clip650)" d="M1671.06 48.3739 L1678.52 48.3739 L1678.52 93.744 L1671.06 93.744 L1671.06 48.3739 M1671.06 30.7119 L1678.52 30.7119 L1678.52 40.1505 L1671.06 40.1505 L1671.06 30.7119 Z" fill="#000000" fill-rule="nonzero" fill-opacity="1" /><path clip-path="url(#clip650)" d="M1732.92 69.1955 L1732.92 72.8413 L1698.65 72.8413 Q1699.14 80.5381 1703.27 84.589 Q1707.44 88.5994 1714.85 88.5994 Q1719.15 88.5994 1723.16 87.5461 Q1727.21 86.4929 1731.18 84.3864 L1731.18 91.435 Q1727.17 93.1364 1722.96 94.0276 Q1718.74 94.9188 1714.41 94.9188 Q1703.55 94.9188 1697.19 88.5994 Q1690.87 82.2799 1690.87 71.5045 Q1690.87 60.3645 1696.87 53.8426 Q1702.9 47.2801 1713.11 47.2801 Q1722.27 47.2801 1727.57 53.1944 Q1732.92 59.0683 1732.92 69.1955 M1725.47 67.008 Q1725.39 60.8912 1722.02 57.2454 Q1718.7 53.5995 1713.19 53.5995 Q1706.95 53.5995 1703.19 57.1238 Q1699.46 60.6481 1698.89 67.0485 L1725.47 67.008 Z" fill="#000000" fill-rule="nonzero" fill-opacity="1" /><path clip-path="url(#clip650)" d="M1774.08 49.7107 L1774.08 56.7592 Q1770.92 55.1389 1767.52 54.3287 Q1764.11 53.5185 1760.47 53.5185 Q1754.92 53.5185 1752.12 55.2199 Q1749.37 56.9213 1749.37 60.324 Q1749.37 62.9166 1751.35 64.4155 Q1753.34 65.8738 1759.33 67.2106 L1761.88 67.7777 Q1769.82 69.4791 1773.15 72.5983 Q1776.51 75.677 1776.51 81.2267 Q1776.51 87.5461 1771.48 91.2324 Q1766.5 94.9188 1757.75 94.9188 Q1754.11 94.9188 1750.14 94.1896 Q1746.21 93.5009 1741.83 92.0831 L1741.83 84.3864 Q1745.96 86.5334 1749.97 87.6271 Q1753.99 88.6804 1757.91 88.6804 Q1763.18 88.6804 1766.02 86.898 Q1768.85 85.0751 1768.85 81.7938 Q1768.85 78.7557 1766.79 77.1353 Q1764.76 75.5149 1757.83 74.0161 L1755.24 73.4085 Q1748.31 71.9501 1745.24 68.9525 Q1742.16 65.9143 1742.16 60.6481 Q1742.16 54.2477 1746.69 50.7639 Q1751.23 47.2801 1759.58 47.2801 Q1763.71 47.2801 1767.35 47.8878 Q1771 48.4954 1774.08 49.7107 Z" fill="#000000" fill-rule="nonzero" fill-opacity="1" /><path clip-path="url(#clip650)" d="M1847.32 71.0994 Q1847.32 62.8761 1843.92 58.2176 Q1840.55 53.5185 1834.64 53.5185 Q1828.72 53.5185 1825.32 58.2176 Q1821.96 62.8761 1821.96 71.0994 Q1821.96 79.3228 1825.32 84.0218 Q1828.72 88.6804 1834.64 88.6804 Q1840.55 88.6804 1843.92 84.0218 Q1847.32 79.3228 1847.32 71.0994 M1821.96 55.2604 Q1824.31 51.2095 1827.87 49.2651 Q1831.48 47.2801 1836.46 47.2801 Q1844.73 47.2801 1849.87 53.8426 Q1855.06 60.4051 1855.06 71.0994 Q1855.06 81.7938 1849.87 88.3563 Q1844.73 94.9188 1836.46 94.9188 Q1831.48 94.9188 1827.87 92.9743 Q1824.31 90.9894 1821.96 86.9385 L1821.96 93.744 L1814.47 93.744 L1814.47 30.7119 L1821.96 30.7119 L1821.96 55.2604 Z" fill="#000000" fill-rule="nonzero" fill-opacity="1" /><path clip-path="url(#clip650)" d="M1886.29 97.9569 Q1883.13 106.059 1880.13 108.53 Q1877.13 111.001 1872.11 111.001 L1866.15 111.001 L1866.15 104.762 L1870.53 104.762 Q1873.61 104.762 1875.31 103.304 Q1877.01 101.846 1879.08 96.4176 L1880.41 93.0148 L1862.06 48.3739 L1869.96 48.3739 L1884.14 83.8598 L1898.32 48.3739 L1906.22 48.3739 L1886.29 97.9569 Z" fill="#000000" fill-rule="nonzero" fill-opacity="1" /><path clip-path="url(#clip650)" d="M1023.14 128.643 L1023.14 137.271 Q1019.01 133.423 1014.31 131.519 Q1009.65 129.615 1004.39 129.615 Q994.015 129.615 988.506 135.975 Q982.997 142.294 982.997 154.285 Q982.997 166.235 988.506 172.595 Q994.015 178.914 1004.39 178.914 Q1009.65 178.914 1014.31 177.01 Q1019.01 175.106 1023.14 171.258 L1023.14 179.805 Q1018.85 182.722 1014.03 184.18 Q1009.25 185.639 1003.9 185.639 Q990.167 185.639 982.268 177.253 Q974.368 168.828 974.368 154.285 Q974.368 139.702 982.268 131.316 Q990.167 122.89 1003.9 122.89 Q1009.33 122.89 1014.11 124.349 Q1018.93 125.766 1023.14 128.643 Z" fill="#000000" fill-rule="nonzero" fill-opacity="1" /><path clip-path="url(#clip650)" d="M1053.04 144.32 Q1047.04 144.32 1043.56 149.019 Q1040.07 153.677 1040.07 161.819 Q1040.07 169.962 1043.52 174.661 Q1047 179.319 1053.04 179.319 Q1058.99 179.319 1062.48 174.62 Q1065.96 169.921 1065.96 161.819 Q1065.96 153.758 1062.48 149.059 Q1058.99 144.32 1053.04 144.32 M1053.04 138 Q1062.76 138 1068.31 144.32 Q1073.86 150.639 1073.86 161.819 Q1073.86 172.959 1068.31 179.319 Q1062.76 185.639 1053.04 185.639 Q1043.27 185.639 1037.72 179.319 Q1032.22 172.959 1032.22 161.819 Q1032.22 150.639 1037.72 144.32 Q1043.27 138 1053.04 138 Z" fill="#000000" fill-rule="nonzero" fill-opacity="1" /><path clip-path="url(#clip650)" d="M1085.44 166.559 L1085.44 139.094 L1092.9 139.094 L1092.9 166.275 Q1092.9 172.716 1095.41 175.957 Q1097.92 179.157 1102.94 179.157 Q1108.98 179.157 1112.46 175.309 Q1115.99 171.461 1115.99 164.817 L1115.99 139.094 L1123.44 139.094 L1123.44 184.464 L1115.99 184.464 L1115.99 177.496 Q1113.27 181.628 1109.67 183.654 Q1106.1 185.639 1101.36 185.639 Q1093.55 185.639 1089.5 180.778 Q1085.44 175.917 1085.44 166.559 M1104.2 138 L1104.2 138 Z" fill="#000000" fill-rule="nonzero" fill-opacity="1" /><path clip-path="url(#clip650)" d="M1176.51 157.08 L1176.51 184.464 L1169.05 184.464 L1169.05 157.323 Q1169.05 150.882 1166.54 147.682 Q1164.03 144.482 1159.01 144.482 Q1152.97 144.482 1149.49 148.33 Q1146.01 152.178 1146.01 158.822 L1146.01 184.464 L1138.51 184.464 L1138.51 139.094 L1146.01 139.094 L1146.01 146.142 Q1148.68 142.051 1152.28 140.026 Q1155.93 138 1160.67 138 Q1168.49 138 1172.5 142.861 Q1176.51 147.682 1176.51 157.08 Z" fill="#000000" fill-rule="nonzero" fill-opacity="1" /><path clip-path="url(#clip650)" d="M1198.75 126.212 L1198.75 139.094 L1214.1 139.094 L1214.1 144.887 L1198.75 144.887 L1198.75 169.516 Q1198.75 175.066 1200.25 176.646 Q1201.79 178.226 1206.44 178.226 L1214.1 178.226 L1214.1 184.464 L1206.44 184.464 Q1197.82 184.464 1194.53 181.264 Q1191.25 178.023 1191.25 169.516 L1191.25 144.887 L1185.79 144.887 L1185.79 139.094 L1191.25 139.094 L1191.25 126.212 L1198.75 126.212 Z" fill="#000000" fill-rule="nonzero" fill-opacity="1" /><path clip-path="url(#clip650)" d="M1250.19 146.061 Q1248.94 145.332 1247.44 145.008 Q1245.98 144.644 1244.2 144.644 Q1237.88 144.644 1234.48 148.776 Q1231.11 152.867 1231.11 160.564 L1231.11 184.464 L1223.62 184.464 L1223.62 139.094 L1231.11 139.094 L1231.11 146.142 Q1233.46 142.011 1237.23 140.026 Q1241 138 1246.39 138 Q1247.16 138 1248.09 138.122 Q1249.02 138.203 1250.15 138.405 L1250.19 146.061 Z" fill="#000000" fill-rule="nonzero" fill-opacity="1" /><path clip-path="url(#clip650)" d="M1276.89 188.677 Q1273.73 196.779 1270.73 199.25 Q1267.73 201.721 1262.71 201.721 L1256.76 201.721 L1256.76 195.482 L1261.13 195.482 Q1264.21 195.482 1265.91 194.024 Q1267.61 192.566 1269.68 187.138 L1271.02 183.735 L1252.67 139.094 L1260.56 139.094 L1274.74 174.58 L1288.92 139.094 L1296.82 139.094 L1276.89 188.677 Z" fill="#000000" fill-rule="nonzero" fill-opacity="1" /><path clip-path="url(#clip650)" d="M1340.85 126.212 L1340.85 139.094 L1356.21 139.094 L1356.21 144.887 L1340.85 144.887 L1340.85 169.516 Q1340.85 175.066 1342.35 176.646 Q1343.89 178.226 1348.55 178.226 L1356.21 178.226 L1356.21 184.464 L1348.55 184.464 Q1339.92 184.464 1336.64 181.264 Q1333.36 178.023 1333.36 169.516 L1333.36 144.887 L1327.89 144.887 L1327.89 139.094 L1333.36 139.094 L1333.36 126.212 L1340.85 126.212 Z" fill="#000000" fill-rule="nonzero" fill-opacity="1" /><path clip-path="url(#clip650)" d="M1383.59 144.32 Q1377.6 144.32 1374.11 149.019 Q1370.63 153.677 1370.63 161.819 Q1370.63 169.962 1374.07 174.661 Q1377.55 179.319 1383.59 179.319 Q1389.55 179.319 1393.03 174.62 Q1396.51 169.921 1396.51 161.819 Q1396.51 153.758 1393.03 149.059 Q1389.55 144.32 1383.59 144.32 M1383.59 138 Q1393.31 138 1398.86 144.32 Q1404.41 150.639 1404.41 161.819 Q1404.41 172.959 1398.86 179.319 Q1393.31 185.639 1383.59 185.639 Q1373.83 185.639 1368.28 179.319 Q1362.77 172.959 1362.77 161.819 Q1362.77 150.639 1368.28 144.32 Q1373.83 138 1383.59 138 Z" fill="#000000" fill-rule="nonzero" fill-opacity="1" /><path clip-path="url(#clip650)" d="M1475.79 140.836 L1475.79 147.803 Q1472.63 146.061 1469.43 145.211 Q1466.27 144.32 1463.03 144.32 Q1455.78 144.32 1451.77 148.938 Q1447.76 153.515 1447.76 161.819 Q1447.76 170.124 1451.77 174.742 Q1455.78 179.319 1463.03 179.319 Q1466.27 179.319 1469.43 178.469 Q1472.63 177.577 1475.79 175.836 L1475.79 182.722 Q1472.67 184.18 1469.31 184.91 Q1465.99 185.639 1462.22 185.639 Q1451.97 185.639 1445.93 179.198 Q1439.9 172.757 1439.9 161.819 Q1439.9 150.72 1445.97 144.36 Q1452.09 138 1462.7 138 Q1466.15 138 1469.43 138.729 Q1472.71 139.418 1475.79 140.836 Z" fill="#000000" fill-rule="nonzero" fill-opacity="1" /><path clip-path="url(#clip650)" d="M1506.33 144.32 Q1500.34 144.32 1496.85 149.019 Q1493.37 153.677 1493.37 161.819 Q1493.37 169.962 1496.81 174.661 Q1500.3 179.319 1506.33 179.319 Q1512.29 179.319 1515.77 174.62 Q1519.26 169.921 1519.26 161.819 Q1519.26 153.758 1515.77 149.059 Q1512.29 144.32 1506.33 144.32 M1506.33 138 Q1516.06 138 1521.6 144.32 Q1527.15 150.639 1527.15 161.819 Q1527.15 172.959 1521.6 179.319 Q1516.06 185.639 1506.33 185.639 Q1496.57 185.639 1491.02 179.319 Q1485.51 172.959 1485.51 161.819 Q1485.51 150.639 1491.02 144.32 Q1496.57 138 1506.33 138 Z" fill="#000000" fill-rule="nonzero" fill-opacity="1" /><path clip-path="url(#clip650)" d="M1538.74 166.559 L1538.74 139.094 L1546.19 139.094 L1546.19 166.275 Q1546.19 172.716 1548.71 175.957 Q1551.22 179.157 1556.24 179.157 Q1562.28 179.157 1565.76 175.309 Q1569.28 171.461 1569.28 164.817 L1569.28 139.094 L1576.74 139.094 L1576.74 184.464 L1569.28 184.464 L1569.28 177.496 Q1566.57 181.628 1562.96 183.654 Q1559.4 185.639 1554.66 185.639 Q1546.84 185.639 1542.79 180.778 Q1538.74 175.917 1538.74 166.559 M1557.5 138 L1557.5 138 Z" fill="#000000" fill-rule="nonzero" fill-opacity="1" /><path clip-path="url(#clip650)" d="M1629.8 157.08 L1629.8 184.464 L1622.35 184.464 L1622.35 157.323 Q1622.35 150.882 1619.84 147.682 Q1617.33 144.482 1612.3 144.482 Q1606.27 144.482 1602.79 148.33 Q1599.3 152.178 1599.3 158.822 L1599.3 184.464 L1591.81 184.464 L1591.81 139.094 L1599.3 139.094 L1599.3 146.142 Q1601.97 142.051 1605.58 140.026 Q1609.23 138 1613.97 138 Q1621.78 138 1625.79 142.861 Q1629.8 147.682 1629.8 157.08 Z" fill="#000000" fill-rule="nonzero" fill-opacity="1" /><path clip-path="url(#clip650)" d="M1652.04 126.212 L1652.04 139.094 L1667.4 139.094 L1667.4 144.887 L1652.04 144.887 L1652.04 169.516 Q1652.04 175.066 1653.54 176.646 Q1655.08 178.226 1659.74 178.226 L1667.4 178.226 L1667.4 184.464 L1659.74 184.464 Q1651.11 184.464 1647.83 181.264 Q1644.55 178.023 1644.55 169.516 L1644.55 144.887 L1639.08 144.887 L1639.08 139.094 L1644.55 139.094 L1644.55 126.212 L1652.04 126.212 Z" fill="#000000" fill-rule="nonzero" fill-opacity="1" /><path clip-path="url(#clip650)" d="M1703.49 146.061 Q1702.23 145.332 1700.74 145.008 Q1699.28 144.644 1697.5 144.644 Q1691.18 144.644 1687.77 148.776 Q1684.41 152.867 1684.41 160.564 L1684.41 184.464 L1676.92 184.464 L1676.92 139.094 L1684.41 139.094 L1684.41 146.142 Q1686.76 142.011 1690.53 140.026 Q1694.3 138 1699.68 138 Q1700.45 138 1701.38 138.122 Q1702.32 138.203 1703.45 138.405 L1703.49 146.061 Z" fill="#000000" fill-rule="nonzero" fill-opacity="1" /><path clip-path="url(#clip650)" d="M1730.19 188.677 Q1727.03 196.779 1724.03 199.25 Q1721.03 201.721 1716.01 201.721 L1710.05 201.721 L1710.05 195.482 L1714.43 195.482 Q1717.51 195.482 1719.21 194.024 Q1720.91 192.566 1722.98 187.138 L1724.31 183.735 L1705.96 139.094 L1713.86 139.094 L1728.04 174.58 L1742.22 139.094 L1750.12 139.094 L1730.19 188.677 Z" fill="#000000" fill-rule="nonzero" fill-opacity="1" /><path clip-path="url(#clip652)" d="M451.366 219.025 L451.366 1388.11 L963.001 1388.11 L963.001 219.025 L451.366 219.025 L451.366 219.025  Z" fill="#009af9" fill-rule="evenodd" fill-opacity="1"/>
<polyline clip-path="url(#clip652)" style="stroke:#000000; stroke-linecap:round; stroke-linejoin:round; stroke-width:4; stroke-opacity:1; fill:none" points="451.366,219.025 451.366,1388.11 963.001,1388.11 963.001,219.025 451.366,219.025 "/>
<path clip-path="url(#clip652)" d="M1090.91 1380.08 L1090.91 1388.11 L1602.55 1388.11 L1602.55 1380.08 L1090.91 1380.08 L1090.91 1380.08  Z" fill="#009af9" fill-rule="evenodd" fill-opacity="1"/>
<polyline clip-path="url(#clip652)" style="stroke:#000000; stroke-linecap:round; stroke-linejoin:round; stroke-width:4; stroke-opacity:1; fill:none" points="1090.91,1380.08 1090.91,1388.11 1602.55,1388.11 1602.55,1380.08 1090.91,1380.08 "/>
<path clip-path="url(#clip652)" d="M1730.45 1300.95 L1730.45 1388.11 L2242.09 1388.11 L2242.09 1300.95 L1730.45 1300.95 L1730.45 1300.95  Z" fill="#009af9" fill-rule="evenodd" fill-opacity="1"/>
<polyline clip-path="url(#clip652)" style="stroke:#000000; stroke-linecap:round; stroke-linejoin:round; stroke-width:4; stroke-opacity:1; fill:none" points="1730.45,1300.95 1730.45,1388.11 2242.09,1388.11 2242.09,1300.95 1730.45,1300.95 "/>
<circle clip-path="url(#clip652)" style="fill:#009af9; stroke:none; fill-opacity:0" cx="707.183" cy="219.025" r="2"/>
<circle clip-path="url(#clip652)" style="fill:#009af9; stroke:none; fill-opacity:0" cx="1346.73" cy="1380.08" r="2"/>
<circle clip-path="url(#clip652)" style="fill:#009af9; stroke:none; fill-opacity:0" cx="1986.27" cy="1300.95" r="2"/>
</svg>
